<svg width="1000" height="420" viewBox="0 0 1000 420" fill="none" xmlns="http://www.w3.org/2000/svg">
<g clip-path="url(#clip0_570_6500)">
<rect width="1000" height="420" fill="white"/>
<rect width="1000" height="275" fill="url(#paint0_linear_570_6500)"/>
<rect width="1000" height="275" fill="url(#paint1_linear_570_6500)"/>
<g opacity="0.2">
<path d="M1068.5 292.615C1068.03 293.21 858.849 294.66 450.21 162.112C41.5717 29.5632 -177.69 459.059 -184.669 461.723" stroke="#FCE721" stroke-width="1.11256"/>
<path d="M1067.93 300.561C1067 301.753 855.759 314.058 451.92 182.122C48.0803 50.1864 -170.2 457.584 -184.158 462.911" stroke="#FBE021" stroke-width="1.11256"/>
<path d="M1067.37 308.508C1065.98 310.295 852.67 333.456 453.629 202.133C54.589 70.8099 -162.71 456.109 -183.648 464.1" stroke="#FBDA21" stroke-width="1.11256"/>
<path d="M1066.81 316.455C1064.95 318.838 849.58 352.854 455.339 222.144C61.0976 91.4333 -155.22 454.634 -183.137 465.289" stroke="#FAD321" stroke-width="1.11256"/>
<path d="M1066.25 324.401C1063.92 327.38 846.491 372.252 457.048 242.154C67.6061 112.057 -147.731 453.158 -182.627 466.477" stroke="#FACC21" stroke-width="1.11256"/>
<path d="M1065.32 328.892C1062.52 332.467 843.029 388.194 458.386 258.709C73.7426 129.224 -140.613 448.228 -182.489 464.21" stroke="#F9C522" stroke-width="1.11256"/>
<path d="M1063.72 327.247C1060.46 331.417 838.907 398 459.063 269.128C79.2184 140.256 -134.156 437.161 -183.011 455.807" stroke="#F9BF22" stroke-width="1.11256"/>
<path d="M1062.04 324.79C1058.32 329.556 834.697 406.994 459.652 278.734C84.607 150.475 -127.786 425.282 -183.62 446.592" stroke="#F8B822" stroke-width="1.11256"/>
<path d="M1060.28 321.587C1056.09 326.949 830.407 415.242 460.161 287.595C89.9149 159.949 -121.497 412.657 -184.31 436.631" stroke="#F8B122" stroke-width="1.11256"/>
<path d="M1058.44 317.71C1053.79 323.668 826.045 422.817 460.598 295.783C95.1509 168.749 -115.28 399.359 -185.073 425.996" stroke="#F7AA22" stroke-width="1.11256"/>
<path d="M1056.55 313.23C1051.42 319.784 821.618 429.788 460.97 303.367C100.322 176.946 -109.128 385.457 -185.9 414.758" stroke="#F7A322" stroke-width="1.11256"/>
<path d="M1054.59 308.213C1049 315.362 817.132 436.222 461.283 310.414C105.434 184.605 -103.035 371.018 -186.785 402.983" stroke="#F69D22" stroke-width="1.11256"/>
<path d="M1052.58 302.716C1046.53 310.461 812.595 442.176 461.545 316.98C110.495 191.785 -96.9923 356.099 -187.722 390.728" stroke="#F69622" stroke-width="1.11256"/>
<path d="M1050.52 296.791C1044.01 305.132 808.013 447.702 461.762 323.12C115.511 198.537 -90.9959 340.753 -188.705 378.045" stroke="#F58F22" stroke-width="1.11256"/>
<path d="M1048.43 290.485C1041.44 299.421 803.388 452.847 461.937 328.877C120.485 204.907 -85.0407 325.025 -189.729 364.981" stroke="#F58822" stroke-width="1.11256"/>
<path d="M1046.3 283.837C1038.85 293.369 798.728 457.65 462.075 334.293C125.422 210.936 -79.1224 308.955 -190.79 351.575" stroke="#F48223" stroke-width="1.11256"/>
<path d="M1044.13 276.882C1036.22 287.01 794.034 462.147 462.18 339.403C130.326 216.658 -73.237 292.579 -191.884 337.862" stroke="#F47B23" stroke-width="1.11256"/>
<path d="M1041.93 269.652C1033.55 280.376 789.31 466.368 462.255 344.236C135.201 222.105 -67.3812 275.927 -193.007 323.874" stroke="#F37423" stroke-width="1.11256"/>
<path d="M1039.71 262.173C1030.87 273.493 784.56 470.34 462.304 348.821C140.048 227.303 -61.5523 259.026 -194.158 309.637" stroke="#F36D23" stroke-width="1.11256"/>
<path d="M1037.47 254.469C1028.15 266.385 779.785 474.088 462.329 353.182C144.872 232.276 -55.7476 241.901 -195.332 295.175" stroke="#F26723" stroke-width="1.11256"/>
<path d="M1035.2 246.562C1025.42 259.073 774.989 477.631 462.331 357.338C149.674 237.045 -49.9646 224.571 -196.528 280.51" stroke="#F26023" stroke-width="1.11256"/>
<path d="M1032.91 238.469C1022.67 251.575 770.173 480.989 462.314 361.309C154.455 241.628 -44.2019 207.056 -197.745 265.659" stroke="#F15923" stroke-width="1.11256"/>
<path d="M1030.6 230.207C1019.9 243.909 765.338 484.178 462.278 365.111C159.219 246.043 -38.4571 189.373 -198.979 250.639" stroke="#F15223" stroke-width="1.11256"/>
<path d="M1028.28 221.79C1017.11 236.089 760.487 487.213 462.226 368.758C163.966 250.303 -32.729 171.535 -200.231 235.464" stroke="#F04B23" stroke-width="1.11256"/>
<path d="M1025.94 213.233C1014.3 228.127 755.62 490.107 462.159 372.265C168.698 254.423 -27.0162 153.556 -201.497 220.149" stroke="#F04523" stroke-width="1.11256"/>
<path d="M1023.59 204.546C1011.48 220.035 750.74 492.871 462.078 375.641C173.415 258.412 -21.3173 135.446 -202.777 204.704" stroke="#EF3E24" stroke-width="1.11256"/>
<path d="M1021.22 195.739C1008.65 211.824 745.847 495.515 461.983 378.899C178.12 262.282 -15.6312 117.218 -204.07 189.139" stroke="#EF3724" stroke-width="1.11256"/>
<path d="M1018.85 186.822C1005.81 203.504 740.942 498.05 461.878 382.046C182.813 266.042 -9.95708 98.8797 -205.376 173.464" stroke="#EE3024" stroke-width="1.11256"/>
<path d="M1016.46 177.804C1002.96 195.081 736.026 500.483 461.761 385.092C187.495 269.701 -4.29386 80.4399 -206.692 157.688" stroke="#EE2A24" stroke-width="1.11256"/>
<path d="M1014.06 168.692C1000.09 186.565 731.1 502.822 461.633 388.044C192.167 273.265 1.35929 61.9059 -208.018 141.818" stroke="#ED2324" stroke-width="1.11256"/>
</g>
<g opacity="0.06">
<path d="M-199.785 420.007C-199.519 419.299 -0.303915 355.486 429.27 360.037C858.844 364.588 939.932 -110.772 945.798 -115.397" stroke="#FCE721" stroke-width="1.11256"/>
<path d="M-201.621 412.255C-201.088 410.84 -3.14448 336.05 421.666 341.449C846.477 346.847 933.223 -107.128 944.956 -116.379" stroke="#FBE021" stroke-width="1.11256"/>
<path d="M-203.457 404.503C-202.657 402.38 -5.98489 316.614 414.063 322.86C834.11 329.106 926.515 -103.485 944.114 -117.361" stroke="#FBDA21" stroke-width="1.11256"/>
<path d="M-205.293 396.751C-204.227 393.921 -8.82549 297.179 406.459 304.272C821.743 311.365 919.807 -99.8422 943.272 -118.343" stroke="#FAD321" stroke-width="1.11256"/>
<path d="M-207.129 388.999C-205.796 385.461 -11.666 277.743 398.855 285.684C809.376 293.624 913.099 -96.1989 942.43 -119.325" stroke="#FACC21" stroke-width="1.11256"/>
<path d="M-207.578 384.434C-205.979 380.189 -13.12 261.494 392.638 270.282C798.396 279.07 907.777 -89.3688 942.974 -117.12" stroke="#F9C522" stroke-width="1.11256"/>
<path d="M-205.566 385.529C-203.7 380.576 -12.1121 250.905 388.883 260.54C789.878 270.176 904.917 -76.8789 945.981 -109.256" stroke="#F9BF22" stroke-width="1.11256"/>
<path d="M-203.227 387.372C-201.095 381.712 -10.7786 241.064 385.453 251.547C781.684 262.03 902.383 -63.6404 949.313 -100.643" stroke="#F8B822" stroke-width="1.11256"/>
<path d="M-200.59 389.903C-198.191 383.535 -9.1458 231.912 382.323 243.242C773.791 254.573 900.148 -49.714 952.944 -91.3414" stroke="#F8B122" stroke-width="1.11256"/>
<path d="M-197.682 393.056C-195.017 385.98 -7.24285 223.38 379.462 235.558C766.167 247.736 898.184 -35.1664 956.845 -81.4191" stroke="#F7AA22" stroke-width="1.11256"/>
<path d="M-194.533 396.764C-191.601 388.981 -5.09787 215.405 376.844 228.43C758.786 241.456 896.461 -20.0626 960.989 -70.9406" stroke="#F7A322" stroke-width="1.11256"/>
<path d="M-191.167 400.969C-187.969 392.478 -2.73706 207.926 374.442 221.799C751.62 235.671 894.954 -4.46256 965.348 -59.9658" stroke="#F69D22" stroke-width="1.11256"/>
<path d="M-187.609 405.616C-184.144 396.418 -0.183995 200.889 372.231 215.609C744.647 230.329 893.64 11.5796 969.9 -48.549" stroke="#F69622" stroke-width="1.11256"/>
<path d="M-183.88 410.657C-180.148 400.752 2.5408 194.247 370.193 209.814C737.845 225.382 892.497 28.0162 974.623 -36.7376" stroke="#F58F22" stroke-width="1.11256"/>
<path d="M-179.997 416.051C-175.999 405.437 5.41864 187.956 368.308 204.371C731.197 220.786 891.507 44.8048 979.499 -24.5743" stroke="#F58822" stroke-width="1.11256"/>
<path d="M-175.978 421.759C-171.713 410.438 8.43357 181.981 366.559 199.244C724.685 216.506 890.654 61.9084 984.513 -12.096" stroke="#F48223" stroke-width="1.11256"/>
<path d="M-171.835 427.751C-167.304 415.722 11.5715 176.289 364.934 194.399C718.297 212.508 889.924 79.2951 989.649 0.665447" stroke="#F47B23" stroke-width="1.11256"/>
<path d="M-167.582 433.996C-162.784 421.26 14.82 170.85 363.419 189.808C712.019 208.765 889.305 96.9357 994.896 13.6808" stroke="#F37423" stroke-width="1.11256"/>
<path d="M-163.229 440.471C-158.165 427.028 18.1683 165.642 362.004 185.446C705.841 205.251 888.786 114.806 1000.24 26.9257" stroke="#F36D23" stroke-width="1.11256"/>
<path d="M-158.786 447.153C-153.455 433.002 21.6068 160.64 360.68 181.292C699.753 201.944 888.357 132.883 1005.68 40.3778" stroke="#F26723" stroke-width="1.11256"/>
<path d="M-154.261 454.024C-148.664 439.165 25.1272 155.827 359.437 177.326C693.747 198.825 888.009 151.149 1011.2 54.018" stroke="#F26023" stroke-width="1.11256"/>
<path d="M-149.662 461.065C-143.798 445.499 28.7219 151.184 358.268 173.531C687.815 195.878 887.737 169.585 1016.79 67.8293" stroke="#F15923" stroke-width="1.11256"/>
<path d="M-144.995 468.262C-138.864 451.988 32.3843 146.697 357.168 169.892C681.951 193.086 887.531 188.178 1022.45 81.7963" stroke="#F15223" stroke-width="1.11256"/>
<path d="M-140.266 475.601C-133.869 458.62 36.1087 142.353 356.129 166.395C676.149 190.436 887.388 206.912 1028.18 95.9057" stroke="#F04B23" stroke-width="1.11256"/>
<path d="M-135.48 483.071C-128.816 465.382 39.8896 138.139 355.146 163.028C670.403 187.917 887.301 225.777 1033.96 110.145" stroke="#F04523" stroke-width="1.11256"/>
<path d="M-130.642 490.66C-123.712 472.264 43.7227 134.044 354.216 159.781C664.71 185.517 887.267 244.761 1039.79 124.504" stroke="#EF3E24" stroke-width="1.11256"/>
<path d="M-125.756 498.36C-118.56 479.256 47.6037 130.06 353.334 156.644C659.065 183.228 887.28 263.856 1045.67 138.974" stroke="#EF3724" stroke-width="1.11256"/>
<path d="M-120.827 506.161C-113.364 486.349 51.5288 126.177 352.496 153.608C653.463 181.039 887.337 283.052 1051.59 153.544" stroke="#EE3024" stroke-width="1.11256"/>
<path d="M-115.856 514.055C-108.127 493.536 55.4947 122.387 351.699 150.666C647.903 178.945 887.436 302.342 1057.55 168.209" stroke="#EE2A24" stroke-width="1.11256"/>
<path d="M-110.848 522.036C-102.852 500.81 59.4982 118.685 350.939 147.811C642.38 176.937 887.571 321.718 1063.56 182.96" stroke="#ED2324" stroke-width="1.11256"/>
</g>
</g>
<defs>
<linearGradient id="paint0_linear_570_6500" x1="938" y1="230.5" x2="866.143" y2="-159.562" gradientUnits="userSpaceOnUse">
<stop stop-color="white" stop-opacity="0"/>
<stop offset="1" stop-color="#B9CCF9"/>
</linearGradient>
<linearGradient id="paint1_linear_570_6500" x1="1000" y1="-8.19564e-06" x2="934.35" y2="420.778" gradientUnits="userSpaceOnUse">
<stop stop-color="#FFCBAE"/>
<stop offset="0.63526" stop-color="white" stop-opacity="0"/>
</linearGradient>
<clipPath id="clip0_570_6500">
<rect width="1000" height="420" fill="white"/>
</clipPath>
</defs>
</svg>
