<svg width="48" height="68" fill="none"
  xmlns="http://www.w3.org/2000/svg">
  <g filter="url(#a)">
    <path fill-rule="evenodd" clip-rule="evenodd" d="M36.774 8.31c3.714 3.54 5.571 7.867 5.571 12.981 0 3.934-1.731 9.343-5.195 16.226-3.463 6.884-6.224 11.826-8.282 14.825-2.058 3-3.79 5.433-5.195 7.302l-4.668-6.638c-3.113-4.425-6.225-9.834-9.337-16.226C6.556 30.388 5 25.225 5 21.29c0-5.114 1.832-9.44 5.496-12.98C14.161 4.77 18.553 3 23.673 3c5.12 0 9.487 1.77 13.1 5.31Zm-7.83 18.44c1.405-1.378 2.108-3.099 2.108-5.164 0-2.065-.703-3.786-2.109-5.162-1.405-1.377-3.162-2.066-5.27-2.066-2.108 0-3.865.689-5.27 2.066-1.406 1.376-2.109 3.097-2.109 5.162 0 2.066.703 3.787 2.108 5.163 1.406 1.377 3.163 2.065 5.27 2.065 2.11 0 3.866-.688 5.271-2.065Z" fill="#47AE4C"/>
    <path d="m36.774 8.31-.7.715.01.01.69-.725ZM23.673 59.644l-.818.575.79 1.124.827-1.098-.8-.601Zm-4.668-6.638-.819.575.819-.575ZM36.084 9.034c3.517 3.352 5.261 7.418 5.261 12.257h2c0-5.388-1.97-9.976-5.881-13.705l-1.38 1.448Zm5.261 12.257c0 3.69-1.64 8.923-5.088 15.777l1.786.899c3.48-6.914 5.302-12.498 5.302-16.676h-2Zm-5.088 15.777c-3.46 6.878-6.196 11.768-8.214 14.708l1.65 1.132c2.098-3.059 4.884-8.051 8.35-14.941l-1.786-.9Zm-8.214 14.708c-2.053 2.993-3.776 5.414-5.17 7.267l1.599 1.202c1.417-1.885 3.158-4.332 5.22-7.337l-1.649-1.132Zm-3.552 7.292-4.668-6.637-1.637 1.15 4.669 6.638 1.636-1.15Zm-4.668-6.637c-3.074-4.371-6.16-9.73-9.256-16.089l-1.798.876c3.129 6.426 6.267 11.883 9.417 16.363l1.637-1.15Zm-9.256-16.089C7.477 29.993 6 24.996 6 21.292H4c0 4.162 1.636 9.49 4.77 15.925l1.797-.875ZM6 21.292c0-4.844 1.723-8.911 5.191-12.262L9.801 7.59C5.942 11.321 4 15.907 4 21.291h2ZM11.191 9.03C14.668 5.67 18.811 4 23.673 4V2c-5.378 0-10.02 1.87-13.871 5.591l1.39 1.439ZM23.673 4c4.862 0 8.976 1.67 12.4 5.025l1.4-1.429C33.67 3.87 29.051 2 23.673 2v2Zm5.97 23.464c1.608-1.575 2.409-3.559 2.409-5.878h-2c0 1.812-.605 3.27-1.808 4.449l1.4 1.429Zm2.409-5.878c0-2.319-.8-4.302-2.409-5.877l-1.4 1.429c1.204 1.178 1.809 2.637 1.809 4.448h2Zm-2.409-5.877c-1.606-1.574-3.62-2.35-5.97-2.35v2c1.867 0 3.366.6 4.57 1.779l1.4-1.429Zm-5.97-2.35c-2.35 0-4.364.776-5.97 2.35l1.4 1.429c1.203-1.18 2.703-1.78 4.57-1.78v-2Zm-5.97 2.35c-1.608 1.575-2.409 3.558-2.409 5.877h2c0-1.81.605-3.27 1.808-4.448l-1.4-1.429Zm-2.409 5.877c0 2.32.8 4.303 2.409 5.878l1.4-1.43c-1.204-1.178-1.809-2.636-1.809-4.448h-2Zm2.409 5.878c1.606 1.573 3.62 2.35 5.97 2.35v-2c-1.867 0-3.366-.6-4.57-1.78l-1.4 1.43Zm5.97 2.35c2.35 0 4.364-.777 5.97-2.35l-1.4-1.43c-1.204 1.18-2.703 1.78-4.57 1.78v2Z" fill="#fff"/>
  </g>
  <defs>
    <filter id="a" x="0" y="0" width="47.345" height="67.344" filterUnits="userSpaceOnUse" color-interpolation-filters="sRGB">
      <feFlood flood-opacity="0" result="BackgroundImageFix"/>
      <feColorMatrix in="SourceAlpha" values="0 0 0 0 0 0 0 0 0 0 0 0 0 0 0 0 0 0 127 0" result="hardAlpha"/>
      <feOffset dy="2"/>
      <feGaussianBlur stdDeviation="2"/>
      <feColorMatrix values="0 0 0 0 0 0 0 0 0 0 0 0 0 0 0 0 0 0 0.5 0"/>
      <feBlend in2="BackgroundImageFix" result="effect1_dropShadow_2866_241205"/>
      <feBlend in="SourceGraphic" in2="effect1_dropShadow_2866_241205" result="shape"/>
    </filter>
  </defs>
</svg>
