<svg width="20" height="26" viewBox="0 0 20 26" fill="none" xmlns="http://www.w3.org/2000/svg">
  <path d="M10 0C7.34784 6.63038e-06 4.8043 1.05358 2.92894 2.92894C1.05358 4.8043 6.63038e-06 7.34784 0 10C0 19 10 26 10 26C10 26 20 19 20 10C20 7.34784 18.9464 4.8043 17.0711 2.92894C15.1957 1.05358 12.6522 6.63038e-06 10 0ZM10 14C9.20887 14 8.43552 13.7654 7.77772 13.3259C7.11992 12.8864 6.60723 12.2616 6.30448 11.5307C6.00173 10.7998 5.92252 9.99556 6.07686 9.21964C6.2312 8.44372 6.61216 7.73098 7.17157 7.17157C7.73098 6.61216 8.44372 6.2312 9.21964 6.07686C9.99556 5.92252 10.7998 6.00173 11.5307 6.30448C12.2616 6.60723 12.8864 7.11992 13.3259 7.77772C13.7654 8.43552 14 9.20887 14 10C14 11.0609 13.5786 12.0783 12.8284 12.8284C12.0783 13.5786 11.0609 14 10 14Z" fill="#AAAAAA"/>
</svg>
