<?xml version="1.0" standalone="no"?>
<!DOCTYPE svg PUBLIC "-//W3C//DTD SVG 1.1//EN" "http://www.w3.org/Graphics/SVG/1.1/DTD/svg11.dtd">
<svg xmlns="http://www.w3.org/2000/svg">
<metadata>Generated by Fontastic.me</metadata>
<defs>
<font id="ruckus-80" horiz-adv-x="512">
<font-face font-family="ruckus-80" units-per-em="512" ascent="480" descent="-32"/>
<missing-glyph horiz-adv-x="512" />

<glyph glyph-name="dp" unicode="&#74;" d="M258 341l9 0 14 0 9 0 8-1 9 0 9 0 8-1 9-1 8 0 8-1 8-1 7-1 8-1 7-1 7-1 7-2c2 0 3 0 4 0l6-2c2 0 3 0 4-1l6-1c1 0 2-1 3-1l6-1c1-1 2-1 3-1l5-2 6-2c29-10 46-22 47-38l0-1 0-107-21 0 0 107c0 6-20 17-55 25-39 10-93 15-149 15-57 0-111-5-150-15-34-8-53-18-55-24l0-1 0-107-21 0 0 107c0 16 18 29 47 39l6 2 5 2c1 0 2 0 3 1l6 1c1 0 2 1 3 1l6 1 7 2c2 0 4 1 7 1l7 2 7 1 7 1 8 1 7 1 8 1 8 1 8 0 9 1 8 1 9 0 9 0 8 1 9 0 10 0 14 0z m-205-63c0-7 20-18 55-26 39-9 93-14 150-14 56 0 110 5 149 14 34 8 53 19 55 25l0 1 21 0c0-15-16-28-42-38l-5-2c-1 0-2 0-3-1l-5-1-6-2-6-2-6-1c-2-1-4-1-7-2l-6-1-7-1-7-2c-1 0-2 0-4 0l-7-1-8-1-7-1-8-1-8-1-8-1-9 0-8-1c-2 0-3 0-4 0l-9-1-9 0-9 0-9-1-9 0-9 0-10 0-9 0-9 1-9 0-9 0-9 1-8 0-9 1-8 1-8 0-8 1-8 1-7 1c-1 0-3 0-4 1l-7 1-7 1c-2 0-3 0-4 1l-7 1-6 1c-3 1-5 1-7 2l-6 1c-1 1-2 1-3 1l-6 2c-1 0-2 0-3 1l-5 1-5 2c-28 10-44 22-45 37l0 2 21 0z m0-105c0-7 20-18 55-26 39-9 93-15 150-15 56 0 110 6 149 15 34 8 53 19 55 25l0 1 21 0c0-13-10-23-28-32l-5-2c-3-2-7-3-12-5l-5-2-5-2-6-1-6-2-6-1c-1-1-2-1-3-1l-7-1c-1-1-2-1-3-1l-7-1c-1-1-2-1-4-1l-7-1-7-1-8-1-7-1-8-1-8-1-8-1-9-1-8 0-9-1-9 0-8 0-9-1-10 0-13 0-10 0-14 0-9 1-8 0-9 0-9 1-8 0-9 1-8 1-8 1-8 1-7 1-8 1-7 1-7 1c-2 0-3 0-4 1l-7 1-6 1c-3 1-5 1-7 2l-6 1c-1 0-2 1-3 1l-6 2c-1 0-2 0-3 0l-5 2-5 2c-28 10-44 22-45 37l0 2 21 0z m322 11c0-9 7-16 16-16 9 0 16 7 16 16 0 8-7 16-16 16-9 0-16-8-16-16z"/>
<glyph glyph-name="exit-expand" unicode="&#33;" d="M11 70l106 107-72-6c-19 0-32 10-34 34 0 19 10 32 34 34l164 2c9 0 17-2 24-8 6-9 8-18 8-26l-6-164c0-11-5-20-11-26-6-6-15-11-23-11-9 0-18 5-24 11-6 6-11 15-11 26l3 87-111-111c-7-6-15-8-24-8-11 0-17 2-23 8-7 7-9 15-9 24 0 10 4 19 9 27z m262 231l6 164c0 9 5 17 11 24 7 6 15 10 26 10 10 0 19-4 23-10 7-7 9-15 9-24l-2-77 106 107c7 6 15 8 24 8 8 0 15-2 21-8 17-17 17-32 0-47l-111-111 88 4c19 0 32-10 34-34 0-19-11-32-34-34l-165-6c-10 0-19 2-25 8-9 7-11 15-11 26z"/>
<glyph glyph-name="generic-ap" unicode="&#34;" d="M410 333l-20 0c0 30-25 55-55 55l0 22c40 0 75-35 75-77z m38 2l-19 0c0 51-43 94-94 94l0 19c62 0 113-51 113-113z m-143 28l-183 0c-32 0-58-26-58-58l0-183c0-32 26-58 58-58l183 0c32 0 58 26 58 58l0 183c0 32-26 58-58 58z m28-105l-90 75 56 0c19 0 34-15 34-34z"/>
<glyph glyph-name="dp-stack" unicode="&#38;" d="M257 437l10 0 14 0 9 0 8-1 9 0 9 0 8-1 9-1 8 0 8-1 8-1 7-1 8-1 7-1 7-1 7-2 7-1 7-2 6-1 6-2 6-1c3-1 5-2 8-3l5-2c28-9 44-22 45-37l0-1 0-311-21 0 0 311c0 3-5 7-14 11l-3 2c-7 3-15 6-25 9l-6 2c-3 0-5 1-7 1-39 10-93 15-150 15-56 0-110-5-149-15-2 0-4-1-7-1l-6-2c-2 0-4-1-6-2l-5-1c-19-7-30-14-31-18l0-1 0-311-21 0 0 311c0 14 15 27 40 37l5 1c0 1 1 1 2 1l6 2c0 0 1 1 2 1l6 2c1 0 2 0 3 0l6 2 6 1 7 2 7 1 7 2 7 1c1 0 2 0 3 0l8 1c1 1 2 1 4 1l7 1 8 1 8 1 8 0 9 1 8 1 9 0 9 0 8 1 9 0 10 0z m-204-372c0-5 11-12 31-19l5-2c2 0 4-1 6-2l6-1c3-1 5-1 7-2 39-9 93-14 149-14 57 0 111 5 150 14 2 1 4 1 7 2l6 1c10 3 18 6 25 9l3 2c8 4 13 8 14 11l0 1 21 0c0-16-17-29-45-39l-5-2c-2 0-3-1-5-1l-6-2c-1 0-2-1-3-1l-6-1-6-2-7-1-7-2-7-1-7-1-7-1-8-1-7-1-8-1-8-1-8-1-9 0-8-1-9-1-9 0-8 0-9-1-10 0-14 0-9 0-14 0-9 1-8 0-9 0-9 1-8 1-9 0-8 1-8 1-8 1-7 1-8 1c-1 0-2 0-4 0l-7 1-7 2c-1 0-2 0-3 0l-7 2-7 1-6 2-6 1-6 2c-2 0-4 1-5 1l-6 2c-1 0-2 1-2 1l-5 2c-25 9-39 21-40 35l0 2 21 0z m0 309c0-5 13-14 36-21l6-2c4-1 9-2 13-3 39-9 93-15 149-15 57 0 111 6 150 15 34 8 53 19 55 25l0 1 21 0c0-16-18-30-47-40l-6-2-5-1c-1-1-2-1-3-1l-6-2c-1 0-2 0-3 0l-6-2-7-1c-2-1-4-1-7-2l-7-1-7-1-7-1-8-1-7-1-8-1-8-1c-1 0-3 0-4 0l-8-1-9-1-8 0-9-1-9 0-9 0-9-1-9 0-10 0-9 0-9 0-9 1-9 0-9 0-9 1-8 0-9 1-8 1-8 0-8 1-8 1-7 1-8 1-7 1-7 2-7 1-6 1-7 2-6 1-6 2c-1 0-2 0-3 1l-5 1-6 2-5 2c-26 10-41 22-42 36l0 2z m0-105c0-5 11-12 31-19l5-2c1 0 2 0 3-1l6-1c1-1 2-1 3-1l7-2c39-9 93-15 149-15 57 0 111 6 150 15 34 8 53 19 55 25l0 1 21 0c0-15-16-28-42-38l-5-2c-1 0-2 0-3-1l-5-2-6-1-6-2-6-1c-2-1-4-1-7-2l-6-1-7-1-7-2c-1 0-2 0-4 0l-7-1-8-1-7-1-8-1-8-1-8-1-9-1-8 0c-2 0-3 0-4 0l-9-1-9 0-9 0-9-1-9 0-10 0-9 0-9 0-9 1-9 0-9 0-9 1-8 0-9 1-8 1-8 0-8 1-8 1-7 1-8 1c-1 0-2 1-3 1l-7 1c-2 0-3 0-4 1l-7 1-6 1c-3 1-5 1-7 2l-6 1c-1 0-2 1-3 1l-6 2c-1 0-2 0-3 0l-5 2c-31 10-49 23-50 39l0 2 21 0z m0-108c0-6 20-17 55-26 39-9 93-14 149-14 57 0 111 5 150 14 6 2 11 3 16 5l5 1c7 2 12 4 17 7l3 1c8 4 13 8 14 11l0 1 21 0c0-14-14-26-37-36l-5-2c-2 0-3-1-5-2l-6-1-5-2c-1 0-2-1-3-1l-6-1c-1-1-2-1-3-1l-6-2-7-1c-2-1-4-1-7-1l-7-2-7-1-7-1-8-1c-1 0-2 0-3-1l-8-1-8 0-8-1-8-1-9-1-8 0-9-1c-2 0-3 0-5 0l-8 0-9 0-10 0-9-1-9 0-9 1-10 0-9 0-8 0-9 1c-2 0-3 0-5 0l-8 0-9 1-8 1-8 1-8 0-8 1-7 1-8 1-7 2c-1 0-2 0-3 0l-7 2c-3 0-5 0-7 1l-7 1-6 2c-1 0-2 0-3 1l-6 1c-3 1-6 2-8 3l-6 1c-1 1-2 1-2 1l-5 2c-25 10-39 22-40 35l0 2 21 0z m322 119c0-9 7-16 16-16 9 0 16 7 16 16 0 8-7 16-16 16-9 0-16-8-16-16z m0-102c0-9 7-16 16-16 9 0 16 7 16 16 0 9-7 16-16 16-9 0-16-7-16-16z m0-101c0-9 7-16 16-16 9 0 16 7 16 16 0 9-7 16-16 16-9 0-16-7-16-16z"/>
<glyph glyph-name="ruckus-gauge" unicode="&#36;" d="M256 427c-107 0-192-86-192-192 0-49 19-94 49-128l286 0c30 34 49 79 49 128 0 106-85 192-192 192z m-139-224c-17 0-32 15-32 32 0 17 15 32 32 32 17 0 32-15 32-32 0-17-15-32-32-32z m64 106c-12-12-32-12-44 0-13 13-13 32 0 45 12 13 32 13 44 0 13-11 13-32 0-45z m75 96c17 0 32-15 32-32 0-17-15-32-32-32-17 0-32 15-32 32 0 17 15 32 32 32z m17-230c-17-6-36 2-43 19-4 9-4 64-4 88 0 4 7 6 9 4 17-19 57-60 59-68 5-17-4-37-21-43z m58 134c-13 13-13 32 0 45 12 13 32 13 44 0 13-13 13-32 0-45-10-12-32-12-44 0z m64-106c-17 0-32 15-32 32 0 17 15 32 32 32 17 0 32-15 32-32 0-17-15-32-32-32z"/>
<glyph glyph-name="calibrated" unicode="&#39;" d="M256 448c-107 0-192-85-192-192 0-107 85-192 192-192 107 0 192 85 192 192 0 107-85 192-192 192z m-164-196c0 2 0 4 0 4 0 26 6 49 15 68 2-8 4-15 8-21 13-21 7-24 2-34-4-11-8-7-19-13-2 0-4-2-6-4z m77-105c0-4-3-17-11-17-2 0-2 0-4-2-22 17-39 41-49 66 2 0 4 0 4 0 10 0 15-6 23-8 7-3 15-11 15-11 0 0 9 0 15-4 4-2 13 2 15-5-2-6-8-15-8-19z m23 248c-6-9 0-7-2-26-4-19-17-6-21-17-7-11-7 0-13-13-7-13-7-28-22-10-4 4-6 17-8 29 17 24 40 41 68 52 0-7 0-13-2-15z m203-197c-5 3-5 3-11 15-6 13-15 20-21 22-7 2-9 0-9-5 0-4-4-10-13-15-6-4-15-12-10-10 4 0 8 2 8-2 0-5-8-15-17-24-8-8 4-19 2-25-4-7-13-7-10-11 2-4 0-6-3-15-2-6-6-13-17-17-10-4-10 0-12 6-3 7-7 17-11 30-6 13 2 13-4 26-7 13-2 13-30 15-26 0-24 34-19 45 4 12 32 21 40 21 9 0 2-4 13-9 11-4 11-2 19 0 9 0 19 0 19 0 2 2 2 7 2 11 0 4-10 2-10 2 0 0-13 2-15 4-4 5-7 13-15 9-9-4 8-4 8-6 0 0-8-15-6-9 0 6-6 9-11 11-2 2-8 2-12 0-5-2-5-11-9-15-4-5-11-7-15-2-4 4 0 6-2 10 0 5 4 5 11 7 4 0 0 6-2 10-3 5 2-2 6 7 2 6 13 15 17 17 4 2-9 10-9 17 0 6 7 15 15 34 9 17 22 26 30 21 5-2 9-10 15-10 7 0 28 6 34 6 7 0 13 9 17 15 37-30 60-77 60-128 0-21-4-43-11-60-6 0-12 2-12 2z"/>
<glyph glyph-name="ruckus-calendar" unicode="&#40;" d="M407 427l-23 0 0-39c0-13-11-25-26-25l-15 0c-12 0-25 10-25 25l0 39-126 0 0-39c0-13-11-25-26-25l-12 0c-15 2-26 12-26 25l0 39-23 0c-24 0-41-17-41-41l0-281c0-22 17-41 41-41l302 0c22 0 41 17 41 41l0 281c0 24-17 41-41 41z m-215-320l-85 0 0 42 85 0z m0 64l-85 0 0 42 85 0z m0 64l-85 0 0 42 85 0z m0 64l-85 0 0 42 85 0z m107-192l-86 0 0 42 86 0z m0 64l-86 0 0 42 86 0z m0 64l-86 0 0 42 86 0z m0 64l-86 0 0 42 86 0z m106-192l-85 0 0 42 85 0z m0 64l-85 0 0 42 85 0z m0 64l-85 0 0 42 85 0z m0 64l-85 0 0 42 85 0z m-256 170l22 0 0-64-22 0z m192 0l22 0 0-64-22 0z"/>
<glyph glyph-name="ruckus-info" unicode="&#41;" d="M256 448c-107 0-192-85-192-192 0-107 85-192 192-192 107 0 192 85 192 192 0 107-85 192-192 192z m0-45c23 0 41-19 41-40 0-24-20-41-41-41-21 0-41 17-41 41 0 23 18 40 41 40z m58-275l-116 0c-8 0-12 2-12 11 0 8 6 10 12 10l15 0 0 128-15 0c-8 0-12 7-12 13 0 7 6 13 12 13 0 0 15 0 22 0 2 0 4 0 8 0 9-4 19-6 28-6 11 0 19 2 28 6 0 0 0 0 2 0 6 0 13-6 13-13l0-141 15 0c8 0 12-2 12-10 0-9-6-11-12-11z"/>
<glyph glyph-name="ruckus-clock" unicode="&#43;" d="M256 448c-107 0-192-85-192-192 0-107 85-192 192-192 107 0 192 85 192 192 0 107-85 192-192 192z m0-341c-83 0-149 66-149 149 0 83 66 149 149 149 83 0 149-66 149-149 0-83-66-149-149-149z m11 277c-7 0-11-4-11-11l0-117-75 0c-6 0-10-4-10-11 0-6 4-10 10-10l86 0c6 0 10 4 10 10l0 128c0 7-4 11-10 11z"/>
<glyph glyph-name="ruckus-company" unicode="&#44;" d="M363 448l-214 0c-10 0-21-11-21-21l0-342c0-10 11-21 21-21l86 0 0 107 42 0 0-107 86 0c10 0 21 11 21 21l0 342c0 10-11 21-21 21z m-150-341l-42 0 0 64 42 0z m0 106l-42 0 0 64 42 0z m0 107l-42 0 0 64 42 0z m64-107l-42 0 0 64 42 0z m0 107l-42 0 0 64 42 0z m64-213l-42 0 0 64 42 0z m0 106l-42 0 0 64 42 0z m0 107l-42 0 0 64 42 0z"/>
<glyph glyph-name="ruckus-lock" unicode="&#46;" d="M256 448c-55 0-102-45-102-102l0-22 32 0 0 22c0 38 32 68 68 68 36 0 68-32 68-68l0-22 32 0 0 22c4 57-43 102-98 102z m107-149l-214 0c-10 0-21-11-21-22l0-192c0-10 11-21 21-21l214 0c10 0 21 11 21 21l0 192c0 11-11 22-21 22z m-86-122l0-38c0-7-4-11-10-11l-22 0c-6 0-10 4-10 11l0 38c-13 6-22 21-22 36 0 24 20 43 43 43 23 0 43-19 43-43 0-15-9-30-22-36z"/>
<glyph glyph-name="ruckus-copy" unicode="&#57344;" d="M384 341l-64 0 0 64c0 24-19 43-43 43l-102 0c-4 0-9-2-13-4l-72-73c-3-4-5-8-5-13l0-145c0-23 20-42 43-42l64 0 0-64c0-24 19-43 43-43l149 0c23 0 43 19 43 43l0 192c0 23-20 42-43 42z m-188-76c-2-5-4-9-4-13l0-60-64 0c-13 0-21 9-21 21l0 150 42 0c13 0 22 8 22 21l0 43 106 0c13 0 22-9 22-22l0-64-17 0c-5 0-9-2-13-4z m209-158c0-13-8-22-21-22l-149 0c-13 0-22 9-22 22l0 149 43 0c13 0 21 11 21 21l0 43 107 0c13 0 21-9 21-21z"/>
<glyph glyph-name="ruckus-globe" unicode="&#48;" d="M256 467c-117 0-211-94-211-211 0-117 94-211 211-211 117 0 211 94 211 211 0 117-94 211-211 211z m-179-215c0 2 0 4 0 6 0 28 6 53 17 77 2-9 6-17 8-24 15-23 9-25 3-36-7-10-9-6-22-15-2-4-4-6-6-8z m83-115c0-5-2-18-11-18-2 0-4 0-6-2-24 20-43 43-53 73 2 0 4 0 4 0 11 0 17-9 25-9 9-2 18-12 18-12 0 0 8 0 14-5 7-4 15 2 15-4 0-9-6-19-6-23z m26 270c-7-8 0-6-5-27-4-22-17-9-23-19-7-11-7 0-13-13-6-13-6-32-21-13-7 6-9 19-11 32 19 26 45 45 75 55 2-4 0-10-2-15z m221-213c-4 2-4 2-12 17-9 15-17 22-24 24-8 2-8 0-8-7 0-4-5-10-13-17-9-4-17-13-11-13 4 0 9 3 9-2 0-4-11-15-19-25-9-11 4-22 2-28-5-6-13-6-13-11 2-4 0-8-4-15-3-8-7-15-20-19-10-4-12 0-15 7-2 8-6 19-12 32-7 12 2 12-7 27-6 15-2 15-32 15-30 0-27 36-21 51 4 13 34 24 45 24 8 2 2-4 13-11 10-4 12-2 21 0 8 2 21 0 21 0 2 2 2 9 2 13 0 4-10 2-10 2 0 0-13 2-17 7-5 4-9 12-17 8-9-4 8-6 8-6 0 0-8-17-8-11 0 6-9 11-11 13-2 2-9 4-15 0-4-2-4-11-9-15-4-4-12-9-17-4-6 4 0 8-2 12 0 5 4 7 11 7 6 0 0 6-2 13-2 6 4-3 6 6 4 6 13 17 19 19 7 2-8 13-8 19 0 7 6 17 17 37 11 19 23 27 34 23 11-4 15-13 21-15 7 0 30 7 39 7 6 0 15 8 19 17 40-32 66-84 66-141 0-24-4-45-13-66-4 4-10 4-13 6z"/>
<glyph glyph-name="feedback" unicode="&#49;" d="M209 275c0-6-2-13-6-17-5-4-11-6-17-6-7 0-13 2-17 6-5 4-7 11-7 17 0 7 2 11 7 17 2 5 8 7 17 7 6 0 12-2 17-7 4-6 6-10 6-17z m62 17c4-4 6-10 6-17 0-6-2-13-6-17-4-4-11-6-17-6-17 0-26 8-26 25 0 7 2 13 7 17 4 5 10 7 17 7 8-2 15-4 19-9z m77-17c0-6-2-13-7-17-4-4-10-6-17-6-6 0-13 2-17 6-4 4-6 11-6 17 0 7 2 13 6 17 4 5 11 7 17 7 7 0 13-2 17-7 5-6 7-10 7-17z m-258-194c-5 0-9 2-13 4-4 5-7 13-2 17l36 73c-30 30-47 64-47 100 0 83 85 152 192 152 107 0 192-69 192-152 0-83-85-151-192-151-13 0-26 2-41 4l-119-47c-2 0-4 0-6 0z m166 314c-87 0-160-54-160-118 0-30 15-59 45-81 6-4 8-13 4-19l-21-49 85 32c2 2 6 2 9 0 15-2 27-4 38-4 87 0 160 53 160 117 0 68-73 122-160 122z"/>
<glyph glyph-name="minus" unicode="&#50;" d="M422 299l-332 0c-24 0-43-20-43-43 0-23 19-43 43-43l335 0c23 0 42 20 42 43 0 23-21 43-45 43z"/>
<glyph glyph-name="slice" unicode="&#51;" d="M75 299c-17 0-32 15-32 32l0 106c0 17 15 32 32 32l106 0c17 0 32-15 32-32 0-17-15-32-32-32l-74 0 0-74c0-17-15-32-32-32z m106-256l-106 0c-17 0-32 15-32 32l0 106c0 17 15 32 32 32 17 0 32-15 32-32l0-74 74 0c17 0 32-15 32-32 0-17-15-32-32-32z m256 0l-106 0c-17 0-32 15-32 32 0 17 15 32 32 32l74 0 0 74c0 17 15 32 32 32 17 0 32-15 32-32l0-106c0-17-15-32-32-32z m0 256c-17 0-32 15-32 32l0 74-74 0c-17 0-32 15-32 32 0 17 15 32 32 32l106 0c17 0 32-15 32-32l0-106c0-17-15-32-32-32z"/>
<glyph glyph-name="edit-mode" unicode="&#52;" d="M166 469c-68 0-123-59-123-134 0-75 123-224 123-224 0 0 124 149 124 224 2 75-53 134-124 134z m310-300l-30 29c-4 5-9 5-13 0-4-4-4-8 0-12l15-15-64 0 0 64 15-15c4-5 8-5 13 0 4 4 4 8 0 13l-30 29c-4 5-13 5-17 0l-30-29c-4-5-4-9 0-13 4-5 8-5 13 0l15 15 0-64-62 0 15 15c4 4 4 8 0 12-5 5-9 5-13 0l-30-29c-4-5-4-13 0-18l30-29c4-5 8-5 13 0 4 4 4 8 0 12l-15 15 62 0 0-64-15 15c-5 5-9 5-13 0-4-4-4-8 0-13l30-29c4-5 13-5 17 0l30 29c4 5 4 9 0 13-5 5-9 5-13 0l-15-15 0 64 64 0-15-15c-4-4-4-8 0-12 4-5 9-5 13 0l30 29c2 5 2 13 0 18z"/>
<glyph glyph-name="time-expired" unicode="&#53;" d="M405 256c0-12-9-21-21-21-12 0-21 9-21 21 0 12 9 21 21 21 12 0 21-9 21-21z m-256 0c0-12-9-21-21-21-12 0-21 9-21 21 0 12 9 21 21 21 12 0 21-9 21-21z m-42 192l0-149 42 0 0 128 22 0 0-86c0-23 10-44 32-59l15-13c8-7 8-19 0-28l-15-13c-22-13-32-36-32-57l0-86-22 0 0 128-42 0 0-149 298 0 0 149-42 0 0-128-22 0 0 86c0 23-10 44-32 59l-15 13c-8 7-8 19 0 28l15 13c22 13 32 36 32 57l0 86 22 0 0-128 42 0 0 149z m213-311l0-52-128 0 0 52 64 55z"/>
<glyph glyph-name="v" unicode="&#54;" d="M465 367c0-11-4-21-13-30l-200-213-5-5c0 0 0-2-2-2l-4-4c0 0 0 0-2 0-17-15-45-13-60 2l-121 124c-15 17-15 45 2 60l4 4c17 15 45 15 62-2l85-88 173 184c17 19 47 19 66 4 9-11 15-21 15-34z"/>
<glyph glyph-name="add" unicode="&#55;" d="M422 299l-123 0 0 123c0 24-20 43-43 43-23 0-43-19-43-43l0-123-123 0c-24 0-43-20-43-43 0-23 19-43 43-43l123 0 0-126c0-23 20-42 43-42 23 0 43 19 43 42l0 126 126 0c23 0 42 20 42 43 0 23-21 43-45 43z"/>
<glyph glyph-name="uncalibrated" unicode="&#56;" d="M416 339c13-25 21-53 21-83 0-23-4-45-12-66-9 2-15 2-18 4-4 2-4 2-12 17-9 15-17 22-24 24-8 2-8 0-8-7 0-4-5-10-13-17-9-4-17-13-11-13 4 0 9 3 9-2 0-4-11-15-19-25-9-11 4-22 2-28-5-6-13-6-13-11 2-4 0-8-4-15-5-6-7-15-20-19-10-4-12 0-15 7-2 8-6 19-12 32-7 12 2 12-7 27-4 7-4 11-6 13l-105-102c32-20 69-30 107-30 117 0 211 94 211 211 0 38-10 75-30 107z m70 147c-10 11-29 11-40 0l-62-61c-36 27-79 42-126 42-117 0-211-94-211-211 0-47 17-92 43-126l-64-64c-11-11-11-30 0-40 6-7 12-9 21-9 8 0 15 2 21 9l418 418c11 13 11 30 0 42z m-271-219c0 4 5 6 11 6 7 0 0 6-2 13-2 6 4-2 6 6 5 7 13 17 20 19 6 3-9 13-9 20 0 6 6 17 17 36 11 19 24 28 34 23 11-4 15-12 22-15 4 0 15 3 23 5l-122-124c-2 4 0 6 0 11z m-27 158c0-7 0-13-2-15-7-9 0-7-5-28-4-21-17-9-23-19-7-11-7 0-13-13-6-13-6-32-21-13-7 4-9 17-9 30 19 26 45 45 73 58z m-111-173c0 2 0 4 0 6 0 28 6 53 17 77 2-9 6-17 8-24 15-23 9-25 3-36-7-10-9-6-22-15-2-4-4-6-6-8z m13-64c2 0 4 0 4 0 11 0 17-9 25-9 5 0 9-4 11-6l-19-19c-9 8-15 21-21 34z"/>
<glyph glyph-name="view-mode" unicode="&#57;" d="M343 228c5-4 5-8 3-13-3-4-7-8-11-8l-73 0 39-90c2-2 2-6 0-8-2-2-4-4-7-7l-34-17c-2-2-6-2-8 0-2 2-5 5-7 7l-36 85-60-58c-2-2-4-4-8-4-2 0-2 0-4 0-7 4-9 9-9 13l0 286c0 6 2 11 9 13 2 0 2 0 4 0 2 0 6-2 8-5z"/>
<glyph glyph-name="ruckus-delete" unicode="&#58;" d="M128 341l0-251c0-15 11-26 26-26l185 0c13 0 26 11 26 26l0 251z m64-213l-21 0 0 171 21 0z m64 0l-21 0 0 171 21 0z m64 0l-21 0 0 171 21 0z m43 277l-64 0 0 22c0 12-11 21-22 21l-64 0c-10 0-21-11-21-21l0-22-64 0c-13 0-21-6-21-21l0-21 277 0 0 21c0 15-9 21-21 21z m-86 0l-64 0 0 22 64 0z"/>
<glyph glyph-name="ruckus-print" unicode="&#60;" d="M331 107l-150 0c-6 0-10 4-10 10 0 7 4 11 10 11l150 0c6 0 10-4 10-11 0-6-4-10-10-10z m0 42l-150 0c-6 0-10 5-10 11 0 6 4 11 10 11l150 0c6 0 10-5 10-11 0-6-4-11-10-11z m138 128c0 24-19 43-42 43l-43 0 0 85c0 24-19 43-43 43l-123 0c-5 0-9-2-13-4l-73-73c-2-4-4-8-4-13l0-38-43 0c-23 0-42-19-42-43l0-149 85 0 0-21c0-24 19-43 43-43l170 0c24 0 43 19 43 43l0 21 85 0z m-320 86l43 0c11 0 21 8 21 21l0 43 128 0c13 0 22-9 22-22l0-128-214 0z m214-256c0-13-9-22-22-22l-170 0c-13 0-22 9-22 22l0 85 214 0z m64 149l-22 0 0 21 22 0z"/>
<glyph glyph-name="ruckus-desktop" unicode="&#61;" d="M427 427l-342 0c-10 0-21-11-21-22l0-256c0-10 11-21 21-21l107 0 0-21-43 0 0-22 214 0 0 22-43 0 0 21 107 0c10 0 21 11 21 21l0 256c0 11-11 22-21 22z m0-278l-342 0 0 256 342 0z"/>
<glyph glyph-name="ruckus-download" unicode="&#62;" d="M448 115c0 19-15 34-34 34l-316 0c-19 0-34-15-34-34l0-17c0-19 15-34 34-34l316 0c19 0 34 15 34 34z m-256 205l0 107c0 15 13 21 28 21l79 0c12 0 21-9 21-21l0-107 43 0c12 0 12-9 2-17l-90-107c-10-8-25-8-36 0l-98 107c-11 8-4 17 8 17z"/>
<glyph glyph-name="details" unicode="&#65;" d="M331 171l-150 0c-6 0-10 4-10 10 0 7 4 11 10 11l150 0c6 0 10-4 10-11 0-6-4-10-10-10z m0 42l-150 0c-6 0-10 5-10 11 0 6 4 11 10 11l150 0c6 0 10-5 10-11 0-6-4-11-10-11z m0 43l-150 0c-6 0-10 4-10 11 0 6 4 10 10 10l150 0c6 0 10-4 10-10 0-7-4-11-10-11z m10 149l-123 0c-5 0-9-2-13-4l-73-72c-2-5-4-9-4-13l0-188c0-23 19-43 43-43l170 0c24 0 43 20 43 43l0 235c0 23-19 42-43 42z m-128-27l0-37c0-12-8-21-21-21l-36 0z m150-250c0-13-9-21-22-21l-170 0c-13 0-22 8-22 21l0 171 43 0c23 0 43 19 43 42l0 43 106 0c13 0 22-9 22-21z"/>
<glyph glyph-name="details-comments" unicode="&#66;" d="M331 171l-150 0c-6 0-10 4-10 10 0 7 4 11 10 11l150 0c6 0 10-4 10-11 0-6-4-10-10-10z m0 42l-150 0c-6 0-10 5-10 11 0 6 4 11 10 11l150 0c6 0 10-5 10-11 0-6-4-11-10-11z m-77 226c-24 20-53 30-88 30-34 0-64-10-87-30-24-19-36-42-36-70 0-23 10-47 30-64l-24-49c-2-4 0-9 2-13 2-2 4-4 9-4 2 0 2 0 4 2l75 30 2 0c6-2 17-2 28-2 34 0 64 10 85 30 23 19 34 42 34 70 2 28-9 51-34 70z m-21-132c-26-17-58-21-90-13l-9 0-53-23 17 30c2 4 2 8-2 13-21 15-30 32-30 55 0 21 11 41 30 56 19 14 45 23 75 23 27 0 53-9 72-23 19-15 30-35 30-56 0-26-15-47-40-62z m-94 62c0-4-2-8-5-13-4-2-8-4-12-4-5 0-9 2-13 4-2 5-4 7-4 13 0 4 2 9 4 11 4 2 8 4 13 4 4 0 8-2 12-4 3-5 5-9 5-11z m36 11c2-2 4-7 4-11 0-4-2-8-4-13-4-2-6-4-13-4-11 0-17 6-17 17 0 4 2 9 4 11 5 2 9 4 13 4 4 0 9-2 13-4z m45-11c0-4-2-8-5-13-4-2-8-4-12-4-5 0-9 2-11 4-2 5-4 7-4 13 0 4 2 9 4 11 4 2 6 4 11 4 4 0 8-2 12-4 3-5 5-9 5-11z m121 36l-36 0c2-6 4-15 4-21l32 0c13 0 22-9 22-21l0-235c0-13-9-21-22-21l-170 0c-13 0-22 8-22 21l0 122c-2 0-4 0-8 0l-13-5 0-117c0-23 19-43 43-43l170 0c24 0 43 20 43 43l0 235c0 23-19 42-43 42z m-10-128l-71 0c-13-8-27-17-42-21l113 0c6 0 10 4 10 11 0 6-4 10-10 10z"/>
<glyph glyph-name="wrench" unicode="&#67;" d="M442 384l-71-70-49 12-13 49 71 71c-11 4-22 6-32 6-56 0-101-45-101-100 0-9 3-15 3-23l-173-173c-17-17-17-45 0-64l8-11c17-17 45-17 64 0l173 171c9-2 17-5 26-5 55 0 100 45 100 101 0 13-2 25-6 36z m-325-288c-15 0-25 11-25 26 0 15 10 25 25 25 15 0 26-10 26-25 0-15-11-26-26-26z"/>
<glyph glyph-name="event" unicode="&#68;" d="M331 171l-150 0c-6 0-10 4-10 10 0 7 4 11 10 11l150 0c6 0 10-4 10-11 0-6-4-10-10-10z m0 42l-150 0c-6 0-10 5-10 11 0 6 4 11 10 11l150 0c6 0 10-5 10-11 0-6-4-11-10-11z m0 43l-150 0c-6 0-10 4-10 11 0 6 4 10 10 10l150 0c6 0 10-4 10-10 0-7-4-11-10-11z m10 149l-149 0-30 54c-8 15-30 15-38 0l-75-128c-8-13 2-32 19-32l60 0 0-171c0-23 19-43 43-43l170 0c24 0 43 20 43 43l0 235c0 23-19 42-43 42z m22-277c0-13-9-21-22-21l-170 0c-13 0-22 8-22 21l0 171 66 0c18 0 28 19 20 32l-30 53 136 0c13 0 22-9 22-21z"/>
<glyph glyph-name="venue" unicode="&#69;" d="M256 448c-68 0-124-55-124-124 0-91 124-260 124-260 0 0 124 169 124 260 0 69-56 124-124 124z m0-175c-28 0-49 21-49 49 0 28 21 49 49 49 28 0 49-21 49-49 0-28-21-49-49-49z"/>
<glyph glyph-name="next" unicode="&#70;" d="M151 4l-29 32 204 220-204 220 29 32 235-252z"/>
<glyph glyph-name="previous" unicode="&#71;" d="M363 508l30-32-205-220 205-220-30-32-235 252z"/>
<glyph glyph-name="alarms-bell" unicode="&#72;" d="M399 169c0 0 0 36-19 55-17 15-28 41-37 96-2 11-2 21-4 32-4 34-4 49-34 60-4 2-8 4-11 4 0 2 0 2 0 4 0 2 0 2 0 5 0 0 0 0 0 2-6 10-21 21-38 21-17 0-32-11-36-26 0 0 0 0 0-2 0-2 0-2 0-4 0-2 0-2 0-4-5 0-9-5-13-5-30-6-32-25-34-55 0-11-2-23-4-34-7-56-18-79-37-96-21-17-21-53-19-56l0-36 284 0 0 39z m-96-56c0-36-21-49-49-49-28 0-49 15-49 49z"/>
<glyph glyph-name="view-1" unicode="&#73;" d="M233 179l-107-106 75 6c19 0 32-11 34-34 0-19-11-32-34-34l-165-2c-8 0-17 2-23 8-7 9-9 17-9 26l7 164c0 11 4 19 10 26 7 6 15 10 24 10 8 0 17-4 23-10 7-7 11-15 11-26l-2-88 111 111c6 7 15 9 23 9 11 0 17-2 24-9 6-6 8-15 8-23-2-11-6-19-10-28z m277 290l-7-164c0-8-4-17-10-23-7-7-15-11-26-11-10 0-19 4-23 11-7 6-9 15-9 23l2 77-106-107c-7-6-15-8-24-8-8 0-15 2-21 8-17 17-17 32 0 47l111 111-88-2c-19 0-32 11-34 34 0 19 11 32 34 34l165 7c10 0 19-3 25-9 7-8 11-17 11-28z"/>
<glyph glyph-name="others" unicode="&#76;" d="M405 343l0-174-149-88-149 88 0 174 149 88z m-64-42l-85 49-85-49 0-88 85-49 85 49z"/>
<glyph glyph-name="help" unicode="&#78;" d="M284 348c0 23-15 34-37 34-21 0-36-11-51-26l-45 43c26 30 62 49 105 49 60 0 105-30 105-94 0-68-84-89-77-156l-71 0c-10 77 71 109 71 150z m-83-233c0 30 21 51 49 51 27 0 49-21 49-51 0-28-22-51-49-51-28 0-49 23-49 51z"/>
<glyph glyph-name="user" unicode="&#79;" d="M348 267c-24-24-56-41-90-41-34 0-68 15-89 41-35-20-56-34-56-69l0-83c0-25 21-51 51-51l188 0c26 0 47 23 47 51l0 83c0 32-19 47-51 69z m-90 181c-53 0-94-43-94-94 0-51 43-94 94-94 51 0 94 43 94 94 0 51-43 94-94 94z"/>
<glyph glyph-name="collapse" unicode="&#80;" d="M508 241l-32-30-220 205-220-205-32 30 252 233z m0-168l-32-30-220 207-220-205-32 30 252 232z"/>
<glyph glyph-name="expand" unicode="&#81;" d="M4 277l32 30 220-205 220 205 32-30-252-232z m0 169l32 30 220-207 220 205 32-30-252-233z"/>
<glyph glyph-name="clients" unicode="&#82;" d="M337 448l-162 0c-24 0-43-19-43-43l0-298c0-24 19-43 43-43l162 0c24 0 43 19 43 43l0 298c2 24-19 43-43 43z m-81-58c13 0 21-8 21-21 0-13-8-21-21-21-13 0-21 8-21 21 0 13 8 21 21 21z m0-64c13 0 21-8 21-21 0-13-8-21-21-21-13 0-21 8-21 21 0 13 8 21 21 21z m0-64c13 0 21-8 21-21 0-13-8-21-21-21-13 0-21 8-21 21 0 13 8 21 21 21z m-64 128c13 0 21-8 21-21 0-13-8-21-21-21-13 0-21 8-21 21 0 13 8 21 21 21z m0-64c13 0 21-8 21-21 0-13-8-21-21-21-13 0-21 8-21 21 0 13 8 21 21 21z m0-106c-13 0-21 8-21 21 0 13 8 21 21 21 13 0 21-8 21-21 0-13-8-21-21-21z m64-113c-23 0-43 19-43 42 0 24 20 43 43 43 23 0 43-19 43-43 0-23-20-42-43-42z m64 113c-13 0-21 8-21 21 0 13 8 21 21 21 13 0 21-8 21-21 0-13-8-21-21-21z m0 64c-13 0-21 8-21 21 0 13 8 21 21 21 13 0 21-8 21-21 0-13-8-21-21-21z m0 64c-13 0-21 8-21 21 0 13 8 21 21 21 13 0 21-8 21-21 0-13-8-21-21-21z"/>
<glyph glyph-name="map-marker" unicode="&#83;" d="M256 448c-68 0-124-55-124-124 0-91 124-260 124-260 0 0 124 169 124 260 0 69-56 124-124 124z"/>
<glyph glyph-name="ap2" unicode="&#84;" d="M139 297c-22 23-34 53-34 87 0 34 10 62 34 85l15-15c-17-19-28-42-28-70 0-28 8-51 28-70z m121 49c13 6 22 15 22 25 0 9-3 15-9 19-6 7-13 9-21 9-7 0-13-2-19-9-7-6-9-12-9-19 0-13 6-21 17-25l-72-239-37 0 0-22 241 0 0 22-38 0z m-83-15c-15 15-21 34-21 55 0 19 6 36 21 53l15-14c-11-9-15-24-15-39 0-13 4-25 15-40z m43-156l66 0 21-68-109 0z m32 122l34-101-66 0z m83 34l-15 15c11 10 15 23 15 40 0 13-4 26-15 39l15 14c15-14 21-32 21-53 0-21-6-40-21-55z m38-34l-15 14c20 20 28 43 28 71 0 28-8 51-28 70l15 17c24-23 34-51 34-85 0-32-12-60-34-87z"/>
<glyph glyph-name="floor-plan-view-icons-list" unicode="&#85;" d="M107 405l298 0 0-42-298 0z m0-85l298 0 0-43-298 0z m0-85l298 0 0-43-298 0z m0-86l298 0 0-42-298 0z"/>
<glyph glyph-name="floor-plan-view-icons-plan" unicode="&#86;" d="M21 427l0-363 470 0 0 363z m278-320l0 64-43 0 0-64-85 0 0 64-43 0 0-64-64 0 0 106 235 0 0 43-235 0 0 128 192 0 0-64 43 0 0 64 149 0 0-128-85 0 0-43 85 0 0-106z"/>
<glyph glyph-name="guest" unicode="&#87;" d="M213 213c0-23-19-42-42-42-24 0-43 19-43 42 0 24 19 43 43 43 23 0 42-19 42-43z m197 171l-90 0 0 64-128 0 0-64-90 0c-34 0-59-26-59-58l0-204c0-32 25-58 59-58l308 0c32 0 59 26 59 58l0 204c0 32-25 58-59 58z m-17-21c6 0 12-5 12-11 0-6-6-11-12-11l-73 0 0 22z m-274 0l73 0 0-22-73 0c-6 0-12 5-12 11 0 6 6 11 12 11z m114-207c-3 10-11 17-22 25-10-10-25-17-40-17-15 0-28 7-39 17-13-8-21-15-21-27-15 15-26 36-26 59 0 47 39 86 86 86 47 0 85-39 85-86 0-21-9-42-23-57z m194-7l-128 0 0 22 128 0z m0 64l-128 0 0 22 128 0z"/>
<glyph glyph-name="edit" unicode="&#88;" d="M469 476c-40 40-106 40-149 0l-258-275c-2-3-4-7-7-11l-40-154c-2-8 0-17 6-23 5-4 11-7 17-7 3 0 5 0 7 0l153 41c5 2 9 4 13 6l11 11c0 0 2 0 2 2 0 0 2 2 2 2l243 261c20 19 30 46 30 74 0 28-10 54-30 73z m-290-382l-77-21c-4 4-6 6-10 10-5 4-7 7-11 11l21 77 5 4c6 0 25-6 49-30 21-21 27-40 30-47z m254 269l-211-224c-9 15-19 30-32 42-15 15-30 26-47 34l211 224c21 22 56 22 77 0 11-10 15-23 15-38 4-13-2-28-13-38z"/>
<glyph glyph-name="wlan9" unicode="&#89;" d="M107 405l85 0 0-85-85 0z m106 0l86 0 0-85-86 0z m107 0l85 0 0-85-85 0z m-213-106l85 0 0-86-85 0z m106 0l86 0 0-86-86 0z m107 0l85 0 0-86-85 0z m-213-107l85 0 0-85-85 0z m106 0l86 0 0-85-86 0z m107 0l85 0 0-85-85 0z"/>
<glyph glyph-name="wlan2" unicode="&#90;" d="M107 405l298 0 0-128-298 0z m0-170l298 0 0-128-298 0z"/>
<glyph glyph-name="ruckus-search-minus" unicode="&#91;" d="M506 36l-107 107c30 36 49 83 49 134 0 118-96 214-213 214-118 0-214-96-214-214 0-117 96-213 214-213 51 0 98 17 134 49l107-107z m-442 241c0 94 77 171 171 171 94 0 170-77 170-171 0-94-76-170-170-170-94 0-171 76-171 170z m85 22l171 0 0-43-171 0z"/>
<glyph glyph-name="lamp" unicode="&#92;" d="M390 339c0 73-59 135-134 135-75 0-134-60-134-135 0-28 12-49 25-72 13-24 28-49 32-88-6-2-8-10-8-23l0-37c0-21 8-40 21-57 2-32 30-39 64-39 34 0 62 7 64 39 13 15 21 34 21 57l0 37c0 15-4 21-8 23 4 30 17 56 30 79 12 28 27 53 27 81z m-247 0c0 62 51 113 113 113 62 0 113-51 113-113 0-47-47-92-58-160-14-4-34-8-55-8-21 0-41 6-55 8-9 81-58 111-58 160z m132 58c26-7 45-28 54-54 2-4 6-8 10-8 0 0 2 0 2 0 7 2 9 6 9 13-9 34-34 59-68 68-7 2-11-2-13-9-2-2 0-8 6-10z"/>
<glyph glyph-name="ruckus-search-plus" unicode="&#93;" d="M506 36l-107 107c30 36 49 83 49 134 0 118-96 214-213 214-118 0-214-96-214-214 0-117 96-213 214-213 51 0 98 17 134 49l107-107z m-442 241c0 94 77 171 171 171 94 0 170-77 170-171 0-94-76-170-170-170-94 0-171 76-171 170z m256 22l-64 0 0 64-43 0 0-64-64 0 0-43 64 0 0-64 43 0 0 64 64 0z"/>
<glyph glyph-name="ruckus-envelope" unicode="&#94;" d="M416 382l-320 0c-17 0-32-15-32-32l0-188c0-19 15-34 32-34l318 0c17 0 32 15 32 32l0 190c2 17-13 32-30 32z m-4-71l-150-91c-2-2-4-2-6-2-2 0-4 0-6 2l-150 91c-6 5-8 13-4 20 4 6 11 6 17 4l143-88 143 88c6 4 15 2 17-4 4-7 2-15-4-20z"/>
<glyph glyph-name="ruckus-exchange" unicode="&#95;" d="M341 277l-106 0c-15 0-22 13-22 28l0 79c0 13 9 21 22 21l106 0 0 43c0 13 9 13 17 2l107-89c9-11 9-26 0-37l-107-98c-8-11-17-4-17 9z m-170-42l106 0c15 0 22-13 22-28l0-79c0-13-9-21-22-21l-106 0 0-43c0-13-9-13-17-2l-107 89c-9 11-9 26 0 37l107 98c8 11 17 4 17-9z"/>
<glyph glyph-name="ruckus-upload" unicode="&#96;" d="M192 320l0-107c0-15 13-21 28-21l79 0c12 0 21 9 21 21l0 107 43 0c12 0 12 9 2 17l-90 107c-10 8-25 8-36 0l-98-107c-11-8-4-17 8-17z m256-205c0 19-15 34-34 34l-316 0c-19 0-34-15-34-34l0-17c0-19 15-34 34-34l316 0c19 0 34 15 34 34z"/>
<glyph glyph-name="settings" unicode="&#97;" d="M273 53l-51 0c-4 0-11 2-13 5-4 4-6 8-6 12l-9 37c-2 2-6 2-8 4l-28-21c-7-7-19-7-28 2-19 17-34 32-40 40-3 5-5 9-5 13 0 4 2 9 5 13 2 4 6 8 12 15 3 4 7 6 9 10-2 5-2 7-4 11l-34 4c-7 0-11 5-13 9-2 4-5 8-5 13l0 51c0 4 3 8 5 13 2 4 6 6 13 8l34 7c2 2 2 6 4 8-4 9-13 17-19 26-5 6-7 10-7 13 0 4 2 8 5 12 4 7 12 15 23 28 17 17 24 21 30 21 6-2 13-2 17-6l26-21c2 2 4 4 8 4 2 17 4 30 7 38 2 11 10 15 21 15l51 0c4 0 11-2 13-4 4-4 6-8 6-13l7-36c2-2 6-2 8-4l28 21c4 4 19 6 28 0 21-19 34-34 40-43 0 0 2-4 2-12 0-5-2-9-4-13-2-4-6-9-13-15-2-4-6-7-8-11 2-4 2-6 4-10l36-7c5 0 11-4 13-8 2-5 4-9 4-13l0-51c0-5-2-9-4-13-2-4-8-7-13-9l-36-6c-2-2-2-7-4-9 4-6 13-15 19-25 4-5 4-9 4-13 0-4-2-11-6-13-4-4-13-15-24-25-17-18-23-20-30-20-4 0-8 2-12 5l-28 21c-2-2-6-2-9-4-2-17-4-30-6-39 2-8-6-15-15-15z m-49 26l45 0c2 6 4 17 6 38l0 9 9 2c6 2 13 4 19 9l6 4 37-28c2 2 6 4 12 13 11 11 17 17 22 21-11 13-19 24-24 30l-4 6 4 7c2 4 7 11 9 19l2 6 47 7 0 45-47 6-2 6c-2 7-4 13-9 22l-4 6 4 7c2 6 7 12 13 19 4 6 9 10 11 13-5 6-15 17-32 34l-37-28-6 4c-6 2-13 7-19 9l-7 2-6 47-45 0c-2-9-4-21-6-39l0-8-13-4c-6-2-13-5-19-7l-7-4-38 28c-2-2-6-5-13-11-10-11-17-17-19-21 11-13 17-22 24-30l4-7-4-8c-5-6-7-13-9-19l-2-9-47-6 0-45 47-6 2-9c2-6 4-13 9-21l4-7-4-6c-5-4-9-9-13-17-5-7-9-11-11-13 4-6 13-15 34-34l36 28 7-5c6-2 13-6 19-8l6-2z m21 94c-19 0-36 6-51 21-15 15-21 32-21 51 0 20 6 37 21 52 15 14 32 21 51 21 20 0 37-7 52-21 14-15 21-32 21-52 0-19-7-36-21-51-13-13-30-21-52-21z m0 119c-12 0-23-4-34-15-8-8-13-21-13-34 0-13 5-23 15-34 9-8 22-15 34-15 13 0 24 4 35 15 8 9 12 21 12 34 0 13-4 24-15 34-8 11-19 15-34 15z"/>
<glyph glyph-name="ap" unicode="&#98;" d="M299 235l-86 0 0-171 86 0z m0 85c0-24-19-43-43-43-24 0-43 19-43 43 0 24 19 43 43 43 24 0 43-19 43-43z m70-73c28 43 30 101 0 146-6 8-19 23-28 32l-12-11c25-24 42-56 42-92 0-36-17-70-42-92l14-10c9 6 20 17 26 27z m-32 24c21 34 17 83-11 113-4 4-15 13-19 17l-13-11c11-6 20-15 26-25 19-30 15-73-9-100-4-7-10-11-17-13l15-9c9 4 22 17 28 28z m73-38c36 61 27 142-17 198-3 4-11 11-13 15l-15-11c30-30 47-70 47-115 0-45-19-85-47-115l13-11c10 11 23 26 32 39z m-267 160c-28-43-30-101 0-146 6-8 19-23 28-32l12 11c-25 24-42 56-42 92 0 36 17 70 42 92l-14 12c-9-8-20-19-26-29z m32-24c-21-34-17-83 11-113 4-4 15-13 19-17l13 11c-11 6-20 15-26 25-19 32-15 73 9 100 4 7 10 11 17 13l-15 11c-9-6-22-19-28-30z m-73 38c-36-61-27-142 17-198 3-4 11-11 13-15l15 11c-30 30-47 70-47 115 0 45 19 85 47 115l-13 11c-10-11-23-26-32-39z"/>
<glyph glyph-name="info" unicode="&#99;" d="M393 390c-39 39-84 58-135 58-53 0-98-19-136-58-39-36-58-83-58-136 0-53 19-98 58-135 38-36 83-55 136-55 53 0 98 19 135 55 36 37 55 84 55 135 0 53-19 98-55 136z m-18-253c-32-32-72-50-117-50-45 0-85 18-117 50-32 32-49 72-49 117 0 47 15 87 47 119 32 34 72 52 119 52 47 0 85-18 117-50 32-32 50-72 50-119 0-47-18-87-50-119z m-119 226c-6 0-11-2-15-7-4-4-6-8-6-15 0-6 2-10 6-15 4-4 9-6 15-6 6 0 11 2 15 6 4 5 6 9 6 15 0 7-2 11-6 15-4 5-9 7-15 7z m-21-86l42 0 0-149-42 0z"/>
<glyph glyph-name="rotate-screen" unicode="&#100;" d="M235 448l-128 0c-24 0-43-19-43-43l0-298c0-24 19-43 43-43l128 0c23 0 42 19 42 43l0 298c0 24-19 43-42 43z m-64-352c-13 0-22 9-22 21 0 13 9 22 22 22 12 0 21-9 21-22 0-12-9-21-21-21z m85 75l-171 0 0 234 171 0z m43 85l106 0 0-171-106 0 0-21 106 0c24 0 43 19 43 43l0 128c0 23-19 42-43 42l-106 0z m147 109l-51-51c-5-5-11-5-15 0l-56 51c-4 4-4 8-2 13 2 4 4 6 11 6l104 0c5 0 9-2 11-6 2-5 2-9-2-13z m-147 83c32-6 59-32 64-64l42 0c-4 55-49 60-106 64z"/>
<glyph glyph-name="dd-tri-down" unicode="&#101;" d="M337 275l-68-68c-7-6-15-6-22 0l-72 68c-4 4-4 9-2 15 2 7 8 9 15 9l138 0c7 0 13-2 15-9 2-6 0-11-4-15z m79 24l-137-137c-12-13-27-13-40 0l-141 137c-8 8-11 19-6 30 6 10 15 17 30 17l271 0c12 0 23-7 27-17 7-11 5-22-4-30z"/>
<glyph glyph-name="dd-tri-up" unicode="&#102;" d="M175 237l68 68c7 6 15 6 22 0l72-68c4-4 6-9 2-15-2-7-8-9-15-9l-136 0c-7 0-13 2-15 9-2 6-2 11 2 15z m-77-24l137 135c12 13 27 13 40 0l141-137c9-8 11-19 6-30-6-10-15-17-27-17l-273 0c-13 0-24 7-28 17-7 13-4 24 4 32z"/>
<glyph glyph-name="delete" unicode="&#103;" d="M311 256l184 183c15 15 15 41 0 56-15 15-41 15-56 0l-183-184-183 184c-15 15-41 15-56 0-15-15-15-41 0-56l184-183-184-183c-15-15-15-41 0-56 9-8 17-11 28-11 10 0 19 5 28 11l183 184 183-184c9-8 18-11 28-11 11 0 19 5 28 11 15 15 15 41 0 56z"/>
<glyph glyph-name="down-limit" unicode="&#104;" d="M137 192l76 0 0 256 86 0 0-256 72 0c17 0 22-4 13-15l-119-102c-5-5-11-2-18 4l-119 98c-9 11-6 15 9 15z"/>
<glyph glyph-name="error" unicode="&#105;" d="M448 260c0-53-19-98-55-134-37-36-82-56-135-56-53 0-98 20-136 56-39 38-58 83-58 134 0 54 19 98 58 137 38 38 83 57 136 57 53 0 98-19 135-57 36-39 55-83 55-137z m-356 0c0-45 17-85 49-117 32-32 72-49 117-49 45 0 85 17 117 49 32 32 50 72 50 117 0 47-18 88-50 120-32 32-70 49-117 49-47 0-85-17-117-49-34-32-49-73-49-120z m258-81l-79 79 77 79-17 17-77-77-79 77-17-17 77-79-79-79 17-17 79 79 81-79z"/>
<glyph glyph-name="first" unicode="&#106;" d="M405 508l30-32-207-220 205-220-28-32-234 252z m-320 0l43 0 0-502-43 0z"/>
<glyph glyph-name="next-for-btn" unicode="&#107;" d="M235 4l-30 32 205 220-205 220 30 32 234-252z m-169 0l-30 32 207 220-205 220 30 32 235-252z"/>
<glyph glyph-name="last" unicode="&#108;" d="M107 4l-30 32 207 220-205 220 28 32 234-252z m321 0l-43 0 0 501 43 0z"/>
<glyph glyph-name="search" unicode="&#109;" d="M427 113c0-8-2-13-9-19-4-4-11-7-19-7-9 0-15 3-19 7l-71 70c-27-17-55-23-83-23-40 0-72 15-100 42-26 26-41 60-41 101 0 38 15 72 43 100 28 28 62 43 100 43 41 0 75-13 103-41 27-28 40-62 40-100 0-32-8-60-23-83l70-71c4-6 7-13 9-19z m-90 171c0 30-11 55-32 74-21 22-47 32-75 32-29 0-55-10-74-32-22-21-32-47-32-74 0-30 10-56 32-75 21-21 47-32 74-32 30 0 56 11 75 32 21 19 32 45 32 75z"/>
<glyph glyph-name="triangle-down" unicode="&#110;" d="M367 286l-94-94c-11-9-19-9-28 0l-98 94c-6 6-8 13-4 21 2 9 8 13 19 13l190 0c11 0 17-4 19-13 4-6 2-15-4-21z"/>
<glyph glyph-name="triangle-up" unicode="&#111;" d="M145 235l94 94c11 8 19 8 28 0l98-94c6-7 8-13 4-22-4-8-11-12-19-12l-188 0c-11 0-17 4-19 12-4 9-4 15 2 22z"/>
<glyph glyph-name="up-limit" unicode="&#112;" d="M375 320l-76 0 0-256-86 0 0 256-72 0c-19 0-24 4-13 13l119 102c5 4 11 2 18-4l119-98c11-9 9-13-9-13z"/>
<glyph glyph-name="ruckus-home" unicode="&#113;" d="M395 269l-56 42-55 43c-7 4-11 9-15 11-2 0-4 2-9 2-4 0-6 0-8-2-5-2-9-7-15-9l-120-94c-6-4-10-12-10-21l0-130c0-13 12-26 27-26l244 0c15 0 27 13 27 28l0 134c0 9-4 18-10 22z m-139-152c0-6-6-10-13-10l-60 0c-6 0-12 4-12 10l0 105c0 8 6 13 12 13l62 0c7 0 13-5 13-11l0-107z m183 190l-44 34 0 77c0 4-5 9-9 9l-34 0c-6 0-11-5-11-9l0-36-38 30c-28 21-70 21-96 0l-134-105c-9-6-9-17-5-23 7-7 17-9 24-2l136 102c15 11 41 11 56 0l136-105c2-2 7-2 9-2 4 0 10 2 13 7 6 6 6 17-3 23z"/>
<glyph glyph-name="warning" unicode="&#114;" d="M277 407l150-277c4-8 4-19 0-28-7-10-13-17-22-17l-300 0c-9 0-18 7-22 17-6 11-6 20 0 30l152 278c4 8 10 12 21 12 11 0 17-4 21-15z m-23-6l-154-282 0-6c0 0 2 0 2-2 0-4 3-4 3-4l302 0c5 0 5 2 5 6l0 9-152 277c0 2-2 2-4 2 0 0-2 0-2 0z m17-183c0-5-2-7-4-7l-24 0c-2 0-4 2-4 7l-2 76 2 3 30 0c2 0 2 0 2-3z m0-64c0-5-2-5-4-5l-24 0c-2 0-4 2-4 5l0 29c0 3 2 5 4 5l24 0c2 0 4-2 4-5z"/>
<glyph glyph-name="wlan" unicode="&#115;" d="M429 301c-7 0-11 2-11 6-43 45-96 66-162 68-64 0-117-21-162-64-7-6-15-6-26 0-6 7-6 18 0 26 51 49 115 75 188 75 70 0 132-26 186-79 6-9 6-15 0-26-3-4-7-6-13-6z m-58-54c-6 0-10 3-13 7-25 30-59 43-102 43-41 0-75-13-102-41-7-6-15-6-26 0-6 6-6 15 0 26 34 34 77 51 128 51 49 0 94-17 128-54 6-6 6-14 0-25-4-7-9-7-13-7z m-45-21c-19 19-42 30-70 30-28 0-51-11-70-30-5-4-7-8-7-13 0-4 2-8 7-12 8-7 17-7 25 0 13 12 28 19 45 19 17 0 32-7 45-19 8-7 17-7 25 0 5 4 7 8 7 12 0 2-2 7-7 13z m-44-113c-7-6-15-11-26-11-11 0-17 5-26 11-8 6-10 15-10 26 0 10 4 17 10 23 7 7 15 9 26 9 11 0 17-2 26-9 8-6 10-15 10-23-2-11-4-20-10-26z"/>
<glyph glyph-name="refresh-t-01" unicode="&#116;" d="M484 326l-102 0c-7 0-11 3-15 7-4 4-6 8-6 15 0 6 2 13 6 17 4 4 11 6 15 6l40 0c-42 60-96 90-164 90-55 0-104-19-143-60-38-40-60-90-60-145 0-6-2-11-6-15-4-4-8-6-15-6-6-2-15 0-19 4-6 4-9 8-9 15 0 70 26 130 75 179 49 49 109 75 179 75 86 0 154-34 203-105l0 41c0 6 2 10 6 15 5 4 11 6 15 6 7 0 11-2 15-6 4-5 7-11 7-15l0-96c2-7 0-11-5-15-2-4-8-7-17-7z m-454-143l102 0c7 0 13-2 17-6 5-4 7-11 7-15 0-15-7-21-22-21l-44 0c42-58 98-86 168-86 56 0 105 20 143 60 38 41 60 88 60 143 0 7 2 11 6 15 4 4 11 6 15 6 7 0 11-2 15-6 4-4 6-11 6-15 0-70-23-130-72-177-49-49-109-72-177-72-85 0-154 34-203 104l0-45c0-6-2-10-6-15-2-8-9-10-15-10-7 0-13 2-17 6-4 4-9 11-9 15l0 96c0 6 2 11 9 15 4 6 10 8 17 8z"/>
<glyph glyph-name="answer" unicode="&#117;" d="M235 201c-2 10-2 21 2 29 2 9 6 17 10 24 5 6 9 15 15 21 7 7 11 13 15 19 5 7 9 13 13 20 2 6 4 12 4 21 0 11-4 21-10 30-7 8-17 13-30 13-9 0-17-3-26-7-8-4-15-10-21-17l-24 15c9 11 20 19 32 26 11 6 24 10 39 10 21 0 38-6 53-17 15-10 19-27 19-49 0-8-2-17-4-25-4-9-8-15-13-22-4-6-10-13-15-19-6-6-10-13-15-21-4-7-8-15-10-24-2-8-4-17-2-27z m-9-62c0 8 2 15 7 19 4 4 10 6 17 6 6 0 12-2 17-6 4-4 6-11 6-19 0-9-2-13-6-20-5-4-11-6-17-6-7 0-13 2-17 6-5 5-7 11-7 20z m30-137c-141 0-254 113-254 254 0 141 113 254 254 254 141 0 254-113 254-254 0-141-113-254-254-254z m0 465c-117 0-211-94-211-211 0-117 94-211 211-211 117 0 211 94 211 211 0 117-94 211-211 211z"/>
<glyph glyph-name="disconnect" unicode="&#118;" d="M275 156l-32-32c-15-15-32-22-51-24-19-2-38 2-55 13l-47-49-26 26 51 49c-10 17-17 34-15 53 2 19 11 36 26 51l32 32 17-17 38 41c5 6 11 6 15 0 7-5 7-11 0-15l-40-41 51-51 40 41c5 6 11 6 15 0 7-5 7-11 0-15l-40-41z m-40 200l32 32c15 15 32 22 51 24 19 2 38-2 55-13l49 49 26-26-51-51c10-17 17-34 15-53-2-19-11-36-26-51l-30-32c-40 40-81 81-121 121z"/>
<glyph glyph-name="new" unicode="&#119;" d="M388 341c23 0 42-8 57-25 16-17 24-37 24-60l0-1c0-23-8-43-24-60-15-17-35-26-57-26l-263 0c-23 0-41 9-58 26-16 17-24 37-24 60l0 1c0 23 8 43 24 60 17 17 35 25 58 25l263 0m0 15l-263 0c-25 0-50-10-68-30-19-20-29-43-29-70l0-1c0-27 10-50 29-70 18-19 43-29 68-29l263 0c26 0 49 10 67 30 19 20 27 43 27 70l0 1c0 27-10 50-27 70-17 19-40 29-67 29z m-267-140l16 0 0 37c0 13 0 23-2 29l10-17 29-49 17 0 0 84-16 0 0-37c0-13 0-23 1-28l-10 18-28 49-17 0z m94 0l57 0 0 13-42 0 0 24 33 0 0 14-33 0 0 22 40 0 0 13-55 0z m84 2l20 0 11 44c0 3 0 5 1 10 2 4 2 7 2 8 1-4 3-10 4-18l11-44 22 0 18 84-15 0-9-43c0-3 0-7-1-14-2-6-2-10-2-15l-5 27-13 43-14 0-12-43c0-1-1-4-3-8-1-4-1-7-3-10 0-3-1-6-1-9 0 3 0 8-1 15-2 5-2 10-2 14l-7 43-17 0z"/>
<glyph glyph-name="none" unicode="&#120;" d="M398 242l-284 0c-7 0-14 5-14 14 0 7 5 14 14 14l284 0c7 0 14-5 14-14 0-9-5-14-14-14z"/>
<glyph glyph-name="none-mouse" unicode="&#121;" d="M388 341c23 0 42-8 57-25 16-17 24-37 24-60l0-1c0-23-8-43-24-60-15-17-35-26-57-26l-263 0c-23 0-41 9-58 26-16 17-24 37-24 60l0 1c0 23 8 43 24 60 17 17 35 25 58 25l263 0m0 15l-263 0c-25 0-50-10-68-30-19-20-29-43-29-70l0-1c0-27 10-50 29-70 18-19 43-29 68-29l263 0c26 0 49 10 67 30 19 20 27 43 27 70l0 1c0 27-10 50-27 70-17 19-40 29-67 29z m10-114l-284 0c-7 0-14 5-14 14 0 7 5 14 14 14l284 0c7 0 14-5 14-14 0-9-5-14-14-14z"/>
<glyph glyph-name="ok" unicode="&#122;" d="M401 341c15-25 24-55 24-87 0-45-18-85-50-117-32-32-72-50-117-50-45 0-85 18-117 50-32 32-49 72-49 117 0 47 15 87 47 119 32 34 72 52 119 52 32 0 60-9 85-24l13 19c-30 19-62 28-98 28-53 0-98-19-136-58-39-36-58-83-58-136 0-53 19-98 58-135 38-36 83-55 136-55 53 0 98 19 135 55 36 37 55 84 55 135 0 40-11 77-34 109z m-154-181c-4 0-10 2-12 4l-98 83c-9 9-11 22-3 30 9 9 22 11 30 2l79-68 147 228c7 11 20 13 30 7 9-7 13-19 7-30l-162-247c-5-5-9-9-15-9 0 0-3 0-3 0z"/>
<glyph glyph-name="ruckus-users" unicode="&#123;" d="M305 139c0 27-17 51-45 68-19-19-47-30-77-30-29 0-55 11-74 30-28-17-45-41-45-68 0 0 0 0 0-2l0-30c0-24 19-43 41-43l157 0c24 0 41 19 41 41l0 29c2 3 2 3 2 5 0-2 0-2 0 0z m-36 147c0 47-38 85-86 85-47 0-85-38-85-85 0-47 38-85 85-85 48 0 86 38 86 85z m179-43c0 24-15 45-38 60-17-17-41-26-67-26-19 0-36 7-51 15 0-2 0-4 0-4 0-23-8-47-21-64 19-11 32-26 40-43l101 0c19 0 36 15 36 37l0 25c0-2 0-2 0 0 0-2 0-2 0 0z m-105 201c-40 0-74-34-74-75 0-4 0-8 2-13 11-10 17-25 21-40 13-13 32-22 51-22 41 0 75 35 75 75 0 43-34 75-75 75z"/>
<glyph glyph-name="ruckus-eye" unicode="&#124;" d="M256 384c-141 0-256-149-256-149 0 0 115-128 256-128 141 0 256 128 256 128 0 0-115 149-256 149z m0-235c-83 0-158 56-196 88 21 23 55 53 98 77-7-11-9-24-9-37 0-59 47-106 107-106 60 0 107 47 107 106 0 13-2 26-7 37 41-24 75-54 98-77-40-34-115-88-198-88z m-13 167c0-14-11-26-25-26-15 0-26 12-26 26 0 14 11 25 26 25 14 0 25-11 25-25z"/>
<glyph glyph-name="mesh-network" unicode="&#125;" d="M448 290c-9 4-19 7-30 4l-49 86c13 13 15 32 6 47-10 19-34 25-53 15-8-5-15-13-17-24l-98 0c-4 15-19 26-36 26-24 0-41-17-41-39 0-10 4-19 11-27l-49-86c-17 5-34-2-43-19-11-19-4-43 15-53 9-5 19-7 30-5l49-85c-13-13-15-32-6-47 10-19 34-25 53-15 8 5 15 13 17 24l98 0c4-17 19-28 38-28 22 0 39 17 39 38 0 11-4 20-11 28l49 85c17-4 34 3 43 20 11 21 4 44-15 55z m-245-164c-2 2-5 4-7 8l60 101 58-101c-5-4-9-10-9-17l-98 0c0 2-2 7-4 9z m-81 141c-3 6-5 10-9 17l49 85c2 0 7-2 9-2 4 0 6 0 8 2l58-100-115 0z m187 119c2-2 5-4 7-8l-60-101-58 101c5 6 7 10 9 17l98 0c0-2 2-7 4-9z m32-241c-4 0-6 0-8-2l-58 100 118 0c2-6 4-10 8-17l-49-85c-2 4-6 4-11 4z m54 130c-2-2-2-6-5-8l-117 0 58 100c6-2 12-2 19 0l49-85c0 0-2-5-4-7z m-278-38c2 2 2 6 5 8l117 0-58-100c-6 2-12 2-19 0l-49 85c0 0 2 5 4 7z"/>
<glyph glyph-name="radio" unicode="&#126;" d="M299 83c0 7 2 11 6 11 45 43 66 96 68 162 0 64-21 117-64 162-6 7-6 15 0 26 7 6 17 6 26 0 51-51 77-113 77-188 0-70-26-132-79-186-9-6-15-6-26 0-6 5-8 9-8 13z m-54 60c0 6 2 11 7 13 30 25 42 59 42 102 0 41-12 75-40 103-7 6-7 14 0 25 6 7 15 7 25 0 35-34 52-77 52-128 0-49-17-94-54-128-6-6-15-6-25 0-5 4-7 9-7 13z m-21 45c19 19 30 42 30 70 0 28-11 51-30 71-4 4-9 6-13 6-4 0-8-2-13-6-8-9-8-18-2-26 13-13 19-28 19-45 0-17-6-32-19-45-6-8-6-17 0-25 5-5 9-7 13-7 6 0 11 2 15 7z m-111 45c-6 6-11 14-11 25 0 11 5 17 11 26 6 6 15 10 26 10 10 0 17-4 23-10 7-7 9-17 9-26 0-11-2-17-9-25-6-9-15-11-23-11-11 0-20 4-26 11z"/>
<glyph glyph-name="ap-lte" unicode="&#57429;" d="M212 179l0 120 85-1 0-119z m87 205c0-24-19-43-43-43-24 0-43 19-43 43 0 24 19 43 43 43 24 0 43-19 43-43z m83-73c32 43 32 101 0 146-7 10-21 23-32 32l-15-11c30-24 47-56 47-92 0-36-17-70-47-92l15-10c13 6 25 17 32 27z m-34 24c25 34 19 83-13 113-4 4-17 13-21 17l-15-13c10-6 21-15 30-25 21-30 17-73-9-101-6-6-13-10-19-12l17-9c8 6 23 19 30 30z m81-38c40 61 32 142-19 198-5 4-11 11-15 15l-15-11c32-30 51-70 51-115 0-45-21-85-53-115l15-11c12 11 27 26 36 39z m-299 160c-32-43-32-101 0-146 7-10 21-23 32-32l15 11c-32 24-51 58-51 94 0 36 17 70 47 92l-15 10c-9-8-21-19-28-29z m34-24c-25-36-19-83 13-113 4-4 17-13 21-17l15 13c-10 6-21 13-30 23-21 30-17 73 9 100 9 5 15 11 21 13l-17 11c-10-6-25-19-32-30z m-81 38c-40-61-32-142 19-198 5-4 11-11 15-15l15 11c-32 30-51 70-51 115 0 45 21 85 53 115l-15 11c-12-11-27-26-36-39z m24-471l0 107 21 0 0-88 53 0 0-19z m132 0l0 90-30 0 0 17 85 0 0-17-32 0 0-90z m102 0l0 107 79 0 0-17-57 0 0-26 53 0 0-17-53 0 0-30 59 0 0-17z"/>
<glyph glyph-name="ap-wifi" unicode="&#57430;" d="M219 180l0 120 86 0 0-120z m80 204c0-24-19-43-43-43-24 0-43 19-43 43 0 24 19 43 43 43 24 0 43-19 43-43z m83-73c32 43 32 101 0 146-7 10-21 23-32 32l-15-11c30-24 47-56 47-92 0-36-17-70-47-92l15-10c13 6 25 17 32 27z m-34 24c25 34 19 83-13 113-4 4-17 13-21 17l-15-13c10-6 21-15 30-25 21-30 17-73-9-101-6-6-13-10-19-12l17-9c8 6 23 19 30 30z m81-38c40 61 32 142-19 198-5 4-11 11-15 15l-15-11c32-30 51-70 51-115 0-45-21-85-53-115l15-11c12 11 27 26 36 39z m-299 160c-32-43-32-101 0-146 7-10 21-23 32-32l15 11c-32 24-51 58-51 94 0 36 17 70 47 92l-15 10c-9-8-21-19-28-29z m34-24c-25-36-19-83 13-113 4-4 17-13 21-17l15 13c-10 6-21 13-30 23-21 30-17 73 9 100 9 5 15 11 21 13l-17 11c-10-6-25-19-32-30z m-81 38c-40-61-32-142 19-198 5-4 11-11 15-15l15 11c-32 30-51 70-51 115 0 45 21 85 53 115l-15 11c-12-11-27-26-36-39z m0-471l-25 107 21 0 17-73 19 73 26 0 19-75 17 75 21 0-25-107-24 0-21 79-21-79z m152 87l0 20 21 0 0-20z m0-87l0 77 21 0 0-77z m64 0l0 107 72 0 0-17-51 0 0-26 45 0 0-17-45 0 0-47z m106 87l0 20 22 0 0-20z m0-87l0 77 22 0 0-77z"/>
<glyph glyph-name="wlan-lte" unicode="&#57431;" d="M169 307c-7-6-7-17 0-23 6-7 19-7 25 0 34 32 90 32 122 0 4-5 8-5 13-5 4 0 8 3 12 5 7 6 7 17 0 23-47 45-123 45-172 0z m-56 54c-6-9-6-20 0-26 6-6 19-6 26 0 64 62 168 62 232 0 4-4 9-4 13-4 4 0 9 2 13 4 8 6 8 17 0 26-77 74-205 74-284 0z m339 51c-109 104-286 104-394 0-7-7-7-17 0-24 6-6 19-6 25 0 94 90 250 90 344 0 4-4 8-4 15-4 4 0 8 2 12 4 7 7 7 17-2 24z m-196-156c-17 0-32-15-32-32 0-17 15-32 32-32 17 0 32 15 32 32 0 17-15 32-32 32z m-149-256l0 107 21 0 0-88 53 0 0-19z m132 0l0 90-30 0 0 17 85 0 0-17-32 0 0-90z m102 0l0 107 79 0 0-17-57 0 0-26 53 0 0-17-53 0 0-30 59 0 0-17z"/>
<glyph glyph-name="wlan-wifi" unicode="&#57432;" d="M169 307c-7-6-7-17 0-23 6-7 19-7 25 0 34 32 90 32 122 0 4-5 8-5 13-5 4 0 8 3 12 5 7 6 7 17 0 23-47 45-123 45-172 0z m-56 54c-6-9-6-20 0-26 6-6 19-6 26 0 64 62 168 62 232 0 4-4 9-4 13-4 4 0 9 2 13 4 8 6 8 17 0 26-77 74-205 74-284 0z m339 51c-109 104-286 104-394 0-7-7-7-17 0-24 6-6 19-6 25 0 94 90 250 90 344 0 4-4 8-4 15-4 4 0 8 2 12 4 7 7 7 17-2 24z m-196-156c-17 0-32-15-32-32 0-17 15-32 32-32 17 0 32 15 32 32 0 17-15 32-32 32z m-173-256l-25 107 21 0 17-73 19 73 26 0 19-75 17 75 21 0-25-107-24 0-21 79-21-79z m152 87l0 20 21 0 0-20z m0-87l0 77 21 0 0-77z m64 0l0 107 72 0 0-17-51 0 0-26 45 0 0-17-45 0 0-47z m106 87l0 20 22 0 0-20z m0-87l0 77 22 0 0-77z"/>
<glyph glyph-name="camera" unicode="&#57433;" d="M201 205c-5 0-9 2-11 6-2 7-4 15-4 22 0 38 29 68 68 68 8 0 17-2 25-4 7-3 9-9 7-15-2-7-9-9-15-7-6 2-13 4-19 4-26 0-47-21-47-46 0-5 0-11 2-15 2-7-2-11-6-13 2 0 0 0 0 0z m198 156l-21 0c-43 0-52 14-56 23-4 9-13 15-38 15l-51 0c-28 0-41-6-45-15-5-9-11-23-56-23l-21 0c-26 0-47-24-47-50l0-164c0-25 21-49 49-49l288 0c26 0 49 21 49 49l0 164c-2 26-25 50-51 50z m-143-222c-51 0-94 42-94 94 0 51 43 93 94 93 51 0 94-42 94-93 0-52-43-94-94-94z m158 175l-32 0c-7 0-11 4-11 10 0 7 4 11 11 11l32 0c6 0 11-4 11-11 0-6-5-10-11-10z"/>
<glyph glyph-name="hidden" unicode="&#57345;" d="M514 0c0 0-19 81-75 139l45 72c0 0-27 34-83 56 51 27 83 59 83 89 0 41-62 64-151 62-22 39-66 100-96 94-39-9-28-17-54-26-27-8-34 3-59-8-24-9-28-79-28-117-58-30-96-64-96-96 0-24 21-43 58-52-37-25-58-44-58-44 0 0 41-43 68-75-27-26-51-58-68-94z m-273 213c32 7 62 15 90 24-15-22-37-51-77-62-36-9-41 21-64 19-21-2-15-25-41-25-27 0-40 25-44 34 38-2 85 0 136 10z"/>
<glyph glyph-name="reboot" unicode="&#57362;" d="M256 258c-13 0-21 9-21 21l0 160c0 13 8 22 21 22 13 0 21-9 21-22l0-160c0-12-8-21-21-21z m139 100c-9 9-22 11-30 3-9-9-11-22-2-30 21-26 34-58 34-92 0-79-64-141-141-141-77 0-141 64-141 141 0 26 7 49 19 70l11-44c2-9 9-13 17-13 2 0 2 0 4 0 9 2 15 10 13 21l-21 85c-2 9-11 15-21 13l-86-21c-8-2-15-11-13-21 3-9 11-15 22-13l36 8c-15-25-21-55-21-87 0-103 83-184 183-184 100 0 184 84 184 184-3 47-17 89-47 121z"/>
<glyph glyph-name="ap-cluster" unicode="&#57436;" d="M320 277l-256 0c-23 0-43-19-43-42l0-86c0-23 20-42 43-42l21 0 0-22 43 0 0 22 128 0 0-22 43 0 0 22 21 0c23 0 43 19 43 42l0 86c0 23-20 42-43 42z m0-128l-256 0 0 86 256 0z m64 192l-256 0c-23 0-43-19-43-42l256 0c24 0 43-20 43-43l0-85c23 0 43 19 43 42l0 86c0 23-20 42-43 42z m64 64l-256 0c-23 0-43-19-43-42l256 0c24 0 43-20 43-43l0-85c23 0 43 19 43 42l0 86c0 23-20 42-43 42z"/>
<glyph glyph-name="ap-icx" unicode="&#57437;" d="M469 299l-42 0 0-43 42 0 0-149-426 0 0 149 42 0 0 43-42 0c-24 0-43-20-43-43l0-149c0-24 19-43 43-43l42 0 0-43 64 0 0 43 214 0 0-43 64 0 0 43 42 0c24 0 43 19 43 43l0 149c0 23-19 43-43 43z m-85 213l-256 0c-11 0-21-11-21-21l0-171c0-11 10-21 21-21l43 0 0-22 42 0 0-21 86 0 0 21 42 0 0 22 43 0c11 0 21 10 21 21l0 171c0 10-10 21-21 21z m-171-128l-42 0 0 85 42 0z m64 0l-42 0 0 85 42 0z m64 0l-42 0 0 85 42 0z"/>
<glyph glyph-name="revealed" unicode="&#57438;" d="M407 331l-29-30c32-22 59-45 79-64-43-34-118-88-201-88-11 0-19 0-30 2l-34-36c21-6 43-8 64-8 141 0 256 128 256 128 0 0-43 53-105 96z m-151-160c60 0 107 47 107 106 0 2 0 7 0 9l-116-115c3 0 7 0 9 0z m230 315c-10 11-29 11-40 0l-115-115c-26 9-49 13-75 13-141 0-256-149-256-149 0 0 43-47 109-86l-83-83c-11-11-11-30 0-40 6-7 12-9 21-9 8 0 15 2 21 9l418 418c11 13 11 30 0 42z m-268-145c15 0 25-10 25-25 0-15-10-26-25-26-15 0-26 11-26 26 0 15 11 25 26 25z m-158-104c21 23 55 53 98 77-7-11-9-24-9-37 0-25 9-47 22-64l-32-32c-32 20-60 41-79 56z"/>
<glyph glyph-name="ap-lte-1" unicode="&#57361;" d="M469 107l-426 0 0 149 149 0 0 43-149 0c-24 0-43-20-43-43l0-149c0-24 19-43 43-43l42 0 0-43 64 0 0 43 214 0 0-43 64 0 0 43 42 0c24 0 43 19 43 43l0 106-43 0z m-21 384l0-235 64 0 0 235z m-43-235l0 171-64 0 0-171z m-106 107l-64 0 0-107 64 0z"/>
<glyph glyph-name="ap-wifi-1" unicode="&#57440;" d="M43 425l38-39c45 45 107 73 175 73 68 0 130-28 175-73l38 39c-55 53-130 87-213 87-83 0-158-34-213-87z m64-64l38-39c28 30 66 47 111 47 45 0 83-17 113-47l36 39c-38 38-91 61-149 61-58 0-111-23-149-61z m62-62l87-88 87 88c-23 21-53 34-87 34-34 0-64-13-87-34z m300 0l-85 0 0-43 85 0 0-149-426 0 0 149 85 0 0 43-85 0c-24 0-43-20-43-43l0-149c0-24 19-43 43-43l42 0 0-43 64 0 0 43 214 0 0-43 64 0 0 43 42 0c24 0 43 19 43 43l0 149c0 23-19 43-43 43z"/>
<glyph glyph-name="network-icx" unicode="&#57441;" d="M427 427l-342 0c-23 0-42-20-42-43l0-171c0-23 19-42 42-42l43 0 0-43 64 0 0-43 128 0 0 43 64 0 0 43 43 0c23 0 42 19 42 42l0 171c0 23-19 43-42 43z m-278-128l-42 0 0 85 42 0z m86 0l-43 0 0 85 43 0z m85 0l-43 0 0 85 43 0z m85 0l-42 0 0 85 42 0z"/>
<glyph glyph-name="network-lte" unicode="&#57442;" d="M85 256l86 0 0-171-86 0z m128 85l86 0 0-256-86 0z m128 86l86 0 0-342-86 0z"/>
<glyph glyph-name="network-wifi" unicode="&#57443;" d="M0 333l45-45c53 53 128 85 209 85 81 0 156-32 209-85l49 45c-66 64-156 104-256 104-100 0-190-40-256-104z m77-77l45-45c34 34 81 56 134 56 53 0 100-22 134-56l45 45c-47 45-109 75-179 75-70 0-134-28-179-75z m74-75l105-104 105 104c-28 26-64 43-105 43-41 0-77-17-105-43z"/>
<glyph glyph-name="router" unicode="&#57444;" d="M256 491c-130 0-235-105-235-235 0-130 105-235 235-235 130 0 235 105 235 235 0 130-105 235-235 235z m-51-348c10 0 17-6 17-17 0-11-7-17-17-17l-83 0c-5 0-9 2-13 4-2 4-4 9-4 13l4 83c0 4 2 9 4 13 4 4 9 4 13 4 4 0 8-2 13-4 4-4 6-9 6-13l0-45 58 58c2 2 6 4 12 4 7 0 9-2 13-4 2-2 5-7 5-13 0-2-3-8-5-15l-55-53z m19 149c-4-4-9-6-15-6l-83 4c-4 0-9 2-13 4-2 5-4 9-4 13 0 7 2 11 6 13 2 2 7 4 13 4l38 0-55 54c-2 2-4 6-4 12 0 5 2 9 4 11 8 9 17 9 23 0l58-58 0 45c0 11 4 17 17 17 11 0 17-6 17-17l4-83c0-6-2-11-6-13z m175-160c2-2 4-6 4-13 0-6-2-8-4-12-2-2-6-5-13-5-2 0-8 3-15 5l-53 55 2-38c0-11-6-17-17-17-11 0-17 6-17 17l0 83c0 4 2 8 4 13 4 2 9 4 13 4l83-4c4 0 9-2 13-5 4-4 4-8 4-12 0-5-2-9-4-13-4-4-9-7-13-7l-45 0z m4 171c0-4-2-9-4-13-4-4-9-6-13-6-6 0-11 2-13 6-2 2-4 7-4 13l0 38-53-55c-2-2-7-4-13-4-4 0-9 2-11 4-8 8-8 17 0 23l58 58-45 0c-11 0-17 6-17 17 0 11 6 17 17 17l83 4c7 0 11-2 13-4 4-4 6-8 6-15z"/>
<glyph glyph-name="video-camera" unicode="&#57347;" d="M493 373l-88-51 0 41c0 36-27 64-64 64l-277 0c-34 0-64-28-64-64l0-214c0-34 30-64 64-64l277 0c37 0 64 30 64 64l0 41 88-51c10-7 19 0 19 10l0 214c0 10-9 17-19 10z"/>
<glyph glyph-name="topology" unicode="&#57446;" d="M469 192l-21 0 0 43c0 36-28 64-64 64l-107 0 0 42 22 0c12 0 21 9 21 22l0 64c0 12-9 21-21 21l-86 0c-12 0-21-9-21-21l0-64c0-13 9-22 21-22l22 0 0-42-107 0c-36 0-64-28-64-64l0-43-21 0c-13 0-22-9-22-21l0-64c0-13 9-22 22-22l85 0c13 0 21 9 21 22l0 64c0 12-8 21-21 21l-21 0 0 43c0 12 8 21 21 21l107 0 0-64-22 0c-12 0-21-9-21-21l0-64c0-13 9-22 21-22l86 0c12 0 21 9 21 22l0 64c0 12-9 21-21 21l-22 0 0 64 107 0c13 0 21-9 21-21l0-43-21 0c-13 0-21-9-21-21l0-64c0-13 8-22 21-22l85 0c13 0 22 9 22 22l0 64c0 12-9 21-22 21z"/>
<glyph glyph-name="crown-empty" unicode="&#57346;" d="M262 348l39-81 8-17 20 6 91 34-47-128-222 0-46 128 91-34 19-6 9 17 38 81m0 49l-57-120-135 49 67-185 251 0 66 185-134-49z"/>
<glyph glyph-name="crown-full" unicode="&#57350;" d="M205 277l57 120 58-120 137 49-69-183-251 0-67 183z"/>
<glyph glyph-name="icx-switch-stack" unicode="&#57449;" d="M469 448l-426 0c-11 0-22-11-22-21l0-342c0-10 11-21 22-21l426 0c11 0 22 11 22 21l0 342c0 10-11 21-22 21z m0-363l-426 0 0 86 426 0z m0 128l-426 0 0 86 426 0z m0 128l-426 0 0 86 426 0z m-85 64l64 0 0-21-64 0z m-85 0l64 0 0-21-64 0z m85-128l64 0 0-21-64 0z m-85 0l64 0 0-21-64 0z m85-128l64 0 0-21-64 0z m-85 0l64 0 0-21-64 0z"/>
<glyph glyph-name="lightening" unicode="&#57450;" d="M213 405l-85-192 107 22-64-171 213 256-128-21 64 128z"/>
<glyph glyph-name="telephone" unicode="&#57451;" d="M427 149c6 7 6 15 0 22l-62 62c-7 6-15 6-22 0 0 0-36-37-36-37-8-8-42 13-77 47-32 34-53 68-44 77 0 0 36 36 36 36 6 7 6 15 0 22l-64 61c-7 7-15 7-21 0l-26-25c0 0-2 0-2-2-43-43-13-141 68-222 81-81 179-111 222-68 0 0 0 0 2 2z"/>
<glyph glyph-name="warning-full" unicode="&#57452;" d="M427 130l-150 277c-4 11-10 15-21 15-11 0-17-4-21-12l-152-278c-6-10-6-19 0-30 4-10 13-17 22-17l300 0c9 0 15 7 24 17 2 9 2 20-2 28z m-156 24c0-5-2-5-4-5l-24 0c-2 0-4 2-4 5l0 29c0 3 2 5 4 5l24 0c2 0 4-2 4-5z m0 64c0-5-2-7-4-7l-24 0c-2 0-4 2-4 7l-2 76 2 3 30 0c2 0 2 0 2-3z"/>
<glyph glyph-name="port" unicode="&#57453;" d="M0 469l0-426 512 0 0 426z m469-256c0-23-19-42-42-42l-43 0 0-43-64 0 0-43-128 0 0 43-64 0 0 43-43 0c-23 0-42 19-42 42l0 171c0 23 19 43 42 43l342 0c23 0 42-20 42-43z"/>
<glyph glyph-name="fan" unicode="&#57454;" d="M431 431c-36 36-96 64-160 0-47-47-49-160 0-160 32 0 30 21 64 32 30 8 79-15 111 15 28 28 21 79-15 113z m-350 0c-36-36-64-96 0-160 47-47 160-49 160 0 0 32-21 30-32 64-11 32 15 81-17 113-26 26-77 19-111-17z m0-350c36-36 96-64 160 0 47 47 49 160 0 160-32 0-30-21-64-32-32-11-81 15-113-17-26-26-19-77 17-111z m350 0c36 36 64 96 0 160-47 47-160 49-160 0 0-32 21-30 32-64 8-30-15-79 15-111 28-28 79-21 113 15z"/>
<glyph glyph-name="network-generic" unicode="&#57455;" d="M395 36c-41 0-75 34-75 75 0 13 2 23 9 32l-75 64-73-62c7-11 9-21 9-34 0-41-34-75-75-75-40 0-74 34-74 75 0 40 34 75 74 75 11 0 22-3 30-7l83 71 0 66c-30 10-53 40-53 74 0 43 34 79 79 79 43 0 79-34 79-79 0-34-24-64-54-74l0-69 84-70c10 4 21 6 32 6 40 0 74-34 74-74 0-41-34-73-74-73z"/>
<glyph glyph-name="ap-generic" unicode="&#57456;" d="M469 192l0 213-405 0c0 24 19 43 43 43l362 0c24 0 43-19 43-43l0-170c0-24-19-43-43-43z m-21 149l0-170c0-24-19-43-43-43l-42 0 0-64-64 0 0 64-150 0 0-64-64 0 0 64-42 0c-24 0-43 19-43 43l0 170c0 24 19 43 43 43l362 0c24 0 43-19 43-43z m-43 2l-362 0 0-172 362 0z m-162-53c15 0 28-13 28-28 0-15-13-27-28-27-15 0-28 12-28 27 0 15 11 28 28 28z m92 0c15 0 28-13 28-28 0-15-13-27-28-27-15 0-28 12-28 27 0 15 11 28 28 28z"/>
<glyph glyph-name="voip" unicode="&#57457;" d="M384 107c6 6 6 15 0 21l-62 62c-6 6-15 6-21 0 0 0-36-36-36-36-9-9-43 12-77 47-32 34-54 68-45 76 0 0 36 37 36 37 7 6 7 15 0 21l-64 62c-6 6-15 6-21 0l-26-26c0 0-2 0-2-2-43-43-13-141 68-222 81-81 180-111 222-68 0 0 0 0 2 2z m32 168c-4 4-6 9-4 13 2 38-11 73-43 105-30 29-64 42-102 42-9 0-15 7-17 17 0 9 6 15 17 17 49 0 91-17 126-53 36-36 53-79 53-128 0-9-7-15-17-17-7 0-11 2-13 4z m-47 17c0 28-11 51-30 71-19 19-42 30-70 30-7 0-11-3-13-5-2-2-4-8-6-13 2-12 6-19 17-21 17 0 32-6 44-19 13-13 20-28 20-45 0-11 6-17 17-17 6 0 10 2 13 6 6 3 8 7 8 13z m-113-47c-9 0-17 5-26 11-6 6-10 15-10 26 0 10 4 17 10 25 7 7 15 11 24 11 8 0 17-4 23-11 7-6 11-15 11-23 0-9-2-17-11-24-2-13-10-15-21-15z"/>
<glyph glyph-name="life-saver" unicode="&#57458;" d="M258 497c-130 0-235-104-235-235 0-130 105-234 235-234 130 0 235 104 235 234 0 131-107 235-235 235z m-121-235c0 67 53 122 121 122 68 0 122-55 122-122 0-66-56-121-122-121-66 0-121 53-121 121z m253-53c7 17 11 34 11 53 0 20-4 39-11 56l64 28c11-26 17-54 17-81 0-28-6-56-14-82z m-53 252l-28-64c-15 4-32 8-51 8-19 0-38-4-55-10l-28 64c26 10 53 17 81 17 30 0 58-7 81-15z m-277-120l64-27c-7-17-11-35-11-54 0-19 4-38 11-55l-64-28c-11 26-17 53-17 81 2 32 6 60 17 83z m117-277l28 64c17-6 34-11 53-11 19 0 39 5 56 11l27-64c-25-11-53-17-81-17-30 2-57 8-83 17z"/>
<glyph glyph-name="any-benefit" unicode="&#57459;" d="M48 293l288 0 0-143c0-1 0-1 0-2l0-35-288 0z m64 53l288 0 0-180-32 0 0 142c0 9-7 16-16 16l-240 0z m64 52l288 0 0-179-32 0 0 142c0 9-7 16-16 16l-240 0z m-18 32c-8-1-14-8-14-16l0-37-48 0c-1 0-1 0-2 0-8-1-14-7-14-16l0-37-48 0c-1 0-1 0-2 0-8-1-14-7-14-16l0-211c0-9 7-16 16-16l320 0c9 0 16 6 16 16l0 36 48 0c9 0 16 7 16 16l0 38 48 0c9 0 16 7 16 16l0 211c0 9-7 16-16 16l-320 0c-1 0-1 0-2 0z"/>
<glyph glyph-name="ap-group" unicode="&#57460;" d="M235 158l-77 0 0-156 77 0z m2 77c0-22-17-39-39-39-21 0-38 17-38 39 0 21 17 38 38 38 22 0 39-17 39-38z m-103-62c-17 17-25 38-25 62 0 23 8 47 25 62l15-13c-12-13-19-30-19-49 0-20 7-37 19-49z m126 0l-15 15c26 25 26 70 0 96l15 15c34-37 34-92 0-126z m-151-28c-49 49-49 130 0 179l15-15c-41-40-41-108 0-149z m177 0l-15 15c19 19 32 47 32 75 0 27-11 55-32 74l15 15c23-23 36-55 36-89 2-34-11-66-36-90z m-203-26c-64 64-64 167 0 229l15-15c-55-56-55-145 0-201z m228 0l-12 15c27 28 40 62 40 101 0 38-15 72-40 100l15 15c29-30 47-71 47-115 0-45-18-84-50-116z m62 301c0-21-17-38-38-38-21 0-38 17-38 38 0 21 17 39 38 39 21 0 38-18 38-39z m-102-62c-34 35-34 90 0 126l15-15c-26-25-26-70 0-96z m126 0l-15 15c13 13 19 30 19 49 0 20-6 37-19 49l15 15c17-17 25-38 25-61 0-28-8-50-25-67z m28-25l-15 15c40 40 40 109 0 149l15 15c49-51 49-130 0-179z m-180 0c-23 23-36 55-36 89 0 35 13 67 36 90l15-15c-19-19-32-47-32-75 0-27 11-55 32-74z"/>
<glyph glyph-name="kpi" unicode="&#57461;" d="M480 489c0 2 0 2 0 4 0 2 0 2 0 2 0 0 0 2-2 2 0 0 0 2-2 2 0 0-2 2-2 2 0 0-3 2-3 2 0 0-2 3-2 3 0 0-2 0-2 0 0 0-2 0-2 0-2 0-2 0-4 0l-83 0c-13 0-22-11-22-22 0-10 11-21 22-21l27 0-108-109-52 51c-4 5-10 7-17 7-6 0-15 2-19-2l-171-171c-8-9-8-26 0-34 5-4 11-7 17-7 7 0 13 3 18 7l151 151 53-49c9-8 26-8 34 0l124 124 0-26c0-12 11-21 22-21 10 0 21 11 21 21z m-181-263l-86 0c-12 0-21-8-21-21l0-182c0-12 9-21 21-21l86 0c12 0 21 9 21 21l0 182c0 13-9 21-21 21z m-165-75l-81 0c-12 0-21-8-21-21l0-107c0-12 9-21 21-21l81 0c13 0 22 9 22 21l0 107c0 13-9 21-22 21z m327 150l-86 0c-12 0-21-9-21-22l0-256c0-12 9-21 21-21l86 0c13 0 21 9 21 21l0 256c0 13-11 22-21 22z"/>
<glyph glyph-name="ap-single" unicode="&#57462;" d="M213 431c0-6-2-11-6-11-45-42-66-96-68-162 0-64 21-117 64-162 6-6 6-15 0-26-7-6-17-6-26 0-51 52-77 113-77 188 0 71 26 132 79 186 9 6 15 6 26 0 6-2 8-9 8-13z m54-60c0-6-2-10-7-13-30-25-42-59-42-102 0-41 12-75 40-102 7-7 7-15 0-26-6-6-15-6-25 0-35 34-52 77-52 128 0 49 17 94 54 128 6 6 15 6 25 0 5-4 7-9 7-13z m21-42c-19-20-30-43-30-71 0-28 11-51 30-70 4-5 9-7 13-7 4 0 8 2 13 7 6 8 6 17 0 25-13 13-20 28-20 45 0 17 7 32 20 45 6 8 6 17 0 26-5 4-9 6-13 6-4-2-9-4-13-6z m111-47c6-7 11-15 11-26 0-11-5-17-11-26-6-8-15-10-26-10-10 0-17 4-23 10-7 7-9 17-9 28 0 11 2 17 9 26 6 8 15 10 23 10 11-2 20-6 26-12z"/>
<glyph glyph-name="arrow-corner" unicode="&#57463;" d="M412 198l0 207c0 28-24 52-51 52l-308 0 0-101 258 0 0-158-72 0 122-121 121 121z"/>
<glyph glyph-name="pie" unicode="&#57464;" d="M279 469l0-192 190 0c-10 101-89 182-190 192z m-21-234c-13 0-21 8-21 21l0 213c-109-10-194-102-194-213 0-117 96-213 213-213 111 0 203 85 213 192z"/>
<glyph glyph-name="signal-down" unicode="&#57465;" d="M83 213c7 0 11-2 11-6 43-45 96-66 162-68 64 0 117 21 162 64 7 6 15 6 26 0 6-7 6-17 0-26-51-51-113-77-188-77-70 0-132 26-186 79-6 9-6 15 0 26 3 6 7 8 13 8z m58 56c6 0 10-2 13-7 25-29 59-42 102-42 41 0 75 13 102 40 7 7 15 7 26 0 6-6 6-15 0-25-34-34-77-52-128-52-49 0-94 18-128 54-6 6-6 15 0 25 4 5 9 7 13 7z m45 21c19-19 42-30 70-30 28 0 51 11 70 30 5 4 7 9 7 13 0 4-2 8-7 13-8 6-17 6-25 0-13-13-28-19-45-19-17 0-32 6-45 19-8 6-17 6-25 0-5-5-7-9-7-13 0-4 2-9 7-13z m44 111c7 6 15 11 26 11 11 0 17-5 26-11 6-6 10-15 10-26 0-10-4-17-10-23-7-6-15-9-26-9-11 0-17 3-26 9-6 6-10 15-10 23 2 11 4 20 10 26z"/>
<glyph glyph-name="keyboard" unicode="&#57466;" d="M437 393c9 0 17-3 24-9 6-6 8-15 8-23l0-195c0-8-2-17-8-23-7-6-15-9-24-9l-364 0c-9 0-18 3-24 9-6 6-11 13-11 23l0 195c0 8 3 17 9 23 6 6 15 9 23 9z m7-227l0 195c0 2 0 2-2 4-3 2-3 2-5 2l-364 0c-3 0-3 0-5-2-2-2-2-4-2-4l0-195c0-2 0-2 2-4 2-2 2-2 5-2l366 0c3 0 3 0 5 2 0 0 0 2 0 4z m-301 143c0-2 0-4-2-6-2-2-4-2-7-2l-19 0c-2 0-4 0-6 2 0 2-2 4-2 6l0 20c0 2 0 4 2 6 2 2 4 2 6 2l19 0c3 0 5 0 7-2 2-2 2-4 2-6z m0-111c0-2 0-4-2-6-2-2-4-2-7-2l-19 0c-2 0-4 0-6 2 0 2-2 4-2 6l0 20c0 2 0 4 2 6 2 2 4 2 6 2l19 0c3 0 5 0 7-2 2-2 2-4 2-6z m32 56c0-2 0-4-2-7-2-2-4-2-7-2l-19 0c-2 0-4 0-6 2-2 3-2 5-2 7l0 19c0 2 0 4 2 6 2 3 4 3 6 3l19 0c3 0 5 0 7-3 2-2 2-4 2-6z m32 55c0-2 0-4-2-6-2-2-2-2-4-2l-20 0c-2 0-4 0-6 2-2 2-2 4-2 6l0 20c0 2 0 4 2 6 2 2 4 2 6 2l20 0c2 0 4 0 6-2 2-2 2-4 2-6l0-20z m128-106c0-2 0-5-2-7-2-2-4-2-7-2l-145 0c-2 0-4 0-6 2-2 2-2 5-2 7l0 10c0 2 0 5 2 7 2 2 4 2 6 2l145 0c3 0 5 0 7-2 2-2 2-5 2-7z m-94 51c0-2 0-4-2-7-2-2-4-2-6-2l-20 0c-2 0-4 0-6 2-2 3-2 5-2 7l0 19c0 2 0 4 2 6 2 3 4 3 6 3l20 0c2 0 4 0 6-3 2-2 2-4 2-6z m32 55c0-2 0-4-2-6-2-2-4-2-6-2l-20 0c-2 0-4 0-6 2-2 2-2 4-2 6l0 20c0 2 0 4 2 6 2 2 4 2 6 2l20 0c2 0 4 0 6-2 2-2 2-4 2-6z m32-55c0-2 0-4-2-7-2-2-4-2-6-2l-20 0c-2 0-4 0-6 2-2 3-2 5-2 7l0 19c0 2 0 4 2 6 2 3 4 3 6 3l20 0c2 0 4 0 6-3 2-2 2-4 2-6z m32 55c0-2 0-4-2-6-2-2-4-2-6-2l-20 0c-2 0-4 0-6 2-2 2-2 4-2 6l0 20c0 2 0 4 2 6 2 2 4 2 6 2l20 0c2 0 4 0 6-2 2-2 2-4 2-6z m32-55c0-2 0-4-2-7-2-2-4-2-6-2l-20 0c-2 0-4 0-6 2-2 3-2 5-2 7l0 19c0 2 0 4 2 6 2 3 4 3 6 3l20 0c2 0 4 0 6-3 2-2 2-4 2-6z m32 55c0-2 0-4-2-6-2-2-4-2-6-2l-20 0c-2 0-4 0-6 2-2 2-2 4-2 6l0 20c0 2 0 4 2 6 2 2 4 2 6 2l20 0c2 0 4 0 6-2 2-2 2-4 2-6z m0-111c0-2 0-4-2-6-2-2-4-2-6-2l-20 0c-2 0-4 0-6 2-2 2-2 4-2 6l0 20c0 2 0 4 2 6 2 2 4 2 6 2l20 0c2 0 4 0 6-2 2-2 2-4 2-6z"/>
<glyph glyph-name="legend-circle" unicode="&#57351;" d="M512 299l-132 0c-17 51-66 87-124 87-58 0-107-36-124-87l-132 0 0-86 132 0c17-51 66-87 124-87 58 0 107 36 124 87l132 0z"/>
<glyph glyph-name="legend-rhombus" unicode="&#57352;" d="M512 299l-160 0-96 96-96-96-160 0 0-86 160 0 96-96 96 96 160 0z"/>
<glyph glyph-name="legend-square" unicode="&#57353;" d="M512 299l-134 0 0 79-244 0 0-79-134 0 0-86 134 0 0-79 244 0 0 79 134 0z"/>
<glyph glyph-name="legend-triangle" unicode="&#57354;" d="M512 299l-211 0-45 79-45-79-211 0 0-86 162 0-38-64 264 0-38 64 162 0z"/>
<glyph glyph-name="legend-x" unicode="&#57355;" d="M512 299l-171 0 47 47-42 42-90-89-90 89-42-42 47-47-171 0 0-86 171 0-47-47 42-42 90 89 90-89 42 42-47 47 171 0z"/>
<glyph glyph-name="wired" unicode="&#57472;" d="M354 203c-25 0-49-17-57-39l-122 0 0 122c23 8 38 30 38 57 0 35-27 64-64 64-36 0-64-27-64-64 0-25 17-49 39-57l0-145c0-13 10-24 23-24l145 0c9-23 32-38 58-38 34 0 64 28 64 64 0 36-26 60-60 60z"/>
<glyph glyph-name="collapsed" unicode="&#57473;" d="M339 149l-166 0c-26 0-45 20-45 45l0 167c0 25 19 44 45 44l168 0c24 0 43-19 43-44l0-169c0-23-19-43-45-43z m-166 235c-13 0-24-11-24-23l0-169c0-11 11-21 24-21l168 0c13 0 24 10 24 23l0 167c-2 12-13 23-26 23z m136-96l-42 0 0 43-22 0 0-43-42 0 0-21 42 0 0-43 22 0 0 43 42 0z"/>
<glyph glyph-name="expanded" unicode="&#57474;" d="M339 128l-166 0c-26 0-45 19-45 45l0 166c0 26 19 45 45 45l168 0c24 0 43-19 43-45l0-168c0-24-19-43-45-43z m-166 235c-13 0-24-11-24-24l0-168c0-11 11-22 24-22l168 0c13 0 24 11 24 24l0 166c-2 13-13 24-26 24z m30-96l106 0 0-22-106 0z"/>
<glyph glyph-name="flag" unicode="&#57475;" d="M427 375c-49 15-73 30-96 45-17 11-37 24-64 32-22 7-45 11-73 11-38 0-68-9-70-9l-5 0 0 5c0 17-14 32-32 32-17 0-29-15-29-32l0-408c0-17 15-32 32-32 17 0 32 15 32 32l0 190 23 13c15 8 62 32 90 36 19 2 34 2 53 2 9 0 15 0 23 0 9 0 20 0 28 0 47 0 103 24 107 51 2 13-2 28-19 32z m-308 37c5-11 13-28 13-47 2-19-6-47-13-66z"/>
<glyph glyph-name="move-down" unicode="&#57476;" d="M73 190l149-149c2-3 4-5 6-7 0 0 2-2 2-2 3 0 3-2 5-2 2 0 2 0 4-2 2 0 2 0 4-2 7-3 11-3 17 0 2 0 2 0 5 2 2 0 2 0 4 2 2 0 2 2 4 2 0 0 2 0 2 2 2 2 4 4 7 7l149 149c17 17 17 43 0 60-9 8-19 12-30 12-11 0-21-4-30-12l-77-77 0 264c0 24-19 43-42 43-24 0-43-19-43-43l0-264-77 77c-8 8-19 12-30 12-10 0-21-4-29-12-18-17-18-45 0-60z"/>
<glyph glyph-name="move-up" unicode="&#57477;" d="M433 318l-149 149c-2 2-5 4-7 7 0 0-2 2-2 2-2 0-2 2-4 2-2 0-2 0-4 2-2 0-2 0-5 2-6 2-10 2-17 0-2 0-2 0-4-2-2 0-2 0-4-2-2 0-2-2-4-2 0 0-3 0-3-2-2-3-4-5-6-7l-149-149c-17-17-17-43 0-60 8-8 19-13 30-13 10 0 21 5 29 13l77 77 0-265c0-23 19-42 43-42 23 0 43 19 43 42l0 265 76-77c9-8 20-13 30-13 11 0 22 5 30 13 17 15 17 43 0 60z"/>
<glyph glyph-name="drag-to-expand" unicode="&#57478;" d="M0 420l420-420 92 0-512 512z m239-420l92 0-331 331 0-92z m-179 0l89 0-149 149 0-89z"/>
<glyph glyph-name="critical" unicode="&#57479;" d="M393 390c-39 39-84 58-135 58-53 0-98-19-136-58-39-36-58-83-58-136 0-53 19-98 58-135 38-36 83-55 136-55 53 0 98 19 135 55 36 37 55 84 55 135 0 53-19 98-55 136z m-60-234l-81 79-79-79-17 17 79 79-77 79 19 17 77-77 77 77 17-17-77-77 79-79z"/>
<glyph glyph-name="indeterminate" unicode="&#57480;" d="M393 390c-39 39-84 58-135 58-53 0-98-19-136-58-39-36-58-83-58-136 0-53 19-98 58-135 38-36 83-55 136-55 53 0 98 19 135 55 36 37 55 84 55 135 0 53-19 98-55 136z m-124-253c-4-5-11-7-15-7-7 0-11 2-15 7-4 4-6 10-6 17 0 6 2 12 6 17 4 4 8 6 15 6 6 0 11-2 15-6 4-5 6-11 6-17 0-9-2-13-6-17z m45 168c-3-6-7-13-11-19-4-7-9-13-13-17-4-7-8-13-13-17-4-7-6-13-8-19-2-7-2-15-2-24l-28 0c-2 11-2 19 0 26 2 8 4 15 8 21 5 6 9 13 13 19 5 7 9 11 13 17 4 7 9 11 11 17 2 7 4 13 4 20 0 10-2 19-9 25-6 4-14 9-25 9-9 0-15-2-24-7-6-4-12-8-19-15l-19 15c9 9 17 17 28 22 10 6 21 8 36 8 19 0 34-4 47-15 11-10 17-25 17-42 0-9-2-18-6-24z"/>
<glyph glyph-name="minor" unicode="&#57481;" d="M427 130l-150 277c-4 11-10 15-21 15-11 0-17-4-21-12l-152-278c-6-10-6-19 0-30 4-10 13-17 22-17l300 0c9 0 15 7 24 17 2 9 2 20-2 28z m-156 24c0-5-2-5-4-5l-24 0c-2 0-4 2-4 5l0 29c0 3 2 5 4 5l24 0c2 0 4-2 4-5z m0 64c0-5-2-7-4-7l-24 0c-2 0-4 2-4 7l-2 76 2 3 30 0c2 0 2 0 2-3z"/>
<glyph glyph-name="spot" unicode="&#57482;" d="M454 339c0 7-4 11-8 13-4 2-11 2-15-2 0 0-43-32-113-32-24 0-43 6-62 13 11 25 19 51 19 70 0 56-45 100-100 100-56 0-100-44-100-100 0-15 4-34 10-51-34-9-57-24-59-24-5-4-7-8-7-15l19-260c0-6 5-10 9-13 4-2 11-2 15 0 0 0 38 26 89 26 30 0 56-13 84-26 30-12 59-27 96-27 2 0 4 0 6 0 79 2 130 49 132 49 5 4 7 8 5 13z m-279 100c21 0 40-17 40-40 0-21-17-41-40-41-21 0-41 17-41 41 0 23 17 40 41 40z m160-394c-32-2-60 10-88 23-29 13-59 28-96 28-34 0-64-11-83-19l-17 226c9 4 26 13 47 17 30-64 77-130 77-130 0 0 38 53 68 111 22-9 45-15 75-15 49 0 85 13 109 23l17-230c-15-9-56-32-109-34z"/>
<glyph glyph-name="single-switch" unicode="&#57483;" d="M469 331l-426 0c-11 0-22-9-22-22l0-128c0-10 11-21 22-21l426 0c13 0 22 11 22 21l0 128c0 13-11 22-22 22z m0-150l-426 0 0 128 426 0z m-85 86l64 0 0-22-64 0z m-85 0l64 0 0-22-64 0z"/>
<glyph glyph-name="zoom1-1" unicode="&#57484;" d="M506 36l-107 107c30 36 49 83 49 134 0 118-96 214-213 214-118 0-214-96-214-214 0-117 96-213 214-213 51 0 98 17 134 49l107-107z m-442 241c0 94 77 171 171 171 94 0 170-77 170-171 0-94-76-170-170-170-94 0-171 76-171 170z m149 64l43 0 0-42-43 0z m0-85l43 0 0-43-43 0z m-85 107l0-22-21 0 0-21 21 0 0-128 43 0 0 171z m171 0l0-22-22 0 0-21 22 0 0-128 42 0 0 171z"/>
<glyph glyph-name="zoom-fit" unicode="&#57485;" d="M506 36l-107 107c30 36 49 83 49 134 0 118-96 214-213 214-118 0-214-96-214-214 0-117 96-213 214-213 51 0 98 17 134 49l107-107z m-442 241c0 94 77 171 171 171 94 0 170-77 170-171 0-94-76-170-170-170-94 0-171 76-171 170z m256 64l0-128-171 0 0 128 171 0m21 22l-213 0 0-171 213 0z"/>
<glyph glyph-name="tag" unicode="&#57486;" d="M463 190l-154 260c-6 11-17 19-30 21l-132 26c-25 4-53-11-62-36l-40-126c-4-13-2-26 4-38l154-261c6-10 15-17 27-21 5 0 9-2 11-2 9 0 15 2 24 6l181 107c11 6 17 15 21 28 4 12 2 25-4 36z m-301 213c-13-6-28-2-34 9-9 13-4 27 9 36 10 6 27 2 34-11 6-10 2-25-9-34z"/>
<glyph glyph-name="untag" unicode="&#57487;" d="M241 13c-4 0-8 0-11 2-10 2-21 11-27 21l-154 261c-6 12-8 25-4 38l40 126c9 25 34 40 62 36l130-26c13-2 24-10 30-21l154-260c13-21 6-49-15-62l-181-107c-7-6-15-8-24-8z m-104 465c-13 0-26-9-30-24l-43-125c-2-7 0-15 2-22l154-260c6-13 21-15 34-9l181 107c13 6 15 21 9 34l-152 260c-4 7-10 11-17 13l-132 26c-2 0-4 0-6 0z m12-88c-12 0-23 7-30 17-6 9-6 18-4 28 2 9 9 17 17 22 7 4 17 4 26 2 8-2 17-9 21-17 11-15 4-37-13-47-6-2-10-5-17-5z m0 49c-2 0-4 0-8-2-2-2-7-4-7-8 0-4 0-9 3-11 4-6 12-8 21-4 6 4 8 13 4 21-2 2-6 4-11 4 0 0-2 0-2 0z"/>
<glyph glyph-name="v-in-circle" unicode="&#57488;" d="M448 239c0-53-19-98-55-134-37-37-82-56-135-56-53 0-98 19-136 56-39 38-58 83-58 134 0 53 19 98 58 136 38 39 83 58 136 58 53 0 98-19 135-58 36-38 55-83 55-136z m-356 0c0-45 17-85 49-117 32-32 72-49 117-49 45 0 85 17 117 49 32 32 50 72 50 117 0 47-18 87-47 119-32 32-71 49-118 49-47 0-85-17-117-49-36-32-51-72-51-119z m115-88l-68 69 15 15 53-54 141 141 15-15z"/>
<glyph glyph-name="stacking" unicode="&#57348;" d="M382 378c-4 0-7-3-9-3-6 0-8 3-12 5-3 2-5 4-7 8-11 26-23 45-38 58-15 13-37 19-62 19-11 0-19-2-30-4-9-2-17-7-23-13-7-6-13-13-18-21-4-9-4-20-4-30 0-22 9-41 26-54 17-14 40-27 74-42 41-17 71-36 90-60 19-21 30-49 30-79 0-19-2-36-9-53-4-17-12-32-25-43-11-13-26-21-43-30-17-6-38-10-64-10-25 0-49 2-70 8-22 7-39 15-54 24-2 19-2 38-6 55-2 19-6 36-9 56 0 2 3 2 7 2 4 0 8-2 11-5 2-2 4-6 6-12 11-35 23-58 40-75 18-15 41-24 71-24 13 0 25 3 36 7 11 4 19 11 26 17 6 6 13 15 15 26 4 8 4 19 4 29 0 24-9 43-24 58-14 15-36 26-64 38-19 7-34 15-49 24-15 8-27 17-38 28-6 12-15 23-21 38-5 15-9 32-9 51 0 17 2 34 9 49 6 15 15 28 25 39 11 10 24 19 39 25 15 7 32 11 51 11 19 0 38-2 57-6 20-5 39-11 62-22 0-15 2-30 5-45 0-15 2-29 4-44z"/>
<glyph glyph-name="scan" unicode="&#57349;" d="M115 384c-13 0-21-9-21-21l0-214c0-12 8-21 21-21 13 0 22 9 22 21l0 214c0 12-9 21-22 21z m94 0c-13 0-21-9-21-21l0-214c0-12 8-21 21-21 13 0 21 9 21 21l0 214c0 12-8 21-21 21z m94 0c-13 0-21-9-21-21l0-214c0-12 8-21 21-21 13 0 21 9 21 21l0 214c0 12-8 21-21 21z m94 0c-13 0-22-9-22-21l0-214c0-12 9-21 22-21 13 0 21 9 21 21l0 214c0 12-8 21-21 21z m-290 96l-86 0c-12 0-21-9-21-21l0-86c0-12 9-21 21-21 13 0 22 9 22 21l0 64 64 0c12 0 21 9 21 22 0 12-9 21-21 21z m384 0l-86 0c-12 0-21-9-21-21 0-13 9-22 21-22l64 0 0-64c0-12 9-21 22-21 12 0 21 9 21 21l0 86c0 12-9 21-21 21z m0-320c-13 0-22-9-22-21l0-64-64 0c-12 0-21-9-21-22 0-12 9-21 21-21l86 0c12 0 21 9 21 21l0 86c0 12-9 21-21 21z m-384-85l-64 0 0 64c0 12-9 21-22 21-12 0-21-9-21-21l0-86c0-12 9-21 21-21l86 0c12 0 21 9 21 21 0 13-9 22-21 22z"/>
<glyph glyph-name="sort" unicode="&#57491;" d="M145 337l94 94c11 8 19 8 28 0l98-94c6-6 8-13 4-21-4-9-11-13-19-13l-188 0c-11 0-17 4-19 13-6 8-4 15 2 21z m222-162l-94-94c-11-8-19-8-28 0l-98 94c-6 6-8 13-4 21 4 9 11 13 19 13l190 0c11 0 17-4 19-13 4-8 2-15-4-21z"/>
<glyph glyph-name="factory-reset" unicode="&#57358;" d="M397 378c-9 8-22 10-30 2-9-9-11-22-2-30 21-26 34-58 34-92 0-79-64-141-141-141-77 0-141 64-141 141 0 26 7 49 20 71l10-45c2-9 9-13 17-13 2 0 2 0 5 0 8 2 14 11 12 21l-21 86c-2 8-11 15-21 12l-86-21c-8-2-15-11-12-21 2-9 10-15 21-13l36 8c-15-25-21-55-21-87 0-102 83-183 183-183 101 0 184 83 184 183-5 47-19 90-47 122z m-77-122c0-35-29-64-64-64-35 0-64 29-64 64 0 35 29 64 64 64 35 0 64-29 64-64z"/>
<glyph glyph-name="more" unicode="&#57493;" d="M320 427c0-36-29-64-64-64-35 0-64 28-64 64 0 35 29 64 64 64 35 0 64-29 64-64z m0-171c0-35-29-64-64-64-35 0-64 29-64 64 0 35 29 64 64 64 35 0 64-29 64-64z m0-171c0-35-29-64-64-64-35 0-64 29-64 64 0 36 29 64 64 64 35 0 64-28 64-64z"/>
<glyph glyph-name="led" unicode="&#57494;" d="M320 256c0-35-29-64-64-64-35 0-64 29-64 64 0 35 29 64 64 64 35 0 64-29 64-64z m-85 256l42 0 0-117-42 0z m-175-89l31 30 83-83-31-30z m-60-146l117 0 0-42-117 0z m59-186l83 83 30-31-83-83z m176 26l42 0 0-117-42 0z m103 25l31 30 83-83-31-30z m57 135l117 0 0-42-117 0z m-55 92l83 83 30-31-83-83z"/>
<glyph glyph-name="table-settings" unicode="&#57496;" d="M371 0l-45 0c-4 0-8 2-10 4-5 2-7 7-7 13l-4 30c-2 0-4 2-6 2l-24-17c-4-4-17-6-23 2-17 15-28 28-34 34-3 5-5 7-5 11 0 4 2 8 5 11 2 2 6 6 10 12 2 5 5 7 7 9-2 2-2 6-5 8l-29 5c-5 0-9 2-11 6-2 2-4 7-4 11l0 45c0 4 2 8 4 10 2 5 6 7 11 7l32 4c0 2 2 4 4 8-4 7-11 13-17 22-5 4-5 8-5 10 0 5 3 7 5 11 4 7 10 13 21 24 15 15 21 17 26 17 4 0 8-2 10-5l22-17c2 0 4 2 6 2 2 15 4 26 4 32 2 9 9 13 17 13l45 0c4 0 9-2 11-4 4-2 6-6 6-11l5-30c2 0 4-2 6-2l23 17c5 5 15 7 24 0 19-17 30-27 34-36 2-2 4-4 4-11 0-4-2-8-4-10-2-2-6-7-11-13-2-4-4-6-6-9 2-2 2-6 4-8l30-4c4 0 9-2 11-7 2-4 4-6 4-10l0-45c0-4-2-9-4-11-2-4-7-6-11-6l-30-5c0-2-2-4-2-8 4-6 11-13 17-21 2-5 4-9 4-13 0-4-2-9-4-13-4-4-11-13-19-21-15-15-21-17-26-17-4 0-6 2-10 4l-24 17c-2 0-4-2-6-2-2-15-4-26-4-32-7-9-13-13-22-13z m-42 21l38 0c2 5 2 15 4 34l0 7 7 2c6 2 10 4 17 6l6 3 32-24c2 2 6 4 11 11 8 8 15 15 17 19-9 11-15 19-22 26l-4 6 2 6c2 5 5 11 7 17l2 7 40 6 0 39-40 6 2 4c-2 7-4 13-9 17l-2 7 5 4c2 4 6 9 10 15 5 4 7 8 9 11-4 4-13 12-28 27l-32-23-6 2c-5 2-11 4-17 6l-7 3-6 40-39 0c-2-6-2-17-4-34l0-6-6-3c-7-2-11-4-17-6l-7-2-32 23c-2-2-6-4-10-10-9-9-15-15-17-20 8-10 14-19 21-25l4-7-4-2c-2-6-4-10-7-17l-2-6-40-7 0-38 40-6 2-7c3-6 5-10 7-17l2-6-4-7c-2-4-7-8-11-15-4-4-6-8-8-10 4-4 12-13 27-28l32 24 7-3c4-2 10-4 17-6l6-2z m108 261c-2-3 0 0 0 0z m-89-180c-17 0-32 7-43 17-13 13-17 28-17 43 0 17 6 32 17 43 13 13 28 17 43 17 17 0 32-7 42-17 13-13 17-28 17-43 0-17-6-32-17-43-10-10-25-17-42-17z m0 103c-11 0-22-4-28-13-9-9-13-17-13-28 0-10 4-21 13-27 9-9 17-13 28-13 10 0 21 4 27 13 9 8 13 17 13 27 0 11-4 22-13 28-6 9-17 13-27 13z m47 307l-384 0c-7 0-11-4-11-11l0-320c0-6 4-10 11-10l147 0c6 0 11 4 11 10 0 7-5 11-11 11l-9 0 0 85 30 0c7 0 11 5 11 11 0 6-4 11-11 11l-30 0 0 85 107 0 0-43c0-6 4-10 11-10 6 0 10 4 10 10l0 43 107 0 0-43c0-6 4-10 11-10 6 0 10 4 10 10l0 160c0 7-4 11-10 11z m-267-21l0-86-107 0 0 86z m0-299l-107 0 0 85 107 0z m0 107l-107 0 0 85 107 0z m21 106l0 86 107 0 0-86z m128 0l0 86 107 0 0-86z"/>
<glyph glyph-name="wifi-wired-clients" unicode="&#57356;" d="M476 320l-113 0 0 149c0 5-7 11-11 15-4 5-9 7-13 7l-320 0c-4 0-8-2-13-7-4-4-6-10-6-15l0-236c0-5 2-9 6-13 5-5 9-7 13-7l109 0 0-21-64 0 0-21 213 0 0 21-64 0 0 21 86 0 0-177c0-19 17-36 36-36l141 0c19 0 36 17 36 36l0 248c0 19-17 36-36 36z m-88-55c2 4 7 8 11 10 2 0 4 2 4 2 4 2 11 0 15-2 4-2 9-8 11-15 2-8-4-17-11-21-8-4-17-2-23 4-2 2-5 4-5 9 0 2 0 2 0 6-2 4-2 4-2 7z m0-54c2 4 7 9 11 11 2 0 4 2 4 2 4 2 11 0 15-2 4-2 9-9 11-15 2-9-4-17-11-21-8-5-17-3-23 4-2 2-5 4-5 8 0 3 0 3 0 7-2 4-2 4-2 6z m0-51c2 4 7 9 11 11 2 0 4 2 4 2 4 2 11 0 15-2 4-2 9-9 11-15 2-9-4-17-11-22-8-4-17-2-23 5-2 2-5 4-5 8 0 2 0 2 0 7-2 2-2 4-2 6z m-40 115c2 0 4 2 4 2 4 2 11 0 15-2 4-2 8-8 11-15 2-8-5-17-11-21-9-4-17-2-24 4-2 2-4 4-4 9 0 2 0 2 0 6 0 4 0 4 0 7 0 4 4 8 9 10z m30-68c2-9-5-17-11-21-9-5-17-3-24 4-2 2-4 4-4 8 0 3 0 3 0 7 0 4 0 4 0 6 2 4 7 9 11 11 2 0 4 2 4 2 4 2 11 0 15-2 4-2 9-9 9-15z m-79 77l0-54-278 3 0 236 320 0 0-149c-19-2-42-17-42-36z m68-150c-9-4-17-2-24 5-2 2-4 4-4 8 0 2 0 2 0 7 0 4 0 4 0 6 2 4 7 9 11 11 2 0 4 2 4 2 4 2 11 0 15-2 4-2 9-9 11-15 0-9-5-19-13-22z m53-98c-13-6-27-4-36 7-4 4-6 6-9 12-2 3-2 5-2 11 0 7 0 7 2 11 3 8 9 15 15 17 3 2 7 2 9 2 6 2 17 0 23-4 9-5 15-13 15-24 2-13-6-27-17-32z m47 98c-8-4-17-2-23 5-2 2-5 4-5 8 0 2 0 2 0 7 0 4 0 4 0 6 3 4 7 9 11 11 2 0 4 2 4 2 5 2 11 0 15-2 5-2 9-9 11-15 0-9-4-19-13-22z m0 52c-8-5-17-3-23 4-2 2-5 4-5 8 0 3 0 3 0 7 0 4 0 4 0 6 3 4 7 9 11 11 2 0 4 2 4 2 5 2 11 0 15-2 5-2 9-9 11-15 0-9-4-17-13-21z m0 53c-8-4-17-2-23 4-2 2-5 4-5 9 0 2 0 2 0 6 0 4 0 4 0 7 3 4 7 8 11 10 2 0 4 2 4 2 5 2 11 0 15-2 5-2 9-8 11-15 0-8-4-17-13-21z"/>
<glyph glyph-name="wired-clients" unicode="&#57498;" d="M43 128l426 0 0 320-426 0c0 0 0-320 0-320z m460 354c7-6 9-13 9-21l0-348c0-6-2-13-9-19-6-7-12-9-19-9l-143 0 0-21 64 0 0-43-298 0 0 43 64 0 0 21-143 0c-7 0-13 2-19 9-7 6-9 13-9 19l0 348c0 8 2 15 9 21 6 7 12 9 19 9l456 0c7 0 13-2 19-9z"/>
<glyph glyph-name="square-with-arrow" unicode="&#57499;" d="M478 512l-156 0c-11 0-17-13-8-21l40-41-141-141c-8-8-8-21 0-27l66-67c9-8 22-8 28 0l141 141 43-42c8-9 21-3 21 8l0 156c0 19-15 34-34 34z m-51-262l0-139c0-13-11-26-26-26l-290 0c-15 0-26 11-26 26l0 290c0 15 11 26 26 26l139 0c17 0 32 15 32 32 0 17-15 32-32 32l-169 0c-34 0-60-26-60-60l0-352c0-32 26-58 60-58l352 0c32 0 60 26 60 60l0 169c0 17-15 32-32 32-19 0-34-15-34-32z"/>
<glyph glyph-name="play" unicode="&#57500;" d="M256 491c-130 0-235-105-235-235 0-130 105-235 235-235 130 0 235 105 235 235 0 130-105 235-235 235z m-68-384l0 298 185-160z"/>
<glyph glyph-name="done-all" unicode="&#57501;" d="M220 186c-5 0-9 2-13 4-11 6-13 21-6 32l160 239c6 10 21 13 32 6 10-6 12-21 6-32l-160-239c-6-6-13-10-19-10z m-98-145c-7 0-13 2-17 6l-101 107c-8 8-8 23 2 32 9 8 24 8 32-3l101-106c8-9 8-24-2-32-5-2-9-4-15-4z m113 0c-7 0-13 2-17 6l-101 107c-8 8-8 23 2 32 9 8 24 8 32-3l82-87 238 365c7 10 22 13 32 6 11-6 13-21 7-32l-256-384c-4-6-11-8-19-10z"/>
<glyph glyph-name="share" unicode="&#57502;" d="M416 181c-30 0-55-15-70-38l-167 90c2 8 4 14 4 23 0 6 0 11-2 17l182 79c15-13 34-21 57-21 47 0 86 38 86 85 0 47-39 85-86 85-47 0-85-38-85-85 0-9 2-17 4-26l-179-76c-17 17-38 27-64 27-47 0-85-38-85-85 0-47 38-85 85-85 23 0 43 8 58 23l177-94c0-2 0-2 0-4 0-47 38-85 85-85 47 0 85 38 85 85 0 47-38 85-85 85z"/>
<glyph glyph-name="offline" unicode="&#57503;" d="M448 254c-13 13-26 21-43 25-2 15-4 28-10 41 0 0 0 2-2 2l-22-21c4-11 7-22 7-34 0-7 6-13 12-15 15-2 26-9 37-19 10-11 15-24 15-39 0-17-7-30-17-40-11-11-26-17-41-17l-175 0-28-28 203 0c23 0 45 8 62 25 17 17 25 37 25 62-2 22-8 41-23 58z m0 194c-11 11-26 11-36 0l-69-68c-6 4-12 8-21 10-28 13-62 15-92 5-12-5-23-9-34-15-8-7-17-15-25-24-7-8-13-15-17-23-15 0-30-2-43-9-15-6-26-15-36-23-11-11-17-22-24-36-6-13-8-28-8-43 0-15 2-30 8-43 7-13 15-25 24-34 6-6 10-11 17-15l-28-30c-11-10-11-25 0-36 4-4 11-6 17-6 6 0 13 2 17 6l350 348c9 10 9 25 0 36z m-352-286c-9 9-13 17-17 26-4 10-6 21-6 32 0 10 2 23 6 32 4 10 11 19 17 27 9 9 17 13 26 18 10 4 21 6 34 6l8 0c7 0 11 2 13 8 2 11 9 20 15 26 6 9 13 15 21 19 9 7 17 9 28 13 24 6 49 6 73-4 2-2 6-4 10-7l-211-209c-6 5-13 9-17 13z"/>
<glyph glyph-name="version" unicode="&#57359;" d="M405 448l-298 0c-24 0-43-19-43-43l0-298c0-24 19-43 43-43l298 0c24 0 43 19 43 43l0 298c0 24-19 43-43 43z m-17-341c-4-5-10-7-17-7-8 0-13 2-17 7-4 4-6 10-6 17 0 6 2 13 6 17 4 4 11 6 17 6 9 0 15-2 17-6 5-4 7-11 7-17 0-9-2-13-7-17z m-102-5l-62 0-111 303 56 0 85-249 89 249 58 0z"/>
<glyph glyph-name="triangle-right" unicode="&#57505;" d="M175 85l0 342 209-184z"/>
<glyph glyph-name="fencing" unicode="&#57360;" d="M491 341l-26 0 0 49c0 3 0 5-2 7l-51 89c-5 9-17 9-22 0l-51-89c-2-2-2-4-2-7l0-49-26 0 0 49c0 3 0 5-2 7l-51 89c-4 9-17 9-21 0l-49-89c0-2-2-4-2-7l0-49-26 0 0 49c0 3 0 5-2 7l-49 87c-4 9-17 9-22 0l-51-87c-2-2-2-4-2-7l0-49-13 0 0-76 13 0 0-107-13 0 0-77 13 0 0-40c0-7 7-13 13-13l102 0c7 0 13 6 13 13l0 40 26 0 0-40c0-7 6-13 13-13l102 0c6 0 13 6 13 13l0 40 25 0 0-40c0-7 7-13 13-13l103 0c6 0 12 6 12 13l0 40 22 0z m-354-288l-77 0 0 333 38 66 39-66z m23 105l0 107 26 0 0-107z m128-105l-77 0 0 333 39 66 38-66z m26 105l0 107 25 0 0-107z m125-105l-76 0 0 333 38 66 38-66z m26 105l0 107 26 0 0-107z"/>
<glyph glyph-name="connect" unicode="&#57507;" d="M307 188l-32-32c-15-15-32-22-51-24-19-2-38 2-55 13l-79-81-26 26 83 81c-10 17-17 34-15 53 2 19 11 36 26 51l32 32 17-17 40 41c5 6 11 6 15 0 7-5 7-11 0-15l-40-41 51-51 41 41c4 6 10 6 15 0 6-5 6-11 0-15l-41-41z m-104 136l32 32c15 15 32 22 51 24 19 2 38-2 55-13l81 81 26-26-83-81c10-17 17-34 15-53-2-19-11-36-26-51l-32-32c-38 38-79 79-119 119z"/>
<glyph glyph-name="cloudpath-server" unicode="&#57508;" d="M328 195l-143 0c-9 0-17-8-17-18l0-96c0-9 8-17 17-17l143 0c10 0 18 8 18 17l0 96c0 10-8 18-18 18z m-56-73c0-8-7-15-15-15-9 0-16 7-16 15l0 23c0 9 7 15 16 15 8 0 15-6 15-15z m47 88l-30 0 0 38c0 17-14 31-31 31-17 0-31-14-31-31l0-38-30 0 0 38c0 34 27 61 61 61 33 0 61-27 61-61z m125 157l-53 0c2 5 1 12-4 16-72 72-189 72-260 0-5-4-6-11-5-16l-54 0c-29 0-53-24-53-53l0-236c0-29 24-53 53-53l376 0c29 0 53 24 53 53l0 236c0 29-24 53-53 53z m-89 0l-53 0c-29 11-61 11-90 0l-54 0c57 49 141 49 197 0z m119-289c0-17-13-30-30-30l-376 0c-16 0-30 13-30 30l0 236c0 17 13 30 30 30l108 0c-2-1-4-3-5-4-7-7-7-18 0-24 6-7 17-7 23 0 35 34 91 34 126 0 3-3 7-5 12-5 4 0 8 2 11 5 7 6 7 17 0 24-1 1-3 3-5 4l106 0c17 0 30-13 30-30z m-376 317c-4 0-9 2-12 5-6 7-6 17 0 24 46 45 106 71 171 71 65 0 125-26 171-71 6-7 6-17 0-24-7-7-17-7-24 0-39 39-91 61-147 61-55 0-108-22-147-61-3-3-8-5-12-5z"/>
<glyph glyph-name="drag" unicode="&#37;" d="M443 379c12 0 21-10 21-22 0-11-8-20-19-21l-2 0-374 0c-12 0-21 10-21 21 0 12 8 21 19 22l2 0z m0-107c12 0 21-10 21-21 0-12-8-21-19-22l-2 0-374 0c-12 0-21 10-21 22 0 11 8 20 19 21l2 0z m0-107c12 0 21-9 21-21 0-11-8-20-19-21l-2 0-374 0c-12 0-21 9-21 21 0 11 8 20 19 21l2 0z"/>
<glyph glyph-name="heartbeat" unicode="&#75;" d="M259 386c14 10 26 20 40 30 25 17 53 25 84 20 22-3 43-10 60-25 18-16 28-37 33-60 6-36-2-69-22-98-1-1-2-2-3-2-29 0-57 0-85 0-3 0-3 1-4 3-8 16-17 32-25 49-3 5-7 9-13 10-7 0-14-3-17-12-5-21-12-41-18-61-4-13-8-26-11-39-1-1-1-1-2-3-4 15-8 28-12 42-11 41-23 82-35 122-1 7-5 11-12 13-6 1-11-1-15-5-2-2-3-5-4-8-9-36-18-71-26-107-1-3-3-4-6-4-32 0-63 0-95 0-2 0-4 1-5 3-9 13-16 28-20 44-3 14-4 27-3 41 2 17 6 33 15 48 10 18 25 31 44 39 21 10 44 13 67 11 19-2 36-9 51-20 13-9 25-20 38-30 1 0 1-1 1-1m67-131c5-8 9-16 12-24 4-8 10-12 19-12 22 1 44 1 66 1l5 0c-3-3-5-5-7-7-49-48-99-96-149-143-8-8-16-8-24 0-49 48-98 95-147 142-3 3-5 5-8 8l5 0c27 0 55 0 82 0 11 0 16 4 18 14 5 20 11 41 16 61 0 1 0 2 1 4 5-18 10-36 15-54 10-35 20-70 30-106 2-7 6-11 14-12 6-1 11 1 15 7 1 2 2 4 2 6 12 37 23 74 34 111 0 1 1 2 1 4"/>
<glyph glyph-name="stats" unicode="&#42;" d="M381 298c-7 7-18 7-25 0l-71-72-38 38c-3 3-8 5-13 5-4 0-9-2-12-5l-84-84c-7-7-7-18 0-25 4-3 8-5 13-5 4 0 9 2 12 5l71 71 38-37c3-4 8-6 13-6 4 0 9 2 12 6l84 83c7 7 7 19 0 26z m56 136l-112 0 0 18c0 9-8 17-18 17l-95 0c-10 0-18-8-18-17l0-18-112 0c-10 0-18-8-18-18l0-356c0-9 8-17 18-17l355 0c10 0 18 8 18 17l0 356c0 10-8 18-18 18z m-207 0l59 0 0-18c0 0 0 0 0 0 0 0 0 0 0 0l0-18-59 0z m190-356l-320 0 0 320 94 0 0-18c0-9 8-17 18-17l95 0c10 0 18 8 18 17l0 18 95 0z"/>
<glyph glyph-name="comments" unicode="&#35;" d="M87 228c2-1 4-3 4-5 2-5 4-11-26-53 38 3 80 28 81 28 2 2 5 2 7 2 71-13 124-2 159 33 26 25 32 54 32 55 4 29-7 55-33 77-20 18-41 27-43 28-44 16-88 16-130 2-30-10-48-25-50-26-24-23-35-47-35-72 1-37 30-65 34-69m341-82c2-4 18-28 28-45-12 0-36 4-76 25-2 1-4 2-6 1-1 0-118-20-161 51 39-1 72 8 98 26 42 30 50 73 50 75 2 13 2 24-1 36 14-2 46-9 80-40 0-1 21-22 22-52 0-22-11-44-33-65-3-3-3-8-1-12"/>
<glyph glyph-name="astronaut" unicode="&#77;" d="M373 196c-31-28-72-46-118-46-45 0-86 17-117 46-50-18-85-66-85-120l0-32c0-7 6-12 12-12l93-1c3-1 6 1 8 3 3 2 4 5 4 9l0 39c0 10 9 19 20 19l131 0c11 0 20-9 20-19l0-39c0-4 1-7 3-9 3-2 6-3 9-3 0 0 0 0 0 0l94 1c6 0 12 5 12 12l0 32c0 55-36 103-86 120m-114 15c-68 0-124 43-124 110 0 57 47 48 123 49 89 2 119 2 123-49 6-67-54-110-122-110m158 162l-11 0c-21 62-81 107-151 107-70 0-129-45-151-107l-13 0c-6 0-11-5-11-12l0-84c0-6 5-11 11-11l13 0c23-62 82-106 151-106 70 0 129 44 151 106l11 0c6 0 11 5 11 11l0 84c0 7-5 12-11 12m-105-299c0-7-6-12-13-12-7 0-12 5-12 12 0 7 5 13 12 13 7 0 13-6 13-13m-87-42l0 44c0 6-5 11-11 11l-4 0c-6 0-11-5-11-11l0-44z m-20 314l10-26c0 0 0 0 1 0l25-10c1 0 1-1 0-2l-26-10c0 0 0-1 0-1l-10-25c0-1-1-1-2 0l-10 25c0 0 0 0 0 0l-26 11c-1 1-1 2 0 2l25 9c0 0 0 1 0 1l11 26c1 1 2 1 2 0"/>
<glyph glyph-name="ruckus-dog-black" unicode="&#57357;" d="M257 338c2-2 4-4 6-6-2 2-4 4-6 6z m212 52l8 4c3 2 4 6 2 9-2 3-6 4-9 2l-8-4c0 0 0 0 0-1l-57-40 64 29c0 0 0 0 0 1z m7-20l-67-20 70 7c0 0 0 0 1 0l8 2c4 1 6 4 5 8-1 3-4 5-8 5l-8-2c-1 0-1 0-1 0z m11-34l-9 1c0 0-1 0-1 0l-69 3 68-16c0 0 0 0 1 0l8-1c4-1 7 2 7 6 1 3-2 7-5 7z m-116 41c0 0 18 8 36 18 17 9 7 23 2 24-6 1-29-3-29-3 0 0-24-4-42-5-18 0-24 13-24 13 0 0-8 16-12 23-3 8-5 9-11 6-5-2 3-19 3-19 0 0 4-10 6-15 2-5 3-9-2-11-4-2-7 7-7 7l-7 14c0 0-4 7-6 9-4 5-25-4-27-10-1-3 3-17 15-6 2 1 2-1 2-2 2-4 4-9 5-11 1-2-1-9 3-20-1-3-6-5-9-8-2-1-5-3-8-6l-5-2c0-1-1-1-1-1-3-4 5-19 20-33 12-12 25-21 31-21 2 0 3 0 3 1 0 0 1 0 1 1 0 1 0 1 0 1 0 0 0 1 1 1 0 2 1 3 2 5 1 2 8 8 16 6 17-6 44-29 48-30 5-1 10 1 12 6 2 5-1 9-2 11-1 2-6 8-6 8l-13 14c0 0-12 13-13 20 0 5 18 15 18 15z m-106-47c-1 1-2 1-2 2-2 2-4 4-6 6 0 0-1 1-1 1 0 0-1 1-1 2-7 8-14 17-15 26-5-2-24-6-30-9-6-2-17-4-26-4-10-1-31 2-42 2-6 1-13 1-20 0-13-2-30-12-32-12-7-3-25-10-46-1-29 10-25 46-27 45-3-1-8-20-2-35 2-6 6-11 9-15 4-4 10-8 18-11 3-1 7-2 10-3 2 0 8-3 13-7 3-3 6-7 5-9-11-32-4-56-4-57 1-24-15-169-15-171 0 0 0-2 1-3 1-2 3-5 4-6 2-3 3-6 6-7 12-1 19 0 18 9-1 2-1 4-4 6-2 1-6 2-8 4-3 4-3 10-2 13 2 13 6 37 8 54 1 9 8 26 10 30 13 26 21 46 26 59 1 3 6 2 6-2 0-4-3-11-4-11 0-2-1-3-1-4 0-15 6-81 5-93 0-16-1-26-1-32-1-2 3-7 6-9 3-2 4-5 5-6 1 0 7 0 11 0 4 0 8 2 9 3 0 1-1 7-3 9-3 2-7 4-9 5-5 2-4 28-4 28l10 72c0 0 21 45 34 51 25 6 46 2 46 2 0 0 24-7 31-35 6-25 13-104 16-130 0-5 1-9 2-9 1-1 6-3 6-6 1-3 2-7 5-8 2 0 6-1 11-1 3 0 7 0 9 2 1 1 0 7 0 7 0 0 0 1-1 2-1 1-3 4-5 5-2 1-5 1-7 2 0 0-2 3-2 3-6 10-7 24-8 30-5 29 6 124 7 130 0 0 2 3 4 6 1 0 1 1 1 1 2-8 0-19 2-32 2-10 4-22 6-33 4-25 10-91 15-95 0 0 3 0 3-1 1-2 0-7 1-7 9-2 18-2 21 1 1 1 1 5 1 8 0 1 0 3-3 4-2 2-6 1-8 3-1 1-2 3-2 5-6 17-7 49-9 66-1 17-3 36-2 55 0 20 3 37 0 51-4 19-10 30-10 30 0 0 0 0 1 0-1 0-1 0-2 0-13 1-31 17-38 24z"/>
<glyph glyph-name="headeractivity" unicode="&#47;" d="M256 448c53 0 99-19 136-56 37-37 56-83 56-136 0-53-19-99-56-136-37-37-83-56-136-56-53 0-99 19-136 56-37 37-56 83-56 136 0 53 19 99 56 136 37 37 83 56 136 56z m0-48c-9 0-16-7-16-16l0-128 0-3c2-7 8-13 16-13l96 0 3 0c7 2 13 8 13 16l0 3c-2 7-8 13-16 13l-80 0 0 112 0 3c-2 7-8 13-16 13z"/>
<glyph glyph-name="activity-failed" unicode="&#59;" d="M469 256c0-118-95-213-213-213-118 0-213 95-213 213 0 118 95 213 213 213 118 0 213-95 213-213z m-141 94c-4 0-8-2-11-5l-61-62-61 62c-4 3-9 5-14 5-5 0-10-2-14-5-3-4-5-9-5-14l0-3c0-4 2-8 5-11l62-61-62-61c-3-4-5-9-5-14 0-5 2-10 5-14 4-3 9-5 14-5l2 0c4 0 7 2 11 5l62 62 61-62c4-3 9-5 14-5 4 0 8 1 13 5 4 4 6 9 6 14l0 3c0 4-2 8-5 11l-62 61 62 61c3 4 5 9 5 14 0 5-2 10-5 14-4 3-9 5-14 5z"/>
<glyph glyph-name="activity-inprogress" unicode="&#45;" d="M256 469c118 0 213-95 213-213 0-118-95-213-213-213-118 0-213 95-213 213 0 118 95 213 213 213z m0-90c-68 0-123-55-123-123 0-68 55-123 123-123 68 0 123 55 123 123l-32 0 0-4c-3-48-42-87-91-87-50 0-91 41-91 91 0 50 41 91 91 91 20 0 39-7 55-19l19 26-5 3c-20 14-44 22-69 22z"/>
<glyph glyph-name="activity-pause" unicode="&#63;" d="M256 469c118 0 213-95 213-213 0-118-95-213-213-213-118 0-213 95-213 213 0 118 95 213 213 213z m-23-133l-43 0 0-178 43 0z m107 0l-43 0 0-178 43 0z"/>
<glyph glyph-name="activity-success" unicode="&#64;" d="M469 256c0-118-95-213-213-213-118 0-213 95-213 213 0 118 95 213 213 213 118 0 213-95 213-213z m-227-73c6-1 11 1 15 4l1 0 2 2c0 0 1 0 1 1l2 2 94 100c4 4 6 9 6 14 0 5-3 10-7 16-5 4-10 5-16 5-6 0-11-3-15-7l-81-86-40 41c-4 4-9 6-14 6-6 0-11-1-15-5l-2-2c-4-3-6-8-6-13 0-6 2-11 5-15l57-58c3-3 8-5 13-5z"/>
</font>
</defs>
</svg>
