<svg width="400" height="660" viewBox="0 0 400 660" fill="none" xmlns="http://www.w3.org/2000/svg">
<g filter="url(#filter0_b_39611_62026)">
<rect width="400" height="335" fill="url(#paint0_linear_39611_62026)"/>
<rect width="400" height="335" fill="url(#paint1_linear_39611_62026)"/>
</g>
<g clip-path="url(#clip0_39611_62026)">
<g filter="url(#filter1_b_39611_62026)">
<g opacity="0.18">
<path d="M676.488 296.615C676.023 297.21 466.842 298.66 58.2034 166.112C-350.435 33.5631 -569.697 463.059 -576.676 465.723" stroke="#FCE721" stroke-width="1.11256"/>
<path d="M675.927 304.561C674.996 305.753 463.752 318.058 59.9128 186.123C-343.927 54.1866 -562.207 461.584 -576.166 466.911" stroke="#FBE021" stroke-width="1.11256"/>
<path d="M675.366 312.508C673.969 314.295 460.664 337.456 61.6231 206.133C-337.417 74.8098 -554.717 460.109 -575.654 468.1" stroke="#FBDA21" stroke-width="1.11256"/>
<path d="M674.805 320.455C672.942 322.838 457.574 356.854 63.3325 226.144C-330.909 95.4333 -547.227 458.634 -575.144 469.289" stroke="#FAD321" stroke-width="1.11256"/>
<path d="M674.243 328.401C671.915 331.38 454.484 376.251 65.0418 246.154C-324.401 116.056 -539.737 457.158 -574.634 470.477" stroke="#FACC21" stroke-width="1.11256"/>
<path d="M673.309 332.892C670.516 336.467 451.022 392.194 66.3791 262.709C-318.264 133.224 -532.62 452.228 -574.495 468.21" stroke="#F9C522" stroke-width="1.11256"/>
<path d="M671.716 331.247C668.457 335.417 446.901 402 67.0566 273.128C-312.788 144.256 -526.162 441.161 -575.017 459.807" stroke="#F9BF22" stroke-width="1.11256"/>
<path d="M670.034 328.79C666.31 333.556 442.691 410.994 67.6459 282.734C-307.399 154.475 -519.793 429.282 -575.627 450.592" stroke="#F8B822" stroke-width="1.11256"/>
<path d="M668.272 325.587C664.082 330.949 438.401 419.242 68.1548 291.596C-302.091 163.949 -513.504 416.657 -576.317 440.631" stroke="#F8B122" stroke-width="1.11256"/>
<path d="M666.438 321.71C661.782 327.668 434.038 426.816 68.5913 299.783C-296.856 172.749 -507.287 403.359 -577.079 429.996" stroke="#F7AA22" stroke-width="1.11256"/>
<path d="M664.538 317.231C659.417 323.784 429.611 433.788 68.9628 307.367C-291.685 180.946 -501.135 389.457 -577.907 418.759" stroke="#F7A322" stroke-width="1.11256"/>
<path d="M662.581 312.213C656.994 319.362 425.125 440.222 69.2763 314.414C-286.573 188.606 -495.041 375.018 -578.792 406.983" stroke="#F69D22" stroke-width="1.11256"/>
<path d="M660.572 306.716C654.52 314.461 420.588 446.176 69.5383 320.98C-281.512 195.785 -488.999 360.099 -579.729 394.728" stroke="#F69622" stroke-width="1.11256"/>
<path d="M658.518 300.791C652 309.132 416.006 451.703 69.7551 327.12C-276.496 202.537 -483.002 344.753 -580.712 382.045" stroke="#F58F22" stroke-width="1.11256"/>
<path d="M656.422 294.485C649.438 303.421 411.382 456.847 69.93 332.877C-271.522 208.907 -477.047 329.025 -581.736 368.981" stroke="#F58822" stroke-width="1.11256"/>
<path d="M654.289 287.837C646.84 297.369 406.721 461.65 70.0679 338.293C-266.585 214.936 -471.129 312.955 -582.797 355.575" stroke="#F48223" stroke-width="1.11256"/>
<path d="M652.123 280.882C644.209 291.01 402.027 466.147 70.173 343.402C-261.681 220.658 -465.244 296.579 -583.891 341.862" stroke="#F47B23" stroke-width="1.11256"/>
<path d="M649.927 273.652C641.547 284.376 397.303 470.368 70.2484 348.236C-256.806 226.105 -459.388 279.927 -585.014 327.874" stroke="#F37423" stroke-width="1.11256"/>
<path d="M647.706 266.173C638.86 277.492 392.554 474.34 70.2979 352.821C-251.958 231.302 -453.559 263.026 -586.164 313.637" stroke="#F36D23" stroke-width="1.11256"/>
<path d="M645.46 258.469C636.148 270.384 387.779 478.087 70.3222 357.181C-247.134 236.275 -447.754 245.9 -587.339 299.175" stroke="#F26723" stroke-width="1.11256"/>
<path d="M643.191 250.562C633.414 263.073 382.982 481.631 70.3247 361.338C-242.333 241.045 -441.971 228.571 -588.535 284.51" stroke="#F26023" stroke-width="1.11256"/>
<path d="M640.903 242.468C630.66 255.575 378.166 484.989 70.3071 365.309C-237.551 245.628 -436.209 211.056 -589.752 269.659" stroke="#F15923" stroke-width="1.11256"/>
<path d="M638.596 234.207C627.888 247.909 373.331 488.178 70.2714 369.111C-232.788 250.043 -430.464 193.373 -590.987 254.639" stroke="#F15223" stroke-width="1.11256"/>
<path d="M636.274 225.79C625.1 240.088 368.481 491.213 70.2201 372.758C-228.04 254.303 -424.735 175.534 -592.237 239.464" stroke="#F04B23" stroke-width="1.11256"/>
<path d="M633.935 217.233C622.296 232.127 363.614 494.107 70.1525 376.265C-223.309 258.423 -419.023 157.555 -593.503 224.149" stroke="#F04523" stroke-width="1.11256"/>
<path d="M631.583 208.546C619.478 224.036 358.733 496.871 70.071 379.642C-218.591 262.412 -413.324 139.447 -594.784 208.704" stroke="#EF3E24" stroke-width="1.11256"/>
<path d="M629.217 199.739C616.647 215.824 353.84 499.515 69.9767 382.899C-213.887 266.282 -407.638 121.218 -596.077 193.139" stroke="#EF3724" stroke-width="1.11256"/>
<path d="M626.841 190.823C613.806 207.504 348.936 502.05 69.8714 386.046C-209.193 270.042 -401.963 102.88 -597.382 177.465" stroke="#EE3024" stroke-width="1.11256"/>
<path d="M624.453 181.804C610.952 199.081 344.019 504.483 69.7542 389.092C-204.511 273.701 -396.3 84.4397 -598.698 161.688" stroke="#EE2A24" stroke-width="1.11256"/>
<path d="M622.055 172.692C608.088 190.565 339.093 506.822 69.627 392.044C-199.839 277.266 -390.647 65.906 -600.024 145.818" stroke="#ED2324" stroke-width="1.11256"/>
</g>
<g opacity="0.06">
<path d="M-591.792 424.007C-591.526 423.299 -392.311 359.486 37.2632 364.037C466.837 368.588 547.925 -106.772 553.791 -111.397" stroke="#FCE721" stroke-width="1.11256"/>
<path d="M-593.628 416.255C-593.095 414.84 -395.151 340.05 29.6596 345.449C454.471 350.847 541.217 -103.129 552.949 -112.379" stroke="#FBE021" stroke-width="1.11256"/>
<path d="M-595.464 408.503C-594.664 406.38 -397.992 320.614 22.0561 326.86C442.104 333.106 534.509 -99.4855 552.107 -113.361" stroke="#FBDA21" stroke-width="1.11256"/>
<path d="M-597.299 400.751C-596.233 397.921 -400.832 301.178 14.4525 308.272C429.737 315.365 527.801 -95.8423 551.265 -114.343" stroke="#FAD321" stroke-width="1.11256"/>
<path d="M-599.135 392.999C-597.802 389.461 -403.672 281.743 6.84902 289.683C417.37 297.624 521.093 -92.1992 550.424 -115.326" stroke="#FACC21" stroke-width="1.11256"/>
<path d="M-599.584 388.434C-597.985 384.188 -405.126 265.494 0.631855 274.282C406.39 283.07 515.771 -85.3689 550.968 -113.121" stroke="#F9C522" stroke-width="1.11256"/>
<path d="M-597.572 389.528C-595.707 384.576 -404.119 254.905 -3.12421 264.54C397.871 274.176 512.911 -72.8791 553.974 -105.256" stroke="#F9BF22" stroke-width="1.11256"/>
<path d="M-595.234 391.372C-593.102 385.711 -402.785 245.064 -6.55378 255.547C389.678 266.03 510.377 -59.6405 557.306 -96.6427" stroke="#F8B822" stroke-width="1.11256"/>
<path d="M-592.596 393.903C-590.198 387.535 -401.152 235.912 -9.68404 247.242C381.784 258.572 508.142 -45.7141 560.937 -87.3415" stroke="#F8B122" stroke-width="1.11256"/>
<path d="M-589.689 397.055C-587.023 389.98 -399.249 227.38 -12.5441 239.558C374.161 251.736 506.177 -31.1665 564.839 -77.4192" stroke="#F7AA22" stroke-width="1.11256"/>
<path d="M-586.539 400.764C-583.607 392.981 -397.104 219.405 -15.1622 232.43C366.78 245.456 504.455 -16.0627 568.983 -66.9407" stroke="#F7A322" stroke-width="1.11256"/>
<path d="M-583.174 404.969C-579.976 396.478 -394.744 211.926 -17.5654 225.799C359.613 239.671 502.947 -0.462684 573.341 -55.9659" stroke="#F69D22" stroke-width="1.11256"/>
<path d="M-579.616 409.616C-576.151 400.418 -392.191 204.889 -19.7753 219.609C352.64 234.329 501.633 15.5796 577.893 -44.549" stroke="#F69622" stroke-width="1.11256"/>
<path d="M-575.887 414.657C-572.155 404.751 -389.466 198.247 -21.8136 213.814C345.839 229.382 500.49 32.016 582.617 -32.7378" stroke="#F58F22" stroke-width="1.11256"/>
<path d="M-572.004 420.051C-568.006 409.437 -386.588 191.956 -23.6989 208.371C339.19 224.786 499.5 48.8048 587.493 -20.5743" stroke="#F58822" stroke-width="1.11256"/>
<path d="M-567.984 425.759C-563.72 414.438 -383.573 185.981 -25.4469 203.244C332.679 220.506 498.648 65.9084 592.507 -8.09596" stroke="#F48223" stroke-width="1.11256"/>
<path d="M-563.841 431.751C-559.31 419.722 -380.435 180.289 -27.0721 198.398C326.291 216.508 497.918 83.2949 597.643 4.66532" stroke="#F47B23" stroke-width="1.11256"/>
<path d="M-559.589 437.996C-554.791 425.26 -377.187 174.85 -28.5875 193.808C320.012 212.765 497.298 100.936 602.89 17.6808" stroke="#F37423" stroke-width="1.11256"/>
<path d="M-555.236 444.471C-550.172 431.027 -373.838 169.642 -30.0023 189.446C313.834 209.251 496.779 118.806 608.237 30.9256" stroke="#F36D23" stroke-width="1.11256"/>
<path d="M-550.793 451.153C-545.462 437.002 -370.4 164.64 -31.3268 185.292C307.746 205.944 496.35 136.883 613.674 44.3778" stroke="#F26723" stroke-width="1.11256"/>
<path d="M-546.267 458.024C-540.67 443.165 -366.879 159.827 -32.5695 181.326C301.74 202.825 496.003 155.149 619.193 58.018" stroke="#F26023" stroke-width="1.11256"/>
<path d="M-541.668 465.065C-535.804 449.499 -363.284 155.184 -33.7379 177.531C295.809 199.878 495.73 173.585 624.786 71.8292" stroke="#F15923" stroke-width="1.11256"/>
<path d="M-537.001 472.262C-530.87 455.988 -359.622 150.697 -34.8385 173.891C289.945 197.086 495.525 192.177 630.447 85.7962" stroke="#F15223" stroke-width="1.11256"/>
<path d="M-532.272 479.601C-525.876 462.62 -355.898 146.353 -35.8783 170.394C284.142 194.436 495.381 210.912 636.169 99.9056" stroke="#F04B23" stroke-width="1.11256"/>
<path d="M-527.487 487.071C-520.823 469.382 -352.117 142.139 -36.8602 167.028C278.397 191.917 495.295 229.777 641.949 114.145" stroke="#F04523" stroke-width="1.11256"/>
<path d="M-522.649 494.66C-515.719 476.264 -348.284 138.044 -37.7902 163.781C272.703 189.517 495.26 248.761 647.781 128.504" stroke="#EF3E24" stroke-width="1.11256"/>
<path d="M-517.763 502.36C-510.566 483.256 -344.403 134.06 -38.6723 160.644C267.058 187.228 495.274 267.856 653.66 142.974" stroke="#EF3724" stroke-width="1.11256"/>
<path d="M-512.833 510.161C-505.37 490.349 -340.477 130.177 -39.5102 157.608C261.457 185.039 495.331 287.052 659.584 157.544" stroke="#EE3024" stroke-width="1.11256"/>
<path d="M-507.863 518.055C-500.134 497.536 -336.512 126.387 -40.3084 154.666C255.896 182.945 495.429 306.342 665.548 172.209" stroke="#EE2A24" stroke-width="1.11256"/>
<path d="M-502.855 526.036C-494.859 504.81 -332.509 122.685 -41.0679 151.811C250.373 180.937 495.565 325.718 671.55 186.96" stroke="#ED2324" stroke-width="1.11256"/>
</g>
</g>
</g>
<g filter="url(#filter2_b_39611_62026)">
<rect y="1" width="400" height="659" fill="white" fill-opacity="0.1"/>
</g>
<defs>
<filter id="filter0_b_39611_62026" x="-40" y="-40" width="480" height="415" filterUnits="userSpaceOnUse" color-interpolation-filters="sRGB">
<feFlood flood-opacity="0" result="BackgroundImageFix"/>
<feGaussianBlur in="BackgroundImageFix" stdDeviation="20"/>
<feComposite in2="SourceAlpha" operator="in" result="effect1_backgroundBlur_39611_62026"/>
<feBlend mode="normal" in="SourceGraphic" in2="effect1_backgroundBlur_39611_62026" result="shape"/>
</filter>
<filter id="filter1_b_39611_62026" x="-640.223" y="-155.762" width="1357.15" height="721.995" filterUnits="userSpaceOnUse" color-interpolation-filters="sRGB">
<feFlood flood-opacity="0" result="BackgroundImageFix"/>
<feGaussianBlur in="BackgroundImageFix" stdDeviation="20"/>
<feComposite in2="SourceAlpha" operator="in" result="effect1_backgroundBlur_39611_62026"/>
<feBlend mode="normal" in="SourceGraphic" in2="effect1_backgroundBlur_39611_62026" result="shape"/>
</filter>
<filter id="filter2_b_39611_62026" x="-1" y="0" width="402" height="661" filterUnits="userSpaceOnUse" color-interpolation-filters="sRGB">
<feFlood flood-opacity="0" result="BackgroundImageFix"/>
<feGaussianBlur in="BackgroundImageFix" stdDeviation="0.5"/>
<feComposite in2="SourceAlpha" operator="in" result="effect1_backgroundBlur_39611_62026"/>
<feBlend mode="normal" in="SourceGraphic" in2="effect1_backgroundBlur_39611_62026" result="shape"/>
</filter>
<linearGradient id="paint0_linear_39611_62026" x1="375.2" y1="280.791" x2="165.556" y2="-92.8827" gradientUnits="userSpaceOnUse">
<stop stop-color="white" stop-opacity="0"/>
<stop offset="1" stop-color="#B9CCF9"/>
</linearGradient>
<linearGradient id="paint1_linear_39611_62026" x1="400" y1="-9.98378e-06" x2="196.466" y2="428.352" gradientUnits="userSpaceOnUse">
<stop stop-color="#FFCBAE"/>
<stop offset="0.63526" stop-color="white" stop-opacity="0"/>
</linearGradient>
<clipPath id="clip0_39611_62026">
<rect width="399" height="599" fill="white" transform="translate(0 36)"/>
</clipPath>
</defs>
</svg>
