<svg xmlns="http://www.w3.org/2000/svg" viewbox="0 0 700 600" width="644" height="570" fill="none"><path fill="#333" fill-rule="evenodd" d="M330.516 489.161c-3.597 0-6.858-1.493-9.237-3.901l-2.643 2.713c3.056 3.105 7.253 5.027 11.88 5.027 4.752 0 9.045-2.032 12.12-5.287L339.993 485c-2.396 2.56-5.755 4.161-9.477 4.161" clip-rule="evenodd"/><path fill="#333" fill-rule="evenodd" d="M330.879 497.308a22.02 22.02 0 0 1-15.404-6.241l-2.657 2.609A25.8 25.8 0 0 0 330.879 501a25.8 25.8 0 0 0 18.303-7.574l-2.657-2.608a22.01 22.01 0 0 1-15.646 6.49" clip-rule="evenodd"/><path fill="#333" fill-rule="evenodd" d="M330.879 506.138c-8.289 0-15.806-3.263-21.268-8.535L307 500.139c6.129 5.923 14.571 9.588 23.879 9.588 9.433 0 17.972-3.766 24.121-9.828l-2.611-2.536c-5.48 5.411-13.096 8.775-21.51 8.775" clip-rule="evenodd"/><path stroke="#333" stroke-linecap="round" stroke-width="1.5" d="M322.997 307.573h-1.558c-16.992 0-21.439-5.24-21.439-11.434s4.923-11.752 13.181-11.752c1.165-5.082 3.018-13.902 14.769-15.246 10.164-1.161 13.552 5.135 14.293 7.782 1.535-.423 5.463-.635 7.623 1.271 2.859 2.522 2.964 4.923 2.859 6.193 3.599.106 11.275 2.597 11.275 11.752 0 11.434-11.275 11.434-19.851 11.434h-3.904M331.127 295.83v17.934"/><circle cx="331.126" cy="319.952" r="4.447" stroke="#333" stroke-width="1.5"/><path stroke="#333" stroke-width="1.5" d="M335.414 320.426h12.07M314.611 320.426h12.069"/><path stroke="#333" stroke-linejoin="round" stroke-width="1.5" d="M347.643 315.505h8.893v8.893h-8.893zM305.717 315.505h8.893v8.893h-8.893z"/><path fill="#D85227" d="M336.117.016v8.78h-1.866l-8.781 6.32h6.812v8.877h-8.805c.08-.556.127-1.135.127-1.731 0-3.898-1.587-10.433-12.218-10.433h-2.454c1.167-2.588 3.772-4.398 6.789-4.398 2.278 0 4.287 1.016 5.66 2.612 1.89-4.525 5.772-8.035 10.56-9.384a15.8 15.8 0 0 1 4.176-.643"/><path fill="#F37201" d="M363 27.924c0 6.613-5.367 11.996-11.996 11.996h-14.895v-4.406h4.057v-11.52h22.151c.024.079.048.158.08.23.405 1.16.603 2.406.603 3.7"/><path fill="#F99D28" d="M336.117 35.514v4.406h-8.09l-8.186-9.583.095-.08c1.985-1.667 3.168-3.763 3.533-6.256h8.805v11.52h3.835z"/><path fill="#FAC799" d="M340.166 23.985V8.79h-4.057V.008c.119-.008.238-.008.357-.008 8.924 0 16.197 7.193 16.379 16.07a11.96 11.96 0 0 1 9.48 7.915h-22.159"/><path fill="#fff" d="M340.166 8.79v26.715h-7.884V15.117h-6.812l8.781-6.328z"/><path fill="#231F20" d="M325.161 39.92h-7.567l-10.647-13.33h3.383v-.024c3.183 0 4.779-1.358 4.779-4.081s-1.596-3.994-4.779-3.994h-5.344v21.437H299V14.013h12.37c6.701 0 10.043 2.755 10.043 8.257q0 3.904-2.882 6.32c-.595.5-1.27.913-1.985 1.262l8.615 10.083z"/><path fill="#7F7F7F" d="M374.486 265.434q1.055 0 1.741.263.691.258 1.031.791.34.534.34 1.36 0 .68-.246 1.136a2.1 2.1 0 0 1-.645.733 3.3 3.3 0 0 1-.85.433l2.35 3.85h-1.16l-2.098-3.574h-1.781V274h-.996v-8.566zm-.058.861h-1.26v3.287h1.359q1.05 0 1.541-.428.498-.428.498-1.259 0-.874-.527-1.237-.522-.363-1.611-.363m11.631-.861v5.543q0 .908-.37 1.617a2.65 2.65 0 0 1-1.101 1.119q-.738.404-1.852.404-1.587 0-2.42-.861-.826-.861-.826-2.303v-5.519h1.002v5.548q0 1.09.574 1.682.58.592 1.729.592.785 0 1.283-.281.504-.288.744-.797.246-.515.246-1.19v-5.554zm5.935.755q-.709 0-1.277.247-.563.24-.961.703a3.2 3.2 0 0 0-.604 1.107q-.21.65-.211 1.465 0 1.078.334 1.875a2.7 2.7 0 0 0 1.008 1.225q.674.433 1.682.433.574 0 1.078-.094.51-.099.99-.246v.867q-.468.177-.984.258a7.4 7.4 0 0 1-1.225.088q-1.306 0-2.185-.539a3.37 3.37 0 0 1-1.313-1.535q-.433-.99-.433-2.338 0-.972.269-1.775a4 4 0 0 1 .797-1.395q.527-.585 1.289-.902.768-.322 1.758-.322.65 0 1.254.128.603.129 1.09.37l-.399.843a6 6 0 0 0-.902-.322 3.8 3.8 0 0 0-1.055-.141M402.066 274h-1.177l-3.088-4.166-.914.82V274h-.996v-8.566h.996v4.271q.334-.381.685-.756.352-.381.698-.767l2.501-2.748h1.167l-3.411 3.714zm7.653-8.566v5.543q0 .908-.369 1.617-.364.708-1.102 1.119-.738.404-1.852.404-1.587 0-2.419-.861-.827-.861-.827-2.303v-5.519h1.002v5.548q0 1.09.575 1.682.579.592 1.728.592.786 0 1.283-.281.504-.288.744-.797.247-.515.247-1.19v-5.554zm7.107 6.287q0 .762-.381 1.3-.375.534-1.054.815-.68.28-1.6.281-.486 0-.92-.047a6 6 0 0 1-.797-.134 3.4 3.4 0 0 1-.638-.217v-.955q.44.181 1.072.34.633.152 1.324.152.645 0 1.09-.17.445-.176.674-.498.234-.329.234-.785 0-.44-.193-.733-.194-.299-.645-.539a8.4 8.4 0 0 0-1.219-.521 6.6 6.6 0 0 1-.961-.422 3 3 0 0 1-.697-.527 2 2 0 0 1-.427-.68 2.6 2.6 0 0 1-.141-.885q0-.686.346-1.172.351-.492.966-.75.621-.263 1.424-.263.686 0 1.266.128.586.13 1.072.346l-.31.856a7 7 0 0 0-.985-.323 4.4 4.4 0 0 0-1.066-.129q-.55 0-.932.165a1.26 1.26 0 0 0-.574.451 1.2 1.2 0 0 0-.199.697q0 .451.187.75.193.299.61.533.422.23 1.113.481.755.275 1.283.586.528.304.803.75.275.44.275 1.119m9.639 2.279h-4.77v-8.566h4.77v.878h-3.774v2.772h3.557v.867h-3.557v3.17h3.774zm4.037.117q-1.219 0-1.934-.832-.708-.832-.709-2.473 0-1.658.727-2.501.726-.85 1.934-.85.509 0 .89.135t.656.363q.276.222.463.51h.071a9 9 0 0 1-.047-.498 7 7 0 0 1-.024-.516v-2.572h.973V274h-.785l-.147-.914h-.041a2.22 2.22 0 0 1-1.125.896q-.38.135-.902.135m.152-.808q1.032 0 1.459-.586t.428-1.741v-.175q0-1.226-.41-1.881-.405-.656-1.477-.656-.896 0-1.342.691-.444.685-.445 1.875 0 1.183.44 1.828.446.645 1.347.645m6.703 3.574q-1.265 0-1.951-.475-.685-.469-.685-1.318 0-.603.381-1.031.386-.429 1.066-.569a1.2 1.2 0 0 1-.434-.351.88.88 0 0 1-.175-.539q0-.352.193-.616.2-.269.603-.515a1.76 1.76 0 0 1-.82-.692 2.1 2.1 0 0 1-.31-1.142q0-.692.287-1.178.286-.492.832-.75.544-.258 1.318-.258.17 0 .34.018.175.011.334.041.158.023.275.058h2.203v.627l-1.183.147q.176.228.293.551.117.322.117.714 0 .962-.65 1.53-.651.562-1.787.562-.27 0-.551-.047a1.4 1.4 0 0 0-.44.352.72.72 0 0 0-.146.445q0 .188.111.299.117.111.334.164.217.047.522.047h1.13q1.05 0 1.606.439.562.44.562 1.284 0 1.067-.867 1.634-.867.569-2.508.569m.03-.762q.796 0 1.318-.164.527-.158.785-.463.264-.298.264-.715 0-.387-.176-.586-.175-.193-.516-.257a4 4 0 0 0-.832-.071h-1.113q-.433 0-.756.135-.322.135-.498.398-.17.264-.17.657 0 .52.44.791.44.275 1.254.275m.252-5.133q.697 0 1.049-.351.351-.352.351-1.026 0-.72-.357-1.078-.358-.363-1.055-.363-.668 0-1.031.375-.358.369-.358 1.084 0 .656.364 1.008.363.351 1.037.351m6.914-3.527q.82 0 1.406.363t.896 1.02q.31.65.311 1.523v.604h-4.436q.018 1.131.563 1.722.545.592 1.535.592.61 0 1.078-.111.47-.112.973-.328v.855q-.486.217-.967.317a5.6 5.6 0 0 1-1.125.099q-.925 0-1.617-.375a2.6 2.6 0 0 1-1.066-1.113q-.381-.732-.381-1.793 0-1.037.345-1.793.352-.762.985-1.172.639-.41 1.5-.41m-.012.797q-.78 0-1.242.51-.463.509-.551 1.423h3.398a2.7 2.7 0 0 0-.181-1.007 1.4 1.4 0 0 0-.522-.68q-.351-.246-.902-.246M544.975 242.635q0 1.447-.528 2.42a3.4 3.4 0 0 1-1.529 1.459q-.996.486-2.42.486h-2.326v-8.566h2.584q1.307 0 2.25.48a3.3 3.3 0 0 1 1.453 1.412q.516.932.516 2.309m-1.049.035q0-1.154-.387-1.904a2.43 2.43 0 0 0-1.125-1.114q-.738-.369-1.81-.369h-1.436v6.862h1.213q1.77 0 2.654-.874.891-.873.891-2.601m6.72 4.33-2.876-7.582h-.047q.023.24.041.586.017.345.029.756.012.404.012.826V247h-.926v-8.566h1.476l2.713 7.125h.041l2.754-7.125h1.465V247h-.984v-5.484a28 28 0 0 1 .041-1.489q.017-.345.035-.597h-.047l-2.912 7.57zm12.258 0h-5.947v-.75l4.611-6.926h-4.453v-.89h5.666v.75l-4.617 6.925h4.74zm7.067-8.566q1.054 0 1.74.263.692.258 1.031.791.34.534.34 1.36 0 .68-.246 1.136a2.1 2.1 0 0 1-.645.733 3.3 3.3 0 0 1-.849.433l2.349 3.85h-1.16l-2.097-3.574h-1.782V247h-.996v-8.566zm-.059.861h-1.26v3.287h1.36q1.049 0 1.541-.428.498-.428.498-1.259 0-.874-.528-1.237-.52-.363-1.611-.363m11.631-.861v5.543q0 .907-.369 1.617-.363.708-1.102 1.119-.738.404-1.851.404-1.589 0-2.42-.861-.826-.861-.826-2.303v-5.519h1.002v5.548q0 1.09.574 1.682.58.592 1.728.592.786 0 1.283-.281.504-.288.745-.797.246-.516.246-1.19v-5.554zm5.936.755a3.2 3.2 0 0 0-1.278.247q-.562.24-.961.703a3.2 3.2 0 0 0-.603 1.107 4.7 4.7 0 0 0-.211 1.465q0 1.078.334 1.875.339.79 1.008 1.225.673.433 1.681.433.574 0 1.078-.094.51-.099.991-.246v.867a5 5 0 0 1-.985.258 7.4 7.4 0 0 1-1.224.088q-1.307 0-2.186-.539a3.37 3.37 0 0 1-1.312-1.535q-.434-.99-.434-2.338 0-.972.269-1.775.276-.808.797-1.395.528-.585 1.289-.902.768-.322 1.758-.322.651 0 1.254.128a4.6 4.6 0 0 1 1.09.37l-.398.843a6 6 0 0 0-.903-.322 3.8 3.8 0 0 0-1.054-.141M597.551 247h-1.178l-3.088-4.166-.914.82V247h-.996v-8.566h.996v4.271q.334-.381.686-.756.35-.381.697-.767l2.502-2.748h1.166l-3.41 3.714zm7.652-8.566v5.543q0 .907-.369 1.617a2.65 2.65 0 0 1-1.102 1.119q-.738.404-1.851.404-1.588 0-2.42-.861-.826-.861-.826-2.303v-5.519h1.002v5.548q0 1.09.574 1.682.58.592 1.728.592.786 0 1.284-.281.504-.288.744-.797.246-.516.246-1.19v-5.554zm7.108 6.287q0 .762-.381 1.3-.375.534-1.055.815t-1.6.281q-.486 0-.92-.047a6 6 0 0 1-.796-.134 3.4 3.4 0 0 1-.639-.217v-.955q.44.181 1.072.34.633.152 1.324.152.645 0 1.09-.17.446-.175.674-.498.234-.329.234-.785 0-.44-.193-.733-.194-.299-.644-.539a8.5 8.5 0 0 0-1.219-.521 6.6 6.6 0 0 1-.961-.422 3 3 0 0 1-.697-.527 2 2 0 0 1-.428-.68 2.6 2.6 0 0 1-.141-.885q0-.686.346-1.172.352-.492.967-.75.62-.264 1.424-.263.685 0 1.265.128a5.6 5.6 0 0 1 1.072.346l-.31.856a7 7 0 0 0-.984-.323 4.4 4.4 0 0 0-1.067-.129q-.55 0-.932.165a1.26 1.26 0 0 0-.574.451 1.2 1.2 0 0 0-.199.697q0 .451.188.75.193.299.609.533.421.23 1.113.481.756.275 1.283.586.528.304.803.75.276.44.276 1.119m9.638 2.279h-4.769v-8.566h4.769v.878h-3.773v2.772h3.556v.867h-3.556v3.17h3.773zm4.037.117q-1.218 0-1.933-.832-.71-.832-.709-2.473 0-1.658.726-2.501.727-.85 1.934-.85.51 0 .891.135.38.135.656.363.275.222.463.51h.07a10 10 0 0 1-.07-1.014v-2.572h.972V247h-.785l-.146-.914h-.041a2.24 2.24 0 0 1-1.125.896q-.381.135-.903.135m.153-.808q1.03 0 1.459-.586.427-.586.427-1.741v-.175q0-1.226-.41-1.881-.403-.656-1.476-.656-.897 0-1.342.691-.445.685-.445 1.875 0 1.183.439 1.828.445.645 1.348.645m6.703 3.574q-1.266 0-1.951-.475-.686-.469-.686-1.318 0-.603.381-1.031.387-.429 1.066-.569a1.17 1.17 0 0 1-.433-.351.88.88 0 0 1-.176-.539q0-.352.193-.616.2-.269.604-.515a1.75 1.75 0 0 1-.82-.692 2.1 2.1 0 0 1-.311-1.142q0-.692.287-1.178.288-.492.832-.75.545-.258 1.318-.258.17 0 .34.018.177.011.334.041.159.023.276.058h2.203v.627l-1.184.147q.176.228.293.551.117.322.117.714 0 .962-.65 1.53-.65.562-1.787.562-.27 0-.551-.047a1.4 1.4 0 0 0-.439.352.7.7 0 0 0-.147.445q0 .188.111.299.118.111.334.164.217.047.522.047h1.131q1.048 0 1.605.439.563.44.563 1.284 0 1.067-.867 1.634-.868.569-2.508.569m.029-.762q.797 0 1.318-.164.528-.158.786-.463.263-.298.263-.715 0-.387-.176-.586-.176-.193-.515-.257a4 4 0 0 0-.832-.071h-1.113q-.434 0-.756.135t-.498.398q-.17.264-.17.657 0 .52.439.791.44.275 1.254.275m.252-5.133q.698 0 1.049-.351.351-.352.351-1.026 0-.72-.357-1.078-.357-.363-1.055-.363-.668 0-1.031.375-.357.369-.357 1.084 0 .655.363 1.008.363.351 1.037.351m6.914-3.527q.82 0 1.406.363.587.363.897 1.02.31.65.31 1.523v.604h-4.435q.018 1.131.562 1.722.546.592 1.535.592.61 0 1.079-.111.468-.112.972-.328v.855q-.486.217-.967.317a5.6 5.6 0 0 1-1.125.099q-.925 0-1.617-.375a2.62 2.62 0 0 1-1.066-1.113q-.381-.732-.381-1.793 0-1.037.346-1.793.351-.761.984-1.172.639-.41 1.5-.41m-.012.797q-.779 0-1.242.51-.462.509-.551 1.423h3.399a2.8 2.8 0 0 0-.182-1.007 1.4 1.4 0 0 0-.521-.68q-.352-.246-.903-.246M374.486 160.434q1.055 0 1.741.263.691.258 1.031.791.34.534.34 1.36 0 .68-.246 1.136a2.1 2.1 0 0 1-.645.733 3.3 3.3 0 0 1-.85.433l2.35 3.85h-1.16l-2.098-3.574h-1.781V169h-.996v-8.566zm-.058.861h-1.26v3.287h1.359q1.05 0 1.541-.428.498-.428.498-1.259 0-.874-.527-1.237-.522-.363-1.611-.363m10.541 4.482q0 .791-.205 1.412a2.9 2.9 0 0 1-.592 1.049q-.386.428-.938.657a3.3 3.3 0 0 1-1.236.222q-.645 0-1.184-.222a2.7 2.7 0 0 1-.925-.657 3 3 0 0 1-.604-1.049 4.4 4.4 0 0 1-.211-1.412q0-1.054.358-1.793a2.54 2.54 0 0 1 1.019-1.13q.668-.393 1.588-.393.88 0 1.535.393.662.392 1.026 1.136.369.738.369 1.787m-4.887 0q0 .774.205 1.342t.633.879 1.101.311q.669 0 1.096-.311.433-.31.639-.879.205-.568.205-1.342 0-.767-.205-1.324-.206-.562-.633-.867t-1.107-.305q-1.002 0-1.471.662-.463.663-.463 1.834m11.871-3.199V169h-.797l-.14-.902h-.053q-.2.333-.516.562a2.2 2.2 0 0 1-.715.34 3 3 0 0 1-.837.117q-.762 0-1.278-.246a1.65 1.65 0 0 1-.779-.762q-.258-.515-.258-1.324v-4.207h.984v4.137q0 .802.364 1.201.363.393 1.107.393.715 0 1.137-.27a1.5 1.5 0 0 0 .615-.791q.188-.528.188-1.289v-3.381zm4.131 5.742a3 3 0 0 0 .902-.14v.756q-.17.075-.474.128-.3.054-.586.053-.51 0-.926-.176a1.44 1.44 0 0 1-.668-.609q-.246-.428-.246-1.184v-3.808h-.914v-.475l.92-.381.387-1.394h.585v1.488h1.881v.762h-1.881v3.779q0 .603.276.902.28.3.744.299m4.676-5.859q.82 0 1.406.363t.896 1.02q.312.65.311 1.523v.604h-4.435q.017 1.131.562 1.722.545.592 1.535.592.61 0 1.078-.111.47-.112.973-.328v.855q-.486.217-.967.317a5.6 5.6 0 0 1-1.125.099q-.925 0-1.617-.375a2.6 2.6 0 0 1-1.066-1.113q-.381-.732-.381-1.793 0-1.037.345-1.793.352-.761.985-1.172.639-.41 1.5-.41m-.012.797q-.78 0-1.242.51-.463.509-.551 1.423h3.399a2.8 2.8 0 0 0-.182-1.007 1.4 1.4 0 0 0-.522-.68q-.351-.246-.902-.246m7.195-.797q.194 0 .405.023.21.018.375.053l-.123.902a2.948 2.948 0 0 0-.715-.087q-.387 0-.733.158-.339.152-.597.445a2.1 2.1 0 0 0-.405.697q-.146.405-.146.903V169h-.979v-6.422h.809l.105 1.184h.041q.2-.358.481-.651.28-.299.65-.474.375-.176.832-.176M372.172 86v-8.566h.996V86zm6.246-6.54q1.143 0 1.728.563.586.557.586 1.793V86h-.961v-4.12q0-.802-.369-1.2-.363-.399-1.119-.399-1.067 0-1.5.604-.433.603-.433 1.752V86h-.973v-6.422h.785l.147.926h.052q.205-.34.522-.569a2.3 2.3 0 0 1 .709-.351q.393-.123.826-.123m6.393 5.86a3 3 0 0 0 .902-.14v.755q-.17.076-.475.13a3.4 3.4 0 0 1-.586.052 2.35 2.35 0 0 1-.925-.176 1.43 1.43 0 0 1-.668-.609q-.246-.428-.247-1.184V80.34h-.914v-.475l.92-.38.387-1.395h.586v1.488h1.881v.762h-1.881v3.78q0 .602.275.901.282.3.745.3m4.675-5.86q.82 0 1.407.364.585.363.896 1.02.31.65.311 1.523v.604h-4.436q.018 1.131.563 1.722.545.592 1.535.592.609 0 1.078-.111.469-.112.972-.328v.855q-.486.217-.966.317-.476.1-1.125.1-.926 0-1.617-.376a2.6 2.6 0 0 1-1.067-1.113q-.381-.732-.381-1.793 0-1.038.346-1.793.351-.762.984-1.172.639-.41 1.5-.41m-.011.798q-.78 0-1.243.51-.462.51-.55 1.423h3.398a2.7 2.7 0 0 0-.182-1.007 1.4 1.4 0 0 0-.521-.68q-.351-.246-.902-.246m7.195-.797q.194 0 .404.023.211.018.375.053l-.123.902a3.036 3.036 0 0 0-.715-.088q-.386 0-.732.159-.34.152-.598.445a2.1 2.1 0 0 0-.404.697q-.147.404-.147.903V86h-.978v-6.422h.809l.105 1.184h.041q.2-.358.481-.65.28-.3.65-.475.375-.177.832-.176m5.033 0q1.143 0 1.729.562.585.557.586 1.793V86h-.961v-4.12q0-.802-.369-1.2-.364-.399-1.12-.399-1.067 0-1.5.604-.433.603-.433 1.752V86h-.973v-6.422h.785l.147.926h.052q.206-.34.522-.569a2.3 2.3 0 0 1 .709-.351q.393-.123.826-.123m6.791 0q.82 0 1.406.363.587.363.897 1.02.31.65.31 1.523v.604h-4.435q.018 1.131.562 1.722.545.592 1.536.592.609 0 1.078-.111.468-.112.972-.328v.855q-.486.217-.966.317-.476.1-1.125.1-.927 0-1.618-.376a2.62 2.62 0 0 1-1.066-1.113q-.381-.732-.381-1.793 0-1.038.346-1.793.351-.762.984-1.172.639-.41 1.5-.41m-.012.797q-.778 0-1.242.51-.462.51-.551 1.423h3.399a2.8 2.8 0 0 0-.182-1.007 1.4 1.4 0 0 0-.521-.68q-.352-.246-.903-.246m6.352 5.062a3 3 0 0 0 .902-.14v.755q-.17.076-.474.13-.3.052-.586.052-.51 0-.926-.176a1.44 1.44 0 0 1-.668-.609q-.246-.428-.246-1.184V80.34h-.914v-.475l.92-.38.387-1.395h.585v1.488h1.881v.762h-1.881v3.78q0 .602.276.901.28.3.744.3M377.006 385.721q0 .762-.381 1.3-.375.534-1.055.815t-1.599.281a8 8 0 0 1-.92-.047 6 6 0 0 1-.797-.134 3.4 3.4 0 0 1-.639-.217v-.955a8 8 0 0 0 1.073.34q.632.152 1.324.152.644 0 1.09-.17.445-.175.673-.498.235-.329.235-.785 0-.44-.194-.733-.192-.299-.644-.539a8.4 8.4 0 0 0-1.219-.521 6.6 6.6 0 0 1-.961-.422 3 3 0 0 1-.697-.527 2 2 0 0 1-.428-.68 2.6 2.6 0 0 1-.14-.885q0-.686.345-1.172.352-.492.967-.75.621-.264 1.424-.263.685 0 1.266.128.586.13 1.072.346l-.311.856a7 7 0 0 0-.984-.323 4.4 4.4 0 0 0-1.067-.129q-.55 0-.931.165-.376.157-.574.451-.2.292-.2.697 0 .452.188.75.194.299.609.533.422.23 1.114.481.755.275 1.283.586.527.305.802.75.276.44.276 1.119m6.832 2.267-1.143-3.738-.146-.469-.123-.445q-.053-.217-.1-.398l-.07-.323h-.041a8 8 0 0 1-.164.721 20 20 0 0 1-.117.457 8 8 0 0 1-.147.475l-1.195 3.72h-1.096l-1.769-6.422h1.007l.926 3.545q.094.352.176.698.088.34.146.644.065.298.094.522h.047q.035-.147.076-.352l.1-.434a16 16 0 0 1 .252-.902l1.183-3.721h1.049l1.143 3.715q.087.282.17.586.087.305.158.592.07.28.1.504h.046q.024-.2.088-.492.065-.293.147-.645.088-.35.181-.715l.938-3.545h.99l-1.775 6.422zm5.051-6.41V388h-.973v-6.422zm-.475-2.402q.24 0 .41.158.176.153.176.48 0 .322-.176.481a.58.58 0 0 1-.41.158.6.6 0 0 1-.422-.158q-.164-.159-.164-.481 0-.327.164-.48a.6.6 0 0 1 .422-.158m4.611 8.144a3 3 0 0 0 .903-.14v.756q-.17.075-.475.128a3.3 3.3 0 0 1-.586.053q-.51 0-.926-.176a1.44 1.44 0 0 1-.668-.609q-.246-.428-.246-1.184v-3.808h-.914v-.475l.92-.381.387-1.394h.586v1.488h1.881v.762h-1.881v3.779q0 .603.275.902.282.3.744.299m4.776.797q-.867 0-1.53-.357a2.46 2.46 0 0 1-1.031-1.09q-.369-.733-.369-1.846 0-1.166.387-1.904.393-.744 1.078-1.102.685-.357 1.559-.357.48 0 .925.1.451.093.739.24l-.293.814a5 5 0 0 0-.68-.211 3 3 0 0 0-.715-.093q-.668 0-1.113.287-.44.286-.662.843-.217.557-.217 1.371 0 .78.211 1.331.216.55.639.843.427.288 1.066.287.51 0 .92-.105.41-.111.744-.258v.867a3 3 0 0 1-.721.252 4.3 4.3 0 0 1-.937.088m4.154-9.234v2.724q0 .235-.012.475a4 4 0 0 1-.041.434h.065q.2-.34.504-.569.31-.234.703-.351.393-.123.832-.123.773 0 1.289.246.522.246.779.761.264.517.264 1.336V388h-.961v-4.119q0-.803-.369-1.201-.363-.399-1.119-.399-.716 0-1.143.276-.421.269-.609.797-.182.527-.182 1.289V388h-.973v-9.117zM377.545 463l-1.055-2.719h-3.433L372.008 463H371l3.352-8.602h.896l3.328 8.602zm-1.354-3.604-1.002-2.701-.117-.345-.158-.498-.135-.416q-.058.24-.129.48-.064.234-.129.439-.064.2-.111.34l-1.019 2.701zm6 3.721q-.867 0-1.529-.357a2.46 2.46 0 0 1-1.031-1.09q-.369-.733-.369-1.846 0-1.166.386-1.904a2.54 2.54 0 0 1 1.079-1.102q.685-.357 1.558-.357.48 0 .926.1.452.093.738.24l-.293.814a5 5 0 0 0-.679-.211 3 3 0 0 0-.715-.093q-.669 0-1.114.287-.439.286-.662.843-.216.557-.216 1.371 0 .78.21 1.331.217.55.639.843.428.288 1.067.287.509 0 .919-.105.41-.111.745-.258v.867a3 3 0 0 1-.721.252 4.3 4.3 0 0 1-.938.088m5.754 0q-.867 0-1.529-.357a2.46 2.46 0 0 1-1.031-1.09q-.369-.733-.369-1.846 0-1.166.386-1.904.393-.744 1.078-1.102.687-.357 1.559-.357.48 0 .926.1.452.093.738.24l-.293.814a5 5 0 0 0-.68-.211 3 3 0 0 0-.714-.093q-.669 0-1.114.287-.439.286-.662.843-.216.557-.217 1.371 0 .78.211 1.331.217.55.639.843.428.288 1.066.287.51 0 .92-.105.41-.111.745-.258v.867q-.323.165-.721.252a4.3 4.3 0 0 1-.938.088m5.655-6.656q.82 0 1.406.363.585.363.896 1.02.31.65.311 1.523v.604h-4.436q.018 1.131.563 1.722.545.592 1.535.592.61 0 1.078-.111.47-.112.973-.328v.855q-.486.217-.967.317a5.6 5.6 0 0 1-1.125.099q-.925 0-1.617-.375a2.63 2.63 0 0 1-1.067-1.113q-.38-.732-.38-1.793 0-1.037.345-1.793.352-.762.985-1.172.637-.41 1.5-.41m-.012.797q-.78 0-1.242.51-.463.509-.551 1.423h3.398a2.8 2.8 0 0 0-.181-1.007 1.4 1.4 0 0 0-.522-.68q-.351-.246-.902-.246m8.432 3.984q0 .615-.311 1.037-.304.417-.879.627-.569.211-1.359.211-.675 0-1.166-.105a3.4 3.4 0 0 1-.862-.299v-.897q.393.193.938.352t1.113.158q.832 0 1.207-.269a.86.86 0 0 0 .375-.733.74.74 0 0 0-.152-.463q-.147-.204-.498-.392a7.4 7.4 0 0 0-.973-.422q-.615-.235-1.066-.463a2 2 0 0 1-.692-.568q-.24-.334-.24-.868 0-.815.656-1.248.663-.44 1.735-.439.58 0 1.084.117.51.111.949.305l-.328.779a6 6 0 0 0-.85-.287 3.7 3.7 0 0 0-.92-.117q-.674 0-1.037.222-.357.223-.357.61 0 .299.164.492.17.194.539.363.369.17.972.399.604.222 1.043.463.44.234.674.574.24.334.241.861m5.718 0q0 .615-.31 1.037-.304.417-.879.627-.568.211-1.36.211-.673 0-1.166-.105a3.4 3.4 0 0 1-.861-.299v-.897q.393.193.938.352t1.113.158q.832 0 1.207-.269a.86.86 0 0 0 .375-.733.74.74 0 0 0-.152-.463q-.147-.204-.498-.392a7.4 7.4 0 0 0-.973-.422q-.615-.235-1.067-.463a2 2 0 0 1-.691-.568q-.24-.334-.24-.868 0-.815.656-1.248.662-.44 1.734-.439.58 0 1.084.117.51.111.95.305l-.328.779a6 6 0 0 0-.85-.287 3.7 3.7 0 0 0-.92-.117q-.674 0-1.037.222-.357.223-.358.61 0 .299.165.492.169.194.539.363.369.17.972.399.604.222 1.043.463.44.234.674.574.24.334.24.861m7.067-6.808q1.658 0 2.42.65.767.645.767 1.852 0 .545-.181 1.037a2.2 2.2 0 0 1-.575.861q-.398.369-1.048.586-.645.211-1.583.211h-1.043V463h-.996v-8.566zm-.094.849h-1.149v3.492h.932q.82 0 1.365-.175.552-.177.827-.569.275-.398.275-1.054 0-.856-.545-1.272-.545-.422-1.705-.422m10.465 4.494q0 .791-.205 1.412a2.9 2.9 0 0 1-.592 1.049q-.386.428-.938.657a3.3 3.3 0 0 1-1.236.222q-.644 0-1.184-.222a2.7 2.7 0 0 1-.925-.657 3 3 0 0 1-.604-1.049 4.4 4.4 0 0 1-.211-1.412q0-1.054.358-1.793a2.54 2.54 0 0 1 1.019-1.13q.669-.393 1.588-.393.88 0 1.535.393.662.392 1.026 1.136.369.738.369 1.787m-4.887 0q0 .774.205 1.342.206.568.633.879.427.31 1.102.311.667 0 1.095-.311.433-.31.639-.879.205-.568.205-1.342 0-.767-.205-1.324-.205-.562-.633-.867t-1.107-.305q-1.002 0-1.471.662-.463.663-.463 1.834m7.541-3.199V463h-.973v-6.422zm-.475-2.402q.24 0 .411.158.175.153.175.48 0 .322-.175.481a.58.58 0 0 1-.411.158.6.6 0 0 1-.421-.158q-.164-.159-.164-.481 0-.327.164-.48a.6.6 0 0 1 .421-.158m5.579 2.285q1.142 0 1.728.562.586.558.586 1.793V463h-.961v-4.119q0-.803-.369-1.201-.363-.399-1.119-.399-1.067 0-1.5.604-.434.603-.434 1.752V463h-.972v-6.422h.785l.146.926h.053q.206-.34.521-.568.317-.235.709-.352.393-.123.827-.123m6.392 5.859a3 3 0 0 0 .903-.14v.756q-.17.075-.475.128a3.3 3.3 0 0 1-.586.053q-.51 0-.926-.176a1.44 1.44 0 0 1-.668-.609q-.246-.428-.246-1.184v-3.808h-.914v-.475l.92-.381.387-1.394h.586v1.488h1.881v.762h-1.881v3.779q0 .603.275.902.282.3.744.299"/><path fill="#ACAEB0" fill-rule="evenodd" d="M312.631 175a2.613 2.613 0 0 0-2.613 2.613v26.131a2.613 2.613 0 0 0 2.613 2.613h28.221v-1.046h-3.135v-4.704h-1.045v4.704h-12.543v-4.704h-1.045v4.704h-10.453a1.566 1.566 0 0 1-1.567-1.567v-3.137h27.698v-1.045h-7.317v-5.225h7.317v-1.045h-1.045v-5.226h-1.045v5.226h-12.543v-5.226h-1.045v5.226h-12.02v-5.227h38.15v-1.045h-38.15v-5.226h5.749v5.226h1.045v-5.226H330.4v5.226h1.045v-5.226h12.543v5.226h1.045v-5.226h4.181v-1.045h-11.497v-4.704h10.452c.866 0 1.568.702 1.568 1.568v12.02h1.045v-12.02a2.613 2.613 0 0 0-2.613-2.613zm17.769 19.337h-12.542v5.225H330.4zm-13.587 0v5.225h-5.749v-5.225zm19.859-18.292v4.704h-12.543v-4.704zm-13.588 0h-10.453c-.866 0-1.567.702-1.567 1.568v3.136h12.02zm29.232 20.678a.785.785 0 0 1 0 1.109l-4.573 4.572a.783.783 0 0 1-1.108 0l-2.287-2.286a.783.783 0 1 1 1.109-1.109l1.732 1.732 4.019-4.018a.783.783 0 0 1 1.108 0m-4.893-5.522a.4.4 0 0 1 .4.001c2.293 1.344 4.858 1.923 6.565 2.123.201.023.314.18.314.311v4.783c-.063 5.316-4.366 8.53-6.979 9.668a.18.18 0 0 1-.144-.009c-5.856-2.832-7.069-7.668-6.984-9.613l.001-.021v-4.807c0-.128.11-.283.31-.304 2.741-.298 5.133-1.339 6.517-2.132m1.193-1.351a1.97 1.97 0 0 0-1.972-.009c-1.252.717-3.436 1.664-5.908 1.933-.921.1-1.708.863-1.708 1.863v4.774c-.103 2.519 1.411 7.955 7.868 11.078.446.216.977.242 1.453.035 2.842-1.238 7.85-4.857 7.92-11.092v-4.796c0-.996-.779-1.761-1.698-1.869-1.575-.184-3.91-.718-5.955-1.917" clip-rule="evenodd"/><path fill="#ACAEB0" d="M340.852 206.357v.15h.15v-.15zm0-1.046h.15v-.15h-.15zm-3.135 0h-.15v.15h.15zm0-4.704h.15v-.15h-.15zm-1.045 0v-.15h-.15v.15zm0 4.704v.15h.15v-.15zm-12.543 0h-.15v.15h.15zm0-4.704h.15v-.15h-.15zm-1.045 0v-.15h-.15v.15zm0 4.704v.15h.15v-.15zm-12.02-4.704v-.15h-.15v.15zm27.698 0v.15h.15v-.15zm0-1.045h.15v-.15h-.15zm-7.317 0h-.15v.15h.15zm0-5.225v-.15h-.15v.15zm7.317 0v.15h.15v-.15zm0-1.045h.15v-.15h-.15zm-1.045 0h-.15v.15h.15zm0-5.226h.15v-.15h-.15zm-1.045 0v-.15h-.15v.15zm0 5.226v.15h.15v-.15zm-12.543 0h-.15v.15h.15zm0-5.226h.15v-.15h-.15zm-1.045 0v-.15h-.15v.15zm0 5.226v.15h.15v-.15zm-12.02 0h-.15v.15h.15zm0-5.227v-.15h-.15v.15zm38.15 0v.15h.15v-.15zm0-1.045h.15v-.15h-.15zm-38.15 0h-.15v.15h.15zm0-5.226v-.15h-.15v.15zm5.749 0h.15v-.15h-.15zm0 5.226h-.15v.15h.15zm1.045 0v.15h.15v-.15zm0-5.226v-.15h-.15v.15zm12.542 0h.15v-.15h-.15zm0 5.226h-.15v.15h.15zm1.045 0v.15h.15v-.15zm0-5.226v-.15h-.15v.15zm12.543 0h.15v-.15h-.15zm0 5.226h-.15v.15h.15zm1.045 0v.15h.15v-.15zm0-5.226v-.15h-.15v.15zm4.181 0v.15h.15v-.15zm0-1.045h.15v-.15h-.15zm-11.497 0h-.15v.15h.15zm0-4.704v-.15h-.15v.15zm12.02 13.588h-.15v.15h.15zm1.045 0v.15h.15v-.15zm-32.924 4.704v-.15h-.15v.15zm12.542 0h.15v-.15h-.15zm-12.542 5.225h-.15v.15h.15zm12.542 0v.15h.15v-.15zm-13.587 0v.15h.15v-.15zm0-5.225h.15v-.15h-.15zm-5.749 5.225h-.15v.15h.15zm0-5.225v-.15h-.15v.15zm25.608-13.588v.15h.15v-.15zm0-4.704h.15v-.15h-.15zm-12.543 4.704h-.15v.15h.15zm0-4.704v-.15h-.15v.15zm-1.045 0h.15v-.15h-.15zm-12.02 4.704h-.15v.15h.15zm12.02 0v.15h.15v-.15zm29.232 17.083.106.106zm-4.573 4.572-.106-.106zm-1.108 0 .106-.106zm-2.287-2.286.106-.106zm1.109-1.109.106-.106zm1.732 1.732-.106.107.106.106.106-.106zm4.019-4.018.106.106zm-3.385-5.521-.076.13zm-.4-.001.075.131zm6.965 2.124.018-.149zm.314 5.094.15.001v-.001zm-6.979 9.668-.06-.138zm-.144-.009.065-.135zm-6.984-9.613.15.006zm.001-.021.15.007v-.007zm.31-5.111.016.149zm5.738-3.492-.074-.13zm1.972.009.076-.13zm-7.88 1.924-.016-.149zm-1.708 6.637.15.006v-.006zm7.868 11.078.065-.135zm1.453.035-.06-.138zm7.92-11.092.15.002v-.002zm-1.698-6.665.017-.149zm-44.403-14.154a2.463 2.463 0 0 1 2.463-2.463v-.3a2.763 2.763 0 0 0-2.763 2.763zm0 26.131v-26.131h-.3v26.131zm2.463 2.463a2.463 2.463 0 0 1-2.463-2.463h-.3a2.763 2.763 0 0 0 2.763 2.763zm28.221 0h-28.221v.3h28.221zm-.15-.896v1.046h.3v-1.046zm-2.985.15h3.135v-.3h-3.135zm-.15-4.854v4.704h.3v-4.704zm-.895.15h1.045v-.3h-1.045zm.15 4.554v-4.704h-.3v4.704zm-12.693.15h12.543v-.3h-12.543zm-.15-4.854v4.704h.3v-4.704zm-.895.15h1.045v-.3h-1.045zm.15 4.554v-4.704h-.3v4.704zm-10.603.15h10.453v-.3h-10.453zm-1.717-1.717c0 .948.769 1.717 1.717 1.717v-.3a1.416 1.416 0 0 1-1.417-1.417zm0-3.137v3.137h.3v-3.137zm27.848-.15h-27.698v.3h27.698zm-.15-.895v1.045h.3v-1.045zm-7.167.15h7.317v-.3h-7.317zm-.15-5.375v5.225h.3v-5.225zm7.467-.15h-7.317v.3h7.317zm-.15-.895v1.045h.3v-1.045zm-.895.15h1.045v-.3h-1.045zm-.15-5.376v5.226h.3v-5.226zm-.895.15h1.045v-.3h-1.045zm.15 5.076v-5.226h-.3v5.226zm-12.693.15h12.543v-.3h-12.543zm-.15-5.376v5.226h.3v-5.226zm-.895.15h1.045v-.3h-1.045zm.15 5.076v-5.226h-.3v5.226zm-12.17.15h12.02v-.3h-12.02zm-.15-5.377v5.227h.3v-5.227zm38.3-.15h-38.15v.3h38.15zm-.15-.895v1.045h.3v-1.045zm-38 .15h38.15v-.3h-38.15zm-.15-5.376v5.226h.3v-5.226zm5.899-.15h-5.749v.3h5.749zm.15 5.376v-5.226h-.3v5.226zm.895-.15h-1.045v.3h1.045zm-.15-5.076v5.226h.3v-5.226zm12.692-.15h-12.542v.3H330.4zm.15 5.376v-5.226h-.3v5.226zm.895-.15H330.4v.3h1.045zm-.15-5.076v5.226h.3v-5.226zm12.693-.15h-12.543v.3h12.543zm.15 5.376v-5.226h-.3v5.226zm.895-.15h-1.045v.3h1.045zm-.15-5.076v5.226h.3v-5.226zm4.331-.15h-4.181v.3h4.181zm-.15-.895v1.045h.3v-1.045zm-11.347.15h11.497v-.3h-11.497zm-.15-4.854v4.704h.3v-4.704zm10.602-.15h-10.452v.3h10.452zm1.718 1.718c0-.949-.769-1.718-1.718-1.718v.3c.783 0 1.418.635 1.418 1.418zm0 12.02v-12.02h-.3v12.02zm.895-.15h-1.045v.3h1.045zm-.15-11.87v12.02h.3v-12.02zm-2.463-2.463a2.463 2.463 0 0 1 2.463 2.463h.3a2.763 2.763 0 0 0-2.763-2.763zm-35.538 0h35.538v-.3h-35.538zm5.227 19.337H330.4v-.3h-12.542zm.15 5.075v-5.225h-.3v5.225zm12.392-.15h-12.542v.3H330.4zm-.15-5.075v5.225h.3v-5.225zm-13.287 5.225v-5.225h-.3v5.225zm-5.899.15h5.749v-.3h-5.749zm-.15-5.375v5.225h.3v-5.225zm5.899-.15h-5.749v.3h5.749zm20.009-13.438v-4.704h-.3v4.704zm-12.693.15h12.543v-.3h-12.543zm-.15-4.854v4.704h.3v-4.704zm12.693-.15h-12.543v.3h12.543zm-24.041.3h10.453v-.3h-10.453zm-1.417 1.418c0-.783.634-1.418 1.417-1.418v-.3c-.948 0-1.717.769-1.717 1.718zm0 3.136v-3.136h-.3v3.136zm11.87-.15h-12.02v.3h12.02zm-.15-4.554v4.704h.3v-4.704zm29.488 21.893a.934.934 0 0 0 0-1.321l-.212.212a.634.634 0 0 1 0 .897zm-4.573 4.572 4.573-4.572-.212-.212-4.573 4.572zm-1.32 0a.93.93 0 0 0 1.32 0l-.212-.212a.633.633 0 0 1-.896 0zm-2.287-2.286 2.287 2.286.212-.212-2.287-2.286zm0-1.321a.934.934 0 0 0 0 1.321l.212-.212a.634.634 0 0 1 0-.896zm1.321 0a.936.936 0 0 0-1.321 0l.212.213a.634.634 0 0 1 .897 0zm1.732 1.732-1.732-1.732-.212.213 1.732 1.732zm3.806-4.018-4.018 4.018.212.213 4.019-4.019zm1.321 0a.934.934 0 0 0-1.321 0l.213.212a.634.634 0 0 1 .896 0zm-4.523-5.544a.55.55 0 0 0-.55-.002l.149.261a.25.25 0 0 1 .249 0zm6.507 2.103c-1.695-.199-4.238-.773-6.507-2.103l-.152.259c2.316 1.358 4.904 1.94 6.624 2.142zm.446.46c0-.21-.173-.428-.446-.46l-.035.298c.128.014.181.11.181.162zm0 4.783v-4.783h-.3v4.783zm-7.069 9.805c2.635-1.147 7.005-4.4 7.069-9.804l-.3-.003c-.062 5.228-4.298 8.404-6.889 9.532zm-.27-.011a.32.32 0 0 0 .27.011l-.12-.275c.006-.003-.001.003-.019-.006zm-7.068-9.755c-.087 2 1.154 6.894 7.068 9.755l.131-.27c-5.797-2.804-6.981-7.581-6.899-9.472zm.001-.02-.001.02.3.013.001-.02zm0-4.801v4.807h.3v-4.807zm.444-.454c-.274.03-.444.247-.444.454h.3c0-.049.05-.142.176-.155zm6.459-2.112c-1.372.786-3.744 1.817-6.459 2.112l.032.299c2.767-.301 5.179-1.35 6.576-2.15zm-.63-1.1a1.82 1.82 0 0 1 1.821.008l.152-.259a2.12 2.12 0 0 0-2.122-.009zm-5.967 1.952c2.498-.271 4.702-1.228 5.967-1.952l-.149-.26c-1.24.71-3.404 1.648-5.85 1.914zm-1.574 1.714c0-.916.721-1.621 1.574-1.714l-.032-.298c-.99.107-1.842.927-1.842 2.012zm0 4.774v-4.774h-.3v4.774zm7.783 10.943c-6.398-3.095-7.884-8.472-7.783-10.937l-.3-.012c-.105 2.573 1.437 8.068 7.953 11.219zm1.328.032a1.6 1.6 0 0 1-1.328-.032l-.13.27c.483.234 1.06.263 1.578.037zm7.83-10.956c-.069 6.147-5.009 9.728-7.83 10.956l.12.275c2.864-1.247 7.939-4.904 8.01-11.227zm0-4.794v4.796h.3v-4.796zm-1.566-1.72c.851.1 1.566.807 1.566 1.72h.3c0-1.08-.844-1.902-1.831-2.018zm-6.013-1.937c2.069 1.213 4.426 1.751 6.013 1.937l.035-.298c-1.562-.183-3.875-.713-5.896-1.898z"/><path stroke="#333" stroke-width="1.5" d="M364 191c0 17.674-14.327 32-31.999 32S300 208.674 300 191s14.329-32 32.001-32S364 173.326 364 191Z" clip-rule="evenodd"/><path stroke="#808284" stroke-linejoin="round" stroke-width=".5" d="M316.286 462.576c-1.759.721-5.095 1.488-5.952 1.353l-.316-.045c.166.195.726.621 1.804.766 1.668.226 3.337.076 4.329 0 .586-.045 13.347-2.074 21.102-2.66s18.848-1.263 20.787-1.263 3.507-.295 3.923-.451c.361-.135.842-.42 1.037-.541 0 0-.045-.451-.135-.586s-.226.045-.496.045c-.271 0-.992 0-4.329-.631s-13.662-1.037-20.787-.586-19.209 3.878-20.967 4.599Z"/><path stroke="#808284" stroke-linecap="round" d="M299.377 447.245c3.216 5.08 9.802 15.493 10.416 16.503.766 1.262 3.246 1.217 4.058 1.217s20.371-.96 25.431-1.397c4.69-.406 19.254-2.075 21.509-2.706 1.172-.328 1.893-.812 2.074-.947"/><path fill="#F7F7F7" d="M316.286 462.576c-1.759.721-5.096 1.488-5.952 1.353l-.316-.045c.165.195.726.621 1.804.766 1.668.226 3.336.077 4.328 0 .587-.045 13.347-2.074 21.103-2.66s18.848-1.263 20.787-1.263 3.507-.295 3.923-.451c.361-.135.841-.42 1.037-.541 0 0-.045-.451-.135-.586s-.226.045-.496.045c-.271 0-.992 0-4.329-.631s-13.663-1.037-20.787-.586-19.209 3.878-20.967 4.599"/><path stroke="#333" d="M309.522 469.43c-.325-.577-7.139-12.295-10.506-18.082v-3.878c-.105-.586.261-1.966 2.57-2.795 2.886-1.037 14.249-2.435 20.201-2.615 5.366-.163 12.49.045 14.97.18s4.825.857 6.223 2.074c1.397 1.218 19.389 14.294 19.704 14.564.253.217.316.752.316.992l-.226 4.735c.046.135-.057.562-.946.902-3.067 1.172-18.127 3.021-23.312 3.562-5.998.626-21.554 1.533-25.838 1.533-1.353 0-2.75-.451-3.156-1.172Z"/><path stroke="#333" d="M311.687 470.557c.195.361.622 1.136.766 1.353.18.27.812.36 1.714.315s20.426-1.082 26.468-1.848c6.042-.767 16.954-2.661 17.585-2.886s.992-.632 1.037-.812c.036-.144.106-.391.136-.496"/><path fill="#333" d="m333.15 463.928-.316-.406.316-.018.361.424v.902h-.361z"/><path fill="#808284" d="m333.15 463.928-.316-.406.316-.018.361.424v.902h-.361zM335.72 463.703l-.361-.361h.361l.361.361v.902h-.361zM338.245 463.523l-.361-.36h.361l.361.36v.902h-.361zM340.68 463.253l-.361-.361h.361l.361.361v.902h-.361zM343.115 462.982l-.361-.361h.361l.361.361v.902h-.361zM345.55 462.711l-.361-.361h.361l.36.361v.902h-.36z"/><path fill="#C4C4C4" d="M339.428 456.213q-.603-.457.483-.532 1.054-.072 1.643.374l.772.586-.585.04-.775-.588q-.325-.247-.816-.213c-.329.023-.377.113-.168.271l.787.597-.583.04zM336.58 455.968c.183-.055.413-.09.672-.103a4 4 0 0 1 1.117.073c.363.082.661.206.823.343.209.146.259.299.136.421-.132.121-.419.2-.796.219-.214.018-.448.02-.69.007l-.29-.22c.234.029.466.036.671.02.226-.012.395-.061.468-.135.069-.076.034-.169-.097-.259-.103-.087-.29-.166-.52-.219a2.3 2.3 0 0 0-.684-.049 1.7 1.7 0 0 0-.538.108zM332.043 456.719q-.603-.457.483-.531 1.054-.073 1.643.374l.772.585-.585.041-.776-.589q-.323-.246-.816-.212c-.328.022-.376.112-.167.27l.787.597-.584.04zM331.178 456.342l.299.226a3.6 3.6 0 0 0-.849-.054 2 2 0 0 0-.182.021.5.5 0 0 0-.109.031q-.034.015-.039.038-.003.02.026.043a.4.4 0 0 0 .112.048q.083.023.174.035.115.017.229.026.127.012.271.022c.21.013.424.044.624.091.164.042.297.1.376.163q.1.072.098.142-.007.063-.097.109a1 1 0 0 1-.253.076q-.167.03-.363.043a6 6 0 0 1-.37.016 4 4 0 0 1-.327-.01l-.279-.211a3 3 0 0 0 .371.032 4 4 0 0 0 .337-.004q.092-.006.17-.02a.5.5 0 0 0 .111-.03q.036-.015.043-.038.005-.021-.025-.044a.3.3 0 0 0-.095-.044 1 1 0 0 0-.148-.031 3 3 0 0 0-.198-.025l-.252-.022a8 8 0 0 1-.347-.032 4 4 0 0 1-.297-.05 2 2 0 0 1-.245-.073.9.9 0 0 1-.188-.105c-.07-.049-.106-.101-.106-.148q.005-.064.1-.109a1 1 0 0 1 .259-.074 4 4 0 0 1 .375-.043q.203-.014.424-.013.18 0 .37.018M335.541 456l.587-.04 1.338 1.015-.583.04zM335.892 456.456l-1.484-.378-.736.05 1.829.454-.266.545.696-.047.156-.472zM342.352 455.963a.4.4 0 0 0-.126.065c-.103.072-.087.17.042.264q.426.323 1.405.256l1.204-.083-1.338-1.014-.583.04 1.106.839-.521.036q-.465.032-.669-.123-.204-.154.255-.192l.329-.022-1.724-.452-.736.051z"/><path fill="#C4C4C4" fill-rule="evenodd" d="M330 457.3c-.077.026-.084.072-.019.116a.5.5 0 0 0 .179.07c.077.016.16.021.228.015.112-.008.176-.042.163-.086-.014-.045-.102-.09-.224-.116a.7.7 0 0 0-.327.001m.142.016a.55.55 0 0 1 .313.067q.046.035.019.063c-.018.018-.059.031-.114.034a.54.54 0 0 1-.311-.068c-.06-.045-.019-.088.093-.096m.083.028.06-.005.136.104-.097.01a.5.5 0 0 1-.101-.002.13.13 0 0 1-.057-.021q-.018-.02.024-.027a.2.2 0 0 1-.081-.022.4.4 0 0 0-.055-.025l.067-.004a.3.3 0 0 1 .054.024c.015.011.044.015.077.012l.029-.002zm.049.06.029-.002.04.031-.033.002q-.056.005-.077-.012c-.015-.011.007-.017.041-.019" clip-rule="evenodd"/><rect width="42.379" height="30.233" x="303.838" y="534.308" stroke="#333" rx="1.5"/><rect width="38.173" height="26.027" x="305.941" y="536.411" fill="#EBEDEE" rx="1"/><path stroke="#333" d="M299.5 565.174a.5.5 0 0 1 .5-.5h50.054a.5.5 0 0 1 .5.5v1.784a2.5 2.5 0 0 1-2.5 2.5H302a2.5 2.5 0 0 1-2.5-2.5z"/><path stroke="#333" d="M319.243 564.75v1.314a1 1 0 0 0 1 1h9.568a1 1 0 0 0 1-1v-1.314"/><rect width="21.557" height="26.762" x="334.203" y="526.5" fill="#fff" stroke="#333" rx="1.5"/><path stroke="#333" stroke-linecap="round" d="M343.246 528.603h3.47M334.137 549.424h21.689"/><circle cx="344.981" cy="551.159" r=".868" fill="#333"/><path fill="#fff" stroke="#333" stroke-linecap="round" stroke-linejoin="round" d="M363 557.366v-17.618c0-.885-.717-1.602-1.602-1.602h-9.61c-.884 0-1.601.717-1.601 1.602v17.618c0 .885.717 1.602 1.601 1.602h9.61c.885 0 1.602-.717 1.602-1.602"/><path fill="#333" d="M356.593 556.298a1.201 1.201 0 1 0 .002-2.402 1.201 1.201 0 0 0-.002 2.402"/><path stroke="#8526CF" stroke-linecap="round" stroke-opacity=".3" stroke-width="18" d="M331 430v-95"/><path fill="#8526CF" d="m331 437 5.774-10h-11.548zm0-109-5.773 10h11.547zm1 103.161v-3.893h-2v3.893zm0-7.786v-3.893h-2v3.893zm0-7.786v-3.893h-2v3.893zm0-7.785v-3.893h-2v3.893zm0-7.786v-3.893h-2v3.893zm0-7.786v-3.893h-2v3.893zm0-7.786v-3.892h-2v3.892zm0-7.785v-3.893h-2v3.893zm0-7.786v-3.893h-2v3.893zm0-7.786v-3.893h-2v3.893zm0-7.785v-3.893h-2v3.893zm0-7.786v-3.893h-2v3.893zm0-7.786v-3.893h-2v3.893z"/><path stroke="#23AB36" stroke-linecap="round" stroke-opacity=".3" stroke-width="18" d="M331 258v-23"/><path fill="#23AB36" d="M332 266v-1.9h-2v1.9zm0-5.7v-3.8h-2v3.8zm0-7.6v-3.8h-2v3.8zm0-7.6v-3.8h-2v3.8zm0-7.6v-3.8h-2v3.8zm0-7.6V228h-2v1.9z"/><path stroke="#1A1A1A" stroke-linecap="round" stroke-opacity=".3" stroke-width="18" d="M331 147v-23"/><path fill="#1A1A1A" d="M332 155v-1.9h-2v1.9zm0-5.7v-3.8h-2v3.8zm0-7.6v-3.8h-2v3.8zm0-7.6v-3.8h-2v3.8zm0-7.6v-3.8h-2v3.8zm0-7.6V117h-2v1.9z"/><path stroke="#5496EA" stroke-linecap="round" stroke-linejoin="round" stroke-opacity=".3" stroke-width="18" d="M287 296H172.98c-4.419 0-7.98-3.582-7.98-8v-90a8 8 0 0 1 8-8h114"/><path stroke="#EA7600" stroke-linecap="round" stroke-linejoin="round" stroke-opacity=".3" stroke-width="18" d="m376.418 189.546 114.017.896c4.418.034 7.951 3.644 7.916 8.062l-.706 89.997a8 8 0 0 1-8.063 7.937l-113.996-.895"/><path fill="#5496EA" d="m293 296-10-5.773v11.547zm0-106-10-5.774v11.548zm-6-1h-4v2h4zm-8 0h-4v2h4zm-8 0h-4v2h4zm-8 0h-4v2h4zm-8 0h-4v2h4zm-8 0h-4v2h4zm-8 0h-4v2h4zm-8 0h-4v2h4zm-8 0h-4v2h4zm-8 0h-4v2h4zm-8 0h-4v2h4zm-8 0h-4v2h4zm-8 0h-4v2h4zm-8 0h-4v2h4zm-8 0h-2v2h2zm-2 0q-.901.002-1.755.171l.388 1.962A7 7 0 0 1 173 191zm-5.001 1.517a9 9 0 0 0-2.482 2.482l1.661 1.112a7.1 7.1 0 0 1 1.933-1.933zm-3.828 5.728A9 9 0 0 0 164 198h2q.001-.704.133-1.367zM164 198v2.045h2V198zm0 6.136v4.091h2v-4.091zm0 8.182v4.091h2v-4.091zm0 8.182v4.091h2V220.5zm0 8.182v4.091h2v-4.091zm0 8.182v4.091h2v-4.091zm0 8.181v4.091h2v-4.091zm0 8.182v4.091h2v-4.091zm0 8.182v4.091h2v-4.091zm0 8.182v4.091h2v-4.091zm0 8.182v4.091h2v-4.091zm0 8.182V288h2v-2.045zm0 2.045q.002.9.171 1.755l1.962-.388A7 7 0 0 1 166 288zm1.514 5a9 9 0 0 0 2.48 2.483l1.113-1.661a7.1 7.1 0 0 1-1.931-1.934zm5.725 3.829a9 9 0 0 0 1.755.171v-2q-.704-.001-1.367-.133zm1.755.171h1.985v-2h-1.985zm5.991 0h4.002v-2h-4.002zm7.994 0h4v-2h-4zm8.004 0h4v-2h-4zm7.992 0h4.003v-2h-4.003zm8.009 0h4.005v-2h-4.005zm8.008 0h3.999v-2h-3.999zm7.996 0h3.994v-2h-3.994zm7.989 0h3.997v-2h-3.997zm7.999 0h4.009v-2h-4.009zm8.016 0h3.985v-2h-3.985zm7.982 0h4.013v-2h-4.013zm8.01 0h3.989v-2h-3.989zm8 0h4v-2h-4zm7.989 0h4.018v-2h-4.018z"/><path fill="#EC7100" d="m370.418 189.499 9.955 5.852.09-11.547zm-.832 105.997 9.954 5.852.091-11.547zm5.992 1.047 4 .031.015-2-4-.031zm7.999.063 4 .031.016-2-4-.031zm8 .063 4 .031.016-2-4-.031zm8 .062 4 .032.016-2-4-.032zm8 .063 4 .032.015-2-4-.032zm7.999.063 4 .031.016-2-4-.031zm8 .063 4 .031.016-2-4-.031zm8 .063 4 .031.016-2-4-.031zm8 .062 4 .032.015-2-4-.031zm7.999.063 4 .032.016-2-4-.032zm8 .063 4 .032.016-2-4-.032zm8 .063 4 .031.016-2-4-.031zm8 .063 4 .031.015-2-4-.031zm7.999.063 4 .031.016-2-4-.031zm8 .062 2 .016.016-2-2-.016zm2 .016q.901.006 1.757-.157l-.373-1.965a7 7 0 0 1-1.368.122zm5.013-1.477a9.1 9.1 0 0 0 2.502-2.463l-1.653-1.125a7.1 7.1 0 0 1-1.948 1.917zm3.873-5.698q.176-.853.185-1.754l-2-.016a7 7 0 0 1-.144 1.367zm.185-1.754.016-2.045-2-.016-.016 2.045zm.048-6.136.032-4.091-2-.016-.032 4.091zm.064-8.182.032-4.09-2-.016-.032 4.091zm.064-8.181.032-4.091-2-.016-.032 4.091zm.065-8.182.032-4.091-2-.015-.032 4.09zm.064-8.181.032-4.091-2-.016-.032 4.091zm.064-8.182.032-4.091-2-.015-.032 4.09zm.064-8.181.032-4.091-2-.016-.032 4.091zm.065-8.182.032-4.091-2-.016-.032 4.091zm.064-8.182.032-4.09-2-.016-.032 4.091zm.064-8.181.032-4.091-2-.016-.032 4.091zm.064-8.182.016-2.045-2-.016-.016 2.046zm.016-2.045a9 9 0 0 0-.157-1.756l-1.965.372q.127.664.122 1.368zm-1.474-5.012a9 9 0 0 0-2.461-2.502l-1.126 1.652a7.1 7.1 0 0 1 1.916 1.949zm-5.695-3.873a9 9 0 0 0-1.753-.186l-.016 2q.704.007 1.365.144zm-1.753-.186h-.125l-.004-.001h-.121l-.004-.001h-.127l-.003-.001h-.124l-.004-.001h-.121l-.004-.001h-.126l-.003-.001h-.123l-.004-.001h-.124l-.004-.001h-.121l-.004-.001h-.126l-.004-.001h-.123l-.004-.001h-.124l-.004-.001h-.12l-.004-.001h-.126l-.004-.001h-.123l-.004-.001h-.074l-.015 2h.082l.004.001h.122l.004.001h.126l.004.001h.121l.004.001h.123l.004.001h.123l.004.001h.126l.004.001h.121l.004.001h.124l.004.001h.122l.004.001h.126l.004.001h.125l.003.001h.12l.004.001h.127l.003.001h.122l.004.001h.117zm-5.991-.047h-.117l-.007-.001h-.117l-.007-.001h-.126l-.007-.001h-.118l-.008-.001h-.119l-.007-.001h-.119l-.008-.001h-.12l-.008-.001h-.12l-.008-.001h-.121l-.008-.001h-.114l-.007-.001h-.123l-.007-.001h-.123l-.008-.001h-.116l-.008-.001h-.124l-.007-.001h-.117l-.008-.001h-.117l-.008-.001h-.118l-.008-.001h-.126l-.008-.001h-.119l-.008-.001h-.12l-.008-.001h-.12l-.008-.001h-.112l-.008-.001h-.121l-.008-.001h-.122l-.008-.001h-.114l-.008-.001h-.123l-.008-.001h-.123l-.008-.001h-.115l-.009-.001h-.116l-.008-.001h-.124l-.009-.001h-.117l-.008-.001h-.059l-.015 2h.067l.008.001h.117l.008.001h.125l.008.001h.116l.008.001h.115l.009.001h.123l.008.001h.114l.008.001h.122l.009.001h.121l.008.001h.121l.008.001h.113l.008.001h.12l.008.001h.119l.008.001h.119l.008.001h.126l.008.001h.118l.008.001h.117l.008.001h.117l.007.001h.125l.007.001h.116l.008.001h.123l.007.001h.123l.007.001h.114l.008.001h.121l.008.001h.12l.008.001h.12l.007.001h.12l.007.001h.119l.007.001h.119l.007.001h.125l.008.001h.117l.007.001h.109zm-7.994-.062h-.015l-.008-.001h-.119l-.007-.001h-.12l-.008-.001h-.12l-.007-.001h-.121l-.007-.001h-.121l-.008-.001h-.121l-.007-.001h-.122l-.008-.001h-.114l-.008-.001h-.122l-.008-.001h-.122l-.008-.001h-.116l-.007-.001h-.124l-.008-.001h-.116l-.008-.001h-.116l-.008-.001h-.125l-.007-.001h-.118l-.008-.001h-.117l-.008-.001h-.118l-.008-.001h-.126l-.008-.001h-.119l-.008-.001h-.119l-.008-.001h-.119l-.008-.001h-.12l-.008-.001h-.12l-.008-.001h-.112l-.008-.001h-.121l-.008-.001h-.121l-.009-.001h-.121l-.008-.001h-.114l-.008-.001h-.122l-.008-.001h-.123l-.008-.001h-.025l-.016 2h.033l.008.001h.123l.008.001h.122l.008.001h.114l.008.001h.122l.008.001h.121l.008.001h.121l.008.001h.112l.008.001h.12l.008.001h.12l.008.001h.12l.008.001h.119l.007.001h.119l.008.001h.126l.008.001h.118l.008.001h.118l.007.001h.118l.007.001h.125l.008.001h.116l.008.001h.116l.008.001h.124l.007.001h.116l.007.001h.123l.008.001h.122l.008.001h.114l.008.001h.121l.008.001h.121l.008.001h.121l.007.001h.121l.007.001h.12l.008.001h.119l.008.001h.119l.007.001h.008zm-8.004-.063h-.038l-.007-.001h-.114l-.007-.001h-.121l-.008-.001h-.121l-.007-.001h-.122l-.008-.001h-.122l-.007-.001h-.115l-.007-.001h-.123l-.008-.001h-.115l-.007-.001h-.123l-.008-.001h-.123l-.008-.001h-.116l-.008-.001h-.116l-.008-.001h-.124l-.008-.001h-.116l-.008-.001h-.125l-.008-.001h-.117l-.008-.001h-.117l-.008-.001h-.118l-.008-.001h-.118l-.008-.001h-.126l-.008-.001h-.119l-.008-.001h-.119l-.008-.001h-.119l-.008-.001h-.119l-.008-.001h-.12l-.008-.001h-.12l-.008-.001h-.12l-.008-.001h-.113l-.008-.001h-.12l-.008-.001h-.121l-.009-.001h-.121l-.008-.001h-.008l-.016 2h.016l.009.001h.121l.008.001h.121l.008.001h.121l.008.001h.112l.008.001h.121l.008.001h.119l.008.001h.12l.008.001h.12l.008.001h.119l.008.001h.119l.007.001h.119l.008.001h.126l.008.001h.118l.008.001h.118l.008.001h.117l.008.001h.117l.008.001h.125l.008.001h.116l.008.001h.124l.008.001h.116l.008.001h.116l.008.001h.123l.008.001h.123l.007.001h.115l.008.001h.123l.007.001h.115l.007.001h.122l.008.001h.121l.008.001h.121l.008.001h.121l.007.001h.113l.008.001h.03zm-7.992-.063h-.068l-.008-.001h-.114l-.008-.001h-.122l-.007-.001h-.122l-.008-.001h-.115l-.007-.001h-.123l-.008-.001h-.122l-.008-.001h-.116l-.007-.001h-.124l-.007-.001h-.116l-.008-.001h-.124l-.007-.001h-.117l-.007-.001h-.117l-.008-.001h-.124l-.008-.001h-.117l-.008-.001h-.117l-.008-.001h-.125l-.008-.001h-.117l-.008-.001h-.118l-.008-.001h-.118l-.008-.001h-.118l-.008-.001h-.126l-.008-.001h-.119l-.008-.001h-.119l-.007-.001h-.12l-.008-.001h-.119l-.008-.001h-.119l-.008-.001h-.12l-.008-.001h-.12l-.008-.001h-.112l-.008-.001h-.121l-.008-.001h-.112l-.016 2h.12l.009.001h.12l.008.001h.112l.008.001h.12l.008.001h.12l.008.001h.119l.008.001h.12l.008.001h.119l.008.001h.119l.007.001h.119l.008.001h.126l.008.001h.119l.007.001h.118l.008.001h.118l.008.001h.118l.007.001h.126l.007.001h.117l.008.001h.117l.008.001h.124l.008.001h.117l.007.001h.117l.007.001h.124l.008.001h.116l.007.001h.124l.007.001h.124l.007.001h.115l.008.001h.123l.007.001h.115l.008.001h.122l.007.001h.122l.008.001h.121l.008.001h.053zm-8.008-.063h-.077l-.007-.001h-.123l-.007-.001h-.123l-.007-.001h-.115l-.008-.001h-.123l-.008-.001h-.115l-.008-.001h-.123l-.008-.001h-.116l-.007-.001h-.124l-.008-.001h-.116l-.008-.001h-.124l-.007-.001h-.117l-.008-.001h-.116l-.008-.001h-.125l-.008-.001h-.117l-.008-.001h-.117l-.008-.001h-.125l-.008-.001h-.117l-.008-.001h-.118l-.008-.001h-.118l-.008-.001h-.118l-.008-.001h-.126l-.008-.001h-.119l-.008-.001h-.118l-.008-.001h-.119l-.008-.001h-.119l-.008-.001h-.119l-.008-.001h-.12l-.008-.001h-.12l-.007-.001h-.12l-.008-.001h-.12l-.008-.001h-.097l-.015 2h.104l.008.001h.12l.008.001h.12l.008.001h.119l.008.001h.12l.008.001h.119l.008.001h.119l.008.001h.119l.008.001h.119l.008.001h.118l.008.001h.126l.008.001h.118l.008.001h.118l.008.001h.118l.008.001h.117l.008.001h.125l.008.001h.117l.008.001h.117l.008.001h.125l.008.001h.116l.008.001h.117l.007.001h.124l.008.001h.116l.008.001h.124l.007.001h.116l.008.001h.123l.008.001h.115l.008.001h.123l.008.001h.115l.007.001h.123l.007.001h.123l.007.001h.069zm-8.008-.063h-.092l-.008-.001h-.122l-.008-.001h-.115l-.007-.001h-.123l-.008-.001h-.115l-.008-.001h-.123l-.008-.001h-.123l-.008-.001h-.116l-.008-.001h-.116l-.007-.001h-.124l-.008-.001h-.116l-.008-.001h-.124l-.008-.001h-.117l-.008-.001h-.116l-.008-.001h-.125l-.008-.001h-.117l-.008-.001h-.117l-.008-.001h-.125l-.008-.001h-.117l-.008-.001h-.118l-.008-.001h-.118l-.008-.001h-.118l-.008-.001h-.126l-.008-.001h-.118l-.008-.001h-.118l-.008-.001h-.119l-.008-.001h-.119l-.008-.001h-.119l-.008-.001h-.119l-.008-.001h-.119l-.008-.001h-.12l-.008-.001h-.079l-.016 2h.088l.008.001h.119l.008.001h.119l.008.001h.12l.008.001h.119l.007.001h.119l.008.001h.119l.008.001h.118l.008.001h.119l.008.001h.126l.007.001h.119l.007.001h.118l.008.001h.118l.008.001h.117l.008.001h.125l.008.001h.118l.007.001h.117l.008.001h.125l.008.001h.117l.007.001h.117l.008.001h.124l.008.001h.116l.008.001h.124l.007.001h.116l.008.001h.124l.007.001h.116l.008.001h.123l.008.001h.115l.008.001h.123l.007.001h.115l.008.001h.122l.008.001h.084zm-7.996-.063h-.122l-.008-.001h-.115l-.008-.001h-.122l-.008-.001h-.115l-.008-.001h-.123l-.008-.001h-.116l-.007-.001h-.124l-.007-.001h-.116l-.008-.001h-.124l-.008-.001h-.116l-.008-.001h-.124l-.007-.001h-.117l-.008-.001h-.116l-.008-.001h-.124l-.008-.001h-.117l-.008-.001h-.117l-.008-.001h-.125l-.008-.001h-.117l-.008-.001h-.117l-.008-.001h-.125l-.008-.001h-.118l-.008-.001h-.118l-.007-.001h-.118l-.008-.001h-.118l-.008-.001h-.119l-.007-.001h-.127l-.008-.001h-.118l-.008-.001h-.119l-.008-.001h-.119l-.007-.001h-.119l-.008-.001h-.119l-.008-.001h-.048l-.016 2h.056l.008.001h.119l.008.001h.119l.008.001h.118l.008.001h.119l.008.001h.119l.007.001h.127l.008.001h.118l.008.001h.118l.008.001h.118l.008.001h.117l.008.001h.118l.008.001h.125l.008.001h.117l.008.001h.118l.007.001h.125l.008.001h.117l.008.001h.117l.008.001h.124l.008.001h.116l.008.001h.117l.007.001h.125l.007.001h.116l.008.001h.124l.008.001h.116l.007.001h.124l.007.001h.116l.008.001h.123l.008.001h.115l.008.001h.122l.008.001h.115l.008.001h.115zm-7.989-.062h-.023l-.007-.001h-.123l-.008-.001h-.115l-.008-.001h-.123l-.008-.001h-.116l-.007-.001h-.124l-.007-.001h-.116l-.008-.001h-.124l-.007-.001h-.117l-.007-.001h-.124l-.008-.001h-.116l-.008-.001h-.124l-.008-.001h-.117l-.008-.001h-.116l-.008-.001h-.125l-.008-.001h-.117l-.007-.001h-.118l-.007-.001h-.125l-.008-.001h-.118l-.007-.001h-.118l-.008-.001h-.117l-.008-.001h-.126l-.008-.001h-.117l-.008-.001h-.118l-.008-.001h-.118l-.008-.001h-.118l-.008-.001h-.119l-.008-.001h-.118l-.008-.001h-.126l-.008-.001h-.119l-.008-.001h-.119l-.008-.001h-.119l-.008-.001h-.016l-.015 2h.023l.008.001h.119l.008.001h.119l.008.001h.119l.008.001h.118l.008.001h.127l.008.001h.118l.008.001h.118l.008.001h.118l.008.001h.118l.008.001h.118l.007.001h.126l.008.001h.117l.008.001h.118l.008.001h.117l.008.001h.125l.008.001h.117l.008.001h.116l.008.001h.125l.008.001h.116l.008.001h.117l.008.001h.124l.008.001h.116l.008.001h.124l.007.001h.117l.007.001h.124l.008.001h.116l.007.001h.124l.007.001h.116l.008.001h.123l.008.001h.115l.008.001h.123l.007.001h.016zm-7.998-.063h-.047l-.007-.001h-.124l-.008-.001h-.115l-.008-.001h-.124l-.008-.001h-.116l-.007-.001h-.124l-.008-.001h-.117l-.007-.001h-.117l-.008-.001h-.124l-.008-.001h-.116l-.008-.001h-.117l-.008-.001h-.125l-.007-.001h-.117l-.008-.001h-.117l-.008-.001h-.125l-.008-.001h-.117l-.008-.001h-.118l-.008-.001h-.117l-.008-.001h-.126l-.007-.001h-.118l-.008-.001h-.118l-.008-.001h-.118l-.008-.001h-.118l-.008-.001h-.126l-.008-.001h-.118l-.008-.001h-.119l-.008-.001h-.118l-.008-.001h-.119l-.008-.001h-.119l-.008-.001h-.118l-.008-.001h-.119l-.008-.001h-.12l-.008-.001h-.008l-.015 2h.016l.008.001h.119l.008.001h.119l.008.001h.119l.008.001h.118l.008.001h.119l.008.001h.119l.008.001h.118l.008.001h.118l.008.001h.126l.008.001h.118l.008.001h.118l.008.001h.118l.008.001h.118l.008.001h.125l.008.001h.118l.007.001h.118l.008.001h.117l.008.001h.125l.008.001h.117l.008.001h.117l.008.001h.124l.008.001h.117l.008.001h.116l.008.001h.124l.008.001h.117l.007.001h.125l.007.001h.117l.007.001H420l.008.001h.124l.008.001h.115l.008.001h.124l.007.001h.039zm-8.016-.063h-.054l-.007-.001h-.123l-.008-.001h-.115l-.008-.001h-.123l-.008-.001h-.115l-.008-.001h-.123l-.008-.001h-.116l-.008-.001h-.123l-.008-.001h-.116l-.008-.001h-.123l-.008-.001h-.116l-.008-.001h-.124l-.008-.001h-.116l-.008-.001h-.117l-.007-.001h-.125l-.007-.001h-.117l-.008-.001h-.117l-.007-.001h-.125l-.008-.001h-.117l-.008-.001h-.117l-.008-.001h-.125l-.007-.001h-.118l-.008-.001h-.117l-.008-.001h-.125l-.008-.001h-.118l-.008-.001h-.117l-.008-.001h-.118l-.008-.001h-.118l-.008-.001h-.125l-.008-.001h-.118l-.008-.001h-.119l-.007-.001h-.103l-.016 2h.111l.008.001h.118l.008.001h.118l.008.001h.126l.007.001h.118l.008.001h.118l.008.001h.118l.007.001h.118l.008.001h.125l.008.001h.117l.008.001h.118l.007.001h.125l.008.001h.117l.008.001h.117l.008.001h.125l.007.001h.117l.008.001h.117l.007.001h.125l.008.001h.116l.008.001h.116l.008.001h.124l.008.001h.116l.008.001h.123l.008.001h.116l.008.001h.123l.008.001h.116l.008.001h.123l.008.001h.115l.008.001h.123l.008.001h.115l.008.001h.123l.007.001h.046zm-7.982-.063h-.093l-.008-.001h-.124l-.008-.001h-.116l-.008-.001h-.116l-.008-.001h-.124l-.008-.001h-.116l-.008-.001h-.124l-.008-.001h-.117l-.008-.001h-.117l-.007-.001h-.125l-.008-.001h-.117l-.008-.001h-.117l-.008-.001h-.117l-.008-.001h-.125l-.008-.001h-.117l-.008-.001h-.118l-.007-.001h-.126l-.008-.001h-.117l-.008-.001h-.118l-.008-.001h-.118l-.008-.001h-.118l-.008-.001h-.126l-.007-.001h-.119l-.007-.001h-.119l-.008-.001h-.118l-.008-.001h-.118l-.008-.001h-.119l-.008-.001h-.118l-.008-.001h-.119l-.008-.001h-.119l-.008-.001h-.127l-.008-.001h-.087l-.016 2h.096l.008.001h.126l.008.001h.119l.008.001h.119l.008.001h.118l.008.001h.119l.008.001h.118l.008.001h.119l.007.001h.119l.008.001h.118l.008.001h.126l.007.001h.118l.008.001h.118l.008.001h.118l.008.001h.117l.008.001h.126l.008.001h.117l.008.001h.117l.008.001h.125l.008.001h.117l.008.001h.117l.008.001h.117l.008.001h.125l.007.001h.117l.008.001h.117l.008.001h.124l.008.001h.116l.008.001h.124l.008.001h.117l.007.001h.117l.007.001h.124l.008.001h.085zm-8.01-.063h-.108l-.008-.001h-.115l-.008-.001h-.123l-.008-.001h-.116l-.008-.001h-.123l-.008-.001h-.116l-.008-.001h-.123l-.008-.001h-.116l-.008-.001h-.124l-.008-.001h-.116l-.008-.001h-.116l-.008-.001h-.124l-.008-.001h-.117l-.007-.001h-.125l-.008-.001h-.116l-.008-.001h-.117l-.008-.001h-.125l-.007-.001h-.117l-.008-.001h-.117l-.008-.001h-.117l-.008-.001h-.125l-.008-.001h-.117l-.008-.001h-.118l-.007-.001h-.126l-.008-.001h-.117l-.008-.001h-.118l-.008-.001h-.118l-.007-.001h-.118l-.008-.001h-.126l-.008-.001h-.118l-.008-.001h-.118l-.008-.001h-.055l-.016 2h.063l.008.001h.118l.008.001h.118l.008.001h.126l.008.001h.118l.008.001h.117l.008.001h.118l.008.001h.117l.008.001h.126l.007.001h.118l.008.001h.117l.008.001h.125l.008.001h.117l.008.001h.117l.008.001h.117l.008.001h.124l.008.001h.117l.008.001h.116l.008.001h.125l.007.001h.117l.008.001h.124l.008.001h.116l.008.001h.116l.008.001h.124l.008.001h.116l.008.001h.123l.008.001h.116l.008.001h.123l.008.001h.116l.008.001h.123l.008.001h.115l.008.001h.1zm-8-.062-.007-.001h-.124l-.008-.001h-.116l-.008-.001h-.116l-.007-.001h-.124l-.008-.001h-.116l-.008-.001h-.124l-.008-.001h-.117l-.007-.001h-.125l-.007-.001h-.117l-.008-.001h-.116l-.008-.001h-.125l-.008-.001h-.116l-.008-.001h-.117l-.008-.001h-.125l-.008-.001h-.117l-.007-.001h-.118l-.007-.001h-.126l-.007-.001h-.118l-.008-.001h-.117l-.008-.001h-.117l-.008-.001h-.126l-.007-.001h-.118l-.008-.001h-.118l-.007-.001h-.118l-.008-.001h-.118l-.008-.001h-.126l-.008-.001h-.118l-.008-.001h-.118l-.008-.001h-.118l-.008-.001h-.118l-.008-.001h-.118l-.008-.001h-.048l-.015 2h.055l.008.001h.118l.008.001h.118l.008.001h.118l.008.001h.119l.007.001h.118l.008.001h.126l.008.001h.118l.008.001h.118l.008.001h.117l.008.001h.118l.008.001h.125l.008.001h.117l.008.001h.118l.007.001h.118l.008.001h.125l.007.001h.118l.007.001h.118l.007.001h.125l.008.001h.117l.008.001h.117l.007.001h.125l.008.001h.116l.008.001h.117l.008.001h.124l.008.001h.116l.008.001h.124l.008.001h.116l.008.001h.124l.007.001h.116l.008.001h.116l.008.001h.124zm-7.989-.063h-.031l-.007-.001h-.125l-.008-.001h-.116l-.008-.001h-.117l-.008-.001h-.124l-.008-.001h-.117l-.008-.001h-.116l-.008-.001h-.125l-.008-.001h-.117l-.008-.001h-.117l-.008-.001h-.125l-.008-.001h-.117l-.008-.001h-.117l-.008-.001h-.125l-.008-.001h-.118l-.008-.001h-.117l-.008-.001h-.118l-.008-.001h-.117l-.008-.001h-.126l-.008-.001h-.118l-.008-.001h-.118l-.008-.001h-.118l-.008-.001h-.118l-.008-.001h-.126l-.008-.001h-.118l-.008-.001h-.118l-.008-.001h-.119l-.008-.001h-.118l-.008-.001h-.119l-.008-.001h-.118l-.008-.001h-.119l-.008-.001h-.119l-.008-.001h-.031l-.016 2h.04l.007.001h.119l.008.001h.119l.008.001h.119l.008.001h.118l.008.001h.119l.008.001h.118l.008.001h.118l.008.001h.119l.007.001h.127l.007.001h.119l.007.001h.119l.007.001h.118l.008.001h.118l.008.001h.126l.008.001h.117l.008.001h.118l.008.001h.117l.008.001h.118l.008.001h.125l.008.001h.117l.008.001h.117l.008.001h.125l.008.001h.117l.008.001h.117l.008.001h.125l.008.001h.117l.007.001h.117l.008.001h.125l.007.001h.117l.008.001h.116l.008.001h.125l.007.001h.024z"/><path fill="#fff" d="M133 231c-24 5 56.414-1.066 63 0s-1 27.5 0 22-67.5 4-63 0 24-27 0-22"/><path stroke="#ACAEB0" stroke-linecap="round" stroke-linejoin="round" stroke-width=".4" d="M162.804 249.64v-2.38l-3.554.369v2.514l.704-.067v.523l.503-.054v.336l1.039-.101v-.436l.503-.054v-.549zM158.579 250.143v-2.381l-3.553.369v2.514l.704-.067v.523l.503-.053v.335l1.039-.101v-.435l.503-.054v-.55zM156.233 251.048l-.5-.235M167.028 249.171v-2.38l-3.554.368v2.515l.704-.067v.523l.503-.054v.335l1.04-.1v-.436l.502-.054v-.55zM154.355 250.679v-2.38l-3.553.369v2.514l.704-.067v.523l.503-.054v.336l1.039-.101v-.436l.503-.053v-.55zM152.008 251.585l-.499-.235M150.802 245.912v2.387l3.553-.369v-2.514l-.704.067v-.523l-.502.053v-.335l-1.04.101v.435l-.503.054v.55zM155.026 245.375v2.387l3.553-.369v-2.514l-.704.067v-.523l-.503.054v-.336l-1.039.101v.436l-.503.053v.55zM163.407 244.403v2.421l3.554-.369v-2.514l-.704.067v-.523l-.503.053v-.335l-1.039.101v.435l-.503.054v.55z"/><path stroke="#ACAEB0" stroke-linecap="round" stroke-linejoin="round" stroke-width=".4" d="M150.131 252.758v-8.281l17.467-2.045v7.979z"/><path stroke="#ACAEB0" stroke-linecap="round" stroke-linejoin="round" stroke-width=".4" d="M159.25 244.872v2.421l3.554-.369v-2.514l-.704.067v-.523l-.503.053v-.335l-1.039.101v.436l-.503.053v.55zM181.075 247.394v-2.38l-3.554.369v2.514l.705-.067v.523l.502-.053v.335l1.04-.101v-.435l.503-.054v-.55zM178.728 248.299l-.499-.235M176.851 247.897v-2.38l-3.554.369v2.514l.704-.067v.523l.503-.053v.335l1.039-.101v-.436l.503-.053v-.55zM174.504 248.803l-.5-.235M185.266 246.925v-2.38l-3.554.369v2.514l.704-.067v.523l.503-.054v.336l1.039-.101v-.436l.503-.053v-.55zM172.626 248.433v-2.38l-3.553.369v2.514l.704-.067v.523l.503-.054v.335l1.039-.1v-.436l.503-.054v-.549zM170.28 249.338l-.5-.234M169.073 243.666v2.387l3.553-.369v-2.514l-.704.067v-.523l-.502.053v-.335l-1.04.101v.435l-.503.054v.55zM173.297 243.13v2.387l3.554-.369v-2.514l-.704.067v-.523l-.503.054v-.336l-1.039.101v.436l-.503.053v.55zM181.679 242.158v2.421l3.553-.369v-2.515l-.704.067v-.523l-.503.054v-.335l-1.039.1v.436l-.503.054v.55z"/><path stroke="#ACAEB0" stroke-linecap="round" stroke-linejoin="round" stroke-width=".4" d="M168.403 250.378v-8.013l17.466-2.045v7.711z"/><path stroke="#ACAEB0" stroke-linecap="round" stroke-linejoin="round" stroke-width=".4" d="M177.522 242.627v2.42l3.553-.368v-2.515l-.704.067v-.523l-.502.054v-.335l-1.04.1v.436l-.503.054v.549z"/><path stroke="#333" stroke-linecap="round" stroke-linejoin="round" d="m196.464 237.102-9.912-3.037c-6.602-2.023-13.541-2.711-20.412-2.023l-31.339 3.136a2 2 0 0 0-1.801 1.99v7.62c0 1.109.611 2.127 1.59 2.648l13.329 7.099c.107.054.369.067.637.033"/><path stroke="#333" stroke-linecap="round" stroke-linejoin="round" d="M147.583 252.421v-7.905a2 2 0 0 1 1.77-1.987l45.417-5.269a2 2 0 0 1 2.23 1.987v6.289a3 3 0 0 1-2.607 2.974l-44.547 5.894a2 2 0 0 1-2.263-1.983M147.651 242.868l-14.36-7.214"/><path fill="#C4C4C4" d="M145.303 247.763v4.224l-.268-.143v-6.095c.167.593.268 1.262.268 2.014M138.062 241.792v6.321l-.268-.144v-6.344zM138.397 239.929v8.363l.268.144v-8.366zM139.001 240.247v8.368l.268.144v-8.371zM139.604 240.565v8.373l.268.143v-8.375zM140.208 249.261l.268.143v-8.379l-.268-.142zM140.811 249.584l.268.143v-8.381l-.268-.143zM141.415 249.906l.268.144v-8.381l-.268-.144zM142.018 241.853l.134.076.134.084v8.36l-.268-.144zM142.89 242.456a6 6 0 0 0-.269-.211v8.307l.269.144zM143.493 243.023a7 7 0 0 0-.268-.27v8.122l.268.144zM144.097 243.764a6 6 0 0 0-.269-.357v7.791l.269.143zM144.7 244.825a7 7 0 0 0-.268-.53v7.226l.268.143zM134.441 239.539v6.637l-.268-.144v-6.659zM135.045 239.915v6.584l-.269-.144v-6.607zM135.648 240.29v6.531l-.268-.143v-6.555zM136.252 240.666v6.478l-.269-.143v-6.502zM136.855 241.041v6.426l-.268-.143v-6.45zM137.459 241.416v6.374l-.269-.144v-6.397z"/><path stroke="#333" stroke-width=".5" d="M146.577 244.032v-.091a.38.38 0 0 0-.188-.331.23.23 0 0 0-.348.198v.095c0 .128.063.249.169.322a.234.234 0 0 0 .367-.193ZM146.577 252.376v-.069a.43.43 0 0 0-.22-.375.258.258 0 0 0-.383.225v.072c0 .148.075.286.199.366a.261.261 0 0 0 .404-.219ZM133.838 237.688v-.102a.29.29 0 0 0-.134-.245.174.174 0 0 0-.268.147v.105c0 .093.044.181.118.237a.178.178 0 0 0 .284-.142ZM133.838 244.545v-.068a.29.29 0 0 0-.142-.248.172.172 0 0 0-.26.148v.071c0 .097.047.187.126.242a.176.176 0 0 0 .276-.145Z"/><path stroke="#ACAEB0" stroke-linecap="round" stroke-linejoin="round" stroke-width=".4" d="M190.898 240.849v2.421l3.554-.369v-2.515l-.704.067v-.523l-.503.054v-.335l-1.04.1v.436l-.502.054v.55zM194.452 245.785v-2.38l-3.554.369v2.514l.704-.067v.523l.503-.054v.336l1.039-.101v-.436l.503-.054v-.549z"/><path stroke="#ACAEB0" stroke-width=".4" d="M195.055 246.858v-7.678l-4.71.587v7.697z"/><path fill="#fff" d="M300 360h64v46h-64z"/><path stroke="#ACAEB0" stroke-linecap="round" stroke-linejoin="round" stroke-width=".4" d="M329.804 389.93v-2.381l-3.554.446v2.457l.704-.087v.523l.503-.053v.363l1.039-.129v-.435l.503-.054v-.55zM325.58 390.466v-2.381l-3.554.446v2.457l.704-.086v.523l.503-.054v.363l1.039-.128v-.436l.503-.054v-.55zM334.028 389.46v-2.38l-3.554.446v2.457l.704-.087v.523l.503-.053v.363l1.04-.129v-.436l.502-.053v-.55zM321.356 391.002v-2.38l-3.554.445v2.457l.704-.086v.523l.503-.054v.363l1.039-.128v-.436l.503-.054v-.55zM317.802 386.235v2.387l3.553-.426v-2.481l-.704.09v-.523l-.502.054v-.335l-1.04.129v.407l-.503.054v.55zM322.026 385.708v2.387l3.554-.426v-2.481l-.704.091v-.523l-.503.054v-.336l-1.039.13v.407l-.503.054v.549zM330.407 384.568v2.387l3.554-.426v-2.481l-.704.091v-.523l-.503.054v-.336l-1.039.13v.407l-.503.053v.55z"/><path stroke="#ACAEB0" stroke-linecap="round" stroke-linejoin="round" stroke-width=".4" d="M317.132 393.08v-8.28l17.466-2.27v8.204z"/><path stroke="#ACAEB0" stroke-linecap="round" stroke-linejoin="round" stroke-width=".4" d="M326.25 385.172v2.387l3.554-.426v-2.481l-.704.09v-.523l-.503.054v-.335l-1.039.129v.407l-.503.054v.55zM348.075 387.582v-2.38l-3.553.446v2.457l.704-.087v.523l.502-.053v.363l1.04-.129v-.436l.503-.053v-.55zM343.851 388.119v-2.381l-3.554.446v2.457l.704-.087v.523l.503-.053v.363l1.04-.129v-.435l.502-.054v-.55zM352.299 387.113v-2.381l-3.553.446v2.457l.704-.086v.523l.503-.054v.363l1.039-.128v-.436l.503-.054v-.55zM349.952 388.018l-.499-.234M339.627 388.654v-2.38l-3.554.446v2.457l.704-.087v.523l.503-.054v.364l1.039-.129v-.436l.503-.053v-.55zM336.073 383.887v2.387l3.554-.426v-2.481l-.704.091v-.523l-.503.053v-.335l-1.04.129v.408l-.502.053v.55zM340.297 383.361v2.387l3.554-.426v-2.481l-.704.091v-.523l-.503.054v-.336l-1.039.13v.407l-.503.053v.55zM348.679 382.221v2.387l3.553-.426v-2.481l-.704.091v-.523l-.503.053v-.335l-1.039.129v.408l-.503.053v.55z"/><path stroke="#ACAEB0" stroke-linecap="round" stroke-linejoin="round" stroke-width=".4" d="M335.403 390.733v-8.281l17.466-2.269v8.203z"/><path stroke="#ACAEB0" stroke-linecap="round" stroke-linejoin="round" stroke-width=".4" d="M344.522 382.824v2.387l3.554-.425v-2.481l-.704.09v-.523l-.503.054v-.335l-1.04.129v.407l-.502.054v.55z"/><path stroke="#333" stroke-linecap="round" stroke-linejoin="round" d="M315.556 394.756c-.268.034-.53.02-.637-.033l-13.509-7.195a2.66 2.66 0 0 1-1.41-2.349v-9.296c0-.191.145-.351.335-.37v0"/><path stroke="#333" stroke-linecap="round" stroke-linejoin="round" d="M363.397 377.259a.54.54 0 0 1 .603.537v9.049a1.72 1.72 0 0 1-1.495 1.706l-45.659 6.04a2 2 0 0 1-2.262-1.983v-8.503c0-.268.1-.503.268-.57"/><path fill="#C4C4C4" d="M312.304 387.95v4.225l-.268-.144v-6.095a7.4 7.4 0 0 1 .268 2.014M305.062 381.979v6.321l-.268-.143v-6.345zM305.398 380.116v8.364l.268.143v-8.365zM306.001 380.434v8.369l.268.143v-8.371zM306.605 380.752v8.373l.268.144v-8.375zM307.208 389.448l.268.144v-8.379l-.268-.142zM307.812 389.771l.268.144v-8.382l-.268-.143zM308.415 390.094l.268.143v-8.38l-.268-.145zM309.018 382.04a5 5 0 0 1 .269.16v8.36l-.269-.143zM309.89 382.643a6 6 0 0 0-.268-.21v8.307l.268.143zM310.494 383.21a7 7 0 0 0-.269-.269v8.122l.269.143zM311.097 383.951a7 7 0 0 0-.268-.356v7.79l.268.144zM311.7 385.013a6 6 0 0 0-.268-.53v7.225l.268.144zM301.442 379.727v6.636l-.268-.143v-6.66zM302.045 380.102v6.584l-.268-.143v-6.608zM302.649 380.478v6.531l-.269-.144v-6.554zM303.252 380.853v6.479l-.268-.144v-6.502zM303.856 381.228v6.427l-.269-.144v-6.449zM304.459 381.604v6.373l-.268-.143v-6.397z"/><path stroke="#333" stroke-width=".5" d="M313.578 384.219v-.091a.38.38 0 0 0-.189-.331.23.23 0 0 0-.348.199v.094c0 .129.064.249.17.322a.234.234 0 0 0 .367-.193ZM313.578 392.563v-.068a.43.43 0 0 0-.221-.375.257.257 0 0 0-.383.225v.072c0 .148.075.285.199.366a.262.262 0 0 0 .405-.22ZM300.838 377.875v-.102a.29.29 0 0 0-.134-.245.174.174 0 0 0-.268.147v.105c0 .094.044.181.119.237a.177.177 0 0 0 .283-.142ZM300.838 384.732v-.068a.29.29 0 0 0-.141-.248.173.173 0 0 0-.261.149v.071c0 .096.048.186.127.241a.175.175 0 0 0 .275-.145Z"/><path stroke="#ACAEB0" stroke-linecap="round" stroke-linejoin="round" stroke-width=".4" d="M357.898 381.014v2.387l3.554-.426v-2.481l-.704.091v-.523l-.503.053v-.335l-1.04.129v.408l-.502.053v.55zM361.452 385.849v-2.38l-3.554.446v2.457l.704-.087v.523l.503-.054v.364l1.04-.129v-.436l.503-.054v-.549z"/><path stroke="#ACAEB0" stroke-width=".4" d="M362.055 387.22v-8.143l-4.71.586v8.164z"/><path stroke="#ACAEB0" stroke-linecap="round" stroke-linejoin="round" stroke-width=".4" d="M329.804 401.235v-2.38l-3.554.446v2.457l.704-.087v.523l.503-.054v.364l1.039-.129v-.436l.503-.053v-.55zM325.58 401.772v-2.38l-3.554.446v2.457l.704-.087v.523l.503-.053v.363l1.039-.129v-.436l.503-.053v-.55zM334.028 400.767v-2.381l-3.554.446v2.457l.704-.087v.523l.503-.053v.363l1.04-.129v-.435l.502-.054v-.55zM321.356 402.308v-2.38l-3.554.446v2.457l.704-.087v.523l.503-.054v.364l1.039-.129v-.436l.503-.054v-.549zM317.802 397.541v2.387l3.553-.426v-2.481l-.704.091v-.523l-.502.053v-.335l-1.04.129v.407l-.503.054v.55zM322.026 397.015v2.387l3.554-.426v-2.481l-.704.091v-.523l-.503.053v-.335l-1.039.129v.408l-.503.053v.55zM330.408 395.875v2.387l3.553-.426v-2.481l-.704.091v-.523l-.503.053v-.335l-1.039.129v.407l-.503.054v.55z"/><path stroke="#ACAEB0" stroke-linecap="round" stroke-linejoin="round" stroke-width=".4" d="M317.132 404.387v-8.28l17.466-2.27v8.204z"/><path stroke="#ACAEB0" stroke-linecap="round" stroke-linejoin="round" stroke-width=".4" d="M326.25 396.478v2.387l3.554-.426v-2.481l-.704.091v-.523l-.503.053v-.335l-1.039.129v.407l-.503.054v.55zM348.076 398.888v-2.38l-3.554.446v2.457l.704-.087v.523l.503-.054v.364l1.039-.129v-.436l.503-.053v-.55zM343.851 399.425v-2.381l-3.553.446v2.457l.704-.086v.523l.503-.054v.363l1.039-.128v-.436l.503-.054v-.55zM352.3 398.419v-2.38l-3.554.445v2.457l.704-.086v.523l.503-.054v.363l1.04-.128v-.436l.502-.054v-.55zM339.628 399.961v-2.38l-3.554.446v2.457l.704-.087v.523l.503-.053v.363l1.039-.129v-.436l.503-.053v-.55zM336.073 395.194v2.387l3.554-.426v-2.481l-.704.091v-.523l-.503.054v-.336l-1.039.13v.407l-.503.053v.55zM340.298 394.668v2.387l3.553-.426v-2.481l-.704.091v-.523l-.503.053v-.335l-1.039.129v.407l-.503.054v.55zM348.679 393.528v2.387l3.554-.426v-2.481l-.704.091v-.523l-.503.054v-.336l-1.039.13v.407l-.503.053v.55z"/><path stroke="#ACAEB0" stroke-linecap="round" stroke-linejoin="round" stroke-width=".4" d="M335.403 402.04v-8.281l17.467-2.27v8.204z"/><path stroke="#ACAEB0" stroke-linecap="round" stroke-linejoin="round" stroke-width=".4" d="M344.522 394.131v2.387l3.554-.426v-2.481l-.704.09v-.523l-.503.054v-.335l-1.039.129v.407l-.503.054v.55z"/><path stroke="#333" stroke-linecap="round" stroke-linejoin="round" d="M315.556 406.063c-.268.034-.53.021-.637-.033l-13.509-7.194a2.66 2.66 0 0 1-1.41-2.349v-9.297c0-.191.145-.351.335-.37v0"/><path stroke="#333" stroke-linecap="round" stroke-linejoin="round" d="M363.397 388.566a.54.54 0 0 1 .603.538v9.048a1.72 1.72 0 0 1-1.495 1.706l-45.659 6.04a2 2 0 0 1-2.262-1.982v-8.504c0-.268.1-.503.268-.57"/><path fill="#C4C4C4" d="M312.304 399.259v4.224l-.268-.144v-6.095c.167.593.268 1.263.268 2.015M305.062 393.287v6.321l-.268-.143v-6.345zM305.398 391.424v8.364l.268.143v-8.365zM306.001 391.742v8.369l.268.143v-8.371zM306.605 392.06v8.374l.268.143v-8.375zM307.208 400.756l.268.144v-8.379l-.268-.142zM307.812 401.079l.268.144v-8.382l-.268-.142zM308.415 401.402l.268.144v-8.381l-.268-.145zM309.018 393.348a5 5 0 0 1 .269.16v8.36l-.269-.143zM309.89 393.951a7 7 0 0 0-.268-.21v8.307l.268.143zM310.494 394.518a7 7 0 0 0-.269-.269v8.122l.269.143zM311.097 395.259a7 7 0 0 0-.268-.356v7.791l.268.143zM311.7 396.321a6 6 0 0 0-.268-.53v7.225l.268.144zM301.442 391.035v6.636l-.268-.143v-6.66zM302.045 391.41v6.584l-.268-.143v-6.607zM302.649 391.786v6.531l-.269-.144v-6.554zM303.252 392.161v6.479l-.268-.144v-6.502zM303.856 392.537v6.426l-.269-.144v-6.449zM304.459 392.912v6.374l-.268-.144v-6.397z"/><path stroke="#333" stroke-width=".5" d="M313.578 395.527v-.091a.38.38 0 0 0-.189-.331.23.23 0 0 0-.348.198v.095c0 .129.064.249.17.322a.234.234 0 0 0 .367-.193ZM313.578 403.871v-.069a.43.43 0 0 0-.22-.375.26.26 0 0 0-.384.225v.072c0 .148.075.286.199.366a.262.262 0 0 0 .405-.219ZM300.838 389.182v-.102a.29.29 0 0 0-.134-.244.174.174 0 0 0-.268.146v.105c0 .094.044.182.119.237a.177.177 0 0 0 .283-.142ZM300.838 396.04v-.068a.29.29 0 0 0-.141-.248.173.173 0 0 0-.261.149v.071c0 .096.048.187.127.241a.175.175 0 0 0 .275-.145Z"/><path stroke="#ACAEB0" stroke-linecap="round" stroke-linejoin="round" stroke-width=".4" d="M357.898 392.322v2.387l3.554-.426v-2.481l-.704.091v-.523l-.503.053v-.335l-1.04.13v.407l-.502.053v.55zM361.452 397.155v-2.38l-3.554.446v2.457l.704-.087v.523l.503-.054v.364l1.04-.129v-.436l.503-.053v-.55z"/><path stroke="#ACAEB0" stroke-width=".4" d="M362.055 398.528v-8.144l-4.71.586v8.164z"/><path stroke="#ACAEB0" stroke-linecap="round" stroke-linejoin="round" stroke-width=".4" d="M329.804 378.64v-2.38l-3.554.369v2.514l.704-.067v.523l.503-.054v.336l1.039-.101v-.436l.503-.054v-.549zM325.579 379.143v-2.381l-3.553.369v2.514l.704-.067v.523l.503-.053v.335l1.039-.101v-.435l.503-.054v-.55zM323.233 380.048l-.5-.235M334.028 378.171v-2.38l-3.554.368v2.515l.704-.067v.523l.503-.054v.335l1.04-.1v-.436l.502-.054v-.55zM321.355 379.679v-2.38l-3.553.369v2.514l.704-.067v.523l.503-.054v.336l1.039-.101v-.436l.503-.053v-.55zM319.009 380.585l-.5-.235M317.802 374.912v2.387l3.553-.369v-2.514l-.704.067v-.523l-.502.053v-.335l-1.04.101v.435l-.503.054v.55zM322.026 374.375v2.387l3.553-.369v-2.514l-.704.067v-.523l-.503.054v-.336l-1.039.101v.436l-.503.054v.549zM330.407 373.403v2.421l3.554-.369v-2.514l-.704.067v-.523l-.503.053v-.335l-1.039.101v.435l-.503.054v.55z"/><path stroke="#ACAEB0" stroke-linecap="round" stroke-linejoin="round" stroke-width=".4" d="M317.131 381.757v-8.28l17.467-2.045v7.979z"/><path stroke="#ACAEB0" stroke-linecap="round" stroke-linejoin="round" stroke-width=".4" d="M326.25 373.872v2.421l3.554-.369v-2.514l-.704.067v-.523l-.503.053v-.335l-1.039.101v.436l-.503.053v.55zM348.075 376.394v-2.38l-3.553.369v2.514l.704-.067v.523l.502-.053v.335l1.04-.101v-.435l.503-.054v-.55zM345.728 377.299l-.5-.235M343.851 376.897v-2.38l-3.554.369v2.514l.704-.067v.523l.503-.053v.335l1.039-.101v-.436l.503-.053v-.55zM341.504 377.803l-.5-.235M352.266 375.925v-2.38l-3.554.369v2.514l.704-.067v.523l.503-.054v.336l1.039-.101v-.436l.503-.053v-.55zM339.627 377.433v-2.38l-3.554.369v2.514l.704-.067v.523l.503-.054v.335l1.039-.1v-.436l.503-.054v-.549zM337.28 378.338l-.499-.234M336.073 372.666v2.387l3.554-.369v-2.514l-.704.067v-.523l-.503.053v-.335l-1.04.101v.435l-.502.054v.55zM340.297 372.13v2.387l3.554-.369v-2.514l-.704.067v-.523l-.503.054v-.336l-1.039.101v.436l-.503.053v.55zM348.679 371.158v2.421l3.553-.369v-2.515l-.704.067v-.523l-.503.054v-.335l-1.039.1v.436l-.503.054v.55z"/><path stroke="#ACAEB0" stroke-linecap="round" stroke-linejoin="round" stroke-width=".4" d="M335.403 379.378v-8.013l17.466-2.045v7.711z"/><path stroke="#ACAEB0" stroke-linecap="round" stroke-linejoin="round" stroke-width=".4" d="M344.522 371.627v2.42l3.553-.368v-2.515l-.704.067v-.523l-.502.054v-.335l-1.04.1v.436l-.503.054v.549z"/><path stroke="#333" stroke-linecap="round" stroke-linejoin="round" d="m363.464 366.102-9.912-3.037a52 52 0 0 0-20.412-2.023l-31.339 3.136a2 2 0 0 0-1.801 1.99v7.62a3 3 0 0 0 1.59 2.648l13.329 7.099c.107.054.369.067.637.033"/><path stroke="#333" stroke-linecap="round" stroke-linejoin="round" d="M314.584 381.421v-7.905a2 2 0 0 1 1.769-1.987l45.417-5.269a2 2 0 0 1 2.23 1.987v6.289a3 3 0 0 1-2.607 2.974l-44.547 5.894a2 2 0 0 1-2.262-1.983M314.651 371.868l-14.36-7.214"/><path fill="#C4C4C4" d="M312.304 376.762v4.224l-.268-.143v-6.095c.167.593.268 1.262.268 2.014M305.062 370.791v6.321l-.268-.144v-6.344zM305.398 368.928v8.363l.268.144v-8.366zM306.001 369.246v8.368l.268.144v-8.371zM306.605 369.564v8.373l.268.143v-8.375zM307.208 378.26l.268.143v-8.379l-.268-.142zM307.812 378.583l.268.143v-8.381l-.268-.143zM308.415 378.905l.268.144v-8.381l-.268-.144zM309.018 370.852l.135.076.134.084v8.36l-.269-.144zM309.89 371.455a7 7 0 0 0-.268-.211v8.307l.268.144zM310.494 372.022a8 8 0 0 0-.269-.27v8.122l.269.144zM311.097 372.763a7 7 0 0 0-.268-.357v7.791l.268.143zM311.7 373.824a6 6 0 0 0-.268-.53v7.226l.268.143zM301.442 368.538v6.637l-.268-.144v-6.659zM302.045 368.914v6.584l-.268-.144v-6.607zM302.649 369.289v6.531l-.269-.143v-6.555zM303.252 369.665v6.478l-.268-.143v-6.502zM303.856 370.04v6.426l-.269-.143v-6.45zM304.459 370.415v6.374l-.268-.144v-6.397z"/><path stroke="#333" stroke-width=".5" d="M313.578 373.032v-.091a.38.38 0 0 0-.189-.331.23.23 0 0 0-.348.198v.095c0 .128.063.249.169.322a.235.235 0 0 0 .368-.193ZM313.578 381.376v-.069a.43.43 0 0 0-.221-.375.258.258 0 0 0-.383.225v.072c0 .148.075.286.199.366a.262.262 0 0 0 .405-.219ZM300.838 366.688v-.102a.29.29 0 0 0-.134-.245.174.174 0 0 0-.268.147v.105c0 .093.044.181.119.237a.177.177 0 0 0 .283-.142ZM300.838 373.545v-.068a.29.29 0 0 0-.141-.248.173.173 0 0 0-.261.148v.071c0 .097.048.187.127.242a.176.176 0 0 0 .275-.145Z"/><path stroke="#ACAEB0" stroke-linecap="round" stroke-linejoin="round" stroke-width=".4" d="M357.898 369.849v2.421l3.554-.369v-2.515l-.704.067v-.523l-.503.054v-.335l-1.04.1v.436l-.502.054v.55zM361.452 374.785v-2.38l-3.554.369v2.514l.704-.067v.523l.503-.054v.336l1.04-.101v-.436l.503-.054v-.549z"/><path stroke="#ACAEB0" stroke-width=".4" d="M362.055 375.858v-7.678l-4.71.587v7.697z"/><rect width="24" height="57" x="486" y="214" fill="#fff" rx="9"/><path stroke="#333" stroke-linecap="round" stroke-width="1.5" d="M489.997 253.573h-1.558c-16.992 0-21.439-5.24-21.439-11.434s4.923-11.752 13.181-11.752c1.165-5.082 3.018-13.902 14.769-15.246 10.164-1.161 13.552 5.135 14.293 7.782 1.535-.423 5.463-.635 7.623 1.271 2.859 2.522 2.964 4.923 2.859 6.193 3.599.106 11.275 2.597 11.275 11.752 0 11.434-11.275 11.434-19.851 11.434h-3.904M498.127 241.83v17.934"/><circle cx="498.126" cy="265.952" r="4.447" stroke="#333" stroke-width="1.5"/><path stroke="#333" stroke-width="1.5" d="M502.414 266.426h12.07M481.611 266.426h12.069"/><path stroke="#333" stroke-linejoin="round" stroke-width="1.5" d="M514.643 261.505h8.893v8.893h-8.893zM472.717 261.505h8.893v8.893h-8.893z"/><path fill="#fff" stroke="#333" stroke-miterlimit="10" d="M332 113c17.673 0 32-14.327 32-32s-14.327-32-32-32-32 14.327-32 32 14.327 32 32 32Z"/><path fill="#fff" stroke="#333" stroke-miterlimit="10" d="M332 112.139c7.364 0 13.334-13.942 13.334-31.141S339.364 49.857 332 49.857s-13.333 13.942-13.333 31.14c0 17.2 5.97 31.142 13.333 31.142Z"/><path stroke="#333" stroke-linecap="round" stroke-linejoin="round" d="M301.819 70.334h60.355M301.827 91.667h60.355"/><path fill="#7F7F7F" d="M27.865 242.635q0 1.447-.527 2.42a3.4 3.4 0 0 1-1.53 1.459q-.995.486-2.42.486h-2.326v-8.566h2.584q1.308 0 2.25.48a3.3 3.3 0 0 1 1.454 1.412q.515.932.515 2.309m-1.049.035q0-1.154-.386-1.904a2.43 2.43 0 0 0-1.125-1.114q-.738-.369-1.81-.369h-1.436v6.862h1.212q1.77 0 2.655-.874.89-.873.89-2.601m5.21-2.197q1.148 0 1.704.515.558.516.557 1.647V247h-.709l-.187-.949h-.047q-.27.35-.563.592a2.1 2.1 0 0 1-.68.357 3.2 3.2 0 0 1-.937.117q-.585 0-1.043-.205-.45-.206-.715-.621-.258-.416-.258-1.055 0-.96.762-1.476t2.32-.563l1.108-.047v-.392q0-.833-.358-1.166-.357-.334-1.007-.334-.505 0-.961.146a7 7 0 0 0-.867.346l-.3-.738q.435-.224.997-.381.563-.158 1.183-.158m1.3 3.363-.978.041q-1.202.047-1.694.393-.492.345-.492.978 0 .551.334.814.334.264.885.264.855 0 1.4-.474.546-.475.545-1.424zm5.04 2.484a3 3 0 0 0 .902-.14v.756a2 2 0 0 1-.475.128q-.3.054-.586.053-.51 0-.926-.176a1.43 1.43 0 0 1-.668-.609q-.246-.428-.246-1.184v-3.808h-.914v-.475l.92-.381.387-1.394h.586v1.488h1.88v.762h-1.88v3.779q0 .603.275.902.282.3.744.299m4.605-5.847q1.148 0 1.705.515.556.516.556 1.647V247h-.709l-.187-.949h-.047q-.27.35-.562.592a2.1 2.1 0 0 1-.68.357 3.2 3.2 0 0 1-.938.117q-.585 0-1.043-.205-.45-.206-.714-.621-.258-.416-.258-1.055 0-.96.761-1.476.763-.516 2.32-.563l1.108-.047v-.392q0-.833-.357-1.166-.358-.334-1.008-.334-.504 0-.961.146a7 7 0 0 0-.867.346l-.299-.738q.434-.224.996-.381.563-.158 1.184-.158m1.3 3.363-.978.041q-1.2.047-1.693.393-.493.345-.493.978 0 .551.334.814.335.264.885.264.855 0 1.4-.474.546-.475.546-1.424zm9.891-4.647q-.708 0-1.277.247-.562.24-.961.703a3.2 3.2 0 0 0-.604 1.107 4.7 4.7 0 0 0-.21 1.465q0 1.078.333 1.875.34.79 1.008 1.225.674.433 1.682.433.574 0 1.078-.094.51-.099.99-.246v.867q-.468.177-.984.258a7.4 7.4 0 0 1-1.225.088q-1.306 0-2.185-.539a3.37 3.37 0 0 1-1.313-1.535q-.434-.99-.434-2.338 0-.972.27-1.775.276-.808.797-1.395.527-.585 1.289-.902.768-.322 1.758-.322.65 0 1.254.128.603.129 1.09.37l-.399.843a6 6 0 0 0-.902-.322 3.8 3.8 0 0 0-1.055-.141m6.223 1.272q.82 0 1.406.363t.897 1.02q.31.65.31 1.523v.604h-4.435q.017 1.131.562 1.722.545.592 1.535.592.61 0 1.078-.111.47-.112.973-.328v.855q-.486.217-.967.317a5.6 5.6 0 0 1-1.125.099q-.925 0-1.617-.375a2.63 2.63 0 0 1-1.067-1.113q-.38-.732-.38-1.793 0-1.037.345-1.793.352-.761.985-1.172.637-.41 1.5-.41m-.012.797q-.78 0-1.242.51-.463.509-.55 1.423h3.397a2.7 2.7 0 0 0-.181-1.007 1.4 1.4 0 0 0-.522-.68q-.351-.246-.902-.246m7.318-.797q1.143 0 1.729.562.585.558.586 1.793V247h-.961v-4.119q0-.803-.37-1.201-.362-.399-1.118-.399-1.066 0-1.5.604-.434.603-.434 1.752V247h-.973v-6.422h.785l.147.926h.053a1.9 1.9 0 0 1 .521-.568q.316-.235.71-.352.391-.123.825-.123m6.393 5.859a3 3 0 0 0 .902-.14v.756a2 2 0 0 1-.474.128q-.3.054-.586.053-.51 0-.926-.176a1.43 1.43 0 0 1-.668-.609q-.246-.428-.246-1.184v-3.808h-.914v-.475l.92-.381.386-1.394h.587v1.488h1.88v.762h-1.88v3.779q0 .603.275.902.28.3.744.299m4.676-5.859q.82 0 1.406.363t.897 1.02q.31.65.31 1.523v.604h-4.436q.018 1.131.563 1.722.545.592 1.535.592.61 0 1.078-.111.47-.112.973-.328v.855q-.487.217-.967.317a5.6 5.6 0 0 1-1.125.099q-.925 0-1.617-.375a2.63 2.63 0 0 1-1.066-1.113q-.381-.732-.381-1.793 0-1.037.345-1.793.352-.761.985-1.172.638-.41 1.5-.41m-.012.797q-.78 0-1.242.51-.463.509-.55 1.423h3.397a2.7 2.7 0 0 0-.181-1.007 1.4 1.4 0 0 0-.522-.68q-.351-.246-.902-.246m7.195-.797q.194 0 .405.023.21.018.375.053l-.123.902a2.947 2.947 0 0 0-.715-.087q-.387 0-.733.158-.339.152-.597.445a2.1 2.1 0 0 0-.405.697q-.146.405-.146.903V247h-.979v-6.422h.809l.105 1.184h.042a3.2 3.2 0 0 1 .48-.651q.28-.299.65-.474a1.94 1.94 0 0 1 .832-.176m12.059 2.174q0 1.447-.527 2.42a3.4 3.4 0 0 1-1.53 1.459q-.995.486-2.42.486H91.2v-8.566h2.584q1.306 0 2.25.48a3.3 3.3 0 0 1 1.453 1.412q.516.932.516 2.309m-1.049.035q0-1.154-.387-1.904a2.43 2.43 0 0 0-1.125-1.114q-.738-.369-1.81-.369h-1.436v6.862h1.213q1.77 0 2.654-.874.891-.873.891-2.601m5.279-2.209q.82 0 1.407.363.585.363.896 1.02.31.65.311 1.523v.604h-4.436q.017 1.131.563 1.722.545.592 1.535.592.609 0 1.078-.111.468-.112.973-.328v.855q-.487.217-.967.317a5.6 5.6 0 0 1-1.125.099q-.926 0-1.617-.375a2.63 2.63 0 0 1-1.067-1.113q-.38-.732-.38-1.793 0-1.037.345-1.793.352-.761.984-1.172.639-.41 1.5-.41m-.011.797q-.78 0-1.242.51-.464.509-.551 1.423h3.398a2.8 2.8 0 0 0-.181-1.007 1.42 1.42 0 0 0-.522-.68q-.351-.246-.902-.246M107.91 247l-2.437-6.422h1.043l1.412 3.885q.146.398.299.879.151.48.211.773h.041q.07-.293.234-.773.164-.486.299-.879l1.412-3.885h1.043L109.023 247zm5.561-6.422V247h-.973v-6.422zm-.475-2.402q.24 0 .41.158.176.153.176.48 0 .322-.176.481a.58.58 0 0 1-.41.158.6.6 0 0 1-.422-.158q-.164-.159-.164-.481 0-.327.164-.48a.6.6 0 0 1 .422-.158m5.109 8.941q-.867 0-1.529-.357a2.46 2.46 0 0 1-1.031-1.09q-.369-.733-.369-1.846 0-1.166.386-1.904a2.54 2.54 0 0 1 1.079-1.102q.685-.357 1.558-.357.481 0 .926.1.451.093.738.24l-.293.814a5 5 0 0 0-.679-.211 3 3 0 0 0-.715-.093q-.669 0-1.114.287-.438.286-.662.843-.216.557-.216 1.371 0 .78.211 1.331.216.55.638.843.428.287 1.067.287.509 0 .92-.105.41-.111.744-.258v.867a3 3 0 0 1-.721.252 4.3 4.3 0 0 1-.938.088m5.655-6.656q.82 0 1.406.363t.896 1.02q.312.65.311 1.523v.604h-4.435q.017 1.131.562 1.722.545.592 1.535.592.61 0 1.078-.111.47-.112.973-.328v.855q-.486.217-.967.317a5.6 5.6 0 0 1-1.125.099q-.925 0-1.617-.375a2.6 2.6 0 0 1-1.066-1.113q-.381-.732-.381-1.793 0-1.037.345-1.793.352-.761.985-1.172.639-.41 1.5-.41m-.012.797q-.78 0-1.242.51-.463.509-.551 1.423h3.399a2.8 2.8 0 0 0-.182-1.007 1.4 1.4 0 0 0-.522-.68q-.351-.246-.902-.246"/></svg>