<svg width="16" height="16" viewBox="0 0 16 16" fill="none" xmlns="http://www.w3.org/2000/svg">
<path d="M8 2C6.78629 2.00001 5.60111 2.36811 4.60095 3.05569C3.60078 3.74328 2.83266 4.71802 2.39798 5.85123C1.96331 6.98444 1.88253 8.22283 2.1663 9.4029C2.45008 10.583 3.08506 11.6492 3.98743 12.4609V12.4609C4.36389 11.7202 4.93805 11.0983 5.64628 10.6639C6.35452 10.2296 7.16918 9.99978 8 10C7.50555 10 7.0222 9.85338 6.61108 9.57867C6.19995 9.30397 5.87952 8.91352 5.6903 8.45671C5.50108 7.99989 5.45157 7.49723 5.54804 7.01227C5.6445 6.52732 5.8826 6.08186 6.23223 5.73223C6.58187 5.3826 7.02732 5.1445 7.51228 5.04804C7.99723 4.95157 8.4999 5.00108 8.95671 5.1903C9.41353 5.37952 9.80397 5.69995 10.0787 6.11107C10.3534 6.5222 10.5 7.00555 10.5 7.5C10.5 8.16304 10.2366 8.79892 9.76777 9.26777C9.29893 9.73661 8.66304 10 8 10C8.83082 9.99978 9.64548 10.2296 10.3537 10.6639C11.062 11.0983 11.6361 11.7202 12.0126 12.4609C12.9149 11.6492 13.5499 10.5829 13.8337 9.40285C14.1175 8.22278 14.0367 6.9844 13.602 5.85119C13.1673 4.71799 12.3992 3.74325 11.3991 3.05567C10.3989 2.36809 9.21371 2 8 2Z" fill="current"/>
<path d="M8 14C11.3137 14 14 11.3137 14 8C14 4.68629 11.3137 2 8 2C4.68629 2 2 4.68629 2 8C2 11.3137 4.68629 14 8 14Z" stroke="white" stroke-linecap="round" stroke-linejoin="round"/>
<path d="M8 10C9.38071 10 10.5 8.88071 10.5 7.5C10.5 6.11929 9.38071 5 8 5C6.61929 5 5.5 6.11929 5.5 7.5C5.5 8.88071 6.61929 10 8 10Z" stroke="current" stroke-linecap="round" stroke-linejoin="round"/>
<path d="M3.98828 12.4609C4.36491 11.7204 4.93911 11.0986 5.6473 10.6642C6.35549 10.2299 7.17006 10 8.00083 10C8.8316 10 9.64617 10.2299 10.3544 10.6642C11.0626 11.0985 11.6368 11.7204 12.0134 12.4609" stroke="current" stroke-linecap="round" stroke-linejoin="round"/>
</svg>
