<svg width="24" height="24" viewBox="0 0 24 24" fill="none" xmlns="http://www.w3.org/2000/svg">
<path d="M3.75 8.25H20.25V18.25C20.25 18.7804 20.171 19.2891 20.0303 19.6642C19.8897 20.0393 19.6989 20.25 19.5 20.25H4.5C4.30109 20.25 4.11032 20.0393 3.96967 19.6642C3.82902 19.2891 3.75 18.7804 3.75 18.25V8.25Z" fill="#333333"/>
<path d="M19.5 3.75H4.5C4.08579 3.75 3.75 4.08579 3.75 4.5V19.5C3.75 19.9142 4.08579 20.25 4.5 20.25H19.5C19.9142 20.25 20.25 19.9142 20.25 19.5V4.5C20.25 4.08579 19.9142 3.75 19.5 3.75Z" stroke="#333333" stroke-linecap="round" stroke-linejoin="round"/>
<path d="M16.5 2.25V5.25" stroke="#333333" stroke-linecap="round" stroke-linejoin="round"/>
<path d="M7.5 2.25V5.25" stroke="#333333" stroke-linecap="round" stroke-linejoin="round"/>
<path d="M3.75 8.25H20.25" stroke="#333333" stroke-linecap="round" stroke-linejoin="round"/>
<circle cx="15.375" cy="15.375" r="1.875" fill="white" stroke="white"/>
<circle cx="15.375" cy="15.375" r="1.875" fill="white" stroke="white"/>
</svg>
