<svg width="142" height="25" viewBox="0 0 142 25" fill="none" xmlns="http://www.w3.org/2000/svg">
<path d="M10.164 1.908C6.58 1.908 5.964 2.16 5.096 5.296L0.084 23.552C0.028 23.86 0.168 24 0.448 24H4.732C4.984 24 5.012 23.86 5.096 23.552L6.664 17.896H13.692L15.204 23.552C15.288 23.86 15.344 24 15.596 24H19.88C20.16 24 20.3 23.86 20.244 23.552L15.26 5.296C14.392 2.188 13.804 1.908 10.164 1.908ZM10.136 6.22C10.5 6.22 10.528 6.304 10.64 6.668L12.544 13.668H7.812L9.688 6.668C9.8 6.304 9.828 6.22 10.136 6.22ZM30.7598 1.908C23.4518 1.908 21.5198 4.4 21.5198 12.996C21.5198 21.592 23.4518 24.14 30.7598 24.14C33.5038 24.14 35.0438 23.972 36.4158 23.636C36.8918 23.524 37.1438 23.328 37.1438 22.768V20.052C37.1438 19.772 37.0038 19.632 36.7238 19.632H30.7598C27.3718 19.632 26.7558 18.008 26.7558 12.996C26.7558 7.984 27.3718 6.416 30.7598 6.416H36.7238C37.0038 6.416 37.1438 6.276 37.1438 5.996V3.28C37.1438 2.72 36.8918 2.552 36.4158 2.412C35.0438 2.104 33.5038 1.908 30.7598 1.908ZM52.7632 2.076C52.3152 2.076 52.1752 2.244 52.0072 2.524L48.2552 8.656L44.5032 2.524C44.3352 2.244 44.1952 2.076 43.7472 2.076H38.9032C38.4832 2.076 38.3432 2.3 38.5952 2.692L45.2312 12.604L37.9792 23.384C37.6712 23.832 37.8952 24 38.2872 24H43.1312C43.5512 24 43.6632 23.86 43.8872 23.552L48.2552 16.552L52.6232 23.552C52.8192 23.86 52.9592 24 53.3792 24H58.2232C58.6152 24 58.8392 23.832 58.5312 23.384L51.2792 12.604L57.9152 2.692C58.1672 2.3 58.0272 2.076 57.6072 2.076H52.7632Z" fill="white"/>
<path fill-rule="evenodd" clip-rule="evenodd" d="M123.418 3.47266C123.071 3.47266 122.818 3.18871 122.818 2.83096C122.818 2.47828 123.071 2.18927 123.408 2.18927H123.412C123.754 2.18927 124.002 2.47828 124.002 2.83096C124.002 3.18871 123.754 3.47717 123.418 3.47266ZM123.417 2.02813H123.412C122.972 2.02813 122.622 2.38532 122.622 2.83096C122.622 3.28674 122.972 3.63886 123.412 3.63886C123.856 3.63886 124.198 3.28674 124.198 2.83096C124.198 2.38532 123.856 2.02813 123.417 2.02813ZM123.38 2.79711H123.295V2.56668C123.314 2.56161 123.347 2.55711 123.394 2.55711C123.506 2.55711 123.557 2.60612 123.557 2.67936C123.557 2.76274 123.478 2.79711 123.38 2.79711ZM123.59 2.85577V2.8462C123.683 2.81577 123.749 2.7476 123.749 2.65464C123.749 2.5814 123.716 2.51774 123.674 2.48338C123.618 2.4445 123.553 2.41971 123.408 2.41971C123.281 2.41971 123.183 2.43436 123.113 2.44957V3.24789H123.291V2.92901H123.375C123.473 2.92901 123.52 2.96845 123.534 3.05634L123.542 3.08849C123.561 3.16511 123.574 3.22159 123.595 3.24789H123.787C123.768 3.2231 123.754 3.17409 123.73 3.05127C123.706 2.94423 123.665 2.88 123.59 2.85577ZM96.2083 2.15883L95.0835 5.35717C94.8029 6.19099 94.5781 6.91719 94.4187 7.58368H94.3905C94.2316 6.89691 94.0157 6.17127 93.7539 5.35717L92.6761 2.15883H91.6359L91.1959 8.77073H91.9731L92.1419 5.93634C92.1984 4.94478 92.2449 3.8366 92.2642 3.01236H92.2825C92.4607 3.79716 92.7137 4.65069 93.0138 5.58309L94.0351 8.73073H94.6528L95.7677 5.52394C96.0866 4.62139 96.349 3.78758 96.5643 3.01236H96.5925C96.5826 3.8366 96.639 4.94478 96.6861 5.86704L96.8449 8.77073H97.6421L97.2479 2.15883H96.2083ZM89.0818 2.15883L87.957 5.35717C87.6764 6.19099 87.4516 6.91719 87.2922 7.58368H87.2639C87.1051 6.89691 86.8892 6.17127 86.6268 5.35717L85.5496 2.15883H84.5089L84.0688 8.77073H84.8471L85.0154 5.93634C85.0719 4.94478 85.1184 3.8366 85.1372 3.01236H85.1554C85.3342 3.79716 85.5872 4.65069 85.8867 5.58309L86.908 8.73073H87.5263L88.6412 5.52394C88.9595 4.62139 89.2224 3.78758 89.4372 3.01236H89.4655C89.456 3.8366 89.5125 4.94478 89.5596 5.86704L89.7184 8.77073H90.515L90.1214 2.15883H89.0818ZM105.668 2.75663C106.264 2.75663 106.886 2.9848 107.339 3.40734L107.74 2.78761C107.184 2.20113 106.45 2 105.742 2C103.879 2 102.374 3.53072 102.374 5.4913C102.374 7.40851 103.871 8.97021 105.675 8.91275C106.306 8.89303 107.119 8.68627 107.74 8.10767L107.339 7.47104C106.868 7.90992 106.272 8.15668 105.651 8.15668C104.24 8.15668 103.164 6.91611 103.164 5.46539C103.164 3.99664 104.248 2.75663 105.668 2.75663ZM118.701 8.77198H122.103V8.01536H119.49V5.50941H122.027V4.75279H119.49V2.89699H122.103V2.14093H118.701V8.77198ZM115.72 5.25413H115.467V2.87945H115.678C116.459 2.87945 117.399 3.0034 117.399 4.04059C117.399 5.09525 116.526 5.25413 115.72 5.25413ZM115.585 2.14093H114.678V8.77198H115.467V5.99336H115.921C117.122 5.99336 118.138 5.45646 118.138 4.05813C118.138 2.8446 117.534 2.14093 115.585 2.14093ZM100.488 4.84961L100.035 4.66482C99.6399 4.50651 99.1528 4.23383 99.1528 3.71551C99.1528 3.13466 99.7074 2.77409 100.211 2.77409C100.766 2.77409 101.107 3.16508 101.132 3.59833L101.857 3.60171C101.742 2.44 100.934 2 100.228 2C99.2701 2 98.3629 2.6417 98.3629 3.71551C98.3629 4.63834 99.0183 5.06933 99.7407 5.39497L100.178 5.58821C100.724 5.82596 101.27 6.13413 101.27 6.84625C101.27 7.5409 100.782 8.13922 100.102 8.13922C99.4218 8.13922 98.8677 7.61076 98.876 6.88118L98.0778 6.89752C98.1741 8.16119 99.01 8.91275 100.035 8.91275C101.168 8.91275 102.06 8.05077 102.06 6.84625C102.06 5.73807 101.387 5.21919 100.488 4.84961ZM80.3245 8.1392C78.9556 8.1392 77.7959 6.96961 77.7959 5.45636C77.7959 3.99662 78.8377 2.77408 80.3245 2.77408C81.8108 2.77408 82.8526 3.99662 82.8526 5.45636C82.8526 6.96961 81.6935 8.1392 80.3245 8.1392ZM80.3245 2C78.5099 2 77.0065 3.5572 77.0065 5.45637C77.0065 7.42654 78.4933 8.91275 80.3245 8.91275C82.1557 8.91275 83.6425 7.42654 83.6425 5.45637C83.6425 3.5572 82.1391 2 80.3245 2ZM75.1089 8.15668C73.6984 8.15668 72.6229 6.91611 72.6229 5.46539C72.6229 3.99664 73.7067 2.75663 75.1261 2.75663C75.7223 2.75663 76.3439 2.9848 76.7978 3.40734L77.1975 2.78761C76.6428 2.20113 75.9082 2 75.2014 2C73.337 2 71.8335 3.53072 71.8335 5.4913C71.8335 7.40851 73.3292 8.97021 75.1349 8.91275C75.7654 8.89303 76.577 8.68627 77.1975 8.10767L76.7978 7.47104C76.3273 7.90992 75.7306 8.15668 75.1089 8.15668ZM139.917 14.9872V14.5844H140.111C140.306 14.5844 140.354 14.6321 140.354 14.7929C140.354 14.9579 140.306 14.9872 140.111 14.9872H139.917ZM140.406 15.214C140.607 15.17 140.681 15.0564 140.681 14.7819C140.681 14.4199 140.544 14.3063 140.144 14.3063C139.983 14.3063 139.796 14.3099 139.622 14.3246C139.6 14.3283 139.593 14.3319 139.593 14.3539V15.7116C139.593 15.7373 139.6 15.7446 139.626 15.7446H139.887C139.909 15.7446 139.917 15.7373 139.917 15.7116V15.2318H140.053L140.35 15.7006C140.372 15.7305 140.387 15.7446 140.431 15.7446H140.692C140.717 15.7446 140.728 15.7263 140.714 15.7043L140.406 15.214ZM140.104 13.8337C140.916 13.8337 141.287 14.2072 141.287 15.0233C141.287 15.8394 140.916 16.2129 140.104 16.2129C139.292 16.2129 138.92 15.8394 138.92 15.0233C138.92 14.203 139.292 13.8337 140.104 13.8337ZM140.104 13.6218C139.145 13.6218 138.707 14.0607 138.707 15.0235C138.707 15.9862 139.145 16.4257 140.104 16.4257C141.063 16.4257 141.5 15.9862 141.5 15.0235C141.5 14.0607 141.063 13.6218 140.104 13.6218ZM74.8244 15.4056V18.9842H76.339C78.2429 18.9842 78.7388 18.8275 78.7388 17.2341C78.7388 15.6799 78.2429 15.4056 76.339 15.4056H74.8244ZM80.4812 17.195C80.4812 19.2324 79.9182 19.9768 78.3495 20.2119L80.6152 23.7388C80.7225 23.8825 80.6555 24 80.4544 24H79.2078C78.8996 24 78.8057 23.9086 78.6717 23.7127L76.4601 20.3164L74.8243 20.33V23.8041C74.8243 23.9608 74.7841 24 74.6232 24H73.2962C73.1354 24 73.0952 23.9608 73.0952 23.8041V14.2302C73.0952 14.086 73.1354 14.0599 73.2962 14.0468C74.3685 13.9685 75.5749 13.9429 76.4997 13.9429C79.4759 13.9429 80.4812 14.5431 80.4812 17.195ZM91.8224 13.9429C91.9693 13.9429 92.0222 13.9815 92.0222 14.1382V18.9587C92.0222 22.9944 91.1946 24 87.9216 24C84.6486 24 83.8205 22.9944 83.8205 18.9587V14.1382C83.8205 13.9815 83.8745 13.9429 84.0208 13.9429H85.3432C85.4907 13.9429 85.5441 13.9815 85.5441 14.1382V18.9587C85.5441 21.8189 86.0249 22.5372 87.9216 22.5372C89.8322 22.5372 90.3125 21.8189 90.3125 18.9587V14.1382C90.3125 13.9815 90.3526 13.9429 90.5128 13.9429H91.8224ZM102.748 14.3711C102.748 14.2019 102.655 14.1245 102.495 14.0986C101.845 13.9818 100.97 13.9429 99.9612 13.9429C96.6568 13.9429 95.8076 15.0718 95.8076 18.9652C95.8076 22.8451 96.6568 24 99.9612 24C100.97 24 101.845 23.9487 102.495 23.8443C102.655 23.8189 102.748 23.7281 102.748 23.5588V22.7413C102.748 22.6116 102.682 22.5467 102.549 22.5467H99.9612C97.8913 22.5467 97.5325 21.7292 97.5325 18.9652C97.5325 16.2008 97.8913 15.3962 99.9612 15.3962H102.549C102.682 15.3962 102.748 15.3313 102.748 15.1886V14.3711ZM112.96 13.9429C113.199 13.9429 113.185 14.0612 113.08 14.1927L109.385 18.5839L113.397 23.6451C113.516 23.8028 113.53 24 113.172 24H111.742C111.61 24 111.503 23.948 111.451 23.856L107.61 18.9652V23.8028C107.61 23.9343 107.544 24 107.411 24H106.1C105.968 24 105.902 23.9343 105.902 23.8028V14.1395C105.902 14.0086 105.968 13.9429 106.1 13.9429H107.411C107.544 13.9429 107.61 14.0086 107.61 14.1395V18.2942L111.225 14.0743C111.292 13.9955 111.385 13.9429 111.503 13.9429H112.96ZM124.829 14.1382C124.829 13.9815 124.776 13.9429 124.629 13.9429H123.32C123.159 13.9429 123.119 13.9815 123.119 14.1382V18.9587C123.119 21.8189 122.639 22.5372 120.728 22.5372C118.832 22.5372 118.351 21.8189 118.351 18.9587V14.1382C118.351 13.9815 118.297 13.9429 118.15 13.9429H116.828C116.681 13.9429 116.627 13.9815 116.627 14.1382V18.9587C116.627 22.9944 117.455 24 120.728 24C124.001 24 124.829 22.9944 124.829 18.9587V14.1382ZM134.853 14.1635C135.009 14.1894 135.061 14.2543 135.061 14.3711V15.1756C135.061 15.3184 134.997 15.3962 134.866 15.3962H131.87C130.898 15.3962 130.418 15.7071 130.418 16.3954V16.603C130.418 17.1486 130.599 17.4724 131.286 17.7579L133.92 18.8095C135.139 19.3026 135.554 19.9774 135.554 21.2361V21.6383C135.554 23.5848 134.023 24 131.987 24C130.975 24 129.951 23.9351 128.796 23.7665C128.667 23.7405 128.614 23.6756 128.614 23.5329V22.7543C128.614 22.6116 128.679 22.5467 128.822 22.5467H132.441C133.401 22.5467 133.881 22.2612 133.881 21.5735V21.3529C133.881 20.7554 133.66 20.4056 132.921 20.1066L130.119 19.0036C129.069 18.6143 128.744 17.8358 128.744 16.59V16.2916C128.744 14.3451 130.184 13.9429 132.246 13.9429C133.323 13.9429 133.829 14.0078 134.853 14.1635ZM109.547 3.50099C109.69 2.46206 111.067 1.94976 112.107 2.33012C113.286 2.88216 114.104 4.07346 114.104 5.45742C114.104 7.36637 112.55 8.91429 110.634 8.91429C108.718 8.91429 107.164 7.36637 107.164 5.45742C107.164 3.54792 108.718 2 110.634 2C110.763 2 110.89 2.00828 111.016 2.02208C109.666 2.01932 108.355 2.80432 108.095 4.39585C107.841 5.96088 108.821 7.20628 110.123 7.54302C110.768 7.76494 111.579 7.70477 112.108 7.08869C112.437 6.70447 112.588 5.56286 111.276 5.3045C110.011 5.05553 109.411 4.49466 109.547 3.50099Z" fill="white"/>
</svg>
