<svg width="20" height="20" viewBox="0 0 20 20" fill="none" xmlns="http://www.w3.org/2000/svg">
<path d="M1.576 13.735C1.42965 13.9691 1.50083 14.2776 1.735 14.424C1.96917 14.5703 2.27764 14.4991 2.424 14.265L1.576 13.735ZM7 6L7.424 5.735C7.33263 5.58881 7.17239 5.5 7 5.5C6.82761 5.5 6.66737 5.58881 6.576 5.735L7 6ZM11.576 14.265C11.7224 14.4991 12.0308 14.5703 12.265 14.424C12.4992 14.2776 12.5704 13.9691 12.424 13.735L11.576 14.265ZM2.424 14.265L7.424 6.265L6.576 5.735L1.576 13.735L2.424 14.265ZM6.576 6.265L11.576 14.265L12.424 13.735L7.424 5.735L6.576 6.265Z" fill="white"/>
<path d="M13.424 5.735C13.2776 5.50083 12.9692 5.42965 12.735 5.576C12.5008 5.72236 12.4296 6.03083 12.576 6.265L13.424 5.735ZM17.576 14.265C17.7224 14.4992 18.0308 14.5704 18.265 14.424C18.4992 14.2776 18.5704 13.9692 18.424 13.735L17.576 14.265ZM12.576 6.265L17.576 14.265L18.424 13.735L13.424 5.735L12.576 6.265Z" fill="white"/>
</svg>
