<svg width="16" height="16" viewBox="0 0 16 16" fill="none" xmlns="http://www.w3.org/2000/svg">
<path d="M6 14H10" stroke="current" stroke-linecap="round" stroke-linejoin="round"/>
<path d="M4 6.00011C4 4 5.5 2 8 2C10.5 2 11.9875 4 11.9875 6.00011V7.00007C11.9875 9.23855 12.9558 10.5375 13.3683 11.2475C13.4127 11.3233 13.4364 11.4096 13.4368 11.4975C13.4373 11.5854 13.4146 11.6719 13.371 11.7482C13.3274 11.8245 13.2644 11.888 13.1884 11.9322C13.1124 11.9764 13.0261 11.9998 12.9382 12.0001H3.06116C2.97323 11.9998 2.88692 11.9764 2.81093 11.9322C2.73494 11.888 2.67197 11.8245 2.62835 11.7481C2.58473 11.6718 2.56202 11.5853 2.56251 11.4974C2.56299 11.4094 2.58666 11.3232 2.63112 11.2473C3.04382 10.5374 4.01237 9.23843 4.01237 7.00007L4 6.00011Z" fill="current"/>
<path d="M4 6.00011C4 4 5.5 2 8 2C10.5 2 11.9875 4 11.9875 6.00011V7.00007C11.9875 9.23855 12.9558 10.5375 13.3683 11.2475C13.4127 11.3233 13.4364 11.4095 13.4368 11.4975C13.4373 11.5854 13.4146 11.6719 13.371 11.7482C13.3274 11.8245 13.2644 11.888 13.1884 11.9322C13.1124 11.9764 13.0261 11.9998 12.9382 12.0001H3.06116C2.97323 11.9998 2.88692 11.9764 2.81093 11.9322C2.73494 11.888 2.67197 11.8245 2.62835 11.7481C2.58473 11.6718 2.56202 11.5853 2.56251 11.4974C2.56299 11.4094 2.58666 11.3232 2.63112 11.2473C3.04382 10.5374 4.01237 9.23843 4.01237 7.00007L4 6.00011Z" stroke="current" stroke-linecap="round" stroke-linejoin="round"/>
</svg>
