<svg width="16" height="16" viewBox="0 0 16 16" fill="none" xmlns="http://www.w3.org/2000/svg">
<path d="M9 14H7" stroke="#333333" stroke-linecap="round" stroke-linejoin="round"/>
<path d="M7.68717 1.23478C6.50015 2.18566 2.52991 5.98535 6.00151 11.9996H10.0015C13.4009 5.98961 9.48877 2.19104 8.31419 1.2368C8.22566 1.16483 8.11513 1.12537 8.00104 1.125C7.88694 1.12463 7.77617 1.16338 7.68717 1.23478V1.23478Z" stroke="#333333" stroke-linecap="round" stroke-linejoin="round"/>
<path d="M4.61824 6.96094L2.65886 9.3122C2.60992 9.37093 2.57509 9.4401 2.55707 9.5144C2.53904 9.58869 2.53829 9.66613 2.55488 9.74076L3.32756 13.2178C3.34598 13.3007 3.3852 13.3775 3.44153 13.4411C3.49786 13.5046 3.56944 13.5527 3.64952 13.581C3.72961 13.6092 3.81556 13.6165 3.89927 13.6023C3.98298 13.5881 4.0617 13.5528 4.128 13.4998L6.00158 12.0009" stroke="#333333" stroke-linecap="round" stroke-linejoin="round"/>
<path d="M11.3457 6.91406L13.3427 9.31047C13.3917 9.3692 13.4265 9.43837 13.4445 9.51267C13.4625 9.58696 13.4633 9.6644 13.4467 9.73903L12.674 13.2161C12.6556 13.299 12.6164 13.3758 12.5601 13.4393C12.5037 13.5029 12.4321 13.551 12.3521 13.5792C12.272 13.6074 12.186 13.6148 12.1023 13.6006C12.0186 13.5864 11.9399 13.5511 11.8736 13.4981L10 11.9992" stroke="#333333" stroke-linecap="round" stroke-linejoin="round"/>
<path d="M8 6.75C8.41421 6.75 8.75 6.41421 8.75 6C8.75 5.58579 8.41421 5.25 8 5.25C7.58579 5.25 7.25 5.58579 7.25 6C7.25 6.41421 7.58579 6.75 8 6.75Z" fill="#333333"/>
</svg>
