<svg id="artwork" xmlns="http://www.w3.org/2000/svg" viewBox="0 0 219.69 108.38"><defs><style>.cls-1{fill:#231f20;}.cls-2{fill:#f47920;}</style></defs><path class="cls-1" d="M126.79,65.88q0,8.87-8.47,8.87-8.22,0-8.22-8.66V54.73h4.56V66.14c0,3.19,1.27,4.78,3.83,4.78s3.75-1.54,3.75-4.61V54.73h4.55Z"/><path class="cls-1" d="M144.85,73.71a13.66,13.66,0,0,1-5.77,1,9.88,9.88,0,0,1-7.3-2.66,9.58,9.58,0,0,1-2.66-7.1,10.24,10.24,0,0,1,3-7.66,10.62,10.62,0,0,1,7.76-2.93,15,15,0,0,1,5,.72v4.27a9,9,0,0,0-4.61-1.18A6.21,6.21,0,0,0,135.65,60a6.38,6.38,0,0,0-1.75,4.73,6.22,6.22,0,0,0,1.65,4.54,5.91,5.91,0,0,0,4.43,1.7,9.63,9.63,0,0,0,4.87-1.26Z"/><path class="cls-1" d="M184.38,65.88q0,8.87-8.47,8.87-8.22,0-8.22-8.66V54.73h4.56V66.14c0,3.19,1.27,4.78,3.83,4.78s3.75-1.54,3.75-4.61V54.73h4.55Z"/><path class="cls-1" d="M187,73.65V69.26a8.79,8.79,0,0,0,5.56,2,6.67,6.67,0,0,0,1.5-.15,3.62,3.62,0,0,0,1.07-.42,1.93,1.93,0,0,0,.64-.63,1.53,1.53,0,0,0,.21-.79,1.74,1.74,0,0,0-.34-1,3.56,3.56,0,0,0-.92-.83,8.52,8.52,0,0,0-1.39-.74c-.53-.24-1.11-.49-1.73-.73A8.82,8.82,0,0,1,188,63.59a5.06,5.06,0,0,1-1.16-3.35,5.16,5.16,0,0,1,.64-2.64,5.25,5.25,0,0,1,1.72-1.82,8.12,8.12,0,0,1,2.53-1.05,13.49,13.49,0,0,1,3-.33,19.22,19.22,0,0,1,2.79.18,10.9,10.9,0,0,1,2.25.57v4.1a7.33,7.33,0,0,0-1.11-.6,9,9,0,0,0-1.23-.43,9.4,9.4,0,0,0-1.26-.26,10,10,0,0,0-1.19-.08,6.16,6.16,0,0,0-1.41.15,3.62,3.62,0,0,0-1.07.4,1.94,1.94,0,0,0-.67.63,1.43,1.43,0,0,0-.24.81,1.53,1.53,0,0,0,.27.89,3,3,0,0,0,.76.74,7.52,7.52,0,0,0,1.19.68c.47.23,1,.46,1.59.7a18.5,18.5,0,0,1,2.18,1,7.94,7.94,0,0,1,1.65,1.25,5,5,0,0,1,1.06,1.6,5.61,5.61,0,0,1,.36,2.09,5.48,5.48,0,0,1-.64,2.77,5,5,0,0,1-1.74,1.81,7.64,7.64,0,0,1-2.55,1,15.25,15.25,0,0,1-3.08.3,17,17,0,0,1-3.16-.28A9.39,9.39,0,0,1,187,73.65Z"/><path class="cls-1" d="M152.58,74.41H148V54.73h4.54Z"/><polygon class="cls-1" points="154.37 65.86 161.41 74.41 167.15 74.41 158.35 64.11 165.39 54.73 159.97 54.73 154.4 62.93 154.37 65.86"/><path class="cls-1" d="M103.53,66.75a6.92,6.92,0,0,0,1.51-1A6,6,0,0,0,107.23,61q0-6.27-7.63-6.27H90.21V74.41h4.55V58.13h4.06q3.63,0,3.63,3t-3.63,3.1v0H96.25l8.08,10.13h5.74Z"/><line class="cls-1" x1="75.97" y1="37.53" x2="75.96" y2="37.54"/><path class="cls-1" d="M85.33,37.38l-1.24-1.57-6.72,2.88-2.83-1.93-4.54,1L65,40l-1.29,2.86,2.39,2.82,1.83.54,4.83-5-4.27,7-3.29-1.07L64.46,46,58.94,52.8,41.76,57.32l-1.48,0c-15.92-6.82-6.77-16-6.68-16.07-.11.06-13.06,6.6,1.58,18.65L32.44,63l-1.95,8.79-4.92,3.9L20.19,87.44H25.3l.84-2-2-.49,3.23-5.62c1.68-.9,7.7-3.32,8.88-4.14l8-10L53.22,68l1.26-5.57.44.94.69,7.93L51.82,88.24h5.36V86.51l-2-.84,6.51-14.61s9.9-6.3,9.88-6.36,4.81-15,4.81-15l6-.51,1.75-2.41-7.08,0,8.22-6.06Z"/><polygon class="cls-1" points="63.33 71.98 69.84 67.85 62.8 84.26 64.81 85.03 64.81 86.67 60.1 86.68 63.33 71.98"/><path class="cls-1" d="M46.91,75.68l-7.44,3.78L36.73,84.3l2.08.58L38,86.66H33.39L37,77.17c.34-.21,4.11-3.58,4.11-3.58l.32-2.14,3.49-4.37L50,68.72Z"/><polygon class="cls-2" points="75.1 56.36 60.17 50.75 61.66 48.89 75.73 53.94 75.1 56.36"/><path class="cls-1" d="M205.69,56a2.12,2.12,0,1,1-2.11-2A2,2,0,0,1,205.69,56ZM202,56a1.59,1.59,0,1,0,1.59-1.61A1.57,1.57,0,0,0,202,56Zm1.26,1h-.47V55a4,4,0,0,1,.79-.06,1.24,1.24,0,0,1,.71.15.52.52,0,0,1,.21.44.52.52,0,0,1-.43.46v0a.58.58,0,0,1,.37.49,1.63,1.63,0,0,0,.16.5h-.52a1.71,1.71,0,0,1-.16-.49c0-.22-.17-.32-.43-.32h-.23Zm0-1.14h.22c.27,0,.48-.08.48-.29s-.14-.31-.44-.31a.79.79,0,0,0-.26,0Z"/><polygon class="cls-2" points="90.29 37.21 90.29 46.76 94.86 46.76 94.86 33.92 90.29 37.21"/><polygon class="cls-2" points="100.08 30.17 100.08 46.76 104.64 46.76 104.64 26.88 100.08 30.17"/><polygon class="cls-2" points="110.1 22.95 110.1 46.76 114.67 46.76 114.67 19.66 110.1 22.95"/><path class="cls-2" d="M95.49,88.92a4.77,4.77,0,0,1-2.12.4,3.58,3.58,0,0,1-2.69-1,3.67,3.67,0,0,1-1-2.67,3.92,3.92,0,0,1,1.1-2.89,3.87,3.87,0,0,1,2.86-1.11,5.43,5.43,0,0,1,1.83.27v1.61a3.31,3.31,0,0,0-1.7-.44,2.25,2.25,0,0,0-1.69.66,2.45,2.45,0,0,0-.64,1.78,2.36,2.36,0,0,0,.61,1.71,2.12,2.12,0,0,0,1.63.64,3.54,3.54,0,0,0,1.79-.47Z"/><path class="cls-2" d="M101,89.32a3.47,3.47,0,0,1-2.6-1,3.73,3.73,0,0,1-1-2.71,4,4,0,0,1,1-2.84,3.51,3.51,0,0,1,2.7-1.09,3.37,3.37,0,0,1,2.57,1,3.85,3.85,0,0,1,1,2.74,4,4,0,0,1-1,2.83A3.5,3.5,0,0,1,101,89.32Zm.07-6.24a1.7,1.7,0,0,0-1.4.66,2.78,2.78,0,0,0-.51,1.75,2.73,2.73,0,0,0,.51,1.74,1.66,1.66,0,0,0,1.36.64,1.68,1.68,0,0,0,1.37-.62,2.66,2.66,0,0,0,.51-1.73,2.9,2.9,0,0,0-.49-1.8A1.61,1.61,0,0,0,101,83.08Z"/><path class="cls-2" d="M115.49,89.19h-1.65V84.74c0-.47,0-1,.06-1.58h0c-.09.45-.17.78-.23,1l-1.74,5h-1.37l-1.77-5a7.92,7.92,0,0,1-.23-1h0c0,.73.07,1.37.07,1.92v4.11H107V81.76h2.45l1.52,4.4a6.94,6.94,0,0,1,.26,1.07h0a8.57,8.57,0,0,1,.3-1.08l1.51-4.39h2.39Z"/><path class="cls-2" d="M126.8,89.19h-1.65V84.74c0-.47,0-1,.07-1.58h0a6.9,6.9,0,0,1-.23,1l-1.74,5h-1.37l-1.77-5c0-.13-.12-.48-.23-1h0c0,.73.07,1.37.07,1.92v4.11h-1.51V81.76h2.45l1.52,4.4a6,6,0,0,1,.26,1.07h0a10.87,10.87,0,0,1,.29-1.08l1.52-4.39h2.38Z"/><path class="cls-2" d="M129.32,88.9V87.25a3.24,3.24,0,0,0,2,.75,2.2,2.2,0,0,0,.55-.06,1.34,1.34,0,0,0,.4-.15.75.75,0,0,0,.23-.24.52.52,0,0,0,.08-.3.69.69,0,0,0-.12-.39,1.46,1.46,0,0,0-.34-.31,4,4,0,0,0-.51-.28L131,86a3.26,3.26,0,0,1-1.3-.88,2.18,2.18,0,0,1-.19-2.26,2,2,0,0,1,.63-.69,2.77,2.77,0,0,1,.93-.39,4.58,4.58,0,0,1,1.12-.13,6.33,6.33,0,0,1,1,.07,4.2,4.2,0,0,1,.83.21v1.55a4,4,0,0,0-.41-.23,4,4,0,0,0-.45-.16l-.47-.1-.44,0a2,2,0,0,0-.51.06,1.34,1.34,0,0,0-.4.15.69.69,0,0,0-.24.24.53.53,0,0,0-.09.3.57.57,0,0,0,.1.34,1,1,0,0,0,.27.28,3.59,3.59,0,0,0,.45.26l.58.26a6,6,0,0,1,.8.39,2.7,2.7,0,0,1,.61.48,1.83,1.83,0,0,1,.39.6,2.47,2.47,0,0,1-.1,1.83,1.93,1.93,0,0,1-.64.69,2.8,2.8,0,0,1-.94.37,5.22,5.22,0,0,1-1.13.12,6.28,6.28,0,0,1-1.17-.11A3.42,3.42,0,0,1,129.32,88.9Z"/><path class="cls-2" d="M142.09,88.92a4.77,4.77,0,0,1-2.12.4,3.58,3.58,0,0,1-2.69-1,3.67,3.67,0,0,1-1-2.67,3.92,3.92,0,0,1,1.1-2.89,3.87,3.87,0,0,1,2.86-1.11,5.39,5.39,0,0,1,1.83.27v1.61a3.29,3.29,0,0,0-1.7-.44,2.23,2.23,0,0,0-1.68.66,2.73,2.73,0,0,0,0,3.49,2.12,2.12,0,0,0,1.63.64,3.54,3.54,0,0,0,1.79-.47Z"/><path class="cls-2" d="M147.56,89.32a3.47,3.47,0,0,1-2.6-1,3.73,3.73,0,0,1-1-2.71,4,4,0,0,1,1-2.84,3.51,3.51,0,0,1,2.7-1.09,3.37,3.37,0,0,1,2.57,1,3.8,3.8,0,0,1,1,2.74,4,4,0,0,1-1,2.83A3.53,3.53,0,0,1,147.56,89.32Zm.07-6.24a1.67,1.67,0,0,0-1.39.66,2.72,2.72,0,0,0-.52,1.75,2.67,2.67,0,0,0,.52,1.74,1.63,1.63,0,0,0,1.35.64,1.7,1.7,0,0,0,1.38-.62,2.72,2.72,0,0,0,.5-1.73,2.9,2.9,0,0,0-.49-1.8A1.61,1.61,0,0,0,147.63,83.08Z"/><path class="cls-2" d="M155.3,86.63v2.56h-1.67V81.76h2.62c1.87,0,2.81.79,2.81,2.37a2.27,2.27,0,0,1-.81,1.81,3.17,3.17,0,0,1-2.15.69Zm0-3.58v2.31H156c.89,0,1.34-.39,1.34-1.17s-.45-1.14-1.34-1.14Z"/><path class="cls-2" d="M165.76,89.19h-4.45V81.76h4.28v1.36H163v1.66h2.43v1.35H163v1.7h2.78Z"/></svg>