<svg width="15" height="22" viewBox="0 0 15 22" fill="none" xmlns="http://www.w3.org/2000/svg">
  <path fill-rule="evenodd" clip-rule="evenodd"
    d="M12.0605 2.875C13.3535 4.12501 14 5.65277 14 7.45833C14 8.84723 13.3972 10.7569 12.1915 13.1875C10.9859 15.6181 10.0249 17.3628 9.30847 18.4219C8.59207 19.4809 7.98925 20.3403 7.5 21L5.875 18.6562C4.79166 17.0937 3.70834 15.184 2.625 12.9271C1.54166 10.6701 1 8.84723 1 7.45833C1 5.65277 1.63776 4.12501 2.91331 2.875C4.18885 1.62499 5.71773 1 7.5 1C9.28227 1 10.8024 1.62499 12.0605 2.875ZM9.33476 9.38547C9.82401 8.89936 10.0686 8.29172 10.0686 7.56255C10.0686 6.83338 9.82401 6.22575 9.33476 5.73964C8.84552 5.25352 8.23396 5.01047 7.50009 5.01047C6.76621 5.01047 6.15466 5.25352 5.66541 5.73964C5.17616 6.22575 4.93154 6.83338 4.93154 7.56255C4.93154 8.29172 5.17616 8.89936 5.66541 9.38547C6.15466 9.87158 6.76621 10.1146 7.50009 10.1146C8.23396 10.1146 8.84552 9.87158 9.33476 9.38547Z"
    fill="#ED1C24" />
  <path
    d="M12.0605 2.875L11.708 3.22972L11.713 3.23448L12.0605 2.875ZM7.5 21L7.0891 21.2849L7.48633 21.8578L7.90161 21.2978L7.5 21ZM5.875 18.6562L5.4641 18.9411L5.875 18.6562ZM11.713 3.23448C12.9081 4.38986 13.5 5.7877 13.5 7.45833H14.5C14.5 5.51784 13.7989 3.86015 12.408 2.51552L11.713 3.23448ZM13.5 7.45833C13.5 8.72681 12.9417 10.5501 11.7436 12.9653L12.6395 13.4097C13.8527 10.9638 14.5 8.96765 14.5 7.45833H13.5ZM11.7436 12.9653C10.5394 15.3929 9.59076 17.1122 8.89433 18.1417L9.72261 18.702C10.459 17.6135 11.4323 15.8433 12.6395 13.4097L11.7436 12.9653ZM8.89433 18.1417C8.18002 19.1977 7.58166 20.0505 7.09839 20.7022L7.90161 21.2978C8.39684 20.6301 9.00412 19.7642 9.72261 18.702L8.89433 18.1417ZM7.9109 20.7151L6.2859 18.3714L5.4641 18.9411L7.0891 21.2849L7.9109 20.7151ZM6.2859 18.3714C5.2215 16.8362 4.15101 14.9508 3.07576 12.7107L2.17424 13.1434C3.26567 15.4173 4.36182 17.3513 5.4641 18.9411L6.2859 18.3714ZM3.07576 12.7107C2.00284 10.4755 1.5 8.73423 1.5 7.45833H0.5C0.5 8.96023 1.08048 10.8648 2.17424 13.1434L3.07576 12.7107ZM1.5 7.45833C1.5 5.78546 2.08487 4.38691 3.26327 3.23211L2.56335 2.51789C1.19066 3.8631 0.5 5.52007 0.5 7.45833H1.5ZM3.26327 3.23211C4.44557 2.07348 5.84889 1.5 7.5 1.5V0.5C5.58657 0.5 3.93214 1.17651 2.56335 2.51789L3.26327 3.23211ZM7.5 1.5C9.15095 1.5 10.5442 2.07327 11.7081 3.22969L12.4129 2.52031C11.0606 1.17672 9.41358 0.5 7.5 0.5V1.5ZM9.68718 9.74016C10.2767 9.15437 10.5686 8.41641 10.5686 7.56255H9.56864C9.56864 8.16703 9.37129 8.64434 8.98235 9.03078L9.68718 9.74016ZM10.5686 7.56255C10.5686 6.70869 10.2767 5.97073 9.68718 5.38495L8.98235 6.09432C9.37129 6.48077 9.56864 6.95807 9.56864 7.56255H10.5686ZM9.68718 5.38495C9.09781 4.79936 8.35664 4.51047 7.50009 4.51047V5.51047C8.11128 5.51047 8.59322 5.70769 8.98235 6.09432L9.68718 5.38495ZM7.50009 4.51047C6.64353 4.51047 5.90236 4.79936 5.31299 5.38495L6.01782 6.09432C6.40696 5.70769 6.88889 5.51047 7.50009 5.51047V4.51047ZM5.31299 5.38495C4.72343 5.97073 4.43154 6.70869 4.43154 7.56255H5.43154C5.43154 6.95807 5.62889 6.48077 6.01782 6.09432L5.31299 5.38495ZM4.43154 7.56255C4.43154 8.41641 4.72343 9.15437 5.31299 9.74016L6.01782 9.03078C5.62889 8.64434 5.43154 8.16703 5.43154 7.56255H4.43154ZM5.31299 9.74016C5.90236 10.3257 6.64353 10.6146 7.50009 10.6146V9.61464C6.88889 9.61464 6.40696 9.41742 6.01782 9.03078L5.31299 9.74016ZM7.50009 10.6146C8.35664 10.6146 9.09781 10.3257 9.68718 9.74016L8.98235 9.03078C8.59322 9.41742 8.11128 9.61464 7.50009 9.61464V10.6146Z"
    fill="white" />
</svg>
