<?xml version="1.0" encoding="utf-8"?>
<svg version="1.1" xmlns:xlink="http://www.w3.org/1999/xlink" width="16px" height="16px" xmlns="http://www.w3.org/2000/svg">
  <g transform="matrix(1 0 0 1 -384 -323 )">
    <path d="M 13.273743016759777 0.48214285714285765  C 13.625325884543763 0.16071428571428648  14.01266294227188 0  14.435754189944134 0  C 14.852886405959032 0  15.217877094972067 0.13839285714285765  15.53072625698324 0.4151785714285712  C 15.843575418994414 0.6919642857142865  16 1.0386904761904763  16 1.4553571428571423  C 16 1.8303571428571423  15.865921787709498 2.2797619047619033  15.597765363128492 2.803571428571429  C 13.619366852886406 6.5476190476190474  12.23389199255121 8.785714285714285  11.441340782122905 9.517857142857142  C 10.863314711359406 10.059523809523808  10.213780260707635 10.330357142857142  9.492737430167598 10.330357142857142  C 8.741899441340783 10.330357142857142  8.096834264432031 10.055059523809522  7.557541899441341 9.504464285714285  C 7.018249534450653 8.953869047619047  6.748603351955308 8.300595238095237  6.748603351955308 7.544642857142858  C 6.748603351955308 6.782738095238093  7.02271880819367 6.1517857142857135  7.570949720670391 5.6517857142857135  L 13.273743016759777 0.48214285714285765  Z M 5.193296089385475 9.325892857142858  C 5.503165735567971 9.28125  5.8756052141527 9.25  6.310614525139664 9.232142857142858  C 6.5430167597765365 9.684523809523808  6.860335195530726 10.071428571428571  7.262569832402234 10.392857142857142  C 7.664804469273743 10.714285714285715  8.113221601489759 10.94047619047619  8.607821229050279 11.071428571428571  L 8.616759776536313 11.705357142857142  C 8.640595903165737 12.973214285714285  8.254748603351956 14.005952380952381  7.459217877094972 14.803571428571429  C 6.663687150837989 15.601190476190476  5.625325884543762 16  4.34413407821229 16  C 3.611173184357542 16  2.9616387337057732 15.861607142857142  2.3955307262569834 15.584821428571429  C 1.8294227188081937 15.308035714285714  1.3750465549348232 14.928571428571429  1.0324022346368715 14.446428571428571  C 0.68975791433892 13.964285714285715  0.4320297951582869 13.419642857142858  0.25921787709497207 12.8125  C 0.08640595903165738 12.205357142857142  0 11.550595238095239  0 10.848214285714285  C 0.04171322160148979 10.87797619047619  0.1638733705772812 10.967261904761905  0.3664804469273743 11.116071428571429  C 0.5690875232774675 11.26488095238095  0.7538175046554936 11.397321428571429  0.9206703910614525 11.513392857142858  C 1.0875232774674115 11.629464285714285  1.263314711359404 11.738095238095239  1.4480446927374302 11.839285714285715  C 1.6327746741154565 11.94047619047619  1.7698324022346368 11.991071428571429  1.859217877094972 11.991071428571429  C 2.1035381750465554 11.991071428571429  2.2674115456238364 11.880952380952381  2.350837988826816 11.660714285714285  C 2.4998137802607077 11.267857142857142  2.671135940409684 10.933035714285715  2.864804469273743 10.65625  C 3.0584729981378027 10.379464285714285  3.265549348230913 10.153273809523808  3.4860335195530725 9.977678571428571  C 3.706517690875233 9.802083333333332  3.9687150837988825 9.660714285714285  4.272625698324022 9.553571428571429  C 4.576536312849162 9.446428571428571  4.88342644320298 9.370535714285715  5.193296089385475 9.325892857142858  Z " fill-rule="nonzero" fill="#000000" stroke="none" transform="matrix(1 0 0 1 384 323 )" />
  </g>
</svg>