<?xml version="1.0" encoding="utf-8"?>
<svg version="1.1" xmlns:xlink="http://www.w3.org/1999/xlink" width="16px" height="12px" xmlns="http://www.w3.org/2000/svg">
  <g transform="matrix(1 0 0 1 -417 -325 )">
    <path d="M 1.1428571428571428 6  C 2.136904761904762 7.535714285714286  3.4077380952380953 8.651785714285714  4.955357142857143 9.348214285714286  L 5.651785714285714 8.089285714285714  C 5.133928571428571 7.7142857142857135  4.729166666666667 7.241071428571429  4.4375 6.669642857142857  C 4.145833333333334 6.0982142857142865  4 5.494047619047619  4 4.857142857142858  C 4 4.136904761904762  4.1815476190476195 3.4672619047619038  4.544642857142857 2.8482142857142856  C 3.1815476190476195 3.544642857142857  2.047619047619048 4.595238095238095  1.1428571428571428 6  Z M 8.303571428571429 2.8750000000000004  C 8.386904761904763 2.7916666666666647  8.428571428571429 2.6904761904761902  8.428571428571429 2.5714285714285716  C 8.428571428571429 2.4523809523809517  8.386904761904763 2.351190476190476  8.303571428571429 2.267857142857143  C 8.220238095238097 2.1845238095238084  8.119047619047619 2.1428571428571432  8 2.1428571428571432  C 7.255952380952381 2.1428571428571432  6.617559523809525 2.4092261904761902  6.084821428571429 2.9419642857142856  C 5.552083333333334 3.474702380952381  5.285714285714286 4.113095238095238  5.285714285714286 4.857142857142858  C 5.285714285714286 4.976190476190476  5.327380952380953 5.077380952380952  5.410714285714286 5.1607142857142865  C 5.4940476190476195 5.244047619047618  5.595238095238096 5.285714285714286  5.714285714285714 5.285714285714286  C 5.833333333333334 5.285714285714286  5.93452380952381 5.244047619047618  6.017857142857143 5.1607142857142865  C 6.101190476190476 5.077380952380952  6.142857142857143 4.976190476190476  6.142857142857143 4.857142857142858  C 6.142857142857143 4.345238095238095  6.324404761904762 3.9077380952380953  6.6875 3.544642857142857  C 7.050595238095239 3.1815476190476177  7.488095238095239 2.9999999999999987  8 3  C 8.119047619047619 2.9999999999999987  8.220238095238097 2.958333333333332  8.303571428571429 2.8750000000000004  Z M 11.526785714285714 0.6250000000000004  C 11.62202380952381 0.6845238095238084  11.669642857142858 0.7648809523809517  11.669642857142858 0.8660714285714288  C 11.669642857142858 0.907738095238094  11.666666666666668 0.9345238095238075  11.660714285714286 0.9464285714285721  C 11.029761904761907 2.071428571428572  10.089285714285714 3.758928571428572  8.839285714285714 6.008928571428572  C 7.589285714285715 8.258928571428573  6.651785714285715 9.943452380952383  6.026785714285714 11.0625  L 5.589285714285714 11.857142857142858  C 5.529761904761905 11.952380952380953  5.446428571428571 12  5.339285714285714 12  C 5.267857142857143 12  4.8690476190476195 11.791666666666668  4.142857142857143 11.375  C 4.047619047619048 11.31547619047619  4 11.232142857142858  4 11.125  C 4 11.053571428571427  4.130952380952381 10.794642857142858  4.392857142857143 10.348214285714285  C 3.541666666666667 9.961309523809524  2.7574404761904767 9.446428571428571  2.0401785714285716 8.803571428571427  C 1.3229166666666667 8.160714285714286  0.7023809523809526 7.431547619047619  0.17857142857142858 6.616071428571429  C 0.05952380952380952 6.431547619047619  0 6.226190476190475  0 6  C 0 5.773809523809524  0.05952380952380952 5.5684523809523805  0.17857142857142858 5.383928571428571  C 1.0892857142857144 3.9851190476190474  2.2202380952380953 2.88095238095238  3.5714285714285716 2.071428571428572  C 4.922619047619048 1.2619047619047614  6.398809523809525 0.8571428571428568  8 0.8571428571428568  C 8.529761904761905 0.8571428571428568  9.065476190476192 0.907738095238094  9.607142857142858 1.0089285714285712  L 10.089285714285714 0.14285714285714235  C 10.148809523809524 0.04761904761904745  10.232142857142858 0  10.339285714285714 0  C 10.36904761904762 0  10.42261904761905 0.017857142857142794  10.5 0.05357142857142838  C 10.577380952380953 0.08928571428571397  10.669642857142858 0.1354166666666652  10.776785714285714 0.19196428571428603  C 10.883928571428571 0.2485119047619042  10.982142857142858 0.3035714285714288  11.071428571428571 0.3571428571428572  C 11.160714285714286 0.4107142857142856  11.254464285714286 0.46577380952380754  11.352678571428571 0.5223214285714284  C 11.450892857142858 0.5788690476190466  11.508928571428571 0.6130952380952372  11.526785714285714 0.6250000000000004  Z M 11.928571428571429 4.107142857142858  C 11.976190476190478 4.375  12 4.625  12 4.857142857142858  C 12 5.684523809523809  11.764880952380953 6.438988095238094  11.294642857142858 7.1205357142857135  C 10.824404761904763 7.802083333333332  10.202380952380953 8.291666666666664  9.428571428571429 8.589285714285715  L 11.928571428571429 4.107142857142858  Z M 15.821428571428571 5.383928571428571  C 15.940476190476192 5.586309523809524  16 5.791666666666666  16 6  C 16 6.208333333333332  15.940476190476192 6.413690476190475  15.821428571428571 6.616071428571429  C 15.589285714285714 6.997023809523808  15.264880952380953 7.428571428571429  14.848214285714286 7.910714285714286  C 13.955357142857142 8.93452380952381  12.921130952380953 9.729166666666668  11.745535714285714 10.294642857142858  C 10.569940476190478 10.860119047619047  9.321428571428571 11.142857142857142  8 11.142857142857142  L 8.660714285714286 9.964285714285714  C 9.92261904761905 9.857142857142858  11.09077380952381 9.449404761904761  12.165178571428571 8.741071428571429  C 13.239583333333334 8.032738095238095  14.136904761904763 7.119047619047618  14.857142857142858 6  C 14.17261904761905 4.934523809523809  13.333333333333334 4.05952380952381  12.339285714285714 3.375  L 12.901785714285714 2.3749999999999996  C 13.467261904761907 2.755952380952379  14.010416666666668 3.2113095238095224  14.53125 3.741071428571428  C 15.052083333333334 4.270833333333332  15.482142857142858 4.8184523809523805  15.821428571428571 5.383928571428571  Z " fill-rule="nonzero" fill="#000000" stroke="none" transform="matrix(1 0 0 1 417 325 )" />
  </g>
</svg>