<?xml version="1.0" encoding="utf-8"?>
<svg version="1.1" xmlns:xlink="http://www.w3.org/1999/xlink" width="16px" height="13px" xmlns="http://www.w3.org/2000/svg">
  <g transform="matrix(1 0 0 1 -68 -108 )">
    <path d="M 4.866666666666666 2.640625  C 5.177777777777778 2.956597222222221  5.333333333333333 3.340277777777776  5.333333333333333 3.791666666666666  C 5.333333333333333 4.243055555555555  5.177777777777778 4.626736111111112  4.866666666666666 4.942708333333334  C 4.555555555555556 5.258680555555556  4.177777777777778 5.416666666666666  3.7333333333333334 5.416666666666666  C 3.288888888888889 5.416666666666666  2.9111111111111114 5.258680555555556  2.6 4.942708333333334  C 2.288888888888889 4.626736111111112  2.1333333333333333 4.243055555555555  2.1333333333333333 3.791666666666666  C 2.1333333333333333 3.340277777777776  2.288888888888889 2.956597222222221  2.6 2.640625  C 2.9111111111111114 2.324652777777776  3.288888888888889 2.166666666666666  3.7333333333333334 2.166666666666666  C 4.177777777777778 2.166666666666666  4.555555555555556 2.324652777777776  4.866666666666666 2.640625  Z M 10.4 3.520833333333334  L 13.866666666666667 7.041666666666668  L 13.866666666666667 10.833333333333334  L 2.1333333333333333 10.833333333333334  L 2.1333333333333333 9.208333333333332  L 4.8 6.5  L 6.133333333333334 7.854166666666668  L 10.4 3.520833333333334  Z M 14.854166666666666 1.163736979166666  C 14.80138888888889 1.1101345486111098  14.73888888888889 1.083333333333334  14.666666666666666 1  L 1.3333333333333333 1  C 1.2611111111111113 1.083333333333334  1.1986111111111113 1.1101345486111098  1.1458333333333333 1.163736979166666  C 1.0930555555555557 1.217339409722221  1.0666666666666667 1.280815972222221  1 1.354166666666666  L 1 11.645833333333334  C 1.0666666666666667 11.719184027777779  1.0930555555555557 11.782660590277779  1.1458333333333333 11.836263020833334  C 1.1986111111111113 11.88986545138889  1.2611111111111113 11.916666666666666  1.3333333333333333 12  L 14.666666666666666 12  C 14.73888888888889 11.916666666666666  14.80138888888889 11.88986545138889  14.854166666666666 11.836263020833334  C 14.906944444444445 11.782660590277779  14.933333333333334 11.719184027777779  15 11.645833333333334  L 15 1.354166666666666  C 14.933333333333334 1.280815972222221  14.906944444444445 1.217339409722221  14.854166666666666 1.163736979166666  Z M 15.608333333333333 0.3977864583333338  C 15.869444444444445 0.6629774305555549  16.000000000000004 0.9817708333333338  16 1.354166666666666  L 16 11.645833333333334  C 16.000000000000004 12.018229166666666  15.869444444444445 12.337022569444445  15.608333333333333 12.602213541666666  C 15.347222222222223 12.86740451388889  15.033333333333333 13  14.666666666666666 13  L 1.3333333333333333 13  C 0.9666666666666667 13  0.6527777777777779 12.86740451388889  0.39166666666666666 12.602213541666666  C 0.13055555555555556 12.337022569444445  0 12.018229166666666  0 11.645833333333334  L 0 1.354166666666666  C 0 0.9817708333333338  0.13055555555555556 0.6629774305555549  0.39166666666666666 0.3977864583333338  C 0.6527777777777779 0.13259548611110983  0.9666666666666667 0  1.3333333333333333 0  L 14.666666666666666 0  C 15.033333333333333 0  15.347222222222223 0.13259548611110983  15.608333333333333 0.3977864583333338  Z " fill-rule="nonzero" fill="#ffffff" stroke="none" transform="matrix(1 0 0 1 68 108 )" />
  </g>
</svg>