<?xml version="1.0" encoding="utf-8"?>
<svg version="1.1" xmlns:xlink="http://www.w3.org/1999/xlink" width="300px" height="170px" xmlns="http://www.w3.org/2000/svg">
  <g transform="matrix(1 0 0 1 -330 -153 )">
    <path d="M 330 153  L 630 153  L 630 323  L 330 323  L 330 153  " fill-rule="nonzero" fill="#cccccc" stroke="none" />
    <path d="M 342 165  L 618 165  L 618 311  L 342 311  L 342 165  " fill-rule="nonzero" fill="#ffffff" stroke="none" />
    <path d="M 498.75 204  C 491.61 204  486 198.39  486 191.25  C 486 184.11  491.61 178.5  498.75 178.5  C 505.89 178.5  511.5 184.11  511.5 191.25  C 511.5 198.39  505.89 204  498.75 204  " fill-rule="nonzero" fill="#cccccc" stroke="none" />
    <path d="M 347 307  L 347 231.64999999999998  L 413.75 197.39999999999998  L 507.2 260.42  L 560.6 217.95  L 614 260.42  L 614 307  L 347 307  " fill-rule="nonzero" fill="#169bd5" stroke="none" />
  </g>
</svg>