<?xml version="1.0" encoding="utf-8"?>
<svg version="1.1" xmlns:xlink="http://www.w3.org/1999/xlink" width="16px" height="4px" xmlns="http://www.w3.org/2000/svg">
  <g transform="matrix(1 0 0 1 -62 -13 )">
    <path d="M 15.681818181818182 0.2916666666666665  C 15.893939393939394 0.4861111111111094  16 0.7222222222222214  16 1  L 16 3  C 16 3.2777777777777772  15.893939393939394 3.513888888888888  15.681818181818182 3.7083333333333335  C 15.46969696969697 3.9027777777777772  15.212121212121213 4  14.909090909090908 4  L 1.0909090909090908 4  C 0.787878787878788 4  0.5303030303030304 3.9027777777777772  0.3181818181818182 3.7083333333333335  C 0.10606060606060605 3.513888888888888  0 3.2777777777777772  0 3  L 0 1  C 0 0.7222222222222214  0.10606060606060605 0.4861111111111094  0.3181818181818182 0.2916666666666665  C 0.5303030303030304 0.09722222222222143  0.787878787878788 0  1.0909090909090908 0  L 14.909090909090908 0  C 15.212121212121213 0  15.46969696969697 0.09722222222222143  15.681818181818182 0.2916666666666665  Z " fill-rule="nonzero" fill="#aaaaaa" stroke="none" transform="matrix(1 0 0 1 62 13 )" />
  </g>
</svg>