<?xml version="1.0" encoding="utf-8"?>
<svg version="1.1" xmlns:xlink="http://www.w3.org/1999/xlink" width="16px" height="16px" xmlns="http://www.w3.org/2000/svg">
  <g transform="matrix(1 0 0 1 -38 -7 )">
    <path d="M 15.681818181818182 6.136363636363637  C 15.893939393939394 6.348484848484846  16 6.6060606060606055  16 6.909090909090908  L 16 9.09090909090909  C 16 9.393939393939394  15.893939393939394 9.65151515151515  15.681818181818182 9.863636363636363  C 15.46969696969697 10.075757575757574  15.212121212121213 10.181818181818182  14.909090909090908 10.181818181818182  L 10.181818181818182 10.181818181818182  L 10.181818181818182 14.90909090909091  C 10.181818181818182 15.212121212121213  10.075757575757576 15.469696969696969  9.863636363636363 15.681818181818182  C 9.651515151515154 15.893939393939394  9.393939393939394 16  9.090909090909092 16  L 6.909090909090909 16  C 6.606060606060606 16  6.3484848484848495 15.893939393939394  6.136363636363637 15.681818181818182  C 5.924242424242425 15.469696969696969  5.818181818181818 15.212121212121213  5.818181818181818 14.90909090909091  L 5.818181818181818 10.181818181818182  L 1.0909090909090908 10.181818181818182  C 0.787878787878788 10.181818181818182  0.5303030303030304 10.075757575757574  0.3181818181818182 9.863636363636363  C 0.10606060606060605 9.65151515151515  0 9.393939393939394  0 9.09090909090909  L 0 6.909090909090908  C 0 6.6060606060606055  0.10606060606060605 6.348484848484846  0.3181818181818182 6.136363636363637  C 0.5303030303030304 5.924242424242424  0.787878787878788 5.818181818181818  1.0909090909090908 5.818181818181818  L 5.818181818181818 5.818181818181818  L 5.818181818181818 1.0909090909090917  C 5.818181818181818 0.7878787878787872  5.924242424242425 0.5303030303030294  6.136363636363637 0.31818181818181834  C 6.3484848484848495 0.10606060606060552  6.606060606060606 0  6.909090909090909 0  L 9.090909090909092 0  C 9.393939393939394 0  9.651515151515154 0.10606060606060552  9.863636363636363 0.31818181818181834  C 10.075757575757576 0.5303030303030294  10.181818181818182 0.7878787878787872  10.181818181818182 1.0909090909090917  L 10.181818181818182 5.818181818181818  L 14.909090909090908 5.818181818181818  C 15.212121212121213 5.818181818181818  15.46969696969697 5.924242424242424  15.681818181818182 6.136363636363637  Z " fill-rule="nonzero" fill="#aaaaaa" stroke="none" transform="matrix(1 0 0 1 38 7 )" />
  </g>
</svg>