<?xml version="1.0" encoding="utf-8"?>
<svg version="1.1" xmlns:xlink="http://www.w3.org/1999/xlink" width="16px" height="16px" xmlns="http://www.w3.org/2000/svg">
  <g transform="matrix(1 0 0 1 -305 -73 )">
    <path d="M 9.239583333333334 13.239583333333334  C 9.302083333333334 13.177083333333334  9.333333333333334 13.097222222222221  9.333333333333334 13  L 9.333333333333334 11  C 9.333333333333334 10.902777777777775  9.302083333333334 10.822916666666668  9.239583333333334 10.760416666666668  C 9.177083333333334 10.697916666666668  9.097222222222223 10.666666666666668  9 10.666666666666668  L 7 10.666666666666668  C 6.902777777777779 10.666666666666668  6.822916666666667 10.697916666666668  6.760416666666667 10.760416666666668  C 6.697916666666667 10.822916666666668  6.666666666666667 10.902777777777775  6.666666666666667 11  L 6.666666666666667 13  C 6.666666666666667 13.097222222222221  6.697916666666667 13.177083333333334  6.760416666666667 13.239583333333334  C 6.822916666666667 13.302083333333334  6.902777777777779 13.333333333333334  7 13.333333333333334  L 9 13.333333333333334  C 9.097222222222223 13.333333333333334  9.177083333333334 13.302083333333334  9.239583333333334 13.239583333333334  Z M 11.869791666666666 6.84375  C 11.956597222222223 6.586805555555555  12 6.305555555555555  12 6  C 12 5.3888888888888875  11.807291666666666 4.822916666666666  11.421875 4.302083333333334  C 11.036458333333334 3.78125  10.555555555555557 3.3784722222222214  9.979166666666666 3.09375  C 9.402777777777779 2.809027777777777  8.8125 2.666666666666666  8.208333333333334 2.666666666666666  C 6.520833333333333 2.666666666666666  5.232638888888889 3.40625  4.34375 4.885416666666666  C 4.239583333333334 5.052083333333334  4.267361111111112 5.197916666666666  4.427083333333333 5.322916666666666  L 5.802083333333333 6.364583333333334  C 5.8506944444444455 6.40625  5.916666666666667 6.427083333333334  6 6.427083333333334  C 6.111111111111112 6.427083333333334  6.197916666666667 6.385416666666666  6.260416666666667 6.302083333333334  C 6.628472222222222 5.829861111111111  6.927083333333333 5.510416666666666  7.15625 5.34375  C 7.392361111111112 5.177083333333334  7.690972222222222 5.09375  8.052083333333334 5.09375  C 8.385416666666666 5.09375  8.682291666666666 5.184027777777777  8.942708333333334 5.364583333333334  C 9.203125 5.5451388888888875  9.333333333333334 5.749999999999998  9.333333333333334 5.979166666666666  C 9.333333333333334 6.243055555555555  9.26388888888889 6.454861111111111  9.125 6.614583333333334  C 8.986111111111112 6.774305555555555  8.75 6.930555555555555  8.416666666666666 7.083333333333334  C 7.979166666666667 7.277777777777777  7.578125 7.578125  7.213541666666667 7.984375  C 6.848958333333333 8.390625  6.666666666666667 8.82638888888889  6.666666666666667 9.291666666666668  L 6.666666666666667 9.666666666666668  C 6.666666666666667 9.76388888888889  6.697916666666667 9.84375  6.760416666666667 9.90625  C 6.822916666666667 9.96875  6.902777777777779 10  7 10  L 9 10  C 9.097222222222223 10  9.177083333333334 9.96875  9.239583333333334 9.90625  C 9.302083333333334 9.84375  9.333333333333334 9.76388888888889  9.333333333333334 9.666666666666668  C 9.333333333333334 9.534722222222221  9.407986111111112 9.362847222222221  9.557291666666666 9.151041666666668  C 9.706597222222223 8.93923611111111  9.895833333333334 8.76736111111111  10.125 8.635416666666668  C 10.347222222222223 8.510416666666668  10.517361111111112 8.411458333333332  10.635416666666666 8.338541666666668  C 10.753472222222223 8.265625  10.913194444444445 8.144097222222221  11.114583333333334 7.973958333333334  C 11.315972222222223 7.803819444444445  11.470486111111112 7.637152777777777  11.578125 7.473958333333334  C 11.685763888888891 7.3107638888888875  11.782986111111112 7.100694444444445  11.869791666666666 6.84375  Z M 14.927083333333334 3.984375  C 15.642361111111109 5.210069444444443  16 6.548611111111109  16 8  C 16 9.45138888888889  15.642361111111109 10.789930555555554  14.927083333333334 12.015625  C 14.211805555555557 13.241319444444445  13.241319444444445 14.211805555555555  12.015625 14.927083333333334  C 10.789930555555557 15.642361111111112  9.45138888888889 16  8 16  C 6.548611111111112 16  5.210069444444445 15.642361111111112  3.984375 14.927083333333334  C 2.758680555555556 14.211805555555555  1.7881944444444446 13.241319444444445  1.0729166666666667 12.015625  C 0.35763888888888884 10.789930555555554  0 9.45138888888889  0 8  C 0 6.548611111111109  0.35763888888888884 5.210069444444443  1.0729166666666667 3.984375  C 1.7881944444444446 2.7586805555555554  2.758680555555556 1.7881944444444429  3.984375 1.072916666666666  C 5.210069444444445 0.3576388888888875  6.548611111111112 0  8 0  C 9.45138888888889 0  10.789930555555557 0.3576388888888875  12.015625 1.072916666666666  C 13.241319444444445 1.7881944444444429  14.211805555555557 2.7586805555555554  14.927083333333334 3.984375  Z " fill-rule="nonzero" fill="#000000" stroke="none" transform="matrix(1 0 0 1 305 73 )" />
  </g>
</svg>