<svg width="100" height="66" viewBox="0 0 100 66" fill="none" xmlns="http://www.w3.org/2000/svg">
<path fill-rule="evenodd" clip-rule="evenodd" d="M25.9636 48.096C23.0271 46.3393 19.96 44.8103 17.0754 42.9543C16.2061 42.3953 15.823 41.8063 15.8989 40.7602C16.0252 39.0155 16.2692 37.311 16.8306 35.6477C17.0951 34.8626 17.3066 34.5818 18.153 35.1469C25.2035 39.851 32.8571 43.3302 40.8017 46.2006C41.0696 46.2973 41.3571 46.3427 41.6361 46.4112C44.4703 47.5173 47.3378 48.5172 50.3221 49.1404C53.9582 50.3851 57.7258 51.1 61.4908 51.7848C65.7156 52.5545 69.9814 53.0167 74.2821 53.1537C75.4185 53.1905 76.0618 53.0381 75.9654 51.6718C75.9006 50.7533 76.1258 49.8141 76.235 48.7466C77.5224 49.5282 78.4839 50.4853 79.5205 51.3405C82.074 53.4439 84.6224 55.5533 87.1588 57.6781C87.4267 57.9033 88.1613 58.1361 87.332 58.6104C83.1797 60.9843 79.0283 63.3599 74.7283 65.8203C74.8521 64.383 74.9152 63.1177 75.0858 61.8678C75.1831 61.1581 74.9826 60.8747 74.2804 60.8533C59.7725 60.4099 46.0478 56.5832 32.6984 51.1436C30.4538 50.1275 28.2091 49.1121 25.9636 48.096Z" fill="#EC7100"/>
<path fill-rule="evenodd" clip-rule="evenodd" d="M25.9636 48.096C28.2091 49.1121 30.4538 50.1274 32.6984 51.1436C29.7602 51.5306 26.827 51.9381 23.8862 52.2993C20.7363 52.6871 17.5754 52.997 14.4298 53.4225C13.7021 53.521 13.3036 53.3061 12.8498 52.8044C8.92011 48.4589 7.31874 43.4029 8.14801 37.5833C8.21199 37.1321 8.24185 36.6775 8.28622 36.2238C9.188 33.9757 10.0906 31.7285 10.9924 29.4813C13.6645 25.533 17.0097 22.3629 21.418 20.4282C21.7524 20.281 21.929 20.0164 21.9854 19.6706C22.4503 16.8549 23.6712 14.3252 24.9296 11.8083C25.4014 11.5018 25.6881 11.0686 25.8075 10.5199C29.1595 5.94241 33.4151 2.55575 38.9128 1.0225C47.4785 -1.36597 55.0844 0.385574 61.472 6.74542C61.9882 7.25992 62.4147 7.36865 63.0939 7.22054C71.14 5.463 78.9259 10.2194 81.0562 18.2186C81.2917 19.0996 81.673 19.5678 82.5177 19.9599C86.9089 21.9974 89.1731 25.6041 89.784 30.3297C89.9154 31.3493 89.9657 32.3868 89.7891 33.4167C88.4736 32.4022 87.158 31.3878 85.8424 30.3742C85.4602 26.5869 82.7967 23.3175 79.1443 22.2534C78.3415 22.0197 77.9814 21.7132 77.8347 20.8023C76.5993 13.1498 69.1385 8.62195 61.7877 10.9942C61.2161 11.1774 60.7647 11.4393 60.1863 10.7416C54.3021 3.63698 44.6529 1.84348 36.4592 6.37131C30.5195 9.65353 26.9661 14.7181 25.8809 21.4452C25.7375 22.3347 25.3775 22.6814 24.625 23.0024C18.3432 25.6914 14.2302 30.256 13.0392 37.1056C12.3089 41.3012 13.3582 45.1519 15.9723 48.5574C16.439 49.1661 16.9765 49.178 17.607 49.1019C20.3925 48.7654 23.1781 48.4315 25.9636 48.096Z" fill="#808284"/>
<path fill-rule="evenodd" clip-rule="evenodd" d="M85.8421 30.374C87.1576 31.3885 88.4732 32.4029 89.7888 33.4165C92.3431 35.7117 94.8685 38.0351 96.8376 40.8859C98.0874 42.6973 99.1522 44.5961 99.6581 46.9675C97.2616 46.7637 94.9683 46.5668 92.6759 46.3734C92.35 46.346 92.2843 46.1422 92.2928 45.8631C92.431 41.3199 89.8058 38.1824 86.8207 35.2974C80.4834 29.1729 72.8724 25.0363 64.9201 21.4793C55.3375 17.1938 45.376 14.1761 34.9897 12.612C34.308 12.5093 33.576 12.6291 32.9395 12.2251C33.2492 11.1267 33.9557 11.0873 34.947 11.2294C51.0205 13.5263 66.1282 18.6388 80.1959 26.7913C82.1223 27.9076 83.9617 29.1764 85.8421 30.374Z" fill="#EC7100"/>
<path fill-rule="evenodd" clip-rule="evenodd" d="M25.8078 10.5203C25.6875 11.0682 25.4009 11.5013 24.9299 11.8087C22.3261 11.741 19.7325 11.9183 17.1705 12.3429C14.0658 12.8565 11.0346 13.645 8.51351 15.697C5.84739 17.8663 5.23141 20.646 6.67922 23.7844C7.70215 26.0017 9.27196 27.7986 10.9928 29.4817C10.0901 31.7289 9.18835 33.9761 8.28657 36.2233C5.06761 33.2655 2.15493 30.0681 0.664465 25.8459C-0.945442 21.2864 0.394867 17.2885 4.41579 14.6038C7.93848 12.2504 11.9543 11.331 16.0708 10.8404C19.2991 10.4552 22.5479 10.1915 25.8078 10.5203Z" fill="#EC7100"/>
<path fill-rule="evenodd" clip-rule="evenodd" d="M50.3219 49.1401C47.3376 48.5169 44.471 47.517 41.636 46.4109C45.8523 45.9075 50.066 45.3922 54.2831 44.9034C61.2449 44.0961 68.2084 43.3051 75.1718 42.508C76.1956 42.3916 77.2245 42.1528 78.2441 42.1896C80.7029 42.2786 82.3409 41.0527 83.6454 39.1334C84.56 37.7876 84.5822 37.803 85.8175 38.9031C87.5972 40.4885 87.5981 40.4894 86.0948 42.3026C84.6359 44.061 83.0089 45.2321 80.5245 45.4898C70.9308 46.4888 61.3626 47.7344 51.786 48.8927C51.2954 48.9518 50.8091 49.0562 50.3219 49.1401Z" fill="#808284"/>
</svg>
