<svg width="100" height="100" viewBox="0 0 100 100" fill="none" xmlns="http://www.w3.org/2000/svg">
<circle cx="50" cy="50" r="50" fill="#808284"/>
<rect x="39.5" y="24.5" width="21" height="15.7619" stroke="white"/>
<circle cx="55.7357" cy="28.9392" r="1.06619" fill="white" stroke="white"/>
<path d="M46.3437 31.3333L41.0952 35.2716V38.6667H58.9047V32.1029L53.3024 36.6296L46.3437 31.3333Z" fill="white"/>
<path d="M24.3438 55.9609L26.1309 52.4336H28.0879L25.2461 57.666V61H23.4414V57.7246L20.5996 52.4336H22.5684L24.3438 55.9609ZM34.9785 57.7129C34.9785 58.2598 34.9043 58.7441 34.7559 59.166C34.6113 59.5879 34.3984 59.9453 34.1172 60.2383C33.8398 60.5273 33.5039 60.7461 33.1094 60.8945C32.7188 61.043 32.2773 61.1172 31.7852 61.1172C31.3242 61.1172 30.9004 61.043 30.5137 60.8945C30.1309 60.7461 29.7969 60.5273 29.5117 60.2383C29.2305 59.9453 29.0117 59.5879 28.8555 59.166C28.7031 58.7441 28.627 58.2598 28.627 57.7129C28.627 56.9863 28.7559 56.3711 29.0137 55.8672C29.2715 55.3633 29.6387 54.9805 30.1152 54.7188C30.5918 54.457 31.1602 54.3262 31.8203 54.3262C32.4336 54.3262 32.9766 54.457 33.4492 54.7188C33.9258 54.9805 34.2988 55.3633 34.5684 55.8672C34.8418 56.3711 34.9785 56.9863 34.9785 57.7129ZM30.4492 57.7129C30.4492 58.1426 30.4961 58.5039 30.5898 58.7969C30.6836 59.0898 30.8301 59.3105 31.0293 59.459C31.2285 59.6074 31.4883 59.6816 31.8086 59.6816C32.125 59.6816 32.3809 59.6074 32.5762 59.459C32.7754 59.3105 32.9199 59.0898 33.0098 58.7969C33.1035 58.5039 33.1504 58.1426 33.1504 57.7129C33.1504 57.2793 33.1035 56.9199 33.0098 56.6348C32.9199 56.3457 32.7754 56.1289 32.5762 55.9844C32.377 55.8398 32.1172 55.7676 31.7969 55.7676C31.3242 55.7676 30.9805 55.9297 30.7656 56.2539C30.5547 56.5781 30.4492 57.0645 30.4492 57.7129ZM42.4668 54.4492V61H41.0957L40.8555 60.1621H40.7617C40.6211 60.3848 40.4453 60.5664 40.2344 60.707C40.0234 60.8477 39.791 60.9512 39.5371 61.0176C39.2832 61.084 39.0195 61.1172 38.7461 61.1172C38.2773 61.1172 37.8691 61.0352 37.5215 60.8711C37.1738 60.7031 36.9023 60.4434 36.707 60.0918C36.5156 59.7402 36.4199 59.2832 36.4199 58.7207V54.4492H38.207V58.2754C38.207 58.7441 38.291 59.0977 38.459 59.3359C38.627 59.5742 38.8945 59.6934 39.2617 59.6934C39.625 59.6934 39.9102 59.6113 40.1172 59.4473C40.3242 59.2793 40.4688 59.0352 40.5508 58.7148C40.6367 58.3906 40.6797 57.9961 40.6797 57.5312V54.4492H42.4668ZM47.998 54.3262C48.0879 54.3262 48.1914 54.332 48.3086 54.3438C48.4297 54.3516 48.5273 54.3633 48.6016 54.3789L48.4668 56.0547C48.4082 56.0352 48.3242 56.0215 48.2148 56.0137C48.1094 56.002 48.0176 55.9961 47.9395 55.9961C47.709 55.9961 47.4844 56.0254 47.2656 56.084C47.0508 56.1426 46.8574 56.2383 46.6855 56.3711C46.5137 56.5 46.377 56.6719 46.2754 56.8867C46.1777 57.0977 46.1289 57.3574 46.1289 57.666V61H44.3418V54.4492H45.6953L45.959 55.5508H46.0469C46.1758 55.3281 46.3359 55.125 46.5273 54.9414C46.7227 54.7539 46.9434 54.6055 47.1895 54.4961C47.4395 54.3828 47.709 54.3262 47.998 54.3262ZM53.0488 61V52.4336H54.8652V59.5H58.3398V61H53.0488ZM65.6465 57.7129C65.6465 58.2598 65.5723 58.7441 65.4238 59.166C65.2793 59.5879 65.0664 59.9453 64.7852 60.2383C64.5078 60.5273 64.1719 60.7461 63.7773 60.8945C63.3867 61.043 62.9453 61.1172 62.4531 61.1172C61.9922 61.1172 61.5684 61.043 61.1816 60.8945C60.7988 60.7461 60.4648 60.5273 60.1797 60.2383C59.8984 59.9453 59.6797 59.5879 59.5234 59.166C59.3711 58.7441 59.2949 58.2598 59.2949 57.7129C59.2949 56.9863 59.4238 56.3711 59.6816 55.8672C59.9395 55.3633 60.3066 54.9805 60.7832 54.7188C61.2598 54.457 61.8281 54.3262 62.4883 54.3262C63.1016 54.3262 63.6445 54.457 64.1172 54.7188C64.5938 54.9805 64.9668 55.3633 65.2363 55.8672C65.5098 56.3711 65.6465 56.9863 65.6465 57.7129ZM61.1172 57.7129C61.1172 58.1426 61.1641 58.5039 61.2578 58.7969C61.3516 59.0898 61.498 59.3105 61.6973 59.459C61.8965 59.6074 62.1562 59.6816 62.4766 59.6816C62.793 59.6816 63.0488 59.6074 63.2441 59.459C63.4434 59.3105 63.5879 59.0898 63.6777 58.7969C63.7715 58.5039 63.8184 58.1426 63.8184 57.7129C63.8184 57.2793 63.7715 56.9199 63.6777 56.6348C63.5879 56.3457 63.4434 56.1289 63.2441 55.9844C63.0449 55.8398 62.7852 55.7676 62.4648 55.7676C61.9922 55.7676 61.6484 55.9297 61.4336 56.2539C61.2227 56.5781 61.1172 57.0645 61.1172 57.7129ZM69.0391 63.8828C68.125 63.8828 67.4258 63.7227 66.9414 63.4023C66.4609 63.0859 66.2207 62.6406 66.2207 62.0664C66.2207 61.6719 66.3438 61.3418 66.5898 61.0762C66.8359 60.8105 67.1973 60.6211 67.6738 60.5078C67.4902 60.4297 67.3301 60.3027 67.1934 60.127C67.0566 59.9473 66.9883 59.7578 66.9883 59.5586C66.9883 59.3086 67.0605 59.1016 67.2051 58.9375C67.3496 58.7695 67.5586 58.6055 67.832 58.4453C67.4883 58.2969 67.2148 58.0586 67.0117 57.7305C66.8125 57.4023 66.7129 57.0156 66.7129 56.5703C66.7129 56.0938 66.8164 55.6895 67.0234 55.3574C67.2344 55.0215 67.5391 54.7656 67.9375 54.5898C68.3398 54.4141 68.8281 54.3262 69.4023 54.3262C69.5234 54.3262 69.6641 54.334 69.8242 54.3496C69.9844 54.3652 70.1309 54.3828 70.2637 54.4023C70.4004 54.4219 70.4922 54.4375 70.5391 54.4492H72.8242V55.3574L71.7988 55.6211C71.8926 55.7656 71.9629 55.9199 72.0098 56.084C72.0566 56.248 72.0801 56.4219 72.0801 56.6055C72.0801 57.3086 71.834 57.8574 71.3418 58.252C70.8535 58.6426 70.1738 58.8379 69.3027 58.8379C69.0957 58.8262 68.9004 58.8105 68.7168 58.791C68.627 58.8613 68.5586 58.9355 68.5117 59.0137C68.4648 59.0918 68.4414 59.1738 68.4414 59.2598C68.4414 59.3457 68.4766 59.418 68.5469 59.4766C68.6211 59.5312 68.7305 59.5742 68.875 59.6055C69.0234 59.6328 69.207 59.6465 69.4258 59.6465H70.5391C71.2578 59.6465 71.8047 59.8008 72.1797 60.1094C72.5586 60.418 72.748 60.8711 72.748 61.4688C72.748 62.2344 72.4277 62.8281 71.7871 63.25C71.1504 63.6719 70.2344 63.8828 69.0391 63.8828ZM69.1152 62.7168C69.541 62.7168 69.9062 62.6758 70.2109 62.5938C70.5195 62.5156 70.7559 62.4023 70.9199 62.2539C71.084 62.1094 71.166 61.9355 71.166 61.7324C71.166 61.5684 71.1172 61.4375 71.0195 61.3398C70.9258 61.2461 70.7812 61.1797 70.5859 61.1406C70.3945 61.1016 70.1484 61.082 69.8477 61.082H68.9219C68.7031 61.082 68.5059 61.1172 68.3301 61.1875C68.1582 61.2578 68.0215 61.3555 67.9199 61.4805C67.8184 61.6094 67.7676 61.7578 67.7676 61.9258C67.7676 62.1719 67.8848 62.3652 68.1191 62.5059C68.3574 62.6465 68.6895 62.7168 69.1152 62.7168ZM69.4023 57.748C69.7383 57.748 69.9844 57.6445 70.1406 57.4375C70.2969 57.2305 70.375 56.9492 70.375 56.5938C70.375 56.1992 70.293 55.9043 70.1289 55.709C69.9688 55.5098 69.7266 55.4102 69.4023 55.4102C69.0742 55.4102 68.8281 55.5098 68.6641 55.709C68.5 55.9043 68.418 56.1992 68.418 56.5938C68.418 56.9492 68.498 57.2305 68.6582 57.4375C68.8223 57.6445 69.0703 57.748 69.4023 57.748ZM79.8613 57.7129C79.8613 58.2598 79.7871 58.7441 79.6387 59.166C79.4941 59.5879 79.2812 59.9453 79 60.2383C78.7227 60.5273 78.3867 60.7461 77.9922 60.8945C77.6016 61.043 77.1602 61.1172 76.668 61.1172C76.207 61.1172 75.7832 61.043 75.3965 60.8945C75.0137 60.7461 74.6797 60.5273 74.3945 60.2383C74.1133 59.9453 73.8945 59.5879 73.7383 59.166C73.5859 58.7441 73.5098 58.2598 73.5098 57.7129C73.5098 56.9863 73.6387 56.3711 73.8965 55.8672C74.1543 55.3633 74.5215 54.9805 74.998 54.7188C75.4746 54.457 76.043 54.3262 76.7031 54.3262C77.3164 54.3262 77.8594 54.457 78.332 54.7188C78.8086 54.9805 79.1816 55.3633 79.4512 55.8672C79.7246 56.3711 79.8613 56.9863 79.8613 57.7129ZM75.332 57.7129C75.332 58.1426 75.3789 58.5039 75.4727 58.7969C75.5664 59.0898 75.7129 59.3105 75.9121 59.459C76.1113 59.6074 76.3711 59.6816 76.6914 59.6816C77.0078 59.6816 77.2637 59.6074 77.459 59.459C77.6582 59.3105 77.8027 59.0898 77.8926 58.7969C77.9863 58.5039 78.0332 58.1426 78.0332 57.7129C78.0332 57.2793 77.9863 56.9199 77.8926 56.6348C77.8027 56.3457 77.6582 56.1289 77.459 55.9844C77.2598 55.8398 77 55.7676 76.6797 55.7676C76.207 55.7676 75.8633 55.9297 75.6484 56.2539C75.4375 56.5781 75.332 57.0645 75.332 57.7129ZM24.4023 79.8828C23.4883 79.8828 22.7891 79.7227 22.3047 79.4023C21.8242 79.0859 21.584 78.6406 21.584 78.0664C21.584 77.6719 21.707 77.3418 21.9531 77.0762C22.1992 76.8105 22.5605 76.6211 23.0371 76.5078C22.8535 76.4297 22.6934 76.3027 22.5566 76.127C22.4199 75.9473 22.3516 75.7578 22.3516 75.5586C22.3516 75.3086 22.4238 75.1016 22.5684 74.9375C22.7129 74.7695 22.9219 74.6055 23.1953 74.4453C22.8516 74.2969 22.5781 74.0586 22.375 73.7305C22.1758 73.4023 22.0762 73.0156 22.0762 72.5703C22.0762 72.0938 22.1797 71.6895 22.3867 71.3574C22.5977 71.0215 22.9023 70.7656 23.3008 70.5898C23.7031 70.4141 24.1914 70.3262 24.7656 70.3262C24.8867 70.3262 25.0273 70.334 25.1875 70.3496C25.3477 70.3652 25.4941 70.3828 25.627 70.4023C25.7637 70.4219 25.8555 70.4375 25.9023 70.4492H28.1875V71.3574L27.1621 71.6211C27.2559 71.7656 27.3262 71.9199 27.373 72.084C27.4199 72.248 27.4434 72.4219 27.4434 72.6055C27.4434 73.3086 27.1973 73.8574 26.7051 74.252C26.2168 74.6426 25.5371 74.8379 24.666 74.8379C24.459 74.8262 24.2637 74.8105 24.0801 74.791C23.9902 74.8613 23.9219 74.9355 23.875 75.0137C23.8281 75.0918 23.8047 75.1738 23.8047 75.2598C23.8047 75.3457 23.8398 75.418 23.9102 75.4766C23.9844 75.5312 24.0938 75.5742 24.2383 75.6055C24.3867 75.6328 24.5703 75.6465 24.7891 75.6465H25.9023C26.6211 75.6465 27.168 75.8008 27.543 76.1094C27.9219 76.418 28.1113 76.8711 28.1113 77.4688C28.1113 78.2344 27.791 78.8281 27.1504 79.25C26.5137 79.6719 25.5977 79.8828 24.4023 79.8828ZM24.4785 78.7168C24.9043 78.7168 25.2695 78.6758 25.5742 78.5938C25.8828 78.5156 26.1191 78.4023 26.2832 78.2539C26.4473 78.1094 26.5293 77.9355 26.5293 77.7324C26.5293 77.5684 26.4805 77.4375 26.3828 77.3398C26.2891 77.2461 26.1445 77.1797 25.9492 77.1406C25.7578 77.1016 25.5117 77.082 25.2109 77.082H24.2852C24.0664 77.082 23.8691 77.1172 23.6934 77.1875C23.5215 77.2578 23.3848 77.3555 23.2832 77.4805C23.1816 77.6094 23.1309 77.7578 23.1309 77.9258C23.1309 78.1719 23.248 78.3652 23.4824 78.5059C23.7207 78.6465 24.0527 78.7168 24.4785 78.7168ZM24.7656 73.748C25.1016 73.748 25.3477 73.6445 25.5039 73.4375C25.6602 73.2305 25.7383 72.9492 25.7383 72.5938C25.7383 72.1992 25.6562 71.9043 25.4922 71.709C25.332 71.5098 25.0898 71.4102 24.7656 71.4102C24.4375 71.4102 24.1914 71.5098 24.0273 71.709C23.8633 71.9043 23.7812 72.1992 23.7812 72.5938C23.7812 72.9492 23.8613 73.2305 24.0215 73.4375C24.1855 73.6445 24.4336 73.748 24.7656 73.748ZM35.2246 73.7129C35.2246 74.2598 35.1504 74.7441 35.002 75.166C34.8574 75.5879 34.6445 75.9453 34.3633 76.2383C34.0859 76.5273 33.75 76.7461 33.3555 76.8945C32.9648 77.043 32.5234 77.1172 32.0312 77.1172C31.5703 77.1172 31.1465 77.043 30.7598 76.8945C30.377 76.7461 30.043 76.5273 29.7578 76.2383C29.4766 75.9453 29.2578 75.5879 29.1016 75.166C28.9492 74.7441 28.873 74.2598 28.873 73.7129C28.873 72.9863 29.002 72.3711 29.2598 71.8672C29.5176 71.3633 29.8848 70.9805 30.3613 70.7188C30.8379 70.457 31.4062 70.3262 32.0664 70.3262C32.6797 70.3262 33.2227 70.457 33.6953 70.7188C34.1719 70.9805 34.5449 71.3633 34.8145 71.8672C35.0879 72.3711 35.2246 72.9863 35.2246 73.7129ZM30.6953 73.7129C30.6953 74.1426 30.7422 74.5039 30.8359 74.7969C30.9297 75.0898 31.0762 75.3105 31.2754 75.459C31.4746 75.6074 31.7344 75.6816 32.0547 75.6816C32.3711 75.6816 32.627 75.6074 32.8223 75.459C33.0215 75.3105 33.166 75.0898 33.2559 74.7969C33.3496 74.5039 33.3965 74.1426 33.3965 73.7129C33.3965 73.2793 33.3496 72.9199 33.2559 72.6348C33.166 72.3457 33.0215 72.1289 32.8223 71.9844C32.623 71.8398 32.3633 71.7676 32.043 71.7676C31.5703 71.7676 31.2266 71.9297 31.0117 72.2539C30.8008 72.5781 30.6953 73.0645 30.6953 73.7129ZM39.4023 70.3262C40.0078 70.3262 40.5293 70.4434 40.9668 70.6777C41.4043 70.9082 41.7422 71.2441 41.9805 71.6855C42.2188 72.127 42.3379 72.666 42.3379 73.3027V74.1699H38.1133C38.1328 74.6738 38.2832 75.0703 38.5645 75.3594C38.8496 75.6445 39.2441 75.7871 39.748 75.7871C40.166 75.7871 40.5488 75.7441 40.8965 75.6582C41.2441 75.5723 41.6016 75.4434 41.9688 75.2715V76.6543C41.6445 76.8145 41.3047 76.9316 40.9492 77.0059C40.5977 77.0801 40.1699 77.1172 39.666 77.1172C39.0098 77.1172 38.4277 76.9961 37.9199 76.7539C37.416 76.5117 37.0195 76.1426 36.7305 75.6465C36.4453 75.1504 36.3027 74.5254 36.3027 73.7715C36.3027 73.0059 36.4316 72.3691 36.6895 71.8613C36.9512 71.3496 37.3145 70.9668 37.7793 70.7129C38.2441 70.4551 38.7852 70.3262 39.4023 70.3262ZM39.4141 71.5977C39.0664 71.5977 38.7773 71.709 38.5469 71.9316C38.3203 72.1543 38.1895 72.5039 38.1543 72.9805H40.6621C40.6582 72.7148 40.6094 72.4785 40.5156 72.2715C40.4258 72.0645 40.2891 71.9004 40.1055 71.7793C39.9258 71.6582 39.6953 71.5977 39.4141 71.5977ZM48.3613 75.0547C48.3613 75.5 48.2559 75.877 48.0449 76.1855C47.8379 76.4902 47.5273 76.7227 47.1133 76.8828C46.6992 77.0391 46.1836 77.1172 45.5664 77.1172C45.1094 77.1172 44.7168 77.0879 44.3887 77.0293C44.0645 76.9707 43.7363 76.873 43.4043 76.7363V75.2598C43.7598 75.4199 44.1406 75.5527 44.5469 75.6582C44.957 75.7598 45.3164 75.8105 45.625 75.8105C45.9727 75.8105 46.2207 75.7598 46.3691 75.6582C46.5215 75.5527 46.5977 75.416 46.5977 75.248C46.5977 75.1387 46.5664 75.041 46.5039 74.9551C46.4453 74.8652 46.3164 74.7656 46.1172 74.6562C45.918 74.543 45.6055 74.3965 45.1797 74.2168C44.7695 74.0449 44.4316 73.8711 44.166 73.6953C43.9043 73.5195 43.709 73.3125 43.5801 73.0742C43.4551 72.832 43.3926 72.5254 43.3926 72.1543C43.3926 71.5488 43.627 71.0938 44.0957 70.7891C44.5684 70.4805 45.1992 70.3262 45.9883 70.3262C46.3945 70.3262 46.7812 70.3672 47.1484 70.4492C47.5195 70.5312 47.9004 70.6621 48.291 70.8418L47.752 72.1309C47.4277 71.9902 47.1211 71.875 46.832 71.7852C46.5469 71.6953 46.2559 71.6504 45.959 71.6504C45.6973 71.6504 45.5 71.6855 45.3672 71.7559C45.2344 71.8262 45.168 71.9336 45.168 72.0781C45.168 72.1836 45.2012 72.2773 45.2676 72.3594C45.3379 72.4414 45.4707 72.5332 45.666 72.6348C45.8652 72.7324 46.1562 72.8594 46.5391 73.0156C46.9102 73.168 47.2324 73.3281 47.5059 73.4961C47.7793 73.6602 47.9902 73.8652 48.1387 74.1113C48.2871 74.3535 48.3613 74.668 48.3613 75.0547ZM54.6602 67.8828V69.7402C54.6602 70.0645 54.6484 70.373 54.625 70.666C54.6055 70.959 54.5898 71.166 54.5781 71.2871H54.6719C54.8125 71.0605 54.9785 70.877 55.1699 70.7363C55.3652 70.5957 55.5801 70.4922 55.8145 70.4258C56.0488 70.3594 56.3008 70.3262 56.5703 70.3262C57.043 70.3262 57.4551 70.4102 57.8066 70.5781C58.1582 70.7422 58.4316 71.002 58.627 71.3574C58.8223 71.709 58.9199 72.166 58.9199 72.7285V77H57.1328V73.1738C57.1328 72.7051 57.0469 72.3516 56.875 72.1133C56.7031 71.875 56.4375 71.7559 56.0781 71.7559C55.7188 71.7559 55.4355 71.8398 55.2285 72.0078C55.0215 72.1719 54.875 72.416 54.7891 72.7402C54.7031 73.0605 54.6602 73.4531 54.6602 73.918V77H52.873V67.8828H54.6602ZM63.4609 70.3262C64.0664 70.3262 64.5879 70.4434 65.0254 70.6777C65.4629 70.9082 65.8008 71.2441 66.0391 71.6855C66.2773 72.127 66.3965 72.666 66.3965 73.3027V74.1699H62.1719C62.1914 74.6738 62.3418 75.0703 62.623 75.3594C62.9082 75.6445 63.3027 75.7871 63.8066 75.7871C64.2246 75.7871 64.6074 75.7441 64.9551 75.6582C65.3027 75.5723 65.6602 75.4434 66.0273 75.2715V76.6543C65.7031 76.8145 65.3633 76.9316 65.0078 77.0059C64.6562 77.0801 64.2285 77.1172 63.7246 77.1172C63.0684 77.1172 62.4863 76.9961 61.9785 76.7539C61.4746 76.5117 61.0781 76.1426 60.7891 75.6465C60.5039 75.1504 60.3613 74.5254 60.3613 73.7715C60.3613 73.0059 60.4902 72.3691 60.748 71.8613C61.0098 71.3496 61.373 70.9668 61.8379 70.7129C62.3027 70.4551 62.8438 70.3262 63.4609 70.3262ZM63.4727 71.5977C63.125 71.5977 62.8359 71.709 62.6055 71.9316C62.3789 72.1543 62.248 72.5039 62.2129 72.9805H64.7207C64.7168 72.7148 64.668 72.4785 64.5742 72.2715C64.4844 72.0645 64.3477 71.9004 64.1641 71.7793C63.9844 71.6582 63.7539 71.5977 63.4727 71.5977ZM71.5059 70.3262C71.5957 70.3262 71.6992 70.332 71.8164 70.3438C71.9375 70.3516 72.0352 70.3633 72.1094 70.3789L71.9746 72.0547C71.916 72.0352 71.832 72.0215 71.7227 72.0137C71.6172 72.002 71.5254 71.9961 71.4473 71.9961C71.2168 71.9961 70.9922 72.0254 70.7734 72.084C70.5586 72.1426 70.3652 72.2383 70.1934 72.3711C70.0215 72.5 69.8848 72.6719 69.7832 72.8867C69.6855 73.0977 69.6367 73.3574 69.6367 73.666V77H67.8496V70.4492H69.2031L69.4668 71.5508H69.5547C69.6836 71.3281 69.8438 71.125 70.0352 70.9414C70.2305 70.7539 70.4512 70.6055 70.6973 70.4961C70.9473 70.3828 71.2168 70.3262 71.5059 70.3262ZM76 70.3262C76.6055 70.3262 77.127 70.4434 77.5645 70.6777C78.002 70.9082 78.3398 71.2441 78.5781 71.6855C78.8164 72.127 78.9355 72.666 78.9355 73.3027V74.1699H74.7109C74.7305 74.6738 74.8809 75.0703 75.1621 75.3594C75.4473 75.6445 75.8418 75.7871 76.3457 75.7871C76.7637 75.7871 77.1465 75.7441 77.4941 75.6582C77.8418 75.5723 78.1992 75.4434 78.5664 75.2715V76.6543C78.2422 76.8145 77.9023 76.9316 77.5469 77.0059C77.1953 77.0801 76.7676 77.1172 76.2637 77.1172C75.6074 77.1172 75.0254 76.9961 74.5176 76.7539C74.0137 76.5117 73.6172 76.1426 73.3281 75.6465C73.043 75.1504 72.9004 74.5254 72.9004 73.7715C72.9004 73.0059 73.0293 72.3691 73.2871 71.8613C73.5488 71.3496 73.9121 70.9668 74.377 70.7129C74.8418 70.4551 75.3828 70.3262 76 70.3262ZM76.0117 71.5977C75.6641 71.5977 75.375 71.709 75.1445 71.9316C74.918 72.1543 74.7871 72.5039 74.752 72.9805H77.2598C77.2559 72.7148 77.207 72.4785 77.1133 72.2715C77.0234 72.0645 76.8867 71.9004 76.7031 71.7793C76.5234 71.6582 76.293 71.5977 76.0117 71.5977Z" fill="white"/>
</svg>
