<?xml version="1.0" encoding="utf-8"?>
<svg version="1.1" xmlns:xlink="http://www.w3.org/1999/xlink" width="16px" height="15px" xmlns="http://www.w3.org/2000/svg">
  <g transform="matrix(1 0 0 1 -12 -8 )">
    <path d="M 8.740384615384615 8.623046875000002  C 8.182692307692308 6.975911458333332  7.592948717948719 5.504557291666666  6.971153846153846 4.208984375000001  L 5.336538461538462 8.603515624999998  C 5.548076923076923 8.603515624999998  5.985576923076923 8.610026041666668  6.649038461538462 8.623046875000002  C 7.312500000000001 8.636067708333332  7.826923076923078 8.642578125  8.192307692307692 8.642578125  C 8.314102564102566 8.642578125  8.496794871794872 8.636067708333332  8.740384615384615 8.623046875000002  Z M 1.8076923076923077 14.86328125  C 1.2948717948717952 14.954427083333332  0.6923076923076924 15  0 15  L 0.019230769230769232 14.228515625  C 0.16666666666666669 14.182942708333332  0.34615384615384615 14.142252604166666  0.5576923076923077 14.1064453125  C 0.7692307692307693 14.070638020833334  0.9519230769230769 14.036458333333332  1.1057692307692308 14.00390625  C 1.2596153846153846 13.971354166666668  1.4182692307692308 13.924153645833334  1.5817307692307692 13.8623046875  C 1.7451923076923077 13.800455729166668  1.887820512820513 13.7060546875  2.0096153846153846 13.5791015625  C 2.1314102564102564 13.4521484375  2.230769230769231 13.287760416666668  2.3076923076923075 13.0859375  L 4.586538461538462 7.070312499999999  L 7.278846153846154 0  L 8 0  L 8.509615384615385 0  C 8.560897435897436 0.0911458333333326  8.596153846153847 0.15950520833333204  8.615384615384615 0.205078125  L 10.586538461538462 4.892578125  C 10.798076923076923 5.400390624999999  11.137820512820515 6.238606770833332  11.60576923076923 7.407226562499999  C 12.073717948717949 8.575846354166664  12.439102564102566 9.469401041666664  12.701923076923077 10.087890625000002  C 12.798076923076923 10.309244791666664  12.983974358974361 10.779622395833334  13.259615384615385 11.4990234375  C 13.53525641025641 12.218424479166668  13.766025641025642 12.766927083333334  13.951923076923077 13.14453125  C 14.080128205128206 13.4375  14.192307692307692 13.623046875  14.288461538461538 13.701171875  C 14.41025641025641 13.798828125  14.692307692307692 13.894856770833334  15.134615384615385 13.9892578125  C 15.576923076923077 14.083658854166666  15.846153846153847 14.150390625  15.942307692307692 14.189453125  C 15.98076923076923 14.436848958333334  16 14.622395833333332  16 14.74609375  C 16 14.778645833333332  15.998397435897438 14.822591145833332  15.995192307692308 14.8779296875  C 15.99198717948718 14.933268229166666  15.990384615384615 14.973958333333332  15.990384615384615 15  C 15.586538461538462 15  14.977564102564104 14.973958333333332  14.163461538461538 14.921875  C 13.349358974358976 14.869791666666668  12.737179487179487 14.84375  12.326923076923077 14.84375  C 11.839743589743591 14.84375  11.150641025641026 14.866536458333332  10.259615384615385 14.912109375  C 9.368589743589745 14.957682291666668  8.798076923076923 14.983723958333332  8.548076923076923 14.990234375  C 8.548076923076923 14.710286458333332  8.560897435897436 14.456380208333332  8.586538461538462 14.228515625  L 9.846153846153847 13.955078125  C 9.852564102564104 13.955078125  9.892628205128206 13.946940104166668  9.966346153846153 13.9306640625  C 10.040064102564104 13.914388020833332  10.089743589743591 13.902994791666668  10.115384615384615 13.896484375  C 10.141025641025642 13.889973958333332  10.1875 13.875325520833332  10.254807692307692 13.8525390625  C 10.322115384615385 13.829752604166668  10.370192307692308 13.80859375  10.399038461538462 13.7890625  C 10.427884615384615 13.76953125  10.463141025641026 13.743489583333332  10.504807692307692 13.7109375  C 10.546474358974361 13.678385416666668  10.575320512820515 13.642578125  10.591346153846153 13.603515625  C 10.607371794871796 13.564453125  10.615384615384615 13.518880208333332  10.615384615384615 13.466796875  C 10.615384615384615 13.362630208333332  10.516025641025642 13.048502604166668  10.317307692307692 12.5244140625  C 10.118589743589745 12.000325520833332  9.887820512820515 11.422526041666668  9.625 10.791015625000002  C 9.362179487179487 10.159505208333332  9.227564102564104 9.833984374999998  9.221153846153847 9.814453125  L 4.894230769230769 9.794921875000002  C 4.727564102564103 10.172526041666664  4.482371794871796 10.808919270833334  4.158653846153846 11.7041015625  C 3.834935897435898 12.599283854166668  3.673076923076923 13.128255208333332  3.673076923076923 13.291015625  C 3.673076923076923 13.434244791666668  3.717948717948718 13.556315104166666  3.8076923076923075 13.6572265625  C 3.897435897435898 13.758138020833332  4.0368589743589745 13.837890625  4.225961538461538 13.896484375  C 4.415064102564103 13.955078125  4.570512820512821 13.9990234375  4.6923076923076925 14.0283203125  C 4.814102564102565 14.0576171875  4.996794871794872 14.085286458333334  5.240384615384615 14.111328125  C 5.4839743589743595 14.137369791666668  5.615384615384615 14.150390625  5.634615384615385 14.150390625  C 5.641025641025641 14.274088541666666  5.644230769230769 14.462890625  5.644230769230769 14.716796875  C 5.644230769230769 14.775390625  5.637820512820513 14.86328125  5.625 14.98046875  C 5.253205128205129 14.98046875  4.693910256410256 14.947916666666666  3.9471153846153846 14.8828125  C 3.200320512820513 14.817708333333334  2.6410256410256414 14.78515625  2.269230769230769 14.78515625  C 2.217948717948718 14.78515625  2.1330128205128207 14.798177083333332  2.014423076923077 14.82421875  C 1.8958333333333335 14.850260416666668  1.8269230769230769 14.86328125  1.8076923076923077 14.86328125  Z " fill-rule="nonzero" fill="#000000" stroke="none" transform="matrix(1 0 0 1 12 8 )" />
  </g>
</svg>