<svg xmlns="http://www.w3.org/2000/svg" width="24" height="20" fill="none"><path fill="#00832D" d="m13.576 10 2.34 2.549 3.145 1.916.55-4.45-.55-4.351-3.206 1.684L13.576 10Z"/><path fill="#0066DA" d="M0 14.053v3.791a1.608 1.608 0 0 0 1.646 1.569h3.977l.823-2.865-.823-2.494-2.729-.784L0 14.053Z"/><path fill="#E94235" d="M5.622.588 0 5.948l2.894.784 2.729-.784.809-2.46-.81-2.9Z"/><path fill="#2684FC" d="M5.622 5.948H0v8.1h5.622v-8.1Z"/><path fill="#00AC47" d="M22.653 2.858 19.06 5.666v8.8l3.609 2.821a.826.826 0 0 0 1.33-.62v-13.2a.828.828 0 0 0-1.347-.607l.001-.002Zm-9.077 7.143v4.052H5.621v5.36h11.794a1.608 1.608 0 0 0 1.646-1.569l-.001-3.378-5.484-4.465Z"/><path fill="#FFBA00" d="M17.415.588H5.621v5.36h7.955V10l5.485-4.332V2.157A1.608 1.608 0 0 0 17.415.588Z"/></svg>