<svg xmlns="http://www.w3.org/2000/svg" width="24" height="24" fill="none"><path fill="#5059C9" d="M16.74 9.209h6.2a1.06 1.06 0 0 1 1.061 1.06v5.647a3.9 3.9 0 0 1-3.9 3.9h-.018a3.9 3.9 0 0 1-3.9-3.9V9.763a.555.555 0 0 1 .554-.554h.003ZM20.93 8.094a2.512 2.512 0 1 0 .001-5.024 2.512 2.512 0 0 0 0 5.024Z"/><path fill="#7B83EB" d="M13.116 8.093a3.628 3.628 0 1 0 0-7.256 3.628 3.628 0 0 0 0 7.256ZM17.957 9.209H7.72a1.049 1.049 0 0 0-1.023 1.073v6.44a6.147 6.147 0 1 0 12.28 0v-6.44a1.05 1.05 0 0 0-1.02-1.073Z"/><path fill="#000" d="M13.395 9.209v9.025a1.027 1.027 0 0 1-1.021 1.021H7.189a6.8 6.8 0 0 1-.5-2.534V10.28A1.048 1.048 0 0 1 7.71 9.208l5.685.001Z" opacity=".1"/><path fill="#000" d="M12.837 9.209v9.583a1.027 1.027 0 0 1-1.021 1.021H7.451a7.065 7.065 0 0 1-.262-.558 6.8 6.8 0 0 1-.5-2.534V10.28A1.048 1.048 0 0 1 7.71 9.208l5.127.001Z" opacity=".2"/><path fill="#000" d="M12.837 9.209v8.467a1.029 1.029 0 0 1-1.021 1.021H6.994a6.8 6.8 0 0 1-.3-1.976V10.28a1.048 1.048 0 0 1 1.021-1.072l5.122.001Z" opacity=".2"/><path fill="#000" d="M12.279 9.209v8.467a1.029 1.029 0 0 1-1.021 1.021H6.994a6.8 6.8 0 0 1-.3-1.976V10.28a1.048 1.048 0 0 1 1.022-1.072l4.563.001Z" opacity=".2"/><path fill="#000" d="M13.393 6.323v1.758a4.48 4.48 0 0 1-.279.011c-.095 0-.184-.006-.279-.011a3.062 3.062 0 0 1-.558-.089 3.628 3.628 0 0 1-2.691-2.69h2.785a1.025 1.025 0 0 1 1.022 1.021Z" opacity=".1"/><path fill="#000" d="M12.837 6.881v1.2a3.052 3.052 0 0 1-.558-.089A3.628 3.628 0 0 1 9.767 5.86h2.048a1.025 1.025 0 0 1 1.022 1.021Z" opacity=".2"/><path fill="#000" d="M12.837 6.881v1.2a3.052 3.052 0 0 1-.558-.089A3.628 3.628 0 0 1 9.767 5.86h2.048a1.025 1.025 0 0 1 1.022 1.021Z" opacity=".2"/><path fill="#000" d="M12.279 6.881v1.111A3.628 3.628 0 0 1 9.767 5.86h1.49a1.025 1.025 0 0 1 1.022 1.021Z" opacity=".2"/><path fill="url(#a)" d="M1.023 5.86h10.233a1.023 1.023 0 0 1 1.023 1.023v10.233a1.023 1.023 0 0 1-1.023 1.023H1.023A1.023 1.023 0 0 1 0 17.116V6.883A1.023 1.023 0 0 1 1.023 5.86Z"/><path fill="#fff" d="M8.832 9.755H6.786v5.57h-1.3v-5.57H3.45V8.674h5.385l-.003 1.08Z"/><defs><linearGradient id="a" x1="2.137" x2="10.142" y1="18.962" y2="5.086" gradientUnits="userSpaceOnUse"><stop stop-color="#5A62C3"/><stop offset=".5" stop-color="#4D55BD"/><stop offset="1" stop-color="#3940AB"/></linearGradient></defs></svg>