<svg xmlns="http://www.w3.org/2000/svg" width="24" height="18" fill="none"><path fill="url(#a)" d="M5.479 8.689A16.41 16.41 0 0 0 6.586 11.4a2.7 2.7 0 0 0 .775 1l.221.111c.553.111.83-.332 1.052-.719.272-.646.494-1.312.666-1.992.044-.127.081-.256.111-.387.055-.221.111-.5.166-.719l2.435-6.475a5.486 5.486 0 0 1 1.937-1.6 5.07 5.07 0 0 1 2.38-.609 5.5 5.5 0 0 1 3.321 1.162 9.67 9.67 0 0 1 2.546 3.6c.126.32.201.657.221 1-.001.32-.057.64-.166.941a8.996 8.996 0 0 1-.5.775 2.32 2.32 0 0 1-.775.5c-.3.113-.62.17-.941.166a2.171 2.171 0 0 1-1-.221 3.224 3.224 0 0 1-.83-.609.053.053 0 0 0-.016-.04.053.053 0 0 0-.039-.015 4.135 4.135 0 0 1-.387-.664 6.049 6.049 0 0 0-.443-.83c-.111-.111-.166-.277-.277-.387a.646.646 0 0 0-.332-.332.7.7 0 0 0-.719-.111l-.055-.055a1.7 1.7 0 0 0-.553.83c-.335.829-.612 1.68-.83 2.546l-.111.5-1 3.265-1.384 3.1a5.345 5.345 0 0 1-1.937 1.55 5.773 5.773 0 0 1-2.38.553 5.908 5.908 0 0 1-5.036-3.044A23.534 23.534 0 0 1 .05 5.39a1.532 1.532 0 0 1-.055-.5 2.37 2.37 0 0 1 .332-1.218 2.27 2.27 0 0 1 .885-.885c.402-.176.834-.27 1.273-.277a2.449 2.449 0 0 1 1.826 1c.28.47.433 1.004.443 1.55a19.4 19.4 0 0 0 .719 3.653l.006-.024Z"/><path fill="url(#b)" d="M5.479 8.689A16.41 16.41 0 0 0 6.586 11.4a2.7 2.7 0 0 0 .775 1l.221.111c.553.111.83-.332 1.052-.719.272-.646.494-1.312.666-1.992.044-.127.081-.256.111-.387.055-.221.111-.5.166-.719l2.435-6.475a5.486 5.486 0 0 1 1.937-1.6 5.07 5.07 0 0 1 2.38-.609 5.5 5.5 0 0 1 3.321 1.162 9.67 9.67 0 0 1 2.546 3.6c.126.32.201.657.221 1-.001.32-.057.64-.166.941a8.996 8.996 0 0 1-.5.775 2.32 2.32 0 0 1-.775.5c-.3.113-.62.17-.941.166a2.171 2.171 0 0 1-1-.221 3.224 3.224 0 0 1-.83-.609.053.053 0 0 0-.016-.04.053.053 0 0 0-.039-.015 4.135 4.135 0 0 1-.387-.664 6.049 6.049 0 0 0-.443-.83c-.111-.111-.166-.277-.277-.387a.646.646 0 0 0-.332-.332.7.7 0 0 0-.719-.111l-.055-.055a1.7 1.7 0 0 0-.553.83c-.335.829-.612 1.68-.83 2.546l-.111.5-1 3.265-1.384 3.1a5.345 5.345 0 0 1-1.937 1.55 5.773 5.773 0 0 1-2.38.553 5.908 5.908 0 0 1-5.036-3.044A23.534 23.534 0 0 1 .05 5.39a1.532 1.532 0 0 1-.055-.5 2.37 2.37 0 0 1 .332-1.218 2.27 2.27 0 0 1 .885-.885c.402-.176.834-.27 1.273-.277a2.449 2.449 0 0 1 1.826 1c.28.47.433 1.004.443 1.55a19.4 19.4 0 0 0 .719 3.653l.006-.024Z"/><path fill="url(#c)" d="M5.479 8.689A16.41 16.41 0 0 0 6.586 11.4a2.7 2.7 0 0 0 .775 1l.221.111c.553.111.83-.332 1.052-.719.272-.646.494-1.312.666-1.992.044-.127.081-.256.111-.387.055-.221.111-.5.166-.719l2.435-6.475a5.486 5.486 0 0 1 1.937-1.6 5.07 5.07 0 0 1 2.38-.609 5.5 5.5 0 0 1 3.321 1.162 9.67 9.67 0 0 1 2.546 3.6c.126.32.201.657.221 1-.001.32-.057.64-.166.941a8.996 8.996 0 0 1-.5.775 2.32 2.32 0 0 1-.775.5c-.3.113-.62.17-.941.166a2.171 2.171 0 0 1-1-.221 3.224 3.224 0 0 1-.83-.609.053.053 0 0 0-.016-.04.053.053 0 0 0-.039-.015 4.135 4.135 0 0 1-.387-.664 6.049 6.049 0 0 0-.443-.83c-.111-.111-.166-.277-.277-.387a.646.646 0 0 0-.332-.332.7.7 0 0 0-.719-.111l-.055-.055a1.7 1.7 0 0 0-.553.83c-.335.829-.612 1.68-.83 2.546l-.111.5-1 3.265-1.384 3.1a5.345 5.345 0 0 1-1.937 1.55 5.773 5.773 0 0 1-2.38.553 5.908 5.908 0 0 1-5.036-3.044A23.534 23.534 0 0 1 .05 5.39a1.532 1.532 0 0 1-.055-.5 2.37 2.37 0 0 1 .332-1.218 2.27 2.27 0 0 1 .885-.885c.402-.176.834-.27 1.273-.277a2.449 2.449 0 0 1 1.826 1c.28.47.433 1.004.443 1.55a19.4 19.4 0 0 0 .719 3.653l.006-.024Z"/><path fill="url(#d)" d="M5.479 8.689A16.41 16.41 0 0 0 6.586 11.4a2.7 2.7 0 0 0 .775 1l.221.111c.553.111.83-.332 1.052-.719.272-.646.494-1.312.666-1.992.044-.127.081-.256.111-.387.055-.221.111-.5.166-.719l2.435-6.475a5.486 5.486 0 0 1 1.937-1.6 5.07 5.07 0 0 1 2.38-.609 5.5 5.5 0 0 1 3.321 1.162 9.67 9.67 0 0 1 2.546 3.6c.126.32.201.657.221 1-.001.32-.057.64-.166.941a8.996 8.996 0 0 1-.5.775 2.32 2.32 0 0 1-.775.5c-.3.113-.62.17-.941.166a2.171 2.171 0 0 1-1-.221 3.224 3.224 0 0 1-.83-.609.053.053 0 0 0-.016-.04.053.053 0 0 0-.039-.015 4.135 4.135 0 0 1-.387-.664 6.049 6.049 0 0 0-.443-.83c-.111-.111-.166-.277-.277-.387a.646.646 0 0 0-.332-.332.7.7 0 0 0-.719-.111l-.055-.055a1.7 1.7 0 0 0-.553.83c-.335.829-.612 1.68-.83 2.546l-.111.5-1 3.265-1.384 3.1a5.345 5.345 0 0 1-1.937 1.55 5.773 5.773 0 0 1-2.38.553 5.908 5.908 0 0 1-5.036-3.044A23.534 23.534 0 0 1 .05 5.39a1.532 1.532 0 0 1-.055-.5 2.37 2.37 0 0 1 .332-1.218 2.27 2.27 0 0 1 .885-.885c.402-.176.834-.27 1.273-.277a2.449 2.449 0 0 1 1.826 1c.28.47.433 1.004.443 1.55a19.4 19.4 0 0 0 .719 3.653l.006-.024Z"/><path fill="url(#e)" d="M5.479 8.689A16.41 16.41 0 0 0 6.586 11.4a2.7 2.7 0 0 0 .775 1l.221.111c.553.111.83-.332 1.052-.719.272-.646.494-1.312.666-1.992.044-.127.081-.256.111-.387.055-.221.111-.5.166-.719l2.435-6.475a5.486 5.486 0 0 1 1.937-1.6 5.07 5.07 0 0 1 2.38-.609 5.5 5.5 0 0 1 3.321 1.162 9.67 9.67 0 0 1 2.546 3.6c.126.32.201.657.221 1-.001.32-.057.64-.166.941a8.996 8.996 0 0 1-.5.775 2.32 2.32 0 0 1-.775.5c-.3.113-.62.17-.941.166a2.171 2.171 0 0 1-1-.221 3.224 3.224 0 0 1-.83-.609.053.053 0 0 0-.016-.04.053.053 0 0 0-.039-.015 4.135 4.135 0 0 1-.387-.664 6.049 6.049 0 0 0-.443-.83c-.111-.111-.166-.277-.277-.387a.646.646 0 0 0-.332-.332.7.7 0 0 0-.719-.111l-.055-.055a1.7 1.7 0 0 0-.553.83c-.335.829-.612 1.68-.83 2.546l-.111.5-1 3.265-1.384 3.1a5.345 5.345 0 0 1-1.937 1.55 5.773 5.773 0 0 1-2.38.553 5.908 5.908 0 0 1-5.036-3.044A23.534 23.534 0 0 1 .05 5.39a1.532 1.532 0 0 1-.055-.5 2.37 2.37 0 0 1 .332-1.218 2.27 2.27 0 0 1 .885-.885c.402-.176.834-.27 1.273-.277a2.449 2.449 0 0 1 1.826 1c.28.47.433 1.004.443 1.55a19.4 19.4 0 0 0 .719 3.653l.006-.024Z"/><path fill="url(#f)" d="M5.479 8.689A16.41 16.41 0 0 0 6.586 11.4a2.7 2.7 0 0 0 .775 1l.221.111c.553.111.83-.332 1.052-.719.272-.646.494-1.312.666-1.992.044-.127.081-.256.111-.387.055-.221.111-.5.166-.719l2.435-6.475a5.486 5.486 0 0 1 1.937-1.6 5.07 5.07 0 0 1 2.38-.609 5.5 5.5 0 0 1 3.321 1.162 9.67 9.67 0 0 1 2.546 3.6c.126.32.201.657.221 1-.001.32-.057.64-.166.941a8.996 8.996 0 0 1-.5.775 2.32 2.32 0 0 1-.775.5c-.3.113-.62.17-.941.166a2.171 2.171 0 0 1-1-.221 3.224 3.224 0 0 1-.83-.609.053.053 0 0 0-.016-.04.053.053 0 0 0-.039-.015 4.135 4.135 0 0 1-.387-.664 6.049 6.049 0 0 0-.443-.83c-.111-.111-.166-.277-.277-.387a.646.646 0 0 0-.332-.332.7.7 0 0 0-.719-.111l-.055-.055a1.7 1.7 0 0 0-.553.83c-.335.829-.612 1.68-.83 2.546l-.111.5-1 3.265-1.384 3.1a5.345 5.345 0 0 1-1.937 1.55 5.773 5.773 0 0 1-2.38.553 5.908 5.908 0 0 1-5.036-3.044A23.534 23.534 0 0 1 .05 5.39a1.532 1.532 0 0 1-.055-.5 2.37 2.37 0 0 1 .332-1.218 2.27 2.27 0 0 1 .885-.885c.402-.176.834-.27 1.273-.277a2.449 2.449 0 0 1 1.826 1c.28.47.433 1.004.443 1.55a19.4 19.4 0 0 0 .719 3.653l.006-.024Z"/><path fill="url(#g)" d="M5.479 8.689A16.41 16.41 0 0 0 6.586 11.4a2.7 2.7 0 0 0 .775 1l.221.111c.553.111.83-.332 1.052-.719.272-.646.494-1.312.666-1.992.044-.127.081-.256.111-.387.055-.221.111-.5.166-.719l2.435-6.475a5.486 5.486 0 0 1 1.937-1.6 5.07 5.07 0 0 1 2.38-.609 5.5 5.5 0 0 1 3.321 1.162 9.67 9.67 0 0 1 2.546 3.6c.126.32.201.657.221 1-.001.32-.057.64-.166.941a8.996 8.996 0 0 1-.5.775 2.32 2.32 0 0 1-.775.5c-.3.113-.62.17-.941.166a2.171 2.171 0 0 1-1-.221 3.224 3.224 0 0 1-.83-.609.053.053 0 0 0-.016-.04.053.053 0 0 0-.039-.015 4.135 4.135 0 0 1-.387-.664 6.049 6.049 0 0 0-.443-.83c-.111-.111-.166-.277-.277-.387a.646.646 0 0 0-.332-.332.7.7 0 0 0-.719-.111l-.055-.055a1.7 1.7 0 0 0-.553.83c-.335.829-.612 1.68-.83 2.546l-.111.5-1 3.265-1.384 3.1a5.345 5.345 0 0 1-1.937 1.55 5.773 5.773 0 0 1-2.38.553 5.908 5.908 0 0 1-5.036-3.044A23.534 23.534 0 0 1 .05 5.39a1.532 1.532 0 0 1-.055-.5 2.37 2.37 0 0 1 .332-1.218 2.27 2.27 0 0 1 .885-.885c.402-.176.834-.27 1.273-.277a2.449 2.449 0 0 1 1.826 1c.28.47.433 1.004.443 1.55a19.4 19.4 0 0 0 .719 3.653l.006-.024Z"/><path fill="url(#h)" d="M5.479 8.689A16.41 16.41 0 0 0 6.586 11.4a2.7 2.7 0 0 0 .775 1l.221.111c.553.111.83-.332 1.052-.719.272-.646.494-1.312.666-1.992.044-.127.081-.256.111-.387.055-.221.111-.5.166-.719l2.435-6.475a5.486 5.486 0 0 1 1.937-1.6 5.07 5.07 0 0 1 2.38-.609 5.5 5.5 0 0 1 3.321 1.162 9.67 9.67 0 0 1 2.546 3.6c.126.32.201.657.221 1-.001.32-.057.64-.166.941a8.996 8.996 0 0 1-.5.775 2.32 2.32 0 0 1-.775.5c-.3.113-.62.17-.941.166a2.171 2.171 0 0 1-1-.221 3.224 3.224 0 0 1-.83-.609.053.053 0 0 0-.016-.04.053.053 0 0 0-.039-.015 4.135 4.135 0 0 1-.387-.664 6.049 6.049 0 0 0-.443-.83c-.111-.111-.166-.277-.277-.387a.646.646 0 0 0-.332-.332.7.7 0 0 0-.719-.111l-.055-.055a1.7 1.7 0 0 0-.553.83c-.335.829-.612 1.68-.83 2.546l-.111.5-1 3.265-1.384 3.1a5.345 5.345 0 0 1-1.937 1.55 5.773 5.773 0 0 1-2.38.553 5.908 5.908 0 0 1-5.036-3.044A23.534 23.534 0 0 1 .05 5.39a1.532 1.532 0 0 1-.055-.5 2.37 2.37 0 0 1 .332-1.218 2.27 2.27 0 0 1 .885-.885c.402-.176.834-.27 1.273-.277a2.449 2.449 0 0 1 1.826 1c.28.47.433 1.004.443 1.55a19.4 19.4 0 0 0 .719 3.653l.006-.024Z"/><path fill="url(#i)" d="M5.479 8.689A16.41 16.41 0 0 0 6.586 11.4a2.7 2.7 0 0 0 .775 1l.221.111c.553.111.83-.332 1.052-.719.272-.646.494-1.312.666-1.992.044-.127.081-.256.111-.387.055-.221.111-.5.166-.719l2.435-6.475a5.486 5.486 0 0 1 1.937-1.6 5.07 5.07 0 0 1 2.38-.609 5.5 5.5 0 0 1 3.321 1.162 9.67 9.67 0 0 1 2.546 3.6c.126.32.201.657.221 1-.001.32-.057.64-.166.941a8.996 8.996 0 0 1-.5.775 2.32 2.32 0 0 1-.775.5c-.3.113-.62.17-.941.166a2.171 2.171 0 0 1-1-.221 3.224 3.224 0 0 1-.83-.609.053.053 0 0 0-.016-.04.053.053 0 0 0-.039-.015 4.135 4.135 0 0 1-.387-.664 6.049 6.049 0 0 0-.443-.83c-.111-.111-.166-.277-.277-.387a.646.646 0 0 0-.332-.332.7.7 0 0 0-.719-.111l-.055-.055a1.7 1.7 0 0 0-.553.83c-.335.829-.612 1.68-.83 2.546l-.111.5-1 3.265-1.384 3.1a5.345 5.345 0 0 1-1.937 1.55 5.773 5.773 0 0 1-2.38.553 5.908 5.908 0 0 1-5.036-3.044A23.534 23.534 0 0 1 .05 5.39a1.532 1.532 0 0 1-.055-.5 2.37 2.37 0 0 1 .332-1.218 2.27 2.27 0 0 1 .885-.885c.402-.176.834-.27 1.273-.277a2.449 2.449 0 0 1 1.826 1c.28.47.433 1.004.443 1.55a19.4 19.4 0 0 0 .719 3.653l.006-.024Z"/><path fill="url(#j)" d="M5.479 8.689A16.41 16.41 0 0 0 6.586 11.4a2.7 2.7 0 0 0 .775 1l.221.111c.553.111.83-.332 1.052-.719.272-.646.494-1.312.666-1.992.044-.127.081-.256.111-.387.055-.221.111-.5.166-.719l2.435-6.475a5.486 5.486 0 0 1 1.937-1.6 5.07 5.07 0 0 1 2.38-.609 5.5 5.5 0 0 1 3.321 1.162 9.67 9.67 0 0 1 2.546 3.6c.126.32.201.657.221 1-.001.32-.057.64-.166.941a8.996 8.996 0 0 1-.5.775 2.32 2.32 0 0 1-.775.5c-.3.113-.62.17-.941.166a2.171 2.171 0 0 1-1-.221 3.224 3.224 0 0 1-.83-.609.053.053 0 0 0-.016-.04.053.053 0 0 0-.039-.015 4.135 4.135 0 0 1-.387-.664 6.049 6.049 0 0 0-.443-.83c-.111-.111-.166-.277-.277-.387a.646.646 0 0 0-.332-.332.7.7 0 0 0-.719-.111l-.055-.055a1.7 1.7 0 0 0-.553.83c-.335.829-.612 1.68-.83 2.546l-.111.5-1 3.265-1.384 3.1a5.345 5.345 0 0 1-1.937 1.55 5.773 5.773 0 0 1-2.38.553 5.908 5.908 0 0 1-5.036-3.044A23.534 23.534 0 0 1 .05 5.39a1.532 1.532 0 0 1-.055-.5 2.37 2.37 0 0 1 .332-1.218 2.27 2.27 0 0 1 .885-.885c.402-.176.834-.27 1.273-.277a2.449 2.449 0 0 1 1.826 1c.28.47.433 1.004.443 1.55a19.4 19.4 0 0 0 .719 3.653l.006-.024Z"/><path fill="url(#k)" d="M5.479 8.689A16.41 16.41 0 0 0 6.586 11.4a2.7 2.7 0 0 0 .775 1l.221.111c.553.111.83-.332 1.052-.719.272-.646.494-1.312.666-1.992.044-.127.081-.256.111-.387.055-.221.111-.5.166-.719l2.435-6.475a5.486 5.486 0 0 1 1.937-1.6 5.07 5.07 0 0 1 2.38-.609 5.5 5.5 0 0 1 3.321 1.162 9.67 9.67 0 0 1 2.546 3.6c.126.32.201.657.221 1-.001.32-.057.64-.166.941a8.996 8.996 0 0 1-.5.775 2.32 2.32 0 0 1-.775.5c-.3.113-.62.17-.941.166a2.171 2.171 0 0 1-1-.221 3.224 3.224 0 0 1-.83-.609.053.053 0 0 0-.016-.04.053.053 0 0 0-.039-.015 4.135 4.135 0 0 1-.387-.664 6.049 6.049 0 0 0-.443-.83c-.111-.111-.166-.277-.277-.387a.646.646 0 0 0-.332-.332.7.7 0 0 0-.719-.111l-.055-.055a1.7 1.7 0 0 0-.553.83c-.335.829-.612 1.68-.83 2.546l-.111.5-1 3.265-1.384 3.1a5.345 5.345 0 0 1-1.937 1.55 5.773 5.773 0 0 1-2.38.553 5.908 5.908 0 0 1-5.036-3.044A23.534 23.534 0 0 1 .05 5.39a1.532 1.532 0 0 1-.055-.5 2.37 2.37 0 0 1 .332-1.218 2.27 2.27 0 0 1 .885-.885c.402-.176.834-.27 1.273-.277a2.449 2.449 0 0 1 1.826 1c.28.47.433 1.004.443 1.55a19.4 19.4 0 0 0 .719 3.653l.006-.024Z"/><path fill="url(#l)" d="M5.479 8.689A16.41 16.41 0 0 0 6.586 11.4a2.7 2.7 0 0 0 .775 1l.221.111c.553.111.83-.332 1.052-.719.272-.646.494-1.312.666-1.992.044-.127.081-.256.111-.387.055-.221.111-.5.166-.719l2.435-6.475a5.486 5.486 0 0 1 1.937-1.6 5.07 5.07 0 0 1 2.38-.609 5.5 5.5 0 0 1 3.321 1.162 9.67 9.67 0 0 1 2.546 3.6c.126.32.201.657.221 1-.001.32-.057.64-.166.941a8.996 8.996 0 0 1-.5.775 2.32 2.32 0 0 1-.775.5c-.3.113-.62.17-.941.166a2.171 2.171 0 0 1-1-.221 3.224 3.224 0 0 1-.83-.609.053.053 0 0 0-.016-.04.053.053 0 0 0-.039-.015 4.135 4.135 0 0 1-.387-.664 6.049 6.049 0 0 0-.443-.83c-.111-.111-.166-.277-.277-.387a.646.646 0 0 0-.332-.332.7.7 0 0 0-.719-.111l-.055-.055a1.7 1.7 0 0 0-.553.83c-.335.829-.612 1.68-.83 2.546l-.111.5-1 3.265-1.384 3.1a5.345 5.345 0 0 1-1.937 1.55 5.773 5.773 0 0 1-2.38.553 5.908 5.908 0 0 1-5.036-3.044A23.534 23.534 0 0 1 .05 5.39a1.532 1.532 0 0 1-.055-.5 2.37 2.37 0 0 1 .332-1.218 2.27 2.27 0 0 1 .885-.885c.402-.176.834-.27 1.273-.277a2.449 2.449 0 0 1 1.826 1c.28.47.433 1.004.443 1.55a19.4 19.4 0 0 0 .719 3.653l.006-.024Z"/><path fill="url(#m)" d="M5.479 8.689A16.41 16.41 0 0 0 6.586 11.4a2.7 2.7 0 0 0 .775 1l.221.111c.553.111.83-.332 1.052-.719.272-.646.494-1.312.666-1.992.044-.127.081-.256.111-.387.055-.221.111-.5.166-.719l2.435-6.475a5.486 5.486 0 0 1 1.937-1.6 5.07 5.07 0 0 1 2.38-.609 5.5 5.5 0 0 1 3.321 1.162 9.67 9.67 0 0 1 2.546 3.6c.126.32.201.657.221 1-.001.32-.057.64-.166.941a8.996 8.996 0 0 1-.5.775 2.32 2.32 0 0 1-.775.5c-.3.113-.62.17-.941.166a2.171 2.171 0 0 1-1-.221 3.224 3.224 0 0 1-.83-.609.053.053 0 0 0-.016-.04.053.053 0 0 0-.039-.015 4.135 4.135 0 0 1-.387-.664 6.049 6.049 0 0 0-.443-.83c-.111-.111-.166-.277-.277-.387a.646.646 0 0 0-.332-.332.7.7 0 0 0-.719-.111l-.055-.055a1.7 1.7 0 0 0-.553.83c-.335.829-.612 1.68-.83 2.546l-.111.5-1 3.265-1.384 3.1a5.345 5.345 0 0 1-1.937 1.55 5.773 5.773 0 0 1-2.38.553 5.908 5.908 0 0 1-5.036-3.044A23.534 23.534 0 0 1 .05 5.39a1.532 1.532 0 0 1-.055-.5 2.37 2.37 0 0 1 .332-1.218 2.27 2.27 0 0 1 .885-.885c.402-.176.834-.27 1.273-.277a2.449 2.449 0 0 1 1.826 1c.28.47.433 1.004.443 1.55a19.4 19.4 0 0 0 .719 3.653l.006-.024Z"/><path fill="url(#n)" d="M5.479 8.689A16.41 16.41 0 0 0 6.586 11.4a2.7 2.7 0 0 0 .775 1l.221.111c.553.111.83-.332 1.052-.719.272-.646.494-1.312.666-1.992.044-.127.081-.256.111-.387.055-.221.111-.5.166-.719l2.435-6.475a5.486 5.486 0 0 1 1.937-1.6 5.07 5.07 0 0 1 2.38-.609 5.5 5.5 0 0 1 3.321 1.162 9.67 9.67 0 0 1 2.546 3.6c.126.32.201.657.221 1-.001.32-.057.64-.166.941a8.996 8.996 0 0 1-.5.775 2.32 2.32 0 0 1-.775.5c-.3.113-.62.17-.941.166a2.171 2.171 0 0 1-1-.221 3.224 3.224 0 0 1-.83-.609.053.053 0 0 0-.016-.04.053.053 0 0 0-.039-.015 4.135 4.135 0 0 1-.387-.664 6.049 6.049 0 0 0-.443-.83c-.111-.111-.166-.277-.277-.387a.646.646 0 0 0-.332-.332.7.7 0 0 0-.719-.111l-.055-.055a1.7 1.7 0 0 0-.553.83c-.335.829-.612 1.68-.83 2.546l-.111.5-1 3.265-1.384 3.1a5.345 5.345 0 0 1-1.937 1.55 5.773 5.773 0 0 1-2.38.553 5.908 5.908 0 0 1-5.036-3.044A23.534 23.534 0 0 1 .05 5.39a1.532 1.532 0 0 1-.055-.5 2.37 2.37 0 0 1 .332-1.218 2.27 2.27 0 0 1 .885-.885c.402-.176.834-.27 1.273-.277a2.449 2.449 0 0 1 1.826 1c.28.47.433 1.004.443 1.55a19.4 19.4 0 0 0 .719 3.653l.006-.024Z"/><path fill="url(#o)" d="M5.479 8.689A16.41 16.41 0 0 0 6.586 11.4a2.7 2.7 0 0 0 .775 1l.221.111c.553.111.83-.332 1.052-.719.272-.646.494-1.312.666-1.992.044-.127.081-.256.111-.387.055-.221.111-.5.166-.719l2.435-6.475a5.486 5.486 0 0 1 1.937-1.6 5.07 5.07 0 0 1 2.38-.609 5.5 5.5 0 0 1 3.321 1.162 9.67 9.67 0 0 1 2.546 3.6c.126.32.201.657.221 1-.001.32-.057.64-.166.941a8.996 8.996 0 0 1-.5.775 2.32 2.32 0 0 1-.775.5c-.3.113-.62.17-.941.166a2.171 2.171 0 0 1-1-.221 3.224 3.224 0 0 1-.83-.609.053.053 0 0 0-.016-.04.053.053 0 0 0-.039-.015 4.135 4.135 0 0 1-.387-.664 6.049 6.049 0 0 0-.443-.83c-.111-.111-.166-.277-.277-.387a.646.646 0 0 0-.332-.332.7.7 0 0 0-.719-.111l-.055-.055a1.7 1.7 0 0 0-.553.83c-.335.829-.612 1.68-.83 2.546l-.111.5-1 3.265-1.384 3.1a5.345 5.345 0 0 1-1.937 1.55 5.773 5.773 0 0 1-2.38.553 5.908 5.908 0 0 1-5.036-3.044A23.534 23.534 0 0 1 .05 5.39a1.532 1.532 0 0 1-.055-.5 2.37 2.37 0 0 1 .332-1.218 2.27 2.27 0 0 1 .885-.885c.402-.176.834-.27 1.273-.277a2.449 2.449 0 0 1 1.826 1c.28.47.433 1.004.443 1.55a19.4 19.4 0 0 0 .719 3.653l.006-.024Z"/><path fill="url(#p)" d="M5.479 8.689A16.41 16.41 0 0 0 6.586 11.4a2.7 2.7 0 0 0 .775 1l.221.111c.553.111.83-.332 1.052-.719.272-.646.494-1.312.666-1.992.044-.127.081-.256.111-.387.055-.221.111-.5.166-.719l2.435-6.475a5.486 5.486 0 0 1 1.937-1.6 5.07 5.07 0 0 1 2.38-.609 5.5 5.5 0 0 1 3.321 1.162 9.67 9.67 0 0 1 2.546 3.6c.126.32.201.657.221 1-.001.32-.057.64-.166.941a8.996 8.996 0 0 1-.5.775 2.32 2.32 0 0 1-.775.5c-.3.113-.62.17-.941.166a2.171 2.171 0 0 1-1-.221 3.224 3.224 0 0 1-.83-.609.053.053 0 0 0-.016-.04.053.053 0 0 0-.039-.015 4.135 4.135 0 0 1-.387-.664 6.049 6.049 0 0 0-.443-.83c-.111-.111-.166-.277-.277-.387a.646.646 0 0 0-.332-.332.7.7 0 0 0-.719-.111l-.055-.055a1.7 1.7 0 0 0-.553.83c-.335.829-.612 1.68-.83 2.546l-.111.5-1 3.265-1.384 3.1a5.345 5.345 0 0 1-1.937 1.55 5.773 5.773 0 0 1-2.38.553 5.908 5.908 0 0 1-5.036-3.044A23.534 23.534 0 0 1 .05 5.39a1.532 1.532 0 0 1-.055-.5 2.37 2.37 0 0 1 .332-1.218 2.27 2.27 0 0 1 .885-.885c.402-.176.834-.27 1.273-.277a2.449 2.449 0 0 1 1.826 1c.28.47.433 1.004.443 1.55a19.4 19.4 0 0 0 .719 3.653l.006-.024Z"/><path fill="url(#q)" d="M5.479 8.689A16.41 16.41 0 0 0 6.586 11.4a2.7 2.7 0 0 0 .775 1l.221.111c.553.111.83-.332 1.052-.719.272-.646.494-1.312.666-1.992.044-.127.081-.256.111-.387.055-.221.111-.5.166-.719l2.435-6.475a5.486 5.486 0 0 1 1.937-1.6 5.07 5.07 0 0 1 2.38-.609 5.5 5.5 0 0 1 3.321 1.162 9.67 9.67 0 0 1 2.546 3.6c.126.32.201.657.221 1-.001.32-.057.64-.166.941a8.996 8.996 0 0 1-.5.775 2.32 2.32 0 0 1-.775.5c-.3.113-.62.17-.941.166a2.171 2.171 0 0 1-1-.221 3.224 3.224 0 0 1-.83-.609.053.053 0 0 0-.016-.04.053.053 0 0 0-.039-.015 4.135 4.135 0 0 1-.387-.664 6.049 6.049 0 0 0-.443-.83c-.111-.111-.166-.277-.277-.387a.646.646 0 0 0-.332-.332.7.7 0 0 0-.719-.111l-.055-.055a1.7 1.7 0 0 0-.553.83c-.335.829-.612 1.68-.83 2.546l-.111.5-1 3.265-1.384 3.1a5.345 5.345 0 0 1-1.937 1.55 5.773 5.773 0 0 1-2.38.553 5.908 5.908 0 0 1-5.036-3.044A23.534 23.534 0 0 1 .05 5.39a1.532 1.532 0 0 1-.055-.5 2.37 2.37 0 0 1 .332-1.218 2.27 2.27 0 0 1 .885-.885c.402-.176.834-.27 1.273-.277a2.449 2.449 0 0 1 1.826 1c.28.47.433 1.004.443 1.55a19.4 19.4 0 0 0 .719 3.653l.006-.024Z"/><path fill="url(#r)" d="M5.479 8.689A16.41 16.41 0 0 0 6.586 11.4a2.7 2.7 0 0 0 .775 1l.221.111c.553.111.83-.332 1.052-.719.272-.646.494-1.312.666-1.992.044-.127.081-.256.111-.387.055-.221.111-.5.166-.719l2.435-6.475a5.486 5.486 0 0 1 1.937-1.6 5.07 5.07 0 0 1 2.38-.609 5.5 5.5 0 0 1 3.321 1.162 9.67 9.67 0 0 1 2.546 3.6c.126.32.201.657.221 1-.001.32-.057.64-.166.941a8.996 8.996 0 0 1-.5.775 2.32 2.32 0 0 1-.775.5c-.3.113-.62.17-.941.166a2.171 2.171 0 0 1-1-.221 3.224 3.224 0 0 1-.83-.609.053.053 0 0 0-.016-.04.053.053 0 0 0-.039-.015 4.135 4.135 0 0 1-.387-.664 6.049 6.049 0 0 0-.443-.83c-.111-.111-.166-.277-.277-.387a.646.646 0 0 0-.332-.332.7.7 0 0 0-.719-.111l-.055-.055a1.7 1.7 0 0 0-.553.83c-.335.829-.612 1.68-.83 2.546l-.111.5-1 3.265-1.384 3.1a5.345 5.345 0 0 1-1.937 1.55 5.773 5.773 0 0 1-2.38.553 5.908 5.908 0 0 1-5.036-3.044A23.534 23.534 0 0 1 .05 5.39a1.532 1.532 0 0 1-.055-.5 2.37 2.37 0 0 1 .332-1.218 2.27 2.27 0 0 1 .885-.885c.402-.176.834-.27 1.273-.277a2.449 2.449 0 0 1 1.826 1c.28.47.433 1.004.443 1.55a19.4 19.4 0 0 0 .719 3.653l.006-.024Z"/><path fill="url(#s)" d="M5.479 8.689A16.41 16.41 0 0 0 6.586 11.4a2.7 2.7 0 0 0 .775 1l.221.111c.553.111.83-.332 1.052-.719.272-.646.494-1.312.666-1.992.044-.127.081-.256.111-.387.055-.221.111-.5.166-.719l2.435-6.475a5.486 5.486 0 0 1 1.937-1.6 5.07 5.07 0 0 1 2.38-.609 5.5 5.5 0 0 1 3.321 1.162 9.67 9.67 0 0 1 2.546 3.6c.126.32.201.657.221 1-.001.32-.057.64-.166.941a8.996 8.996 0 0 1-.5.775 2.32 2.32 0 0 1-.775.5c-.3.113-.62.17-.941.166a2.171 2.171 0 0 1-1-.221 3.224 3.224 0 0 1-.83-.609.053.053 0 0 0-.016-.04.053.053 0 0 0-.039-.015 4.135 4.135 0 0 1-.387-.664 6.049 6.049 0 0 0-.443-.83c-.111-.111-.166-.277-.277-.387a.646.646 0 0 0-.332-.332.7.7 0 0 0-.719-.111l-.055-.055a1.7 1.7 0 0 0-.553.83c-.335.829-.612 1.68-.83 2.546l-.111.5-1 3.265-1.384 3.1a5.345 5.345 0 0 1-1.937 1.55 5.773 5.773 0 0 1-2.38.553 5.908 5.908 0 0 1-5.036-3.044A23.534 23.534 0 0 1 .05 5.39a1.532 1.532 0 0 1-.055-.5 2.37 2.37 0 0 1 .332-1.218 2.27 2.27 0 0 1 .885-.885c.402-.176.834-.27 1.273-.277a2.449 2.449 0 0 1 1.826 1c.28.47.433 1.004.443 1.55a19.4 19.4 0 0 0 .719 3.653l.006-.024Z"/><path fill="url(#t)" d="M5.479 8.689A16.41 16.41 0 0 0 6.586 11.4a2.7 2.7 0 0 0 .775 1l.221.111c.553.111.83-.332 1.052-.719.272-.646.494-1.312.666-1.992.044-.127.081-.256.111-.387.055-.221.111-.5.166-.719l2.435-6.475a5.486 5.486 0 0 1 1.937-1.6 5.07 5.07 0 0 1 2.38-.609 5.5 5.5 0 0 1 3.321 1.162 9.67 9.67 0 0 1 2.546 3.6c.126.32.201.657.221 1-.001.32-.057.64-.166.941a8.996 8.996 0 0 1-.5.775 2.32 2.32 0 0 1-.775.5c-.3.113-.62.17-.941.166a2.171 2.171 0 0 1-1-.221 3.224 3.224 0 0 1-.83-.609.053.053 0 0 0-.016-.04.053.053 0 0 0-.039-.015 4.135 4.135 0 0 1-.387-.664 6.049 6.049 0 0 0-.443-.83c-.111-.111-.166-.277-.277-.387a.646.646 0 0 0-.332-.332.7.7 0 0 0-.719-.111l-.055-.055a1.7 1.7 0 0 0-.553.83c-.335.829-.612 1.68-.83 2.546l-.111.5-1 3.265-1.384 3.1a5.345 5.345 0 0 1-1.937 1.55 5.773 5.773 0 0 1-2.38.553 5.908 5.908 0 0 1-5.036-3.044A23.534 23.534 0 0 1 .05 5.39a1.532 1.532 0 0 1-.055-.5 2.37 2.37 0 0 1 .332-1.218 2.27 2.27 0 0 1 .885-.885c.402-.176.834-.27 1.273-.277a2.449 2.449 0 0 1 1.826 1c.28.47.433 1.004.443 1.55a19.4 19.4 0 0 0 .719 3.653l.006-.024Z"/><path fill="url(#u)" d="m10.46 6.254 1.55-4.1a5.485 5.485 0 0 1 1.937-1.6 6.248 6.248 0 0 1 2.435-.553 5.5 5.5 0 0 1 3.321 1.162 9.67 9.67 0 0 1 2.546 3.6c.126.32.2.657.221 1-.001.32-.057.64-.166.941a8.996 8.996 0 0 1-.5.775 2.322 2.322 0 0 1-.775.5c-.3.113-.62.17-.941.166a2.17 2.17 0 0 1-1-.221 3.223 3.223 0 0 1-.83-.609.055.055 0 0 0-.016-.04.055.055 0 0 0-.039-.015 4.12 4.12 0 0 1-.387-.664 6.048 6.048 0 0 0-.443-.83c-.111-.111-.166-.277-.277-.387a.646.646 0 0 0-.332-.332.7.7 0 0 0-.719-.111l-.111-.055a1.7 1.7 0 0 0-.553.83c-.335.829-.612 1.68-.83 2.546l-.111.5-1 3.265-2.98-5.768Z"/><path fill="url(#v)" d="M21.644 2.598c-.166 0-.387.055-.553.055.444.64.815 1.326 1.107 2.048.126.32.2.657.221 1-.001.32-.057.64-.166.941a8.996 8.996 0 0 1-.5.775 1.7 1.7 0 0 1-.775.5c-.3.113-.62.17-.941.166a2.37 2.37 0 0 1-1.218-.332l-.221.941a9.169 9.169 0 0 1-.775 2.048c-.181.398-.384.786-.609 1.162-.167.24-.397.432-.664.553a2.41 2.41 0 0 0-.277.055.786.786 0 0 1-.334-.112 2.165 2.165 0 0 1-.443-.553 9.051 9.051 0 0 1-.332-.719 17.4 17.4 0 0 1-.553-1.771l-.332-1.328-.335-1.329-.221-.885a9.975 9.975 0 0 0-1.494-3.431 5.492 5.492 0 0 0-2.767-2.1A6.136 6.136 0 0 0 6.806.061a6.052 6.052 0 0 0-3.763 2.6c.23.069.453.161.664.277.258.158.484.365.664.609.28.47.433 1.004.443 1.55.109 1.181.331 2.349.664 3.487a12.04 12.04 0 0 1 1.6-3.542l.332-.332a.333.333 0 0 1 .221-.055.8.8 0 0 1 .387.111.054.054 0 0 1 .055.055l.332.332.5 1c.277.775.5 1.716.5 1.716l.664 2.712c.23.949.545 1.875.941 2.767a5.628 5.628 0 0 0 5.2 3.763 5.2 5.2 0 0 0 2.435-.5 7.217 7.217 0 0 0 2.158-1.716c.346-.496.66-1.014.941-1.55a20.321 20.321 0 0 0 1.5-3.992c.243-.853.427-1.722.553-2.6.055-.443.111-.83.166-1.273.065-.405.046-.82-.055-1.218-.055-.055-.055-.111-.055-.221a2.5 2.5 0 0 0-1.052-1.218 3.939 3.939 0 0 0-1.157-.225Z"/><path fill="url(#w)" d="M21.644 2.598c-.166 0-.387.055-.553.055.444.64.815 1.326 1.107 2.048.126.32.2.657.221 1-.001.32-.057.64-.166.941a8.996 8.996 0 0 1-.5.775 1.7 1.7 0 0 1-.775.5c-.3.113-.62.17-.941.166a2.37 2.37 0 0 1-1.218-.332l-.221.941a9.169 9.169 0 0 1-.775 2.048c-.181.398-.384.786-.609 1.162-.167.24-.397.432-.664.553a2.41 2.41 0 0 0-.277.055.786.786 0 0 1-.334-.112 2.165 2.165 0 0 1-.443-.553 9.051 9.051 0 0 1-.332-.719 17.4 17.4 0 0 1-.553-1.771l-.332-1.328-.335-1.329-.221-.885a9.975 9.975 0 0 0-1.494-3.431 5.492 5.492 0 0 0-2.767-2.1A6.136 6.136 0 0 0 6.806.061a6.052 6.052 0 0 0-3.763 2.6c.23.069.453.161.664.277.258.158.484.365.664.609.28.47.433 1.004.443 1.55.109 1.181.331 2.349.664 3.487a12.04 12.04 0 0 1 1.6-3.542l.332-.332a.333.333 0 0 1 .221-.055.8.8 0 0 1 .387.111.054.054 0 0 1 .055.055l.332.332.5 1c.277.775.5 1.716.5 1.716l.664 2.712c.23.949.545 1.875.941 2.767a5.628 5.628 0 0 0 5.2 3.763 5.2 5.2 0 0 0 2.435-.5 7.217 7.217 0 0 0 2.158-1.716c.346-.496.66-1.014.941-1.55a20.321 20.321 0 0 0 1.5-3.992c.243-.853.427-1.722.553-2.6.055-.443.111-.83.166-1.273.065-.405.046-.82-.055-1.218-.055-.055-.055-.111-.055-.221a2.5 2.5 0 0 0-1.052-1.218 3.939 3.939 0 0 0-1.157-.225Z"/><path fill="url(#x)" d="M21.644 2.598c-.166 0-.387.055-.553.055.444.64.815 1.326 1.107 2.048.126.32.2.657.221 1-.001.32-.057.64-.166.941a8.996 8.996 0 0 1-.5.775 1.7 1.7 0 0 1-.775.5c-.3.113-.62.17-.941.166a2.37 2.37 0 0 1-1.218-.332l-.221.941a9.169 9.169 0 0 1-.775 2.048c-.181.398-.384.786-.609 1.162-.167.24-.397.432-.664.553a2.41 2.41 0 0 0-.277.055.786.786 0 0 1-.334-.112 2.165 2.165 0 0 1-.443-.553 9.051 9.051 0 0 1-.332-.719 17.4 17.4 0 0 1-.553-1.771l-.332-1.328-.335-1.329-.221-.885a9.975 9.975 0 0 0-1.494-3.431 5.492 5.492 0 0 0-2.767-2.1A6.136 6.136 0 0 0 6.806.061a6.052 6.052 0 0 0-3.763 2.6c.23.069.453.161.664.277.258.158.484.365.664.609.28.47.433 1.004.443 1.55.109 1.181.331 2.349.664 3.487a12.04 12.04 0 0 1 1.6-3.542l.332-.332a.333.333 0 0 1 .221-.055.8.8 0 0 1 .387.111.054.054 0 0 1 .055.055l.332.332.5 1c.277.775.5 1.716.5 1.716l.664 2.712c.23.949.545 1.875.941 2.767a5.628 5.628 0 0 0 5.2 3.763 5.2 5.2 0 0 0 2.435-.5 7.217 7.217 0 0 0 2.158-1.716c.346-.496.66-1.014.941-1.55a20.321 20.321 0 0 0 1.5-3.992c.243-.853.427-1.722.553-2.6.055-.443.111-.83.166-1.273.065-.405.046-.82-.055-1.218-.055-.055-.055-.111-.055-.221a2.5 2.5 0 0 0-1.052-1.218 3.939 3.939 0 0 0-1.157-.225Z"/><path fill="url(#y)" d="M21.644 2.598c-.166 0-.387.055-.553.055.444.64.815 1.326 1.107 2.048.126.32.2.657.221 1-.001.32-.057.64-.166.941a8.996 8.996 0 0 1-.5.775 1.7 1.7 0 0 1-.775.5c-.3.113-.62.17-.941.166a2.37 2.37 0 0 1-1.218-.332l-.221.941a9.169 9.169 0 0 1-.775 2.048c-.181.398-.384.786-.609 1.162-.167.24-.397.432-.664.553a2.41 2.41 0 0 0-.277.055.786.786 0 0 1-.334-.112 2.165 2.165 0 0 1-.443-.553 9.051 9.051 0 0 1-.332-.719 17.4 17.4 0 0 1-.553-1.771l-.332-1.328-.335-1.329-.221-.885a9.975 9.975 0 0 0-1.494-3.431 5.492 5.492 0 0 0-2.767-2.1A6.136 6.136 0 0 0 6.806.061a6.052 6.052 0 0 0-3.763 2.6c.23.069.453.161.664.277.258.158.484.365.664.609.28.47.433 1.004.443 1.55.109 1.181.331 2.349.664 3.487a12.04 12.04 0 0 1 1.6-3.542l.332-.332a.333.333 0 0 1 .221-.055.8.8 0 0 1 .387.111.054.054 0 0 1 .055.055l.332.332.5 1c.277.775.5 1.716.5 1.716l.664 2.712c.23.949.545 1.875.941 2.767a5.628 5.628 0 0 0 5.2 3.763 5.2 5.2 0 0 0 2.435-.5 7.217 7.217 0 0 0 2.158-1.716c.346-.496.66-1.014.941-1.55a20.321 20.321 0 0 0 1.5-3.992c.243-.853.427-1.722.553-2.6.055-.443.111-.83.166-1.273.065-.405.046-.82-.055-1.218-.055-.055-.055-.111-.055-.221a2.5 2.5 0 0 0-1.052-1.218 3.939 3.939 0 0 0-1.157-.225Z"/><path fill="url(#z)" d="M21.644 2.598c-.166 0-.387.055-.553.055.444.64.815 1.326 1.107 2.048.126.32.2.657.221 1-.001.32-.057.64-.166.941a8.996 8.996 0 0 1-.5.775 1.7 1.7 0 0 1-.775.5c-.3.113-.62.17-.941.166a2.37 2.37 0 0 1-1.218-.332l-.221.941a9.169 9.169 0 0 1-.775 2.048c-.181.398-.384.786-.609 1.162-.167.24-.397.432-.664.553a2.41 2.41 0 0 0-.277.055.786.786 0 0 1-.334-.112 2.165 2.165 0 0 1-.443-.553 9.051 9.051 0 0 1-.332-.719 17.4 17.4 0 0 1-.553-1.771l-.332-1.328-.335-1.329-.221-.885a9.975 9.975 0 0 0-1.494-3.431 5.492 5.492 0 0 0-2.767-2.1A6.136 6.136 0 0 0 6.806.061a6.052 6.052 0 0 0-3.763 2.6c.23.069.453.161.664.277.258.158.484.365.664.609.28.47.433 1.004.443 1.55.109 1.181.331 2.349.664 3.487a12.04 12.04 0 0 1 1.6-3.542l.332-.332a.333.333 0 0 1 .221-.055.8.8 0 0 1 .387.111.054.054 0 0 1 .055.055l.332.332.5 1c.277.775.5 1.716.5 1.716l.664 2.712c.23.949.545 1.875.941 2.767a5.628 5.628 0 0 0 5.2 3.763 5.2 5.2 0 0 0 2.435-.5 7.217 7.217 0 0 0 2.158-1.716c.346-.496.66-1.014.941-1.55a20.321 20.321 0 0 0 1.5-3.992c.243-.853.427-1.722.553-2.6.055-.443.111-.83.166-1.273.065-.405.046-.82-.055-1.218-.055-.055-.055-.111-.055-.221a2.5 2.5 0 0 0-1.052-1.218 3.939 3.939 0 0 0-1.157-.225Z"/><path fill="url(#A)" d="M21.644 2.598c-.166 0-.387.055-.553.055.444.64.815 1.326 1.107 2.048.126.32.2.657.221 1-.001.32-.057.64-.166.941a8.996 8.996 0 0 1-.5.775 1.7 1.7 0 0 1-.775.5c-.3.113-.62.17-.941.166a2.37 2.37 0 0 1-1.218-.332l-.221.941a9.169 9.169 0 0 1-.775 2.048c-.181.398-.384.786-.609 1.162-.167.24-.397.432-.664.553a2.41 2.41 0 0 0-.277.055.786.786 0 0 1-.334-.112 2.165 2.165 0 0 1-.443-.553 9.051 9.051 0 0 1-.332-.719 17.4 17.4 0 0 1-.553-1.771l-.332-1.328-.335-1.329-.221-.885a9.975 9.975 0 0 0-1.494-3.431 5.492 5.492 0 0 0-2.767-2.1A6.136 6.136 0 0 0 6.806.061a6.052 6.052 0 0 0-3.763 2.6c.23.069.453.161.664.277.258.158.484.365.664.609.28.47.433 1.004.443 1.55.109 1.181.331 2.349.664 3.487a12.04 12.04 0 0 1 1.6-3.542l.332-.332a.333.333 0 0 1 .221-.055.8.8 0 0 1 .387.111.054.054 0 0 1 .055.055l.332.332.5 1c.277.775.5 1.716.5 1.716l.664 2.712c.23.949.545 1.875.941 2.767a5.628 5.628 0 0 0 5.2 3.763 5.2 5.2 0 0 0 2.435-.5 7.217 7.217 0 0 0 2.158-1.716c.346-.496.66-1.014.941-1.55a20.321 20.321 0 0 0 1.5-3.992c.243-.853.427-1.722.553-2.6.055-.443.111-.83.166-1.273.065-.405.046-.82-.055-1.218-.055-.055-.055-.111-.055-.221a2.5 2.5 0 0 0-1.052-1.218 3.939 3.939 0 0 0-1.157-.225Z"/><path fill="url(#B)" d="M21.644 2.598c-.166 0-.387.055-.553.055.444.64.815 1.326 1.107 2.048.126.32.2.657.221 1-.001.32-.057.64-.166.941a8.996 8.996 0 0 1-.5.775 1.7 1.7 0 0 1-.775.5c-.3.113-.62.17-.941.166a2.37 2.37 0 0 1-1.218-.332l-.221.941a9.169 9.169 0 0 1-.775 2.048c-.181.398-.384.786-.609 1.162-.167.24-.397.432-.664.553a2.41 2.41 0 0 0-.277.055.786.786 0 0 1-.334-.112 2.165 2.165 0 0 1-.443-.553 9.051 9.051 0 0 1-.332-.719 17.4 17.4 0 0 1-.553-1.771l-.332-1.328-.335-1.329-.221-.885a9.975 9.975 0 0 0-1.494-3.431 5.492 5.492 0 0 0-2.767-2.1A6.136 6.136 0 0 0 6.806.061a6.052 6.052 0 0 0-3.763 2.6c.23.069.453.161.664.277.258.158.484.365.664.609.28.47.433 1.004.443 1.55.109 1.181.331 2.349.664 3.487a12.04 12.04 0 0 1 1.6-3.542l.332-.332a.333.333 0 0 1 .221-.055.8.8 0 0 1 .387.111.054.054 0 0 1 .055.055l.332.332.5 1c.277.775.5 1.716.5 1.716l.664 2.712c.23.949.545 1.875.941 2.767a5.628 5.628 0 0 0 5.2 3.763 5.2 5.2 0 0 0 2.435-.5 7.217 7.217 0 0 0 2.158-1.716c.346-.496.66-1.014.941-1.55a20.321 20.321 0 0 0 1.5-3.992c.243-.853.427-1.722.553-2.6.055-.443.111-.83.166-1.273.065-.405.046-.82-.055-1.218-.055-.055-.055-.111-.055-.221a2.5 2.5 0 0 0-1.052-1.218 3.939 3.939 0 0 0-1.157-.225Z"/><path fill="url(#C)" d="M21.644 2.598c-.166 0-.387.055-.553.055.444.64.815 1.326 1.107 2.048.126.32.2.657.221 1-.001.32-.057.64-.166.941a8.996 8.996 0 0 1-.5.775 1.7 1.7 0 0 1-.775.5c-.3.113-.62.17-.941.166a2.37 2.37 0 0 1-1.218-.332l-.221.941a9.169 9.169 0 0 1-.775 2.048c-.181.398-.384.786-.609 1.162-.167.24-.397.432-.664.553a2.41 2.41 0 0 0-.277.055.786.786 0 0 1-.334-.112 2.165 2.165 0 0 1-.443-.553 9.051 9.051 0 0 1-.332-.719 17.4 17.4 0 0 1-.553-1.771l-.332-1.328-.335-1.329-.221-.885a9.975 9.975 0 0 0-1.494-3.431 5.492 5.492 0 0 0-2.767-2.1A6.136 6.136 0 0 0 6.806.061a6.052 6.052 0 0 0-3.763 2.6c.23.069.453.161.664.277.258.158.484.365.664.609.28.47.433 1.004.443 1.55.109 1.181.331 2.349.664 3.487a12.04 12.04 0 0 1 1.6-3.542l.332-.332a.333.333 0 0 1 .221-.055.8.8 0 0 1 .387.111.054.054 0 0 1 .055.055l.332.332.5 1c.277.775.5 1.716.5 1.716l.664 2.712c.23.949.545 1.875.941 2.767a5.628 5.628 0 0 0 5.2 3.763 5.2 5.2 0 0 0 2.435-.5 7.217 7.217 0 0 0 2.158-1.716c.346-.496.66-1.014.941-1.55a20.321 20.321 0 0 0 1.5-3.992c.243-.853.427-1.722.553-2.6.055-.443.111-.83.166-1.273.065-.405.046-.82-.055-1.218-.055-.055-.055-.111-.055-.221a2.5 2.5 0 0 0-1.052-1.218 3.939 3.939 0 0 0-1.157-.225Z"/><path fill="url(#D)" d="M21.644 2.598c-.166 0-.387.055-.553.055.444.64.815 1.326 1.107 2.048.126.32.2.657.221 1-.001.32-.057.64-.166.941a8.996 8.996 0 0 1-.5.775 1.7 1.7 0 0 1-.775.5c-.3.113-.62.17-.941.166a2.37 2.37 0 0 1-1.218-.332l-.221.941a9.169 9.169 0 0 1-.775 2.048c-.181.398-.384.786-.609 1.162-.167.24-.397.432-.664.553a2.41 2.41 0 0 0-.277.055.786.786 0 0 1-.334-.112 2.165 2.165 0 0 1-.443-.553 9.051 9.051 0 0 1-.332-.719 17.4 17.4 0 0 1-.553-1.771l-.332-1.328-.335-1.329-.221-.885a9.975 9.975 0 0 0-1.494-3.431 5.492 5.492 0 0 0-2.767-2.1A6.136 6.136 0 0 0 6.806.061a6.052 6.052 0 0 0-3.763 2.6c.23.069.453.161.664.277.258.158.484.365.664.609.28.47.433 1.004.443 1.55.109 1.181.331 2.349.664 3.487a12.04 12.04 0 0 1 1.6-3.542l.332-.332a.333.333 0 0 1 .221-.055.8.8 0 0 1 .387.111.054.054 0 0 1 .055.055l.332.332.5 1c.277.775.5 1.716.5 1.716l.664 2.712c.23.949.545 1.875.941 2.767a5.628 5.628 0 0 0 5.2 3.763 5.2 5.2 0 0 0 2.435-.5 7.217 7.217 0 0 0 2.158-1.716c.346-.496.66-1.014.941-1.55a20.321 20.321 0 0 0 1.5-3.992c.243-.853.427-1.722.553-2.6.055-.443.111-.83.166-1.273.065-.405.046-.82-.055-1.218-.055-.055-.055-.111-.055-.221a2.5 2.5 0 0 0-1.052-1.218 3.939 3.939 0 0 0-1.157-.225Z"/><path fill="url(#E)" d="M21.644 2.598c-.166 0-.387.055-.553.055.444.64.815 1.326 1.107 2.048.126.32.2.657.221 1-.001.32-.057.64-.166.941a8.996 8.996 0 0 1-.5.775 1.7 1.7 0 0 1-.775.5c-.3.113-.62.17-.941.166a2.37 2.37 0 0 1-1.218-.332l-.221.941a9.169 9.169 0 0 1-.775 2.048c-.181.398-.384.786-.609 1.162-.167.24-.397.432-.664.553a2.41 2.41 0 0 0-.277.055.786.786 0 0 1-.334-.112 2.165 2.165 0 0 1-.443-.553 9.051 9.051 0 0 1-.332-.719 17.4 17.4 0 0 1-.553-1.771l-.332-1.328-.335-1.329-.221-.885a9.975 9.975 0 0 0-1.494-3.431 5.492 5.492 0 0 0-2.767-2.1A6.136 6.136 0 0 0 6.806.061a6.052 6.052 0 0 0-3.763 2.6c.23.069.453.161.664.277.258.158.484.365.664.609.28.47.433 1.004.443 1.55.109 1.181.331 2.349.664 3.487a12.04 12.04 0 0 1 1.6-3.542l.332-.332a.333.333 0 0 1 .221-.055.8.8 0 0 1 .387.111.054.054 0 0 1 .055.055l.332.332.5 1c.277.775.5 1.716.5 1.716l.664 2.712c.23.949.545 1.875.941 2.767a5.628 5.628 0 0 0 5.2 3.763 5.2 5.2 0 0 0 2.435-.5 7.217 7.217 0 0 0 2.158-1.716c.346-.496.66-1.014.941-1.55a20.321 20.321 0 0 0 1.5-3.992c.243-.853.427-1.722.553-2.6.055-.443.111-.83.166-1.273.065-.405.046-.82-.055-1.218-.055-.055-.055-.111-.055-.221a2.5 2.5 0 0 0-1.052-1.218 3.939 3.939 0 0 0-1.157-.225Z"/><path fill="url(#F)" d="M21.644 2.598c-.166 0-.387.055-.553.055.444.64.815 1.326 1.107 2.048.126.32.2.657.221 1-.001.32-.057.64-.166.941a8.996 8.996 0 0 1-.5.775 1.7 1.7 0 0 1-.775.5c-.3.113-.62.17-.941.166a2.37 2.37 0 0 1-1.218-.332l-.221.941a9.169 9.169 0 0 1-.775 2.048c-.181.398-.384.786-.609 1.162-.167.24-.397.432-.664.553a2.41 2.41 0 0 0-.277.055.786.786 0 0 1-.334-.112 2.165 2.165 0 0 1-.443-.553 9.051 9.051 0 0 1-.332-.719 17.4 17.4 0 0 1-.553-1.771l-.332-1.328-.335-1.329-.221-.885a9.975 9.975 0 0 0-1.494-3.431 5.492 5.492 0 0 0-2.767-2.1A6.136 6.136 0 0 0 6.806.061a6.052 6.052 0 0 0-3.763 2.6c.23.069.453.161.664.277.258.158.484.365.664.609.28.47.433 1.004.443 1.55.109 1.181.331 2.349.664 3.487a12.04 12.04 0 0 1 1.6-3.542l.332-.332a.333.333 0 0 1 .221-.055.8.8 0 0 1 .387.111.054.054 0 0 1 .055.055l.332.332.5 1c.277.775.5 1.716.5 1.716l.664 2.712c.23.949.545 1.875.941 2.767a5.628 5.628 0 0 0 5.2 3.763 5.2 5.2 0 0 0 2.435-.5 7.217 7.217 0 0 0 2.158-1.716c.346-.496.66-1.014.941-1.55a20.321 20.321 0 0 0 1.5-3.992c.243-.853.427-1.722.553-2.6.055-.443.111-.83.166-1.273.065-.405.046-.82-.055-1.218-.055-.055-.055-.111-.055-.221a2.5 2.5 0 0 0-1.052-1.218 3.939 3.939 0 0 0-1.157-.225Z"/><path fill="url(#G)" d="M21.644 2.598c-.166 0-.387.055-.553.055.444.64.815 1.326 1.107 2.048.126.32.2.657.221 1-.001.32-.057.64-.166.941a8.996 8.996 0 0 1-.5.775 1.7 1.7 0 0 1-.775.5c-.3.113-.62.17-.941.166a2.37 2.37 0 0 1-1.218-.332l-.221.941a9.169 9.169 0 0 1-.775 2.048c-.181.398-.384.786-.609 1.162-.167.24-.397.432-.664.553a2.41 2.41 0 0 0-.277.055.786.786 0 0 1-.334-.112 2.165 2.165 0 0 1-.443-.553 9.051 9.051 0 0 1-.332-.719 17.4 17.4 0 0 1-.553-1.771l-.332-1.328-.335-1.329-.221-.885a9.975 9.975 0 0 0-1.494-3.431 5.492 5.492 0 0 0-2.767-2.1A6.136 6.136 0 0 0 6.806.061a6.052 6.052 0 0 0-3.763 2.6c.23.069.453.161.664.277.258.158.484.365.664.609.28.47.433 1.004.443 1.55.109 1.181.331 2.349.664 3.487a12.04 12.04 0 0 1 1.6-3.542l.332-.332a.333.333 0 0 1 .221-.055.8.8 0 0 1 .387.111.054.054 0 0 1 .055.055l.332.332.5 1c.277.775.5 1.716.5 1.716l.664 2.712c.23.949.545 1.875.941 2.767a5.628 5.628 0 0 0 5.2 3.763 5.2 5.2 0 0 0 2.435-.5 7.217 7.217 0 0 0 2.158-1.716c.346-.496.66-1.014.941-1.55a20.321 20.321 0 0 0 1.5-3.992c.243-.853.427-1.722.553-2.6.055-.443.111-.83.166-1.273.065-.405.046-.82-.055-1.218-.055-.055-.055-.111-.055-.221a2.5 2.5 0 0 0-1.052-1.218 3.939 3.939 0 0 0-1.157-.225Z"/><path fill="url(#H)" d="M21.644 2.598c-.166 0-.387.055-.553.055.444.64.815 1.326 1.107 2.048.126.32.2.657.221 1-.001.32-.057.64-.166.941a8.996 8.996 0 0 1-.5.775 1.7 1.7 0 0 1-.775.5c-.3.113-.62.17-.941.166a2.37 2.37 0 0 1-1.218-.332l-.221.941a9.169 9.169 0 0 1-.775 2.048c-.181.398-.384.786-.609 1.162-.167.24-.397.432-.664.553a2.41 2.41 0 0 0-.277.055.786.786 0 0 1-.334-.112 2.165 2.165 0 0 1-.443-.553 9.051 9.051 0 0 1-.332-.719 17.4 17.4 0 0 1-.553-1.771l-.332-1.328-.335-1.329-.221-.885a9.975 9.975 0 0 0-1.494-3.431 5.492 5.492 0 0 0-2.767-2.1A6.136 6.136 0 0 0 6.806.061a6.052 6.052 0 0 0-3.763 2.6c.23.069.453.161.664.277.258.158.484.365.664.609.28.47.433 1.004.443 1.55.109 1.181.331 2.349.664 3.487a12.04 12.04 0 0 1 1.6-3.542l.332-.332a.333.333 0 0 1 .221-.055.8.8 0 0 1 .387.111.054.054 0 0 1 .055.055l.332.332.5 1c.277.775.5 1.716.5 1.716l.664 2.712c.23.949.545 1.875.941 2.767a5.628 5.628 0 0 0 5.2 3.763 5.2 5.2 0 0 0 2.435-.5 7.217 7.217 0 0 0 2.158-1.716c.346-.496.66-1.014.941-1.55a20.321 20.321 0 0 0 1.5-3.992c.243-.853.427-1.722.553-2.6.055-.443.111-.83.166-1.273.065-.405.046-.82-.055-1.218-.055-.055-.055-.111-.055-.221a2.5 2.5 0 0 0-1.052-1.218 3.939 3.939 0 0 0-1.157-.225Z"/><path fill="url(#I)" d="M21.644 2.598c-.166 0-.387.055-.553.055.444.64.815 1.326 1.107 2.048.126.32.2.657.221 1-.001.32-.057.64-.166.941a8.996 8.996 0 0 1-.5.775 1.7 1.7 0 0 1-.775.5c-.3.113-.62.17-.941.166a2.37 2.37 0 0 1-1.218-.332l-.221.941a9.169 9.169 0 0 1-.775 2.048c-.181.398-.384.786-.609 1.162-.167.24-.397.432-.664.553a2.41 2.41 0 0 0-.277.055.786.786 0 0 1-.334-.112 2.165 2.165 0 0 1-.443-.553 9.051 9.051 0 0 1-.332-.719 17.4 17.4 0 0 1-.553-1.771l-.332-1.328-.335-1.329-.221-.885a9.975 9.975 0 0 0-1.494-3.431 5.492 5.492 0 0 0-2.767-2.1A6.136 6.136 0 0 0 6.806.061a6.052 6.052 0 0 0-3.763 2.6c.23.069.453.161.664.277.258.158.484.365.664.609.28.47.433 1.004.443 1.55.109 1.181.331 2.349.664 3.487a12.04 12.04 0 0 1 1.6-3.542l.332-.332a.333.333 0 0 1 .221-.055.8.8 0 0 1 .387.111.054.054 0 0 1 .055.055l.332.332.5 1c.277.775.5 1.716.5 1.716l.664 2.712c.23.949.545 1.875.941 2.767a5.628 5.628 0 0 0 5.2 3.763 5.2 5.2 0 0 0 2.435-.5 7.217 7.217 0 0 0 2.158-1.716c.346-.496.66-1.014.941-1.55a20.321 20.321 0 0 0 1.5-3.992c.243-.853.427-1.722.553-2.6.055-.443.111-.83.166-1.273.065-.405.046-.82-.055-1.218-.055-.055-.055-.111-.055-.221a2.5 2.5 0 0 0-1.052-1.218 3.939 3.939 0 0 0-1.157-.225Z"/><defs><radialGradient id="b" cx="0" cy="0" r="1" gradientTransform="rotate(77.869 -5.066 2.411) scale(11.5299 5.3274)" gradientUnits="userSpaceOnUse"><stop stop-color="#227B60"/><stop offset=".14" stop-color="#227B60" stop-opacity=".812"/><stop offset=".58" stop-color="#227B60" stop-opacity=".231"/><stop offset=".78" stop-color="#227B60" stop-opacity="0"/></radialGradient><radialGradient id="c" cx="0" cy="0" r="1" gradientTransform="rotate(90.859 -14.338 3.496) scale(7.91668 3.55173)" gradientUnits="userSpaceOnUse"><stop stop-color="#227B60"/><stop offset=".25" stop-color="#227B60" stop-opacity=".702"/><stop offset=".71" stop-color="#227B60" stop-opacity=".2"/><stop offset=".92" stop-color="#227B60" stop-opacity="0"/></radialGradient><radialGradient id="d" cx="0" cy="0" r="1" gradientTransform="matrix(.14018 7.3776 -3.08906 .0587 -10.967 16.645)" gradientUnits="userSpaceOnUse"><stop stop-color="#227B60"/><stop offset=".07" stop-color="#227B60" stop-opacity=".902"/><stop offset=".34" stop-color="#227B60" stop-opacity=".51"/><stop offset=".59" stop-color="#227B60" stop-opacity=".231"/><stop offset=".79" stop-color="#227B60" stop-opacity=".059"/><stop offset=".92" stop-color="#227B60" stop-opacity="0"/></radialGradient><radialGradient id="e" cx="0" cy="0" r="1" gradientTransform="rotate(88.911 -14.071 3.03) scale(5.96595 2.49808)" gradientUnits="userSpaceOnUse"><stop stop-color="#227B60"/><stop offset=".36" stop-color="#227B60" stop-opacity=".631"/><stop offset=".92" stop-color="#227B60" stop-opacity="0"/></radialGradient><radialGradient id="f" cx="0" cy="0" r="1" gradientTransform="matrix(.09033 4.75396 -1.79335 .03407 -12.677 16.904)" gradientUnits="userSpaceOnUse"><stop stop-color="#20735A"/><stop offset=".15" stop-color="#20745A" stop-opacity=".929"/><stop offset=".38" stop-color="#21755C" stop-opacity=".741"/><stop offset=".67" stop-color="#21785D" stop-opacity=".431"/><stop offset="1" stop-color="#227B60" stop-opacity="0"/></radialGradient><radialGradient id="g" cx="0" cy="0" r="1" gradientTransform="matrix(5.37563 3.08927 -2.07891 3.61751 10.307 -36.771)" gradientUnits="userSpaceOnUse"><stop stop-color="#227A61"/><stop offset=".36" stop-color="#227A61" stop-opacity=".561"/><stop offset=".72" stop-color="#227A61" stop-opacity=".161"/><stop offset=".9" stop-color="#227A61" stop-opacity="0"/></radialGradient><radialGradient id="h" cx="0" cy="0" r="1" gradientTransform="matrix(6.39732 5.88718 -4.376 4.7552 7.97 -23.88)" gradientUnits="userSpaceOnUse"><stop stop-color="#3CD9C3"/><stop offset=".07" stop-color="#3BD7C1" stop-opacity=".902"/><stop offset=".41" stop-color="#38CEB9" stop-opacity=".42"/><stop offset=".65" stop-color="#36C8B4" stop-opacity=".122"/><stop offset=".76" stop-color="#35C6B2" stop-opacity="0"/></radialGradient><radialGradient id="i" cx="0" cy="0" r="1" gradientTransform="matrix(.34444 0 0 .34448 -177.595 253.599)" gradientUnits="userSpaceOnUse"><stop stop-color="#3CD9C3"/><stop offset=".07" stop-color="#3BD7C1" stop-opacity=".902"/><stop offset=".41" stop-color="#38CEB9" stop-opacity=".42"/><stop offset=".65" stop-color="#36C8B4" stop-opacity=".122"/><stop offset=".76" stop-color="#35C6B2" stop-opacity="0"/></radialGradient><radialGradient id="j" cx="0" cy="0" r="1" gradientTransform="matrix(-1.31286 8.8303 -6.53405 -.97146 -3.416 26.715)" gradientUnits="userSpaceOnUse"><stop stop-color="#237F66" stop-opacity=".8"/><stop offset=".06" stop-color="#2C8C70" stop-opacity=".651"/><stop offset=".21" stop-color="#3DA785" stop-opacity=".369"/><stop offset=".35" stop-color="#4ABA93" stop-opacity=".169"/><stop offset=".47" stop-color="#51C59C" stop-opacity=".039"/><stop offset=".56" stop-color="#54C99F" stop-opacity="0"/></radialGradient><radialGradient id="k" cx="0" cy="0" r="1" gradientTransform="matrix(5.6989 -9.10649 6.93814 4.34193 -34.994 -90.113)" gradientUnits="userSpaceOnUse"><stop stop-color="#167C8A"/><stop offset=".04" stop-color="#167C8A" stop-opacity=".929"/><stop offset=".33" stop-color="#177F8D" stop-opacity=".431"/><stop offset=".54" stop-color="#17818F" stop-opacity=".122"/><stop offset=".65" stop-color="#178290" stop-opacity="0"/></radialGradient><radialGradient id="l" cx="0" cy="0" r="1" gradientTransform="matrix(7.50875 -6.02766 3.99624 4.97818 -15.487 -79.575)" gradientUnits="userSpaceOnUse"><stop offset=".05" stop-color="#177D87"/><stop offset=".11" stop-color="#177E89" stop-opacity=".8"/><stop offset=".21" stop-color="#177F8B" stop-opacity=".522"/><stop offset=".32" stop-color="#17818D" stop-opacity=".29"/><stop offset=".42" stop-color="#17818F" stop-opacity=".129"/><stop offset=".51" stop-color="#178290" stop-opacity=".031"/><stop offset=".6" stop-color="#178290" stop-opacity="0"/></radialGradient><radialGradient id="m" cx="0" cy="0" r="1" gradientTransform="rotate(-123.288 -46.99 -1.499) scale(6.21824 3.49187)" gradientUnits="userSpaceOnUse"><stop offset=".26" stop-color="#177F8A"/><stop offset=".27" stop-color="#177F8A" stop-opacity=".98"/><stop offset=".38" stop-color="#17808C" stop-opacity=".678"/><stop offset=".5" stop-color="#17818D" stop-opacity=".431"/><stop offset=".62" stop-color="#17818F" stop-opacity=".239"/><stop offset=".74" stop-color="#17828F" stop-opacity=".11"/><stop offset=".86" stop-color="#178290" stop-opacity=".031"/><stop offset="1" stop-color="#178290" stop-opacity="0"/></radialGradient><radialGradient id="n" cx="0" cy="0" r="1" gradientTransform="matrix(-4.88699 -.76956 .76261 -4.84285 -67.141 6.258)" gradientUnits="userSpaceOnUse"><stop stop-color="#13656E"/><stop offset=".11" stop-color="#13646E" stop-opacity=".729"/><stop offset=".27" stop-color="#12646E" stop-opacity=".412"/><stop offset=".42" stop-color="#12636E" stop-opacity=".18"/><stop offset=".55" stop-color="#12636E" stop-opacity=".051"/><stop offset=".66" stop-color="#12636E" stop-opacity="0"/></radialGradient><radialGradient id="o" cx="0" cy="0" r="1" gradientTransform="matrix(-1.68629 -3.91082 2.1514 -.92765 -72.032 -48.236)" gradientUnits="userSpaceOnUse"><stop offset=".13" stop-color="#146A73"/><stop offset=".24" stop-color="#156F79" stop-opacity=".788"/><stop offset=".45" stop-color="#167783" stop-opacity=".451"/><stop offset=".65" stop-color="#167D8A" stop-opacity=".2"/><stop offset=".82" stop-color="#17818E" stop-opacity=".051"/><stop offset=".95" stop-color="#178290" stop-opacity="0"/></radialGradient><radialGradient id="p" cx="0" cy="0" r="1" gradientTransform="matrix(1.81278 -3.49488 1.87232 .97117 -36.34 -83.349)" gradientUnits="userSpaceOnUse"><stop stop-color="#198E9C"/><stop offset=".1" stop-color="#198E9C" stop-opacity=".871"/><stop offset=".41" stop-color="#198E9C" stop-opacity=".502"/><stop offset=".67" stop-color="#198E9C" stop-opacity=".231"/><stop offset=".88" stop-color="#198E9C" stop-opacity=".059"/><stop offset="1" stop-color="#198E9C" stop-opacity="0"/></radialGradient><radialGradient id="w" cx="0" cy="0" r="1" gradientTransform="rotate(97.089 -22.826 3.934) scale(13.2005 5.85317)" gradientUnits="userSpaceOnUse"><stop stop-color="#1A3D9C"/><stop offset=".4" stop-color="#1A3D9C" stop-opacity=".42"/><stop offset=".7" stop-color="#1A3D9C" stop-opacity="0"/></radialGradient><radialGradient id="x" cx="0" cy="0" r="1" gradientTransform="matrix(.34203 0 0 .34221 -188.047 253.959)" gradientUnits="userSpaceOnUse"><stop stop-color="#1A3D9C"/><stop offset=".4" stop-color="#1A3D9C" stop-opacity=".42"/><stop offset=".7" stop-color="#1A3D9C" stop-opacity="0"/></radialGradient><radialGradient id="y" cx="0" cy="0" r="1" gradientTransform="matrix(.34203 0 0 .34221 -188.407 254.13)" gradientUnits="userSpaceOnUse"><stop stop-color="#1A3D9C"/><stop offset=".4" stop-color="#1A3D9C" stop-opacity=".42"/><stop offset=".7" stop-color="#1A3D9C" stop-opacity="0"/></radialGradient><radialGradient id="z" cx="0" cy="0" r="1" gradientTransform="matrix(1.13578 11.50849 -5.37221 .53019 -8.748 19.12)" gradientUnits="userSpaceOnUse"><stop stop-color="#1A3D9C"/><stop offset=".16" stop-color="#1A3D9C" stop-opacity=".69"/><stop offset=".33" stop-color="#1A3D9C" stop-opacity=".4"/><stop offset=".49" stop-color="#1A3D9C" stop-opacity=".18"/><stop offset=".61" stop-color="#1A3D9C" stop-opacity=".051"/><stop offset=".7" stop-color="#1A3D9C" stop-opacity="0"/></radialGradient><radialGradient id="A" cx="0" cy="0" r="1" gradientTransform="matrix(2.40377 10.7279 -4.97738 1.11527 -2.672 15.552)" gradientUnits="userSpaceOnUse"><stop stop-color="#18388F"/><stop offset=".37" stop-color="#193B96" stop-opacity=".451"/><stop offset=".7" stop-color="#1A3D9C" stop-opacity="0"/></radialGradient><radialGradient id="B" cx="0" cy="0" r="1" gradientTransform="matrix(1.11814 4.9902 -3.23737 .72539 7.403 10.868)" gradientUnits="userSpaceOnUse"><stop stop-color="#18388F"/><stop offset=".09" stop-color="#183992" stop-opacity=".78"/><stop offset=".22" stop-color="#193B96" stop-opacity=".502"/><stop offset=".35" stop-color="#193C98" stop-opacity=".278"/><stop offset=".47" stop-color="#1A3C9A" stop-opacity=".129"/><stop offset=".59" stop-color="#1A3D9C" stop-opacity=".031"/><stop offset=".7" stop-color="#1A3D9C" stop-opacity="0"/></radialGradient><radialGradient id="C" cx="0" cy="0" r="1" gradientTransform="matrix(1.11814 4.9902 -3.23737 .72539 7.936 10.799)" gradientUnits="userSpaceOnUse"><stop stop-color="#1A3D9C" stop-opacity=".8"/><stop offset=".01" stop-color="#1A3D9C" stop-opacity=".78"/><stop offset=".24" stop-color="#1A3D9C" stop-opacity=".451"/><stop offset=".44" stop-color="#1A3D9C" stop-opacity=".2"/><stop offset=".6" stop-color="#1A3D9C" stop-opacity=".051"/><stop offset=".7" stop-color="#1A3D9C" stop-opacity="0"/></radialGradient><radialGradient id="D" cx="0" cy="0" r="1" gradientTransform="rotate(70.896 -.883 -1.234) scale(12.0316 5.60629)" gradientUnits="userSpaceOnUse"><stop stop-color="#1A3D9C"/><stop offset=".4" stop-color="#1A3D9C" stop-opacity=".561"/><stop offset=".48" stop-color="#1A3D9C" stop-opacity=".431"/><stop offset=".69" stop-color="#1A3D9C" stop-opacity=".122"/><stop offset=".79" stop-color="#1A3D9C" stop-opacity="0"/></radialGradient><radialGradient id="E" cx="0" cy="0" r="1" gradientTransform="matrix(1.79507 8.89294 -3.9881 .80501 -7.537 5.338)" gradientUnits="userSpaceOnUse"><stop stop-color="#1A3D9C"/><stop offset=".06" stop-color="#1A3D9C" stop-opacity=".878"/><stop offset=".21" stop-color="#1A3D9C" stop-opacity=".612"/><stop offset=".36" stop-color="#1A3D9C" stop-opacity=".388"/><stop offset=".51" stop-color="#1A3D9C" stop-opacity=".22"/><stop offset=".67" stop-color="#1A3D9C" stop-opacity=".102"/><stop offset=".83" stop-color="#1A3D9C" stop-opacity=".02"/><stop offset="1" stop-color="#1A3D9C" stop-opacity="0"/></radialGradient><radialGradient id="F" cx="0" cy="0" r="1" gradientTransform="matrix(1.79507 8.89294 -3.9881 .80501 -7.537 5.338)" gradientUnits="userSpaceOnUse"><stop stop-color="#1B3E9E"/><stop offset=".06" stop-color="#1B3E9E" stop-opacity=".871"/><stop offset=".21" stop-color="#1B3E9D" stop-opacity=".612"/><stop offset=".36" stop-color="#1A3D9D" stop-opacity=".388"/><stop offset=".52" stop-color="#1A3D9C" stop-opacity=".22"/><stop offset=".67" stop-color="#1A3D9C" stop-opacity=".102"/><stop offset=".83" stop-color="#1A3D9C" stop-opacity=".02"/><stop offset="1" stop-color="#1A3D9C" stop-opacity="0"/></radialGradient><radialGradient id="G" cx="0" cy="0" r="1" gradientTransform="matrix(1.37608 6.81724 -3.05725 .61712 -7.456 5.802)" gradientUnits="userSpaceOnUse"><stop stop-color="#183991"/><stop offset=".03" stop-color="#183992" stop-opacity=".949"/><stop offset=".18" stop-color="#193A95" stop-opacity=".659"/><stop offset=".34" stop-color="#193B97" stop-opacity=".42"/><stop offset=".5" stop-color="#1A3C99" stop-opacity=".239"/><stop offset=".66" stop-color="#1A3D9B" stop-opacity=".102"/><stop offset=".82" stop-color="#1A3D9C" stop-opacity=".031"/><stop offset="1" stop-color="#1A3D9C" stop-opacity="0"/></radialGradient><radialGradient id="H" cx="0" cy="0" r="1" gradientTransform="rotate(87.65 -9.79 2.7) scale(5.53196 3.24875)" gradientUnits="userSpaceOnUse"><stop offset=".04" stop-color="#2453D6" stop-opacity=".6"/><stop offset=".2" stop-color="#2453D6" stop-opacity=".49"/><stop offset=".52" stop-color="#2453D6" stop-opacity=".2"/><stop offset=".73" stop-color="#2453D6" stop-opacity="0"/></radialGradient><linearGradient id="a" x1="4.926" x2="21.177" y1="-91.053" y2="-79.916" gradientUnits="userSpaceOnUse"><stop offset=".13" stop-color="#1CBBF3"/><stop offset=".34" stop-color="#1F99A5"/><stop offset=".45" stop-color="#209CA6"/><stop offset=".51" stop-color="#24A4AA"/><stop offset=".57" stop-color="#2BB3B0"/><stop offset=".6" stop-color="#30BDB4"/><stop offset=".79" stop-color="#38BA90"/><stop offset="1" stop-color="#60F05A"/></linearGradient><linearGradient id="q" x1="6.137" x2="11.965" y1="-79.031" y2="-88.189" gradientUnits="userSpaceOnUse"><stop offset=".13" stop-color="#2BF9FF"/><stop offset=".27" stop-color="#29F9FF" stop-opacity=".639"/><stop offset=".4" stop-color="#27FAFF" stop-opacity=".302"/><stop offset=".49" stop-color="#26FAFF" stop-opacity=".078"/><stop offset=".54" stop-color="#26FAFF" stop-opacity="0"/></linearGradient><linearGradient id="r" x1="1.45" x2="10.356" y1="-91.484" y2="-87.223" gradientUnits="userSpaceOnUse"><stop stop-color="#26FAFF"/><stop offset=".06" stop-color="#26FAFF" stop-opacity=".878"/><stop offset=".24" stop-color="#26FAFF" stop-opacity=".51"/><stop offset=".39" stop-color="#26FAFF" stop-opacity=".231"/><stop offset=".5" stop-color="#26FAFF" stop-opacity=".059"/><stop offset=".55" stop-color="#26FAFF" stop-opacity="0"/></linearGradient><linearGradient id="s" x1="4.007" x2="13.667" y1="-91.157" y2="-85.31" gradientUnits="userSpaceOnUse"><stop stop-color="#21DEFF"/><stop offset=".04" stop-color="#21DEFF" stop-opacity=".878"/><stop offset=".17" stop-color="#21DEFF" stop-opacity=".51"/><stop offset=".27" stop-color="#21DEFF" stop-opacity=".231"/><stop offset=".34" stop-color="#21DEFF" stop-opacity=".059"/><stop offset=".38" stop-color="#21DEFF" stop-opacity="0"/></linearGradient><linearGradient id="t" x1="14.344" x2="18.218" y1="-85.542" y2="-96.243" gradientUnits="userSpaceOnUse"><stop offset=".62" stop-color="#21DEFF" stop-opacity="0"/><stop offset=".66" stop-color="#21DEFF" stop-opacity=".059"/><stop offset=".73" stop-color="#21DEFF" stop-opacity=".231"/><stop offset=".83" stop-color="#21DEFF" stop-opacity=".51"/><stop offset=".96" stop-color="#21DEFF" stop-opacity=".878"/><stop offset="1" stop-color="#21DEFF"/></linearGradient><linearGradient id="u" x1="21.077" x2="20.126" y1="-89.291" y2="-84.627" gradientUnits="userSpaceOnUse"><stop stop-color="#44B044"/><stop offset=".11" stop-color="#44B044" stop-opacity=".8"/><stop offset=".27" stop-color="#44B044" stop-opacity=".522"/><stop offset=".43" stop-color="#44B044" stop-opacity=".29"/><stop offset=".58" stop-color="#44B044" stop-opacity=".129"/><stop offset=".7" stop-color="#44B044" stop-opacity=".031"/><stop offset=".8" stop-color="#44B044" stop-opacity="0"/></linearGradient><linearGradient id="v" x1="7.758" x2="26.53" y1="-84.367" y2="-93.694" gradientUnits="userSpaceOnUse"><stop stop-color="#3066FB"/><stop offset=".38" stop-color="#2F64F7"/><stop offset=".74" stop-color="#2857D9"/><stop offset="1" stop-color="#3C7EFF"/></linearGradient><linearGradient id="I" x1="20.836" x2="17.326" y1="-76.189" y2="-89.159" gradientUnits="userSpaceOnUse"><stop stop-color="#3774FF"/><stop offset=".05" stop-color="#3774FF" stop-opacity=".91"/><stop offset=".16" stop-color="#3774FF" stop-opacity=".659"/><stop offset=".32" stop-color="#3774FF" stop-opacity=".278"/><stop offset=".43" stop-color="#3774FF" stop-opacity="0"/></linearGradient></defs></svg>