<svg xmlns="http://www.w3.org/2000/svg" width="24" height="24" viewBox="0 0 24 24" fill="none">
<g stroke="currentColor">
<circle cx="8.756" cy="7.504" r="4.004"/>
<path stroke-linecap="round" d="M2 18.763a7.206 7.206 0 0 1 7.206-7.206M9.206 11.557c1.54 0 2.975.462 4.186 1.26"/>
<path fill="currentColor" stroke-width=".2" d="M17.059 9.006a3.134 3.134 0 0 0-2.419 3.724c.02.09.06.21.093.319l-2.588 3.986a1.962 1.962 0 0 0 .579 2.724 1.962 1.962 0 0 0 2.723-.58l2.589-3.986c.113-.013.239-.025.329-.044a3.134 3.134 0 0 0 2.418-3.725 2.981 2.981 0 0 0-.66-1.339l-.335-.393-.283.437-1.307 1.995-.727-.472 1.292-2.005.283-.437-.495-.145a2.982 2.982 0 0 0-1.492-.06Zm.163.768c.186-.04.343.01.518.015l-1.36 2.095.331.205 1.397.907.322.22 1.36-2.095c.077.158.186.28.226.466a2.327 2.327 0 0 1-1.814 2.794c-.153.032-.278.059-.378.055l-.216-.017-2.816 4.335c-.372.573-1.07.722-1.643.35l-.015-.01c-.56-.374-.704-1.065-.335-1.634l2.816-4.335-.104-.191a1.696 1.696 0 0 1-.103-.367 2.327 2.327 0 0 1 1.814-2.793Z"/>
</g>
</svg>
