<svg xmlns="http://www.w3.org/2000/svg" width="24" height="24" viewBox="0 0 24 24" fill="none">
<g stroke="currentColor">
<circle cx="8.756" cy="7.504" r="4.004" fill="currentColor"/>
<path stroke-linecap="round" d="M2 18.763a7.206 7.206 0 0 1 7.206-7.206M9.206 11.557c1.54 0 2.975.462 4.186 1.26"/>
<path fill="currentColor" d="M17.568 9.774a1.012 1.012 0 0 0-.346 0 2.327 2.327 0 0 0-1.814 2.793c.033.153.06.278.103.367l.104.191-2.816 4.336c-.37.569-.226 1.26.335 1.634l.014.01c.573.371 1.272.223 1.644-.35l2.816-4.335.216.016c.1.004.224-.022.377-.055a2.327 2.327 0 0 0 1.814-2.793c-.026-.124-.083-.22-.14-.316a1.914 1.914 0 0 1-.084-.15l-1.36 2.094-.323-.22-1.397-.906-.332-.206 1.36-2.095c-.058-.001-.115-.008-.171-.015Z"/></g>
</svg>
