<svg width="24" height="24" viewBox="0 0 24 24" fill="none" xmlns="http://www.w3.org/2000/svg">
<g clip-path="url(#clip0_29220_41425)">
<path d="M5.6001 19V5H12.4401C14.2001 5 15.5201 5.33333 16.4001 6C17.2934 6.66667 17.7401 7.54667 17.7401 8.64C17.7401 9.37333 17.5601 10.0133 17.2001 10.56C16.8401 11.0933 16.3468 11.5067 15.7201 11.8C15.0934 12.0933 14.3734 12.24 13.5601 12.24L13.9401 11.42C14.8201 11.42 15.6001 11.5667 16.2801 11.86C16.9601 12.14 17.4868 12.56 17.8601 13.12C18.2468 13.68 18.4401 14.3667 18.4401 15.18C18.4401 16.38 17.9668 17.32 17.0201 18C16.0734 18.6667 14.6801 19 12.8401 19H5.6001ZM8.8201 16.56H12.6001C13.4401 16.56 14.0734 16.4267 14.5001 16.16C14.9401 15.88 15.1601 15.44 15.1601 14.84C15.1601 14.2533 14.9401 13.82 14.5001 13.54C14.0734 13.2467 13.4401 13.1 12.6001 13.1H8.5801V10.74H12.0401C12.8268 10.74 13.4268 10.6067 13.8401 10.34C14.2668 10.06 14.4801 9.64 14.4801 9.08C14.4801 8.53333 14.2668 8.12667 13.8401 7.86C13.4268 7.58 12.8268 7.44 12.0401 7.44H8.8201V16.56Z" fill="currentColor"/>
</g>
<defs>
<clipPath id="clip0_29220_41425">
<rect width="24" height="24" fill="white"/>
</clipPath>
</defs>
</svg>
