<svg xmlns="http://www.w3.org/2000/svg" width="24" height="24" fill="none" viewBox="0 0 24 24">
  <path fill="currentColor" d="M7.38 15.657a7.486 7.486 0 0 1-2.878-5.865c-.023-4.065 3.255-7.445 7.319-7.54a7.5 7.5 0 0 1 4.813 13.396 2.276 2.276 0 0 0-.882 1.787V18a.75.75 0 0 1-.75.75h-6a.75.75 0 0 1-.75-.75v-.566a2.26 2.26 0 0 0-.872-1.777Z"/>
  <path stroke="currentColor" stroke-linecap="round" stroke-linejoin="round" d="M8.252 21.75h7.5M7.38 15.657a7.486 7.486 0 0 1-2.878-5.865c-.023-4.065 3.255-7.445 7.319-7.54a7.5 7.5 0 0 1 4.813 13.396 2.276 2.276 0 0 0-.882 1.787V18a.75.75 0 0 1-.75.75h-6a.75.75 0 0 1-.75-.75v-.566a2.26 2.26 0 0 0-.872-1.777v0Z"/>
  <path stroke="currentColor" stroke-linecap="round" stroke-linejoin="round" d="M12.763 5.324a4.493 4.493 0 0 1 3.675 3.671" class="invert"/>
</svg>
