<svg width="16" height="16" viewBox="0 0 16 16" fill="none" xmlns="http://www.w3.org/2000/svg">
<g id="32px/Speed-Indicator" clip-path="url(#clip0_41056_13025)">
<path id="Vector" d="M1.5 11.5V10.0706C1.5 6.47812 4.3846 3.51247 7.97701 3.50004C8.83253 3.49701 9.68023 3.66291 10.4715 3.98821C11.2628 4.3135 11.982 4.79181 12.5881 5.39568C13.1941 5.99956 13.6749 6.71713 14.003 7.50725C14.3311 8.29736 14.5 9.14447 14.5 10V11.5C14.5 11.6326 14.4473 11.7598 14.3536 11.8536C14.2598 11.9473 14.1326 12 14 12H2C1.86739 12 1.74021 11.9473 1.64645 11.8536C1.55268 11.7598 1.5 11.6326 1.5 11.5Z" stroke="#565758" stroke-linecap="round" stroke-linejoin="round"/>
<path id="Vector_2" d="M8 3.5V5.5" stroke="#565758" stroke-linecap="round" stroke-linejoin="round"/>
<path id="Vector_3" d="M1.72266 8.31738L3.65451 8.83502" stroke="#565758" stroke-linecap="round" stroke-linejoin="round"/>
<path id="Vector_4" d="M14.2795 8.31738L12.3477 8.83502" stroke="#565758" stroke-linecap="round" stroke-linejoin="round"/>
<path id="Vector_5" d="M6.46484 11.9993L10.7389 6.4292" stroke="#565758" stroke-linecap="round" stroke-linejoin="round"/>
</g>
<defs>
<clipPath id="clip0_41056_13025">
<rect width="16" height="16" fill="white"/>
</clipPath>
</defs>
</svg>
