<svg xmlns="http://www.w3.org/2000/svg" width="24" height="24" fill="none" viewBox="0 0 24 24">
  <path stroke="currentColor" stroke-linecap="round" stroke-linejoin="round" d="M19.5 13.5h-15a.75.75 0 0 0-.75.75v4.5c0 .414.336.75.75.75h15a.75.75 0 0 0 .75-.75v-4.5a.75.75 0 0 0-.75-.75ZM19.5 4.5h-15a.75.75 0 0 0-.75.75v4.5c0 .414.336.75.75.75h15a.75.75 0 0 0 .75-.75v-4.5a.75.75 0 0 0-.75-.75Z"/>
  <path fill="currentColor" d="M16.875 8.625a1.125 1.125 0 1 0 0-2.25 1.125 1.125 0 0 0 0 2.25ZM16.875 17.625a1.125 1.125 0 1 0 0-2.25 1.125 1.125 0 0 0 0 2.25Z"/>
</svg>
