<svg xmlns="http://www.w3.org/2000/svg" width="24" height="24" fill="none" viewBox="0 0 24 24">
  <path stroke="currentColor" stroke-linecap="round" stroke-linejoin="round" d="M20.25 6.75H3.75A.75.75 0 0 0 3 7.5v12c0 .414.336.75.75.75h16.5a.75.75 0 0 0 .75-.75v-12a.75.75 0 0 0-.75-.75ZM15.75 6.75v-1.5a1.5 1.5 0 0 0-1.5-1.5h-4.5a1.5 1.5 0 0 0-1.5 1.5v1.5"/>
  <path stroke="currentColor" stroke-linecap="round" stroke-linejoin="round" d="M21.002 11.842A17.916 17.916 0 0 1 12 14.252a17.916 17.916 0 0 1-9-2.408M10.875 11.25h2.25"/>
</svg>
