<svg width="16" height="16" viewBox="0 0 16 16" fill="none" xmlns="http://www.w3.org/2000/svg">
<g id="16px/lock">
<path id="lock (Stroke)" fill-rule="evenodd" clip-rule="evenodd" d="M12.9996 13.0808L13 7.96201C13 7.72868 12.9089 7.50993 12.7266 7.30576C12.5703 7.10159 12.388 6.99951 12.1797 6.99951H3.82069C3.61236 6.99951 3.41706 7.10159 3.23478 7.30576C3.07853 7.50993 3.00041 7.72868 3.00041 7.96201L3 13.0808C3 13.2849 3.09114 13.4891 3.27343 13.6933C3.45571 13.8974 3.63799 13.9995 3.82028 13.9995H12.1793C12.3616 13.9995 12.5439 13.8974 12.7262 13.6933C12.9084 13.4891 12.9996 13.2849 12.9996 13.0808ZM4.00001 12.9329H11.9996L12 8.06608H4.0004L4.00001 12.9329Z" fill="#333333"/>
<path id="Ellipse 4694 (Stroke)" fill-rule="evenodd" clip-rule="evenodd" d="M6.24912 3.25739C5.80346 3.74899 5.5 4.49727 5.5 5.5V6.5H4.5V5.5C4.5 4.29359 4.86811 3.29187 5.50824 2.58575C6.14992 1.87792 7.03654 1.5 8 1.5C8.96346 1.5 9.85008 1.87792 10.4918 2.58575C11.1319 3.29187 11.5 4.29359 11.5 5.5V6.5H10.5V5.5C10.5 4.49727 10.1965 3.74899 9.75088 3.25739C9.30678 2.76751 8.6934 2.5 8 2.5C7.3066 2.5 6.69322 2.76751 6.24912 3.25739Z" fill="#333333"/>
</g>
</svg>
