<svg width="16" height="16" viewBox="0 0 16 16" fill="none" xmlns="http://www.w3.org/2000/svg">
<g id="16px/lock">
<path id="lock (Stroke)" fill-rule="evenodd" clip-rule="evenodd" d="M12.9996 13.0812L13 7.9625C13 7.72917 12.9089 7.51042 12.7266 7.30625C12.5703 7.10208 12.388 7 12.1797 7H3.82069C3.61236 7 3.41706 7.10208 3.23478 7.30625C3.07853 7.51042 3.00041 7.72917 3.00041 7.9625L3 13.0812C3 13.2854 3.09114 13.4896 3.27343 13.6937C3.45571 13.8979 3.63799 14 3.82028 14H12.1793C12.3616 14 12.5439 13.8979 12.7262 13.6937C12.9084 13.4896 12.9996 13.2854 12.9996 13.0812ZM4.00001 12.9334H11.9996L12 8.06656H4.0004L4.00001 12.9334Z" fill="currentColor"/>
<path id="Ellipse 4694 (Stroke)" fill-rule="evenodd" clip-rule="evenodd" d="M6.24912 3.25739C5.80346 3.74899 5.5 4.49727 5.5 5.5V6.5H4.5V5.5C4.5 4.29359 4.86811 3.29187 5.50824 2.58575C6.14992 1.87792 7.03654 1.5 8 1.5C8.96346 1.5 9.85008 1.87792 10.4918 2.58575C11.1319 3.29187 11.5 4.29359 11.5 5.5V6.5H10.5V5.5C10.5 4.49727 10.1965 3.74899 9.75088 3.25739C9.30678 2.76751 8.6934 2.5 8 2.5C7.3066 2.5 6.69322 2.76751 6.24912 3.25739Z" fill="currentColor"/>
</g>
</svg>
