<svg width="24" height="24" viewBox="0 0 24 24" fill="none" xmlns="http://www.w3.org/2000/svg">
<path d="M21.9669 10.1373C21.3792 9.86075 20.8606 9.79161 20.4112 9.92989L17.8703 5.47032C18.5963 4.74435 18.7 3.93195 18.1814 3.03312C17.9394 2.54914 17.5419 2.238 16.9888 2.09972C16.4356 1.92687 15.9171 1.97873 15.4331 2.25529C14.9491 2.56642 14.6553 2.98126 14.5516 3.49982H9.46972C9.22773 2.60099 8.60546 2.15158 7.60292 2.15158C6.98066 2.15158 6.46211 2.34171 6.04726 2.72199C5.66699 3.10226 5.47685 3.58624 5.47685 4.17394C5.47685 4.65792 5.66699 5.12462 6.04726 5.57404L3.50635 10.0336C2.50381 9.75704 1.76055 10.0855 1.27656 11.0189C1 11.5028 0.930859 12.0214 1.06914 12.5745C1.24199 13.0931 1.57041 13.4906 2.05439 13.7672C2.53838 14.0438 3.05693 14.1302 3.61006 14.0265L6.15097 18.4342C5.425 19.1602 5.32129 19.9726 5.83984 20.8714C6.08183 21.3554 6.47939 21.6838 7.03252 21.8566C7.58564 21.9949 8.10419 21.9258 8.58818 21.6492C9.07216 21.3381 9.36601 20.9232 9.46972 20.4047H14.5516C14.7935 21.3727 15.4504 21.8566 16.5221 21.8566C17.0752 21.8566 17.5419 21.6665 17.9222 21.2862C18.337 20.906 18.5444 20.4393 18.5444 19.8861C18.5444 19.3676 18.3543 18.8836 17.974 18.4342L20.5149 14.0265C21.5175 14.2685 22.2607 13.9228 22.7447 12.9894C23.0213 12.4362 23.0731 11.9004 22.9003 11.3818C22.762 10.8287 22.4509 10.4139 21.9669 10.1373ZM9.2623 18.6416C9.05488 18.4342 8.93388 18.2959 8.89931 18.2268L12.0106 12.9894L15.0183 18.2268C14.7071 18.4688 14.5516 18.7626 14.5516 19.1083H9.46972C9.46972 18.9355 9.40058 18.7799 9.2623 18.6416ZM5.06201 11.33C4.88916 10.9843 4.73359 10.6904 4.59531 10.4484L7.13623 6.04073C7.1708 6.04073 7.23994 6.05802 7.34365 6.09259C7.48193 6.12716 7.56835 6.14445 7.60292 6.14445C7.81035 6.14445 7.94863 6.10988 8.01777 6.04073L11.0254 11.2263H5.06201V11.33ZM14.759 5.15919C14.9664 5.36661 15.0874 5.5049 15.122 5.57404L12.0106 10.8114L9.00302 5.57404C9.21044 5.29747 9.36601 5.00363 9.46972 4.69249H14.5516C14.5516 4.86535 14.6207 5.02091 14.759 5.15919ZM16.4183 17.6564C16.2109 17.6564 16.0726 17.6909 16.0035 17.7601L12.9959 12.5745H19.1148C19.184 12.8165 19.3223 13.1104 19.5297 13.4561L16.9888 17.8638C16.9196 17.7255 16.7295 17.6564 16.4183 17.6564ZM19.2185 10.9151C19.184 10.9497 19.1494 11.0189 19.1148 11.1226C19.0803 11.2263 19.0284 11.2954 18.9593 11.33H12.8922L15.8998 6.14445C16.2109 6.24816 16.5393 6.24816 16.885 6.14445L19.426 10.5522C19.3568 10.725 19.2877 10.846 19.2185 10.9151ZM4.80273 12.8857C4.8373 12.8511 4.87187 12.7819 4.90644 12.6782C4.94101 12.5745 4.99287 12.5054 5.06201 12.4708H11.1291L8.12148 17.6564C7.81035 17.5526 7.48193 17.5526 7.13623 17.6564L4.59531 13.2486C4.66445 13.0758 4.73359 12.9548 4.80273 12.8857Z" fill="currentColor"/>
</svg>
