<svg xmlns="http://www.w3.org/2000/svg" width="24" height="24" fill="none" viewBox="0 0 24 24">
  <path fill="currentColor" d="M11.163 20.4a.543.543 0 0 1-.543-.543v-2.172H5.886A1.088 1.088 0 0 1 4.8 16.6V4.686A1.086 1.086 0 0 1 5.886 3.6H17.8a1.088 1.088 0 0 1 1.086 1.085V16.6a1.088 1.088 0 0 1-1.086 1.086h-1.813v2.17a.543.543 0 0 1-.83.461l-1.853-1.157-1.853 1.158a.542.542 0 0 1-.287.083ZM17.8 4.686H5.886V16.6h5.276a.543.543 0 0 1 .543.543v1.735l1.31-.819a.542.542 0 0 1 .575 0l1.31.819v-1.735a.543.543 0 0 1 .543-.543h2.352L17.8 4.686Z"/>
  <path fill="currentColor" fill-rule="evenodd" d="M15.623 10.496a3.28 3.28 0 0 0-2.305-.985 3.28 3.28 0 0 0-3.243 3.311 3.28 3.28 0 0 0 .576 1.887.561.561 0 0 0-.034.195v4.937a.56.56 0 0 0 .282.488.535.535 0 0 0 .555-.014l1.862-1.194 1.864 1.193a.534.534 0 0 0 .555.014.559.559 0 0 0 .28-.49v-4.934a.56.56 0 0 0-.032-.193c.379-.551.583-1.21.577-1.889a3.28 3.28 0 0 0-.937-2.326Z" clip-rule="evenodd"/>
</svg>
