<svg width="24" height="24" viewBox="0 0 24 24" fill="none" xmlns="http://www.w3.org/2000/svg">
<g clip-path="url(#clip0_103_2000)">
<path d="M9 21H15" stroke="currentColor" stroke-linecap="round" stroke-linejoin="round"/>
<path d="M6.00049 9.00016C6.00049 6 8.25049 3 12.0005 3C15.7505 3 17.9817 6 17.9817 9.00016V10.5001C17.9817 13.8578 19.4342 15.8063 20.0529 16.8712C20.1196 16.985 20.1551 17.1143 20.1558 17.2462C20.1565 17.3781 20.1224 17.5078 20.057 17.6223C19.9915 17.7368 19.8971 17.832 19.7831 17.8983C19.6691 17.9647 19.5397 17.9998 19.4078 18.0001H4.59222C4.46034 17.9998 4.33087 17.9647 4.21689 17.8983C4.1029 17.832 4.00844 17.7367 3.94301 17.6222C3.87759 17.5077 3.84352 17.3779 3.84425 17.2461C3.84498 17.1142 3.88048 16.9848 3.94716 16.871C4.56622 15.8061 6.01904 13.8577 6.01904 10.5001L6.00049 9.00016Z" fill="currentColor"/>
<path d="M6 9.00016C6 6 8.25 3 12 3C15.75 3 17.9812 6 17.9812 9.00016V10.5001C17.9812 13.8578 19.4337 15.8063 20.0524 16.8712C20.1191 16.985 20.1546 17.1143 20.1553 17.2462C20.156 17.3781 20.1219 17.5078 20.0565 17.6223C19.991 17.7368 19.8966 17.832 19.7826 17.8983C19.6686 17.9647 19.5392 17.9998 19.4073 18.0001H4.59173C4.45985 17.9998 4.33038 17.9647 4.2164 17.8983C4.10242 17.832 4.00795 17.7367 3.94252 17.6222C3.8771 17.5077 3.84303 17.3779 3.84376 17.2461C3.84449 17.1142 3.87999 16.9848 3.94667 16.871C4.56573 15.8061 6.01855 13.8577 6.01855 10.5001L6 9.00016Z" stroke="currentColor" stroke-linecap="round" stroke-linejoin="round"/>
</g>
<defs>
<clipPath id="clip0_103_2000">
<rect width="24" height="24" fill="white"/>
</clipPath>
</defs>
</svg>
