<svg width="24" height="24" viewBox="0 0 24 24" fill="none" xmlns="http://www.w3.org/2000/svg">
<path d="M1 11C1 9.89543 1.89543 9 3 9H20.6C21.7046 9 22.6 9.89543 22.6 11V17.6C22.6 18.1523 22.1523 18.6 21.6 18.6H2C1.44772 18.6 1 18.1523 1 17.6V11Z" fill="currentColor" stroke="currentColor"/>
<path d="M17.2998 4V11.1H6.2998V6.72843C6.2998 6.3306 6.45784 5.94907 6.73915 5.66777L9.46757 2.93934C9.74888 2.65804 10.1304 2.5 10.5282 2.5H15.7998C16.6282 2.5 17.2998 3.17157 17.2998 4Z" fill="white" stroke="currentColor"/>
<path d="M9.99961 5.49961V2.59961L6.29883 6.49961H8.99961C9.55189 6.49961 9.99961 6.05189 9.99961 5.49961Z" fill="currentColor" stroke="currentColor" stroke-linecap="round" stroke-linejoin="round"/>
<path d="M5.7998 15.2002H17.7998V20.8002C17.7998 21.3525 17.3521 21.8002 16.7998 21.8002H6.7998C6.24752 21.8002 5.7998 21.3525 5.7998 20.8002V15.2002Z" fill="white" stroke="currentColor"/>
<path d="M7.89941 17H15.6994" stroke="currentColor" stroke-linecap="round"/>
<path d="M7.89941 19.4004H15.6994" stroke="currentColor" stroke-linecap="round"/>
<path d="M4.59961 15.2002H18.9996" stroke="currentColor" stroke-linecap="round"/>
<rect x="19.5996" y="11" width="1.2" height="1.2" fill="white"/>
</svg>
