<svg width="24" height="24" viewBox="0 0 24 24" fill="none" xmlns="http://www.w3.org/2000/svg">
<path d="M12.002 21C16.9725 21 21.002 16.9706 21.002 12C21.002 7.02944 16.9725 3 12.002 3C7.03139 3 3.00195 7.02944 3.00195 12C3.00195 16.9706 7.03139 21 12.002 21Z" fill="currentColor" stroke="currentColor" stroke-linecap="round" stroke-linejoin="round"/>
<path d="M11.9999 17.4002C12.3313 17.4002 12.5999 17.1316 12.5999 16.8002C12.5999 16.4688 12.3313 16.2002 11.9999 16.2002C11.6685 16.2002 11.3999 16.4688 11.3999 16.8002C11.3999 17.1316 11.6685 17.4002 11.9999 17.4002Z" fill="white"/>
<path fill-rule="evenodd" clip-rule="evenodd" d="M10.7099 7.00691C11.3266 6.75146 12.0052 6.68463 12.6599 6.81485C13.3146 6.94508 13.9159 7.26651 14.3879 7.73852C14.8599 8.21052 15.1814 8.81189 15.3116 9.46657C15.4418 10.1213 15.375 10.7999 15.1196 11.4166C14.8641 12.0333 14.4315 12.5604 13.8765 12.9312C13.5324 13.1611 13.1508 13.3246 12.7515 13.4156V14.25C12.7515 14.6642 12.4157 15 12.0015 15C11.5872 15 11.2515 14.6642 11.2515 14.25V12.75C11.2515 12.5511 11.3305 12.3603 11.4711 12.2197C11.6118 12.079 11.8026 12 12.0015 12C12.3723 12 12.7348 11.89 13.0432 11.684C13.3515 11.478 13.5918 11.1851 13.7337 10.8425C13.8756 10.4999 13.9128 10.1229 13.8404 9.75921C13.7681 9.39549 13.5895 9.0614 13.3273 8.79918C13.0651 8.53695 12.731 8.35838 12.3673 8.28603C12.0035 8.21368 11.6265 8.25081 11.2839 8.39273C10.9413 8.53464 10.6485 8.77497 10.4425 9.08331C10.2364 9.39165 10.1265 9.75416 10.1265 10.125C10.1265 10.5392 9.79068 10.875 9.37646 10.875C8.96225 10.875 8.62646 10.5392 8.62646 10.125C8.62646 9.45749 8.8244 8.80497 9.19525 8.24995C9.5661 7.69494 10.0932 7.26235 10.7099 7.00691Z" fill="white"/>
</svg>
