<svg width="24" height="24" viewBox="0 0 24 24" fill="none" xmlns="http://www.w3.org/2000/svg">
<path d="M11.7001 3.66584C9.44746 3.66006 7.28134 4.53274 5.66186 6.0985V3.66584C5.66186 3.48925 5.59171 3.31989 5.46684 3.19502C5.34197 3.07015 5.17261 3 4.99602 3C4.81943 3 4.65007 3.07015 4.5252 3.19502C4.40033 3.31989 4.33018 3.48925 4.33018 3.66584V7.66086C4.32956 7.79999 4.37258 7.93581 4.45319 8.04921C4.53381 8.16261 4.64795 8.24787 4.77957 8.29299L8.77459 9.62466C8.85839 9.65556 8.94756 9.66931 9.03678 9.66507C9.12601 9.66084 9.21347 9.63871 9.29397 9.60002C9.37448 9.56132 9.44639 9.50683 9.50542 9.4398C9.56446 9.37277 9.60942 9.29455 9.63764 9.2098C9.66585 9.12505 9.67675 9.0355 9.66968 8.94645C9.6626 8.85741 9.63771 8.7707 9.59646 8.69146C9.55522 8.61223 9.49848 8.54209 9.4296 8.48522C9.36072 8.42835 9.28111 8.3859 9.19551 8.3604L6.24605 7.37924C7.43041 6.08663 9.04074 5.26388 10.7822 5.06163C12.5236 4.85938 14.2797 5.29116 15.7287 6.27793C17.1778 7.26469 18.223 8.7404 18.6729 10.4348C19.1227 12.1293 18.9472 13.9291 18.1785 15.5047C17.4097 17.0803 16.0991 18.3263 14.4867 19.0145C12.8742 19.7027 11.0679 19.7871 9.39832 19.2522C7.72876 18.7173 6.30773 17.5989 5.39543 16.1018C4.48312 14.6047 4.14059 12.8291 4.43055 11.1001C4.46153 10.9263 4.42221 10.7473 4.32122 10.6025C4.22023 10.4577 4.06584 10.3589 3.89203 10.3279C3.71822 10.297 3.53922 10.3363 3.39441 10.4373C3.24959 10.5383 3.15083 10.6926 3.11984 10.8665V10.8784C3.04015 11.3552 3.00007 11.8376 3.00001 12.321C2.99765 14.0343 3.50313 15.7098 4.4526 17.136C5.40206 18.5621 6.75291 19.6749 8.33448 20.3337C9.91606 20.9924 11.6574 21.1677 13.3385 20.8373C15.0197 20.5069 16.5652 19.6856 17.7798 18.4773C18.9944 17.269 19.8236 15.7277 20.1628 14.0483C20.5019 12.3689 20.3356 10.6267 19.685 9.04174C19.0345 7.45677 17.9287 6.10018 16.5075 5.14334C15.0863 4.18651 13.4134 3.67235 11.7001 3.66584Z" fill="currentColor"/>
</svg>
