<svg xmlns="http://www.w3.org/2000/svg" width="39" height="38" viewBox="0 0 39 38" fill="none">
  <g filter="url(#filter0_d_39326_42325)">
    <rect x="3.89062" y="1.5" width="30.84" height="31" rx="7.5" fill="url(#paint0_linear_39326_42325)" stroke="#F7F7F7"/>
    <path d="M28.6243 9L29.6578 10.3045L29.6078 13.0795L22.7571 18.1146H28.6577L27.1992 20.117L22.1987 20.5407C22.1987 20.5407 21.5342 22.5898 20.7463 25.0262L9.4541 20.9178L12.2644 17.4665L12.8811 18.422L15.623 19.311L19.1817 13.495L15.1563 17.6493L13.6312 17.2006L11.6393 14.8576L12.7144 12.4813L16.8815 10.6202L20.6652 9.78932L23.0238 11.3929L28.6243 9Z" fill="url(#paint1_linear_39326_42325)"/>
    <path d="M20.6089 26.7974L8.16602 22.1362L9.40781 20.5908L21.134 24.7867L20.6089 26.7974Z" fill="url(#paint2_linear_39326_42325)"/>
  </g>
  <defs>
    <filter id="filter0_d_39326_42325" x="0.390625" y="0" width="37.8398" height="38" filterUnits="userSpaceOnUse" color-interpolation-filters="sRGB">
      <feFlood flood-opacity="0" result="BackgroundImageFix"/>
      <feColorMatrix in="SourceAlpha" type="matrix" values="0 0 0 0 0 0 0 0 0 0 0 0 0 0 0 0 0 0 127 0" result="hardAlpha"/>
      <feOffset dy="2"/>
      <feGaussianBlur stdDeviation="1.5"/>
      <feComposite in2="hardAlpha" operator="out"/>
      <feColorMatrix type="matrix" values="0 0 0 0 0.2 0 0 0 0 0.2 0 0 0 0 0.2 0 0 0 0.15 0"/>
      <feBlend mode="normal" in2="BackgroundImageFix" result="effect1_dropShadow_39326_42325"/>
      <feBlend mode="normal" in="SourceGraphic" in2="effect1_dropShadow_39326_42325" result="shape"/>
    </filter>
    <linearGradient id="paint0_linear_39326_42325" x1="19.3106" y1="1" x2="19.3106" y2="33" gradientUnits="userSpaceOnUse">
      <stop stop-color="#FFF8F0"/>
      <stop offset="1" stop-color="#E9FBFF"/>
    </linearGradient>
    <linearGradient id="paint1_linear_39326_42325" x1="28.6093" y1="8.20974" x2="19.4855" y2="24.9879" gradientUnits="userSpaceOnUse">
      <stop stop-color="#F7B605"/>
      <stop offset="0.285" stop-color="#F79B06"/>
      <stop offset="0.595" stop-color="#F65650"/>
      <stop offset="0.83" stop-color="#EC4C9A"/>
      <stop offset="0.99" stop-color="#A560FF"/>
    </linearGradient>
    <linearGradient id="paint2_linear_39326_42325" x1="17.8639" y1="21.1177" x2="14.6256" y2="26.7834" gradientUnits="userSpaceOnUse">
      <stop stop-color="#014FD4"/>
      <stop offset="0.441567" stop-color="#016DE2"/>
      <stop offset="0.798748" stop-color="#59BB4B"/>
    </linearGradient>
  </defs>
</svg>