<svg width="86" height="86" viewBox="0 0 86 86" fill="none" xmlns="http://www.w3.org/2000/svg">
<g id="Group 11726">
<g id="Rectangle 103" filter="url(#filter0_d_40238_22625)">
<rect x="8" y="4.00049" width="70" height="70" rx="8" fill="url(#paint0_linear_40238_22625)"/>
<rect x="8.5" y="4.50049" width="69" height="69" rx="7.5" stroke="#F7F7F7"/>
</g>
<g id="Logo">
<path id="Vector" d="M63.4776 21.5005L65.7496 24.354L65.6397 30.4245L50.5785 41.4386H63.5509L60.3445 45.8188L49.3509 46.7458C49.3509 46.7458 47.8901 51.2281 46.1579 56.5578L21.332 47.5707L27.5104 40.021L28.8662 42.1111L34.8944 44.0559L42.7181 31.3333L33.8683 40.4208L30.5153 39.4394L26.1362 34.314L28.4998 29.1159L37.6611 25.0446L45.9796 23.2271L51.1649 26.7349L63.4776 21.5005Z" fill="url(#paint1_linear_40238_22625)"/>
<path id="Vector_2" d="M45.8546 60.4333L18.499 50.237L21.2291 46.8564L47.0089 56.0349L45.8546 60.4333Z" fill="url(#paint2_linear_40238_22625)"/>
</g>
</g>
<defs>
<filter id="filter0_d_40238_22625" x="0" y="0.000488281" width="86" height="86" filterUnits="userSpaceOnUse" color-interpolation-filters="sRGB">
<feFlood flood-opacity="0" result="BackgroundImageFix"/>
<feColorMatrix in="SourceAlpha" type="matrix" values="0 0 0 0 0 0 0 0 0 0 0 0 0 0 0 0 0 0 127 0" result="hardAlpha"/>
<feOffset dy="4"/>
<feGaussianBlur stdDeviation="4"/>
<feComposite in2="hardAlpha" operator="out"/>
<feColorMatrix type="matrix" values="0 0 0 0 0 0 0 0 0 0 0 0 0 0 0 0 0 0 0.15 0"/>
<feBlend mode="normal" in2="BackgroundImageFix" result="effect1_dropShadow_40238_22625"/>
<feBlend mode="normal" in="SourceGraphic" in2="effect1_dropShadow_40238_22625" result="shape"/>
</filter>
<linearGradient id="paint0_linear_40238_22625" x1="43" y1="4.00049" x2="43" y2="74.0005" gradientUnits="userSpaceOnUse">
<stop stop-color="#FFF8F0"/>
<stop offset="1" stop-color="#E9FBFF"/>
</linearGradient>
<linearGradient id="paint1_linear_40238_22625" x1="63.4447" y1="19.7718" x2="43.5408" y2="56.5578" gradientUnits="userSpaceOnUse">
<stop stop-color="#F7B605"/>
<stop offset="0.285" stop-color="#F79B06"/>
<stop offset="0.595" stop-color="#F65650"/>
<stop offset="0.83" stop-color="#EC4C9A"/>
<stop offset="0.99" stop-color="#A560FF"/>
</linearGradient>
<linearGradient id="paint2_linear_40238_22625" x1="39.8197" y1="48.0089" x2="32.754" y2="60.4333" gradientUnits="userSpaceOnUse">
<stop stop-color="#014FD4"/>
<stop offset="0.441567" stop-color="#016DE2"/>
<stop offset="0.798748" stop-color="#59BB4B"/>
</linearGradient>
</defs>
</svg>
