<svg xmlns="http://www.w3.org/2000/svg" width="24" height="24" fill="none" viewBox="0 0 24 24">
  <path fill="currentColor" d="M2.25 17.25v-2.144c0-5.389 4.327-9.837 9.716-9.856A9.75 9.75 0 0 1 21.75 15v2.25A.75.75 0 0 1 21 18H3a.75.75 0 0 1-.75-.75Z"/>
  <path class='invert' stroke="currentColor" stroke-linecap="round" stroke-linejoin="round" d="M12 5.25v3M2.583 12.476l2.898.776M21.418 12.476l-2.898.776M9.697 17.999l6.41-8.355"/>
  <path stroke="currentColor" stroke-linecap="round" stroke-linejoin="round" d="M2.25 17.25v-2.144c0-5.389 4.327-9.837 9.716-9.856A9.75 9.75 0 0 1 21.75 15v2.25A.75.75 0 0 1 21 18H3a.75.75 0 0 1-.75-.75Z"/>
</svg>
