<svg width="24" height="24" viewBox="0 0 24 24" fill="none" xmlns="http://www.w3.org/2000/svg">
<path d="M11.8763 19.9278C9.58763 19.9278 7.27835 19.2474 6 18.2577L7.13402 15.7423C8.35052 16.6289 10.1649 17.2474 11.8969 17.2474C13.8763 17.2474 14.6804 16.5876 14.6804 15.701C14.6804 13 6.28866 14.8557 6.28866 9.49485C6.28866 7.04124 8.26804 5 12.3711 5C14.1856 5 16.0412 5.43299 17.3814 6.27835L16.3505 8.81443C15.0103 8.05155 13.6289 7.68041 12.3505 7.68041C10.3711 7.68041 9.60825 8.42268 9.60825 9.3299C9.60825 11.9897 18 10.1546 18 15.4536C18 17.866 16 19.9278 11.8763 19.9278Z" fill="currentColor"/>
</svg>
