<svg width="24" height="24" viewBox="0 0 24 24" fill="none" xmlns="http://www.w3.org/2000/svg">
<g clip-path="url(#clip0_104_25488)">
<path d="M16.5161 9.34961H21.0161V4.84961" stroke="#333333" stroke-linecap="round" stroke-linejoin="round"/>
<path d="M6.16504 6.16637C6.93112 5.40029 7.8406 4.7926 8.84153 4.37799C9.84247 3.96339 10.9153 3.75 11.9987 3.75C13.0821 3.75 14.1549 3.96339 15.1558 4.37799C16.1567 4.7926 17.0662 5.40029 17.8323 6.16637L21.0143 9.34835" stroke="#333333" stroke-linecap="round" stroke-linejoin="round"/>
<path d="M7.48389 14.6504H2.98389V19.1504" stroke="#333333" stroke-linecap="round" stroke-linejoin="round"/>
<path d="M17.8336 17.8324C17.0675 18.5985 16.1581 19.2061 15.1571 19.6208C14.1562 20.0354 13.0834 20.2487 12 20.2487C10.9166 20.2487 9.84378 20.0354 8.84285 19.6208C7.84191 19.2061 6.93244 18.5985 6.16635 17.8324L2.98438 14.6504" stroke="#333333" stroke-linecap="round" stroke-linejoin="round"/>
</g>
<defs>
<clipPath id="clip0_104_25488">
<rect width="24" height="24" fill="white"/>
</clipPath>
</defs>
</svg>
