<svg width="257" height="475" viewBox="0 0 257 475" fill="none" xmlns="http://www.w3.org/2000/svg">
<path d="M141.044 294.439C138.301 295.565 133.095 296.76 131.759 296.549L131.266 296.479C131.524 296.784 132.399 297.448 134.08 297.675C136.683 298.027 139.286 297.794 140.833 297.675C141.748 297.605 161.656 294.439 173.755 293.525C185.855 292.61 203.16 291.555 206.185 291.555C209.21 291.555 211.656 291.095 212.305 290.851C212.868 290.64 213.618 290.195 213.923 290.007C213.923 290.007 213.853 289.304 213.712 289.093C213.571 288.882 213.36 289.163 212.938 289.163C212.516 289.163 211.391 289.163 206.185 288.178C200.979 287.193 184.87 286.56 173.755 287.264C162.641 287.967 143.788 293.314 141.044 294.439Z" stroke="#808284" stroke-width="0.5" stroke-linejoin="round"/>
<path d="M114.665 270.521C119.683 278.447 129.958 294.692 130.915 296.268C132.11 298.237 135.979 298.167 137.246 298.167C138.512 298.167 169.027 296.669 176.921 295.986C184.237 295.353 206.959 292.75 210.476 291.766C212.305 291.253 213.431 290.499 213.712 290.288" stroke="#808284" stroke-linecap="round"/>
<path d="M141.044 294.439C138.301 295.564 133.095 296.76 131.759 296.549L131.266 296.479C131.524 296.783 132.399 297.447 134.08 297.674C136.683 298.026 139.286 297.794 140.833 297.674C141.748 297.604 161.656 294.439 173.755 293.524C185.855 292.61 203.16 291.554 206.185 291.554C209.21 291.554 211.656 291.094 212.305 290.851C212.868 290.64 213.618 290.194 213.923 290.007C213.923 290.007 213.853 289.303 213.712 289.092C213.571 288.881 213.36 289.163 212.938 289.163C212.516 289.163 211.391 289.163 206.185 288.178C200.979 287.193 184.87 286.56 173.755 287.263C162.641 287.967 143.788 293.313 141.044 294.439Z" fill="#F7F7F7"/>
<path d="M130.492 305.131C129.986 304.231 119.354 285.95 114.102 276.923V270.873C113.938 269.958 114.51 267.806 118.112 266.511C122.614 264.893 140.341 262.713 149.627 262.431C157.998 262.178 169.113 262.502 172.982 262.713C176.851 262.924 180.509 264.049 182.689 265.949C184.87 267.848 212.938 288.248 213.431 288.67C213.825 289.008 213.923 289.843 213.923 290.218L213.571 297.604C213.642 297.815 213.482 298.481 212.094 299.011C207.311 300.84 183.815 303.724 175.725 304.569C166.369 305.545 142.1 306.96 135.417 306.96C133.305 306.96 131.126 306.257 130.492 305.131Z" stroke="#333333" stroke-width="2"/>
<path d="M133.869 306.89C134.174 307.453 134.84 308.663 135.065 309C135.346 309.422 136.331 309.563 137.738 309.493C139.145 309.422 169.605 307.804 179.031 306.609C188.458 305.413 205.481 302.458 206.466 302.106C207.451 301.755 208.014 301.122 208.084 300.84C208.141 300.615 208.248 300.231 208.295 300.066" stroke="#333333"/>
<path d="M167.354 296.549L166.861 295.916L167.354 295.888L167.917 296.549V297.956H167.354V296.549Z" fill="#333333"/>
<path d="M167.354 296.549L166.861 295.916L167.354 295.888L167.917 296.549V297.956H167.354V296.549Z" fill="#808284"/>
<path d="M171.364 296.198L170.801 295.635H171.364L171.926 296.198V297.604H171.364V296.198Z" fill="#808284"/>
<path d="M175.303 295.916L174.74 295.354H175.303L175.866 295.916V297.323H175.303V295.916Z" fill="#808284"/>
<path d="M179.102 295.494L178.539 294.931H179.102L179.664 295.494V296.901H179.102V295.494Z" fill="#808284"/>
<path d="M182.9 295.072L182.338 294.509H182.9L183.463 295.072V296.479H182.9V295.072Z" fill="#808284"/>
<path d="M186.699 294.65L186.136 294.087H186.699L187.262 294.65V296.057H186.699V294.65Z" fill="#808284"/>
<path d="M177.148 284.512C176.521 284.037 176.772 283.76 177.902 283.683C178.999 283.607 179.853 283.802 180.465 284.266L181.67 285.18L180.757 285.243L179.547 284.325C179.209 284.068 178.786 283.958 178.274 283.993C177.762 284.028 177.687 284.168 178.013 284.415L179.241 285.347L178.33 285.409L177.148 284.512Z" fill="#C4C4C4"/>
<path d="M172.705 284.13C172.991 284.045 173.349 283.991 173.753 283.97C174.276 283.922 174.906 283.963 175.495 284.084C176.062 284.212 176.527 284.405 176.781 284.619C177.107 284.847 177.184 285.086 176.993 285.276C176.787 285.465 176.339 285.588 175.751 285.618C175.416 285.645 175.052 285.649 174.674 285.629L174.221 285.286C174.587 285.331 174.949 285.342 175.269 285.317C175.621 285.298 175.885 285.222 175.999 285.107C176.106 284.988 176.051 284.842 175.848 284.702C175.687 284.566 175.394 284.443 175.036 284.36C174.678 284.282 174.291 284.255 173.969 284.284C173.626 284.306 173.336 284.364 173.129 284.452L172.705 284.13Z" fill="#C4C4C4"/>
<path d="M165.626 285.303C164.999 284.827 165.251 284.551 166.38 284.473C167.477 284.398 168.331 284.593 168.943 285.057L170.148 285.971L169.236 286.033L168.026 285.116C167.687 284.859 167.265 284.748 166.753 284.784C166.24 284.819 166.166 284.959 166.491 285.206L167.719 286.137L166.809 286.2L165.626 285.303Z" fill="#C4C4C4"/>
<path d="M164.278 284.714L164.744 285.067C164.294 284.985 163.826 284.955 163.419 284.983C163.318 284.989 163.222 285 163.135 285.015C163.068 285.027 163.011 285.043 162.966 285.064C162.93 285.08 162.909 285.1 162.904 285.123C162.902 285.144 162.916 285.167 162.946 285.19C162.986 285.218 163.047 285.245 163.12 285.265C163.206 285.288 163.298 285.307 163.392 285.319C163.511 285.337 163.63 285.35 163.749 285.36C163.88 285.372 164.023 285.384 164.172 285.395C164.499 285.415 164.834 285.464 165.145 285.537C165.4 285.602 165.609 285.692 165.732 285.79C165.835 285.864 165.888 285.941 165.884 286.012C165.879 286.077 165.827 286.135 165.733 286.182C165.629 286.232 165.496 286.272 165.338 286.301C165.165 286.332 164.975 286.355 164.773 286.369C164.587 286.382 164.394 286.39 164.196 286.392C164.03 286.394 163.859 286.389 163.685 286.377L163.25 286.048C163.345 286.061 163.441 286.072 163.536 286.081C163.634 286.089 163.732 286.095 163.828 286.098C163.923 286.102 164.016 286.103 164.107 286.102C164.192 286.101 164.274 286.097 164.354 286.092C164.449 286.086 164.539 286.075 164.62 286.061C164.687 286.049 164.745 286.034 164.792 286.014C164.83 285.998 164.853 285.977 164.859 285.954C164.866 285.932 164.852 285.909 164.821 285.885C164.788 285.86 164.737 285.836 164.673 285.818C164.601 285.797 164.522 285.78 164.442 285.768C164.339 285.753 164.236 285.74 164.132 285.73C164.014 285.718 163.883 285.707 163.74 285.696C163.56 285.683 163.379 285.666 163.198 285.645C163.041 285.626 162.885 285.6 162.735 285.567C162.595 285.536 162.466 285.498 162.353 285.453C162.232 285.403 162.132 285.347 162.06 285.29C161.951 285.213 161.893 285.133 161.894 285.058C161.899 284.993 161.952 284.935 162.05 284.889C162.155 284.839 162.292 284.8 162.454 284.773C162.635 284.743 162.831 284.721 163.039 284.707C163.25 284.692 163.472 284.685 163.7 284.686C163.887 284.686 164.082 284.695 164.278 284.714Z" fill="#C4C4C4"/>
<path d="M171.084 284.18L172 284.117L174.087 285.7L173.179 285.763L171.084 284.18Z" fill="#C4C4C4"/>
<path d="M171.632 284.892L169.317 284.301L168.169 284.38L171.022 285.088L170.608 285.939L171.692 285.864L171.937 285.128L171.632 284.892Z" fill="#C4C4C4"/>
<path d="M181.709 284.123C181.629 284.152 181.563 284.186 181.513 284.224C181.353 284.337 181.377 284.489 181.579 284.636C182.022 284.972 182.753 285.105 183.77 285.036L185.649 284.907L183.562 283.324L182.652 283.386L184.378 284.696L183.566 284.751C183.082 284.785 182.734 284.721 182.521 284.56C182.309 284.399 182.442 284.299 182.919 284.261L183.433 284.225L180.742 283.522L179.594 283.6L181.709 284.123Z" fill="#C4C4C4"/>
<path fill-rule="evenodd" clip-rule="evenodd" d="M162.439 286.209C162.32 286.249 162.309 286.321 162.411 286.39C162.469 286.434 162.57 286.474 162.69 286.499C162.81 286.524 162.938 286.532 163.045 286.522C163.219 286.51 163.32 286.457 163.299 286.388C163.278 286.319 163.14 286.247 162.95 286.208C162.76 286.168 162.558 286.169 162.439 286.209ZM162.662 286.235C162.836 286.223 163.054 286.269 163.149 286.339C163.196 286.374 163.207 286.409 163.179 286.438C163.152 286.466 163.087 286.485 163.001 286.491C162.826 286.503 162.609 286.456 162.515 286.385C162.422 286.315 162.487 286.248 162.662 286.235ZM162.791 286.276L162.885 286.27L163.097 286.431C163.049 286.438 162.999 286.443 162.945 286.446C162.898 286.452 162.843 286.451 162.787 286.444C162.748 286.438 162.715 286.426 162.698 286.412C162.679 286.393 162.694 286.375 162.736 286.369C162.686 286.365 162.637 286.352 162.61 286.334C162.586 286.321 162.557 286.308 162.525 286.296L162.629 286.289C162.661 286.301 162.689 286.313 162.713 286.326C162.736 286.344 162.781 286.35 162.833 286.346L162.879 286.343L162.791 286.276ZM162.868 286.371L162.912 286.368L162.975 286.416C162.959 286.419 162.942 286.42 162.923 286.42C162.863 286.424 162.825 286.418 162.802 286.401C162.78 286.384 162.814 286.375 162.868 286.371Z" fill="#C4C4C4"/>
<path d="M150.175 63.0855H148.3C127.851 63.0855 122.5 56.7788 122.5 49.3255C122.5 41.8722 128.424 35.1834 138.362 35.1834C139.764 29.0678 141.993 18.4533 156.135 16.8368C168.366 15.4387 172.444 23.0159 173.335 26.2011C175.183 25.6915 179.91 25.4367 182.509 27.73C185.949 30.7653 186.076 33.6545 185.949 35.1834C190.28 35.3108 199.517 38.308 199.517 49.3255C199.517 63.0855 185.949 63.0855 175.629 63.0855H170.931" stroke="#333333" stroke-width="2" stroke-linecap="round"/>
<path d="M159.958 48.9536V70.5362" stroke="#333333" stroke-width="2" stroke-linecap="round"/>
<ellipse cx="159.958" cy="77.9819" rx="5.35109" ry="5.35109" stroke="#333333" stroke-width="2"/>
<path d="M165.117 78.5522H179.642" stroke="#333333" stroke-width="2"/>
<path d="M140.082 78.5522H154.607" stroke="#333333" stroke-width="2"/>
<rect x="179.833" y="72.6309" width="10.7022" height="10.7022" stroke="#333333" stroke-width="2" stroke-linejoin="round"/>
<rect x="129.38" y="72.6309" width="10.7022" height="10.7022" stroke="#333333" stroke-width="2" stroke-linejoin="round"/>
<path fill-rule="evenodd" clip-rule="evenodd" d="M231.148 431.014H186.016C183.493 431.014 180.88 433.5 180.88 436.025V463.075C180.88 465.595 183.493 467.946 186.016 467.946H231.148C233.674 467.946 235.047 465.595 235.047 463.075V436.025C235.047 433.5 233.674 431.014 231.148 431.014Z" fill="#100C08"/>
<path fill-rule="evenodd" clip-rule="evenodd" d="M228.515 465.086H187.411C185.939 465.086 184.731 463.88 184.731 462.407V436.79C184.731 435.318 185.939 434.111 187.411 434.111H228.515C229.99 434.111 231.195 435.318 231.195 436.79V462.407C231.195 463.88 229.99 465.086 228.515 465.086Z" fill="#E6E6E6"/>
<path fill-rule="evenodd" clip-rule="evenodd" d="M236.726 474.505H179.201C177.558 474.505 176.214 473.161 176.214 471.518V469.351H239.713V471.518C239.713 473.161 238.369 474.505 236.726 474.505Z" fill="#100C08"/>
<path fill-rule="evenodd" clip-rule="evenodd" d="M211.106 472.055H204.821C204.421 472.055 204.091 471.727 204.091 471.325V471.236C204.091 470.836 204.421 470.506 204.821 470.506H211.106C211.506 470.506 211.836 470.836 211.836 471.236V471.325C211.836 471.727 211.506 472.055 211.106 472.055Z" fill="white"/>
<path fill-rule="evenodd" clip-rule="evenodd" d="M101.921 463.337C101.921 467.019 98.0737 470.004 93.3299 470.004H69.7076C64.9638 470.004 61.1183 467.019 61.1183 463.337V418.329C61.1183 414.647 64.9638 411.662 69.7076 411.662H93.3299C98.0737 411.662 101.921 414.647 101.921 418.329V463.337Z" fill="#100C08"/>
<path fill-rule="evenodd" clip-rule="evenodd" d="M153.304 452.476C153.304 455.517 150.136 457.984 146.231 457.984H126.783C122.878 457.984 119.712 455.517 119.712 452.476V415.295C119.712 412.253 122.878 409.787 126.783 409.787H146.231C150.136 409.787 153.304 412.253 153.304 415.295V452.476Z" fill="#100C08"/>
<path fill-rule="evenodd" clip-rule="evenodd" d="M248.237 445.382C248.237 447.502 245.896 449.221 243.009 449.221H228.635C225.748 449.221 223.408 447.502 223.408 445.382V419.468C223.408 417.348 225.748 415.629 228.635 415.629H243.009C245.896 415.629 248.237 417.348 248.237 419.468V445.382Z" fill="#100C08"/>
<path fill-rule="evenodd" clip-rule="evenodd" d="M98.5861 457.488C98.5861 459.561 96.5472 461.24 94.0351 461.24H69.0048C66.4913 461.24 64.4539 459.561 64.4539 457.488V418.714C64.4539 416.643 66.4913 414.962 69.0048 414.962H94.0351C96.5472 414.962 98.5861 416.643 98.5861 418.714V457.488Z" fill="#E6E6E6"/>
<path fill-rule="evenodd" clip-rule="evenodd" d="M150.382 447.602C150.382 449.303 148.725 450.681 146.682 450.681H126.333C124.289 450.681 122.633 449.303 122.633 447.602V415.786C122.633 414.087 124.289 412.708 126.333 412.708H146.682C148.725 412.708 150.382 414.087 150.382 415.786V447.602Z" fill="#E6E6E6"/>
<path fill-rule="evenodd" clip-rule="evenodd" d="M245.316 442.708C245.316 443.885 244.182 444.839 242.784 444.839H228.861C227.463 444.839 226.329 443.885 226.329 442.708V420.681C226.329 419.505 227.463 418.55 228.861 418.55H242.784C244.182 418.55 245.316 419.505 245.316 420.681V442.708Z" fill="#E6E6E6"/>
<path fill-rule="evenodd" clip-rule="evenodd" d="M83.7099 465.623C83.7099 464.412 82.7299 463.432 81.5191 463.432C80.3098 463.432 79.3284 464.412 79.3284 465.623C79.3284 466.832 80.3098 467.814 81.5191 467.814C82.7299 467.814 83.7099 466.832 83.7099 465.623Z" fill="#E6E6E6"/>
<path fill-rule="evenodd" clip-rule="evenodd" d="M138.698 454.332C138.698 453.122 137.718 452.142 136.508 452.142C135.298 452.142 134.317 453.122 134.317 454.332C134.317 455.542 135.298 456.523 136.508 456.523C137.718 456.523 138.698 455.542 138.698 454.332Z" fill="#E6E6E6"/>
<path fill-rule="evenodd" clip-rule="evenodd" d="M238.013 447.03C238.013 446.626 237.033 446.299 235.823 446.299C234.613 446.299 233.632 446.626 233.632 447.03C233.632 447.433 234.613 447.76 235.823 447.76C237.033 447.76 238.013 447.433 238.013 447.03Z" fill="#E6E6E6"/>
<path fill-rule="evenodd" clip-rule="evenodd" d="M164.896 469.671C164.896 472.377 162.702 474.571 159.997 474.571H146.521C143.813 474.571 141.619 472.377 141.619 469.671V436.594C141.619 433.888 143.813 431.694 146.521 431.694H159.997C162.702 431.694 164.896 433.888 164.896 436.594V469.671Z" fill="#100C08"/>
<path fill-rule="evenodd" clip-rule="evenodd" d="M257 457.4C257 459.335 255.348 460.905 253.312 460.905H243.164C241.126 460.905 239.474 459.335 239.474 457.4V433.739C239.474 431.803 241.126 430.234 243.164 430.234H253.312C255.348 430.234 257 431.803 257 433.739V457.4Z" fill="#100C08"/>
<path fill-rule="evenodd" clip-rule="evenodd" d="M162.067 466.703C162.067 468.055 161.02 469.152 159.73 469.152H146.878C145.587 469.152 144.54 468.055 144.54 466.703V438.526C144.54 437.174 145.587 436.076 146.878 436.076H159.73C161.02 436.076 162.067 437.174 162.067 438.526V466.703Z" fill="#E6E6E6"/>
<path fill-rule="evenodd" clip-rule="evenodd" d="M254.079 454.901C254.079 455.796 253.381 456.523 252.522 456.523H243.953C243.092 456.523 242.395 455.796 242.395 454.901V436.238C242.395 435.343 243.092 434.615 243.953 434.615H252.522C253.381 434.615 254.079 435.343 254.079 436.238V454.901Z" fill="#E6E6E6"/>
<path fill-rule="evenodd" clip-rule="evenodd" d="M161.334 349.721C156.389 349.721 151.905 347.669 148.634 344.357L145 348.088C149.201 352.357 154.972 355 161.334 355C167.869 355 173.771 352.206 178 347.731L174.366 344C171.071 347.519 166.452 349.721 161.334 349.721Z" fill="#EC7100"/>
<path fill-rule="evenodd" clip-rule="evenodd" d="M161.833 360.924C153.58 360.924 146.097 357.643 140.653 352.343L137 355.931C143.38 362.149 152.155 366 161.833 366C171.685 366 180.594 362.003 187 355.587L183.347 352C177.877 357.497 170.26 360.924 161.833 360.924Z" fill="#EC7100"/>
<path fill-rule="evenodd" clip-rule="evenodd" d="M161.834 373.065C150.436 373.065 140.1 368.578 132.59 361.329L129 364.816C137.427 372.96 149.035 378 161.834 378C174.804 378 186.545 372.822 195 364.487L191.41 361C183.875 368.44 173.403 373.065 161.834 373.065Z" fill="#EC7100"/>
<path d="M27.0283 48.3408C27.0283 48.9333 26.8802 49.4391 26.584 49.8584C26.2923 50.2731 25.8822 50.5898 25.3535 50.8086C24.8249 51.0273 24.2028 51.1367 23.4873 51.1367C23.109 51.1367 22.7513 51.1185 22.4141 51.082C22.0768 51.0456 21.7669 50.9932 21.4844 50.9248C21.2018 50.8564 20.9535 50.7721 20.7393 50.6719V49.5576C21.0811 49.6989 21.498 49.8311 21.9902 49.9541C22.4824 50.0726 22.9974 50.1318 23.5352 50.1318C24.0365 50.1318 24.4603 50.0658 24.8066 49.9336C25.153 49.7969 25.415 49.6032 25.5928 49.3525C25.7751 49.0973 25.8662 48.792 25.8662 48.4365C25.8662 48.0947 25.791 47.8099 25.6406 47.582C25.4902 47.3496 25.2396 47.14 24.8887 46.9531C24.5423 46.7617 24.0684 46.5589 23.4668 46.3447C23.043 46.1943 22.6693 46.0303 22.3457 45.8525C22.0221 45.6702 21.751 45.4652 21.5322 45.2373C21.3135 45.0094 21.1471 44.7451 21.0332 44.4443C20.9238 44.1436 20.8691 43.7995 20.8691 43.4121C20.8691 42.8789 21.0036 42.4232 21.2725 42.0449C21.5459 41.6621 21.9219 41.3704 22.4004 41.1699C22.8835 40.9648 23.4372 40.8623 24.0615 40.8623C24.5947 40.8623 25.0869 40.9124 25.5381 41.0127C25.9938 41.113 26.4108 41.2474 26.7891 41.416L26.4268 42.4141C26.0667 42.2637 25.6839 42.1383 25.2783 42.0381C24.8773 41.9378 24.4626 41.8877 24.0342 41.8877C23.6058 41.8877 23.2435 41.9515 22.9473 42.0791C22.6556 42.2021 22.4323 42.3776 22.2773 42.6055C22.1224 42.8333 22.0449 43.1045 22.0449 43.4189C22.0449 43.7699 22.1178 44.0615 22.2637 44.2939C22.4141 44.5264 22.651 44.7337 22.9746 44.916C23.3027 45.0938 23.7357 45.2806 24.2734 45.4766C24.8613 45.6908 25.3604 45.9186 25.7705 46.1602C26.1807 46.3971 26.4928 46.6888 26.707 47.0352C26.9212 47.377 27.0283 47.8122 27.0283 48.3408ZM37.0361 43.3711C37.861 43.3711 38.4831 43.5876 38.9023 44.0205C39.3216 44.4489 39.5312 45.1393 39.5312 46.0918V51H38.4102V46.1465C38.4102 45.5404 38.278 45.0869 38.0137 44.7861C37.7539 44.4808 37.3665 44.3281 36.8516 44.3281C36.127 44.3281 35.6006 44.5378 35.2725 44.957C34.9443 45.3763 34.7803 45.9938 34.7803 46.8096V51H33.6523V46.1465C33.6523 45.7409 33.5931 45.4036 33.4746 45.1348C33.3607 44.8659 33.1875 44.6654 32.9551 44.5332C32.7272 44.3965 32.4378 44.3281 32.0869 44.3281C31.5902 44.3281 31.1914 44.4307 30.8906 44.6357C30.5898 44.8408 30.3711 45.1462 30.2344 45.5518C30.1022 45.9528 30.0361 46.4473 30.0361 47.0352V51H28.9014V43.5078H29.8174L29.9883 44.5674H30.0498C30.2002 44.3076 30.3893 44.0889 30.6172 43.9111C30.8451 43.7334 31.1003 43.599 31.3828 43.5078C31.6654 43.4167 31.9661 43.3711 32.2852 43.3711C32.8548 43.3711 33.3311 43.4782 33.7139 43.6924C34.1012 43.902 34.3815 44.2233 34.5547 44.6562H34.6162C34.8623 44.2233 35.1995 43.902 35.6279 43.6924C36.0563 43.4782 36.5257 43.3711 37.0361 43.3711ZM44.665 43.3848C45.5583 43.3848 46.2214 43.5853 46.6543 43.9863C47.0872 44.3874 47.3037 45.0277 47.3037 45.9072V51H46.4766L46.2578 49.8926H46.2031C45.9935 50.166 45.7747 50.3962 45.5469 50.583C45.319 50.7653 45.0547 50.9043 44.7539 51C44.4577 51.0911 44.0931 51.1367 43.6602 51.1367C43.2044 51.1367 42.7988 51.057 42.4434 50.8975C42.0924 50.738 41.8145 50.4964 41.6094 50.1729C41.4089 49.8493 41.3086 49.4391 41.3086 48.9424C41.3086 48.195 41.6048 47.6208 42.1973 47.2197C42.7897 46.8187 43.6921 46.5999 44.9043 46.5635L46.1963 46.5088V46.0508C46.1963 45.4036 46.0573 44.9502 45.7793 44.6904C45.5013 44.4307 45.1094 44.3008 44.6035 44.3008C44.2116 44.3008 43.8379 44.3577 43.4824 44.4717C43.127 44.5856 42.7897 44.7201 42.4707 44.875L42.1221 44.0137C42.4593 43.8405 42.8467 43.6924 43.2842 43.5693C43.7217 43.4463 44.182 43.3848 44.665 43.3848ZM46.1826 47.3086L45.041 47.3564C44.1068 47.3929 43.4482 47.5456 43.0654 47.8145C42.6826 48.0833 42.4912 48.4639 42.4912 48.9561C42.4912 49.3844 42.6211 49.7012 42.8809 49.9062C43.1406 50.1113 43.4847 50.2139 43.9131 50.2139C44.5785 50.2139 45.123 50.0293 45.5469 49.6602C45.9707 49.291 46.1826 48.7373 46.1826 47.999V47.3086ZM53.0459 43.3711C53.1963 43.3711 53.3535 43.3802 53.5176 43.3984C53.6816 43.4121 53.8275 43.4326 53.9551 43.46L53.8115 44.5127C53.6885 44.4808 53.5518 44.4557 53.4014 44.4375C53.251 44.4193 53.1097 44.4102 52.9775 44.4102C52.6768 44.4102 52.3919 44.4717 52.123 44.5947C51.8587 44.7132 51.6263 44.8864 51.4258 45.1143C51.2253 45.3376 51.068 45.6087 50.9541 45.9277C50.8402 46.2422 50.7832 46.5931 50.7832 46.9805V51H49.6416V43.5078H50.585L50.708 44.8887H50.7559C50.9108 44.6107 51.0977 44.3577 51.3164 44.1299C51.5352 43.8975 51.7881 43.7129 52.0752 43.5762C52.3669 43.4395 52.6904 43.3711 53.0459 43.3711ZM57.79 50.207C57.9769 50.207 58.1683 50.1911 58.3643 50.1592C58.5602 50.1273 58.7197 50.0885 58.8428 50.043V50.9248C58.7106 50.984 58.526 51.0342 58.2891 51.0752C58.0566 51.1162 57.8288 51.1367 57.6055 51.1367C57.209 51.1367 56.849 51.0684 56.5254 50.9316C56.2018 50.7904 55.9421 50.5534 55.7461 50.2207C55.5547 49.888 55.459 49.4277 55.459 48.8398V44.3965H54.3926V43.8428L55.4658 43.3984L55.917 41.7715H56.6006V43.5078H58.7949V44.3965H56.6006V48.8057C56.6006 49.2751 56.7077 49.626 56.9219 49.8584C57.1406 50.0908 57.43 50.207 57.79 50.207ZM66.0957 51H60.5312V41.0059H66.0957V42.0312H61.6934V45.2646H65.8428V46.2764H61.6934V49.9746H66.0957V51ZM70.8057 51.1367C69.8577 51.1367 69.1058 50.8132 68.5498 50.166C67.9984 49.5189 67.7227 48.5573 67.7227 47.2812C67.7227 45.9915 68.0052 45.0186 68.5703 44.3623C69.1354 43.7015 69.8874 43.3711 70.8262 43.3711C71.2227 43.3711 71.569 43.4235 71.8652 43.5283C72.1615 43.6331 72.4167 43.7744 72.6309 43.9521C72.8451 44.1253 73.0251 44.3236 73.1709 44.5469H73.2529C73.2347 44.4056 73.2165 44.2119 73.1982 43.9658C73.18 43.7197 73.1709 43.5192 73.1709 43.3643V40.3633H74.3057V51H73.3896L73.2188 49.9336H73.1709C73.0296 50.1569 72.8496 50.3597 72.6309 50.542C72.4167 50.7243 72.1592 50.8701 71.8584 50.9795C71.5622 51.0843 71.2113 51.1367 70.8057 51.1367ZM70.9834 50.1934C71.7855 50.1934 72.3529 49.9655 72.6855 49.5098C73.0182 49.054 73.1846 48.3773 73.1846 47.4795V47.2744C73.1846 46.3219 73.0251 45.5905 72.7061 45.0801C72.3916 44.5697 71.8174 44.3145 70.9834 44.3145C70.2861 44.3145 69.7643 44.5833 69.418 45.1211C69.0716 45.6543 68.8984 46.3835 68.8984 47.3086C68.8984 48.2292 69.0693 48.9401 69.4111 49.4414C69.7575 49.9427 70.2816 50.1934 70.9834 50.1934ZM78.8037 54.3633C77.8193 54.3633 77.0605 54.1787 76.5273 53.8096C75.9941 53.445 75.7275 52.9323 75.7275 52.2715C75.7275 51.8021 75.8757 51.401 76.1719 51.0684C76.4727 50.7357 76.8874 50.5146 77.416 50.4053C77.2201 50.3141 77.0514 50.1774 76.9102 49.9951C76.7734 49.8128 76.7051 49.6032 76.7051 49.3662C76.7051 49.0928 76.7803 48.8535 76.9307 48.6484C77.0856 48.4388 77.3203 48.2383 77.6348 48.0469C77.2428 47.8874 76.9238 47.6185 76.6777 47.2402C76.4362 46.8574 76.3154 46.4131 76.3154 45.9072C76.3154 45.3695 76.4271 44.9115 76.6504 44.5332C76.8737 44.1504 77.1973 43.8587 77.6211 43.6582C78.0449 43.4577 78.5576 43.3574 79.1592 43.3574C79.2913 43.3574 79.4235 43.3643 79.5557 43.3779C79.6924 43.387 79.8223 43.403 79.9453 43.4258C80.0684 43.444 80.1755 43.4668 80.2666 43.4941H82.8369V44.2256L81.4561 44.3965C81.5928 44.5742 81.7067 44.7884 81.7979 45.0391C81.889 45.2897 81.9346 45.5677 81.9346 45.873C81.9346 46.6204 81.6816 47.2152 81.1758 47.6572C80.6699 48.0947 79.9749 48.3135 79.0908 48.3135C78.8812 48.3135 78.667 48.2952 78.4482 48.2588C78.2249 48.3818 78.054 48.5186 77.9355 48.6689C77.8216 48.8193 77.7646 48.9925 77.7646 49.1885C77.7646 49.3343 77.8079 49.4505 77.8945 49.5371C77.9857 49.6237 78.1156 49.6875 78.2842 49.7285C78.4528 49.765 78.6556 49.7832 78.8926 49.7832H80.2119C81.0277 49.7832 81.652 49.9541 82.085 50.2959C82.5225 50.6377 82.7412 51.1367 82.7412 51.793C82.7412 52.6224 82.404 53.2581 81.7295 53.7002C81.055 54.1423 80.0798 54.3633 78.8037 54.3633ZM78.8379 53.4746C79.4577 53.4746 79.9704 53.4108 80.376 53.2832C80.7861 53.1602 81.0915 52.9801 81.292 52.7432C81.4971 52.5107 81.5996 52.2327 81.5996 51.9092C81.5996 51.6084 81.5312 51.3805 81.3945 51.2256C81.2578 51.0752 81.0573 50.9749 80.793 50.9248C80.5286 50.8701 80.2051 50.8428 79.8223 50.8428H78.5234C78.1862 50.8428 77.8923 50.8952 77.6416 51C77.391 51.1048 77.1973 51.2598 77.0605 51.4648C76.9284 51.6699 76.8623 51.9251 76.8623 52.2305C76.8623 52.6361 77.0332 52.9437 77.375 53.1533C77.7168 53.3675 78.2044 53.4746 78.8379 53.4746ZM79.1318 47.4863C79.6742 47.4863 80.082 47.3496 80.3555 47.0762C80.6289 46.8027 80.7656 46.404 80.7656 45.8799C80.7656 45.3193 80.6266 44.9001 80.3486 44.6221C80.0706 44.3395 79.6605 44.1982 79.1182 44.1982C78.5986 44.1982 78.1976 44.3441 77.915 44.6357C77.637 44.9229 77.498 45.3444 77.498 45.9004C77.498 46.4108 77.6393 46.8027 77.9219 47.0762C78.2044 47.3496 78.6077 47.4863 79.1318 47.4863ZM87.1982 43.3711C87.8363 43.3711 88.3831 43.5124 88.8389 43.7949C89.2946 44.0775 89.6432 44.474 89.8848 44.9844C90.1263 45.4902 90.2471 46.0827 90.2471 46.7617V47.4658H85.0723C85.0859 48.3454 85.3047 49.0153 85.7285 49.4756C86.1523 49.9359 86.7493 50.166 87.5195 50.166C87.9935 50.166 88.4128 50.1227 88.7773 50.0361C89.1419 49.9495 89.5202 49.8219 89.9121 49.6533V50.6514C89.5339 50.82 89.1579 50.943 88.7842 51.0205C88.415 51.098 87.9775 51.1367 87.4717 51.1367C86.7516 51.1367 86.1227 50.9909 85.585 50.6992C85.0518 50.403 84.637 49.9701 84.3408 49.4004C84.0446 48.8307 83.8965 48.1335 83.8965 47.3086C83.8965 46.502 84.0309 45.8047 84.2998 45.2168C84.5732 44.6243 84.9561 44.1686 85.4482 43.8496C85.945 43.5306 86.5283 43.3711 87.1982 43.3711ZM87.1846 44.3008C86.5785 44.3008 86.0954 44.499 85.7354 44.8955C85.3753 45.292 85.1611 45.8457 85.0928 46.5566H89.0576C89.0531 46.11 88.9824 45.7181 88.8457 45.3809C88.7135 45.0391 88.5107 44.7747 88.2373 44.5879C87.9639 44.3965 87.613 44.3008 87.1846 44.3008Z" fill="#7F7F7F"/>
<path d="M6.0293 169.888C5.47786 169.888 4.98112 169.983 4.53906 170.175C4.10156 170.362 3.72786 170.635 3.41797 170.995C3.11263 171.351 2.87793 171.781 2.71387 172.287C2.5498 172.793 2.46777 173.363 2.46777 173.996C2.46777 174.835 2.59766 175.564 2.85742 176.184C3.12174 176.799 3.51367 177.275 4.0332 177.612C4.55729 177.95 5.21126 178.118 5.99512 178.118C6.44173 178.118 6.861 178.082 7.25293 178.009C7.64941 177.931 8.03451 177.836 8.4082 177.722V178.733C8.04362 178.87 7.66081 178.97 7.25977 179.034C6.85872 179.103 6.38249 179.137 5.83105 179.137C4.81478 179.137 3.96484 178.927 3.28125 178.508C2.60221 178.084 2.0918 177.487 1.75 176.717C1.41276 175.947 1.24414 175.037 1.24414 173.989C1.24414 173.233 1.34896 172.542 1.55859 171.918C1.77279 171.289 2.08268 170.747 2.48828 170.291C2.89844 169.835 3.39974 169.484 3.99219 169.238C4.58919 168.988 5.27279 168.862 6.04297 168.862C6.54883 168.862 7.03646 168.912 7.50586 169.013C7.97526 169.113 8.39909 169.257 8.77734 169.443L8.3125 170.428C7.99349 170.282 7.64258 170.157 7.25977 170.052C6.88151 169.942 6.47135 169.888 6.0293 169.888ZM16.8643 175.24C16.8643 175.855 16.7845 176.405 16.625 176.888C16.4655 177.371 16.2354 177.779 15.9346 178.111C15.6338 178.444 15.2692 178.699 14.8408 178.877C14.417 179.05 13.9362 179.137 13.3984 179.137C12.8971 179.137 12.4368 179.05 12.0176 178.877C11.6029 178.699 11.2428 178.444 10.9375 178.111C10.6367 177.779 10.402 177.371 10.2334 176.888C10.0693 176.405 9.9873 175.855 9.9873 175.24C9.9873 174.42 10.1263 173.723 10.4043 173.148C10.6823 172.57 11.0788 172.13 11.5938 171.829C12.1133 171.524 12.7308 171.371 13.4463 171.371C14.1299 171.371 14.7269 171.524 15.2373 171.829C15.7523 172.134 16.151 172.576 16.4336 173.155C16.7207 173.729 16.8643 174.424 16.8643 175.24ZM11.1631 175.24C11.1631 175.842 11.2428 176.364 11.4023 176.806C11.5618 177.248 11.8079 177.59 12.1406 177.831C12.4733 178.073 12.9017 178.193 13.4258 178.193C13.9453 178.193 14.3714 178.073 14.7041 177.831C15.0413 177.59 15.2897 177.248 15.4492 176.806C15.6087 176.364 15.6885 175.842 15.6885 175.24C15.6885 174.643 15.6087 174.128 15.4492 173.695C15.2897 173.258 15.0436 172.921 14.7109 172.684C14.3783 172.447 13.9476 172.328 13.4189 172.328C12.6396 172.328 12.0677 172.586 11.7031 173.101C11.3431 173.616 11.1631 174.329 11.1631 175.24ZM22.2305 171.371C22.3809 171.371 22.5381 171.38 22.7021 171.398C22.8662 171.412 23.012 171.433 23.1396 171.46L22.9961 172.513C22.873 172.481 22.7363 172.456 22.5859 172.438C22.4355 172.419 22.2943 172.41 22.1621 172.41C21.8613 172.41 21.5765 172.472 21.3076 172.595C21.0433 172.713 20.8109 172.886 20.6104 173.114C20.4098 173.338 20.2526 173.609 20.1387 173.928C20.0247 174.242 19.9678 174.593 19.9678 174.98V179H18.8262V171.508H19.7695L19.8926 172.889H19.9404C20.0954 172.611 20.2822 172.358 20.501 172.13C20.7197 171.897 20.9727 171.713 21.2598 171.576C21.5514 171.439 21.875 171.371 22.2305 171.371ZM27.4395 171.371C28.0775 171.371 28.6243 171.512 29.0801 171.795C29.5358 172.077 29.8844 172.474 30.126 172.984C30.3675 173.49 30.4883 174.083 30.4883 174.762V175.466H25.3135C25.3271 176.345 25.5459 177.015 25.9697 177.476C26.3936 177.936 26.9906 178.166 27.7607 178.166C28.2347 178.166 28.654 178.123 29.0186 178.036C29.3831 177.95 29.7614 177.822 30.1533 177.653V178.651C29.7751 178.82 29.3991 178.943 29.0254 179.021C28.6562 179.098 28.2188 179.137 27.7129 179.137C26.9928 179.137 26.3639 178.991 25.8262 178.699C25.293 178.403 24.8783 177.97 24.582 177.4C24.2858 176.831 24.1377 176.133 24.1377 175.309C24.1377 174.502 24.2721 173.805 24.541 173.217C24.8145 172.624 25.1973 172.169 25.6895 171.85C26.1862 171.531 26.7695 171.371 27.4395 171.371ZM27.4258 172.301C26.8197 172.301 26.3366 172.499 25.9766 172.896C25.6165 173.292 25.4023 173.846 25.334 174.557H29.2988C29.2943 174.11 29.2236 173.718 29.0869 173.381C28.9548 173.039 28.752 172.775 28.4785 172.588C28.2051 172.396 27.8542 172.301 27.4258 172.301ZM44.0371 179H42.6973L37.249 170.605H37.1943C37.208 170.829 37.224 171.084 37.2422 171.371C37.2604 171.654 37.2741 171.957 37.2832 172.28C37.2969 172.599 37.3037 172.925 37.3037 173.258V179H36.2236V169.006H37.5566L42.9844 177.373H43.0322C43.0231 177.214 43.0117 176.988 42.998 176.696C42.9844 176.4 42.9707 176.083 42.957 175.746C42.9479 175.404 42.9434 175.088 42.9434 174.796V169.006H44.0371V179ZM49.4785 171.371C50.1165 171.371 50.6634 171.512 51.1191 171.795C51.5749 172.077 51.9235 172.474 52.165 172.984C52.4066 173.49 52.5273 174.083 52.5273 174.762V175.466H47.3525C47.3662 176.345 47.585 177.015 48.0088 177.476C48.4326 177.936 49.0296 178.166 49.7998 178.166C50.2738 178.166 50.693 178.123 51.0576 178.036C51.4222 177.95 51.8005 177.822 52.1924 177.653V178.651C51.8141 178.82 51.4382 178.943 51.0645 179.021C50.6953 179.098 50.2578 179.137 49.752 179.137C49.0319 179.137 48.403 178.991 47.8652 178.699C47.332 178.403 46.9173 177.97 46.6211 177.4C46.3249 176.831 46.1768 176.133 46.1768 175.309C46.1768 174.502 46.3112 173.805 46.5801 173.217C46.8535 172.624 47.2363 172.169 47.7285 171.85C48.2253 171.531 48.8086 171.371 49.4785 171.371ZM49.4648 172.301C48.8587 172.301 48.3757 172.499 48.0156 172.896C47.6556 173.292 47.4414 173.846 47.373 174.557H51.3379C51.3333 174.11 51.2627 173.718 51.126 173.381C50.9938 173.039 50.791 172.775 50.5176 172.588C50.2441 172.396 49.8932 172.301 49.4648 172.301ZM56.875 178.207C57.0618 178.207 57.2533 178.191 57.4492 178.159C57.6452 178.127 57.8047 178.089 57.9277 178.043V178.925C57.7956 178.984 57.611 179.034 57.374 179.075C57.1416 179.116 56.9137 179.137 56.6904 179.137C56.2939 179.137 55.9339 179.068 55.6104 178.932C55.2868 178.79 55.027 178.553 54.8311 178.221C54.6396 177.888 54.5439 177.428 54.5439 176.84V172.396H53.4775V171.843L54.5508 171.398L55.002 169.771H55.6855V171.508H57.8799V172.396H55.6855V176.806C55.6855 177.275 55.7926 177.626 56.0068 177.858C56.2256 178.091 56.515 178.207 56.875 178.207ZM65.543 178.986L64.21 174.625C64.1507 174.438 64.0938 174.256 64.0391 174.078C63.9889 173.896 63.9411 173.723 63.8955 173.559C63.8545 173.39 63.8158 173.235 63.7793 173.094C63.7474 172.948 63.7201 172.823 63.6973 172.718H63.6494C63.6312 172.823 63.6061 172.948 63.5742 173.094C63.5423 173.235 63.5036 173.39 63.458 173.559C63.417 173.727 63.3714 173.905 63.3213 174.092C63.2712 174.274 63.2142 174.459 63.1504 174.646L61.7559 178.986H60.4775L58.4131 171.494H59.5889L60.6689 175.63C60.7419 175.903 60.8102 176.174 60.874 176.443C60.9424 176.708 60.9993 176.958 61.0449 177.195C61.0951 177.428 61.1315 177.631 61.1543 177.804H61.209C61.2363 177.69 61.266 177.553 61.2979 177.394C61.3343 177.234 61.373 177.065 61.4141 176.888C61.4596 176.705 61.5075 176.525 61.5576 176.348C61.6077 176.165 61.6579 175.994 61.708 175.835L63.0889 171.494H64.3125L65.6455 175.828C65.7139 176.047 65.7799 176.275 65.8438 176.512C65.9121 176.749 65.9736 176.979 66.0283 177.202C66.083 177.421 66.1217 177.617 66.1445 177.79H66.1992C66.2174 177.635 66.2516 177.444 66.3018 177.216C66.3519 176.988 66.4089 176.737 66.4727 176.464C66.541 176.19 66.6117 175.912 66.6846 175.63L67.7783 171.494H68.9336L66.8623 178.986H65.543ZM76.7607 175.24C76.7607 175.855 76.681 176.405 76.5215 176.888C76.362 177.371 76.1318 177.779 75.8311 178.111C75.5303 178.444 75.1657 178.699 74.7373 178.877C74.3135 179.05 73.8327 179.137 73.2949 179.137C72.7936 179.137 72.3333 179.05 71.9141 178.877C71.4993 178.699 71.1393 178.444 70.834 178.111C70.5332 177.779 70.2985 177.371 70.1299 176.888C69.9658 176.405 69.8838 175.855 69.8838 175.24C69.8838 174.42 70.0228 173.723 70.3008 173.148C70.5788 172.57 70.9753 172.13 71.4902 171.829C72.0098 171.524 72.6273 171.371 73.3428 171.371C74.0264 171.371 74.6234 171.524 75.1338 171.829C75.6488 172.134 76.0475 172.576 76.3301 173.155C76.6172 173.729 76.7607 174.424 76.7607 175.24ZM71.0596 175.24C71.0596 175.842 71.1393 176.364 71.2988 176.806C71.4583 177.248 71.7044 177.59 72.0371 177.831C72.3698 178.073 72.7982 178.193 73.3223 178.193C73.8418 178.193 74.2679 178.073 74.6006 177.831C74.9378 177.59 75.1862 177.248 75.3457 176.806C75.5052 176.364 75.585 175.842 75.585 175.24C75.585 174.643 75.5052 174.128 75.3457 173.695C75.1862 173.258 74.9401 172.921 74.6074 172.684C74.2747 172.447 73.8441 172.328 73.3154 172.328C72.5361 172.328 71.9642 172.586 71.5996 173.101C71.2396 173.616 71.0596 174.329 71.0596 175.24ZM82.127 171.371C82.2773 171.371 82.4346 171.38 82.5986 171.398C82.7627 171.412 82.9085 171.433 83.0361 171.46L82.8926 172.513C82.7695 172.481 82.6328 172.456 82.4824 172.438C82.332 172.419 82.1908 172.41 82.0586 172.41C81.7578 172.41 81.473 172.472 81.2041 172.595C80.9398 172.713 80.7074 172.886 80.5068 173.114C80.3063 173.338 80.1491 173.609 80.0352 173.928C79.9212 174.242 79.8643 174.593 79.8643 174.98V179H78.7227V171.508H79.666L79.7891 172.889H79.8369C79.9919 172.611 80.1787 172.358 80.3975 172.13C80.6162 171.897 80.8691 171.713 81.1562 171.576C81.4479 171.439 81.7715 171.371 82.127 171.371ZM85.5791 168.363V173.887C85.5791 174.069 85.5723 174.292 85.5586 174.557C85.5449 174.816 85.5335 175.047 85.5244 175.247H85.5723C85.668 175.129 85.807 174.953 85.9893 174.721C86.1761 174.488 86.3333 174.301 86.4609 174.16L88.9492 171.508H90.2822L87.2676 174.707L90.501 179H89.1338L86.4883 175.452L85.5791 176.286V179H84.4512V168.363H85.5791Z" fill="#7F7F7F"/>
<path d="M17.0918 293L15.8613 289.828H11.8555L10.6318 293H9.45605L13.3662 282.965H14.4121L18.2949 293H17.0918ZM15.5127 288.796L14.3438 285.645C14.3164 285.562 14.2708 285.428 14.207 285.241C14.1478 285.054 14.0863 284.861 14.0225 284.66C13.9587 284.46 13.9062 284.298 13.8652 284.175C13.8197 284.362 13.7695 284.549 13.7148 284.735C13.6647 284.918 13.6146 285.089 13.5645 285.248C13.5143 285.403 13.471 285.535 13.4346 285.645L12.2451 288.796H15.5127ZM22.5127 293.137C21.8382 293.137 21.2435 292.998 20.7285 292.72C20.2135 292.442 19.8125 292.018 19.5254 291.448C19.2383 290.879 19.0947 290.161 19.0947 289.295C19.0947 288.388 19.2451 287.647 19.5459 287.073C19.8512 286.494 20.2705 286.066 20.8037 285.788C21.3369 285.51 21.943 285.371 22.6221 285.371C22.9958 285.371 23.3558 285.41 23.7021 285.487C24.0531 285.56 24.3402 285.654 24.5635 285.768L24.2217 286.718C23.9938 286.627 23.7295 286.545 23.4287 286.472C23.1325 286.399 22.8545 286.362 22.5947 286.362C22.0752 286.362 21.6423 286.474 21.2959 286.697C20.9541 286.921 20.6966 287.249 20.5234 287.682C20.3548 288.115 20.2705 288.648 20.2705 289.281C20.2705 289.887 20.3525 290.405 20.5166 290.833C20.6852 291.261 20.9336 291.59 21.2617 291.817C21.5944 292.041 22.0091 292.152 22.5059 292.152C22.9023 292.152 23.2601 292.111 23.5791 292.029C23.8981 291.943 24.1875 291.842 24.4473 291.729V292.74C24.1966 292.868 23.9163 292.966 23.6064 293.034C23.3011 293.103 22.9365 293.137 22.5127 293.137ZM29.2256 293.137C28.5511 293.137 27.9564 292.998 27.4414 292.72C26.9264 292.442 26.5254 292.018 26.2383 291.448C25.9512 290.879 25.8076 290.161 25.8076 289.295C25.8076 288.388 25.958 287.647 26.2588 287.073C26.5641 286.494 26.9834 286.066 27.5166 285.788C28.0498 285.51 28.6559 285.371 29.335 285.371C29.7087 285.371 30.0687 285.41 30.415 285.487C30.766 285.56 31.0531 285.654 31.2764 285.768L30.9346 286.718C30.7067 286.627 30.4424 286.545 30.1416 286.472C29.8454 286.399 29.5674 286.362 29.3076 286.362C28.7881 286.362 28.3551 286.474 28.0088 286.697C27.667 286.921 27.4095 287.249 27.2363 287.682C27.0677 288.115 26.9834 288.648 26.9834 289.281C26.9834 289.887 27.0654 290.405 27.2295 290.833C27.3981 291.261 27.6465 291.59 27.9746 291.817C28.3073 292.041 28.722 292.152 29.2188 292.152C29.6152 292.152 29.973 292.111 30.292 292.029C30.611 291.943 30.9004 291.842 31.1602 291.729V292.74C30.9095 292.868 30.6292 292.966 30.3193 293.034C30.014 293.103 29.6494 293.137 29.2256 293.137ZM35.8223 285.371C36.4603 285.371 37.0072 285.512 37.4629 285.795C37.9186 286.077 38.2673 286.474 38.5088 286.984C38.7503 287.49 38.8711 288.083 38.8711 288.762V289.466H33.6963C33.71 290.345 33.9287 291.015 34.3525 291.476C34.7764 291.936 35.3734 292.166 36.1436 292.166C36.6175 292.166 37.0368 292.123 37.4014 292.036C37.766 291.95 38.1442 291.822 38.5361 291.653V292.651C38.1579 292.82 37.7819 292.943 37.4082 293.021C37.0391 293.098 36.6016 293.137 36.0957 293.137C35.3757 293.137 34.7467 292.991 34.209 292.699C33.6758 292.403 33.2611 291.97 32.9648 291.4C32.6686 290.831 32.5205 290.133 32.5205 289.309C32.5205 288.502 32.6549 287.805 32.9238 287.217C33.1973 286.624 33.5801 286.169 34.0723 285.85C34.569 285.531 35.1523 285.371 35.8223 285.371ZM35.8086 286.301C35.2025 286.301 34.7194 286.499 34.3594 286.896C33.9993 287.292 33.7852 287.846 33.7168 288.557H37.6816C37.6771 288.11 37.6064 287.718 37.4697 287.381C37.3376 287.039 37.1348 286.775 36.8613 286.588C36.5879 286.396 36.237 286.301 35.8086 286.301ZM45.6455 290.949C45.6455 291.428 45.5247 291.831 45.2832 292.159C45.0462 292.483 44.7044 292.727 44.2578 292.891C43.8158 293.055 43.2871 293.137 42.6719 293.137C42.1478 293.137 41.6943 293.096 41.3115 293.014C40.9287 292.932 40.5938 292.815 40.3066 292.665V291.619C40.612 291.77 40.9766 291.906 41.4004 292.029C41.8242 292.152 42.2572 292.214 42.6992 292.214C43.3464 292.214 43.8158 292.109 44.1074 291.899C44.3991 291.69 44.5449 291.405 44.5449 291.045C44.5449 290.84 44.4857 290.66 44.3672 290.505C44.2533 290.345 44.0596 290.193 43.7861 290.047C43.5127 289.896 43.1344 289.732 42.6514 289.555C42.1729 289.372 41.7581 289.192 41.4072 289.015C41.0609 288.832 40.792 288.611 40.6006 288.352C40.4137 288.092 40.3203 287.755 40.3203 287.34C40.3203 286.706 40.5755 286.221 41.0859 285.884C41.6009 285.542 42.2754 285.371 43.1094 285.371C43.5605 285.371 43.9821 285.417 44.374 285.508C44.7705 285.594 45.1396 285.713 45.4814 285.863L45.0986 286.772C44.7887 286.64 44.4583 286.529 44.1074 286.438C43.7565 286.346 43.3988 286.301 43.0342 286.301C42.5101 286.301 42.1068 286.387 41.8242 286.561C41.5462 286.734 41.4072 286.971 41.4072 287.271C41.4072 287.504 41.471 287.695 41.5986 287.846C41.7308 287.996 41.9404 288.137 42.2275 288.27C42.5146 288.402 42.8929 288.557 43.3623 288.734C43.8317 288.908 44.2373 289.088 44.5791 289.274C44.9209 289.457 45.1829 289.68 45.3652 289.944C45.5521 290.204 45.6455 290.539 45.6455 290.949ZM52.3174 290.949C52.3174 291.428 52.1966 291.831 51.9551 292.159C51.7181 292.483 51.3763 292.727 50.9297 292.891C50.4876 293.055 49.959 293.137 49.3438 293.137C48.8197 293.137 48.3662 293.096 47.9834 293.014C47.6006 292.932 47.2656 292.815 46.9785 292.665V291.619C47.2839 291.77 47.6484 291.906 48.0723 292.029C48.4961 292.152 48.929 292.214 49.3711 292.214C50.0182 292.214 50.4876 292.109 50.7793 291.899C51.071 291.69 51.2168 291.405 51.2168 291.045C51.2168 290.84 51.1576 290.66 51.0391 290.505C50.9251 290.345 50.7314 290.193 50.458 290.047C50.1846 289.896 49.8063 289.732 49.3232 289.555C48.8447 289.372 48.43 289.192 48.0791 289.015C47.7327 288.832 47.4639 288.611 47.2725 288.352C47.0856 288.092 46.9922 287.755 46.9922 287.34C46.9922 286.706 47.2474 286.221 47.7578 285.884C48.2728 285.542 48.9473 285.371 49.7812 285.371C50.2324 285.371 50.654 285.417 51.0459 285.508C51.4424 285.594 51.8115 285.713 52.1533 285.863L51.7705 286.772C51.4606 286.64 51.1302 286.529 50.7793 286.438C50.4284 286.346 50.0706 286.301 49.7061 286.301C49.182 286.301 48.7786 286.387 48.4961 286.561C48.2181 286.734 48.0791 286.971 48.0791 287.271C48.0791 287.504 48.1429 287.695 48.2705 287.846C48.4027 287.996 48.6123 288.137 48.8994 288.27C49.1865 288.402 49.5648 288.557 50.0342 288.734C50.5036 288.908 50.9092 289.088 51.251 289.274C51.5928 289.457 51.8548 289.68 52.0371 289.944C52.224 290.204 52.3174 290.539 52.3174 290.949ZM60.5615 283.006C61.8512 283.006 62.7923 283.259 63.3848 283.765C63.9818 284.266 64.2803 284.986 64.2803 285.925C64.2803 286.349 64.2096 286.752 64.0684 287.135C63.9316 287.513 63.7083 287.848 63.3984 288.14C63.0885 288.427 62.6807 288.655 62.1748 288.823C61.6735 288.987 61.0583 289.069 60.3291 289.069H59.1123V293H57.9502V283.006H60.5615ZM60.4521 283.997H59.1123V288.071H60.1992C60.8372 288.071 61.3682 288.003 61.792 287.866C62.2204 287.729 62.5417 287.508 62.7559 287.203C62.9701 286.893 63.0771 286.483 63.0771 285.973C63.0771 285.307 62.8652 284.813 62.4414 284.489C62.0176 284.161 61.3545 283.997 60.4521 283.997ZM72.6611 289.24C72.6611 289.855 72.5814 290.405 72.4219 290.888C72.2624 291.371 72.0322 291.779 71.7314 292.111C71.4307 292.444 71.0661 292.699 70.6377 292.877C70.2139 293.05 69.7331 293.137 69.1953 293.137C68.694 293.137 68.2337 293.05 67.8145 292.877C67.3997 292.699 67.0397 292.444 66.7344 292.111C66.4336 291.779 66.1989 291.371 66.0303 290.888C65.8662 290.405 65.7842 289.855 65.7842 289.24C65.7842 288.42 65.9232 287.723 66.2012 287.148C66.4792 286.57 66.8757 286.13 67.3906 285.829C67.9102 285.524 68.5277 285.371 69.2432 285.371C69.9268 285.371 70.5238 285.524 71.0342 285.829C71.5492 286.134 71.9479 286.576 72.2305 287.155C72.5176 287.729 72.6611 288.424 72.6611 289.24ZM66.96 289.24C66.96 289.842 67.0397 290.364 67.1992 290.806C67.3587 291.248 67.6048 291.59 67.9375 291.831C68.2702 292.073 68.6986 292.193 69.2227 292.193C69.7422 292.193 70.1683 292.073 70.501 291.831C70.8382 291.59 71.0866 291.248 71.2461 290.806C71.4056 290.364 71.4854 289.842 71.4854 289.24C71.4854 288.643 71.4056 288.128 71.2461 287.695C71.0866 287.258 70.8405 286.921 70.5078 286.684C70.1751 286.447 69.7445 286.328 69.2158 286.328C68.4365 286.328 67.8646 286.586 67.5 287.101C67.14 287.616 66.96 288.329 66.96 289.24ZM75.7578 285.508V293H74.623V285.508H75.7578ZM75.2041 282.705C75.391 282.705 75.5505 282.767 75.6826 282.89C75.8193 283.008 75.8877 283.195 75.8877 283.45C75.8877 283.701 75.8193 283.888 75.6826 284.011C75.5505 284.134 75.391 284.195 75.2041 284.195C75.0081 284.195 74.8441 284.134 74.7119 284.011C74.5843 283.888 74.5205 283.701 74.5205 283.45C74.5205 283.195 74.5843 283.008 74.7119 282.89C74.8441 282.767 75.0081 282.705 75.2041 282.705ZM81.7119 285.371C82.6006 285.371 83.2728 285.59 83.7285 286.027C84.1842 286.46 84.4121 287.158 84.4121 288.119V293H83.291V288.194C83.291 287.57 83.1475 287.103 82.8604 286.793C82.5778 286.483 82.1426 286.328 81.5547 286.328C80.7253 286.328 80.1419 286.563 79.8047 287.032C79.4674 287.502 79.2988 288.183 79.2988 289.076V293H78.1641V285.508H79.0801L79.251 286.588H79.3125C79.472 286.324 79.6748 286.103 79.9209 285.925C80.167 285.743 80.4427 285.606 80.748 285.515C81.0534 285.419 81.3747 285.371 81.7119 285.371ZM89.1699 292.207C89.3568 292.207 89.5482 292.191 89.7441 292.159C89.9401 292.127 90.0996 292.089 90.2227 292.043V292.925C90.0905 292.984 89.9059 293.034 89.6689 293.075C89.4365 293.116 89.2087 293.137 88.9854 293.137C88.5889 293.137 88.2288 293.068 87.9053 292.932C87.5817 292.79 87.3219 292.553 87.126 292.221C86.9346 291.888 86.8389 291.428 86.8389 290.84V286.396H85.7725V285.843L86.8457 285.398L87.2969 283.771H87.9805V285.508H90.1748V286.396H87.9805V290.806C87.9805 291.275 88.0876 291.626 88.3018 291.858C88.5205 292.091 88.8099 292.207 89.1699 292.207Z" fill="#7F7F7F"/>
<path d="M188.501 236H187.332V227.031H184.188V226.006H191.632V227.031H188.501V236ZM199.158 228.508V236H198.229L198.064 234.947H198.003C197.848 235.207 197.647 235.426 197.401 235.604C197.155 235.781 196.877 235.913 196.567 236C196.262 236.091 195.936 236.137 195.59 236.137C194.997 236.137 194.501 236.041 194.1 235.85C193.699 235.658 193.396 235.362 193.19 234.961C192.99 234.56 192.89 234.045 192.89 233.416V228.508H194.038V233.334C194.038 233.958 194.179 234.425 194.462 234.735C194.744 235.041 195.175 235.193 195.754 235.193C196.31 235.193 196.752 235.089 197.08 234.879C197.413 234.669 197.652 234.362 197.798 233.956C197.944 233.546 198.017 233.045 198.017 232.452V228.508H199.158ZM205.105 228.371C205.994 228.371 206.666 228.59 207.122 229.027C207.578 229.46 207.806 230.158 207.806 231.119V236H206.685V231.194C206.685 230.57 206.541 230.103 206.254 229.793C205.971 229.483 205.536 229.328 204.948 229.328C204.119 229.328 203.535 229.563 203.198 230.032C202.861 230.502 202.692 231.183 202.692 232.076V236H201.558V228.508H202.474L202.645 229.588H202.706C202.866 229.324 203.068 229.103 203.314 228.925C203.561 228.743 203.836 228.606 204.142 228.515C204.447 228.419 204.768 228.371 205.105 228.371ZM213.691 228.371C214.58 228.371 215.252 228.59 215.708 229.027C216.164 229.46 216.392 230.158 216.392 231.119V236H215.271V231.194C215.271 230.57 215.127 230.103 214.84 229.793C214.557 229.483 214.122 229.328 213.534 229.328C212.705 229.328 212.121 229.563 211.784 230.032C211.447 230.502 211.278 231.183 211.278 232.076V236H210.144V228.508H211.06L211.23 229.588H211.292C211.451 229.324 211.654 229.103 211.9 228.925C212.146 228.743 212.422 228.606 212.728 228.515C213.033 228.419 213.354 228.371 213.691 228.371ZM221.614 228.371C222.252 228.371 222.799 228.512 223.255 228.795C223.711 229.077 224.059 229.474 224.301 229.984C224.542 230.49 224.663 231.083 224.663 231.762V232.466H219.488C219.502 233.345 219.721 234.015 220.145 234.476C220.568 234.936 221.165 235.166 221.936 235.166C222.41 235.166 222.829 235.123 223.193 235.036C223.558 234.95 223.936 234.822 224.328 234.653V235.651C223.95 235.82 223.574 235.943 223.2 236.021C222.831 236.098 222.394 236.137 221.888 236.137C221.168 236.137 220.539 235.991 220.001 235.699C219.468 235.403 219.053 234.97 218.757 234.4C218.461 233.831 218.312 233.133 218.312 232.309C218.312 231.502 218.447 230.805 218.716 230.217C218.989 229.624 219.372 229.169 219.864 228.85C220.361 228.531 220.944 228.371 221.614 228.371ZM221.601 229.301C220.994 229.301 220.511 229.499 220.151 229.896C219.791 230.292 219.577 230.846 219.509 231.557H223.474C223.469 231.11 223.398 230.718 223.262 230.381C223.13 230.039 222.927 229.775 222.653 229.588C222.38 229.396 222.029 229.301 221.601 229.301ZM227.732 236H226.591V225.363H227.732V236Z" fill="#7F7F7F"/>
<line x1="158" y1="136" x2="158" y2="87" stroke="#999999" stroke-width="2"/>
<line x1="166" y1="136" x2="166" y2="87" stroke="#999999" stroke-width="2" stroke-dasharray="2 2"/>
<line x1="166" y1="261" x2="166" y2="207" stroke="#999999" stroke-width="2" stroke-dasharray="2 2"/>
<circle cx="159" cy="171" r="32" stroke="#333333" stroke-width="2"/>
<path d="M141 197.5C139.167 186.5 140.5 161.8 160.5 151C162.667 149.667 168.8 146.3 176 143.5M184.5 151C184 155.667 181.9 166.3 177.5 171.5M177.5 171.5C172.833 178.167 159.4 192.7 143 197.5M177.5 171.5C177 170.333 176.3 169.3 177.5 174.5C178.7 179.7 178.667 191.667 178.5 197M177.5 171.5C170.7 154.3 151.667 145.667 143 143.5" stroke="#333333" stroke-width="1.5"/>
<path d="M128.5 167C140.667 163.5 169.9 161.7 189.5 182.5" stroke="#333333" stroke-width="1.5"/>
<circle cx="141.5" cy="143.5" r="3" fill="white" stroke="#333333"/>
<circle cx="126.5" cy="166.5" r="3" fill="white" stroke="#333333"/>
<circle cx="147.5" cy="164.5" r="3" fill="white" stroke="#333333"/>
<circle cx="160.5" cy="151.5" r="3" fill="white" stroke="#333333"/>
<circle cx="177.5" cy="143.5" r="3" fill="white" stroke="#333333"/>
<circle cx="185.5" cy="150.5" r="3" fill="white" stroke="#333333"/>
<circle cx="176.5" cy="172.5" r="3" fill="white" stroke="#333333"/>
<circle cx="178.5" cy="197.5" r="3" fill="white" stroke="#333333"/>
<circle cx="141.5" cy="197.5" r="3" fill="white" stroke="#333333"/>
</svg>
