
<svg width="50" height="32" viewBox="0 0 50 32" fill="none" xmlns="http://www.w3.org/2000/svg">
<circle cx="41.5" cy="23" r="8" fill="#565758"/>
<path d="M46.4834 22.0687C46.1896 21.9304 45.9303 21.8958 45.7056 21.9649L44.4352 19.7352C44.7981 19.3722 44.85 18.966 44.5907 18.5166C44.4697 18.2746 44.2709 18.119 43.9944 18.0499C43.7178 17.9634 43.4585 17.9894 43.2165 18.1276C42.9746 18.2832 42.8276 18.4906 42.7758 18.7499H40.2349C40.1139 18.3005 39.8027 18.0758 39.3015 18.0758C38.9903 18.0758 38.7311 18.1709 38.5236 18.361C38.3335 18.5511 38.2384 18.7931 38.2384 19.087C38.2384 19.329 38.3335 19.5623 38.5236 19.787L37.2532 22.0168C36.7519 21.8785 36.3803 22.0427 36.1383 22.5094C36 22.7514 35.9654 23.0107 36.0346 23.2873C36.121 23.5465 36.2852 23.7453 36.5272 23.8836C36.7692 24.0219 37.0285 24.0651 37.305 24.0132L38.5755 26.2171C38.2125 26.5801 38.1606 26.9863 38.4199 27.4357C38.5409 27.6777 38.7397 27.8419 39.0163 27.9283C39.2928 27.9975 39.5521 27.9629 39.7941 27.8246C40.0361 27.669 40.183 27.4616 40.2349 27.2023H42.7758C42.8968 27.6863 43.2252 27.9283 43.761 27.9283C44.0376 27.9283 44.2709 27.8333 44.4611 27.6431C44.6685 27.453 44.7722 27.2196 44.7722 26.9431C44.7722 26.6838 44.6771 26.4418 44.487 26.2171L45.7575 24.0132C46.2587 24.1342 46.6304 23.9614 46.8724 23.4947C47.0106 23.2181 47.0366 22.9502 46.9501 22.6909C46.881 22.4144 46.7254 22.2069 46.4834 22.0687ZM40.1311 26.3208C40.0274 26.2171 39.9669 26.148 39.9497 26.1134L41.5053 23.4947L43.0091 26.1134C42.8536 26.2344 42.7758 26.3813 42.7758 26.5542H40.2349C40.2349 26.4677 40.2003 26.3899 40.1311 26.3208ZM38.031 22.665C37.9446 22.4921 37.8668 22.3452 37.7977 22.2242L39.0681 20.0204C39.0854 20.0204 39.12 20.029 39.1718 20.0463C39.241 20.0636 39.2842 20.0722 39.3015 20.0722C39.4052 20.0722 39.4743 20.0549 39.5089 20.0204L41.0127 22.6131H38.031V22.665ZM42.8795 19.5796C42.9832 19.6833 43.0437 19.7524 43.061 19.787L41.5053 22.4057L40.0015 19.787C40.1052 19.6487 40.183 19.5018 40.2349 19.3462H42.7758C42.7758 19.4327 42.8103 19.5105 42.8795 19.5796ZM43.7092 25.8282C43.6055 25.8282 43.5363 25.8455 43.5018 25.88L41.9979 23.2873H45.0574C45.092 23.4083 45.1611 23.5552 45.2648 23.728L43.9944 25.9319C43.9598 25.8627 43.8647 25.8282 43.7092 25.8282ZM45.1093 22.4576C45.092 22.4749 45.0747 22.5094 45.0574 22.5613C45.0401 22.6131 45.0142 22.6477 44.9796 22.665H41.9461L43.4499 20.0722C43.6055 20.1241 43.7697 20.1241 43.9425 20.0722L45.213 22.2761C45.1784 22.3625 45.1438 22.423 45.1093 22.4576ZM37.9014 23.4428C37.9187 23.4255 37.9359 23.391 37.9532 23.3391C37.9705 23.2873 37.9964 23.2527 38.031 23.2354H41.0645L39.5607 25.8282C39.4052 25.7763 39.241 25.7763 39.0681 25.8282L37.7977 23.6243C37.8322 23.5379 37.8668 23.4774 37.9014 23.4428Z" fill="white"/>
<g clip-path="url(#clip0_1525_23976)">
<path d="M8.5 26L10 30L11.5 26L13 30L14.5 26M16 27V30M23 26H21V28M21 30V28M21 28H22.5M24.5 27V30M18 28H19" stroke="currentColor" stroke-linecap="round" stroke-linejoin="round"/>
<path d="M16.5 18C18.7091 18 20.5 16.2091 20.5 14C20.5 11.7909 18.7091 10 16.5 10C14.2909 10 12.5 11.7909 12.5 14C12.5 16.2091 14.2909 18 16.5 18Z" fill="currentColor"/>
<path d="M16.5 18C18.7091 18 20.5 16.2091 20.5 14C20.5 11.7909 18.7091 10 16.5 10C14.2909 10 12.5 11.7909 12.5 14C12.5 16.2091 14.2909 18 16.5 18Z" stroke="currentColor" stroke-linecap="round" stroke-linejoin="round"/>
<path d="M10.1353 20.3646C9.29867 19.5294 8.63493 18.5374 8.18206 17.4454C7.7292 16.3534 7.49609 15.1829 7.49609 14.0007C7.49609 12.8185 7.7292 11.6479 8.18206 10.5559C8.63493 9.46392 9.29867 8.47193 10.1353 7.63672" stroke="currentColor" stroke-linecap="round" stroke-linejoin="round"/>
<path d="M22.8633 7.63672C23.6999 8.47193 24.3637 9.46392 24.8165 10.5559C25.2694 11.6479 25.5025 12.8185 25.5025 14.0007C25.5025 15.1829 25.2694 16.3534 24.8165 17.4454C24.3637 18.5374 23.6999 19.5294 22.8633 20.3646" stroke="currentColor" stroke-linecap="round" stroke-linejoin="round"/>
<path d="M6.60155 23.9006C5.30011 22.6013 4.26762 21.0582 3.56316 19.3596C2.8587 17.6609 2.49609 15.84 2.49609 14.0011C2.49609 12.1621 2.8587 10.3412 3.56316 8.64254C4.26762 6.94387 5.30011 5.40078 6.60155 4.10156" stroke="currentColor" stroke-linecap="round" stroke-linejoin="round"/>
<path d="M26.3984 4.10156C27.6999 5.40078 28.7324 6.94388 29.4368 8.64254C30.1413 10.3412 30.5039 12.1621 30.5039 14.0011C30.5039 15.84 30.1413 17.6609 29.4368 19.3596C28.7324 21.0582 27.6999 22.6013 26.3984 23.9006" stroke="currentColor" stroke-linecap="round" stroke-linejoin="round"/>
</g>
<defs>
<clipPath id="clip0_1525_23976">
<rect width="32" height="32" fill="white" transform="translate(0.5)"/>
</clipPath>
</defs>
</svg>
