
<svg width="50" height="32" viewBox="0 0 50 32" fill="none" xmlns="http://www.w3.org/2000/svg">
<g clip-path="url(#clip0_1525_23959)">
<path d="M8.25 26L9.75 30L11.25 26L12.75 30L14.25 26M15.75 27V30M22.75 26H20.75V28M20.75 30V28M20.75 28H22.25M24.25 27V30M17.75 28H18.75" stroke="currentColor" stroke-linecap="round" stroke-linejoin="round"/>
<path d="M16.25 18C18.4591 18 20.25 16.2091 20.25 14C20.25 11.7909 18.4591 10 16.25 10C14.0409 10 12.25 11.7909 12.25 14C12.25 16.2091 14.0409 18 16.25 18Z" fill="currentColor"/>
<path d="M16.25 18C18.4591 18 20.25 16.2091 20.25 14C20.25 11.7909 18.4591 10 16.25 10C14.0409 10 12.25 11.7909 12.25 14C12.25 16.2091 14.0409 18 16.25 18Z" stroke="currentColor" stroke-linecap="round" stroke-linejoin="round"/>
<path d="M9.88532 20.3646C9.04867 19.5294 8.38493 18.5374 7.93206 17.4454C7.4792 16.3534 7.24609 15.1829 7.24609 14.0007C7.24609 12.8185 7.4792 11.6479 7.93206 10.5559C8.38493 9.46392 9.04867 8.47193 9.88532 7.63672" stroke="currentColor" stroke-linecap="round" stroke-linejoin="round"/>
<path d="M22.6133 7.63672C23.4499 8.47193 24.1137 9.46392 24.5665 10.5559C25.0194 11.6479 25.2525 12.8185 25.2525 14.0007C25.2525 15.1829 25.0194 16.3534 24.5665 17.4454C24.1137 18.5374 23.4499 19.5294 22.6133 20.3646" stroke="currentColor" stroke-linecap="round" stroke-linejoin="round"/>
<path d="M6.35155 23.9006C5.05011 22.6013 4.01762 21.0582 3.31316 19.3596C2.6087 17.6609 2.24609 15.84 2.24609 14.0011C2.24609 12.1621 2.6087 10.3412 3.31316 8.64254C4.01762 6.94387 5.05011 5.40078 6.35155 4.10156" stroke="currentColor" stroke-linecap="round" stroke-linejoin="round"/>
<path d="M26.1484 4.10156C27.4499 5.40078 28.4824 6.94388 29.1868 8.64254C29.8913 10.3412 30.2539 12.1621 30.2539 14.0011C30.2539 15.84 29.8913 17.6609 29.1868 19.3596C28.4824 21.0582 27.4499 22.6013 26.1484 23.9006" stroke="currentColor" stroke-linecap="round" stroke-linejoin="round"/>
</g>
<circle cx="41.75" cy="23" r="8" fill="#565758"/>
<path d="M37.25 19.25V26.7383H46.25V19.25H37.25ZM45.4941 23.75C45.4941 23.9492 45.418 24.125 45.2656 24.2773C45.125 24.418 44.9551 24.4883 44.7559 24.4883H44V25.2441H42.875V26H40.625V25.2441H39.5V24.4883H38.7441C38.5449 24.4883 38.3691 24.418 38.2168 24.2773C38.0762 24.125 38.0059 23.9492 38.0059 23.75V20.7441C38.0059 20.5449 38.0762 20.3691 38.2168 20.2168C38.3691 20.0645 38.5449 19.9883 38.7441 19.9883H44.7559C44.9551 19.9883 45.125 20.0645 45.2656 20.2168C45.418 20.3691 45.4941 20.5449 45.4941 20.7441V23.75Z" fill="white"/>
<defs>
<clipPath id="clip0_1525_23959">
<rect width="32" height="32" fill="white" transform="translate(0.25)"/>
</clipPath>
</defs>
</svg>
