<svg width="24" height="24" viewBox="0 0 24 24" fill="none" xmlns="http://www.w3.org/2000/svg">
<path d="M9 19.5V22.5H10.5M10.875 19.5H12M13.125 19.5H12M12 19.5V22.5M15.75 19.5H14.25V21M15.75 22.5H14.25V21M14.25 21H15.375" stroke="#333333" stroke-linecap="round" stroke-linejoin="round"/>
<path d="M12 13.5C13.6569 13.5 15 12.1569 15 10.5C15 8.84315 13.6569 7.5 12 7.5C10.3431 7.5 9 8.84315 9 10.5C9 12.1569 10.3431 13.5 12 13.5Z" fill="#333333"/>
<path d="M12 13.5C13.6569 13.5 15 12.1569 15 10.5C15 8.84315 13.6569 7.5 12 7.5C10.3431 7.5 9 8.84315 9 10.5C9 12.1569 10.3431 13.5 12 13.5Z" stroke="#333333" stroke-linecap="round" stroke-linejoin="round"/>
<path d="M7.22649 15.2735C6.59901 14.6471 6.1012 13.9031 5.76155 13.0841C5.4219 12.2651 5.24707 11.3871 5.24707 10.5005C5.24707 9.61387 5.4219 8.73594 5.76155 7.91694C6.1012 7.09794 6.59901 6.35395 7.22649 5.72754" stroke="#333333" stroke-linecap="round" stroke-linejoin="round"/>
<path d="M16.7725 5.72754C17.3999 6.35395 17.8978 7.09794 18.2374 7.91694C18.5771 8.73594 18.7519 9.61387 18.7519 10.5005C18.7519 11.3871 18.5771 12.2651 18.2374 13.0841C17.8978 13.9031 17.3999 14.6471 16.7725 15.2735" stroke="#333333" stroke-linecap="round" stroke-linejoin="round"/>
<path d="M4.57617 17.9254C3.60008 16.951 2.82571 15.7937 2.29737 14.5197C1.76902 13.2457 1.49707 11.88 1.49707 10.5008C1.49707 9.12158 1.76902 7.75591 2.29737 6.48191C2.82571 5.20791 3.60008 4.05059 4.57617 3.07617" stroke="#333333" stroke-linecap="round" stroke-linejoin="round"/>
<path d="M19.4238 3.07617C20.3999 4.05059 21.1743 5.20791 21.7026 6.48191C22.231 7.75591 22.5029 9.12158 22.5029 10.5008C22.5029 11.88 22.231 13.2457 21.7026 14.5197C21.1743 15.7937 20.3999 16.951 19.4238 17.9254" stroke="#333333" stroke-linecap="round" stroke-linejoin="round"/>
</svg>
