<svg xmlns="http://www.w3.org/2000/svg" width="32" height="32" fill="none" viewBox="0 0 32 32">
  <g clip-path="url(#a)">
    <path stroke="currentColor" stroke-linecap="round" stroke-linejoin="round" d="m8 26 1.5 4 1.5-4 1.5 4 1.5-4m1.5 1v3m7-4h-2v2m0 2v-2m0 0H22m2-1v3m-6.5-2h1"/>
    <path fill="currentColor" d="M16 18a4 4 0 1 0 0-8 4 4 0 0 0 0 8Z"/>
    <path stroke="currentColor" stroke-linecap="round" stroke-linejoin="round" d="M16 18a4 4 0 1 0 0-8 4 4 0 0 0 0 8ZM9.635 20.365a8.992 8.992 0 0 1 0-12.728M22.363 7.637a8.992 8.992 0 0 1 0 12.728M6.102 23.9a13.99 13.99 0 0 1 0-19.798M25.898 4.102a13.986 13.986 0 0 1 0 19.799"/>
  </g>
  <defs>
    <clipPath id="a">
      <path fill="#fff" d="M0 0h32v32H0z"/>
    </clipPath>
  </defs>
</svg>
