<svg width="32" height="32" viewBox="0 0 32 32" fill="none" xmlns="http://www.w3.org/2000/svg">
<g clip-path="url(#clip0_1525_23993)">
<path d="M8 26L9.5 30L11 26L12.5 30L14 26M15.5 27V30M22.5 26H20.5V28M20.5 30V28M20.5 28H22M24 27V30M17.5 28H18.5" stroke="currentColor" stroke-linecap="round" stroke-linejoin="round"/>
<path d="M16 18C18.2091 18 20 16.2091 20 14C20 11.7909 18.2091 10 16 10C13.7909 10 12 11.7909 12 14C12 16.2091 13.7909 18 16 18Z" fill="currentColor"/>
<path d="M16 18C18.2091 18 20 16.2091 20 14C20 11.7909 18.2091 10 16 10C13.7909 10 12 11.7909 12 14C12 16.2091 13.7909 18 16 18Z" stroke="currentColor" stroke-linecap="round" stroke-linejoin="round"/>
<path d="M9.63532 20.3646C8.79867 19.5294 8.13493 18.5374 7.68206 17.4454C7.2292 16.3534 6.99609 15.1829 6.99609 14.0007C6.99609 12.8185 7.2292 11.6479 7.68206 10.5559C8.13493 9.46392 8.79867 8.47193 9.63532 7.63672" stroke="currentColor" stroke-linecap="round" stroke-linejoin="round"/>
<path d="M22.3633 7.63672C23.1999 8.47193 23.8637 9.46392 24.3165 10.5559C24.7694 11.6479 25.0025 12.8185 25.0025 14.0007C25.0025 15.1829 24.7694 16.3534 24.3165 17.4454C23.8637 18.5374 23.1999 19.5294 22.3633 20.3646" stroke="currentColor" stroke-linecap="round" stroke-linejoin="round"/>
<path d="M6.10155 23.9006C4.80011 22.6013 3.76762 21.0582 3.06316 19.3596C2.3587 17.6609 1.99609 15.84 1.99609 14.0011C1.99609 12.1621 2.3587 10.3412 3.06316 8.64254C3.76762 6.94387 4.80011 5.40078 6.10155 4.10156" stroke="currentColor" stroke-linecap="round" stroke-linejoin="round"/>
<path d="M25.8984 4.10156C27.1999 5.40078 28.2324 6.94388 28.9368 8.64254C29.6413 10.3412 30.0039 12.1621 30.0039 14.0011C30.0039 15.84 29.6413 17.6609 28.9368 19.3596C28.2324 21.0582 27.1999 22.6013 25.8984 23.9006" stroke="currentColor" stroke-linecap="round" stroke-linejoin="round"/>
</g>
<defs>
<clipPath id="clip0_1525_23993">
<rect width="32" height="32" fill="white"/>
</clipPath>
</defs>
</svg>
