<svg width="24" height="24" viewBox="0 0 24 24" fill="none" xmlns="http://www.w3.org/2000/svg">
<path d="M12 15C13.6569 15 15 13.6569 15 12C15 10.3431 13.6569 9 12 9C10.3431 9 9 10.3431 9 12C9 13.6569 10.3431 15 12 15Z" fill="#333333"/>
<path d="M12 15C13.6569 15 15 13.6569 15 12C15 10.3431 13.6569 9 12 9C10.3431 9 9 10.3431 9 12C9 13.6569 10.3431 15 12 15Z" stroke="#333333" stroke-linecap="round" stroke-linejoin="round"/>
<path d="M7.22759 16.7727C6.6001 16.1462 6.1023 15.4023 5.76265 14.5833C5.423 13.7643 5.24817 12.8863 5.24817 11.9997C5.24817 11.113 5.423 10.2351 5.76265 9.41611C6.1023 8.59711 6.6001 7.85312 7.22759 7.22671" stroke="#333333" stroke-linecap="round" stroke-linejoin="round"/>
<path d="M16.7733 7.22671C17.4008 7.85312 17.8986 8.59711 18.2383 9.41611C18.5779 10.2351 18.7527 11.113 18.7527 11.9997C18.7527 12.8863 18.5779 13.7643 18.2383 14.5833C17.8986 15.4023 17.4008 16.1462 16.7733 16.7727" stroke="#333333" stroke-linecap="round" stroke-linejoin="round"/>
<path d="M4.57635 19.4256C3.60027 18.4512 2.8259 17.2939 2.29755 16.0199C1.76921 14.7459 1.49725 13.3802 1.49725 12.001C1.49725 10.6218 1.76921 9.2561 2.29755 7.9821C2.8259 6.7081 3.60027 5.55078 4.57635 4.57637" stroke="#333333" stroke-linecap="round" stroke-linejoin="round"/>
<path d="M19.4237 4.57631C20.3998 5.55072 21.1742 6.70804 21.7025 7.98204C22.2309 9.25604 22.5028 10.6217 22.5028 12.0009C22.5028 13.3801 22.2309 14.7458 21.7025 16.0198C21.1742 17.2938 20.3998 18.4511 19.4237 19.4255" stroke="#333333" stroke-linecap="round" stroke-linejoin="round"/>
</svg>
