<svg xmlns="http://www.w3.org/2000/svg" width="32" height="32" viewBox="0 0 32 32" fill="none" fill-rule="evenodd">
  <path fill="currentColor" fill-rule="nonzero" d="M9.202 6.111a12 12 0 0 0-1.227 18.81A8.999 8.999 0 0 1 16 20v-.497c-.99 0-1.933-.375-2.489-.746a4.808 4.808 0 0 1-1.548-1.754c-.312-.592-.464-1.34-.464-2.003 0-.107-.006-1.003.414-1.897.217-.463.564-.941.93-1.307a4.835 4.835 0 0 1 1.416-.955c.647-.291 1.433-.336 1.746-.336.62 0 1.233.116 1.826.382.5.224 1.206.66 1.78 1.428.573.768.894 1.696.894 2.685 0 1.077-.449 2.318-1.301 3.164-.625.62-1.73 1.339-3.204 1.339l.001.497a8.996 8.996 0 0 1 8.024 4.922A12.001 12.001 0 0 0 9.202 6.112Z"/>
  <path stroke="currentColor" stroke-linecap="round" stroke-linejoin="round" d="M16 28c6.627 0 12-5.373 12-12S22.627 4 16 4 4 9.373 4 16s5.373 12 12 12Z"/>
  <path stroke="currentColor" stroke-linecap="round" stroke-linejoin="round" d="M16 20a5 5 0 1 0 0-10 5 5 0 0 0 0 10Z"/>
  <path stroke="currentColor" stroke-linecap="round" stroke-linejoin="round" d="M7.976 24.922a9.004 9.004 0 0 1 16.05 0"/>
</svg>
