<svg width="24" height="24" viewBox="0 0 24 24" fill="none" xmlns="http://www.w3.org/2000/svg">
<g clip-path="url(#clip0_9099_27088)">
<path d="M19.7113 9.92518C18.7736 9.66219 17.727 9.94297 17.0526 10.7306C16.3783 11.5182 16.262 12.5956 16.6663 13.4815L12.3798 17.9088C11.9896 18.3645 12.1561 18.9503 12.6124 19.341C13.0688 19.7318 13.5236 19.885 13.9138 19.4293L18.3188 14.8965C19.2565 15.1595 20.3031 14.8787 20.9775 14.0911C21.6518 13.3035 21.7681 12.2261 21.3639 11.3401L20.1063 12.8089C19.7161 13.2646 19.0298 13.3173 18.5735 12.9266C18.1171 12.5359 18.0635 11.8497 18.4537 11.3939L19.7113 9.92518Z" fill="#333333"/>
<path d="M19.7113 9.92518L19.8252 10.0227C19.8585 9.98384 19.8697 9.93063 19.8548 9.88162C19.8399 9.83262 19.8011 9.79458 19.7518 9.78075L19.7113 9.92518ZM16.6663 13.4815L16.774 13.5859L16.8452 13.5124L16.8027 13.4193L16.6663 13.4815ZM12.3798 17.9088L12.2719 17.8042L12.2659 17.8112L12.3798 17.9088ZM13.9138 19.4293L13.806 19.3245L13.7999 19.3317L13.9138 19.4293ZM18.3188 14.8965L18.3593 14.7521L18.2734 14.728L18.2113 14.792L18.3188 14.8965ZM21.3639 11.3401L21.5003 11.2779C21.4791 11.2313 21.4355 11.1988 21.3848 11.1916C21.3341 11.1845 21.2832 11.2037 21.2499 11.2426L21.3639 11.3401ZM19.7518 9.78075C18.7601 9.5026 17.6525 9.79937 16.9387 10.633L17.1666 10.8281C17.8015 10.0866 18.7872 9.82177 19.6708 10.0696L19.7518 9.78075ZM16.9387 10.633C16.2249 11.4667 16.1022 12.6068 16.5298 13.5438L16.8027 13.4193C16.4218 12.5844 16.5316 11.5697 17.1666 10.8281L16.9387 10.633ZM16.5585 13.3772L12.2721 17.8044L12.4876 18.0131L16.774 13.5859L16.5585 13.3772ZM12.2659 17.8112C12.0402 18.0748 11.9729 18.3821 12.0315 18.6784C12.0892 18.9702 12.2667 19.2425 12.5149 19.455L12.71 19.2271C12.5018 19.0489 12.3679 18.8328 12.3258 18.6202C12.2846 18.4119 12.3293 18.1985 12.4938 18.0063L12.2659 17.8112ZM12.5149 19.455C12.7503 19.6565 13.005 19.8151 13.2675 19.8512C13.5446 19.8893 13.8043 19.7878 14.0278 19.5268L13.7999 19.3317C13.6331 19.5265 13.4703 19.5762 13.3084 19.554C13.1318 19.5297 12.9309 19.4162 12.71 19.2271L12.5149 19.455ZM14.0214 19.5338L18.4264 15.001L18.2113 14.792L13.8062 19.3247L14.0214 19.5338ZM18.2783 15.0409C19.27 15.3191 20.3777 15.0223 21.0914 14.1887L20.8636 13.9936C20.2286 14.7351 19.243 14.9999 18.3593 14.7521L18.2783 15.0409ZM21.0914 14.1887C21.8052 13.355 21.9279 12.2149 21.5003 11.2779L21.2274 11.4024C21.6083 12.2373 21.4985 13.252 20.8636 13.9936L21.0914 14.1887ZM21.2499 11.2426L19.9924 12.7113L20.2202 12.9064L21.4778 11.4377L21.2499 11.2426ZM19.9924 12.7113C19.6561 13.104 19.0646 13.1496 18.671 12.8127L18.4759 13.0405C18.995 13.485 19.776 13.4252 20.2202 12.9064L19.9924 12.7113ZM18.671 12.8127C18.2775 12.4757 18.2314 11.8841 18.5677 11.4915L18.3398 11.2964C17.8956 11.8152 17.9568 12.596 18.4759 13.0405L18.671 12.8127ZM18.5677 11.4915L19.8252 10.0227L19.5973 9.82762L18.3398 11.2964L18.5677 11.4915Z" fill="#333333"/>
<circle cx="8.87587" cy="8.16713" r="3.91713" stroke="#333333"/>
<path d="M2.25 19.2099C2.25 15.3066 5.41419 12.1425 9.31741 12.1425" stroke="#333333"/>
<path d="M9.31743 12.1425C11.3724 12.1425 13.239 12.9825 14.618 14.351" stroke="#333333"/>
</g>
<defs>
<clipPath id="clip0_9099_27088">
<rect width="24" height="24" fill="white"/>
</clipPath>
</defs>
</svg>
