<svg width="24" height="24" viewBox="0 0 24 24" fill="none" xmlns="http://www.w3.org/2000/svg">
<path d="M19.4179 9.46775C18.5497 9.22423 17.5805 9.48422 16.9561 10.2135C16.3317 10.9427 16.2241 11.9403 16.5984 12.7607L12.6295 16.86C12.2682 17.2819 12.4223 17.8243 12.8449 18.1861C13.2674 18.5479 13.6885 18.6898 14.0498 18.2678L18.1286 14.0708C18.9968 14.3143 19.9659 14.0544 20.5903 13.3251C21.2147 12.5958 21.3223 11.5982 20.948 10.7779L19.7836 12.1378C19.4223 12.5598 18.7869 12.6086 18.3643 12.2468C17.9418 11.885 17.8921 11.2497 18.2535 10.8277L19.4179 9.46775Z" fill="currentColor" stroke-opacity="0"/>
<path d="M19.4179 9.46775L19.5318 9.5653C19.5651 9.5264 19.5763 9.4732 19.5614 9.42419C19.5465 9.37518 19.5077 9.33715 19.4584 9.32332L19.4179 9.46775ZM16.5984 12.7607L16.7062 12.865L16.7773 12.7915L16.7349 12.6984L16.5984 12.7607ZM12.6295 16.86L12.5215 16.7554L12.5155 16.7624L12.6295 16.86ZM14.0498 18.2678L13.942 18.1631L13.9359 18.1703L14.0498 18.2678ZM18.1286 14.0708L18.1691 13.9264L18.0832 13.9023L18.021 13.9663L18.1286 14.0708ZM20.948 10.7779L21.0845 10.7156C21.0632 10.669 21.0197 10.6365 20.9689 10.6294C20.9182 10.6222 20.8674 10.6414 20.8341 10.6803L20.948 10.7779ZM19.4584 9.32332C18.5361 9.06465 17.506 9.34062 16.8422 10.1159L17.0701 10.311C17.6551 9.62782 18.5632 9.38382 19.3773 9.61217L19.4584 9.32332ZM16.8422 10.1159C16.1784 10.8912 16.0643 11.9515 16.4619 12.8229L16.7349 12.6984C16.3838 11.9291 16.4851 10.9943 17.0701 10.311L16.8422 10.1159ZM16.4906 12.6563L12.5217 16.7556L12.7373 16.9643L16.7062 12.865L16.4906 12.6563ZM12.5155 16.7624C12.3043 17.0091 12.2412 17.2972 12.2961 17.5747C12.3501 17.8479 12.516 18.102 12.7473 18.3001L12.9424 18.0722C12.7512 17.9084 12.6287 17.7105 12.5904 17.5165C12.5529 17.3269 12.5934 17.1328 12.7434 16.9575L12.5155 16.7624ZM12.7473 18.3001C12.9658 18.4872 13.2037 18.6356 13.4499 18.6695C13.7107 18.7054 13.9548 18.6095 14.1638 18.3654L13.9359 18.1703C13.7836 18.3482 13.6365 18.3923 13.4907 18.3723C13.3304 18.3502 13.1464 18.2469 12.9424 18.0722L12.7473 18.3001ZM14.1574 18.3724L18.2361 14.1754L18.021 13.9663L13.9423 18.1633L14.1574 18.3724ZM18.088 14.2153C19.0103 14.4739 20.0404 14.198 20.7042 13.4226L20.4763 13.2275C19.8914 13.9107 18.9832 14.1548 18.1691 13.9264L18.088 14.2153ZM20.7042 13.4226C21.368 12.6473 21.4821 11.587 21.0845 10.7156L20.8115 10.8402C21.1626 11.6094 21.0613 12.5443 20.4763 13.2275L20.7042 13.4226ZM20.8341 10.6803L19.6697 12.0403L19.8976 12.2354L21.062 10.8755L20.8341 10.6803ZM19.6697 12.0403C19.3624 12.3992 18.8216 12.4409 18.4619 12.1329L18.2668 12.3608C18.7521 12.7763 19.4822 12.7204 19.8976 12.2354L19.6697 12.0403ZM18.4619 12.1329C18.1021 11.8249 18.0601 11.2842 18.3674 10.9252L18.1395 10.7301C17.7242 11.2152 17.7814 11.9452 18.2668 12.3608L18.4619 12.1329ZM18.3674 10.9252L19.5318 9.5653L19.3039 9.37019L18.1395 10.7301L18.3674 10.9252Z" fill="currentColor" stroke-opacity="0"/>
<circle cx="9.38506" cy="7.83993" r="3.58993" stroke="currentColor"/>
<path d="M3.25 18.0646C3.25 14.4506 6.1798 11.5208 9.79389 11.5208" stroke="currentColor"/>
<path d="M9.79392 11.5208C11.6967 11.5208 13.425 12.2986 14.7018 13.5657" stroke="currentColor"/>
</svg>
