<svg width="20" height="20" viewBox="0 0 20 20" fill="none" xmlns="http://www.w3.org/2000/svg">
<path d="M8.49634 12.2512C7.46134 12.2512 6.62134 11.4112 6.62134 10.3762C6.62134 9.34122 7.46134 8.50122 8.49634 8.50122C9.53134 8.50122 10.3713 9.34122 10.3713 10.3762C10.3713 11.4112 9.53134 12.2512 8.49634 12.2512ZM8.49634 9.25122C7.87384 9.25122 7.37134 9.75372 7.37134 10.3762C7.37134 10.9987 7.87384 11.5012 8.49634 11.5012C9.11884 11.5012 9.62134 10.9987 9.62134 10.3762C9.62134 9.75372 9.11884 9.25122 8.49634 9.25122ZM11.8713 16.3762C10.8363 16.3762 9.99634 15.5362 9.99634 14.5012C9.99634 13.4662 10.8363 12.6262 11.8713 12.6262C12.9063 12.6262 13.7463 13.4662 13.7463 14.5012C13.7463 15.5362 12.9063 16.3762 11.8713 16.3762ZM11.8713 13.3762C11.2488 13.3537 10.7313 13.8412 10.7088 14.4562C10.6863 15.0787 11.1738 15.5962 11.7888 15.6187C11.8188 15.6187 11.8413 15.6187 11.8713 15.6187C12.4938 15.5962 12.9738 15.0712 12.9513 14.4562C12.9288 13.8637 12.4563 13.3912 11.8713 13.3762ZM11.8713 8.12622C10.8363 8.12622 9.99634 7.28622 9.99634 6.25122C9.99634 5.21622 10.8363 4.37622 11.8713 4.37622C12.9063 4.37622 13.7463 5.21622 13.7463 6.25122C13.7463 7.28622 12.9063 8.12622 11.8713 8.12622ZM11.8713 5.12622C11.2488 5.12622 10.7463 5.62872 10.7463 6.25122C10.7463 6.87372 11.2488 7.37622 11.8713 7.37622C12.4938 7.37622 12.9963 6.87372 12.9963 6.25122C12.9963 5.62872 12.4938 5.12622 11.8713 5.12622Z" fill="currentColor"/>
<path d="M13.3713 14.1262H18.9963V14.8762H13.3713V14.1262ZM9.99634 10.0012H18.9963V10.7512H9.99634V10.0012ZM13.3713 5.87622H18.9963V6.62622H13.3713V5.87622Z" fill="currentColor"/>
<path d="M15.6213 19.0012H14.8713V16.4887C14.8413 14.6737 15.2463 12.8737 16.0563 11.2387C16.5288 10.2712 16.7688 9.20618 16.7463 8.13368C16.7613 6.57368 16.2063 5.05868 15.1788 3.88868C14.2713 2.86118 13.0488 2.15618 11.6988 1.90118C8.24882 1.15868 4.86632 3.35618 4.13882 6.80618C4.09382 7.01618 4.05632 7.23368 4.03382 7.44368C3.98132 8.00618 3.81632 8.55368 3.54632 9.04868L1.90382 12.0487L3.14882 12.5437C3.44132 12.6562 3.62882 12.9412 3.62132 13.2562V15.6262H6.24632C6.65882 15.6262 6.99632 15.9637 6.99632 16.3762V19.0012H6.24632V16.3762H3.62132C3.20882 16.3762 2.87132 16.0387 2.87132 15.6262V13.2562L1.23632 12.6037C1.04132 12.5287 0.95132 12.3037 1.02632 12.1162C1.02632 12.1012 1.03382 12.0937 1.04132 12.0787L2.89382 8.70368C3.11132 8.29118 3.24632 7.84868 3.29132 7.38368C3.70382 3.46868 7.20632 0.626182 11.1213 1.03868C11.3613 1.06118 11.6088 1.10618 11.8413 1.15118C13.3488 1.44368 14.7213 2.23118 15.7338 3.37868C16.8813 4.69118 17.5113 6.37868 17.4888 8.11868C17.5038 9.31118 17.2413 10.4812 16.7163 11.5537C15.9663 13.0837 15.5838 14.7712 15.6138 16.4737V18.9862L15.6213 19.0012Z" fill="currentColor"/>
</svg>
