<svg width="48" height="48" viewBox="0 0 48 48" fill="none" xmlns="http://www.w3.org/2000/svg">
<g id="Group 11720">
<g id="Ellipse 4691" style="mix-blend-mode:multiply">
<circle cx="24" cy="24" r="24" fill="url(#paint0_linear_40929_2593)"/>
</g>
<g id="Group 11719">
<g id="Group 11711">
<circle id="Ellipse 4686" cx="20.1574" cy="11.2321" r="2.23165" fill="white"/>
<circle id="Ellipse 4687" cx="14.9513" cy="13.1652" r="1.78532" fill="white"/>
<circle id="Ellipse 4688" cx="11.3816" cy="16.1419" r="1.19021" fill="white"/>
<circle id="Ellipse 4689" cx="9.89266" cy="19.1163" r="0.892658" fill="white"/>
<ellipse id="Ellipse 4690" cx="9.74388" cy="22.241" rx="0.743882" ry="0.743882" fill="white"/>
</g>
<g id="Group 11712">
<ellipse id="Ellipse 4686_2" cx="11.2805" cy="27.3109" rx="2.23165" ry="2.23165" transform="rotate(-89.749 11.2805 27.3109)" fill="white"/>
<ellipse id="Ellipse 4687_2" cx="13.1916" cy="32.5262" rx="1.78532" ry="1.78532" transform="rotate(-89.749 13.1916 32.5262)" fill="white"/>
<circle id="Ellipse 4688_2" cx="16.1524" cy="36.1099" r="1.19021" transform="rotate(-89.749 16.1524 36.1099)" fill="white"/>
<ellipse id="Ellipse 4689_2" cx="19.1212" cy="37.6113" rx="0.892658" ry="0.892658" transform="rotate(-89.749 19.1212 37.6113)" fill="white"/>
<circle id="Ellipse 4690_2" cx="22.2452" cy="37.7731" r="0.743882" transform="rotate(-89.749 22.2452 37.7731)" fill="white"/>
</g>
<g id="Group 11713">
<ellipse id="Ellipse 4686_3" cx="35.9479" cy="20.1627" rx="2.23165" ry="2.23165" transform="rotate(89.9031 35.9479 20.1627)" fill="white"/>
<circle id="Ellipse 4687_3" cx="34.0048" cy="14.9583" r="1.78532" transform="rotate(89.9031 34.0048 14.9583)" fill="white"/>
<circle id="Ellipse 4688_3" cx="31.0227" cy="11.3924" r="1.19021" transform="rotate(89.9031 31.0227 11.3924)" fill="white"/>
<circle id="Ellipse 4689_3" cx="28.0444" cy="9.91028" r="0.892658" transform="rotate(89.9031 28.0444 9.91028)" fill="white"/>
<ellipse id="Ellipse 4690_3" cx="24.9214" cy="9.76614" rx="0.743882" ry="0.743882" transform="rotate(89.9031 24.9214 9.76614)" fill="white"/>
</g>
<g id="Group 11714">
<ellipse id="Ellipse 4686_4" cx="27.2902" cy="35.9051" rx="2.23165" ry="2.23165" transform="rotate(178.588 27.2902 35.9051)" fill="white"/>
<ellipse id="Ellipse 4687_4" cx="32.4505" cy="33.8417" rx="1.78532" ry="1.78532" transform="rotate(178.588 32.4505 33.8417)" fill="white"/>
<ellipse id="Ellipse 4688_4" cx="35.9449" cy="30.7799" rx="1.19021" ry="1.19021" transform="rotate(178.588 35.9449 30.7799)" fill="white"/>
<ellipse id="Ellipse 4689_4" cx="37.3591" cy="27.7688" rx="0.892658" ry="0.892658" transform="rotate(178.588 37.3591 27.7688)" fill="white"/>
<ellipse id="Ellipse 4690_4" cx="37.4314" cy="24.6414" rx="0.743882" ry="0.743882" transform="rotate(178.588 37.4314 24.6414)" fill="white"/>
</g>
<g id="Group 11715">
<circle id="Ellipse 4687_5" cx="1.78532" cy="1.78532" r="1.78532" transform="matrix(0.0180441 0.999837 0.999837 -0.0180441 10.8594 20.5176)" fill="white"/>
<circle id="Ellipse 4688_5" cx="1.19021" cy="1.19021" r="1.19021" transform="matrix(0.0180441 0.999837 0.999837 -0.0180441 14.375 17.4775)" fill="white"/>
<circle id="Ellipse 4689_5" cx="0.892658" cy="0.892658" r="0.892658" transform="matrix(0.0180441 0.999837 0.999837 -0.0180441 17.627 16.228)" fill="white"/>
<circle id="Ellipse 4690_5" cx="0.743882" cy="0.743882" r="0.743882" transform="matrix(0.0180441 0.999837 0.999837 -0.0180441 20.9004 16.1694)" fill="white"/>
</g>
<g id="Group 11716">
<ellipse id="Ellipse 4687_6" cx="1.78532" cy="1.78532" rx="1.78532" ry="1.78532" transform="matrix(-0.999339 0.0363616 0.0363616 0.999339 26.8496 11.5342)" fill="white"/>
<ellipse id="Ellipse 4688_6" cx="1.19021" cy="1.19021" rx="1.19021" ry="1.19021" transform="matrix(-0.999339 0.0363616 0.0363616 0.999339 29.9551 14.9941)" fill="white"/>
<ellipse id="Ellipse 4689_6" cx="0.892658" cy="0.892658" rx="0.892658" ry="0.892658" transform="matrix(-0.999339 0.0363616 0.0363616 0.999339 31.2617 18.2217)" fill="white"/>
<circle id="Ellipse 4690_6" cx="0.743882" cy="0.743882" r="0.743882" transform="matrix(-0.999339 0.0363616 0.0363616 0.999339 31.3809 21.4927)" fill="white"/>
</g>
<g id="Group 11717">
<ellipse id="Ellipse 4687_7" cx="1.78532" cy="1.78532" rx="1.78532" ry="1.78532" transform="matrix(0.0284818 -0.999594 -0.999594 -0.0284818 35.8945 26.8862)" fill="white"/>
<ellipse id="Ellipse 4688_7" cx="1.19021" cy="1.19021" rx="1.19021" ry="1.19021" transform="matrix(0.0284818 -0.999594 -0.999594 -0.0284818 32.2402 29.7588)" fill="white"/>
<ellipse id="Ellipse 4689_7" cx="0.892658" cy="0.892658" rx="0.892658" ry="0.892658" transform="matrix(0.0284818 -0.999594 -0.999594 -0.0284818 28.9355 30.856)" fill="white"/>
<circle id="Ellipse 4690_7" cx="0.743882" cy="0.743882" r="0.743882" transform="matrix(0.0284818 -0.999594 -0.999594 -0.0284818 25.6621 30.7622)" fill="white"/>
</g>
<g id="Group 11718">
<ellipse id="Ellipse 4687_8" cx="1.78532" cy="1.78532" rx="1.78532" ry="1.78532" transform="matrix(0.999321 -0.0368464 -0.0368464 -0.999321 20.4316 35.6074)" fill="white"/>
<ellipse id="Ellipse 4688_8" cx="1.19021" cy="1.19021" rx="1.19021" ry="1.19021" transform="matrix(0.999321 -0.0368464 -0.0368464 -0.999321 17.3281 32.1484)" fill="white"/>
<ellipse id="Ellipse 4689_8" cx="0.892658" cy="0.892658" rx="0.892658" ry="0.892658" transform="matrix(0.999321 -0.0368464 -0.0368464 -0.999321 16.0176 28.9209)" fill="white"/>
<ellipse id="Ellipse 4690_8" cx="0.743882" cy="0.743882" rx="0.743882" ry="0.743882" transform="matrix(0.999321 -0.0368464 -0.0368464 -0.999321 15.8965 25.6509)" fill="white"/>
</g>
</g>
</g>
<defs>
<linearGradient id="paint0_linear_40929_2593" x1="110" y1="-258" x2="5.29819" y2="-268.438" gradientUnits="userSpaceOnUse">
<stop offset="0.172438" stop-color="#06CBF7"/>
<stop offset="0.496416" stop-color="#A560FF"/>
<stop offset="0.743678" stop-color="#EC4C9A"/>
<stop offset="0.897242" stop-color="#F65650"/>
</linearGradient>
</defs>
</svg>
