<svg xmlns="http://www.w3.org/2000/svg" width="48" height="48" viewBox="0 0 48 48"><g data-name="AI-Driven RRM">
  <path fill="#0a1d35" d="M10 0h28a10 10 0 0 1 10 10v28a10 10 0 0 1-10 10H10A10 10 0 0 1 0 38V10A10 10 0 0 1 10 0Z" data-name="Path 9232"/><g data-name="Group 42">
  <path fill="#5aa8f6" d="M17.5 11a6.5 6.5 0 1 1-6.5 6.5 6.5 6.5 0 0 1 6.5-6.5Z" data-name="Path 9329"/>
  <path fill="#5aa8f6" d="M33.004 11a4 4 0 1 1-4 4 4 4 0 0 1 4-4Z" data-name="Path 9331"/>
  <path fill="#5aa8f6" d="M28.652 26.012a5.5 5.5 0 1 1-5.5 5.5 5.5 5.5 0 0 1 5.5-5.5Z" data-name="Path 9330"/>
  <path fill="#5aa8f5" d="m28.699 32.293-12-15 1.562-1.25 12 15Z" data-name="Line 4"/>
  <path fill="#5aa8f5" d="m30.197 31.966-1.947-.458 4-17 1.947.458Z" data-name="Line 5"/>
  <path fill="#5aa8f5" d="m18.469 17.904-.264-1.982 15-2 .264 1.982Z" data-name="Line 6"/>
  </g></g>
</svg>
