<svg xmlns="http://www.w3.org/2000/svg" width="48" height="48" viewBox="0 0 48 48"><g data-name="AI Operations">
  <path fill="#2c0301" d="M10.042 0h27.916A10.042 10.042 0 0 1 48 10.042v27.916A10.042 10.042 0 0 1 37.958 48H10.042A10.042 10.042 0 0 1 0 37.958V10.042A10.042 10.042 0 0 1 10.042 0Z" data-name="Path 9328"/><g fill="#eda03d" data-name="Group 11680">
  <path d="M33.589 15.223A13 13 0 0 0 10.999 24h2.438a10.562 10.562 0 0 1 18.426-7.051l-3.8 3.8H37v-8.936ZM34.562 24a10.562 10.562 0 0 1-18.426 7.051l3.8-3.8H11v8.937l3.41-3.41A13 13 0 0 0 37 24.001Z" data-name="Icon metro-loop2"/>
  <path d="M29.479 27.905a3.062 3.062 0 0 1 2.614-3.45l-.44-3.124a3.023 3.023 0 0 1-1.578-.189 3.062 3.062 0 0 1-1.679-3.993l-2.925-1.181a3.022 3.022 0 0 1-.954 1.275 3.062 3.062 0 0 1-4.296-.538l-2.485 1.942a3.023 3.023 0 0 1 .626 1.459 3.062 3.062 0 0 1-2.61 3.45l.442 3.125a3.023 3.023 0 0 1 1.569.193 3.062 3.062 0 0 1 1.685 3.977l2.925 1.182a3.023 3.023 0 0 1 .948-1.26 3.062 3.062 0 0 1 4.293.53l2.486-1.942a3.023 3.023 0 0 1-.62-1.455Zm-6.771-.891a3.25 3.25 0 1 1 4.23-1.796 3.25 3.25 0 0 1-4.231 1.795Z" data-name="Icon metro-cog"/>
  </g></g>
</svg>
