<svg width="24" height="24" viewBox="0 0 24 24" fill="none" xmlns="http://www.w3.org/2000/svg">
<path d="M10.4979 14.2537C9.46265 14.2537 8.62248 13.4135 8.62248 12.3783C8.62248 11.3431 9.46265 10.5029 10.4979 10.5029C11.5331 10.5029 12.3732 11.3431 12.3732 12.3783C12.3732 13.4135 11.5331 14.2537 10.4979 14.2537ZM13.8736 18.3795C12.8383 18.3795 11.9982 17.5393 11.9982 16.5041C11.9982 15.4689 12.8383 14.6288 13.8736 14.6288C14.9088 14.6288 15.7489 15.4689 15.7489 16.5041C15.7489 17.5393 14.9088 18.3795 13.8736 18.3795ZM13.8736 10.1278C12.8383 10.1278 11.9982 9.28767 11.9982 8.25246C11.9982 7.21725 12.8383 6.37708 13.8736 6.37708C14.9088 6.37708 15.7489 7.21725 15.7489 8.25246C15.7489 9.28767 14.9088 10.1278 13.8736 10.1278Z" fill="currentColor"/>
<path d="M15.3739 16.1291H21V16.8793H15.3739V16.1291ZM11.9982 12.0033H21V12.7534H11.9982V12.0033ZM15.3739 7.87744H21V8.62759H15.3739V7.87744Z" fill="currentColor"/>
<path d="M17.6243 21.0051H16.8741V18.4921C16.8441 16.6767 17.2492 14.8763 18.0594 13.241C18.532 12.2733 18.772 11.2081 18.7495 10.1354C18.7645 8.57506 18.2094 7.05975 17.1817 5.88951C16.274 4.8618 15.0513 4.15666 13.701 3.90161C10.2503 3.15896 6.86711 5.35691 6.13946 8.80761C6.09445 9.01765 6.05694 9.2352 6.03444 9.44524C5.98193 10.0079 5.81689 10.5555 5.54684 11.0506L3.904 14.0512L5.14926 14.5463C5.44182 14.6588 5.62936 14.9439 5.62185 15.2589V17.6294H8.24739C8.65997 17.6294 8.99754 17.967 8.99754 18.3796V21.0051H8.24739V18.3796H5.62185C5.20927 18.3796 4.8717 18.042 4.8717 17.6294V15.2589L3.23637 14.6063C3.04133 14.5313 2.95131 14.3062 3.02633 14.1187C3.02633 14.1037 3.03383 14.0962 3.04133 14.0812L4.89421 10.7055C5.11175 10.2929 5.24678 9.85032 5.29179 9.38523C5.70437 5.46943 9.20758 2.62635 13.1234 3.03893C13.3634 3.06144 13.611 3.10645 13.8435 3.15146C15.3513 3.44402 16.7241 4.23168 17.7368 5.37941C18.8846 6.69218 19.5147 8.38002 19.4922 10.1204C19.5072 11.3131 19.2446 12.4834 18.7195 13.5561C17.9694 15.0864 17.5868 16.7742 17.6168 18.4771V20.9901L17.6243 21.0051Z" fill="currentColor"/>
</svg>
