<svg width="40" height="40" viewBox="0 0 40 40" fill="none" xmlns="http://www.w3.org/2000/svg">
<path d="M31.0431 29.2204C18.8991 34.9999 11.3625 30.1643 6.538 27.2273C6.23947 27.0422 5.73206 27.2706 6.17231 27.7763C7.77957 29.7251 13.0469 34.4224 19.9224 34.4224C26.8025 34.4224 30.8956 30.6683 31.4076 30.0134C31.9162 29.364 31.5569 29.0058 31.043 29.2204H31.0431ZM34.4537 27.3368C34.1276 26.9122 32.4707 26.833 31.4279 26.9611C30.3836 27.0855 28.816 27.7238 28.9523 28.107C29.0222 28.2506 29.165 28.1862 29.8824 28.1217C30.6018 28.0499 32.6171 27.7955 33.037 28.3445C33.4589 28.8972 32.3943 31.5304 32.1998 31.9551C32.012 32.3797 32.2716 32.4893 32.6245 32.2064C32.9725 31.9237 33.6026 31.1915 34.0254 30.1553C34.4454 29.1135 34.7014 27.6602 34.4536 27.3368H34.4537Z" fill="#333333"/>
<path fill-rule="evenodd" clip-rule="evenodd" d="M22.8776 17.4275C22.8776 18.9439 22.916 20.2086 22.1495 21.5553C21.5308 22.6503 20.5509 23.3236 19.456 23.3236C17.9613 23.3236 17.0909 22.1849 17.0909 20.5042C17.0909 17.1865 20.0635 16.5844 22.8776 16.5844V17.4275ZM26.8029 26.9151C26.5456 27.1449 26.1733 27.1614 25.8832 27.0081C24.5912 25.9351 24.3612 25.4369 23.6495 24.4131C21.5144 26.5921 20.0034 27.2435 17.2333 27.2435C13.9594 27.2435 11.4082 25.2233 11.4082 21.1776C11.4082 18.0188 13.1219 15.8672 15.5579 14.8161C17.6712 13.8853 20.6221 13.7211 22.8776 13.4639V12.9602C22.8776 12.0349 22.9487 10.94 22.4068 10.1408C21.9305 9.42357 21.0217 9.12792 20.2223 9.12792C18.7388 9.12792 17.4139 9.88885 17.0909 11.4655C17.0251 11.816 16.7679 12.1609 16.4175 12.1773L12.64 11.7723C12.3225 11.701 11.9722 11.4437 12.0597 10.9564C12.9302 6.3797 17.0634 5 20.7642 5C22.6585 5 25.133 5.50371 26.6276 6.93812C28.5219 8.70637 28.3412 11.0659 28.3412 13.6335V19.6994C28.3412 21.5225 29.0967 22.3218 29.8084 23.3073C30.0602 23.6576 30.115 24.0793 29.7974 24.3419C29.0036 25.0043 27.5911 26.2362 26.8138 26.926L26.8028 26.9151" fill="#333333"/>
<path d="M31.0431 29.2204C18.8991 34.9999 11.3625 30.1643 6.538 27.2273C6.23947 27.0422 5.73206 27.2706 6.17231 27.7763C7.77957 29.7251 13.0469 34.4224 19.9224 34.4224C26.8025 34.4224 30.8956 30.6683 31.4076 30.0134C31.9162 29.364 31.5569 29.0058 31.043 29.2204H31.0431ZM34.4537 27.3368C34.1276 26.9122 32.4707 26.833 31.4279 26.9611C30.3836 27.0855 28.816 27.7238 28.9523 28.107C29.0222 28.2506 29.165 28.1862 29.8824 28.1217C30.6018 28.0499 32.6171 27.7955 33.037 28.3445C33.4589 28.8972 32.3943 31.5304 32.1998 31.9551C32.012 32.3797 32.2716 32.4893 32.6245 32.2064C32.9725 31.9237 33.6026 31.1915 34.0254 30.1553C34.4454 29.1135 34.7014 27.6602 34.4536 27.3368H34.4537Z" fill="#333333"/>
<path fill-rule="evenodd" clip-rule="evenodd" d="M22.8776 17.4275C22.8776 18.9439 22.916 20.2086 22.1495 21.5553C21.5308 22.6503 20.5509 23.3236 19.456 23.3236C17.9613 23.3236 17.0909 22.1849 17.0909 20.5042C17.0909 17.1865 20.0635 16.5844 22.8776 16.5844V17.4275ZM26.8029 26.9151C26.5456 27.1449 26.1733 27.1614 25.8832 27.0081C24.5912 25.9351 24.3612 25.4369 23.6495 24.4131C21.5144 26.5921 20.0034 27.2435 17.2333 27.2435C13.9594 27.2435 11.4082 25.2233 11.4082 21.1776C11.4082 18.0188 13.1219 15.8672 15.5579 14.8161C17.6712 13.8853 20.6221 13.7211 22.8776 13.4639V12.9602C22.8776 12.0349 22.9487 10.94 22.4068 10.1408C21.9305 9.42357 21.0217 9.12792 20.2223 9.12792C18.7388 9.12792 17.4139 9.88885 17.0909 11.4655C17.0251 11.816 16.7679 12.1609 16.4175 12.1773L12.64 11.7723C12.3225 11.701 11.9722 11.4437 12.0597 10.9564C12.9302 6.3797 17.0634 5 20.7642 5C22.6585 5 25.133 5.50371 26.6276 6.93812C28.5219 8.70637 28.3412 11.0659 28.3412 13.6335V19.6994C28.3412 21.5225 29.0967 22.3218 29.8084 23.3073C30.0602 23.6576 30.115 24.0793 29.7974 24.3419C29.0036 25.0043 27.5911 26.2362 26.8138 26.926L26.8028 26.9151" fill="#333333"/>
</svg>
