<svg width="40" height="40" viewBox="0 0 40 40" fill="none" xmlns="http://www.w3.org/2000/svg">
<path d="M27.7912 24.3116C27.0116 24.3116 26.3774 23.6762 26.3774 22.8955C26.3774 22.1148 27.0116 21.4798 27.7912 21.4798C28.5709 21.4798 29.205 22.1148 29.205 22.8955C29.205 23.6762 28.5709 24.3116 27.7912 24.3116ZM12.1635 24.3116C11.3838 24.3116 10.7496 23.6762 10.7496 22.8955C10.7496 22.1148 11.3838 21.4798 12.1635 21.4798C12.9431 21.4798 13.5773 22.1148 13.5773 22.8955C13.5773 23.6762 12.9431 24.3116 12.1635 24.3116ZM28.2983 15.7834L31.1241 10.8828C31.2861 10.6012 31.1897 10.2414 30.9089 10.0787C30.628 9.91652 30.2683 10.013 30.1058 10.2942L27.2447 15.2568C25.0567 14.2569 22.5994 13.7 19.9773 13.7C17.3553 13.7 14.8979 14.2569 12.71 15.2568L9.84885 10.2942C9.6864 10.013 9.32663 9.91652 9.0458 10.0787C8.76496 10.2414 8.66814 10.6012 8.83058 10.8828L11.6564 15.7834C6.80414 18.4259 3.48549 23.3449 3 29.1561H36.9547C36.4687 23.3449 33.1501 18.4259 28.2983 15.7834Z" fill="#333333"/>
</svg>
