<svg width="24" height="24" viewBox="0 0 24 24" fill="none" xmlns="http://www.w3.org/2000/svg">
<path d="M15.375 15.75C15.9963 15.75 16.5 15.2463 16.5 14.625C16.5 14.0037 15.9963 13.5 15.375 13.5C14.7537 13.5 14.25 14.0037 14.25 14.625C14.25 15.2463 14.7537 15.75 15.375 15.75Z" fill="#333333"/>
<path d="M8.625 15.75C9.24632 15.75 9.75 15.2463 9.75 14.625C9.75 14.0037 9.24632 13.5 8.625 13.5C8.00368 13.5 7.5 14.0037 7.5 14.625C7.5 15.2463 8.00368 15.75 8.625 15.75Z" fill="#333333"/>
<path d="M2.25 18V15.8558C2.25 10.4672 6.5769 6.01871 11.9655 6.00006C13.2488 5.99552 14.5203 6.24436 15.7073 6.73231C16.8942 7.22025 17.9731 7.93771 18.8821 8.84353C19.7911 9.74934 20.5124 10.8257 21.0045 12.0109C21.4967 13.196 21.75 14.4667 21.75 15.75V18C21.75 18.1989 21.671 18.3897 21.5303 18.5303C21.3897 18.671 21.1989 18.75 21 18.75H3C2.80109 18.75 2.61032 18.671 2.46967 18.5303C2.32902 18.3897 2.25 18.1989 2.25 18Z" stroke="#333333" stroke-linecap="round" stroke-linejoin="round"/>
<path d="M3 5.25L5.91306 8.16306" stroke="#333333" stroke-linecap="round" stroke-linejoin="round"/>
<path d="M20.9998 5.25L18.1033 8.14656" stroke="#333333" stroke-linecap="round" stroke-linejoin="round"/>
</svg>
