<svg width="78" height="38" viewBox="0 0 78 38" fill="none" xmlns="http://www.w3.org/2000/svg">
<path d="M13.495 34.043C13.1095 33.3576 5.01701 19.443 1.01894 12.5713V7.96634C0.894005 7.27025 1.32951 5.63176 4.07104 4.64652C7.49795 3.41498 20.9914 1.75513 28.0594 1.5409C34.4313 1.34778 42.8915 1.59445 45.8365 1.75509C48.7815 1.91572 51.5659 2.77245 53.2258 4.21818C54.8857 5.66391 76.2504 21.1921 76.6252 21.5134C76.925 21.7704 77 22.4058 77 22.6914L76.7323 28.3137C76.7858 28.4743 76.6641 28.9807 75.6078 29.3846C71.9667 30.7767 54.0825 32.9721 47.9248 33.6147C40.8032 34.3578 22.33 35.4352 17.2432 35.4352C15.636 35.4352 13.977 34.8997 13.495 34.043Z" fill="white" stroke="#333333"/>
<path d="M21.5268 25.904C19.4385 26.7607 15.4762 27.671 14.4588 27.5104L14.084 27.4568C14.2803 27.6888 14.9459 28.1941 16.2258 28.3671C18.207 28.6348 20.1882 28.4577 21.3662 28.3671C22.0623 28.3135 37.2156 25.904 46.4255 25.2079C55.6353 24.5118 68.8075 23.7086 71.1099 23.7086C73.4124 23.7086 75.2746 23.3583 75.7684 23.1732C76.1968 23.0125 76.7679 22.6734 76.9999 22.5306C76.9999 22.5306 76.9464 21.9952 76.8393 21.8345C76.7322 21.6739 76.5716 21.8881 76.2503 21.8881C75.929 21.8881 75.0723 21.8881 71.1099 21.1384C67.1476 20.3888 54.8857 19.9069 46.4255 20.4424C37.9653 20.9778 23.6151 25.0473 21.5268 25.904Z" stroke="#808284" stroke-width="0.5" stroke-linejoin="round"/>
<path d="M1.44727 7.69873C5.26684 13.7315 13.0881 26.097 13.8163 27.2964C14.7265 28.7957 17.6716 28.7421 18.6354 28.7421C19.5992 28.7421 42.8261 27.6022 48.835 27.0822C54.4038 26.6003 71.699 24.6191 74.3762 23.8695C75.7684 23.4797 76.6251 22.9057 76.8393 22.745" stroke="#808284" stroke-linecap="round"/>
<path d="M21.5268 25.904C19.4385 26.7607 15.4762 27.671 14.4588 27.5104L14.084 27.4568C14.2803 27.6889 14.9459 28.1941 16.2258 28.3671C18.207 28.6348 20.1882 28.4577 21.3662 28.3671C22.0623 28.3135 37.2156 25.904 46.4255 25.2079C55.6353 24.5118 68.8075 23.7086 71.1099 23.7086C73.4124 23.7086 75.2746 23.3583 75.7684 23.1732C76.1967 23.0125 76.7679 22.6734 76.9999 22.5306C76.9999 22.5306 76.9464 21.9952 76.8393 21.8345C76.7322 21.6739 76.5716 21.8881 76.2503 21.8881C75.929 21.8881 75.0723 21.8881 71.1099 21.1384C67.1476 20.3888 54.8856 19.9069 46.4255 20.4424C37.9653 20.9778 23.6151 25.0473 21.5268 25.904Z" fill="#F7F7F7"/>
<path d="M16.0652 35.3819C16.2972 35.8103 16.8041 36.7312 16.9755 36.9883C17.1896 37.3095 17.9393 37.4166 19.0102 37.3631C20.0811 37.3095 43.2663 36.078 50.4414 35.1677C57.6165 34.2574 70.5745 32.0085 71.3241 31.7408C72.0738 31.4731 72.5021 30.9912 72.5557 30.777C72.5985 30.6056 72.6806 30.3129 72.7163 30.188" stroke="#333333"/>
<path d="M41.553 27.5097L41.1782 27.0278L41.553 27.0063L41.9814 27.5097V28.5806H41.553V27.5097Z" fill="#333333"/>
<path d="M41.553 27.5097L41.1782 27.0278L41.553 27.0063L41.9814 27.5097V28.5806H41.553V27.5097Z" fill="#808284"/>
<path d="M44.6049 27.2423L44.1765 26.814H44.6049L45.0332 27.2423V28.3132H44.6049V27.2423Z" fill="#808284"/>
<path d="M47.6034 27.0289L47.175 26.6006H47.6034L48.0318 27.0289V28.0999H47.6034V27.0289Z" fill="#808284"/>
<path d="M50.495 26.7077L50.0667 26.2793H50.495L50.9234 26.7077V27.7786H50.495V26.7077Z" fill="#808284"/>
<path d="M53.3866 26.3859L52.9583 25.9575H53.3866L53.815 26.3859V27.4568H53.3866V26.3859Z" fill="#808284"/>
<path d="M56.278 26.0651L55.8496 25.6367H56.278L56.7063 26.0651V27.136H56.278V26.0651Z" fill="#808284"/>
<path d="M49.0081 18.3482C48.5309 17.9861 48.7222 17.7756 49.5821 17.7166C50.4166 17.6593 51.0668 17.8074 51.5328 18.1609L52.4497 18.8564L51.7553 18.9041L50.8344 18.2055C50.5769 18.0102 50.2552 17.9261 49.8653 17.9528C49.4755 17.9796 49.4185 18.0863 49.6663 18.2743L50.601 18.9833L49.9081 19.0308L49.0081 18.3482Z" fill="#C4C4C4"/>
<path d="M45.6258 18.0573C45.844 17.9925 46.1163 17.9511 46.4238 17.9358C46.8222 17.8986 47.3015 17.9299 47.7502 18.0224C48.1815 18.1197 48.5353 18.2669 48.7283 18.4293C48.9766 18.6033 49.0352 18.7847 48.8897 18.9297C48.733 19.0732 48.3919 19.1672 47.9445 19.1902C47.6899 19.2106 47.4128 19.2133 47.1249 19.1983L46.7803 18.9369C47.0585 18.9712 47.3339 18.9795 47.5776 18.961C47.8455 18.9465 48.0469 18.8884 48.1334 18.8006C48.2149 18.7103 48.1733 18.5989 48.0181 18.4927C47.8959 18.3894 47.6731 18.2954 47.4004 18.232C47.1279 18.1732 46.8336 18.1523 46.5886 18.1742C46.3272 18.1909 46.1064 18.2351 45.9487 18.3022L45.6258 18.0573Z" fill="#C4C4C4"/>
<path d="M40.2381 18.9497C39.7608 18.5877 39.9521 18.3771 40.8121 18.3181C41.6466 18.2609 42.2968 18.409 42.7628 18.7625L43.6797 19.458L42.9853 19.5057L42.0643 18.8071C41.8069 18.6117 41.4851 18.5277 41.0953 18.5544C40.7054 18.5812 40.6485 18.6879 40.8963 18.8759L41.831 19.5849L41.1381 19.6324L40.2381 18.9497Z" fill="#C4C4C4"/>
<path d="M39.2118 18.5017L39.5662 18.7705C39.2235 18.708 38.8674 18.6853 38.558 18.7062C38.4807 18.711 38.4082 18.7194 38.3417 18.731C38.291 18.74 38.2474 18.7525 38.2127 18.7679C38.1857 18.7802 38.1698 18.7957 38.1661 18.8132C38.164 18.8293 38.175 18.8468 38.1978 18.8638C38.228 18.8858 38.2743 18.9059 38.3303 18.9214C38.3958 18.9389 38.4659 18.9528 38.5374 18.9626C38.6277 18.9757 38.7185 18.986 38.8088 18.9934C38.9089 19.0026 39.0174 19.0118 39.1312 19.02C39.3801 19.0352 39.6345 19.0723 39.8715 19.1281C40.0659 19.1776 40.2246 19.2461 40.3186 19.3211C40.3969 19.3773 40.4368 19.4354 40.4342 19.4895C40.4299 19.5389 40.3905 19.5833 40.3191 19.6189C40.2403 19.657 40.1387 19.6877 40.0186 19.7096C39.8866 19.7335 39.7423 19.7507 39.5884 19.7611C39.4469 19.7714 39.3001 19.7774 39.149 19.7793C39.0232 19.7806 38.8929 19.7768 38.7603 19.7679L38.4294 19.5168C38.5017 19.5273 38.5745 19.5358 38.6469 19.542C38.7216 19.5484 38.7958 19.5529 38.8689 19.5555C38.9412 19.5582 39.0123 19.5591 39.0818 19.5582C39.1459 19.5572 39.2086 19.5547 39.2694 19.5507C39.342 19.546 39.41 19.538 39.472 19.5268C39.5231 19.5182 39.5672 19.5062 39.6027 19.4911C39.6315 19.4789 39.6491 19.4632 39.6539 19.4455C39.6589 19.4292 39.6488 19.411 39.6251 19.3934C39.6001 19.3739 39.5607 19.3559 39.5121 19.3417C39.4571 19.3262 39.3977 19.3135 39.3366 19.3044C39.2583 19.2922 39.1793 19.2825 39.1005 19.2752C39.0104 19.266 38.9111 19.2575 38.8019 19.2489C38.665 19.2392 38.5272 19.2264 38.3892 19.2105C38.2698 19.1958 38.1515 19.1758 38.0371 19.1512C37.9309 19.1278 37.8322 19.0983 37.7465 19.0643C37.6543 19.0261 37.5784 18.9839 37.523 18.9401C37.44 18.8815 37.3965 18.8207 37.3969 18.7638C37.4005 18.7141 37.4414 18.6697 37.5158 18.6348C37.5959 18.597 37.7001 18.5672 37.8234 18.5469C37.9613 18.5238 38.1103 18.5069 38.2682 18.4964C38.4292 18.485 38.5978 18.4797 38.772 18.4805C38.9141 18.4801 39.0621 18.4873 39.2118 18.5017Z" fill="#C4C4C4"/>
<path d="M44.3923 18.0954L45.0898 18.0475L46.6782 19.2524L45.9868 19.2999L44.3923 18.0954Z" fill="#C4C4C4"/>
<path d="M44.8099 18.6374L43.0478 18.1875L42.1736 18.2474L44.3451 18.7861L44.0301 19.434L44.8555 19.3774L45.0418 18.8171L44.8099 18.6374Z" fill="#C4C4C4"/>
<path d="M52.4802 18.0512C52.4186 18.0731 52.3685 18.099 52.3309 18.1282C52.209 18.2143 52.2274 18.3299 52.3808 18.4419C52.7182 18.6978 53.2742 18.7992 54.0488 18.7461L55.4788 18.6479L53.8903 17.443L53.1975 17.4905L54.5114 18.4873L53.8932 18.5297C53.5246 18.555 53.2597 18.5064 53.0982 18.384C52.9368 18.2615 53.0377 18.1856 53.4008 18.1563L53.7922 18.1294L51.7441 17.5936L50.87 17.6536L52.4802 18.0512Z" fill="#C4C4C4"/>
<path fill-rule="evenodd" clip-rule="evenodd" d="M37.8119 19.6397C37.7213 19.6703 37.7128 19.725 37.7903 19.7776C37.8346 19.8113 37.9114 19.8411 38.0028 19.8601C38.0941 19.8791 38.1919 19.8856 38.2731 19.878C38.4056 19.8691 38.4822 19.8286 38.4663 19.7758C38.4504 19.723 38.3452 19.6687 38.2009 19.6387C38.0566 19.6087 37.9024 19.6091 37.8119 19.6397ZM37.9813 19.6589C38.114 19.6493 38.2798 19.6848 38.3521 19.7383C38.3882 19.7643 38.3967 19.7913 38.3755 19.813C38.3544 19.8347 38.3054 19.8493 38.2399 19.8535C38.1066 19.8626 37.9413 19.8267 37.87 19.7731C37.7988 19.7196 37.8486 19.6685 37.9813 19.6589ZM38.0796 19.6913L38.1512 19.6864L38.3126 19.8088C38.2767 19.8144 38.238 19.8184 38.1972 19.8208C38.1614 19.8247 38.1196 19.8241 38.0769 19.819C38.0475 19.8142 38.0222 19.8049 38.0094 19.7942C37.9943 19.7798 38.0059 19.7664 38.0378 19.7616C37.9999 19.7589 37.9627 19.7488 37.9419 19.7355C37.9239 19.7251 37.902 19.7153 37.8772 19.7065L37.9564 19.7011C37.9807 19.7097 38.0022 19.7193 38.0203 19.7294C38.038 19.7429 38.072 19.7472 38.1116 19.7445L38.1466 19.7421L38.0796 19.6913ZM38.1382 19.7628L38.1717 19.7605L38.2201 19.7973C38.2081 19.7991 38.1948 19.8 38.1805 19.8C38.1348 19.8031 38.1054 19.7985 38.0885 19.7856C38.0715 19.7728 38.097 19.7657 38.1382 19.7628Z" fill="#C4C4C4"/>
<path d="M13.495 34.043C13.1095 33.3576 5.01701 19.443 1.01894 12.5713V7.96634C0.894005 7.27025 1.32951 5.63176 4.07104 4.64652C7.49795 3.41498 20.9914 1.75513 28.0594 1.5409C34.4313 1.34778 42.8915 1.59445 45.8365 1.75509C48.7815 1.91572 51.5659 2.77245 53.2258 4.21818C54.8857 5.66391 76.2504 21.1921 76.6252 21.5134C76.925 21.7704 77 22.4058 77 22.6914L76.7323 28.3137C76.7858 28.4743 76.6641 28.9807 75.6078 29.3846C71.9667 30.7767 54.0825 32.9721 47.9248 33.6147C40.8032 34.3578 22.33 35.4352 17.2432 35.4352C15.636 35.4352 13.977 34.8997 13.495 34.043Z" stroke="#333333"/>
</svg>
