<svg width="20" height="20" viewBox="0 0 20 20" fill="none" xmlns="http://www.w3.org/2000/svg">
<circle cx="10" cy="10.4" r="9.35" fill="white" stroke="#333333" stroke-width="0.5"/>
<path d="M8.82697 14.7664L6.76447 8.0457H6.71173C6.71954 8.20586 6.73126 8.44805 6.74689 8.77227C6.76642 9.09258 6.784 9.43438 6.79962 9.79766C6.81525 10.1609 6.82306 10.4891 6.82306 10.782V14.7664H5.20001V6.2H7.67267L9.70001 12.7508H9.73517L11.8856 6.2H14.3582V14.7664H12.6649V10.7117C12.6649 10.4422 12.6688 10.1316 12.6766 9.78008C12.6883 9.42852 12.702 9.09453 12.7176 8.77813C12.7332 8.45781 12.7449 8.21758 12.7527 8.05742H12.7L10.491 14.7664H8.82697Z" fill="#333333"/>
</svg>
