<svg width="16" height="16" viewBox="0 0 16 16" fill="none" xmlns="http://www.w3.org/2000/svg">
<g clip-path="url(#clip0_1219_22211)">
<path d="M5.80688 10.3779C6.39732 9.81388 7.18241 9.49918 7.99892 9.49918C8.81542 9.49918 9.60051 9.81388 10.191 10.3779" stroke="#23AB36" stroke-linecap="round" stroke-linejoin="round"/>
<path d="M3.68616 8.25662C4.83926 7.13001 6.38739 6.49926 7.99951 6.49926C9.61162 6.49926 11.1598 7.13001 12.3129 8.25662" stroke="#23AB36" stroke-linecap="round" stroke-linejoin="round"/>
<path d="M1.56702 6.13539C3.2821 4.44619 5.59278 3.49935 8.00004 3.49935C10.4073 3.49935 12.718 4.44619 14.4331 6.13539" stroke="#23AB36" stroke-linecap="round" stroke-linejoin="round"/>
<path d="M7.99988 13.2499C8.41409 13.2499 8.74988 12.9141 8.74988 12.4999C8.74988 12.0857 8.41409 11.7499 7.99988 11.7499C7.58566 11.7499 7.24988 12.0857 7.24988 12.4999C7.24988 12.9141 7.58566 13.2499 7.99988 13.2499Z" fill="#23AB36"/>
</g>
<defs>
<clipPath id="clip0_1219_22211">
<rect width="16" height="16" fill="white"/>
</clipPath>
</defs>
</svg>
