<svg width="16" height="16" viewBox="0 0 16 16" fill="none" xmlns="http://www.w3.org/2000/svg">
<g clip-path="url(#clip0_1219_22211)">
<path d="M5.59766 10.004C6.16682 9.46035 6.92363 9.15698 7.71072 9.15698C8.49782 9.15698 9.25463 9.46035 9.82379 10.004" stroke="#23AB36" stroke-linecap="round" stroke-linejoin="round"/>
<path d="M3.55334 7.95919C4.66491 6.87316 6.15727 6.26514 7.71131 6.26514C9.26535 6.26514 10.7577 6.87316 11.8693 7.95919" stroke="#23AB36" stroke-linecap="round" stroke-linejoin="round"/>
<path d="M1.51062 5.91437C3.16392 4.28602 5.39136 3.37329 7.7119 3.37329C10.0325 3.37329 12.2599 4.28602 13.9132 5.91437" stroke="#23AB36" stroke-linecap="round" stroke-linejoin="round"/>
<path d="M7.71175 12.7726C8.11104 12.7726 8.43473 12.4489 8.43473 12.0496C8.43473 11.6504 8.11104 11.3267 7.71175 11.3267C7.31246 11.3267 6.98877 11.6504 6.98877 12.0496C6.98877 12.4489 7.31246 12.7726 7.71175 12.7726Z" fill="#23AB36"/>
</g>
<defs>
<clipPath id="clip0_1219_22211">
<rect width="15.4236" height="15.4236" fill="white"/>
</clipPath>
</defs>
</svg>
