<svg width="20" height="20" viewBox="0 0 20 20" fill="none" xmlns="http://www.w3.org/2000/svg">
<circle cx="10" cy="10.4" r="8.85" fill="white" stroke="#333333" stroke-width="1.5"/>
<path d="M9.49609 5.6C10.2734 5.6 10.9141 5.69375 11.418 5.88125C11.9258 6.06875 12.3027 6.35195 12.5488 6.73086C12.7949 7.10976 12.918 7.58828 12.918 8.1664C12.918 8.55703 12.8438 8.89883 12.6953 9.1918C12.5469 9.48476 12.3516 9.73281 12.1094 9.93594C11.8672 10.1391 11.6055 10.3051 11.3242 10.434L13.8438 14.1664H11.8281L9.7832 10.8793H8.81641V14.1664H7V5.6H9.49609ZM9.36719 7.08828H8.81641V9.40273H9.40234C10.0039 9.40273 10.4336 9.30312 10.6914 9.1039C10.9531 8.90078 11.084 8.6039 11.084 8.21328C11.084 7.80703 10.9434 7.51797 10.6621 7.34609C10.3848 7.17422 9.95312 7.08828 9.36719 7.08828Z" fill="#333333"/>
</svg>
