<svg width="40" height="40" viewBox="0 0 40 40" fill="none" xmlns="http://www.w3.org/2000/svg">
<path d="M28.0494 20.8533C28.036 18.3953 29.1463 16.54 31.3938 15.1737C30.1363 13.3721 28.2367 12.3808 25.7284 12.1866C23.3539 11.999 20.7587 13.573 19.8089 13.573C18.8056 13.573 16.5047 12.2536 14.6987 12.2536C10.9664 12.3138 7 15.234 7 21.1748C7 22.9296 7.32106 24.7424 7.96318 26.6133C8.81933 29.0713 11.9095 35.0992 15.1335 34.9988C16.819 34.9586 18.0096 33.7999 20.2035 33.7999C22.3305 33.7999 23.4342 34.9988 25.3137 34.9988C28.5644 34.9519 31.3603 29.4732 32.1763 27.0085C27.8153 24.9523 28.0494 20.9806 28.0494 20.8533ZM24.2636 9.85579C26.0896 7.68576 25.9224 5.70995 25.8689 5C24.2569 5.09377 22.3907 6.09841 21.3272 7.33748C20.1567 8.66361 19.4678 10.3045 19.6149 12.1531C21.3607 12.287 22.9526 11.3896 24.2636 9.85579Z" fill="#333333"/>
</svg>
