<svg xmlns="http://www.w3.org/2000/svg" width="64" height="64" fill="none"><g stroke="#333" stroke-width="2" clip-path="url(#a)">
<path d="M26 1H4a3 3 0 0 0-3 3v22a3 3 0 0 0 3 3h22a3 3 0 0 0 3-3V4a3 3 0 0 0-3-3ZM26 35H4a3 3 0 0 0-3 3v22a3 3 0 0 0 3 3h22a3 3 0 0 0 3-3V38a3 3 0 0 0-3-3ZM60 1H38a3 3 0 0 0-3 3v22a3 3 0 0 0 3 3h22a3 3 0 0 0 3-3V4a3 3 0 0 0-3-3ZM60 35H38a3 3 0 0 0-3 3v22a3 3 0 0 0 3 3h22a3 3 0 0 0 3-3V38a3 3 0 0 0-3-3Z"/></g><defs><clipPath id="a">
<path fill="#fff" d="M0 0h64v64H0z"/></clipPath></defs>
</svg>
