<svg width="24" height="24" viewBox="0 0 24 24" fill="none" xmlns="http://www.w3.org/2000/svg">
<path d="M7.5 16.5H4.5V19.5H7.5V16.5Z" fill="#333333"/>
<path d="M7.5 10.5H4.5V13.5H7.5V10.5Z" fill="#333333"/>
<path d="M7.5 4.5H4.5V7.5H7.5V4.5Z" fill="#FDE3C9"/>
<path d="M13.5 16.5H10.5V19.5H13.5V16.5Z" fill="#333333"/>
<path d="M13.5 10.5H10.5V13.5H13.5V10.5Z" fill="#FDE3C9"/>
<path d="M13.5 4.5H10.5V7.5H13.5V4.5Z" fill="#333333"/>
<path d="M19.5 16.5H16.5V19.5H19.5V16.5Z" fill="#333333"/>
<path d="M19.5 10.5H16.5V13.5H19.5V10.5Z" fill="#333333"/>
<path d="M19.5 4.5H16.5V7.5H19.5V4.5Z" fill="#333333"/>
<path d="M19.5 16.5H16.5V19.5H19.5V16.5Z" stroke="#333333" stroke-linecap="round" stroke-linejoin="round"/>
<path d="M19.5 10.5H16.5V13.5H19.5V10.5Z" stroke="#333333" stroke-linecap="round" stroke-linejoin="round"/>
<path d="M19.5 4.5H16.5V7.5H19.5V4.5Z" stroke="#333333" stroke-linecap="round" stroke-linejoin="round"/>
<path d="M7.5 16.5H4.5V19.5H7.5V16.5Z" stroke="#333333" stroke-linecap="round" stroke-linejoin="round"/>
<path d="M7.5 10.5H4.5V13.5H7.5V10.5Z" stroke="#333333" stroke-linecap="round" stroke-linejoin="round"/>
<path d="M7.5 4.5H4.5V7.5H7.5V4.5Z" fill="#333333" stroke="#333333" stroke-linecap="round" stroke-linejoin="round"/>
<path d="M13.5 16.5H10.5V19.5H13.5V16.5Z" stroke="#333333" stroke-linecap="round" stroke-linejoin="round"/>
<path d="M13.5 10.5H10.5V13.5H13.5V10.5Z" fill="#333333" stroke="#333333" stroke-linecap="round" stroke-linejoin="round"/>
<path d="M13.5 4.5H10.5V7.5H13.5V4.5Z" stroke="#333333" stroke-linecap="round" stroke-linejoin="round"/>
</svg>
