<svg width="48" height="48" viewBox="0 0 48 48" fill="none" xmlns="http://www.w3.org/2000/svg"><path d="M8.5 15V9a.5.5 0 0 1 .5-.5h6a.5.5 0 0 1 .5.5v6a.5.5 0 0 1-.5.5H9a.5.5 0 0 1-.5-.5ZM21 8.5h6a.5.5 0 0 1 .5.5v6a.5.5 0 0 1-.5.5h-6a.5.5 0 0 1-.5-.5V9a.5.5 0 0 1 .5-.5Zm12 0h6a.5.5 0 0 1 .5.5v6a.5.5 0 0 1-.5.5h-6a.5.5 0 0 1-.5-.5V9a.5.5 0 0 1 .5-.5Zm0 12h6a.5.5 0 0 1 .5.5v6a.5.5 0 0 1-.5.5h-6a.5.5 0 0 1-.5-.5v-6a.5.5 0 0 1 .5-.5Zm-12 0h6a.5.5 0 0 1 .5.5v6a.5.5 0 0 1-.5.5h-6a.5.5 0 0 1-.5-.5v-6a.5.5 0 0 1 .5-.5Zm-12 0h6a.5.5 0 0 1 .5.5v6a.5.5 0 0 1-.5.5H9a.5.5 0 0 1-.5-.5v-6a.5.5 0 0 1 .5-.5Zm0 12h6a.5.5 0 0 1 .5.5v6a.5.5 0 0 1-.5.5H9a.5.5 0 0 1-.5-.5v-6a.5.5 0 0 1 .5-.5Zm12 0h6a.5.5 0 0 1 .5.5v6a.5.5 0 0 1-.5.5h-6a.5.5 0 0 1-.5-.5v-6a.5.5 0 0 1 .5-.5Zm12 0h6a.5.5 0 0 1 .5.5v6a.5.5 0 0 1-.5.5h-6a.5.5 0 0 1-.5-.5v-6a.5.5 0 0 1 .5-.5Z" fill="#333" stroke="#333"/></svg>
