<svg width="24" height="24" viewBox="0 0 24 24" fill="none" xmlns="http://www.w3.org/2000/svg">
<path d="M20.4855 15.275C19.3065 18.1548 17.1662 20.25 15.375 20.25H8.625C6 20.25 2.625 15.75 2.625 10.875C2.62501 9.78912 2.93932 8.72646 3.52999 7.81528C4.12066 6.9041 4.96244 6.18337 5.95371 5.74008C6.94498 5.29678 8.04338 5.14988 9.1163 5.3171C10.1892 5.48433 11.1908 5.95852 12.0002 6.68246L12 6.68228C12.573 6.16984 13.245 5.78026 13.9744 5.53761C14.7038 5.29496 15.4752 5.20438 16.241 5.27146C17.0068 5.33854 17.7507 5.56187 18.4268 5.92764C19.1029 6.29341 19.6969 6.79388 20.1721 7.39815L20.1721 7.39816C19.4832 7.81475 18.9187 8.40843 18.5373 9.11735C18.1559 9.82628 17.9716 10.6245 18.0035 11.4289C18.0355 12.2333 18.2826 13.0143 18.7191 13.6908C19.1555 14.3672 19.7654 14.9142 20.4851 15.2748L20.4855 15.275Z" fill="#333333"/>
<path d="M12.9502 3.04744C13.1681 2.48157 13.5524 1.995 14.0523 1.65182C14.5523 1.30865 15.1445 1.12498 15.7509 1.125" stroke="#333333" stroke-linecap="round" stroke-linejoin="round"/>
<path d="M20.4855 15.275C19.3065 18.1548 17.1662 20.25 15.375 20.25H8.625C6 20.25 2.625 15.75 2.625 10.875C2.62501 9.78912 2.93932 8.72646 3.52999 7.81528C4.12066 6.9041 4.96244 6.18337 5.95371 5.74008C6.94498 5.29678 8.04338 5.14988 9.1163 5.3171C10.1892 5.48433 11.1908 5.95852 12.0002 6.68246L12 6.68228C12.573 6.16984 13.245 5.78026 13.9744 5.53761C14.7038 5.29496 15.4752 5.20438 16.241 5.27146C17.0068 5.33854 17.7507 5.56187 18.4268 5.92764C19.1029 6.29341 19.6969 6.79388 20.1721 7.39815L20.1721 7.39816C19.4832 7.81475 18.9187 8.40843 18.5373 9.11735C18.1559 9.82628 17.9716 10.6245 18.0035 11.4289C18.0355 12.2333 18.2826 13.0143 18.7191 13.6908C19.1555 14.3672 19.7654 14.9142 20.4851 15.2748L20.4855 15.275Z" stroke="#333333" stroke-linecap="round" stroke-linejoin="round"/>
</svg>
