<svg width="16" height="16" viewBox="0 0 16 16" fill="none" xmlns="http://www.w3.org/2000/svg">
<g clip-path="url(#clip0_35705_22231)">
<path d="M8.19139 13.9621C8.13331 13.9861 8.0697 13.9996 8.003 14L8 14L7.997 14C7.87004 13.9992 7.74331 13.9504 7.64645 13.8536L3.14645 9.35355C2.95118 9.15829 2.95118 8.84171 3.14645 8.64645C3.34171 8.45118 3.65829 8.45118 3.85355 8.64645L7.5 12.2929V2.5C7.5 2.22386 7.72386 2 8 2C8.27614 2 8.5 2.22386 8.5 2.5V12.2929L12.1464 8.64645C12.3417 8.45118 12.6583 8.45118 12.8536 8.64645C13.0488 8.84171 13.0488 9.15829 12.8536 9.35355L8.35355 13.8536C8.30561 13.9015 8.25036 13.9377 8.19139 13.9621Z" fill="#333333"/>
</g>
<defs>
<clipPath id="clip0_35705_22231">
<rect width="16" height="16" fill="white"/>
</clipPath>
</defs>
</svg>
