<svg width="40" height="40" viewBox="0 0 40 40" fill="none" xmlns="http://www.w3.org/2000/svg">
  <rect width="40" height="40" rx="4" fill="#3C84E0"/>
  <path d="M29.6452 22V11.0323L24.4839 6H11C9.89543 6 9 6.89543 9 8V30.8387C9 31.9433 9.89543 32.8387 11 32.8387H21"
        stroke="white" stroke-linecap="round"/>
  <path d="M24.484 6V11.0323H29.6453" stroke="white" stroke-linejoin="round"/>
  <path d="M12.3549 20.1936H26.0323" stroke="white" stroke-linecap="round" stroke-linejoin="round"/>
  <path d="M12.3549 23.5483L22 23.5483" stroke="white" stroke-linecap="round" stroke-linejoin="round"/>
  <path d="M12.3549 26.9032H20.0968" stroke="white" stroke-linecap="round" stroke-linejoin="round"/>
  <path
    d="M29.5 24.7124C28.7973 24.2615 27.9614 24 27.0645 24C24.5703 24 22.5483 26.0219 22.5483 28.5161C22.5483 31.0103 24.5703 33.0323 27.0645 33.0323C29.5587 33.0323 31.5806 31.0103 31.5806 28.5161C31.5806 28.1127 31.5277 27.7216 31.4285 27.3495"
    stroke="white" stroke-linecap="round"/>
  <path d="M24.5408 28.1177L26.5332 30.1101L31.5806 24.797" stroke="white" stroke-linecap="round"
        stroke-linejoin="round"/>
  <path
    d="M20.6935 13.0144C21.1475 13.0144 21.4787 13.1123 21.6872 13.308C21.8958 13.5021 22 13.7699 22 14.1116C22 14.2656 21.9768 14.4132 21.9303 14.5543C21.8837 14.6939 21.8076 14.8182 21.7017 14.9273C21.5974 15.0364 21.4579 15.123 21.283 15.1872C21.1082 15.2497 20.8924 15.281 20.6358 15.281H20.3157V16.5322H19.5698V13.0144H20.6935ZM20.655 13.6256H20.3157V14.6698H20.5612C20.7007 14.6698 20.8218 14.6514 20.9245 14.6145C21.0272 14.5776 21.1066 14.5199 21.1627 14.4413C21.2188 14.3627 21.2469 14.2616 21.2469 14.1381C21.2469 13.9648 21.1988 13.8365 21.1025 13.7531C21.0063 13.6681 20.8571 13.6256 20.655 13.6256Z"
    fill="white"/>
  <path
    d="M18.7083 13.0144V15.2906C18.7083 15.5329 18.6546 15.7518 18.5471 15.9475C18.4412 16.1416 18.28 16.2956 18.0635 16.4095C17.8485 16.5234 17.5774 16.5803 17.2502 16.5803C16.785 16.5803 16.4305 16.4616 16.1867 16.2242C15.9428 15.9868 15.8209 15.6724 15.8209 15.281V13.0144H16.5644V15.1679C16.5644 15.4583 16.6238 15.662 16.7425 15.7791C16.8612 15.8962 17.0368 15.9547 17.2694 15.9547C17.433 15.9547 17.5654 15.9267 17.6664 15.8705C17.7691 15.8144 17.8445 15.7278 17.8926 15.6107C17.9407 15.4936 17.9648 15.3444 17.9648 15.1631V13.0144H18.7083Z"
    fill="white"/>
  <path
    d="M14.5962 16.5322L14.3412 15.6949H13.0587L12.8037 16.5322H12L13.2416 13H14.1535L15.3999 16.5322H14.5962ZM14.1631 15.0693L13.9081 14.2512C13.892 14.1967 13.8704 14.1269 13.8431 14.0419C13.8175 13.9552 13.791 13.8678 13.7637 13.7796C13.738 13.6898 13.7172 13.612 13.7012 13.5462C13.6851 13.612 13.6627 13.6938 13.6338 13.7916C13.6065 13.8879 13.58 13.9793 13.5544 14.0659C13.5287 14.1526 13.5103 14.2143 13.499 14.2512L13.2464 15.0693H14.1631Z"
    fill="white"/>
</svg>
