<svg width="40" height="40" viewBox="0 0 40 40" fill="none" xmlns="http://www.w3.org/2000/svg">
<rect width="40" height="40" rx="4" fill="#526EFF"/>
<path d="M28.8568 22.389V11.8401L23.8926 7H11C9.89543 7 9 7.89543 9 9V30.8138C9 31.9184 9.89543 32.8138 11 32.8138H20.5418" stroke="white" stroke-linecap="round"/>
<path d="M23.8926 7V11.8401H28.8568" stroke="white" stroke-linejoin="round"/>
<path d="M12.2268 20.6516H25.3819" stroke="white" stroke-linecap="round" stroke-linejoin="round"/>
<path d="M12.2268 23.8783L21.5036 23.8783" stroke="white" stroke-linecap="round" stroke-linejoin="round"/>
<path d="M12.2268 27.105H19.6731" stroke="white" stroke-linecap="round" stroke-linejoin="round"/>
<path d="M28.7172 24.9978C28.0413 24.5641 27.2374 24.3126 26.3747 24.3126C23.9757 24.3126 22.031 26.2574 22.031 28.6563C22.031 31.0552 23.9757 33 26.3747 33C28.7736 33 30.7184 31.0552 30.7184 28.6563C30.7184 28.2683 30.6675 27.8921 30.572 27.5342" stroke="white" stroke-linecap="round"/>
<path d="M23.9473 28.273L25.8636 30.1894L30.7183 25.0792" stroke="white" stroke-linecap="round" stroke-linejoin="round"/>
<path d="M20.247 13.7466C20.6837 13.7466 21.0023 13.8407 21.2028 14.0289C21.4034 14.2156 21.5037 14.4733 21.5037 14.8019C21.5037 14.95 21.4813 15.0919 21.4366 15.2277C21.3918 15.3619 21.3185 15.4815 21.2167 15.5864C21.1164 15.6913 20.9822 15.7747 20.814 15.8364C20.6459 15.8965 20.4383 15.9266 20.1915 15.9266H19.8837V17.1301H19.1663V13.7466H20.247ZM20.21 14.3344H19.8837V15.3388H20.1197C20.254 15.3388 20.3705 15.3211 20.4692 15.2856C20.5679 15.2501 20.6443 15.1945 20.6983 15.1189C20.7523 15.0433 20.7793 14.9461 20.7793 14.8273C20.7793 14.6607 20.733 14.5373 20.6405 14.4571C20.5479 14.3753 20.4044 14.3344 20.21 14.3344Z" fill="white"/>
<path d="M18.3377 13.7466V15.9359C18.3377 16.1689 18.286 16.3795 18.1826 16.5677C18.0808 16.7544 17.9257 16.9025 17.7175 17.012C17.5107 17.1216 17.25 17.1763 16.9352 17.1763C16.4878 17.1763 16.1468 17.0622 15.9123 16.8338C15.6778 16.6055 15.5605 16.3031 15.5605 15.9266V13.7466H16.2757V15.8179C16.2757 16.0971 16.3327 16.2931 16.4469 16.4057C16.5611 16.5183 16.73 16.5746 16.9537 16.5746C17.1111 16.5746 17.2384 16.5476 17.3356 16.4936C17.4343 16.4396 17.5069 16.3563 17.5531 16.2437C17.5994 16.1311 17.6226 15.9876 17.6226 15.8132V13.7466H18.3377Z" fill="white"/>
<path d="M14.3826 17.1301L14.1373 16.3247H12.9038L12.6585 17.1301H11.8855L13.0797 13.7327H13.9568L15.1556 17.1301H14.3826ZM13.966 15.723L13.7207 14.9362C13.7053 14.8837 13.6845 14.8166 13.6582 14.7348C13.6335 14.6515 13.6081 14.5674 13.5819 14.4826C13.5572 14.3962 13.5371 14.3213 13.5217 14.2581C13.5063 14.3213 13.4847 14.4 13.4569 14.4941C13.4307 14.5867 13.4052 14.6746 13.3805 14.758C13.3558 14.8413 13.3381 14.9007 13.3273 14.9362L13.0843 15.723H13.966Z" fill="white"/>
</svg>
