<svg width="40" height="40" viewBox="0 0 40 40" fill="none" xmlns="http://www.w3.org/2000/svg">
<path fill-rule="evenodd" clip-rule="evenodd" d="M32.613 15L29.1826 22.0297H30.5657L31.0654 20.9627H34.1981L33.8221 20.0334H31.5012L33.0903 16.6019L35.6164 22.0297H36.9996L33.5698 15H32.613Z" fill="#333333"/>
<path fill-rule="evenodd" clip-rule="evenodd" d="M6.43093 15L3 22.0297H4.38367L4.88388 20.9627H8.01491L7.64004 20.0334H5.31974L6.90875 16.6019L9.43439 22.0297H10.8169L7.3877 15H6.43093Z" fill="#333333"/>
<path fill-rule="evenodd" clip-rule="evenodd" d="M19.4733 15L16.043 22.0297H17.4261L17.9257 20.9627H21.0584L20.6824 20.0334H18.3616L19.9512 16.6019L22.4774 22.0297H23.8599L20.4301 15H19.4733Z" fill="#333333"/>
<path fill-rule="evenodd" clip-rule="evenodd" d="M15.9591 15L13.4334 20.5308L10.9061 15H9.52637L12.9539 22.0297H13.011H13.8536H13.9124L17.3411 15H15.9591Z" fill="#333333"/>
<path fill-rule="evenodd" clip-rule="evenodd" d="M29.1279 15L26.4971 20.6343L24.0744 15H22.6924L25.8117 22.0297L24.452 24.6689H25.7747L30.5082 15H29.1279Z" fill="#333333"/>
</svg>
