<svg width="34" height="10" viewBox="0 0 34 10" fill="none" xmlns="http://www.w3.org/2000/svg">
<path fill-rule="evenodd" clip-rule="evenodd" d="M29.613 0L26.1826 7.02971H27.5657L28.0654 5.96272H31.1981L30.8221 5.03337H28.5012L30.0903 1.60188L32.6164 7.02971H33.9996L30.5698 0H29.613Z" fill="#333333"/>
<path fill-rule="evenodd" clip-rule="evenodd" d="M3.43093 0L0 7.02971H1.38367L1.88388 5.96272H5.01491L4.64004 5.03337H2.31974L3.90875 1.60188L6.43439 7.02971H7.81695L4.3877 0H3.43093Z" fill="#333333"/>
<path fill-rule="evenodd" clip-rule="evenodd" d="M16.4733 0L13.043 7.02971H14.4261L14.9257 5.96272H18.0584L17.6824 5.03337H15.3616L16.9512 1.60188L19.4774 7.02971H20.8599L17.4301 0H16.4733Z" fill="#333333"/>
<path fill-rule="evenodd" clip-rule="evenodd" d="M12.9591 0L10.4334 5.53078L7.90612 0H6.52637L9.95394 7.02971H10.011H10.8536H10.9124L14.3411 0H12.9591Z" fill="#333333"/>
<path fill-rule="evenodd" clip-rule="evenodd" d="M26.1279 0L23.4971 5.63429L21.0744 0H19.6924L22.8117 7.02971L21.452 9.66893H22.7747L27.5082 0H26.1279Z" fill="#333333"/>
</svg>
