<svg width="40" height="40" viewBox="0 0 40 40" fill="none" xmlns="http://www.w3.org/2000/svg">
<path d="M14.2992 11.4074C14.2992 10.3449 13.6495 9 10.9187 9C9.79807 9 6.71393 9 6.71393 9L5.51855 14.5377C5.51855 14.5377 7.79095 14.5377 9.90216 14.5377C13.3246 14.5377 14.2992 12.9154 14.2992 11.4074Z" fill="black"/>
<path d="M25.6258 11.4074C25.6258 10.3449 24.9777 9 22.2478 9C21.1263 9 18.0422 9 18.0422 9L16.8477 14.5368C16.8477 14.5368 19.1192 14.5368 21.2287 14.5368C24.6529 14.5377 25.6258 12.9154 25.6258 11.4074Z" fill="black"/>
<path d="M12.7806 19.7418C12.7806 18.6793 12.1309 17.3311 9.40018 17.3311C8.27951 17.3311 5.19538 17.3311 5.19538 17.3311L4 22.8721C4 22.8721 6.27239 22.8721 8.38193 22.8721C11.8052 22.8721 12.7806 21.2456 12.7806 19.7418Z" fill="black"/>
<path d="M24.1068 19.7418C24.1068 18.6793 23.4562 17.3311 20.728 17.3311C19.6057 17.3311 16.5232 17.3311 16.5232 17.3311L15.3262 22.8721C15.3262 22.8721 17.5986 22.8721 19.7098 22.8721C23.1339 22.8721 24.1068 21.2456 24.1068 19.7418Z" fill="black"/>
<path d="M35.9574 16.3619C35.9574 15.2986 35.3068 13.9512 32.5786 13.9512C31.4563 13.9512 28.3738 13.9512 28.3738 13.9512L27.1768 19.4914C27.1768 19.4914 29.4508 19.4914 31.5587 19.4914C34.9828 19.4914 35.9574 17.8691 35.9574 16.3619Z" fill="black"/>
<path d="M34.3229 25.0392C34.3229 23.9759 33.674 22.6318 30.9441 22.6318C29.8235 22.6318 26.7393 22.6318 26.7393 22.6318L25.5439 28.1695C25.5439 28.1695 27.8147 28.1695 29.9259 28.1695C33.3492 28.1695 34.3229 26.543 34.3229 25.0392Z" fill="black"/>
<path d="M22.4782 28.4198C22.4782 27.3523 21.8301 26.0049 19.1019 26.0049C17.9787 26.0049 14.8946 26.0049 14.8946 26.0049L13.6992 31.5451C13.6992 31.5451 15.9716 31.5451 18.0811 31.5451C21.5053 31.5459 22.4782 29.9236 22.4782 28.4198Z" fill="black"/>
</svg>
