<svg width="24" height="24" viewBox="0 0 24 24" fill="none" xmlns="http://www.w3.org/2000/svg">
<path d="M17.9985 21L11.9978 17.25L5.99854 21V4.5C5.99854 4.30109 6.07755 4.11032 6.2182 3.96967C6.35886 3.82902 6.54962 3.75 6.74854 3.75H17.2485C17.4474 3.75 17.6382 3.82902 17.7789 3.96967C17.9195 4.11032 17.9985 4.30109 17.9985 4.5V21Z" fill="#333333"/>
<path d="M17.9985 21L11.9978 17.25L5.99854 21V4.5C5.99854 4.30109 6.07755 4.11032 6.2182 3.96967C6.35886 3.82902 6.54962 3.75 6.74854 3.75H17.2485C17.4474 3.75 17.6382 3.82902 17.7789 3.96967C17.9195 4.11032 17.9985 4.30109 17.9985 4.5V21Z" stroke="#333333" stroke-linecap="round" stroke-linejoin="round"/>
</svg>
