<svg width="38" height="6" viewBox="0 0 38 6" fill="none" xmlns="http://www.w3.org/2000/svg">
<path d="M25.9333 2.311H23.2456L23.6815 1.4175C23.8629 1.04724 24.0264 0.916426 24.2989 0.916426C24.5713 0.916426 24.6622 1.17783 24.517 1.50463H27.2592L27.5317 0.916426C27.7314 0.48054 27.7314 0.000976562 27.2411 0.000976562H22.4103C21.9745 0.000976562 21.6293 0.0663816 21.3751 0.567673L20.5215 2.311C20.2856 2.81229 20.3037 3.22645 20.8848 3.22645H23.6634L23.2094 4.18513C23.0823 4.44675 22.9188 4.62102 22.5374 4.62102C22.2104 4.62102 22.2287 4.35962 22.3739 4.09822H19.6498L19.3228 4.75205C19.1231 5.16621 19.2866 5.53669 19.7586 5.53669H24.553C24.9888 5.53669 25.3702 5.29702 25.5882 4.86113L26.4054 3.22667C26.5872 2.81229 26.4963 2.311 25.9333 2.311Z" fill="#333333"/>
<path d="M37.6007 1.07812C37.379 1.07812 37.1992 1.2872 37.1992 1.54261C37.1992 1.80335 37.379 2.01242 37.6007 2.01242C37.8213 2.01242 38 1.80335 38 1.54261C38 1.2872 37.8213 1.07812 37.6007 1.07812ZM37.6007 1.92107C37.4198 1.92107 37.2753 1.75568 37.2753 1.54239C37.2753 1.33598 37.4196 1.16925 37.6007 1.16925C37.7794 1.16925 37.9238 1.33598 37.9238 1.54239C37.9238 1.75568 37.7794 1.92107 37.6007 1.92107Z" fill="#333333"/>
<path d="M19.7406 0.000976563H15.6361C15.0732 0.000976563 14.3467 0.000976562 13.9109 0.916426L12.0947 4.62102C11.8404 5.12231 12.0584 5.53647 12.5305 5.53647H17.3069C17.7973 5.53647 18.106 5.36198 18.4874 4.62102L20.3036 0.916426C20.5395 0.437085 20.1763 0.000976563 19.7406 0.000976563ZM17.434 1.4175L16.0722 4.18513C15.8906 4.57756 15.727 4.62102 15.3093 4.62102C14.8916 4.62102 14.7826 4.44675 14.9099 4.18513L16.29 1.4175C16.4899 1.00334 16.7259 0.916426 17.071 0.916426C17.4161 0.916426 17.6157 1.04724 17.434 1.4175Z" fill="#333333"/>
<path d="M12.5489 0.000976562H7.28232L5.01236 4.62102H0L0.00250003 5.53647H10.1154C10.7874 5.53647 11.0052 5.14404 11.1506 4.83896L11.6953 3.70579C11.8407 3.40071 11.8407 3.05196 11.5501 2.85597C11.8413 2.85597 12.2402 2.61629 12.4763 2.115L13.0212 1.00356C13.2937 0.458812 12.9667 0.000976562 12.5489 0.000976562ZM9.8431 3.72774L9.57058 4.25054C9.49797 4.42502 9.37085 4.62102 9.06212 4.62102H7.71817L8.40881 3.22645H9.7158C9.95192 3.22645 9.95192 3.48785 9.8431 3.72774ZM10.9871 1.4175L10.7146 1.94052C10.642 2.115 10.5149 2.311 10.2062 2.311H8.86221L9.55229 0.916426H10.8598C11.0961 0.916426 11.0961 1.17783 10.9871 1.4175Z" fill="#333333"/>
<path d="M37.8061 1.41969C37.8061 1.37601 37.7897 1.32967 37.7566 1.30728C37.7223 1.28467 37.6848 1.28223 37.6474 1.28223H37.4521V1.8048H37.5183V1.5638H37.5964L37.7243 1.80458H37.8004L37.6648 1.5638C37.7444 1.56136 37.8061 1.52278 37.8061 1.41969ZM37.5911 1.49906H37.5183V1.34165H37.634C37.6903 1.34165 37.7398 1.35074 37.7398 1.41836C37.74 1.51236 37.6539 1.49906 37.5911 1.49906Z" fill="#333333"/>
<path d="M31.101 0.91545H37.9112L37.9091 0H28.831L26.125 5.53549H32.4449L32.8989 4.62004H29.285L29.975 3.22547H33.5889L34.0248 2.31002H30.4292L31.101 0.91545Z" fill="#333333"/>
</svg>
