<svg width="40" height="40" viewBox="0 0 40 40" fill="none" xmlns="http://www.w3.org/2000/svg">
<path d="M26.9333 19.311H24.2456L24.6815 18.4175C24.8629 18.0472 25.0264 17.9164 25.2989 17.9164C25.5713 17.9164 25.6622 18.1778 25.517 18.5046H28.2592L28.5317 17.9164C28.7314 17.4805 28.7314 17.001 28.2411 17.001H23.4103C22.9745 17.001 22.6293 17.0664 22.3751 17.5677L21.5215 19.311C21.2856 19.8123 21.3037 20.2264 21.8848 20.2264H24.6634L24.2094 21.1851C24.0823 21.4468 23.9188 21.621 23.5374 21.621C23.2104 21.621 23.2287 21.3596 23.3739 21.0982H20.6498L20.3228 21.752C20.1231 22.1662 20.2866 22.5367 20.7586 22.5367H25.553C25.9888 22.5367 26.3702 22.297 26.5882 21.8611L27.4054 20.2267C27.5872 19.8123 27.4963 19.311 26.9333 19.311Z" fill="#333333"/>
<path d="M38.6007 18.0781C38.379 18.0781 38.1992 18.2872 38.1992 18.5426C38.1992 18.8033 38.379 19.0124 38.6007 19.0124C38.8213 19.0124 39 18.8033 39 18.5426C39 18.2872 38.8213 18.0781 38.6007 18.0781ZM38.6007 18.9211C38.4198 18.9211 38.2753 18.7557 38.2753 18.5424C38.2753 18.336 38.4196 18.1692 38.6007 18.1692C38.7794 18.1692 38.9238 18.336 38.9238 18.5424C38.9238 18.7557 38.7794 18.9211 38.6007 18.9211Z" fill="#333333"/>
<path d="M20.7406 17.001H16.6361C16.0732 17.001 15.3467 17.001 14.9109 17.9164L13.0947 21.621C12.8404 22.1223 13.0584 22.5365 13.5305 22.5365H18.3069C18.7973 22.5365 19.106 22.362 19.4874 21.621L21.3036 17.9164C21.5395 17.4371 21.1763 17.001 20.7406 17.001ZM18.434 18.4175L17.0722 21.1851C16.8906 21.5776 16.727 21.621 16.3093 21.621C15.8916 21.621 15.7826 21.4468 15.9099 21.1851L17.29 18.4175C17.4899 18.0033 17.7259 17.9164 18.071 17.9164C18.4161 17.9164 18.6157 18.0472 18.434 18.4175Z" fill="#333333"/>
<path d="M13.5489 17.001H8.28232L6.01236 21.621H1L1.0025 22.5365H11.1154C11.7874 22.5365 12.0052 22.144 12.1506 21.839L12.6953 20.7058C12.8407 20.4007 12.8407 20.052 12.5501 19.856C12.8413 19.856 13.2402 19.6163 13.4763 19.115L14.0212 18.0036C14.2937 17.4588 13.9667 17.001 13.5489 17.001ZM10.8431 20.7277L10.5706 21.2505C10.498 21.425 10.3709 21.621 10.0621 21.621H8.71817L9.40881 20.2264H10.7158C10.9519 20.2264 10.9519 20.4878 10.8431 20.7277ZM11.9871 18.4175L11.7146 18.9405C11.642 19.115 11.5149 19.311 11.2062 19.311H9.86221L10.5523 17.9164H11.8598C12.0961 17.9164 12.0961 18.1778 11.9871 18.4175Z" fill="#333333"/>
<path d="M38.8061 18.4197C38.8061 18.376 38.7897 18.3297 38.7566 18.3073C38.7223 18.2847 38.6848 18.2822 38.6474 18.2822H38.4521V18.8048H38.5183V18.5638H38.5964L38.7243 18.8046H38.8004L38.6648 18.5638C38.7444 18.5614 38.8061 18.5228 38.8061 18.4197ZM38.5911 18.4991H38.5183V18.3416H38.634C38.6903 18.3416 38.7398 18.3507 38.7398 18.4184C38.74 18.5124 38.6539 18.4991 38.5911 18.4991Z" fill="#333333"/>
<path d="M32.101 17.9154H38.9112L38.9091 17H29.831L27.125 22.5355H33.4449L33.8989 21.62H30.285L30.975 20.2255H34.5889L35.0248 19.31H31.4292L32.101 17.9154Z" fill="#333333"/>
</svg>
