<svg width="16" height="16" viewBox="0 0 16 16" fill="none" xmlns="http://www.w3.org/2000/svg">
<g clip-path="url(#clip0_29239_41401)">
<path d="M3.7334 12.6663V3.33301H8.2934C9.46673 3.33301 10.3467 3.55523 10.9334 3.99967C11.529 4.44412 11.8267 5.03079 11.8267 5.75967C11.8267 6.24856 11.7067 6.67523 11.4667 7.03967C11.2267 7.39523 10.8978 7.67079 10.4801 7.86634C10.0623 8.0619 9.58229 8.15967 9.04006 8.15967L9.2934 7.61301C9.88006 7.61301 10.4001 7.71079 10.8534 7.90634C11.3067 8.09301 11.6578 8.37301 11.9067 8.74634C12.1645 9.11967 12.2934 9.57745 12.2934 10.1197C12.2934 10.9197 11.9778 11.5463 11.3467 11.9997C10.7156 12.4441 9.78673 12.6663 8.56006 12.6663H3.7334ZM5.88007 11.0397H8.40006C8.96006 11.0397 9.38229 10.9508 9.66673 10.773C9.96007 10.5863 10.1067 10.293 10.1067 9.89301C10.1067 9.5019 9.96007 9.21301 9.66673 9.02634C9.38229 8.83079 8.96006 8.73301 8.40006 8.73301H5.72007V7.15967H8.02673C8.55118 7.15967 8.95118 7.07079 9.22673 6.89301C9.51118 6.70634 9.6534 6.42634 9.6534 6.05301C9.6534 5.68856 9.51118 5.41745 9.22673 5.23967C8.95118 5.05301 8.55118 4.95968 8.02673 4.95968H5.88007V11.0397Z" fill="#333333"/>
</g>
<defs>
<clipPath id="clip0_29239_41401">
<rect width="16" height="16" fill="white"/>
</clipPath>
</defs>
</svg>
