<svg width="36" height="8" viewBox="0 0 36 8" fill="none" xmlns="http://www.w3.org/2000/svg">
<path fill-rule="evenodd" clip-rule="evenodd" d="M35.011 1.44092C32.9901 1.44092 31.9149 2.57437 31.8733 4.04344C31.5829 2.44515 30.2035 1.40148 28.633 1.40148C27.0706 1.40142 25.7372 2.44106 25.4465 4.02046C25.4412 2.61631 24.3443 1.4043 22.9178 1.4043C22.2964 1.4043 21.7573 1.64294 21.3266 2.05956V0.010668H19.8067V4.57344C19.8067 4.72323 19.8012 4.81999 19.7799 5.04188C19.6878 5.98971 19.0497 6.45749 18.3553 6.45749C17.6334 6.45749 16.9818 6.11637 16.9622 5.04717C16.9588 4.86253 16.9536 4.78584 16.9536 4.65472V2.94647H19.3199V1.51204H16.9536V0.0106846H15.4126V4.02806C15.12 2.53254 13.8024 1.40389 12.2203 1.40389C11.2013 1.40384 10.2918 1.87277 9.69539 2.60591V1.44093H9.52652C7.54123 1.44093 6.46849 2.53495 6.39174 3.96633C6.10014 2.51586 4.90074 1.44093 3.38509 1.44093C2.59178 1.44093 1.97193 1.72926 1.48745 2.21367V0H0V3.84747C0 4.13154 0.00834543 4.39914 0.0117272 4.65545C0.0331635 6.43553 1.27865 7.89599 3.20809 7.89599C4.87303 7.89599 6.0853 6.81245 6.38705 5.36853V7.74387H7.91147V4.77872C7.91147 4.64345 7.91916 4.49345 7.92342 4.35491C7.95184 3.45131 8.54349 2.91311 9.48445 2.89734C9.15767 3.4044 8.96752 4.00734 8.96752 4.65545C8.96752 6.45152 10.4237 7.90679 12.2203 7.90679C13.8024 7.90673 15.12 6.77857 15.4126 5.28299V5.28703C15.4126 6.84899 16.6669 7.91415 18.1778 7.91415C18.8149 7.9141 19.3774 7.64131 19.8067 7.19491V7.74304H21.3266V4.51592C21.3275 4.43929 21.3302 4.37738 21.3321 4.31792C21.3707 3.28265 21.9775 2.83217 22.6441 2.83217C23.305 2.83217 23.8766 3.28435 23.8995 4.31285C23.9048 4.4022 23.906 4.46198 23.906 4.56251L23.906 7.74338L25.4467 7.74409V5.33019C25.7365 6.88888 27.0577 7.89508 28.6338 7.89508C30.4213 7.89502 31.431 6.75109 31.7018 5.55459H30.2113C30.0809 5.97999 29.5517 6.63312 28.633 6.63312C27.8044 6.63306 27.0976 6.06715 26.9189 5.14299L31.8713 5.14294V7.74387H33.3958V4.77873C33.3958 4.64346 33.4036 4.49346 33.4084 4.35491C33.4369 3.43762 34.0452 2.89566 35.011 2.89566H35.1798V1.44094H35.011L35.011 1.44092ZM3.20811 6.43237C2.20459 6.43237 1.43163 5.6473 1.43163 4.65544C1.43163 3.66365 2.19957 2.87891 3.20811 2.87891C4.21665 2.87885 4.98487 3.65912 4.98487 4.65544C4.98487 5.65182 4.21185 6.43242 3.20811 6.43237ZM12.2203 6.43237C11.2168 6.43237 10.444 5.6473 10.444 4.65544C10.444 3.66365 11.212 2.87891 12.2203 2.87891C13.2291 2.87885 13.9971 3.65912 13.9971 4.65544C13.9971 5.65182 13.224 6.43242 12.2203 6.43237ZM26.9859 3.94166C27.2365 3.16504 27.8831 2.68521 28.6331 2.68521C29.5972 2.68515 30.1748 3.45866 30.2845 3.94166H26.9859Z" fill="#333333"/>
<path fill-rule="evenodd" clip-rule="evenodd" d="M34.4727 7.08408C34.4727 7.50495 34.8149 7.8409 35.236 7.8409C35.6572 7.8409 35.9998 7.50501 35.9998 7.08413C35.9998 6.66272 35.6572 6.32617 35.236 6.32617C34.815 6.32612 34.4727 6.66272 34.4727 7.08408ZM34.5723 7.08408C34.5723 6.71792 34.8699 6.41977 35.236 6.41977C35.6023 6.41972 35.9002 6.71792 35.9002 7.08413C35.9002 7.44997 35.6023 7.7479 35.236 7.7479C34.8699 7.74784 34.5723 7.45002 34.5723 7.08408Z" fill="#333333"/>
<path fill-rule="evenodd" clip-rule="evenodd" d="M35.0093 6.72939H35.3184C35.44 6.72939 35.4834 6.78612 35.4834 6.88878C35.4834 6.9917 35.4405 7.05672 35.3188 7.05672L35.0093 7.05666V6.72939ZM35.0093 7.15796H35.3124C35.4077 7.15796 35.4474 7.21703 35.4569 7.32072C35.4598 7.35105 35.4648 7.38923 35.4679 7.42599C35.4719 7.47688 35.4808 7.51561 35.4856 7.53928L35.6208 7.53923V7.52161C35.6068 7.50367 35.5945 7.47099 35.5873 7.40477C35.5841 7.37341 35.5794 7.33839 35.5756 7.29994C35.5656 7.19838 35.5321 7.13467 35.4648 7.10047C35.5484 7.07248 35.6076 6.99149 35.6076 6.87138C35.6077 6.71827 35.5087 6.62603 35.3224 6.62603L34.8887 6.62598V7.53923H35.0093V7.15796H35.0093Z" fill="#333333"/>
</svg>
