<svg width="40" height="40" viewBox="0 0 40 40" fill="none" xmlns="http://www.w3.org/2000/svg">
<path fill-rule="evenodd" clip-rule="evenodd" d="M37.011 17.4409C34.9901 17.4409 33.9149 18.5744 33.8733 20.0434C33.5829 18.4452 32.2035 17.4015 30.633 17.4015C29.0706 17.4014 27.7372 18.4411 27.4465 20.0205C27.4412 18.6163 26.3443 17.4043 24.9178 17.4043C24.2964 17.4043 23.7573 17.6429 23.3266 18.0596V16.0107H21.8067V20.5734C21.8067 20.7232 21.8012 20.82 21.7799 21.0419C21.6878 21.9897 21.0497 22.4575 20.3553 22.4575C19.6334 22.4575 18.9818 22.1164 18.9622 21.0472C18.9588 20.8625 18.9536 20.7858 18.9536 20.6547V18.9465H21.3199V17.512H18.9536V16.0107H17.4126V20.0281C17.12 18.5325 15.8024 17.4039 14.2203 17.4039C13.2013 17.4038 12.2918 17.8728 11.6954 18.6059V17.4409H11.5265C9.54123 17.4409 8.46849 18.5349 8.39174 19.9663C8.10014 18.5159 6.90074 17.4409 5.38509 17.4409C4.59178 17.4409 3.97193 17.7293 3.48745 18.2137V16H2V19.8475C2 20.1315 2.00835 20.3991 2.01173 20.6554C2.03316 22.4355 3.27865 23.896 5.20809 23.896C6.87303 23.896 8.0853 22.8124 8.38705 21.3685V23.7439H9.91147V20.7787C9.91147 20.6435 9.91916 20.4935 9.92342 20.3549C9.95184 19.4513 10.5435 18.9131 11.4844 18.8973C11.1577 19.4044 10.9675 20.0073 10.9675 20.6555C10.9675 22.4515 12.4237 23.9068 14.2203 23.9068C15.8024 23.9067 17.12 22.7786 17.4126 21.283V21.287C17.4126 22.849 18.6669 23.9142 20.1778 23.9142C20.8149 23.9141 21.3774 23.6413 21.8067 23.1949V23.743H23.3266V20.5159C23.3275 20.4393 23.3302 20.3774 23.3321 20.3179C23.3707 19.2827 23.9775 18.8322 24.6441 18.8322C25.305 18.8322 25.8766 19.2843 25.8995 20.3129C25.9048 20.4022 25.906 20.462 25.906 20.5625L25.906 23.7434L27.4467 23.7441V21.3302C27.7365 22.8889 29.0577 23.8951 30.6338 23.8951C32.4213 23.895 33.431 22.7511 33.7018 21.5546H32.2113C32.0809 21.98 31.5517 22.6331 30.633 22.6331C29.8044 22.6331 29.0976 22.0672 28.9189 21.143L33.8713 21.1429V23.7439H35.3958V20.7787C35.3958 20.6435 35.4036 20.4935 35.4084 20.3549C35.4369 19.4376 36.0452 18.8957 37.011 18.8957H37.1798V17.4409H37.011L37.011 17.4409ZM5.20811 22.4324C4.20459 22.4324 3.43163 21.6473 3.43163 20.6554C3.43163 19.6636 4.19957 18.8789 5.20811 18.8789C6.21665 18.8789 6.98487 19.6591 6.98487 20.6554C6.98487 21.6518 6.21185 22.4324 5.20811 22.4324ZM14.2203 22.4324C13.2168 22.4324 12.444 21.6473 12.444 20.6554C12.444 19.6636 13.212 18.8789 14.2203 18.8789C15.2291 18.8789 15.9971 19.6591 15.9971 20.6554C15.9971 21.6518 15.224 22.4324 14.2203 22.4324ZM28.9859 19.9417C29.2365 19.165 29.8831 18.6852 30.6331 18.6852C31.5972 18.6852 32.1748 19.4587 32.2845 19.9417H28.9859Z" fill="#333333"/>
<path fill-rule="evenodd" clip-rule="evenodd" d="M36.4727 23.0841C36.4727 23.505 36.8149 23.8409 37.236 23.8409C37.6572 23.8409 37.9998 23.505 37.9998 23.0841C37.9998 22.6627 37.6572 22.3262 37.236 22.3262C36.815 22.3261 36.4727 22.6627 36.4727 23.0841ZM36.5723 23.0841C36.5723 22.7179 36.8699 22.4198 37.236 22.4198C37.6023 22.4197 37.9002 22.7179 37.9002 23.0841C37.9002 23.45 37.6023 23.7479 37.236 23.7479C36.8699 23.7478 36.5723 23.45 36.5723 23.0841Z" fill="#333333"/>
<path fill-rule="evenodd" clip-rule="evenodd" d="M37.0093 22.7294H37.3184C37.44 22.7294 37.4834 22.7861 37.4834 22.8888C37.4834 22.9917 37.4405 23.0567 37.3188 23.0567L37.0093 23.0567V22.7294ZM37.0093 23.158H37.3124C37.4077 23.158 37.4474 23.217 37.4569 23.3207C37.4598 23.351 37.4648 23.3892 37.4679 23.426C37.4719 23.4769 37.4808 23.5156 37.4856 23.5393L37.6208 23.5392V23.5216C37.6068 23.5037 37.5945 23.471 37.5873 23.4048C37.5841 23.3734 37.5794 23.3384 37.5756 23.2999C37.5656 23.1984 37.5321 23.1347 37.4648 23.1005C37.5484 23.0725 37.6076 22.9915 37.6076 22.8714C37.6077 22.7183 37.5087 22.626 37.3224 22.626L36.8887 22.626V23.5392H37.0093V23.158H37.0093Z" fill="#333333"/>
</svg>
