<svg width="24" height="24" viewBox="0 0 24 24" fill="none" xmlns="http://www.w3.org/2000/svg">
<g clip-path="url(#clip0_10741_27353)">
<path d="M8.87203 13.875C7.46159 13.9657 6.18158 14.5029 5.45526 16.4168C5.37265 16.6351 5.17402 16.7676 4.94234 16.7676C4.55177 16.7676 3.34417 15.7949 3 15.56C3.00035 18.4551 4.3338 20.9996 7.50026 20.9996C10.1672 20.9996 12.0002 19.4609 12.0002 16.7743C12.0002 16.665 11.9773 16.5606 11.9661 16.4533L8.87203 13.875V13.875ZM19.0977 3C18.5648 3 18.0652 3.23589 17.6841 3.57831C10.498 9.99772 9.75022 10.1485 9.75022 12.0381C9.75022 12.5198 9.86448 12.9789 10.0571 13.3987L12.3008 15.2682C12.5542 15.3315 12.8154 15.3748 13.0879 15.3748C15.2714 15.3748 16.537 13.7762 20.5113 6.35876C20.7708 5.85428 21 5.30937 21 4.74196C21 3.72561 20.086 3 19.0977 3Z" fill="black"/>
</g>
<defs>
<clipPath id="clip0_10741_27353">
<rect width="24" height="24" fill="white"/>
</clipPath>
</defs>
</svg>
