<svg width="24" height="24" viewBox="0 0 24 24" fill="none" xmlns="http://www.w3.org/2000/svg">
<path d="M13.5 20.25V3.75C13.5 3.55109 13.421 3.36032 13.2803 3.21967C13.1397 3.07902 12.9489 3 12.75 3H3.75C3.55109 3 3.36032 3.07902 3.21967 3.21967C3.07902 3.36032 3 3.55109 3 3.75V20.25" fill="#333333"/>
<path d="M1.5 20.2481H22.5" stroke="#333333" stroke-linecap="round" stroke-linejoin="round"/>
<path d="M13.4988 20.2481V3.74811C13.4988 3.5492 13.4198 3.35843 13.2792 3.21778C13.1385 3.07713 12.9478 2.99811 12.7488 2.99811H3.74884C3.54993 2.99811 3.35916 3.07713 3.21851 3.21778C3.07786 3.35843 2.99884 3.5492 2.99884 3.74811V20.2481" stroke="#333333" stroke-linecap="round" stroke-linejoin="round"/>
<path d="M20.9988 20.2481V9.74811C20.9988 9.5492 20.9198 9.35843 20.7792 9.21778C20.6385 9.07713 20.4478 8.99811 20.2488 8.99811H13.4988" stroke="#333333" stroke-linecap="round" stroke-linejoin="round"/>
<path d="M5.99884 6.74811H8.99884" stroke="white" stroke-linecap="round" stroke-linejoin="round"/>
<path d="M7.49884 12.7481H10.4988" stroke="white" stroke-linecap="round" stroke-linejoin="round"/>
<path d="M5.99884 16.4981H8.99884" stroke="white" stroke-linecap="round" stroke-linejoin="round"/>
<path d="M16.4988 16.4981H17.9988" stroke="#333333" stroke-linecap="round" stroke-linejoin="round"/>
<path d="M16.4988 12.7481H17.9988" stroke="#333333" stroke-linecap="round" stroke-linejoin="round"/>
</svg>
