<svg width="24" height="24" viewBox="0 0 24 24" fill="none" xmlns="http://www.w3.org/2000/svg">
<path d="M8.25183 21.75H15.7518" stroke="#333333" stroke-linecap="round" stroke-linejoin="round"/>
<path d="M7.3803 15.657C6.4885 14.9605 5.76618 14.0709 5.26764 13.055C4.7691 12.0392 4.50731 10.9236 4.50195 9.792C4.47948 5.72679 7.75683 2.34747 11.821 2.25181C13.3959 2.21389 14.9427 2.67281 16.2421 3.56347C17.5414 4.45414 18.5274 5.73133 19.0601 7.21387C19.5927 8.69642 19.6451 10.309 19.2096 11.823C18.7742 13.337 17.8732 14.6754 16.6343 15.6484C16.3614 15.8598 16.1401 16.1305 15.9873 16.44C15.8344 16.7495 15.7539 17.0897 15.7518 17.4349L15.7518 17.9997C15.7518 18.1986 15.6728 18.3894 15.5322 18.53C15.3915 18.6707 15.2008 18.7497 15.0018 18.7497H9.00182C8.80291 18.7497 8.61214 18.6707 8.47149 18.53C8.33084 18.3894 8.25182 18.1986 8.25182 17.9997L8.25181 17.4343C8.25095 17.0913 8.17204 16.7531 8.02104 16.4451C7.87005 16.1372 7.65093 15.8677 7.3803 15.657V15.657Z" stroke="#333333" stroke-linecap="round" stroke-linejoin="round"/>
<path d="M12.7629 5.32434C13.6803 5.48027 14.5266 5.91719 15.185 6.57476C15.8434 7.23232 16.2813 8.07809 16.4384 8.99525" stroke="#333333" stroke-linecap="round" stroke-linejoin="round"/>
</svg>
