<svg width="16" height="16" viewBox="0 0 16 16" fill="none" xmlns="http://www.w3.org/2000/svg">
<g clip-path="url(#clip0_17877_33880)">
<path d="M5.50183 14.5H10.5018" stroke="white" stroke-linecap="round" stroke-linejoin="round"/>
<path d="M4.92081 10.4379C4.32628 9.97354 3.84473 9.38046 3.51237 8.70324C3.18001 8.02602 3.00549 7.28227 3.00191 6.52789C2.98693 3.81775 5.17183 1.56487 7.88127 1.50109C8.93118 1.47581 9.96241 1.78176 10.8287 2.37554C11.6949 2.96932 12.3522 3.82078 12.7073 4.80914C13.0624 5.7975 13.0973 6.87259 12.807 7.88189C12.5168 8.8912 11.916 9.78349 11.0901 10.4322C10.9082 10.5731 10.7607 10.7536 10.6588 10.9599C10.5569 11.1662 10.5032 11.393 10.5018 11.6232L10.5018 11.9997C10.5018 12.1323 10.4492 12.2595 10.3554 12.3532C10.2616 12.447 10.1344 12.4997 10.0018 12.4997H6.00182C5.86921 12.4997 5.74204 12.447 5.64827 12.3532C5.5545 12.2595 5.50182 12.1323 5.50182 11.9997L5.50181 11.6227C5.50125 11.3941 5.44864 11.1686 5.34797 10.9633C5.24731 10.758 5.10123 10.5783 4.92081 10.4379V10.4379Z" stroke="white" stroke-linecap="round" stroke-linejoin="round"/>
</g>
<defs>
<clipPath id="clip0_17877_33880">
<rect width="16" height="16" fill="white"/>
</clipPath>
</defs>
</svg>
