<svg width="40" height="40" viewBox="0 0 40 40" fill="none" xmlns="http://www.w3.org/2000/svg">
<path d="M7.8779 22.7964C6.20412 22.7964 4.84764 21.4392 4.84764 19.7651C4.84764 18.0909 6.20412 16.735 7.8779 16.735C8.46785 16.735 9.01865 16.9032 9.48395 17.1949L7.8779 19.7651L10.9014 18.0192C10.5729 17.4958 10.1018 17.0449 9.5321 16.7026C8.80715 16.2686 7.7987 16 6.6836 16C5.09294 16 3.69744 16.578 2.91921 17.4436C2.34303 18.0835 2 18.8889 2 19.765C2 20.6418 2.34303 21.4477 2.91921 22.088C3.69947 22.9548 5.07417 23.5294 6.6386 23.5294C8.2028 23.5294 9.5771 22.9543 10.3578 22.088C10.4006 22.0403 10.442 21.9922 10.4811 21.9423L10.3632 21.5004C9.8147 22.2834 8.90615 22.7964 7.8779 22.7964Z" fill="#333333"/>
<path d="M17.9022 23.3474L16.6332 18.6134C16.4293 17.8484 15.7327 17.2861 14.9034 17.2861C14.6883 17.2861 14.4822 17.3246 14.2909 17.3941L11.559 18.3876H14.3688L14.8489 20.1807C14.3832 19.7799 13.7766 19.536 13.1124 19.536C11.7934 19.536 10.7256 20.4198 10.7256 21.5101C10.7256 22.6004 11.7934 23.4856 13.1124 23.4856C14.0619 23.4856 14.9016 23.0207 15.4195 22.3066L15.6981 23.3474H17.9022ZM14.0313 22.6121C13.4229 22.6121 12.9297 22.1194 12.9297 21.5101C12.9297 20.9017 13.4229 20.4085 14.0313 20.4085C14.6397 20.4085 15.1333 20.9017 15.1333 21.5101C15.1333 22.1194 14.6397 22.6121 14.0313 22.6121Z" fill="#333333"/>
<path d="M23.0765 17.2871C22.91 17.2871 22.7525 17.3239 22.6121 17.3898L20.858 18.2073C20.7712 17.6851 20.3176 17.2871 19.7704 17.2871C19.6048 17.2871 19.4468 17.3239 19.3046 17.3898L17.1631 18.3877H18.6688V23.3476H20.8729V18.9395C20.8729 18.6354 21.119 18.3878 21.4241 18.3878C21.7274 18.3878 21.9754 18.6354 21.9754 18.9395V23.3476H24.1786V18.3877C24.1786 17.7795 23.6849 17.2872 23.0765 17.2872" fill="#333333"/>
<path d="M36.8977 17.2871C36.7308 17.2871 36.5724 17.3239 36.4297 17.3898L34.6774 18.2073C34.591 17.6851 34.1374 17.2871 33.5902 17.2871C33.4246 17.2871 33.2667 17.3239 33.124 17.3898L30.9834 18.3877H32.4886V23.3476H34.6923V18.9395C34.6923 18.6354 34.9389 18.3878 35.244 18.3878C35.5482 18.3878 35.7943 18.6354 35.7943 18.9395V23.3476H37.9993V18.3877C37.9993 17.7795 37.5052 17.2872 36.8977 17.2872" fill="#333333"/>
<path d="M31.3404 20.4086C31.3404 22.1326 29.9432 23.5298 28.2197 23.5298C26.4948 23.5298 25.0967 22.1326 25.0967 20.4086C25.0967 18.685 26.4948 17.2871 28.2197 17.2871C29.9432 17.2871 31.3404 18.6851 31.3404 20.4086ZM28.3488 18.2344C28.2507 17.8672 27.8732 17.6491 27.506 17.7479C27.1392 17.8462 26.9201 18.224 27.0186 18.5912L28.0892 22.5826C28.1882 22.9502 28.5648 23.168 28.932 23.0708C29.2992 22.9714 29.5175 22.5938 29.4189 22.2266L28.3488 18.2344Z" fill="#333333"/>
</svg>
