<svg width="36" height="8" viewBox="0 0 36 8" fill="none" xmlns="http://www.w3.org/2000/svg">
<path d="M5.8779 6.79635C4.20412 6.79635 2.84764 5.43915 2.84764 3.76506C2.84764 2.09088 4.20412 0.734985 5.8779 0.734985C6.46785 0.734985 7.01865 0.90324 7.48395 1.19489L5.8779 3.76506L8.90145 2.01924C8.57295 1.49585 8.1018 1.04485 7.5321 0.70263C6.80715 0.268605 5.7987 0 4.6836 0C3.09294 0 1.69744 0.578025 0.919215 1.44365C0.343035 2.08355 0 2.88891 0 3.76502C0 4.64175 0.343035 5.4477 0.919215 6.08805C1.69947 6.95475 3.07417 7.5294 4.6386 7.5294C6.2028 7.5294 7.5771 6.9543 8.35785 6.08805C8.4006 6.04035 8.442 5.9922 8.48115 5.94225L8.36325 5.50035C7.8147 6.28335 6.90615 6.79635 5.8779 6.79635Z" fill="#333333"/>
<path d="M15.9022 7.34741L14.6332 2.61341C14.4293 1.84841 13.7327 1.28613 12.9034 1.28613C12.6883 1.28613 12.4822 1.32456 12.2909 1.39413L9.55899 2.38755H12.3688L12.8489 4.18071C12.3832 3.77985 11.7766 3.53595 11.1124 3.53595C9.79344 3.53595 8.72559 4.4198 8.72559 5.51006C8.72559 6.60041 9.79344 7.48556 11.1124 7.48556C12.0619 7.48556 12.9016 7.02071 13.4195 6.30656L13.6981 7.34741H15.9022ZM12.0313 6.61211C11.4229 6.61211 10.9297 6.11936 10.9297 5.51006C10.9297 4.90166 11.4229 4.40846 12.0313 4.40846C12.6397 4.40846 13.1333 4.90166 13.1333 5.51006C13.1333 6.11936 12.6397 6.61211 12.0313 6.61211Z" fill="#333333"/>
<path d="M21.0765 1.28711C20.91 1.28711 20.7525 1.32392 20.6121 1.38984L18.858 2.20731C18.7712 1.68513 18.3176 1.28711 17.7704 1.28711C17.6048 1.28711 17.4468 1.32392 17.3046 1.38984L15.1631 2.38772H16.6688V7.34762H18.8729V2.93951C18.8729 2.63535 19.119 2.38776 19.4241 2.38776C19.7274 2.38776 19.9754 2.63535 19.9754 2.93951V7.34762H22.1786V2.38772C22.1786 1.77945 21.6849 1.28715 21.0765 1.28715" fill="#333333"/>
<path d="M34.8977 1.28711C34.7308 1.28711 34.5724 1.32392 34.4297 1.38984L32.6774 2.20731C32.591 1.68513 32.1374 1.28711 31.5902 1.28711C31.4246 1.28711 31.2667 1.32392 31.124 1.38984L28.9834 2.38772H30.4886V7.34762H32.6923V2.93951C32.6923 2.63535 32.9389 2.38776 33.244 2.38776C33.5482 2.38776 33.7943 2.63535 33.7943 2.93951V7.34762H35.9993V2.38772C35.9993 1.77945 35.5052 1.28715 34.8977 1.28715" fill="#333333"/>
<path d="M29.3404 4.40858C29.3404 6.13257 27.9432 7.52982 26.2197 7.52982C24.4948 7.52982 23.0967 6.13257 23.0967 4.40858C23.0967 2.68503 24.4948 1.28711 26.2197 1.28711C27.9432 1.28711 29.3404 2.68508 29.3404 4.40858ZM26.3488 2.23445C26.2507 1.86716 25.8732 1.64913 25.506 1.74786C25.1392 1.84619 24.9201 2.22396 25.0186 2.59121L26.0892 6.58257C26.1882 6.95022 26.5648 7.16802 26.932 7.07082C27.2992 6.97137 27.5175 6.59382 27.4189 6.22662L26.3488 2.23445Z" fill="#333333"/>
</svg>
