<svg width="40" height="41" viewBox="0 0 40 41" fill="none" xmlns="http://www.w3.org/2000/svg">
<rect width="40" height="40" rx="4" fill="#EC7100"/>
<path d="M30.6452 23V12.0323L25.4839 7H12C10.8954 7 10 7.89543 10 9V31.8387C10 32.9433 10.8954 33.8387 12 33.8387H22" stroke="white" stroke-linecap="round"/>
<path d="M13.355 21H27.0324" stroke="white" stroke-linecap="round" stroke-linejoin="round"/>
<path d="M13.355 17H27.0324" stroke="white" stroke-linecap="round" stroke-linejoin="round"/>
<path d="M13.355 13.1936H27.0324" stroke="white" stroke-linecap="round" stroke-linejoin="round"/>
<path d="M13.355 25L23.0001 25" stroke="white" stroke-linecap="round" stroke-linejoin="round"/>
<path d="M13.355 29H21.0969" stroke="white" stroke-linecap="round" stroke-linejoin="round"/>
<path d="M27.14 25.2896C27.3083 24.5427 28.219 24.2542 28.7866 24.7679L28.8832 24.8552C29.2898 25.2233 29.917 25.195 30.289 24.792L30.3933 24.679C30.9181 24.1104 31.867 24.3435 32.0903 25.0844V25.0844C32.2528 25.6234 32.8306 25.9313 33.365 25.7544L33.4668 25.7206C34.2023 25.4771 34.9165 26.1425 34.7254 26.8933V26.8933C34.5857 27.442 34.9415 27.9952 35.498 28.0995V28.0995C36.2733 28.2448 36.5759 29.1999 36.0257 29.7651V29.7651C35.6309 30.1709 35.6586 30.828 36.0887 31.1961V31.1961C36.6773 31.6999 36.4767 32.6552 35.7351 32.8796L35.6324 32.9107C35.0937 33.0737 34.7986 33.6583 34.9762 34.1924V34.1924C35.2204 34.9268 34.5788 35.6638 33.8223 35.5012L33.672 35.4688C33.1358 35.3536 32.6068 35.6917 32.4862 36.2268L32.4576 36.3538C32.2894 37.1006 31.3787 37.3892 30.8111 36.8755L30.7145 36.7881C30.3078 36.4201 29.6806 36.4483 29.3086 36.8514L29.2044 36.9643C28.6796 37.533 27.7306 37.2999 27.5073 36.559V36.559C27.3449 36.02 26.7671 35.712 26.2327 35.889L26.1308 35.9227C25.3954 36.1663 24.6812 35.5009 24.8723 34.7501V34.7501C25.0119 34.2014 24.6562 33.6482 24.0997 33.5439V33.5439C23.3244 33.3986 23.0218 32.4435 23.5719 31.8782V31.8782C23.9668 31.4725 23.9391 30.8154 23.5089 30.4472V30.4472C22.9203 29.9434 23.121 28.9882 23.8625 28.7638L23.9652 28.7327C24.504 28.5696 24.7991 27.9851 24.6215 27.4509V27.4509C24.3773 26.7166 25.0188 25.9795 25.7754 26.1422L25.9257 26.1745C26.4619 26.2898 26.9909 25.9517 27.1114 25.4166L27.14 25.2896Z" fill="white"/>
<path d="M31.3867 26.8359C31.0091 26.4453 30.5469 26.25 30 26.25C29.4531 26.25 28.9844 26.4453 28.5938 26.8359C28.2031 27.2266 28.0078 27.6953 28.0078 28.2422V28.6719H28.6328V28.2422C28.6328 27.8776 28.763 27.5651 29.0234 27.3047C29.2969 27.0443 29.6094 26.9141 29.9609 26.9141C30.3125 26.9141 30.6185 27.0508 30.8789 27.3242C31.1523 27.5846 31.2891 27.8906 31.2891 28.2422V28.6719H31.9141V28.2422C31.9531 27.6953 31.7773 27.2266 31.3867 26.8359ZM32.0898 29.1602H27.9102C27.806 29.1602 27.7083 29.2057 27.6172 29.2969C27.5391 29.388 27.5 29.4857 27.5 29.5898V33.3398C27.5 33.431 27.5456 33.5221 27.6367 33.6133C27.7279 33.7044 27.819 33.75 27.9102 33.75H32.0898C32.181 33.75 32.2721 33.7044 32.3633 33.6133C32.4544 33.5221 32.5 33.431 32.5 33.3398V29.5898C32.5 29.4857 32.4544 29.388 32.3633 29.2969C32.2852 29.2057 32.194 29.1602 32.0898 29.1602ZM30.4102 31.543V32.2852C30.4102 32.4284 30.3451 32.5 30.2148 32.5H29.7852C29.6549 32.5 29.5898 32.4284 29.5898 32.2852V31.543C29.3034 31.4128 29.1602 31.1784 29.1602 30.8398C29.1602 30.6055 29.2448 30.4102 29.4141 30.2539C29.5833 30.0846 29.7786 30 30 30C30.2214 30 30.4167 30.0846 30.5859 30.2539C30.7552 30.4102 30.8398 30.6055 30.8398 30.8398C30.8398 31.1784 30.6966 31.4128 30.4102 31.543Z" fill="#EC7100"/>
</svg>