<svg width="12" height="12" viewBox="0 0 12 12" fill="none" xmlns="http://www.w3.org/2000/svg">
<g id="noun-external-link-1167422">
<path id="Path 9237" d="M6.14382 1.86231V1.13867H0.361446C0.265576 1.13907 0.173758 1.17738 0.106038 1.24524C0.0383178 1.3131 0.000197261 1.405 0 1.50087V11.6371C0.000197261 11.733 0.0383178 11.8249 0.106038 11.8927C0.173758 11.9606 0.265576 11.9989 0.361446 11.9993H10.4804C10.5763 11.9989 10.6681 11.9606 10.7358 11.8927C10.8035 11.8249 10.8417 11.733 10.8419 11.6371V5.84421H10.119V11.2734H0.722891V1.86231H6.14382Z" fill="#333333"/>
<path id="Path 9238" d="M11.9985 0H8.31131V0.723641H10.7507L5.47449 6.00809L5.98066 6.51501L11.2749 1.23056V3.67444H11.9985V0Z" fill="#333333"/>
</g>
</svg>
