<?xml version="1.0" encoding="utf-8"?>
<svg version="1.1" xmlns:xlink="http://www.w3.org/1999/xlink" width="16px" height="16px" xmlns="http://www.w3.org/2000/svg">
  <defs>
    <pattern id="BGPattern" patternUnits="userSpaceOnUse" alignment="0 0" imageRepeat="None" />
    <mask fill="white" id="Clip156">
      <path d="M 13.1875 6.78125  C 13.3125 6.65625  13.375 6.5  13.375 6.3125  C 13.375 6.118055555555555  13.3125 5.958333333333334  13.1875 5.833333333333334  L 12.239583333333334 4.895833333333334  C 12.107638888888891 4.7638888888888875  11.951388888888891 4.697916666666666  11.770833333333334 4.697916666666666  C 11.590277777777779 4.697916666666666  11.434027777777779 4.7638888888888875  11.302083333333334 4.895833333333334  L 7.052083333333333 9.135416666666668  L 4.697916666666667 6.78125  C 4.565972222222222 6.649305555555555  4.409722222222222 6.583333333333334  4.229166666666667 6.583333333333334  C 4.048611111111112 6.583333333333334  3.892361111111111 6.649305555555555  3.7604166666666665 6.78125  L 2.8125 7.71875  C 2.6875 7.84375  2.6250000000000004 8.003472222222221  2.625 8.197916666666668  C 2.6250000000000004 8.385416666666668  2.6875 8.541666666666668  2.8125 8.666666666666668  L 6.583333333333333 12.4375  C 6.715277777777779 12.569444444444443  6.871527777777779 12.635416666666666  7.052083333333333 12.635416666666666  C 7.239583333333333 12.635416666666666  7.399305555555556 12.569444444444443  7.53125 12.4375  L 13.1875 6.78125  Z M 14.927083333333334 3.984375  C 15.642361111111109 5.210069444444443  16 6.548611111111109  16 8  C 16 9.45138888888889  15.642361111111109 10.789930555555554  14.927083333333334 12.015625  C 14.211805555555557 13.241319444444445  13.241319444444445 14.211805555555555  12.015625 14.927083333333334  C 10.789930555555557 15.642361111111112  9.45138888888889 16  8 16  C 6.548611111111112 16  5.210069444444445 15.642361111111112  3.984375 14.927083333333334  C 2.758680555555556 14.211805555555555  1.7881944444444446 13.241319444444445  1.0729166666666667 12.015625  C 0.35763888888888884 10.789930555555554  0 9.45138888888889  0 8  C 0 6.548611111111109  0.35763888888888884 5.210069444444443  1.0729166666666667 3.984375  C 1.7881944444444446 2.7586805555555554  2.758680555555556 1.7881944444444429  3.984375 1.072916666666666  C 5.210069444444445 0.3576388888888875  6.548611111111112 0  8 0  C 9.45138888888889 0  10.789930555555557 0.3576388888888875  12.015625 1.072916666666666  C 13.241319444444445 1.7881944444444429  14.211805555555557 2.7586805555555554  14.927083333333334 3.984375  Z " fill-rule="evenodd" />
    </mask>
  </defs>
  <g transform="matrix(1 0 0 1 -12 -8 )">
    <path d="M 13.1875 6.78125  C 13.3125 6.65625  13.375 6.5  13.375 6.3125  C 13.375 6.118055555555555  13.3125 5.958333333333334  13.1875 5.833333333333334  L 12.239583333333334 4.895833333333334  C 12.107638888888891 4.7638888888888875  11.951388888888891 4.697916666666666  11.770833333333334 4.697916666666666  C 11.590277777777779 4.697916666666666  11.434027777777779 4.7638888888888875  11.302083333333334 4.895833333333334  L 7.052083333333333 9.135416666666668  L 4.697916666666667 6.78125  C 4.565972222222222 6.649305555555555  4.409722222222222 6.583333333333334  4.229166666666667 6.583333333333334  C 4.048611111111112 6.583333333333334  3.892361111111111 6.649305555555555  3.7604166666666665 6.78125  L 2.8125 7.71875  C 2.6875 7.84375  2.6250000000000004 8.003472222222221  2.625 8.197916666666668  C 2.6250000000000004 8.385416666666668  2.6875 8.541666666666668  2.8125 8.666666666666668  L 6.583333333333333 12.4375  C 6.715277777777779 12.569444444444443  6.871527777777779 12.635416666666666  7.052083333333333 12.635416666666666  C 7.239583333333333 12.635416666666666  7.399305555555556 12.569444444444443  7.53125 12.4375  L 13.1875 6.78125  Z M 14.927083333333334 3.984375  C 15.642361111111109 5.210069444444443  16 6.548611111111109  16 8  C 16 9.45138888888889  15.642361111111109 10.789930555555554  14.927083333333334 12.015625  C 14.211805555555557 13.241319444444445  13.241319444444445 14.211805555555555  12.015625 14.927083333333334  C 10.789930555555557 15.642361111111112  9.45138888888889 16  8 16  C 6.548611111111112 16  5.210069444444445 15.642361111111112  3.984375 14.927083333333334  C 2.758680555555556 14.211805555555555  1.7881944444444446 13.241319444444445  1.0729166666666667 12.015625  C 0.35763888888888884 10.789930555555554  0 9.45138888888889  0 8  C 0 6.548611111111109  0.35763888888888884 5.210069444444443  1.0729166666666667 3.984375  C 1.7881944444444446 2.7586805555555554  2.758680555555556 1.7881944444444429  3.984375 1.072916666666666  C 5.210069444444445 0.3576388888888875  6.548611111111112 0  8 0  C 9.45138888888889 0  10.789930555555557 0.3576388888888875  12.015625 1.072916666666666  C 13.241319444444445 1.7881944444444429  14.211805555555557 2.7586805555555554  14.927083333333334 3.984375  Z " fill-rule="nonzero" fill="rgba(85, 85, 85, 1)" stroke="none" transform="matrix(1 0 0 1 12 8 )" class="fill" />
    <path d="M 13.1875 6.78125  C 13.3125 6.65625  13.375 6.5  13.375 6.3125  C 13.375 6.118055555555555  13.3125 5.958333333333334  13.1875 5.833333333333334  L 12.239583333333334 4.895833333333334  C 12.107638888888891 4.7638888888888875  11.951388888888891 4.697916666666666  11.770833333333334 4.697916666666666  C 11.590277777777779 4.697916666666666  11.434027777777779 4.7638888888888875  11.302083333333334 4.895833333333334  L 7.052083333333333 9.135416666666668  L 4.697916666666667 6.78125  C 4.565972222222222 6.649305555555555  4.409722222222222 6.583333333333334  4.229166666666667 6.583333333333334  C 4.048611111111112 6.583333333333334  3.892361111111111 6.649305555555555  3.7604166666666665 6.78125  L 2.8125 7.71875  C 2.6875 7.84375  2.6250000000000004 8.003472222222221  2.625 8.197916666666668  C 2.6250000000000004 8.385416666666668  2.6875 8.541666666666668  2.8125 8.666666666666668  L 6.583333333333333 12.4375  C 6.715277777777779 12.569444444444443  6.871527777777779 12.635416666666666  7.052083333333333 12.635416666666666  C 7.239583333333333 12.635416666666666  7.399305555555556 12.569444444444443  7.53125 12.4375  L 13.1875 6.78125  Z " stroke-width="0" stroke-dasharray="0" stroke="rgba(255, 255, 255, 0)" fill="none" transform="matrix(1 0 0 1 12 8 )" class="stroke" mask="url(#Clip156)" />
    <path d="M 14.927083333333334 3.984375  C 15.642361111111109 5.210069444444443  16 6.548611111111109  16 8  C 16 9.45138888888889  15.642361111111109 10.789930555555554  14.927083333333334 12.015625  C 14.211805555555557 13.241319444444445  13.241319444444445 14.211805555555555  12.015625 14.927083333333334  C 10.789930555555557 15.642361111111112  9.45138888888889 16  8 16  C 6.548611111111112 16  5.210069444444445 15.642361111111112  3.984375 14.927083333333334  C 2.758680555555556 14.211805555555555  1.7881944444444446 13.241319444444445  1.0729166666666667 12.015625  C 0.35763888888888884 10.789930555555554  0 9.45138888888889  0 8  C 0 6.548611111111109  0.35763888888888884 5.210069444444443  1.0729166666666667 3.984375  C 1.7881944444444446 2.7586805555555554  2.758680555555556 1.7881944444444429  3.984375 1.072916666666666  C 5.210069444444445 0.3576388888888875  6.548611111111112 0  8 0  C 9.45138888888889 0  10.789930555555557 0.3576388888888875  12.015625 1.072916666666666  C 13.241319444444445 1.7881944444444429  14.211805555555557 2.7586805555555554  14.927083333333334 3.984375  Z " stroke-width="0" stroke-dasharray="0" stroke="rgba(255, 255, 255, 0)" fill="none" transform="matrix(1 0 0 1 12 8 )" class="stroke" mask="url(#Clip156)" />
  </g>
</svg>