<svg xmlns="http://www.w3.org/2000/svg" width="48" height="48" fill="none">
<path fill="#F44336" d="M46.24 15H23.997a9 9 0 0 0-7.86 13.401L5.018 9.322a23.987 23.987 0 0 1 41.221 5.679Z"/>
<path fill="#FFC107" d="M48 24.002a24.021 24.021 0 0 1-24.002 24.002 21.399 21.399 0 0 1-3-.2l10.8-19.3a9.023 9.023 0 0 0-3.3-12.302 8.915 8.915 0 0 0-4.48-1.2h22.22a23.665 23.665 0 0 1 1.762 9Z"/>
<path fill="#4CAF50" d="M31.798 28.503 20.997 47.804h-.02A23.987 23.987 0 0 1 5.02 9.322l11.12 19.081.06.1a9.001 9.001 0 0 0 15.602 0h-.004Z"/>
<path fill="#F44336" d="M31.798 28.502a9.001 9.001 0 0 1-15.601 0l-.06-.1a9.001 9.001 0 0 1 7.86-13.4h.021a8.916 8.916 0 0 1 4.48 1.2 9.023 9.023 0 0 1 3.3 12.3Z"/>
<path fill="#2196F3" d="M31.798 28.502a9.001 9.001 0 0 1-15.601 0l-.06-.1a9.001 9.001 0 0 1 7.86-13.4h.021a8.916 8.916 0 0 1 4.48 1.2 9.023 9.023 0 0 1 3.3 12.3Z"/>
<path fill="#FAFAFA" d="M23.965 34.004a9.928 9.928 0 0 1-4.966-1.332 10.009 10.009 0 1 1 13.668-3.668 10.056 10.056 0 0 1-8.702 5Zm.052-18.002a8.005 8.005 0 1 0 7.986 8.005 8 8 0 0 0-7.985-8.005h-.002Z"/>
</svg>
