<svg width="40" height="40" viewBox="0 0 40 40" fill="none" xmlns="http://www.w3.org/2000/svg">
<path d="M20.6209 27.5C24.7575 27.5 28.1108 24.1421 28.1108 20C28.1108 15.8579 24.7575 12.5 20.6209 12.5C16.4842 12.5 13.1309 15.8579 13.1309 20C13.1309 24.1421 16.4842 27.5 20.6209 27.5Z" fill="white"/>
<path d="M20.62 25.9404C23.8948 25.9404 26.5496 23.2821 26.5496 20.0029C26.5496 16.7237 23.8948 14.0654 20.62 14.0654C17.3452 14.0654 14.6904 16.7237 14.6904 20.0029C14.6904 23.2821 17.3452 25.9404 20.62 25.9404Z" fill="#333333"/>
<path d="M20.6308 12.502H20.6285L20.6269 12.5078L20.6308 12.5078V12.502Z" fill="#333333"/>
<path d="M24.367 13.5001C24.3711 13.5024 24.3752 13.5048 24.3793 13.5071C25.5205 14.1643 26.4683 15.1107 27.1272 16.2509C27.786 17.3912 28.1326 18.685 28.132 20.0019C28.1314 21.3188 27.7836 22.6122 27.1237 23.7519L20.6296 35C23.2625 35.0004 25.8492 34.3076 28.1294 32.9912C30.4096 31.6748 32.3031 29.7812 33.6193 27.501C34.9356 25.2207 35.6284 22.6341 35.6279 20.0011C35.6275 17.7454 35.1183 15.5239 34.1442 13.5001H24.367Z" fill="#333333"/>
<path d="M7.64106 12.504L14.1352 23.7521C14.7922 24.8934 15.7385 25.8413 16.8787 26.5003C18.0189 27.1592 19.3126 27.506 20.6295 27.5055C21.9462 27.5051 23.2395 27.1576 24.3791 26.4981L19.4951 34.9574C17.2582 34.7881 15.0826 34.1185 13.1313 32.9924C10.8509 31.6763 8.95712 29.7831 7.6405 27.503C6.32387 25.2229 5.63076 22.6363 5.63086 20.0034C5.63096 17.3705 6.32426 14.784 7.64106 12.504Z" fill="#333333"/>
<path d="M20.6251 35.0002C20.6272 35.0002 20.6293 35.0002 20.6314 35.0002L27.1255 23.752L27.1215 23.748L20.6251 35.0002Z" fill="#333333"/>
<path d="M33.62 12.5H20.6317C19.3149 12.4984 18.0208 12.844 16.88 13.5019C15.7393 14.1598 14.7921 15.1069 14.1341 16.2476C13.476 17.3883 13.1303 18.6823 13.1318 19.9992C13.1318 20.0048 13.1318 20.0104 13.1318 20.016L8.24231 11.5472C9.50806 9.69108 11.1777 8.13889 13.1314 7.01045C15.4113 5.69357 17.9978 5.00018 20.6308 5C23.2637 4.99982 25.8503 5.69285 28.1304 7.0094C30.4105 8.32596 32.3039 10.2196 33.62 12.5Z" fill="#333333"/>
</svg>
