<svg width="40" height="22" viewBox="0 0 40 22" fill="none" xmlns="http://www.w3.org/2000/svg">
<path d="M40 6.53833C40 6.05925 39.6104 5.67092 39.132 5.67092C38.6524 5.67092 38.2628 6.05925 38.2628 6.53833V8.36296C38.2628 8.84462 38.6524 9.23314 39.132 9.23314C39.6104 9.23314 40 8.84462 40 8.36296V6.53833ZM35.2246 4.14351C35.2246 3.66462 34.8361 3.27555 34.3457 3.27555C33.8661 3.27555 33.4776 3.66462 33.4776 4.14351V8.36296C33.4776 8.84462 33.8661 9.23314 34.3457 9.23314C34.8361 9.23314 35.2246 8.84462 35.2246 8.36296V4.14351ZM30.4394 0.867216C30.4394 0.388142 30.0509 -0.000375748 29.5715 -0.000375748C29.0919 -0.000375748 28.7033 0.388142 28.7033 0.867216V10.0968C28.7033 10.5787 29.0919 10.967 29.5715 10.967C30.0509 10.967 30.4394 10.5787 30.4394 10.0968V0.867216ZM25.6531 4.14351C25.6531 3.66462 25.2648 3.27555 24.7852 3.27555C24.3067 3.27555 23.917 3.66462 23.917 4.14351V8.36296C23.917 8.84462 24.3067 9.23314 24.7852 9.23314C25.2648 9.23314 25.6531 8.84462 25.6531 8.36296V4.14351ZM20.868 6.53833C20.868 6.05925 20.4796 5.67092 20.0028 5.67092C19.5231 5.67092 19.132 6.05925 19.132 6.53833V8.36296C19.132 8.84462 19.5231 9.23314 20.0028 9.23314C20.4796 9.23314 20.868 8.84462 20.868 8.36296V6.53833ZM16.0906 4.14351C16.0906 3.66462 15.6993 3.27555 15.2198 3.27555C14.7402 3.27555 14.3489 3.66462 14.3489 4.14351V8.36296C14.3489 8.84462 14.7402 9.23314 15.2198 9.23314C15.6993 9.23314 16.0906 8.84462 16.0906 8.36296V4.14351ZM11.3076 0.867216C11.3076 0.388142 10.9163 -0.000375748 10.4367 -0.000375748C9.95722 -0.000375748 9.56593 0.388142 9.56593 0.867216V10.0968C9.56593 10.5787 9.95722 10.967 10.4367 10.967C10.9163 10.967 11.3076 10.5787 11.3076 10.0968V0.867216ZM6.52444 4.14351C6.52444 3.66462 6.13333 3.27555 5.6537 3.27555C5.17407 3.27555 4.78296 3.66462 4.78296 4.14351V8.36296C4.78296 8.84462 5.17407 9.23314 5.6537 9.23314C6.13333 9.23314 6.52444 8.84462 6.52444 8.36296V4.14351ZM1.74148 6.53833C1.74148 6.05925 1.35037 5.67092 0.87074 5.67092C0.391666 5.67092 0 6.05925 0 6.53833V8.36296C0 8.84462 0.391666 9.23314 0.87074 9.23314C1.35037 9.23314 1.74148 8.84462 1.74148 8.36296V6.53833ZM19.7185 14.1041C19.6663 14.0898 18.8628 13.8826 18.0089 13.8826C16.3922 13.8826 15.4189 14.7555 15.4189 16.0555C15.4189 17.2063 16.2331 17.7802 17.2104 18.0889C17.3187 18.1246 17.4783 18.1746 17.5846 18.2098C18.0196 18.3467 18.3669 18.55 18.3669 18.9022C18.3669 19.2961 17.9656 19.5511 17.0931 19.5511C16.3265 19.5511 15.5915 19.3318 15.4367 19.2928V20.8922C15.523 20.9105 16.3965 21.082 17.3296 21.082C18.6719 21.082 20.2072 20.4955 20.2072 18.7496C20.2072 17.9028 19.6887 17.1231 18.5504 16.7613L18.0665 16.6072C17.7778 16.5161 17.2624 16.3685 17.2624 15.9454C17.2624 15.6111 17.6443 15.3757 18.3474 15.3757C18.9541 15.3757 19.6924 15.5796 19.7185 15.5878V14.1041ZM34.5409 17.4824C34.5409 18.4937 33.7663 19.3118 32.7269 19.3118C31.6863 19.3118 30.9137 18.4937 30.9137 17.4824C30.9137 16.4731 31.6863 15.6546 32.7269 15.6546C33.7663 15.6546 34.5409 16.4731 34.5409 17.4824ZM32.7269 13.8848C30.5891 13.8848 29.0559 15.4972 29.0559 17.4824C29.0559 19.4707 30.5891 21.082 32.7269 21.082C34.8644 21.082 36.3998 19.4707 36.3998 17.4824C36.3998 15.4972 34.8644 13.8848 32.7269 13.8848ZM8.90185 14.1339C8.73704 14.085 8.12778 13.8848 7.30259 13.8848C5.16815 13.8848 3.6013 15.4067 3.6013 17.4824C3.6013 19.7218 5.33093 21.082 7.30259 21.082C8.08593 21.082 8.68389 20.8965 8.90185 20.8346V18.9689C8.82648 19.0107 8.25315 19.3378 7.42833 19.3378C6.25982 19.3378 5.50611 18.5154 5.50611 17.4824C5.50611 16.418 6.29241 15.6285 7.42833 15.6285C8.26722 15.6285 8.8313 15.9628 8.90185 15.9996V14.1339ZM27.2093 14.1339C27.0431 14.085 26.4333 13.8848 25.6109 13.8848C23.4733 13.8848 21.9065 15.4067 21.9065 17.4824C21.9065 19.7218 23.6381 21.082 25.6109 21.082C26.39 21.082 26.9889 20.8965 27.2093 20.8346V18.9689C27.1322 19.0107 26.5581 19.3378 25.7335 19.3378C24.5659 19.3378 23.813 18.5154 23.813 17.4824C23.813 16.418 24.5996 15.6285 25.7335 15.6285C26.5722 15.6285 27.1376 15.9628 27.2093 15.9996V14.1339ZM13.0669 20.9583H11.3128V14.008H13.0669V20.9583Z" fill="#333333"/>
</svg>
