<svg width="40" height="40" viewBox="0 0 40 40" fill="none" xmlns="http://www.w3.org/2000/svg">
<path d="M40 15.5383C40 15.0593 39.6104 14.6709 39.132 14.6709C38.6524 14.6709 38.2628 15.0593 38.2628 15.5383V17.363C38.2628 17.8446 38.6524 18.2331 39.132 18.2331C39.6104 18.2331 40 17.8446 40 17.363V15.5383ZM35.2246 13.1435C35.2246 12.6646 34.8361 12.2756 34.3457 12.2756C33.8661 12.2756 33.4776 12.6646 33.4776 13.1435V17.363C33.4776 17.8446 33.8661 18.2331 34.3457 18.2331C34.8361 18.2331 35.2246 17.8446 35.2246 17.363V13.1435ZM30.4394 9.86722C30.4394 9.38814 30.0509 8.99962 29.5715 8.99962C29.0919 8.99962 28.7033 9.38814 28.7033 9.86722V19.0968C28.7033 19.5787 29.0919 19.967 29.5715 19.967C30.0509 19.967 30.4394 19.5787 30.4394 19.0968V9.86722ZM25.6531 13.1435C25.6531 12.6646 25.2648 12.2756 24.7852 12.2756C24.3067 12.2756 23.917 12.6646 23.917 13.1435V17.363C23.917 17.8446 24.3067 18.2331 24.7852 18.2331C25.2648 18.2331 25.6531 17.8446 25.6531 17.363V13.1435ZM20.868 15.5383C20.868 15.0593 20.4796 14.6709 20.0028 14.6709C19.5231 14.6709 19.132 15.0593 19.132 15.5383V17.363C19.132 17.8446 19.5231 18.2331 20.0028 18.2331C20.4796 18.2331 20.868 17.8446 20.868 17.363V15.5383ZM16.0906 13.1435C16.0906 12.6646 15.6993 12.2756 15.2198 12.2756C14.7402 12.2756 14.3489 12.6646 14.3489 13.1435V17.363C14.3489 17.8446 14.7402 18.2331 15.2198 18.2331C15.6993 18.2331 16.0906 17.8446 16.0906 17.363V13.1435ZM11.3076 9.86722C11.3076 9.38814 10.9163 8.99962 10.4367 8.99962C9.95722 8.99962 9.56593 9.38814 9.56593 9.86722V19.0968C9.56593 19.5787 9.95722 19.967 10.4367 19.967C10.9163 19.967 11.3076 19.5787 11.3076 19.0968V9.86722ZM6.52444 13.1435C6.52444 12.6646 6.13333 12.2756 5.6537 12.2756C5.17407 12.2756 4.78296 12.6646 4.78296 13.1435V17.363C4.78296 17.8446 5.17407 18.2331 5.6537 18.2331C6.13333 18.2331 6.52444 17.8446 6.52444 17.363V13.1435ZM1.74148 15.5383C1.74148 15.0593 1.35037 14.6709 0.87074 14.6709C0.391666 14.6709 0 15.0593 0 15.5383V17.363C0 17.8446 0.391666 18.2331 0.87074 18.2331C1.35037 18.2331 1.74148 17.8446 1.74148 17.363V15.5383ZM19.7185 23.1041C19.6663 23.0898 18.8628 22.8826 18.0089 22.8826C16.3922 22.8826 15.4189 23.7555 15.4189 25.0555C15.4189 26.2063 16.2331 26.7802 17.2104 27.0889C17.3187 27.1246 17.4783 27.1746 17.5846 27.2098C18.0196 27.3467 18.3669 27.55 18.3669 27.9022C18.3669 28.2961 17.9656 28.5511 17.0931 28.5511C16.3265 28.5511 15.5915 28.3318 15.4367 28.2928V29.8922C15.523 29.9105 16.3965 30.082 17.3296 30.082C18.6719 30.082 20.2072 29.4955 20.2072 27.7496C20.2072 26.9028 19.6887 26.1231 18.5504 25.7613L18.0665 25.6072C17.7778 25.5161 17.2624 25.3685 17.2624 24.9454C17.2624 24.6111 17.6443 24.3757 18.3474 24.3757C18.9541 24.3757 19.6924 24.5796 19.7185 24.5878V23.1041ZM34.5409 26.4824C34.5409 27.4937 33.7663 28.3118 32.7269 28.3118C31.6863 28.3118 30.9137 27.4937 30.9137 26.4824C30.9137 25.4731 31.6863 24.6546 32.7269 24.6546C33.7663 24.6546 34.5409 25.4731 34.5409 26.4824ZM32.7269 22.8848C30.5891 22.8848 29.0559 24.4972 29.0559 26.4824C29.0559 28.4707 30.5891 30.082 32.7269 30.082C34.8644 30.082 36.3998 28.4707 36.3998 26.4824C36.3998 24.4972 34.8644 22.8848 32.7269 22.8848ZM8.90185 23.1339C8.73704 23.085 8.12778 22.8848 7.30259 22.8848C5.16815 22.8848 3.6013 24.4067 3.6013 26.4824C3.6013 28.7218 5.33093 30.082 7.30259 30.082C8.08593 30.082 8.68389 29.8965 8.90185 29.8346V27.9689C8.82648 28.0107 8.25315 28.3378 7.42833 28.3378C6.25982 28.3378 5.50611 27.5154 5.50611 26.4824C5.50611 25.418 6.29241 24.6285 7.42833 24.6285C8.26722 24.6285 8.8313 24.9628 8.90185 24.9996V23.1339ZM27.2093 23.1339C27.0431 23.085 26.4333 22.8848 25.6109 22.8848C23.4733 22.8848 21.9065 24.4067 21.9065 26.4824C21.9065 28.7218 23.6381 30.082 25.6109 30.082C26.39 30.082 26.9889 29.8965 27.2093 29.8346V27.9689C27.1322 28.0107 26.5581 28.3378 25.7335 28.3378C24.5659 28.3378 23.813 27.5154 23.813 26.4824C23.813 25.418 24.5996 24.6285 25.7335 24.6285C26.5722 24.6285 27.1376 24.9628 27.2093 24.9996V23.1339ZM13.0669 29.9583H11.3128V23.008H13.0669V29.9583Z" fill="#333333"/>
</svg>
