<svg width="28" height="25" viewBox="0 0 28 25" fill="none" xmlns="http://www.w3.org/2000/svg">
<path d="M25.7812 0H1.49148C1.11269 0 0.757576 0.170565 0.426136 0.511696C0.142045 0.852827 0 1.21832 0 1.60819V20.3216C0 20.6628 0.16572 21.0039 0.497159 21.345C0.828598 21.6862 1.16004 21.8567 1.49148 21.8567H9.09091V23.3918H6.03693V25H21.2358V23.3918H18.1818V21.8567H25.7812C26.1127 21.8567 26.4441 21.6862 26.7756 21.345C27.107 21.0039 27.2727 20.6628 27.2727 20.3216V1.60819C27.2727 1.21832 27.107 0.852827 26.7756 0.511696C26.4915 0.170565 26.16 0 25.7812 0ZM25.7812 20.3216H1.49148V1.60819H25.7812V20.3216Z" fill="#565758"/>
</svg>
