<svg width="32" height="32" viewBox="0 0 32 32" fill="none" xmlns="http://www.w3.org/2000/svg">
<path fill-rule="evenodd" clip-rule="evenodd" d="M25.8784 5.41463C25.8784 6.35756 25.114 7.12195 24.171 7.12195C23.2281 7.12195 22.4637 6.35756 22.4637 5.41463C22.4637 4.47171 23.2281 3.70732 24.171 3.70732C25.114 3.70732 25.8784 4.47171 25.8784 5.41463ZM27.5857 5.41463C27.5857 7.30048 26.0569 8.82927 24.171 8.82927C23.5909 8.82927 23.0445 8.68459 22.5661 8.42935L22.7359 8.57493L19.1881 12.7141C20.1608 13.7521 20.7565 15.1478 20.7565 16.6826C20.7565 17.6458 20.5219 18.5543 20.1067 19.3539L22.1973 20.9218C22.9871 20.1981 24.0397 19.7564 25.1954 19.7564C27.647 19.7564 29.6345 21.7438 29.6345 24.1954C29.6345 26.647 27.647 28.6345 25.1954 28.6345C22.7438 28.6345 20.7564 26.647 20.7564 24.1954C20.7564 23.5154 20.9093 22.8711 21.1826 22.295L19.1057 20.7373C18.0515 21.8171 16.5798 22.4875 14.9516 22.4875C13.9805 22.4875 13.0651 22.2491 12.2608 21.8275L9.9098 24.6487C10.2896 25.1991 10.512 25.8665 10.512 26.5858C10.512 28.4716 8.98324 30.0004 7.09739 30.0004C5.21154 30.0004 3.68276 28.4716 3.68276 26.5858C3.68276 24.6999 5.21154 23.1711 7.09739 23.1711C7.64475 23.1711 8.16203 23.2999 8.62058 23.5289L10.8788 20.819C9.80961 19.7661 9.1467 18.3018 9.1467 16.6826C9.1467 15.4449 9.53409 14.2976 10.1942 13.3554L7.31731 11.0539C6.87024 11.3731 6.32291 11.5609 5.73171 11.5609C4.22303 11.5609 3 10.3379 3 8.8292C3 7.32052 4.22303 6.09749 5.73171 6.09749C7.24039 6.09749 8.46341 7.32052 8.46341 8.8292C8.46341 9.12516 8.41635 9.41014 8.32929 9.67704L11.3728 12.1119C12.3589 11.3387 13.6014 10.8777 14.9516 10.8777C16.0072 10.8777 16.997 11.1595 17.8499 11.6519L21.4395 7.46399C21.0106 6.8932 20.7564 6.1836 20.7564 5.41463C20.7564 3.52878 22.2852 2 24.171 2C26.0569 2 27.5857 3.52878 27.5857 5.41463ZM6.7561 8.8292C6.7561 9.39495 6.29746 9.85359 5.73171 9.85359C5.16595 9.85359 4.70732 9.39495 4.70732 8.8292C4.70732 8.26344 5.16595 7.80481 5.73171 7.80481C6.29746 7.80481 6.7561 8.26344 6.7561 8.8292ZM7.09739 28.2931C8.04032 28.2931 8.80471 27.5287 8.80471 26.5858C8.80471 25.6428 8.04032 24.8785 7.09739 24.8785C6.15447 24.8785 5.39008 25.6428 5.39008 26.5858C5.39008 27.5287 6.15447 28.2931 7.09739 28.2931ZM25.1954 26.9271C26.7041 26.9271 27.9271 25.7041 27.9271 24.1954C27.9271 22.6868 26.7041 21.4637 25.1954 21.4637C23.6868 21.4637 22.4637 22.6868 22.4637 24.1954C22.4637 25.7041 23.6868 26.9271 25.1954 26.9271Z" fill="#333333"/>
<path d="M5.73142 9.85347C6.29718 9.85347 6.75581 9.39483 6.75581 8.82908C6.75581 8.26332 6.29718 7.80469 5.73142 7.80469C5.16567 7.80469 4.70703 8.26332 4.70703 8.82908C4.70703 9.39483 5.16567 9.85347 5.73142 9.85347Z" fill="white"/>
<path d="M7.09697 28.2926C8.03989 28.2926 8.80428 27.5282 8.80428 26.5852C8.80428 25.6423 8.03989 24.8779 7.09697 24.8779C6.15404 24.8779 5.38965 25.6423 5.38965 26.5852C5.38965 27.5282 6.15404 28.2926 7.09697 28.2926Z" fill="white"/>
<path d="M25.1956 26.9273C26.7043 26.9273 27.9273 25.7043 27.9273 24.1956C27.9273 22.6869 26.7043 21.4639 25.1956 21.4639C23.6869 21.4639 22.4639 22.6869 22.4639 24.1956C22.4639 25.7043 23.6869 26.9273 25.1956 26.9273Z" fill="white"/>
<path d="M24.1712 7.12167C25.1141 7.12167 25.8785 6.35727 25.8785 5.41435C25.8785 4.47142 25.1141 3.70703 24.1712 3.70703C23.2283 3.70703 22.4639 4.47142 22.4639 5.41435C22.4639 6.35727 23.2283 7.12167 24.1712 7.12167Z" fill="white"/>
</svg>
