<svg width="20" height="20" viewBox="0 0 20 20" fill="none" xmlns="http://www.w3.org/2000/svg">
    <path d="M4.71591 2.5H12.7439C12.8979 2.5 13.0483 2.53513 13.1856 2.60078C13.3227 2.66627 13.4422 2.75987 13.5396 2.87224L17.3298 7.24556C17.427 7.3578 17.5011 7.48734 17.5506 7.62529C17.6001 7.76323 17.625 7.90912 17.625 8.05515V17.3182C17.625 17.6103 17.5251 17.9024 17.3298 18.1278C17.1325 18.3553 16.8484 18.5 16.5341 18.5H4.71591C4.40161 18.5 4.11746 18.3553 3.92023 18.1278C3.72495 17.9024 3.625 17.6103 3.625 17.3182V3.68182C3.625 3.38965 3.72495 3.09756 3.92023 2.87223C4.11746 2.64466 4.40161 2.5 4.71591 2.5Z" stroke="var(--acx-accents-blue-50)" stroke-linecap="round" stroke-linejoin="round"/>
    <path d="M17.125 8H13.125V3" stroke="var(--acx-accents-blue-50)" stroke-linecap="round" stroke-linejoin="round"/>
    <path d="M12.0659 15.2899V14.0732L15.671 12.5548V13.2361L12.0659 11.7177V10.501L16.0659 12.2628V13.5281L12.0659 15.2899Z" fill="var(--acx-accents-blue-50)"/>
    <path d="M8.95947 17L11.2695 9.10547H12.2425L9.93247 17H8.95947Z" fill="var(--acx-accents-blue-50)"/>
    <path d="M9.06592 15.2899L5.06592 13.5281V12.2628L9.06592 10.501V11.7177L5.46088 13.2361V12.5548L9.06592 14.0732V15.2899Z" fill="var(--acx-accents-blue-50)"/>
</svg>
