<svg xmlns="http://www.w3.org/2000/svg" width="24" height="24" fill="none" viewBox="0 0 24 24">
  <path fill="currentColor" d="m21.53 9.932-2.432-1.35a7.87 7.87 0 0 0-.59-1.023l.047-2.784a9.739 9.739 0 0 0-3.578-2.062L12.59 4.144a7.864 7.864 0 0 0-1.18 0L9.024 2.71a9.74 9.74 0 0 0-3.576 2.068l.047 2.781c-.222.326-.42.667-.591 1.022L2.47 9.933a9.74 9.74 0 0 0 .003 4.13l2.432 1.351c.171.355.368.697.59 1.023l-.047 2.783a9.74 9.74 0 0 0 3.579 2.063l2.385-1.432c.393.03.788.03 1.18.001l2.388 1.433a9.74 9.74 0 0 0 3.575-2.068l-.047-2.782c.223-.325.42-.667.591-1.022l2.434-1.35a9.74 9.74 0 0 0-.003-4.131Zm-9.528 6.566a4.5 4.5 0 1 1 0-9.001 4.5 4.5 0 0 1 0 9Z"/>
  <path stroke="currentColor" stroke-linecap="round" stroke-linejoin="round" d="M18.508 7.559c.222.325.42.667.59 1.022l2.432 1.35a9.74 9.74 0 0 1 .003 4.131L19.1 15.413a7.864 7.864 0 0 1-.59 1.022l.046 2.782a9.74 9.74 0 0 1-3.575 2.068l-2.387-1.433c-.393.03-.788.03-1.18 0l-2.386 1.43a9.74 9.74 0 0 1-3.579-2.062l.047-2.783a7.869 7.869 0 0 1-.59-1.023l-2.432-1.35a9.74 9.74 0 0 1-.003-4.13l2.434-1.352c.17-.355.369-.696.59-1.022L5.449 4.78A9.74 9.74 0 0 1 9.024 2.71l2.387 1.432c.393-.03.787-.029 1.18.001l2.386-1.431a9.74 9.74 0 0 1 3.578 2.062l-.047 2.784Z"/>
  <path stroke="currentColor" stroke-linecap="round" stroke-linejoin="round" d="M12 16.5a4.5 4.5 0 1 0 0-9 4.5 4.5 0 0 0 0 9Z"/>
</svg>
