<svg xmlns="http://www.w3.org/2000/svg" width="24" height="24" viewBox="0 0 24 24" fill="white">
<g clip-path="url(#clip0_103_2749)">
<path d="M12 21C16.9706 21 21 16.9706 21 12C21 7.02944 16.9706 3 12 3C7.02944 3 3 7.02944 3 12C3 16.9706 7.02944 21 12 21Z" fill="#333333"/>
<path d="M12 21C16.9706 21 21 16.9706 21 12C21 7.02944 16.9706 3 12 3C7.02944 3 3 7.02944 3 12C3 16.9706 7.02944 21 12 21Z" stroke="#333333" stroke-miterlimit="10"/>
<path d="M15 9L9 15" stroke="red" stroke-linecap="round" stroke-linejoin="round" style="stroke-width:2"/>
<path d="M15 15L9 9" stroke="red" stroke-linecap="round" stroke-linejoin="round" style="stroke-width:2"/>
</g>
<defs>
<clipPath id="clip0_103_2749">
<rect width="24" height="24" fill="white"/>
</clipPath>
</defs>
</svg>