<svg width="24" height="24" viewBox="0 0 24 24" fill="none" xmlns="http://www.w3.org/2000/svg">
<path d="M4.22933 18.3761C4.25271 18.4747 4.2958 18.5675 4.35599 18.649C4.41619 18.7305 4.49225 18.799 4.5796 18.8504C4.66695 18.9017 4.76379 18.9348 4.86428 18.9478C4.96477 18.9607 5.06684 18.9532 5.16435 18.9257C9.63522 17.6913 14.3569 17.6908 18.828 18.9244C18.9255 18.9519 19.0276 18.9594 19.128 18.9465C19.2285 18.9335 19.3253 18.9004 19.4126 18.8491C19.4999 18.7978 19.576 18.7293 19.6361 18.6479C19.6963 18.5664 19.7394 18.4736 19.7629 18.3751L22.1524 8.22036C22.1844 8.08442 22.1778 7.94225 22.1334 7.80985C22.0889 7.67746 22.0084 7.56011 21.9008 7.47101C21.7933 7.38192 21.663 7.32462 21.5246 7.30557C21.3863 7.28653 21.2454 7.30649 21.1178 7.36321L16.3755 9.47087C16.2043 9.54697 16.0108 9.55622 15.8331 9.49679C15.6553 9.43735 15.5063 9.31355 15.4153 9.14974L12.6541 4.17964C12.5892 4.06273 12.4941 3.9653 12.3789 3.89747C12.2636 3.82964 12.1323 3.79388 11.9985 3.79388C11.8648 3.79388 11.7335 3.82964 11.6182 3.89747C11.5029 3.9653 11.4079 4.06273 11.3429 4.17964L8.58175 9.14974C8.49074 9.31355 8.34172 9.43735 8.164 9.49678C7.98629 9.55622 7.79277 9.54697 7.62153 9.47087L2.87858 7.36289C2.75098 7.30618 2.61009 7.28622 2.47177 7.30525C2.33344 7.32427 2.20317 7.38154 2.09563 7.47059C1.98808 7.55965 1.90754 7.67696 1.86305 7.80931C1.81857 7.94166 1.81192 8.08381 1.84384 8.21974L4.22933 18.3761Z" stroke="#333333" stroke-linecap="round" stroke-linejoin="round"/>
</svg>
