<svg width="16" height="16" viewBox="0 0 16 16" fill="none" xmlns="http://www.w3.org/2000/svg">
<path fill-rule="evenodd" clip-rule="evenodd" d="M1.93962 3.98331C2.05788 3.90645 2.207 3.89464 2.33589 3.95193L8.33589 6.6186C8.48636 6.68547 8.58333 6.83469 8.58333 6.99935V13.3327C8.58333 13.4771 8.50856 13.6112 8.38572 13.6871C8.26288 13.763 8.10949 13.7699 7.98033 13.7054L1.98033 10.7054C1.83917 10.6348 1.75 10.4905 1.75 10.3327V4.33268C1.75 4.19164 1.82135 4.06017 1.93962 3.98331ZM2.58333 4.97383V10.0752L7.75 12.6585V7.27013L2.58333 4.97383Z" fill="#333333"/>
<path fill-rule="evenodd" clip-rule="evenodd" d="M7.85492 1.77607C7.95187 1.74007 8.05873 1.7414 8.15475 1.7798L13.9881 4.11313C14.1463 4.17641 14.25 4.32962 14.25 4.5V10.1667C14.25 10.3176 14.1684 10.4568 14.0366 10.5304L8.36993 13.6971C8.24089 13.7692 8.08331 13.7675 7.95581 13.6927C7.82832 13.6179 7.75 13.4812 7.75 13.3333V7.27078L1.99744 4.71409C1.84264 4.64529 1.7449 4.48961 1.75021 4.3203C1.75551 4.15098 1.86279 4.00172 2.02159 3.94274L7.85492 1.77607ZM12.7584 4.51881L7.99445 2.61321L3.27033 4.36788L8.16729 6.54431L12.7584 4.51881ZM8.12602 13.2606C8.12595 13.2606 8.12609 13.2605 8.12602 13.2606V13.2606ZM13.4167 5.13924L8.58333 7.27159V12.6232L13.4167 9.9222V5.13924Z" fill="#333333"/>
</svg>
