<svg width="40" height="40" viewBox="0 0 40 40" fill="none" xmlns="http://www.w3.org/2000/svg">
  <rect width="40" height="40" rx="4" fill="#3C84E0"/>
  <rect x="8.5" y="8.5" width="23" height="23" rx="1.5" stroke="white"/>
  <path d="M8.9231 13H31.0769" stroke="white" stroke-linecap="round" stroke-linejoin="round"/>
  <circle cx="10.5" cy="10.5" r="0.5" fill="white"/>
  <circle cx="12.5" cy="10.5" r="0.5" fill="white"/>
  <circle cx="14.5" cy="10.5" r="0.5" fill="white"/>
  <rect x="11.5" y="19" width="17" height="5" rx="0.5" stroke="white" stroke-linejoin="round"/>
  <path
    d="M19.5215 20.6074C19.4056 20.6074 19.3027 20.6302 19.2129 20.6758C19.1243 20.72 19.0495 20.7845 18.9883 20.8691C18.9284 20.9537 18.8828 21.056 18.8516 21.1758C18.8203 21.2955 18.8047 21.4303 18.8047 21.58C18.8047 21.7819 18.8294 21.9544 18.8789 22.0976C18.9297 22.2396 19.0078 22.3483 19.1133 22.4238C19.2188 22.498 19.3548 22.5351 19.5215 22.5351C19.6374 22.5351 19.7533 22.5221 19.8691 22.4961C19.9863 22.47 20.1133 22.4329 20.25 22.3847V22.8925C20.1237 22.9446 19.9993 22.9817 19.877 23.0039C19.7546 23.0273 19.6172 23.039 19.4648 23.039C19.1706 23.039 18.9284 22.9785 18.7383 22.8574C18.5495 22.735 18.4095 22.5644 18.3184 22.3457C18.2272 22.1256 18.1816 21.8691 18.1816 21.5761C18.1816 21.36 18.2109 21.1621 18.2695 20.9824C18.3281 20.8027 18.4141 20.6471 18.5273 20.5156C18.6406 20.3841 18.7806 20.2825 18.9473 20.2109C19.1139 20.1393 19.3053 20.1035 19.5215 20.1035C19.6634 20.1035 19.8053 20.1217 19.9473 20.1582C20.0905 20.1933 20.2272 20.2422 20.3574 20.3047L20.1621 20.7968C20.0553 20.7461 19.9479 20.7018 19.8398 20.664C19.7318 20.6263 19.6257 20.6074 19.5215 20.6074Z"
    fill="white"/>
  <path
    d="M15.6211 20.1445H16.5098C16.89 20.1445 17.1777 20.1979 17.373 20.3047C17.5684 20.4114 17.666 20.5989 17.666 20.8672C17.666 20.9752 17.6484 21.0729 17.6133 21.1601C17.5794 21.2474 17.5299 21.319 17.4648 21.375C17.3997 21.431 17.3203 21.4674 17.2266 21.4843V21.5039C17.3216 21.5234 17.4076 21.5573 17.4844 21.6054C17.5612 21.6523 17.6224 21.7213 17.668 21.8125C17.7148 21.9023 17.7383 22.0221 17.7383 22.1718C17.7383 22.345 17.696 22.4935 17.6113 22.6172C17.5267 22.7409 17.4056 22.8359 17.248 22.9023C17.0918 22.9674 16.9056 23 16.6895 23H15.6211V20.1445ZM16.2266 21.2754H16.5781C16.7539 21.2754 16.8757 21.248 16.9434 21.1933C17.0111 21.1373 17.0449 21.0553 17.0449 20.9472C17.0449 20.8379 17.0046 20.7597 16.9238 20.7129C16.8444 20.6647 16.7181 20.6406 16.5449 20.6406H16.2266V21.2754ZM16.2266 21.7558V22.5H16.6211C16.8034 22.5 16.9303 22.4648 17.002 22.3945C17.0736 22.3242 17.1094 22.2298 17.1094 22.1113C17.1094 22.041 17.0937 21.9791 17.0625 21.9258C17.0312 21.8724 16.9785 21.8307 16.9043 21.8008C16.8314 21.7708 16.7305 21.7558 16.6016 21.7558H16.2266Z"
    fill="white"/>
  <path
    d="M14.6074 23L14.4004 22.3203H13.3594L13.1523 23H12.5L13.5078 20.1328H14.248L15.2598 23H14.6074ZM14.2559 21.8125L14.0488 21.1484C14.0358 21.1041 14.0182 21.0475 13.9961 20.9785C13.9753 20.9082 13.9538 20.8372 13.9316 20.7656C13.9108 20.6927 13.8939 20.6295 13.8809 20.5761C13.8678 20.6295 13.8496 20.6959 13.8262 20.7754C13.804 20.8535 13.7826 20.9277 13.7617 20.998C13.7409 21.0683 13.7259 21.1185 13.7168 21.1484L13.5117 21.8125H14.2559Z"
    fill="white"/>
  <path d="M21.25 22.7692H23.25" stroke="white" stroke-width="0.5" stroke-linecap="round" stroke-linejoin="round"/>
</svg>
