<svg width="24" height="24" viewBox="0 0 24 24" fill="none" xmlns="http://www.w3.org/2000/svg">
  <rect x="0.5" y="0.5" width="23" height="23" rx="1.5" stroke="white"/>
  <path d="M0.923096 5.00002H23.0769" stroke="white" stroke-linecap="round" stroke-linejoin="round"/>
  <circle cx="2.50012" cy="2.50002" r="0.5" fill="white"/>
  <circle cx="4.49988" cy="2.50002" r="0.5" fill="white"/>
  <circle cx="6.5" cy="2.50002" r="0.5" fill="white"/>
  <rect x="3.5" y="11" width="17" height="5" rx="0.5" stroke="white" stroke-linejoin="round"/>
  <path
    d="M11.5214 12.6074C11.4055 12.6074 11.3026 12.6302 11.2128 12.6758C11.1242 12.72 11.0494 12.7845 10.9882 12.8691C10.9283 12.9537 10.8827 13.056 10.8514 13.1758C10.8202 13.2955 10.8046 13.4303 10.8046 13.58C10.8046 13.7819 10.8293 13.9544 10.8788 14.0976C10.9296 14.2396 11.0077 14.3483 11.1132 14.4238C11.2186 14.498 11.3547 14.5351 11.5214 14.5351C11.6372 14.5351 11.7531 14.5221 11.869 14.4961C11.9862 14.47 12.1132 14.4329 12.2499 14.3847V14.8925C12.1236 14.9446 11.9992 14.9817 11.8768 15.0039C11.7544 15.0273 11.6171 15.039 11.4647 15.039C11.1705 15.039 10.9283 14.9785 10.7382 14.8574C10.5494 14.735 10.4094 14.5644 10.3182 14.3457C10.2271 14.1256 10.1815 13.8691 10.1815 13.5761C10.1815 13.36 10.2108 13.1621 10.2694 12.9824C10.328 12.8027 10.4139 12.6471 10.5272 12.5156C10.6405 12.3841 10.7805 12.2825 10.9471 12.2109C11.1138 12.1393 11.3052 12.1035 11.5214 12.1035C11.6633 12.1035 11.8052 12.1217 11.9471 12.1582C12.0904 12.1933 12.2271 12.2422 12.3573 12.3047L12.162 12.7968C12.0552 12.7461 11.9478 12.7018 11.8397 12.664C11.7316 12.6263 11.6255 12.6074 11.5214 12.6074Z"
    fill="white"/>
  <path
    d="M7.62097 12.1445H8.50964C8.88985 12.1445 9.17761 12.1979 9.37292 12.3047C9.56824 12.4114 9.66589 12.5989 9.66589 12.8672C9.66589 12.9752 9.64832 13.0729 9.61316 13.1601C9.5793 13.2474 9.52983 13.319 9.46472 13.375C9.39962 13.431 9.32019 13.4674 9.22644 13.4843V13.5039C9.32149 13.5234 9.40743 13.5573 9.48425 13.6054C9.56108 13.6523 9.62227 13.7213 9.66785 13.8125C9.71472 13.9023 9.73816 14.0221 9.73816 14.1718C9.73816 14.345 9.69584 14.4935 9.61121 14.6172C9.52657 14.7409 9.40548 14.8359 9.24792 14.9023C9.09167 14.9674 8.90548 15 8.68933 15H7.62097V12.1445ZM8.22644 13.2754H8.578C8.75378 13.2754 8.87553 13.248 8.94324 13.1933C9.01095 13.1373 9.0448 13.0553 9.0448 12.9472C9.0448 12.8379 9.00444 12.7597 8.92371 12.7129C8.84428 12.6647 8.71798 12.6406 8.5448 12.6406H8.22644V13.2754ZM8.22644 13.7558V14.5H8.62097C8.80326 14.5 8.93022 14.4648 9.00183 14.3945C9.07345 14.3242 9.10925 14.2298 9.10925 14.1113C9.10925 14.041 9.09363 13.9791 9.06238 13.9258C9.03113 13.8724 8.97839 13.8307 8.90417 13.8008C8.83126 13.7708 8.73035 13.7558 8.60144 13.7558H8.22644Z"
    fill="white"/>
  <path
    d="M6.60742 15L6.40039 14.3203H5.35938L5.15234 15H4.5L5.50781 12.1328H6.24805L7.25977 15H6.60742ZM6.25586 13.8125L6.04883 13.1484C6.03581 13.1041 6.01823 13.0475 5.99609 12.9785C5.97526 12.9082 5.95378 12.8372 5.93164 12.7656C5.91081 12.6927 5.89388 12.6295 5.88086 12.5761C5.86784 12.6295 5.84961 12.6959 5.82617 12.7754C5.80404 12.8535 5.78255 12.9277 5.76172 12.998C5.74089 13.0683 5.72591 13.1185 5.7168 13.1484L5.51172 13.8125H6.25586Z"
    fill="white"/>
  <path d="M13.2501 14.7692H15.2501" stroke="white" stroke-width="0.5" stroke-linecap="round" stroke-linejoin="round"/>
</svg>
