<svg width="40" height="40" viewBox="0 0 40 40" fill="none" xmlns="http://www.w3.org/2000/svg">
  <rect width="40" height="40" rx="4" fill="#06AEDF"/>
  <rect x="8.5" y="8.5" width="23" height="23" rx="1.5" stroke="white"/>
  <path d="M8.9231 13H31.0769" stroke="white" stroke-linecap="round" stroke-linejoin="round"/>
  <circle cx="10.5001" cy="10.5" r="0.5" fill="white"/>
  <circle cx="12.4999" cy="10.5" r="0.5" fill="white"/>
  <circle cx="14.5" cy="10.5" r="0.5" fill="white"/>
  <rect x="11.5" y="19" width="17" height="5" rx="0.5" stroke="white" stroke-linejoin="round"/>
  <path
    d="M19.5214 20.6074C19.4055 20.6074 19.3026 20.6302 19.2128 20.6758C19.1242 20.72 19.0494 20.7845 18.9882 20.8691C18.9283 20.9537 18.8827 21.056 18.8514 21.1758C18.8202 21.2955 18.8046 21.4303 18.8046 21.58C18.8046 21.7819 18.8293 21.9544 18.8788 22.0976C18.9296 22.2396 19.0077 22.3483 19.1132 22.4238C19.2186 22.498 19.3547 22.5351 19.5214 22.5351C19.6372 22.5351 19.7531 22.5221 19.869 22.4961C19.9862 22.47 20.1132 22.4329 20.2499 22.3847V22.8925C20.1236 22.9446 19.9992 22.9817 19.8768 23.0039C19.7544 23.0273 19.6171 23.039 19.4647 23.039C19.1705 23.039 18.9283 22.9785 18.7382 22.8574C18.5494 22.735 18.4094 22.5644 18.3182 22.3457C18.2271 22.1256 18.1815 21.8691 18.1815 21.5761C18.1815 21.36 18.2108 21.1621 18.2694 20.9824C18.328 20.8027 18.4139 20.6471 18.5272 20.5156C18.6405 20.3841 18.7805 20.2825 18.9471 20.2109C19.1138 20.1393 19.3052 20.1035 19.5214 20.1035C19.6633 20.1035 19.8052 20.1217 19.9471 20.1582C20.0904 20.1933 20.2271 20.2422 20.3573 20.3047L20.162 20.7968C20.0552 20.7461 19.9478 20.7018 19.8397 20.664C19.7316 20.6263 19.6255 20.6074 19.5214 20.6074Z"
    fill="white"/>
  <path
    d="M15.621 20.1445H16.5096C16.8899 20.1445 17.1776 20.1979 17.3729 20.3047C17.5682 20.4114 17.6659 20.5989 17.6659 20.8672C17.6659 20.9752 17.6483 21.0729 17.6132 21.1601C17.5793 21.2474 17.5298 21.319 17.4647 21.375C17.3996 21.431 17.3202 21.4674 17.2264 21.4843V21.5039C17.3215 21.5234 17.4074 21.5573 17.4843 21.6054C17.5611 21.6523 17.6223 21.7213 17.6678 21.8125C17.7147 21.9023 17.7382 22.0221 17.7382 22.1718C17.7382 22.345 17.6958 22.4935 17.6112 22.6172C17.5266 22.7409 17.4055 22.8359 17.2479 22.9023C17.0917 22.9674 16.9055 23 16.6893 23H15.621V20.1445ZM16.2264 21.2754H16.578C16.7538 21.2754 16.8755 21.248 16.9432 21.1933C17.0109 21.1373 17.0448 21.0553 17.0448 20.9472C17.0448 20.8379 17.0044 20.7597 16.9237 20.7129C16.8443 20.6647 16.718 20.6406 16.5448 20.6406H16.2264V21.2754ZM16.2264 21.7558V22.5H16.621C16.8033 22.5 16.9302 22.4648 17.0018 22.3945C17.0734 22.3242 17.1093 22.2298 17.1093 22.1113C17.1093 22.041 17.0936 21.9791 17.0624 21.9258C17.0311 21.8724 16.9784 21.8307 16.9042 21.8008C16.8313 21.7708 16.7303 21.7558 16.6014 21.7558H16.2264Z"
    fill="white"/>
  <path
    d="M14.6074 23L14.4004 22.3203H13.3594L13.1523 23H12.5L13.5078 20.1328H14.248L15.2598 23H14.6074ZM14.2559 21.8125L14.0488 21.1484C14.0358 21.1041 14.0182 21.0475 13.9961 20.9785C13.9753 20.9082 13.9538 20.8372 13.9316 20.7656C13.9108 20.6927 13.8939 20.6295 13.8809 20.5761C13.8678 20.6295 13.8496 20.6959 13.8262 20.7754C13.804 20.8535 13.7826 20.9277 13.7617 20.998C13.7409 21.0683 13.7259 21.1185 13.7168 21.1484L13.5117 21.8125H14.2559Z"
    fill="white"/>
  <path d="M21.2501 22.7692H23.2501" stroke="white" stroke-width="0.5" stroke-linecap="round" stroke-linejoin="round"/>
</svg>
