<svg width="24" height="24" viewBox="0 0 24 24" fill="none" xmlns="http://www.w3.org/2000/svg">
<path fill-rule="evenodd" clip-rule="evenodd" d="M3.11377 6.29038C3.18473 6.24426 3.2742 6.23718 3.35153 6.27155L12.3515 10.2715C12.4418 10.3117 12.5 10.4012 12.5 10.5V20C12.5 20.0866 12.4551 20.1671 12.3814 20.2127C12.3077 20.2582 12.2157 20.2624 12.1382 20.2236L3.1382 15.7236C3.0535 15.6813 3 15.5947 3 15.5V6.5C3 6.41537 3.04281 6.33649 3.11377 6.29038ZM3.5 6.88469V15.3455L12 19.5955V10.6625L3.5 6.88469Z" fill="currentColor" stroke="currentColor" stroke-width="0.5" stroke-linejoin="round"/>
<path fill-rule="evenodd" clip-rule="evenodd" d="M11.913 3.01564C11.9711 2.99404 12.0352 2.99484 12.0928 3.01788L20.8428 6.51788C20.9378 6.55585 21 6.64777 21 6.75V15.25C21 15.3406 20.951 15.4241 20.872 15.4682L12.372 20.2182C12.2945 20.2615 12.2 20.2605 12.1235 20.2156C12.047 20.1707 12 20.0887 12 20V10.6625L3.14847 6.72845C3.05559 6.68717 2.99694 6.59377 3.00012 6.49218C3.0033 6.39059 3.06767 6.30103 3.16295 6.26564L11.913 3.01564ZM12.5 10.663V19.5739L20.5 15.1033V7.13354L12.5 10.663ZM20.1051 6.76128L11.9967 3.51793L3.9122 6.52073L12.2504 10.2266L20.1051 6.76128Z" fill="currentColor" stroke="currentColor" stroke-width="0.5" stroke-linejoin="round"/>
</svg>
