<svg width="40" height="40" viewBox="0 0 40 40" fill="none" xmlns="http://www.w3.org/2000/svg">
<path d="M38.9993 18.6918V20.9082H31.7637V9.75606H34.311V18.6911H38.9993V18.6918ZM5.54616 20.9076C8.15633 20.9076 10.3498 19.1347 10.9748 16.7355L17.3201 21.6636L23.6614 16.7375V20.9076H30.897V18.6911H26.2093V9.75606H23.662V13.9255L17.5802 18.6499L16.22 17.5931L19.1309 15.3308L22.3013 12.8681L20.4924 11.4608L14.4092 16.1865L13.0497 15.1297L19.1316 10.4053L17.3201 9L10.9748 13.9281C10.3498 11.5289 8.15633 9.75606 5.54616 9.75606H1V20.9076H5.54616ZM3.54727 18.6911V11.9725H5.54616C7.23648 11.9725 8.60642 13.4767 8.60642 15.3321C8.60642 17.1875 7.23582 18.6918 5.54616 18.6918H3.54727V18.6911ZM38.9993 28.1019C38.9993 27.4349 38.6266 27.1394 37.8816 26.9901C37.1367 26.8407 36.6892 26.7673 36.6892 26.2491C36.6892 25.8783 36.9873 25.6568 37.5089 25.6568C38.1797 25.6568 38.4025 25.9536 38.4025 26.3238L38.4765 26.3978H38.7753L38.8493 26.3238C38.8493 25.5828 38.2525 25.286 37.5082 25.286C36.6886 25.286 36.2418 25.7302 36.2418 26.2497C36.2418 26.842 36.6886 27.1388 37.4342 27.2862C38.1797 27.4336 38.5525 27.509 38.5525 28.1012C38.5525 28.472 38.3298 28.7682 37.5842 28.7682C36.9133 28.7682 36.6159 28.3974 36.6159 27.9532L36.5418 27.8791H36.2437L36.1697 27.9532C36.1697 28.6201 36.6912 29.139 37.5849 29.139C38.5532 29.139 39 28.6948 39 28.1012L38.9993 28.1019ZM35.795 27.3622L35.869 27.2882V27.0667C35.869 26.0289 35.2734 25.288 34.2298 25.288C33.1861 25.288 32.5906 26.0289 32.5906 27.0667V27.2148C32.5906 28.2513 33.1121 29.1416 34.3045 29.1416C35.3468 29.1416 35.7196 28.4747 35.795 28.0298L35.7209 27.9558H35.4222L35.3481 28.0298C35.1994 28.474 34.9013 28.7708 34.3058 28.7708C33.3361 28.7708 33.0393 27.8817 33.0393 27.4375L33.1134 27.3635H35.795V27.3622ZM35.3481 26.9914H33.1134L33.0393 26.9173C33.0393 26.3991 33.3374 25.6581 34.2317 25.6581C35.126 25.6581 35.4241 26.3991 35.4241 26.9173L35.3488 26.9914H35.3481ZM32.0697 28.9916V25.4354L31.9957 25.3613H31.6969L31.6229 25.4354V28.9916L31.6969 29.0656H31.9957L32.0697 28.9916ZM32.0697 24.6937V24.2495L31.9957 24.1755H31.6969L31.6229 24.2495V24.6937L31.6969 24.7678H31.9957L32.0697 24.6937ZM29.2381 28.7688C28.4925 28.7688 28.0457 28.2506 28.0457 27.2128C28.0457 26.175 28.4925 25.6568 29.2381 25.6568C29.9837 25.6568 30.4305 26.175 30.4305 27.2128C30.4305 28.2506 29.9837 28.7688 29.2381 28.7688ZM30.4305 28.5461C30.4305 29.5092 30.2064 30.2502 29.3128 30.2502C28.6419 30.2502 28.4191 29.9534 28.3445 29.5832L28.2704 29.5092H27.9717L27.8976 29.5832C27.9717 30.1755 28.4191 30.6197 29.3128 30.6197C30.2824 30.6197 30.878 30.0274 30.878 28.5454V25.4334L30.8039 25.3594H30.5799L30.5058 25.4334L30.4318 25.8789H30.3578C30.209 25.5821 29.8363 25.2853 29.1654 25.2853C28.123 25.2853 27.6002 26.1004 27.6002 27.2122C27.6002 28.324 28.1217 29.139 29.1654 29.139C29.8363 29.139 30.209 28.8435 30.3578 28.5467H30.4318L30.4305 28.5461ZM25.5869 25.6568C26.3325 25.6568 26.8533 26.2491 26.8533 27.2128C26.8533 28.1766 26.3318 28.7688 25.5869 28.7688C24.842 28.7688 24.3205 28.1766 24.3205 27.2128C24.3205 26.2491 24.842 25.6568 25.5869 25.6568ZM25.5869 29.1397C26.5552 29.1397 27.3008 28.4727 27.3008 27.2128C27.3008 25.9529 26.5552 25.286 25.5869 25.286C24.6186 25.286 23.873 25.9529 23.873 27.2128C23.873 28.4727 24.6186 29.1397 25.5869 29.1397ZM23.3521 28.9916V23.9527L23.2774 23.8787H22.9793L22.9053 23.9527V28.9916L22.9793 29.0656H23.2774L23.3521 28.9916ZM20.6692 25.6568C21.4148 25.6568 21.9357 26.2491 21.9357 27.2128C21.9357 28.1766 21.4142 28.7688 20.6692 28.7688C19.9243 28.7688 19.4028 28.1766 19.4028 27.2128C19.4028 26.2491 19.9243 25.6568 20.6692 25.6568ZM20.6692 29.1397C21.6376 29.1397 22.3832 28.4727 22.3832 27.2128C22.3832 25.9529 21.6376 25.286 20.6692 25.286C19.7009 25.286 18.9553 25.9529 18.9553 27.2128C18.9553 28.4727 19.7009 29.1397 20.6692 29.1397ZM18.5085 28.9916V26.7686C18.5085 25.8062 17.987 25.2866 17.1674 25.2866C16.6459 25.2866 16.1978 25.5094 15.975 25.8802H15.901L15.827 25.4347L15.7529 25.3607H15.5289L15.4548 25.4347V28.9909L15.5289 29.065H15.8276L15.9016 28.9909V26.9907C15.9016 26.1757 16.2744 25.6575 17.094 25.6575C17.6896 25.6575 18.0624 26.0283 18.0624 26.7693V28.9922L18.1364 29.0663H18.4345L18.5085 28.9922V28.9916ZM14.7073 28.9916V26.7686C14.7073 25.8062 14.1858 25.2866 13.3662 25.2866C12.8447 25.2866 12.3978 25.5094 12.1738 25.8802H12.0997V23.9534L12.0257 23.8794H11.727L11.6529 23.9534V28.9922L11.727 29.0663H12.0257L12.0997 28.9922V26.992C12.0997 26.177 12.4725 25.6588 13.2921 25.6588C13.8877 25.6588 14.2605 26.0296 14.2605 26.7706V28.9942L14.3345 29.0682H14.6326L14.7066 28.9929L14.7073 28.9916ZM8.29981 27.2128C8.29981 26.175 8.82131 25.6568 9.56623 25.6568C10.3111 25.6568 10.6086 26.101 10.6846 26.5459L10.7586 26.6199H11.0574L11.1314 26.5459C11.0574 25.8049 10.4605 25.2866 9.56623 25.2866C8.5979 25.2866 7.85233 25.8802 7.85233 27.2135C7.85233 28.5467 8.5979 29.1403 9.56623 29.1403C10.4605 29.1403 11.0567 28.6221 11.1314 27.8811L11.0574 27.8071H10.7586L10.6846 27.8811C10.6106 28.3253 10.3118 28.7701 9.56623 28.7701C8.82066 28.7701 8.29981 28.2519 8.29981 27.2141V27.2128ZM7.4802 27.3615L7.55423 27.2875V27.0661C7.55423 26.0283 6.95738 25.2873 5.91502 25.2873C4.87266 25.2873 4.27581 26.0283 4.27581 27.0661V27.2141C4.27581 28.2506 4.79731 29.141 5.98971 29.141C7.03207 29.141 7.40486 28.474 7.4802 28.0292L7.40617 27.9551H7.10872L7.03469 28.0292C6.88597 28.4734 6.58787 28.7701 5.99233 28.7701C5.024 28.7701 4.7259 27.8811 4.7259 27.4369L4.79993 27.3629H7.47954V27.3615H7.4802ZM7.03338 26.9907H4.79666L4.72263 26.9167C4.72263 26.3985 5.02072 25.6575 5.91502 25.6575C6.80931 25.6575 7.10741 26.3985 7.10741 26.9167L7.03338 26.9907ZM5.02465 24.1755V23.9527L4.95062 23.8787H1.07403L1 23.9534V24.1762L1.07403 24.2502H2.71325L2.78728 24.3242V28.9922L2.86131 29.0663H3.15941L3.23344 28.9922V24.3242L3.30748 24.2502H4.94669L5.02203 24.1762L5.02465 24.1755Z" fill="#333333"/>
</svg>
