<svg width="38" height="22" viewBox="0 0 38 22" fill="none" xmlns="http://www.w3.org/2000/svg">
<path d="M37.9993 9.6918V11.9082H30.7637V0.756056H33.311V9.69114H37.9993V9.6918ZM4.54616 11.9076C7.15633 11.9076 9.3498 10.1347 9.97483 7.73549L16.3201 12.6636L22.6614 7.73745V11.9076H29.897V9.69114H25.2093V0.756056H22.662V4.9255L16.5802 9.64987L15.22 8.59309L18.1309 6.33082L21.3013 3.86807L19.4924 2.46079L13.4092 7.18646L12.0497 6.12969L18.1316 1.40532L16.3201 0L9.97483 4.92812C9.3498 2.52892 7.15633 0.756056 4.54616 0.756056H0V11.9076H4.54616ZM2.54727 9.69114V2.97247H4.54616C6.23648 2.97247 7.60642 4.47672 7.60642 6.33213C7.60642 8.18755 6.23582 9.6918 4.54616 9.6918H2.54727V9.69114ZM37.9993 19.1019C37.9993 18.4349 37.6266 18.1394 36.8816 17.9901C36.1367 17.8407 35.6892 17.7673 35.6892 17.2491C35.6892 16.8783 35.9873 16.6568 36.5089 16.6568C37.1797 16.6568 37.4025 16.9536 37.4025 17.3238L37.4765 17.3978H37.7753L37.8493 17.3238C37.8493 16.5828 37.2525 16.286 36.5082 16.286C35.6886 16.286 35.2418 16.7302 35.2418 17.2497C35.2418 17.842 35.6886 18.1388 36.4342 18.2862C37.1797 18.4336 37.5525 18.509 37.5525 19.1012C37.5525 19.472 37.3298 19.7682 36.5842 19.7682C35.9133 19.7682 35.6159 19.3974 35.6159 18.9532L35.5418 18.8791H35.2437L35.1697 18.9532C35.1697 19.6201 35.6912 20.139 36.5849 20.139C37.5532 20.139 38 19.6948 38 19.1012L37.9993 19.1019ZM34.795 18.3622L34.869 18.2882V18.0667C34.869 17.0289 34.2734 16.288 33.2298 16.288C32.1861 16.288 31.5906 17.0289 31.5906 18.0667V18.2148C31.5906 19.2513 32.1121 20.1416 33.3045 20.1416C34.3468 20.1416 34.7196 19.4747 34.795 19.0298L34.7209 18.9558H34.4222L34.3481 19.0298C34.1994 19.474 33.9013 19.7708 33.3058 19.7708C32.3361 19.7708 32.0393 18.8817 32.0393 18.4375L32.1134 18.3635H34.795V18.3622ZM34.3481 17.9914H32.1134L32.0393 17.9173C32.0393 17.3991 32.3374 16.6581 33.2317 16.6581C34.126 16.6581 34.4241 17.3991 34.4241 17.9173L34.3488 17.9914H34.3481ZM31.0697 19.9916V16.4354L30.9957 16.3613H30.6969L30.6229 16.4354V19.9916L30.6969 20.0656H30.9957L31.0697 19.9916ZM31.0697 15.6937V15.2495L30.9957 15.1755H30.6969L30.6229 15.2495V15.6937L30.6969 15.7678H30.9957L31.0697 15.6937ZM28.2381 19.7688C27.4925 19.7688 27.0457 19.2506 27.0457 18.2128C27.0457 17.175 27.4925 16.6568 28.2381 16.6568C28.9837 16.6568 29.4305 17.175 29.4305 18.2128C29.4305 19.2506 28.9837 19.7688 28.2381 19.7688ZM29.4305 19.5461C29.4305 20.5092 29.2064 21.2502 28.3128 21.2502C27.6419 21.2502 27.4191 20.9534 27.3445 20.5832L27.2704 20.5092H26.9717L26.8976 20.5832C26.9717 21.1755 27.4191 21.6197 28.3128 21.6197C29.2824 21.6197 29.878 21.0274 29.878 19.5454V16.4334L29.8039 16.3594H29.5799L29.5058 16.4334L29.4318 16.8789H29.3578C29.209 16.5821 28.8363 16.2853 28.1654 16.2853C27.123 16.2853 26.6002 17.1004 26.6002 18.2122C26.6002 19.324 27.1217 20.139 28.1654 20.139C28.8363 20.139 29.209 19.8435 29.3578 19.5467H29.4318L29.4305 19.5461ZM24.5869 16.6568C25.3325 16.6568 25.8533 17.2491 25.8533 18.2128C25.8533 19.1766 25.3318 19.7688 24.5869 19.7688C23.842 19.7688 23.3205 19.1766 23.3205 18.2128C23.3205 17.2491 23.842 16.6568 24.5869 16.6568ZM24.5869 20.1397C25.5552 20.1397 26.3008 19.4727 26.3008 18.2128C26.3008 16.9529 25.5552 16.286 24.5869 16.286C23.6186 16.286 22.873 16.9529 22.873 18.2128C22.873 19.4727 23.6186 20.1397 24.5869 20.1397ZM22.3521 19.9916V14.9527L22.2774 14.8787H21.9793L21.9053 14.9527V19.9916L21.9793 20.0656H22.2774L22.3521 19.9916ZM19.6692 16.6568C20.4148 16.6568 20.9357 17.2491 20.9357 18.2128C20.9357 19.1766 20.4142 19.7688 19.6692 19.7688C18.9243 19.7688 18.4028 19.1766 18.4028 18.2128C18.4028 17.2491 18.9243 16.6568 19.6692 16.6568ZM19.6692 20.1397C20.6376 20.1397 21.3832 19.4727 21.3832 18.2128C21.3832 16.9529 20.6376 16.286 19.6692 16.286C18.7009 16.286 17.9553 16.9529 17.9553 18.2128C17.9553 19.4727 18.7009 20.1397 19.6692 20.1397ZM17.5085 19.9916V17.7686C17.5085 16.8062 16.987 16.2866 16.1674 16.2866C15.6459 16.2866 15.1978 16.5094 14.975 16.8802H14.901L14.827 16.4347L14.7529 16.3607H14.5289L14.4548 16.4347V19.9909L14.5289 20.065H14.8276L14.9016 19.9909V17.9907C14.9016 17.1757 15.2744 16.6575 16.094 16.6575C16.6896 16.6575 17.0624 17.0283 17.0624 17.7693V19.9922L17.1364 20.0663H17.4345L17.5085 19.9922V19.9916ZM13.7073 19.9916V17.7686C13.7073 16.8062 13.1858 16.2866 12.3662 16.2866C11.8447 16.2866 11.3978 16.5094 11.1738 16.8802H11.0997V14.9534L11.0257 14.8794H10.727L10.6529 14.9534V19.9922L10.727 20.0663H11.0257L11.0997 19.9922V17.992C11.0997 17.177 11.4725 16.6588 12.2921 16.6588C12.8877 16.6588 13.2605 17.0296 13.2605 17.7706V19.9942L13.3345 20.0682H13.6326L13.7066 19.9929L13.7073 19.9916ZM7.29981 18.2128C7.29981 17.175 7.82131 16.6568 8.56623 16.6568C9.31115 16.6568 9.60859 17.101 9.68459 17.5459L9.75863 17.6199H10.0574L10.1314 17.5459C10.0574 16.8049 9.46053 16.2866 8.56623 16.2866C7.5979 16.2866 6.85233 16.8802 6.85233 18.2135C6.85233 19.5467 7.5979 20.1403 8.56623 20.1403C9.46053 20.1403 10.0567 19.6221 10.1314 18.8811L10.0574 18.8071H9.75863L9.68459 18.8811C9.61056 19.3253 9.3118 19.7701 8.56623 19.7701C7.82066 19.7701 7.29981 19.2519 7.29981 18.2141V18.2128ZM6.4802 18.3615L6.55423 18.2875V18.0661C6.55423 17.0283 5.95738 16.2873 4.91502 16.2873C3.87266 16.2873 3.27581 17.0283 3.27581 18.0661V18.2141C3.27581 19.2506 3.79731 20.141 4.98971 20.141C6.03207 20.141 6.40486 19.474 6.4802 19.0292L6.40617 18.9551H6.10872L6.03469 19.0292C5.88597 19.4734 5.58787 19.7701 4.99233 19.7701C4.024 19.7701 3.7259 18.8811 3.7259 18.4369L3.79993 18.3629H6.47954V18.3615H6.4802ZM6.03338 17.9907H3.79666L3.72263 17.9167C3.72263 17.3985 4.02072 16.6575 4.91502 16.6575C5.80931 16.6575 6.10741 17.3985 6.10741 17.9167L6.03338 17.9907ZM4.02465 15.1755V14.9527L3.95062 14.8787H0.0740332L0 14.9534V15.1762L0.0740332 15.2502H1.71325L1.78728 15.3242V19.9922L1.86131 20.0663H2.15941L2.23344 19.9922V15.3242L2.30748 15.2502H3.94669L4.02203 15.1762L4.02465 15.1755Z" fill="#333333"/>
</svg>
