<svg width="24" height="24" viewBox="0 0 24 24" fill="none" xmlns="http://www.w3.org/2000/svg">
<path d="M21 6.75H3C2.58579 6.75 2.25 7.08579 2.25 7.5V16.5C2.25 16.9142 2.58579 17.25 3 17.25H21C21.4142 17.25 21.75 16.9142 21.75 16.5V7.5C21.75 7.08579 21.4142 6.75 21 6.75Z" fill="#333333"/>
<path d="M21 6.75H3C2.58579 6.75 2.25 7.08579 2.25 7.5V16.5C2.25 16.9142 2.58579 17.25 3 17.25H21C21.4142 17.25 21.75 16.9142 21.75 16.5V7.5C21.75 7.08579 21.4142 6.75 21 6.75Z" stroke="#333333" stroke-linecap="round" stroke-linejoin="round"/>
<path d="M17.625 13.125C18.2463 13.125 18.75 12.6213 18.75 12C18.75 11.3787 18.2463 10.875 17.625 10.875C17.0037 10.875 16.5 11.3787 16.5 12C16.5 12.6213 17.0037 13.125 17.625 13.125Z" fill="white"/>
</svg>
