<svg width="213" height="181" viewBox="0 0 213 181" fill="none" xmlns="http://www.w3.org/2000/svg">
<path d="M186.586 91.9144C185.122 94.8425 180.974 102.651 177.557 108.751C179.103 112.817 182.584 121.293 184.146 122.659C187.968 121.683 196.395 119.097 199.518 116.559C203.422 113.387 209.766 107.287 211.23 105.091C212.694 102.895 212.694 100.211 211.474 99.7225C210.55 99.3529 209.685 99.6412 209.522 99.7226C210.01 98.9092 211.133 96.8433 211.718 95.0865C212.45 92.8904 211.947 91.713 211.23 91.4264C210.01 90.9384 209.278 91.4264 208.79 91.9144C209.115 91.0197 209.522 89.2303 208.79 88.4983C207.927 87.6357 206.594 88.0103 206.106 88.4983C206.106 88.0103 205.96 87.1807 205.374 86.7903C204.642 86.3023 203.666 86.3023 202.446 87.0343C201.226 87.7663 197.322 93.6224 196.59 94.5984C196.004 95.3793 191.303 97.8013 189.026 98.9147C189.455 96.7196 189.889 94.204 189.758 92.8904C189.514 90.4504 188.05 88.9864 186.586 91.9144Z" fill="white"/>
<path d="M188.294 109.971C188.294 107.937 188.294 103.675 188.294 102.895C188.294 102.444 188.658 100.797 189.026 98.9147M209.522 99.7226C209.685 99.6412 210.55 99.3529 211.474 99.7225C212.694 100.211 212.694 102.895 211.23 105.091C209.766 107.287 203.422 113.387 199.518 116.559C196.395 119.097 187.968 121.683 184.146 122.659C182.584 121.293 179.103 112.817 177.557 108.751C180.974 102.651 185.122 94.8425 186.586 91.9144C188.05 88.9864 189.514 90.4504 189.758 92.8904C189.889 94.204 189.455 96.7196 189.026 98.9147M209.522 99.7226C210.01 98.9092 211.133 96.8433 211.718 95.0865C212.45 92.8904 211.947 91.713 211.23 91.4264C210.01 90.9384 209.278 91.4264 208.79 91.9144M209.522 99.7226L206.106 103.871L202.446 107.287M208.79 91.9144C209.115 91.0197 209.522 89.2303 208.79 88.4983C207.927 87.6357 206.594 88.0103 206.106 88.4983M208.79 91.9144L202.934 100.455L199.518 103.383M206.106 88.4983C206.106 88.0103 205.96 87.1807 205.374 86.7903C204.642 86.3023 203.666 86.3023 202.446 87.0343C201.226 87.7663 197.322 93.6224 196.59 94.5984C196.004 95.3793 191.303 97.8013 189.026 98.9147M206.106 88.4983L200.006 97.0385L196.346 99.9665" stroke="#333333"/>
<path d="M59.2153 73.8581C65.1378 67.1187 83.8597 62.3899 90.9359 61.6578C97.3613 61.7392 111.383 62.7315 116.068 66.0499C121.924 70.198 137.785 86.7903 141.201 94.3544C144.617 101.919 152.181 112.899 158.281 112.411C164.381 111.923 175.605 109.239 177.069 107.287C179.265 112.492 184.682 123.83 188.782 127.539C183.17 134.209 170.042 147.401 162.429 146.815C154.816 146.23 143.641 143.806 139.005 142.667L142.421 180H82.3957H50.6751C46.6083 163.896 33.2044 135.347 36.5229 125.587C40.6709 113.387 52.1392 81.9102 59.2153 73.8581Z" fill="#5496EA"/>
<path d="M82.3957 180H50.6751C46.6083 163.896 33.2044 135.347 36.5229 125.587C40.6709 113.387 52.1392 81.9102 59.2153 73.8581C65.1378 67.1187 83.8597 62.3899 90.9359 61.6578C97.3613 61.7392 111.383 62.7315 116.068 66.0499C121.924 70.198 137.785 86.7903 141.201 94.3544C144.617 101.919 152.181 112.899 158.281 112.411C164.381 111.923 175.605 109.239 177.069 107.287C179.265 112.492 184.682 123.83 188.782 127.539C183.17 134.209 170.042 147.401 162.429 146.815C154.816 146.23 143.641 143.806 139.005 142.667M82.3957 180L72.8795 133.395M82.3957 180H142.421L139.005 142.667M139.005 142.667C137.703 136.73 135.003 123.489 134.613 118.023" stroke="#333333" stroke-linejoin="round"/>
<path d="M82.194 62.7707C83.4256 60.429 83.1793 52.4282 83.6719 48.5254C86.1352 47.94 92.1455 47.1204 96.4808 48.5254C101.9 50.2817 103.624 53.9894 103.624 56.1359C103.624 58.2824 103.624 69.2103 102.393 70.9666C101.161 72.7229 96.4808 74.8694 91.5543 75.0645C86.6278 75.2597 83.6719 73.3083 82.194 72.1374C80.716 70.9666 80.9623 65.1124 82.194 62.7707Z" fill="white" stroke="#333333"/>
<path d="M116.312 46.0415C114.555 37.6477 110.212 22.5357 108.26 16.0289C105.901 15.0529 99.7688 13.0521 94.1079 12.8569C87.0318 12.6129 77.0276 19.933 76.0516 26.2771C75.2707 31.3524 80.281 38.64 82.8837 41.6494C80.6876 40.8361 76.5396 39.9414 74.8315 42.3815C73.2361 44.6606 77.151 49.8363 79.9556 50.6776C82.3958 51.4096 84.2664 50.6776 85.3238 50.6776C87.6011 54.175 92.9367 60.6818 98.988 60.6818C106.552 60.6818 118.508 56.5337 116.312 46.0415Z" fill="white" stroke="#333333"/>
<path d="M107.284 19.689C100.208 22.1291 84.3479 21.3971 80.9318 20.9091C79.2238 24.8131 81.9078 28.9612 83.1278 32.1333C84.1038 34.6709 83.2905 39.5348 82.8838 41.6495C80.4438 40.6735 73.8556 39.4534 75.0757 45.5535C75.1714 46.0321 74.0997 42.6255 67.9996 35.7934C61.8994 28.9612 62.6315 16.273 65.8035 12.8569C68.9756 9.44084 72.1476 10.6609 79.7118 3.82876C87.2759 -3.00337 105.576 1.14471 110.212 2.36473C114.848 3.58475 113.628 11.3929 113.14 12.8569C112.652 14.3209 114.36 17.249 107.284 19.689Z" fill="#333333"/>
<path d="M88.7398 30.9132C89.5206 29.9372 91.5052 29.3679 92.3998 29.2052L92.6438 29.6932C92.1558 30.2626 91.0334 31.4988 90.4478 31.8892C89.7158 32.3773 87.7638 32.1333 88.7398 30.9132Z" fill="#333333"/>
<path d="M108.355 25.9488C107.199 25.4737 105.187 25.9379 104.326 26.2294L104.349 26.7745C105.052 27.0359 106.633 27.573 107.334 27.6305C108.211 27.7025 109.8 26.5427 108.355 25.9488Z" fill="#333333"/>
<path d="M103.136 38.9655C104.031 40.1041 105.869 42.6255 106.064 43.6015C106.259 44.5776 105.169 46.2856 104.6 47.0176" stroke="#333333"/>
<circle cx="108.504" cy="32.6213" r="1.46403" fill="#333333"/>
<circle cx="93.8639" cy="36.5254" r="1.46403" fill="#333333"/>
<path d="M105.576 51.1656C103.38 52.1417 99.9639 52.6297 96.5479 51.1656" stroke="#333333"/>
<path d="M27.7442 144.535C37.3162 133.368 37.4341 124.38 37.0465 121.86L70.1861 125.349L74.8372 139.302C76.5814 144.535 83.5032 173.636 84.1395 180H42.5698H1C6.81395 166.628 17.2791 156.744 27.7442 144.535Z" fill="#EBEDEE" stroke="#333333" stroke-linecap="round"/>
<path d="M75.1124 139.302L70.4612 125.349L42.8606 123.023C43.0544 124.767 42.8602 127.674 42.8605 131.163C42.8608 135.274 46.7939 151.103 49.8372 160.232C52.7442 168.953 50.8062 176.012 51 179.251L84.4147 180C83.7784 173.636 76.8566 144.535 75.1124 139.302Z" fill="white"/>
<path d="M27.7442 144.535C37.3162 133.368 37.4341 124.38 37.0465 121.86L70.1861 125.349L74.8372 139.302C76.5814 144.535 83.5032 173.636 84.1395 180H1C6.81395 166.628 17.2791 156.744 27.7442 144.535Z" stroke="#333333" stroke-linecap="round"/>
<path d="M75.8634 85.8035C75.1064 85.3398 72.8669 83.0985 70.1859 82.3257L79.8013 127.537C80.7475 127.923 80.2744 127.421 82.1669 126.957C84.5325 126.378 88.7906 118.842 88.7906 113.626C88.7906 108.409 76.8096 86.3831 75.8634 85.8035Z" fill="#EBEDEE" stroke="#333333"/>
<path d="M75.0253 84.0699C71.3916 81.163 63.3974 80 53.5137 80C48.8533 80 40.723 81.1628 37.816 82.3256C35.117 83.4052 29.6766 85.2327 25.0254 95.6978C20.3742 106.163 11.6533 115.465 17.4673 121.861C18.8238 122.83 22.4672 124.768 26.1881 124.768C29.909 124.768 35.4904 122.442 37.816 121.279C40.1416 124.768 49.4434 129.419 56.4202 131.163C63.3969 132.907 73.862 130.581 80.2574 128.256C86.6527 125.93 90.609 113.277 90.1416 109.07C89.5602 103.837 82.5834 103.837 81.4202 102.674C80.12 101.375 79.0951 87.3256 75.0253 84.0699Z" fill="#EBEDEE"/>
<path d="M37.816 121.279C40.1416 124.768 49.4434 129.419 56.4202 131.163C63.3969 132.907 73.862 130.581 80.2574 128.256C86.6527 125.93 90.609 113.277 90.1416 109.07C89.5602 103.837 82.5834 103.837 81.4202 102.674C80.12 101.375 79.0951 87.3256 75.0253 84.0699C71.3916 81.163 63.3974 80 53.5137 80C48.8533 80 40.723 81.1628 37.816 82.3256C35.117 83.4052 29.6766 85.2327 25.0254 95.6978C20.3742 106.163 11.6533 115.465 17.4673 121.861C18.8238 122.83 22.4672 124.768 26.1881 124.768C29.909 124.768 35.4904 122.442 37.816 121.279ZM37.816 121.279C39.3664 120.116 42.9117 115.893 43.442 114.302C45.1862 109.07 45.9555 90.4653 45.9555 88.7211" stroke="#333333"/>
<path d="M90.0807 109.651C89.4993 104.419 82.5226 104.419 81.3593 103.256H64.3114C60.823 103.256 51.5207 104.419 48.6137 111.977C45.7067 119.535 45.6404 123.605 41.6978 125.349C45.6697 127.973 51.5638 130.545 56.3593 131.744C63.3361 133.488 73.8012 131.163 80.1965 128.837C86.5919 126.512 90.5481 113.858 90.0807 109.651Z" fill="white"/>
<path d="M37.816 121.279C40.1416 124.768 49.4434 129.419 56.4202 131.163C63.3969 132.907 73.862 130.581 80.2574 128.256C86.6527 125.93 90.609 113.277 90.1416 109.07C89.5602 103.837 82.5834 103.837 81.4202 102.674C80.12 101.375 79.0951 87.3256 75.0253 84.0699C71.3916 81.163 63.3974 80 53.5137 80C48.8533 80 40.723 81.1628 37.816 82.3256C35.117 83.4052 29.6766 85.2327 25.0254 95.6978C20.3742 106.163 11.6533 115.465 17.4673 121.861C18.8238 122.83 22.4672 124.768 26.1881 124.768C29.909 124.768 35.4904 122.442 37.816 121.279ZM37.816 121.279C39.3664 120.116 42.9117 115.893 43.442 114.302C45.1862 109.07 45.9555 90.4653 45.9555 88.7211" stroke="#333333"/>
<circle cx="61.0714" cy="98.0233" r="2.32558" fill="#333333"/>
<circle cx="76.1878" cy="98.0233" r="2.32558" fill="#333333"/>
<path d="M79.1098 105C77.9471 105 75.6061 105.581 74.4444 107.326C73.2816 110.814 78.4864 113.004 80.2701 112.558C82.5971 111.977 85.5052 108.488 84.3424 106.744C83.1796 105 80.2726 105 79.1098 105Z" fill="#333333"/>
<path d="M66.1164 114.884C67.0854 116.434 70.0441 118.954 74.2559 118.954C79.4885 118.954 80.6513 116.047 80.0699 112.558C80.4575 113.915 82.7127 116.853 84.1397 117.209C86.4652 117.791 88.7908 115.465 89.3722 113.14" stroke="#333333" stroke-linecap="round"/>
</svg>
