<svg width="40" height="40" viewBox="0 0 40 40" fill="none" xmlns="http://www.w3.org/2000/svg">
  <rect width="40" height="40" rx="4" fill="#EC7100"/>
  <path
    d="M18.7865 11.7146V10C18.7865 9.44772 18.3388 9 17.7865 9H8C7.44772 9 7 9.44772 7 10V22.5064C7 23.0587 7.44772 23.5064 8 23.5064H10.7146"
    stroke="white" stroke-linecap="round"/>
  <path d="M11.9866 10.8131H13.7999" stroke="white" stroke-linecap="round"/>
  <path d="M7.60425 21.2394H10.7146" stroke="white" stroke-linecap="round"/>
  <path
    d="M16.0667 25.4078H13.8027C13.2505 25.4078 12.8027 24.96 12.8027 24.4078V14.8026C12.8027 14.2503 13.2504 13.8026 13.8027 13.8026H28.4851C29.0374 13.8026 29.4851 14.2503 29.4851 14.8026V24.4078C29.4851 24.96 29.0374 25.4078 28.4851 25.4078H26.2212"
    stroke="white"/>
  <path
    d="M16.0666 25.4979H11.896C11.5956 25.4979 11.3521 25.7415 11.3521 26.0419V26.0419C11.3521 26.9432 12.0827 27.6739 12.984 27.6739H16.0666M26.2211 25.4979H30.3917C30.6922 25.4979 30.9357 25.7415 30.9357 26.0419V26.0419C30.9357 26.9432 30.2051 27.6739 29.3038 27.6739H26.2211"
    stroke="white"/>
  <rect x="17.292" y="25.852" width="7.70386" height="6.36481" rx="1.5" stroke="white" stroke-linejoin="round"/>
  <path
    d="M18.3799 23.5944C18.3799 22.0679 19.6173 20.8305 21.1438 20.8305C22.6703 20.8305 23.9078 22.0679 23.9078 23.5944V25.6331H18.3799V23.5944Z"
    fill="#EC7100" stroke="white"/>
  <path
    d="M21.6482 28.3648C21.6482 28.6433 21.4225 28.8691 21.1439 28.8691C20.8654 28.8691 20.6396 28.6433 20.6396 28.3648C20.6396 28.0863 20.8654 27.8605 21.1439 27.8605C21.4225 27.8605 21.6482 28.0863 21.6482 28.3648Z"
    stroke="white"/>
  <path d="M21.1438 29.2018V30.5408H21.8133" stroke="white" stroke-linecap="round"/>
  <path
    d="M25.8584 11.7146L25.8584 9.8927C25.8584 9.39968 26.2581 9 26.7511 9H32.1073C32.6003 9 33 9.39968 33 9.8927V19.7124C33 20.2055 32.6003 20.6052 32.1073 20.6052H30.9356"
    stroke="white" stroke-linecap="round" stroke-linejoin="round"/>
</svg>
