<svg width="24" height="24" viewBox="0 0 24 24" fill="none" xmlns="http://www.w3.org/2000/svg">
  <path d="M4.60714 9.02041H20.3929C20.7282 9.02041 21 8.81941 21 8.57143V7.44898C21 7.201 20.7282 7 20.3929 7H4.60714C4.27181 7 4 7.201 4 7.44898V8.57143C4 8.81941 4.27181 9.02041 4.60714 9.02041ZM4.60714 13.5102H20.3929C20.7282 13.5102 21 13.3092 21 13.0612V11.9388C21 11.6908 20.7282 11.4898 20.3929 11.4898H4.60714C4.27181 11.4898 4 11.6908 4 11.9388V13.0612C4 13.3092 4.27181 13.5102 4.60714 13.5102ZM4.60714 18H20.3929C20.7282 18 21 17.799 21 17.551V16.4286C21 16.1806 20.7282 15.9796 20.3929 15.9796H4.60714C4.27181 15.9796 4 16.1806 4 16.4286V17.551C4 17.799 4.27181 18 4.60714 18Z" fill="#333333"/>
</svg>
