<?xml version="1.0" encoding="utf-8"?>
<svg version="1.1" xmlns:xlink="http://www.w3.org/1999/xlink" width="12px" height="12px" xmlns="http://www.w3.org/2000/svg">
  <defs>
    <pattern id="BGPattern" patternUnits="userSpaceOnUse" alignment="0 0" imageRepeat="None" />
    <mask fill="white" id="Clip166">
      <path d="M 11.87276785714289 5.698660714285722  L 12 6  L 11.87276785714289 6.301339285714278  L 10.15848214285711 8.015625  L 9.85714285714289 8.142857142857139  L 9.555803571428669 8.015625  L 9.428571428571331 7.714285714285722  L 9.428571428571331 6.857142857142861  L 6.85714285714289 6.857142857142861  L 6.85714285714289 9.428571428571416  L 7.714285714285779 9.428571428571416  L 8.015625 9.555803571428584  L 8.14285714285711 9.857142857142861  L 8.015625 10.158482142857139  L 6.301339285714221 11.872767857142861  L 6 12  L 5.698660714285779 11.872767857142861  L 3.984375 10.158482142857139  L 3.8571428571428896 9.857142857142861  L 3.984375 9.555803571428584  L 4.285714285714221 9.428571428571416  L 5.14285714285711 9.428571428571416  L 5.14285714285711 6.857142857142861  L 2.571428571428669 6.857142857142861  L 2.571428571428669 7.714285714285722  L 2.444196428571331 8.015625  L 2.1428571428571104 8.142857142857139  L 1.8415178571428896 8.015625  L 0.12723214285711038 6.301339285714278  L 0 6  L 0.12723214285711038 5.698660714285722  L 1.8415178571428896 3.984375  L 2.1428571428571104 3.857142857142861  L 2.444196428571331 3.984375  L 2.571428571428669 4.285714285714278  L 2.571428571428669 5.142857142857139  L 5.14285714285711 5.142857142857139  L 5.14285714285711 2.5714285714285836  L 4.285714285714221 2.5714285714285836  L 3.984375 2.4441964285714164  L 3.8571428571428896 2.142857142857139  L 3.984375 1.8415178571428612  L 5.698660714285779 0.1272321428571388  L 6 0  L 6.301339285714221 0.1272321428571388  L 8.015625 1.8415178571428612  L 8.14285714285711 2.142857142857139  L 8.015625 2.4441964285714164  L 7.714285714285779 2.5714285714285836  L 6.85714285714289 2.5714285714285836  L 6.85714285714289 5.142857142857139  L 9.428571428571331 5.142857142857139  L 9.428571428571331 4.285714285714278  L 9.555803571428669 3.984375  L 9.85714285714289 3.857142857142861  L 10.15848214285711 3.984375  L 11.87276785714289 5.698660714285722  Z " fill-rule="evenodd" />
    </mask>
  </defs>
  <g transform="matrix(1 0 0 1 -113 -9 )">
    <path d="M 11.87276785714289 5.698660714285722  L 12 6  L 11.87276785714289 6.301339285714278  L 10.15848214285711 8.015625  L 9.85714285714289 8.142857142857139  L 9.555803571428669 8.015625  L 9.428571428571331 7.714285714285722  L 9.428571428571331 6.857142857142861  L 6.85714285714289 6.857142857142861  L 6.85714285714289 9.428571428571416  L 7.714285714285779 9.428571428571416  L 8.015625 9.555803571428584  L 8.14285714285711 9.857142857142861  L 8.015625 10.158482142857139  L 6.301339285714221 11.872767857142861  L 6 12  L 5.698660714285779 11.872767857142861  L 3.984375 10.158482142857139  L 3.8571428571428896 9.857142857142861  L 3.984375 9.555803571428584  L 4.285714285714221 9.428571428571416  L 5.14285714285711 9.428571428571416  L 5.14285714285711 6.857142857142861  L 2.571428571428669 6.857142857142861  L 2.571428571428669 7.714285714285722  L 2.444196428571331 8.015625  L 2.1428571428571104 8.142857142857139  L 1.8415178571428896 8.015625  L 0.12723214285711038 6.301339285714278  L 0 6  L 0.12723214285711038 5.698660714285722  L 1.8415178571428896 3.984375  L 2.1428571428571104 3.857142857142861  L 2.444196428571331 3.984375  L 2.571428571428669 4.285714285714278  L 2.571428571428669 5.142857142857139  L 5.14285714285711 5.142857142857139  L 5.14285714285711 2.5714285714285836  L 4.285714285714221 2.5714285714285836  L 3.984375 2.4441964285714164  L 3.8571428571428896 2.142857142857139  L 3.984375 1.8415178571428612  L 5.698660714285779 0.1272321428571388  L 6 0  L 6.301339285714221 0.1272321428571388  L 8.015625 1.8415178571428612  L 8.14285714285711 2.142857142857139  L 8.015625 2.4441964285714164  L 7.714285714285779 2.5714285714285836  L 6.85714285714289 2.5714285714285836  L 6.85714285714289 5.142857142857139  L 9.428571428571331 5.142857142857139  L 9.428571428571331 4.285714285714278  L 9.555803571428669 3.984375  L 9.85714285714289 3.857142857142861  L 10.15848214285711 3.984375  L 11.87276785714289 5.698660714285722  Z " fill-rule="nonzero" fill="rgba(0, 0, 0, 1)" stroke="none" transform="matrix(1 0 0 1 113 9 )" class="fill" />
    <path d="M 11.87276785714289 5.698660714285722  L 12 6  L 11.87276785714289 6.301339285714278  L 10.15848214285711 8.015625  L 9.85714285714289 8.142857142857139  L 9.555803571428669 8.015625  L 9.428571428571331 7.714285714285722  L 9.428571428571331 6.857142857142861  L 6.85714285714289 6.857142857142861  L 6.85714285714289 9.428571428571416  L 7.714285714285779 9.428571428571416  L 8.015625 9.555803571428584  L 8.14285714285711 9.857142857142861  L 8.015625 10.158482142857139  L 6.301339285714221 11.872767857142861  L 6 12  L 5.698660714285779 11.872767857142861  L 3.984375 10.158482142857139  L 3.8571428571428896 9.857142857142861  L 3.984375 9.555803571428584  L 4.285714285714221 9.428571428571416  L 5.14285714285711 9.428571428571416  L 5.14285714285711 6.857142857142861  L 2.571428571428669 6.857142857142861  L 2.571428571428669 7.714285714285722  L 2.444196428571331 8.015625  L 2.1428571428571104 8.142857142857139  L 1.8415178571428896 8.015625  L 0.12723214285711038 6.301339285714278  L 0 6  L 0.12723214285711038 5.698660714285722  L 1.8415178571428896 3.984375  L 2.1428571428571104 3.857142857142861  L 2.444196428571331 3.984375  L 2.571428571428669 4.285714285714278  L 2.571428571428669 5.142857142857139  L 5.14285714285711 5.142857142857139  L 5.14285714285711 2.5714285714285836  L 4.285714285714221 2.5714285714285836  L 3.984375 2.4441964285714164  L 3.8571428571428896 2.142857142857139  L 3.984375 1.8415178571428612  L 5.698660714285779 0.1272321428571388  L 6 0  L 6.301339285714221 0.1272321428571388  L 8.015625 1.8415178571428612  L 8.14285714285711 2.142857142857139  L 8.015625 2.4441964285714164  L 7.714285714285779 2.5714285714285836  L 6.85714285714289 2.5714285714285836  L 6.85714285714289 5.142857142857139  L 9.428571428571331 5.142857142857139  L 9.428571428571331 4.285714285714278  L 9.555803571428669 3.984375  L 9.85714285714289 3.857142857142861  L 10.15848214285711 3.984375  L 11.87276785714289 5.698660714285722  Z " stroke-width="0" stroke-dasharray="0" stroke="rgba(255, 255, 255, 0)" fill="none" transform="matrix(1 0 0 1 113 9 )" class="stroke" mask="url(#Clip166)" />
  </g>
</svg>