<svg width="17" height="11" viewBox="0 0 17 11" fill="none" xmlns="http://www.w3.org/2000/svg">
  <path d="M0.607143 2.02041H16.3929C16.7282 2.02041 17 1.81941 17 1.57143V0.44898C17 0.201003 16.7282 0 16.3929 0H0.607143C0.27181 0 0 0.201003 0 0.44898V1.57143C0 1.81941 0.27181 2.02041 0.607143 2.02041ZM0.607143 6.5102H16.3929C16.7282 6.5102 17 6.3092 17 6.06122V4.93878C17 4.6908 16.7282 4.4898 16.3929 4.4898H0.607143C0.27181 4.4898 0 4.6908 0 4.93878V6.06122C0 6.3092 0.27181 6.5102 0.607143 6.5102ZM0.607143 11H16.3929C16.7282 11 17 10.799 17 10.551V9.42857C17 9.18059 16.7282 8.97959 16.3929 8.97959H0.607143C0.27181 8.97959 0 9.18059 0 9.42857V10.551C0 10.799 0.27181 11 0.607143 11Z" fill="#333333"/>
</svg>
