<svg xmlns="http://www.w3.org/2000/svg" width="48" height="48" viewBox="0 0 48 48">
  <path fill="#133209" d="M10 0h28a10 10 0 0 1 10 10v28a10 10 0 0 1-10 10H10A10 10 0 0 1 0 38V10A10 10 0 0 1 10 0Z" data-name="Path 9233"/>
  <path fill="#ade45c" d="M35.655 12.438a.7.7 0 0 0-1.278-.054 7.741 7.741 0 0 1-6.767 3.95h-3.614a8.67 8.67 0 0 0-8.665 8.667 8.926 8.926 0 0 0 .068.925 21.6 21.6 0 0 1 12.934-3.815.722.722 0 1 1 0 1.445c-11.349 0-16.161 6.957-17.227 9.57a1.447 1.447 0 0 0 2.677 1.1 11.877 11.877 0 0 1 3.246-4.09 8.648 8.648 0 0 0 7.9 3.485c7.083-.52 12.067-6.872 12.067-14.655a16.416 16.416 0 0 0-1.341-6.528Z" data-name="Icon awesome-leaf"/>
</svg>
