<svg width="24" height="24" viewBox="0 0 24 24" fill="none" xmlns="http://www.w3.org/2000/svg">
<path fill-rule="evenodd" clip-rule="evenodd" d="M6.96402 13.9157L15.7596 5.12011C16.2576 4.80865 17.4534 4.42083 18.5392 5.1447L18.5393 5.14474C18.746 5.2825 19.1075 5.63523 19.3496 6.13954C19.5737 6.60638 19.6881 7.18546 19.4981 7.84243L10.5744 17.291C10.3115 16.6958 9.91657 16.0222 9.37786 15.4255C8.77354 14.7562 7.97205 14.168 6.96402 13.9157ZM5.55309 13.9124L15.09 4.37553C15.1133 4.35225 15.1388 4.33132 15.1662 4.31306C15.8184 3.87824 17.5106 3.2571 19.0939 4.31265C19.4494 4.54957 19.931 5.03997 20.2511 5.7068C20.5778 6.3873 20.7445 7.27183 20.4153 8.25983C20.3922 8.3289 20.3544 8.39211 20.3044 8.44505L10.7476 18.5641C10.6772 18.6386 10.5871 18.6883 10.4903 18.7093L4.33177 20.3889C4.15648 20.4367 3.96907 20.3857 3.84223 20.2556C3.71539 20.1255 3.66909 19.9369 3.72129 19.7629L5.4078 14.1412C5.43495 14.0507 5.48612 13.9724 5.55309 13.9124ZM6.25275 14.8048L5.25041 18.1459L6.00152 18.897L9.73677 17.8783C9.51665 17.3317 9.15214 16.6685 8.63564 16.0965C8.03318 15.4293 7.24695 14.9085 6.25275 14.8048Z" fill="#333333"/>
</svg>
