<svg width="16" height="16" viewBox="0 0 16 16" fill="none" xmlns="http://www.w3.org/2000/svg">
<path d="M13.5443 1.82313C12.9951 1.29065 12.3177 1.02441 11.5121 1.02441C10.7249 1.02441 10.0384 1.29065 9.45253 1.82313L2.36744 9.14473C2.34914 9.16248 2.32167 9.20686 2.28506 9.27785C2.24844 9.34885 2.21183 9.4021 2.17521 9.4376L1.07675 13.5377C1.02183 13.7862 1.07675 13.9903 1.24152 14.15C1.40629 14.2743 1.5619 14.3364 1.70836 14.3364H1.9006L6.10222 13.2448C6.19376 13.2093 6.31276 13.1561 6.45922 13.0851L6.7613 12.7922C6.79791 12.7922 6.81622 12.7745 6.81622 12.739L6.87114 12.6857L13.5443 5.73686C14.0935 5.22213 14.3682 4.56541 14.3682 3.76669C14.3682 2.96797 14.0935 2.32012 13.5443 1.82313ZM5.58045 11.9935L3.46591 12.5526L3.19129 12.2864L2.88921 11.9935L3.46591 9.94345L3.60321 9.83696C3.95106 9.83696 4.3996 10.1032 4.94883 10.6357C5.26006 10.9374 5.53468 11.3545 5.77268 11.887L5.58045 11.9935ZM12.5557 4.83165L6.7613 10.7954C6.45006 10.2984 6.15714 9.9257 5.88252 9.67721C5.47975 9.28673 5.04952 8.98499 4.59183 8.772L10.3862 2.80822C10.6791 2.50648 11.027 2.35561 11.4298 2.35561C11.8508 2.35561 12.2078 2.50648 12.5008 2.80822C12.7754 3.05671 12.9127 3.39395 12.9127 3.81993C13.0225 4.17492 12.9035 4.51216 12.5557 4.83165Z" fill="#333333"/>
</svg>
