<svg width="36" height="9" viewBox="0 0 36 9" fill="none" xmlns="http://www.w3.org/2000/svg">
<path d="M24.9206 7.21003C23.3709 7.21003 22.7737 5.78352 22.7737 4.33384C22.7737 2.88416 23.3709 1.4586 24.9206 1.4586C26.4687 1.4586 27.0675 2.88416 27.0675 4.33384C27.0675 5.78352 26.4687 7.21003 24.9206 7.21003ZM24.9206 0.000349045C22.4803 0.000349045 21.0713 1.8288 21.0713 4.33384C21.0713 6.83983 22.4803 8.66797 24.9206 8.66797C27.3596 8.66797 28.7683 6.83983 28.7683 4.33384C28.7683 1.8288 27.3596 0.000349045 24.9206 0.000349045Z" fill="#333333"/>
<path d="M0 0.242293H6.11464V1.70087H1.70082V3.51503H5.81683V4.93678H1.70082V6.96589H6.11464V8.42383H0V0.242293Z" fill="#333333"/>
<path d="M10.0838 4.51165H8.54394V1.70087V1.69928H10.0838C11.1541 1.69928 11.8659 2.16504 11.8659 3.10578C11.8659 4.0462 11.1541 4.51165 10.0838 4.51165ZM6.84375 8.42383H8.54394V5.96896H10.0838C12.1678 5.96896 13.5664 4.94535 13.5664 3.10578C13.5664 1.2659 12.1678 0.242611 10.0838 0.242611H6.84375V8.42383Z" fill="#333333"/>
<path d="M31.1564 0.242293H29.4102V8.42383H31.0776V5.10981C31.0776 4.20273 31.0453 3.3982 31.0145 2.68669C31.211 3.09626 31.8082 4.32687 32.0835 4.78914L34.2539 8.42383H36.0001V0.242293H34.3326V3.47344C34.3326 4.37957 34.3659 5.26856 34.3958 5.97848C34.1993 5.56891 33.6036 4.33893 33.3242 3.8773L31.1564 0.242293Z" fill="#333333"/>
<path d="M15.4976 5.71817C15.4976 6.81766 16.4123 7.24501 17.3851 7.24501C18.0201 7.24501 19.0513 7.06086 19.0513 6.21632C19.0513 5.32448 17.7915 5.15589 16.5758 4.83236C15.301 4.49486 14.0733 4.01672 14.0733 2.50068C14.0733 0.810649 15.6719 0.000400543 17.1651 0.000400543C18.8891 0.000400543 20.4746 0.752865 20.4746 2.66228H18.7735C18.7157 1.66725 17.9518 1.41198 17.0838 1.41198C16.5047 1.41198 15.7754 1.65519 15.7754 2.3505C15.7754 2.98676 16.1916 3.08487 18.262 3.61794C18.8646 3.76843 20.7528 4.13292 20.7528 6.00709C20.7528 7.52409 19.5606 8.65723 17.314 8.65723C15.4865 8.65723 13.7736 7.75522 13.7961 5.71817H15.4976Z" fill="#333333"/>
</svg>
