<svg width="40" height="40" viewBox="0 0 40 40" fill="none" xmlns="http://www.w3.org/2000/svg">
<path d="M26.9206 23.21C25.3709 23.21 24.7737 21.7835 24.7737 20.3338C24.7737 18.8842 25.3709 17.4586 26.9206 17.4586C28.4687 17.4586 29.0675 18.8842 29.0675 20.3338C29.0675 21.7835 28.4687 23.21 26.9206 23.21ZM26.9206 16.0003C24.4803 16.0003 23.0713 17.8288 23.0713 20.3338C23.0713 22.8398 24.4803 24.668 26.9206 24.668C29.3596 24.668 30.7683 22.8398 30.7683 20.3338C30.7683 17.8288 29.3596 16.0003 26.9206 16.0003Z" fill="#333333"/>
<path d="M2 16.2423H8.11464V17.7009H3.70082V19.515H7.81683V20.9368H3.70082V22.9659H8.11464V24.4238H2V16.2423Z" fill="#333333"/>
<path d="M12.0838 20.5117H10.5439V17.7009V17.6993H12.0838C13.1541 17.6993 13.8659 18.165 13.8659 19.1058C13.8659 20.0462 13.1541 20.5117 12.0838 20.5117ZM8.84375 24.4238H10.5439V21.969H12.0838C14.1678 21.969 15.5664 20.9454 15.5664 19.1058C15.5664 17.2659 14.1678 16.2426 12.0838 16.2426H8.84375V24.4238Z" fill="#333333"/>
<path d="M33.1564 16.2423H31.4102V24.4238H33.0776V21.1098C33.0776 20.2027 33.0453 19.3982 33.0145 18.6867C33.211 19.0963 33.8082 20.3269 34.0835 20.7891L36.2539 24.4238H38.0001V16.2423H36.3326V19.4734C36.3326 20.3796 36.3659 21.2686 36.3958 21.9785C36.1993 21.5689 35.6036 20.3389 35.3242 19.8773L33.1564 16.2423Z" fill="#333333"/>
<path d="M17.4976 21.7182C17.4976 22.8177 18.4123 23.245 19.3851 23.245C20.0201 23.245 21.0513 23.0609 21.0513 22.2163C21.0513 21.3245 19.7915 21.1559 18.5758 20.8324C17.301 20.4949 16.0733 20.0167 16.0733 18.5007C16.0733 16.8106 17.6719 16.0004 19.1651 16.0004C20.8891 16.0004 22.4746 16.7529 22.4746 18.6623H20.7735C20.7157 17.6673 19.9518 17.412 19.0838 17.412C18.5047 17.412 17.7754 17.6552 17.7754 18.3505C17.7754 18.9868 18.1916 19.0849 20.262 19.6179C20.8646 19.7684 22.7528 20.1329 22.7528 22.0071C22.7528 23.5241 21.5606 24.6572 19.314 24.6572C17.4865 24.6572 15.7736 23.7552 15.7961 21.7182H17.4976Z" fill="#333333"/>
</svg>
