<svg xmlns="http://www.w3.org/2000/svg" width="48" height="48" viewBox="0 0 48 48">
  <path fill="#400835" d="M10 0h28a10 10 0 0 1 10 10v28a10 10 0 0 1-10 10H10A10 10 0 0 1 0 38V10A10 10 0 0 1 10 0Z" data-name="Path 9327"/>
  <path fill="#e56fea" d="m36.441 23.289-2.374-4.113a.763.763 0 0 0 .089-.343.724.724 0 0 0-.7-.711l-2.626-4.545a.741.741 0 0 0 .051-.228.722.722 0 0 0-1.282-.457h-5.053a.692.692 0 0 0-1.092 0h-5.027a.722.722 0 0 0-1.282.457.668.668 0 0 0 .051.228l-2.654 4.609a.71.71 0 0 0-.432.647c0 .025.013.051.013.076l-2.526 4.367a.722.722 0 0 0-.6.711.733.733 0 0 0 .571.711l2.615 4.52a.664.664 0 0 0-.038.228.709.709 0 0 0 .571.7L17.17 34.4a.82.82 0 0 0-.051.254.723.723 0 0 0 .724.724.7.7 0 0 0 .546-.254h5.065a.714.714 0 0 0 1.092 0h5.078a.709.709 0 0 0 .52.228.723.723 0 0 0 .724-.724.526.526 0 0 0-.038-.2l2.45-4.278a.709.709 0 0 0 .571-.7.718.718 0 0 0-.038-.228l2.6-4.52a.723.723 0 0 0 .584-.711.71.71 0 0 0-.559-.7Zm-18.814 9.94-2.069-3.592h2.069Zm0-3.974h-2.069a.78.78 0 0 0-.063-.152l2.133-2.247Zm0-2.958-2.391 2.527a1.186 1.186 0 0 0-.19-.076l-2.641-4.57a.494.494 0 0 0 .025-.19.67.67 0 0 0-.013-.165l2.468-4.266a.8.8 0 0 0 .368-.127l2.374 2.463V26.3Zm0-4.85L15.456 19.2a.694.694 0 0 0 .1-.368c0-.013-.013-.038-.013-.051l2.082-.749v3.416Zm0-3.821-2.069.749 2.069-3.575Zm15.476 1.854.038.063-1.676 7.922-3.021-3.186 4.646-4.811.013.013Zm-8.925 9.22.546.559h-1.079Zm-.013-.533-3.948-4.05 3.77-4 3.936 4.151Zm.254.279 3.758-3.9 3.2 3.377-.279 1.333h-5.879l-.8-.812Zm5.383-14.475a.637.637 0 0 0 .165.064l2.742 4.773v.025a.694.694 0 0 0 .1.368l-4.621 4.8-3.934-4.152Zm-.432-.1-5.383 5.7-2.7-2.856 7.884-2.844h.2Zm-5.853 0a.675.675 0 0 0 .965 0h3.554l-7.032 2.537-2.412-2.539h4.926Zm-5.51.267.051-.1q.064-.016.127-.038l2.425 2.552-2.6.939Zm0 3.758 2.882-1.041 2.831 3-3.77 3.986-1.942-1.999v-3.948Zm0 4.393 1.729 1.787-1.728 1.815v-3.605Zm0 4.164L20 24.346l3.923 4.075-.813.838h-5.1V26.45Zm.33 7.681a.682.682 0 0 0-.279-.165l-.051-.076v-4.256h4.735l-4.34 4.494h-.066Zm6.157 0a.705.705 0 0 0-.99 0h-4.568l4.342-4.494h1.815l4.343 4.491h-4.941Zm5.687-.559-.2.355a.638.638 0 0 0-.165.063l-4.227-4.354h5.421l-.825 3.936Zm.609-1.054.609-2.882h1.041l-1.65 2.882Zm1.65-3.263h-.965l.216-1 .813.863a.469.469 0 0 0-.063.14Zm3.136-5.091-2.628 4.583a1.28 1.28 0 0 0-.19.089l-.976-1.039 1.638-7.769 2.171 3.758a.965.965 0 0 0-.038.2.857.857 0 0 0 .025.178Z" data-name="Icon awesome-connectdevelop"/>
</svg>
