<svg width="24" height="24" viewBox="0 0 24 24" fill="none" xmlns="http://www.w3.org/2000/svg">
<g clip-path="url(#clip0_33553_21592)">
<path d="M15.9041 17.22L15.9025 17.2218L13.6851 19.6686C13.5903 19.7732 13.4557 19.8329 13.3146 19.8329L6.78465 19.8329C6.65931 19.8329 6.53854 19.7858 6.44627 19.701L2.58294 16.1495C2.37996 15.9629 2.36634 15.6472 2.55248 15.4438L12.9535 4.07917C13.1399 3.87546 13.4562 3.86146 13.6599 4.04789L21.0726 10.8321C21.2763 11.0185 21.2903 11.3348 21.1039 11.5385L15.9041 17.22Z" stroke="#333333"/>
<path d="M7.72704 9.08891C7.92211 8.84751 8.28035 8.82059 8.5093 9.03013L16.6016 16.4362C16.8114 16.6283 16.8357 16.9505 16.6569 17.1718C16.4618 17.4132 16.1035 17.4401 15.8746 17.2306L7.78232 9.82447C7.57245 9.6324 7.54824 9.3102 7.72704 9.08891Z" fill="#333333"/>
<line x1="7.06348" y1="19.833" x2="20.4508" y2="19.833" stroke="#333333"/>
</g>
<defs>
<clipPath id="clip0_33553_21592">
<rect width="24" height="24" fill="white"/>
</clipPath>
</defs>
</svg>
