<svg width="16" height="16" viewBox="0 0 16 16" fill="none" xmlns="http://www.w3.org/2000/svg">
<g clip-path="url(#clip0_35705_22230)">
<path fill-rule="evenodd" clip-rule="evenodd" d="M14.0901 8.16386L11.1494 11.377C11.1375 11.402 11.1225 11.426 11.1044 11.4484C11.0764 11.4831 11.0434 11.5111 11.0072 11.5323L10.8486 11.7056L10.0781 12.5559H13.6338V13.5559H4.70896L4.65302 13.5558C4.40233 13.5558 4.16079 13.4617 3.97624 13.292L1.7412 11.2374C1.33525 10.8642 1.308 10.2328 1.68028 9.82606L8.16468 2.74088C8.53755 2.33347 9.1701 2.30546 9.57751 2.67833L14.0275 6.75103C14.435 7.1239 14.463 7.75644 14.0901 8.16386ZM5.64835 6.97153L10.0984 11.0443L8.72859 12.5558H4.65302L2.41797 10.5012L5.64835 6.97153ZM8.90238 3.41602L6.13301 6.44197L10.583 10.5147L13.3524 7.48872L8.90238 3.41602Z" fill="#333333"/>
</g>
<defs>
<clipPath id="clip0_35705_22230">
<rect width="16" height="16" fill="white"/>
</clipPath>
</defs>
</svg>
