<?xml version="1.0" encoding="utf-8"?>
<svg version="1.1" xmlns:xlink="http://www.w3.org/1999/xlink" width="3px" height="9px" xmlns="http://www.w3.org/2000/svg">
  <defs>
    <pattern id="BGPattern" patternUnits="userSpaceOnUse" alignment="0 0" imageRepeat="None" />
    <mask fill="white" id="Clip165">
      <path d="M 2.663677130044843 6.871448863636363  C 2.7488789237668163 6.952414772727272  2.791479820627803 7.048295454545453  2.791479820627803 7.159090909090908  L 2.791479820627803 8.590909090909092  C 2.791479820627803 8.701704545454545  2.7488789237668163 8.797585227272727  2.663677130044843 8.878551136363637  C 2.57847533632287 8.959517045454547  2.477578475336323 9  2.360986547085202 9  L 0.6390134529147982 9  C 0.5224215246636773 9  0.42152466367713015 8.959517045454547  0.336322869955157 8.878551136363637  C 0.2511210762331839 8.797585227272727  0.20852017937219733 8.701704545454545  0.20852017937219733 8.590909090909092  L 0.20852017937219733 7.159090909090908  C 0.20852017937219733 7.048295454545453  0.2511210762331839 6.952414772727272  0.336322869955157 6.871448863636363  C 0.42152466367713015 6.790482954545453  0.5224215246636773 6.75  0.6390134529147982 6.75  L 2.360986547085202 6.75  C 2.477578475336323 6.75  2.57847533632287 6.790482954545453  2.663677130044843 6.871448863636363  Z M 2.8755605381165923 0.12144886363636409  C 2.9585201793721976 0.20241477272727149  2.9977578475336326 0.29829545454545403  2.993273542600897 0.4090909090909087  L 2.804932735426009 5.3181818181818175  C 2.8004484304932737 5.4289772727272725  2.7544843049327357 5.524857954545453  2.6670403587443943 5.605823863636363  C 2.579596412556054 5.6867897727272725  2.477578475336323 5.7272727272727275  2.360986547085202 5.7272727272727275  L 0.6390134529147982 5.7272727272727275  C 0.5224215246636773 5.7272727272727275  0.4204035874439461 5.6867897727272725  0.3329596412556054 5.605823863636363  C 0.24551569506726456 5.524857954545453  0.1995515695067265 5.4289772727272725  0.195067264573991 5.3181818181818175  L 0.006726457399103139 0.4090909090909087  C 0.0022421524663677767 0.29829545454545403  0.04147982062780272 0.20241477272727149  0.12443946188340807 0.12144886363636409  C 0.2073991031390135 0.0404829545454537  0.3071748878923768 0  0.42376681614349776 0  L 2.5762331838565022 0  C 2.6928251121076237 0  2.792600896860987 0.0404829545454537  2.8755605381165923 0.12144886363636409  Z " fill-rule="evenodd" />
    </mask>
  </defs>
  <g transform="matrix(1 0 0 1 -7 -33 )">
    <path d="M 2.663677130044843 6.871448863636363  C 2.7488789237668163 6.952414772727272  2.791479820627803 7.048295454545453  2.791479820627803 7.159090909090908  L 2.791479820627803 8.590909090909092  C 2.791479820627803 8.701704545454545  2.7488789237668163 8.797585227272727  2.663677130044843 8.878551136363637  C 2.57847533632287 8.959517045454547  2.477578475336323 9  2.360986547085202 9  L 0.6390134529147982 9  C 0.5224215246636773 9  0.42152466367713015 8.959517045454547  0.336322869955157 8.878551136363637  C 0.2511210762331839 8.797585227272727  0.20852017937219733 8.701704545454545  0.20852017937219733 8.590909090909092  L 0.20852017937219733 7.159090909090908  C 0.20852017937219733 7.048295454545453  0.2511210762331839 6.952414772727272  0.336322869955157 6.871448863636363  C 0.42152466367713015 6.790482954545453  0.5224215246636773 6.75  0.6390134529147982 6.75  L 2.360986547085202 6.75  C 2.477578475336323 6.75  2.57847533632287 6.790482954545453  2.663677130044843 6.871448863636363  Z M 2.8755605381165923 0.12144886363636409  C 2.9585201793721976 0.20241477272727149  2.9977578475336326 0.29829545454545403  2.993273542600897 0.4090909090909087  L 2.804932735426009 5.3181818181818175  C 2.8004484304932737 5.4289772727272725  2.7544843049327357 5.524857954545453  2.6670403587443943 5.605823863636363  C 2.579596412556054 5.6867897727272725  2.477578475336323 5.7272727272727275  2.360986547085202 5.7272727272727275  L 0.6390134529147982 5.7272727272727275  C 0.5224215246636773 5.7272727272727275  0.4204035874439461 5.6867897727272725  0.3329596412556054 5.605823863636363  C 0.24551569506726456 5.524857954545453  0.1995515695067265 5.4289772727272725  0.195067264573991 5.3181818181818175  L 0.006726457399103139 0.4090909090909087  C 0.0022421524663677767 0.29829545454545403  0.04147982062780272 0.20241477272727149  0.12443946188340807 0.12144886363636409  C 0.2073991031390135 0.0404829545454537  0.3071748878923768 0  0.42376681614349776 0  L 2.5762331838565022 0  C 2.6928251121076237 0  2.792600896860987 0.0404829545454537  2.8755605381165923 0.12144886363636409  Z " fill-rule="nonzero" fill="rgba(255, 255, 255, 1)" stroke="none" transform="matrix(1 0 0 1 7 33 )" class="fill" />
    <path d="M 2.663677130044843 6.871448863636363  C 2.7488789237668163 6.952414772727272  2.791479820627803 7.048295454545453  2.791479820627803 7.159090909090908  L 2.791479820627803 8.590909090909092  C 2.791479820627803 8.701704545454545  2.7488789237668163 8.797585227272727  2.663677130044843 8.878551136363637  C 2.57847533632287 8.959517045454547  2.477578475336323 9  2.360986547085202 9  L 0.6390134529147982 9  C 0.5224215246636773 9  0.42152466367713015 8.959517045454547  0.336322869955157 8.878551136363637  C 0.2511210762331839 8.797585227272727  0.20852017937219733 8.701704545454545  0.20852017937219733 8.590909090909092  L 0.20852017937219733 7.159090909090908  C 0.20852017937219733 7.048295454545453  0.2511210762331839 6.952414772727272  0.336322869955157 6.871448863636363  C 0.42152466367713015 6.790482954545453  0.5224215246636773 6.75  0.6390134529147982 6.75  L 2.360986547085202 6.75  C 2.477578475336323 6.75  2.57847533632287 6.790482954545453  2.663677130044843 6.871448863636363  Z " stroke-width="0" stroke-dasharray="0" stroke="rgba(255, 255, 255, 0)" fill="none" transform="matrix(1 0 0 1 7 33 )" class="stroke" mask="url(#Clip165)" />
    <path d="M 2.8755605381165923 0.12144886363636409  C 2.9585201793721976 0.20241477272727149  2.9977578475336326 0.29829545454545403  2.993273542600897 0.4090909090909087  L 2.804932735426009 5.3181818181818175  C 2.8004484304932737 5.4289772727272725  2.7544843049327357 5.524857954545453  2.6670403587443943 5.605823863636363  C 2.579596412556054 5.6867897727272725  2.477578475336323 5.7272727272727275  2.360986547085202 5.7272727272727275  L 0.6390134529147982 5.7272727272727275  C 0.5224215246636773 5.7272727272727275  0.4204035874439461 5.6867897727272725  0.3329596412556054 5.605823863636363  C 0.24551569506726456 5.524857954545453  0.1995515695067265 5.4289772727272725  0.195067264573991 5.3181818181818175  L 0.006726457399103139 0.4090909090909087  C 0.0022421524663677767 0.29829545454545403  0.04147982062780272 0.20241477272727149  0.12443946188340807 0.12144886363636409  C 0.2073991031390135 0.0404829545454537  0.3071748878923768 0  0.42376681614349776 0  L 2.5762331838565022 0  C 2.6928251121076237 0  2.792600896860987 0.0404829545454537  2.8755605381165923 0.12144886363636409  Z " stroke-width="0" stroke-dasharray="0" stroke="rgba(255, 255, 255, 0)" fill="none" transform="matrix(1 0 0 1 7 33 )" class="stroke" mask="url(#Clip165)" />
  </g>
</svg>