<svg width="24" height="24" viewBox="0 0 24 24" fill="none" xmlns="http://www.w3.org/2000/svg">
<path d="M12 5.24838C4.5 5.24838 1.5 11.9991 1.5 11.9991C1.5 11.9991 4.5 18.7484 12 18.7484C19.5 18.7484 22.5 11.9991 22.5 11.9991C22.5 11.9991 19.5 5.24838 12 5.24838Z" stroke="#333333" stroke-linecap="round" stroke-linejoin="round"/>
<path d="M12 15.7505C14.0711 15.7505 15.75 14.0715 15.75 12.0005C15.75 9.92939 14.0711 8.25046 12 8.25046C9.92893 8.25046 8.25 9.92939 8.25 12.0005C8.25 14.0715 9.92893 15.7505 12 15.7505Z" fill="#333333"/>
<path d="M12 15.75C14.0711 15.75 15.75 14.0711 15.75 12C15.75 9.92893 14.0711 8.25 12 8.25C9.92893 8.25 8.25 9.92893 8.25 12C8.25 14.0711 9.92893 15.75 12 15.75Z" stroke="#333333" stroke-linecap="round" stroke-linejoin="round"/>
</svg>
