<svg width="24" height="24" viewBox="0 0 24 24" fill="none" xmlns="http://www.w3.org/2000/svg">
<path d="M4.5 3.75L19.5 20.25" stroke="#333333" stroke-linecap="round" stroke-linejoin="round"/>
<path d="M14.5241 14.7754C13.7882 15.4443 12.8166 15.7935 11.8233 15.7461C10.8299 15.6988 9.89599 15.2588 9.22701 14.5229C8.55803 13.787 8.20875 12.8156 8.25601 11.8222C8.30327 10.8288 8.74319 9.89485 9.47901 9.2258" stroke="#333333" stroke-linecap="round" stroke-linejoin="round"/>
<path d="M6.93698 6.43053C3.11486 8.36605 1.5 11.9999 1.5 11.9999C1.5 11.9999 4.5 18.7491 12 18.7491C13.7572 18.7631 15.4926 18.3584 17.0623 17.5684" stroke="#333333" stroke-linecap="round" stroke-linejoin="round"/>
<path d="M19.5574 15.8543C21.6013 14.0237 22.5002 12.0013 22.5002 12.0013C22.5002 12.0013 19.5002 5.25054 12.0002 5.25054C11.3507 5.24948 10.7021 5.30229 10.0613 5.40843" stroke="#333333" stroke-linecap="round" stroke-linejoin="round"/>
<path d="M12.7064 8.31567C13.5035 8.46872 14.2294 8.87606 14.7753 9.47661C15.3212 10.0771 15.6577 10.8385 15.7343 11.6465" stroke="#333333" stroke-linecap="round" stroke-linejoin="round"/>
</svg>
