<svg width="24" height="24" viewBox="0 0 24 24" fill="none" xmlns="http://www.w3.org/2000/svg">
<path d="M8.79532 5.16021L8.79473 5.15946C8.41447 4.67274 8.10164 4.27105 7.90017 3.93934C7.80003 3.77448 7.74284 3.65124 7.7166 3.56319C7.70644 3.52908 7.70291 3.50706 7.70174 3.49471C7.90472 3.10572 8.36217 2.72039 9.05183 2.43296C9.75469 2.14003 10.641 1.97478 11.5753 2.00314L8.79532 5.16021ZM11.2198 9.02755C10.5585 7.4212 9.5717 6.15388 8.79533 5.16023L11.5755 2.00314C13.2557 2.05545 14.305 2.69064 14.6257 3.48521C15.4959 5.77265 14.5359 7.98434 13.3091 9.65791C12.7049 9.26911 11.9887 9.03811 11.2198 9.02755Z" fill="#333333" stroke="#333333"/>
<path d="M5.16021 14.818L5.15946 14.8186C4.67274 15.1988 4.27105 15.5116 3.93934 15.7131C3.77448 15.8132 3.65124 15.8704 3.56319 15.8967C3.52908 15.9068 3.50706 15.9104 3.49471 15.9115C3.10572 15.7086 2.72039 15.2511 2.43296 14.5615C2.14003 13.8586 1.97478 12.9723 2.00314 12.038L5.16021 14.818ZM9.02755 12.3935C7.4212 13.0548 6.15388 14.0416 5.16023 14.8179L2.00314 12.0378C2.05545 10.3576 2.69064 9.30824 3.4852 8.98758C5.77265 8.11739 7.98434 9.07742 9.65791 10.3042C9.26911 10.9084 9.03811 11.6246 9.02755 12.3935Z" fill="#333333" stroke="#333333"/>
<path d="M12.3935 14.9724C13.0548 16.5788 14.0416 17.8461 14.818 18.8398L12.0378 21.9969C10.3576 21.9445 9.30822 21.3094 8.98757 20.5148C8.11739 18.2273 9.07743 16.0157 10.3042 14.3421C10.9084 14.7309 11.6246 14.9619 12.3935 14.9724ZM14.818 18.8398L14.8186 18.8405C14.8186 18.8405 14.8186 18.8405 14.8186 18.8405C15.1988 19.3273 15.5116 19.7289 15.7131 20.0607C15.8132 20.2255 15.8704 20.3488 15.8967 20.4368C15.9068 20.4709 15.9104 20.4929 15.9115 20.5053C15.7086 20.8943 15.2511 21.2796 14.5615 21.567C13.8586 21.86 12.9723 22.0252 12.038 21.9969L14.818 18.8398Z" fill="#333333" stroke="#333333"/>
<path d="M18.8398 8.79532L18.8405 8.79473C19.3273 8.41447 19.7289 8.10164 20.0607 7.90017C20.2255 7.80003 20.3488 7.74284 20.4368 7.7166C20.4709 7.70644 20.4929 7.70291 20.5053 7.70174C20.8943 7.90472 21.2796 8.36217 21.567 9.05183C21.86 9.75469 22.0252 10.641 21.9969 11.5753L18.8398 8.79532ZM14.9724 11.2198C16.5788 10.5585 17.8461 9.5717 18.8398 8.79533L21.9969 11.5755C21.9445 13.2557 21.3094 14.305 20.5148 14.6257C18.2274 15.4959 16.0157 14.5359 14.3421 13.3091C14.7309 12.7049 14.9619 11.9887 14.9724 11.2198Z" fill="#333333" stroke="#333333"/>
<circle cx="11.9527" cy="11.9513" r="2.35067" stroke="#333333"/>
</svg>
