<svg width="24" height="24" viewBox="0 0 24 24" fill="none" xmlns="http://www.w3.org/2000/svg">
<path d="M3.9458 4.5H20.055C20.2003 4.5 20.3424 4.54221 20.4642 4.62149C20.586 4.70077 20.6821 4.81371 20.7409 4.94658C20.7996 5.07946 20.8186 5.22655 20.7953 5.36998C20.7721 5.51341 20.7077 5.64699 20.6099 5.7545L14.4454 12.5355C14.3199 12.6735 14.2504 12.8534 14.2504 13.04V18.3486C14.2504 18.4721 14.2199 18.5936 14.1616 18.7025C14.1034 18.8114 14.0191 18.9042 13.9164 18.9726L10.9164 20.9727C10.8035 21.048 10.6722 21.0912 10.5366 21.0977C10.401 21.1043 10.2662 21.0739 10.1465 21.0099C10.0268 20.9458 9.92675 20.8505 9.85699 20.734C9.78723 20.6176 9.75039 20.4844 9.75039 20.3486V13.04C9.75039 12.8534 9.68085 12.6735 9.55534 12.5355L3.39085 5.7545C3.29311 5.64699 3.2287 5.51341 3.20546 5.36998C3.18222 5.22655 3.20113 5.07946 3.25992 4.94658C3.3187 4.81371 3.41481 4.70077 3.53657 4.62149C3.65833 4.54221 3.8005 4.5 3.9458 4.5Z" stroke="#333333" stroke-linecap="round" stroke-linejoin="round"/>
</svg>
