<svg width="24" height="24" viewBox="0 0 24 24" fill="none" xmlns="http://www.w3.org/2000/svg">
<path d="M3.58708 8.44292C4.40633 6.46306 6.67747 5.52463 8.65531 6.34873C10.7967 7.24096 13.2057 7.24096 15.347 6.34873C17.3249 5.52463 19.596 6.46306 20.4153 8.44292L20.6671 9.05149C21.7459 11.6587 22.3012 14.4527 22.3012 17.2743V17.455C22.3012 18.4997 21.2383 19.2083 20.2739 18.8065L19.2065 18.3617C14.5951 16.4403 9.40726 16.4403 4.79587 18.3617L3.72844 18.8065C2.76403 19.2083 1.70117 18.4997 1.70117 17.455V17.2743C1.70117 14.4527 2.25642 11.6587 3.33526 9.05149L3.58708 8.44292Z" stroke="#333333"/>
<path d="M7.20107 13.9016C7.14585 13.9016 7.10107 13.8568 7.10107 13.8016H6.10107C6.10107 14.4091 6.59356 14.9016 7.20107 14.9016V13.9016ZM7.30107 13.8016C7.30107 13.8568 7.2563 13.9016 7.20107 13.9016V14.9016C7.80859 14.9016 8.30107 14.4091 8.30107 13.8016H7.30107ZM7.30107 13.6016V13.8016H8.30107V13.6016H7.30107ZM9.00078 12.1016H8.80107V13.1016H9.00078V12.1016ZM9.10078 12.0016C9.10078 12.0568 9.05601 12.1016 9.00078 12.1016V13.1016C9.60829 13.1016 10.1008 12.6091 10.1008 12.0016H9.10078ZM9.00078 11.9016C9.05601 11.9016 9.10078 11.9463 9.10078 12.0016H10.1008C10.1008 11.394 9.60829 10.9016 9.00078 10.9016V11.9016ZM8.80107 11.9016H9.00078V10.9016H8.80107V11.9016ZM7.30107 10.2016V10.4016H8.30107V10.2016H7.30107ZM7.20107 10.1016C7.2563 10.1016 7.30107 10.1463 7.30107 10.2016H8.30107C8.30107 9.59405 7.80859 9.10156 7.20107 9.10156V10.1016ZM7.10107 10.2016C7.10107 10.1463 7.14585 10.1016 7.20107 10.1016V9.10156C6.59356 9.10156 6.10107 9.59405 6.10107 10.2016H7.10107ZM7.10107 10.4016V10.2016H6.10107V10.4016H7.10107ZM5.40078 11.9016H5.60107V10.9016H5.40078V11.9016ZM5.30078 12.0016C5.30078 11.9463 5.34555 11.9016 5.40078 11.9016V10.9016C4.79327 10.9016 4.30078 11.394 4.30078 12.0016H5.30078ZM5.40078 12.1016C5.34555 12.1016 5.30078 12.0568 5.30078 12.0016H4.30078C4.30078 12.6091 4.79327 13.1016 5.40078 13.1016V12.1016ZM5.60107 12.1016H5.40078V13.1016H5.60107V12.1016ZM7.10107 13.8016V13.6016H6.10107V13.8016H7.10107ZM5.60107 13.1016C5.87722 13.1016 6.10107 13.3254 6.10107 13.6016H7.10107C7.10107 12.7731 6.4295 12.1016 5.60107 12.1016V13.1016ZM6.10107 10.4016C6.10107 10.6777 5.87722 10.9016 5.60107 10.9016V11.9016C6.4295 11.9016 7.10107 11.23 7.10107 10.4016H6.10107ZM8.80107 10.9016C8.52493 10.9016 8.30107 10.6777 8.30107 10.4016H7.30107C7.30107 11.23 7.97265 11.9016 8.80107 11.9016V10.9016ZM8.30107 13.6016C8.30107 13.3254 8.52493 13.1016 8.80107 13.1016V12.1016C7.97265 12.1016 7.30107 12.7731 7.30107 13.6016H8.30107Z" fill="#333333"/>
<circle cx="17.1002" cy="9.90098" r="0.5" stroke="#333333" stroke-width="0.8"/>
<circle cx="15.3004" cy="11.7008" r="0.5" stroke="#333333" stroke-width="0.8"/>
<circle cx="17.1002" cy="13.5006" r="0.5" stroke="#333333" stroke-width="0.8"/>
<circle cx="18.9" cy="11.7008" r="0.5" stroke="#333333" stroke-width="0.8"/>
</svg>
