<svg width="24" height="24" viewBox="0 0 24 24" fill="none" xmlns="http://www.w3.org/2000/svg">
<path d="M20.4809 14.0154H21.3584C21.2504 13.0839 22.7286 12.9624 22.7286 11.9769C22.7286 11.0791 22.0131 10.6201 21.0344 10.6201C20.3121 10.6201 19.7181 10.9509 19.2861 11.4504L19.8396 11.9566C20.1704 11.6124 20.5079 11.4234 20.9196 11.4234C21.4529 11.4234 21.7769 11.6529 21.7769 12.0646C21.7769 12.7194 20.3391 12.9556 20.4809 14.0154ZM20.9264 15.8176C21.2639 15.8176 21.5204 15.5679 21.5204 15.2169C21.5204 14.8659 21.2639 14.6229 20.9264 14.6229C20.5821 14.6229 20.3256 14.8659 20.3256 15.2169C20.3256 15.5679 20.5754 15.8176 20.9264 15.8176Z" fill="#333333"/>
<rect x="1.10059" y="11" width="17" height="4.625" rx="0.5" stroke="#333333"/>
<path d="M0.900391 11.0625L2.88645 6.59386C3.04695 6.23273 3.40507 6 3.80026 6H15.3232C15.7184 6 16.0765 6.23273 16.237 6.59386L18.2231 11.0625" stroke="#333333" stroke-linecap="round" stroke-linejoin="round"/>
<rect x="3.03059" y="13.0804" width="3.015" height="0.36" rx="0.18" stroke="#333333" stroke-width="0.36"/>
<path d="M15.2256 12.75V14.19" stroke="#333333" stroke-linecap="round" stroke-linejoin="round"/>
<path d="M12.9756 12.75V14.19" stroke="#333333" stroke-linecap="round" stroke-linejoin="round"/>
</svg>
