<svg width="40" height="40" viewBox="0 0 40 40" fill="none" xmlns="http://www.w3.org/2000/svg">
<circle cx="20" cy="20" r="14.5" stroke="#333333"/>
<path d="M20.834 19.9893C20.834 21.6162 20.4261 22.8809 19.6104 23.7832C18.7992 24.6855 17.6484 25.1367 16.1582 25.1367C14.6497 25.1367 13.4899 24.6901 12.6787 23.7969C11.8721 22.8991 11.4688 21.6253 11.4688 19.9756C11.4688 18.3258 11.8743 17.0589 12.6855 16.1748C13.5013 15.2907 14.6634 14.8486 16.1719 14.8486C17.6576 14.8486 18.806 15.2975 19.6172 16.1953C20.4284 17.0931 20.834 18.3577 20.834 19.9893ZM13.2051 19.9893C13.2051 21.2197 13.4535 22.154 13.9502 22.792C14.4469 23.4255 15.1829 23.7422 16.1582 23.7422C17.1289 23.7422 17.8604 23.4277 18.3525 22.7988C18.8493 22.1699 19.0977 21.2334 19.0977 19.9893C19.0977 18.7633 18.8516 17.8337 18.3594 17.2002C17.8717 16.5667 17.1426 16.25 16.1719 16.25C15.1921 16.25 14.4515 16.5667 13.9502 17.2002C13.4535 17.8337 13.2051 18.7633 13.2051 19.9893ZM28.7432 22.2861C28.7432 23.1748 28.4219 23.8721 27.7793 24.3779C27.1367 24.8838 26.2503 25.1367 25.1201 25.1367C23.9899 25.1367 23.0648 24.9613 22.3447 24.6104V23.0654C22.8005 23.2796 23.2835 23.4482 23.7939 23.5713C24.3089 23.6943 24.7874 23.7559 25.2295 23.7559C25.8766 23.7559 26.3529 23.6328 26.6582 23.3867C26.9681 23.1406 27.123 22.8102 27.123 22.3955C27.123 22.0218 26.9818 21.7051 26.6992 21.4453C26.4167 21.1855 25.8333 20.8779 24.9492 20.5225C24.0378 20.1533 23.3952 19.7318 23.0215 19.2578C22.6478 18.7839 22.4609 18.2142 22.4609 17.5488C22.4609 16.7148 22.7572 16.0586 23.3496 15.5801C23.9421 15.1016 24.7373 14.8623 25.7354 14.8623C26.6924 14.8623 27.6449 15.0719 28.5928 15.4912L28.0732 16.8242C27.1846 16.4505 26.3916 16.2637 25.6943 16.2637C25.1657 16.2637 24.7646 16.3799 24.4912 16.6123C24.2178 16.8402 24.0811 17.1432 24.0811 17.5215C24.0811 17.7812 24.1357 18.0046 24.2451 18.1914C24.3545 18.3737 24.5345 18.5469 24.7852 18.7109C25.0358 18.875 25.487 19.0915 26.1387 19.3604C26.8724 19.6657 27.4102 19.9505 27.752 20.2148C28.0938 20.4792 28.3444 20.7777 28.5039 21.1104C28.6634 21.443 28.7432 21.835 28.7432 22.2861Z" fill="#333333"/>
</svg>
