<svg width="24" height="24" viewBox="0 0 24 24" fill="none" xmlns="http://www.w3.org/2000/svg">
<path d="M12 21C16.9706 21 21 16.9706 21 12C21 7.02944 16.9706 3 12 3C7.02944 3 3 7.02944 3 12C3 16.9706 7.02944 21 12 21Z" fill="#333333"/>
<path d="M3.51123 9H20.4861" stroke="white" stroke-linecap="round" stroke-linejoin="round"/>
<path d="M3.51404 15H20.4888" stroke="white" stroke-linecap="round" stroke-linejoin="round"/>
<path d="M12 20.7582C14.0711 20.7582 15.75 16.8369 15.75 11.9998C15.75 7.16266 14.0711 3.24139 12 3.24139C9.92893 3.24139 8.25 7.16266 8.25 11.9998C8.25 16.8369 9.92893 20.7582 12 20.7582Z" stroke="white" stroke-miterlimit="10"/>
<path d="M12 21C16.9706 21 21 16.9706 21 12C21 7.02944 16.9706 3 12 3C7.02944 3 3 7.02944 3 12C3 16.9706 7.02944 21 12 21Z" stroke="#333333" stroke-miterlimit="10"/>
</svg>
