<svg width="19" height="18" viewBox="0 0 19 18" fill="none" xmlns="http://www.w3.org/2000/svg">
<path fill-rule="evenodd" clip-rule="evenodd" d="M17.7062 9.20468C17.7062 8.5665 17.649 7.95286 17.5429 7.36377H9.08533V10.8451H13.9182C13.7101 11.9701 13.0774 12.9233 12.1263 13.5615V15.8197H15.0285C16.7265 14.2529 17.7062 11.9456 17.7062 9.20468Z" fill="#4285F4"/>
<path fill-rule="evenodd" clip-rule="evenodd" d="M9.08532 18C11.5099 18 13.5427 17.1941 15.0285 15.8195L12.1263 13.5613C11.3222 14.1013 10.2935 14.4204 9.08532 14.4204C6.74643 14.4204 4.76673 12.8372 4.06058 10.71H1.06042V13.0418C2.53805 15.9831 5.57494 18 9.08532 18Z" fill="#34A853"/>
<path fill-rule="evenodd" clip-rule="evenodd" d="M4.06053 10.7101C3.88093 10.1701 3.77888 9.59325 3.77888 9.00007C3.77888 8.40689 3.88093 7.83007 4.06053 7.29007V4.95825H1.06037C0.452181 6.17325 0.105225 7.5478 0.105225 9.00007C0.105225 10.4523 0.452181 11.8269 1.06037 13.0419L4.06053 10.7101Z" fill="#FBBC05"/>
<path fill-rule="evenodd" clip-rule="evenodd" d="M9.08532 3.57955C10.4038 3.57955 11.5875 4.03364 12.5181 4.92545L15.0938 2.34409C13.5386 0.891818 11.5058 0 9.08532 0C5.57494 0 2.53805 2.01682 1.06042 4.95818L4.06058 7.29C4.76673 5.16273 6.74643 3.57955 9.08532 3.57955Z" fill="#EA4335"/>
</svg>
