<svg xmlns="http://www.w3.org/2000/svg" width="51" height="50" fill="none">
<path fill="#fff" fill-rule="evenodd" stroke="#fff" stroke-width="1.117" d="M25.5 1c-13.249 0-24 10.745-24 24 0 13.253 10.751 24 24 24 13.258 0 24-10.747 24-24 0-13.255-10.742-24-24-24Z" clip-rule="evenodd"/>
<path fill="#EA4335" fill-rule="evenodd" d="M20.472 9.514c3.542-1.225 7.516-1.197 11.04.096 1.957.723 3.744 1.85 5.277 3.27-.51.555-1.065 1.076-1.595 1.612-1.003 1.005-2.009 2.008-3.012 3.014a8.939 8.939 0 0 0-3.534-2.08 9.7 9.7 0 0 0-4.81-.194c-1.85.397-3.569 1.366-4.9 2.723a10.165 10.165 0 0 0-2.378 3.868c-1.789-1.392-3.578-2.775-5.376-4.167 1.896-3.788 5.295-6.776 9.288-8.142Z" clip-rule="evenodd"/>
<path fill="#FBBC05" fill-rule="evenodd" d="M9.766 21.762c.29-1.428.767-2.82 1.428-4.124 1.79 1.392 3.576 2.775 5.374 4.167a9.889 9.889 0 0 0 0 6.38c-1.788 1.392-3.576 2.784-5.366 4.167-1.656-3.233-2.157-7.031-1.436-10.59Z" clip-rule="evenodd"/><path fill="#4285F4" fill-rule="evenodd" d="M25.827 21.93h15.42c.51 2.88.396 5.885-.414 8.705-.748 2.582-2.167 4.978-4.15 6.802l-5.208-4.045a7.72 7.72 0 0 0 3.279-5.066h-8.935c.008-2.133.008-4.264.008-6.396Z" clip-rule="evenodd"/><path fill="#34A853" fill-rule="evenodd" d="M11.185 32.361c1.79-1.383 3.578-2.775 5.367-4.168a10.182 10.182 0 0 0 3.753 5.032 9.793 9.793 0 0 0 3.648 1.577c1.286.265 2.616.229 3.912.01 1.286-.23 2.528-.698 3.612-1.429l5.207 4.044c-1.877 1.736-4.228 2.918-6.714 3.49-2.749.625-5.656.642-8.388-.089a16.183 16.183 0 0 1-5.956-3.005 16.49 16.49 0 0 1-4.44-5.462Z" clip-rule="evenodd"/>
</svg>
