<svg width="32" height="32" viewBox="0 0 32 32" fill="none" xmlns="http://www.w3.org/2000/svg">
<path fill-rule="evenodd" clip-rule="evenodd" d="M13.4857 8.25705C15.2567 7.64452 17.2437 7.65846 19.0054 8.30506C19.9842 8.66669 20.8778 9.23043 21.6444 9.93975C21.3889 10.2177 21.1117 10.4779 20.8468 10.7459C20.345 11.2484 19.8425 11.7502 19.3407 12.2528C18.8428 11.7773 18.2349 11.4157 17.5736 11.2128C16.7984 10.9797 15.9613 10.9449 15.1684 11.116C14.2438 11.3143 13.3842 11.799 12.7191 12.4774C12.1816 13.0194 11.7759 13.6892 11.5296 14.4117C10.6352 13.7156 9.74084 13.0241 8.8418 12.3279C9.78962 10.4338 11.4894 8.94004 13.4857 8.25705Z" fill="#333333"/>
<path fill-rule="evenodd" clip-rule="evenodd" d="M8.13321 14.3805C8.27801 13.6665 8.51652 12.9704 8.84717 12.3184C9.74157 13.0145 10.6352 13.706 11.5342 14.4022C11.1819 15.429 11.1819 16.5696 11.5342 17.5918C10.6398 18.288 9.74622 18.9841 8.85105 19.6756C8.02325 18.0588 7.77235 16.16 8.13321 14.3805Z" fill="#333333"/>
<path fill-rule="evenodd" clip-rule="evenodd" d="M16.164 14.4648H23.8736C24.1292 15.9052 24.0719 17.4074 23.6669 18.8176C23.2929 20.1084 22.5835 21.3064 21.5916 22.2186C20.7243 21.5449 19.8562 20.8704 18.9881 20.1959C19.8469 19.619 20.4556 18.6852 20.6275 17.663H16.1602C16.164 16.5967 16.164 15.5311 16.164 14.4648Z" fill="#333333"/>
<path fill-rule="evenodd" clip-rule="evenodd" d="M8.84229 19.6805C9.73668 18.989 10.6311 18.2928 11.5255 17.5967C11.8685 18.6057 12.5298 19.5001 13.4018 20.1126C13.9485 20.4951 14.5734 20.7685 15.2262 20.9009C15.8689 21.0333 16.5341 21.0155 17.1822 20.9056C17.825 20.7909 18.446 20.5571 18.9881 20.1916C19.8561 20.8653 20.7242 21.5398 21.5915 22.2135C20.653 23.0815 19.4775 23.6724 18.2346 23.9581C16.8601 24.271 15.4066 24.2795 14.0406 23.914C12.9573 23.6282 11.9398 23.1125 11.0624 22.4117C10.1417 21.6807 9.37505 20.7375 8.84229 19.6805Z" fill="#333333"/>
<path fill-rule="evenodd" clip-rule="evenodd" d="M16.0004 4C9.37567 4 4 9.37257 4 15.9996C4 22.6267 9.37567 28 16.0004 28C22.629 28 28 22.6267 28 15.9996C28 9.37257 22.629 4 16.0004 4Z" stroke="#333333" stroke-width="1.117"/>
</svg>
