<svg width="24" height="24" viewBox="0 0 24 24" fill="none" xmlns="http://www.w3.org/2000/svg">
<path d="M11.9918 20.25L10.688 19.0631C6.05722 14.8639 3 12.0944 3 8.6955C3 5.92602 5.17602 3.75 7.9455 3.75C9.51008 3.75 11.0117 4.47834 11.9918 5.62929C12.9719 4.47834 14.4736 3.75 16.0381 3.75C18.8076 3.75 20.9836 5.92602 20.9836 8.6955C20.9836 12.0944 17.9264 14.8639 13.2956 19.0721L11.9918 20.25Z" fill="#333333" stroke="#333333"/>
<path d="M14.325 8.25L15.4414 9.36637L13.0624 11.7454L11.1124 9.79537L7.5 13.4126L8.18738 14.1L11.1124 11.175L13.0624 13.125L16.1336 10.0586L17.25 11.175V8.25H14.325Z" fill="white"/>
</svg>
