<svg width="24" height="24" viewBox="0 0 24 24" fill="none" xmlns="http://www.w3.org/2000/svg">
<path d="M18.3656 5.6344C19.2018 6.47019 19.8652 7.46255 20.3177 8.55479C20.7703 9.64702 21.0033 10.8177 21.0033 12C21.0033 13.1823 20.7703 14.353 20.3177 15.4453C19.8652 16.5375 19.2018 17.5299 18.3656 18.3656L14.6531 14.6531C15.3549 13.9486 15.749 12.9945 15.749 12C15.749 11.0055 15.3549 10.0515 14.6531 9.3469L18.3656 5.6344Z" fill="#333333"/>
<path d="M5.63441 18.3656C4.79818 17.5299 4.13483 16.5375 3.68224 15.4453C3.22965 14.353 2.9967 13.1823 2.9967 12C2.9967 10.8177 3.22965 9.64702 3.68224 8.55479C4.13483 7.46255 4.79818 6.47019 5.63441 5.6344L9.34691 9.3469C8.64504 10.0515 8.25096 11.0055 8.25096 12C8.25096 12.9945 8.64504 13.9486 9.34691 14.6531L5.63441 18.3656Z" fill="#333333"/>
<path d="M18.3668 5.63379C19.203 6.46958 19.8664 7.46194 20.319 8.55418C20.7716 9.64641 21.0045 10.8171 21.0045 11.9994C21.0045 13.1817 20.7716 14.3524 20.319 15.4447C19.8664 16.5369 19.203 17.5292 18.3668 18.365L14.6543 14.6525C15.3562 13.9479 15.7502 12.9939 15.7502 11.9994C15.7502 11.0049 15.3562 10.0509 14.6543 9.34629L18.3668 5.63379Z" fill="#333333"/>
<path d="M5.63477 18.365C4.79855 17.5292 4.13519 16.5369 3.68261 15.4447C3.23002 14.3524 2.99707 13.1817 2.99707 11.9994C2.99707 10.8171 3.23002 9.64641 3.68261 8.55418C4.13519 7.46194 4.79855 6.46958 5.63477 5.63379L9.34727 9.34629C8.6454 10.0509 8.25132 11.0049 8.25132 11.9994C8.25132 12.9939 8.6454 13.9479 9.34727 14.6525L5.63477 18.365Z" fill="#333333"/>
<path d="M12 21C16.9706 21 21 16.9706 21 12C21 7.02944 16.9706 3 12 3C7.02944 3 3 7.02944 3 12C3 16.9706 7.02944 21 12 21Z" stroke="#333333" stroke-linecap="round" stroke-linejoin="round"/>
<path d="M12 15.75C14.0711 15.75 15.75 14.0711 15.75 12C15.75 9.92893 14.0711 8.25 12 8.25C9.92893 8.25 8.25 9.92893 8.25 12C8.25 14.0711 9.92893 15.75 12 15.75Z" stroke="#333333" stroke-linecap="round" stroke-linejoin="round"/>
<path d="M9.3469 9.3469L5.6344 5.6344" stroke="#333333" stroke-linecap="round" stroke-linejoin="round"/>
<path d="M14.6531 9.3469L18.3656 5.6344" stroke="#333333" stroke-linecap="round" stroke-linejoin="round"/>
<path d="M14.6531 14.6531L18.3656 18.3656" stroke="#333333" stroke-linecap="round" stroke-linejoin="round"/>
<path d="M9.3469 14.6531L5.6344 18.3656" stroke="#333333" stroke-linecap="round" stroke-linejoin="round"/>
</svg>
