<svg width="24" height="24" viewBox="0 0 24 24" fill="none" xmlns="http://www.w3.org/2000/svg">
<path d="M14.2495 19.5001V15C14.2495 14.8011 14.1704 14.6103 14.0298 14.4697C13.8891 14.329 13.6984 14.25 13.4995 14.25H10.4995C10.3005 14.25 10.1098 14.329 9.96912 14.4697C9.82847 14.6103 9.74945 14.8011 9.74945 15V19.5001C9.74945 19.699 9.67045 19.8897 9.52981 20.0304C9.38918 20.171 9.19844 20.2501 8.99954 20.2501L4.50009 20.2507C4.40159 20.2507 4.30406 20.2313 4.21305 20.1936C4.12205 20.1559 4.03936 20.1007 3.9697 20.0311C3.90005 19.9614 3.8448 19.8787 3.8071 19.7877C3.7694 19.6967 3.75 19.5992 3.75 19.5007V10.8325C3.75 10.728 3.77183 10.6247 3.8141 10.5291C3.85637 10.4336 3.91814 10.3479 3.99545 10.2776L11.4949 3.45873C11.633 3.33321 11.8129 3.26365 11.9995 3.26364C12.186 3.26364 12.3659 3.33318 12.504 3.4587L20.0045 10.2776C20.0818 10.3479 20.1436 10.4336 20.1859 10.5291C20.2282 10.6247 20.25 10.7281 20.25 10.8326V19.5007C20.25 19.5992 20.2306 19.6967 20.1929 19.7877C20.1552 19.8787 20.1 19.9614 20.0303 20.0311C19.9606 20.1007 19.878 20.1559 19.7869 20.1936C19.6959 20.2313 19.5984 20.2507 19.4999 20.2507L14.9994 20.2501C14.8005 20.2501 14.6097 20.171 14.4691 20.0304C14.3285 19.8897 14.2494 19.699 14.2495 19.5001V19.5001Z" stroke="#333333" stroke-linecap="round" stroke-linejoin="round"/>
</svg>
