<svg width="120" height="70" viewBox="0 0 120 70" fill="none" xmlns="http://www.w3.org/2000/svg">
<path d="M44.8794 60.5V9.5H75.4743V60.5H44.8794Z" fill="white" stroke="#333333" stroke-linejoin="round"/>
<path d="M60.1772 48.1646V60.6709" stroke="#333333"/>
<path d="M75.5 60.5V22.0063H94.5633V60.5H75.5Z" fill="white" stroke="#333333" stroke-linejoin="round"/>
<path d="M25.7908 60.5V22.0063L44.8789 22.0064V60.5001L25.7908 60.5Z" fill="white" stroke="#333333" stroke-linejoin="round"/>
<rect x="50.1455" y="17.3989" width="5.58228" height="5.58228" stroke="#333333" stroke-linejoin="round"/>
<rect x="64.6267" y="17.3989" width="5.58228" height="5.58228" stroke="#333333" stroke-linejoin="round"/>
<rect x="50.1455" y="26.614" width="5.58228" height="5.58228" stroke="#333333" stroke-linejoin="round"/>
<rect x="64.6267" y="26.614" width="5.58228" height="5.58228" stroke="#333333" stroke-linejoin="round"/>
<rect x="50.1455" y="35.8291" width="5.58228" height="5.58228" stroke="#333333" stroke-linejoin="round"/>
<rect x="32.3735" y="30.5632" width="5.58228" height="5.58228" stroke="#333333" stroke-linejoin="round"/>
<rect x="32.3735" y="39.7783" width="5.58228" height="5.58228" stroke="#333333" stroke-linejoin="round"/>
<rect x="32.3735" y="48.9937" width="5.58228" height="5.58228" stroke="#333333" stroke-linejoin="round"/>
<rect x="82.3987" y="30.5632" width="5.58228" height="5.58228" stroke="#333333" stroke-linejoin="round"/>
<rect x="82.3987" y="39.7783" width="5.58228" height="5.58228" stroke="#333333" stroke-linejoin="round"/>
<rect x="82.3987" y="48.9937" width="5.58228" height="5.58228" stroke="#333333" stroke-linejoin="round"/>
<rect x="64.6267" y="35.8291" width="5.58228" height="5.58228" stroke="#333333" stroke-linejoin="round"/>
<rect x="53.4368" y="48.3354" width="13.481" height="12.1646" stroke="#333333" stroke-linejoin="round"/>
<path d="M22 60.6709H98.3544" stroke="#333333" stroke-linecap="round" stroke-linejoin="round"/>
</svg>
