<svg width="40" height="40" viewBox="0 0 40 40" fill="none" xmlns="http://www.w3.org/2000/svg">
<path d="M20 36C19.841 36 19.6826 35.9972 19.5244 35.9926L22.7944 27.0061H27.2944C28.0842 27.0061 28.9513 26.3989 29.2214 25.657L32.7688 15.9129C33.3493 14.3176 32.4355 13.0124 30.7379 13.0124H24.495L19.257 27.4061H19.255L16.2854 35.5656C9.2403 33.8908 4 27.5576 4 20C4 12.6604 8.94222 6.47556 15.6802 4.59067L12.6161 13.0124H12.6153L7.52148 27.0061L10.9124 27.0064L15.2442 15.1153H17.7927L13.4609 27.0064L16.8505 27.007L20.8874 15.9129C21.4681 14.3176 20.5543 13.0124 18.8583 13.0124H16.0079L19.2807 4.01681C19.5193 4.00622 19.7588 4 19.9999 4C28.8364 4 35.9998 11.1634 35.9998 20C35.9998 28.8365 28.8364 36 19.9999 36H20ZM29.6809 15.1067H27.1331L23.5652 24.8961H26.113L29.6809 15.1067Z" fill="#333333"/>
</svg>
