<svg width="16" height="16" viewBox="0 0 16 16" fill="none" xmlns="http://www.w3.org/2000/svg">
<path d="M8.00073 14C11.3144 14 14.0007 11.3137 14.0007 8C14.0007 4.68629 11.3144 2 8.00073 2C4.68702 2 2.00073 4.68629 2.00073 8C2.00073 11.3137 4.68702 14 8.00073 14Z" fill="#333333" stroke="#333333" stroke-linecap="round" stroke-linejoin="round"/>
<path d="M8 14C11.3137 14 14 11.3137 14 8C14 4.68629 11.3137 2 8 2C4.68629 2 2 4.68629 2 8C2 11.3137 4.68629 14 8 14Z" stroke="#333333" stroke-linecap="round" stroke-linejoin="round"/>
<path d="M7.5 7.5H8.00006L8 11H8.5" stroke="white" stroke-linecap="round" stroke-linejoin="round"/>
<path d="M8.125 5.25C8.125 5.38807 8.01307 5.5 7.875 5.5C7.73693 5.5 7.625 5.38807 7.625 5.25C7.625 5.11193 7.73693 5 7.875 5C8.01307 5 8.125 5.11193 8.125 5.25Z" fill="white" stroke="white" stroke-width="0.75"/>
</svg>
