<svg width="24" height="24" viewBox="0 0 24 24" fill="none" xmlns="http://www.w3.org/2000/svg">
<path d="M12.0007 21C16.9713 21 21.0007 16.9706 21.0007 12C21.0007 7.02944 16.9713 3 12.0007 3C7.03017 3 3.00073 7.02944 3.00073 12C3.00073 16.9706 7.03017 21 12.0007 21Z" stroke="#333333" stroke-linecap="round" stroke-linejoin="round"/>
<path d="M11.25 11.25H12.0001L12 16.5H12.75" stroke="#333333" stroke-linecap="round" stroke-linejoin="round"/>
<path d="M11.8125 8.8125C12.3303 8.8125 12.75 8.39277 12.75 7.875C12.75 7.35723 12.3303 6.9375 11.8125 6.9375C11.2947 6.9375 10.875 7.35723 10.875 7.875C10.875 8.39277 11.2947 8.8125 11.8125 8.8125Z" fill="#333333"/>
</svg>
