<svg width="24" height="24" viewBox="0 0 24 24" fill="none" xmlns="http://www.w3.org/2000/svg">
<path d="M8.48321 13.4844V19.784H6" stroke="#333333" stroke-linecap="round" stroke-linejoin="round"/>
<path d="M11.8496 13.4844V18.8996" stroke="#333333" stroke-linecap="round" stroke-linejoin="round"/>
<path d="M7.26825 16.701C7.54439 16.701 7.76825 16.4771 7.76825 16.201C7.76825 15.9248 7.54439 15.701 7.26825 15.701V16.701ZM7.41142 7.03793L7.32318 7.53008L7.69135 7.5961L7.85863 7.26154L7.41142 7.03793ZM12.852 3.60566L12.8737 3.10613L12.852 3.60566ZM18.2925 9.47186L17.7929 9.45335C17.7878 9.58908 17.8382 9.72101 17.9325 9.81881C18.0267 9.91661 18.1567 9.97186 18.2925 9.97186V9.47186ZM21.5855 12.908L22.0832 12.9554L21.5855 12.908ZM16.4313 15.701C16.1551 15.701 15.9313 15.9248 15.9313 16.201C15.9313 16.4771 16.1551 16.701 16.4313 16.701V15.701ZM7.26825 15.701C4.93769 15.701 2.90039 13.8917 2.90039 11.4763H1.90039C1.90039 14.5014 4.4446 16.701 7.26825 16.701V15.701ZM2.90039 11.4763C2.90039 10.1044 3.64354 9.06155 4.60516 8.37746C5.58961 7.67712 6.70786 7.41975 7.32318 7.53008L7.49966 6.54578C6.54009 6.37373 5.15281 6.76063 4.02548 7.56261C2.87531 8.38084 1.90039 9.69838 1.90039 11.4763H2.90039ZM7.85863 7.26154C8.40858 6.16164 9.84765 3.9756 12.8303 4.10519L12.8737 3.10613C9.27035 2.94958 7.55963 5.62347 6.96421 6.81432L7.85863 7.26154ZM12.8303 4.10519C15.0787 4.20288 17.9228 5.94385 17.7929 9.45335L18.7922 9.49036C18.9485 5.26877 15.4931 3.21994 12.8737 3.10613L12.8303 4.10519ZM18.2925 9.97186C18.6743 9.97186 19.4504 10.1812 20.0981 10.676C20.7226 11.1531 21.1833 11.8569 21.0877 12.8606L22.0832 12.9554C22.219 11.5291 21.5344 10.5149 20.7051 9.88136C19.8991 9.26559 18.913 8.97186 18.2925 8.97186V9.97186ZM21.0877 12.8606C21.0229 13.541 20.8322 14.0357 20.5731 14.4025C20.3142 14.7689 19.9679 15.0348 19.55 15.2283C18.6928 15.6251 17.5757 15.701 16.4313 15.701V16.701C17.5776 16.701 18.8944 16.6337 19.9701 16.1357C20.5185 15.8818 21.0134 15.5124 21.3898 14.9795C21.7661 14.4469 22.0048 13.7784 22.0832 12.9554L21.0877 12.8606Z" fill="#333333"/>
<path d="M15.1426 13.4844V19.784H17.4002" stroke="#333333" stroke-linecap="round" stroke-linejoin="round"/>
<circle cx="4.9772" cy="19.7848" r="0.859033" stroke="#333333"/>
<circle cx="11.8502" cy="19.7848" r="0.859033" stroke="#333333"/>
<circle cx="18.4362" cy="19.7848" r="0.859033" stroke="#333333"/>
</svg>
