<svg width="24" height="24" viewBox="0 0 24 24" fill="none" xmlns="http://www.w3.org/2000/svg">
<path d="M3.50098 6.5C3.50098 5.67157 4.17255 5 5.00098 5H19.001C19.8294 5 20.501 5.67157 20.501 6.5V15.625C20.501 16.4534 19.8294 17.125 19.001 17.125H5.00098C4.17255 17.125 3.50098 16.4534 3.50098 15.625V6.5Z" stroke="#333333"/>
<path d="M1.20117 17.9994C1.20117 17.668 1.4698 17.3994 1.80117 17.3994H22.2012C22.5325 17.3994 22.8012 17.668 22.8012 17.9994V17.9994C22.8012 18.9935 21.9953 19.7994 21.0012 19.7994H3.00118C2.00706 19.7994 1.20117 18.9935 1.20117 17.9994V17.9994Z" stroke="#333333"/>
<path d="M9.60156 17.625V17.625C9.60156 18.1631 10.0378 18.5993 10.5758 18.5993H13.4273C13.9654 18.5993 14.4016 18.1631 14.4016 17.625V17.625" stroke="#333333"/>
</svg>
