<?xml version="1.0" encoding="utf-8"?>
<svg version="1.1" xmlns:xlink="http://www.w3.org/1999/xlink" width="16px" height="16px" xmlns="http://www.w3.org/2000/svg">
  <defs>
    <pattern id="BGPattern" patternUnits="userSpaceOnUse" alignment="0 0" imageRepeat="None" />
    <mask fill="white" id="Clip5">
      <path d="M 15.622895622895623 11.959595959595958  C 15.874298540965208 12.210998877665542  16 12.516273849607181  16 12.875420875420875  C 16 13.23456790123457  15.874298540965208 13.539842873176205  15.622895622895623 13.79124579124579  L 13.79124579124579 15.622895622895623  C 13.539842873176209 15.874298540965208  13.234567901234568 16  12.875420875420875 16  C 12.516273849607185 16  12.210998877665546 15.874298540965208  11.95959595959596 15.622895622895623  L 8 11.663299663299664  L 4.040404040404041 15.622895622895623  C 3.789001122334456 15.874298540965208  3.483726150392817 16  3.1245791245791246 16  C 2.7654320987654324 16  2.460157126823794 15.874298540965208  2.208754208754209 15.622895622895623  L 0.3771043771043771 13.79124579124579  C 0.1257014590347925 13.539842873176205  0 13.23456790123457  0 12.875420875420875  C 0 12.516273849607181  0.1257014590347925 12.210998877665542  0.3771043771043771 11.959595959595958  L 4.3367003367003365 8  L 0.3771043771043771 4.04040404040404  C 0.1257014590347925 3.7890011223344544  0 3.483726150392817  0 3.1245791245791246  C 0 2.765432098765432  0.1257014590347925 2.460157126823791  0.3771043771043771 2.2087542087542094  L 2.208754208754209 0.37710437710437716  C 2.460157126823794 0.1257014590347918  2.7654320987654324 0  3.1245791245791246 0  C 3.483726150392817 0  3.789001122334456 0.1257014590347918  4.040404040404041 0.37710437710437716  L 8 4.336700336700337  L 11.95959595959596 0.37710437710437716  C 12.210998877665546 0.1257014590347918  12.516273849607185 0  12.875420875420875 0  C 13.234567901234568 0  13.539842873176209 0.1257014590347918  13.79124579124579 0.37710437710437716  L 15.622895622895623 2.2087542087542094  C 15.874298540965208 2.460157126823791  16 2.765432098765432  16 3.1245791245791246  C 16 3.483726150392817  15.874298540965208 3.7890011223344544  15.622895622895623 4.04040404040404  L 11.663299663299663 8  L 15.622895622895623 11.959595959595958  Z " fill-rule="evenodd" />
    </mask>
  </defs>
  <g transform="matrix(1 0 0 1 -994 -384 )">
    <path d="M 15.622895622895623 11.959595959595958  C 15.874298540965208 12.210998877665542  16 12.516273849607181  16 12.875420875420875  C 16 13.23456790123457  15.874298540965208 13.539842873176205  15.622895622895623 13.79124579124579  L 13.79124579124579 15.622895622895623  C 13.539842873176209 15.874298540965208  13.234567901234568 16  12.875420875420875 16  C 12.516273849607185 16  12.210998877665546 15.874298540965208  11.95959595959596 15.622895622895623  L 8 11.663299663299664  L 4.040404040404041 15.622895622895623  C 3.789001122334456 15.874298540965208  3.483726150392817 16  3.1245791245791246 16  C 2.7654320987654324 16  2.460157126823794 15.874298540965208  2.208754208754209 15.622895622895623  L 0.3771043771043771 13.79124579124579  C 0.1257014590347925 13.539842873176205  0 13.23456790123457  0 12.875420875420875  C 0 12.516273849607181  0.1257014590347925 12.210998877665542  0.3771043771043771 11.959595959595958  L 4.3367003367003365 8  L 0.3771043771043771 4.04040404040404  C 0.1257014590347925 3.7890011223344544  0 3.483726150392817  0 3.1245791245791246  C 0 2.765432098765432  0.1257014590347925 2.460157126823791  0.3771043771043771 2.2087542087542094  L 2.208754208754209 0.37710437710437716  C 2.460157126823794 0.1257014590347918  2.7654320987654324 0  3.1245791245791246 0  C 3.483726150392817 0  3.789001122334456 0.1257014590347918  4.040404040404041 0.37710437710437716  L 8 4.336700336700337  L 11.95959595959596 0.37710437710437716  C 12.210998877665546 0.1257014590347918  12.516273849607185 0  12.875420875420875 0  C 13.234567901234568 0  13.539842873176209 0.1257014590347918  13.79124579124579 0.37710437710437716  L 15.622895622895623 2.2087542087542094  C 15.874298540965208 2.460157126823791  16 2.765432098765432  16 3.1245791245791246  C 16 3.483726150392817  15.874298540965208 3.7890011223344544  15.622895622895623 4.04040404040404  L 11.663299663299663 8  L 15.622895622895623 11.959595959595958  Z " fill-rule="nonzero" fill="rgba(170, 170, 170, 1)" stroke="none" transform="matrix(1 0 0 1 994 384 )" class="fill" />
    <path d="M 15.622895622895623 11.959595959595958  C 15.874298540965208 12.210998877665542  16 12.516273849607181  16 12.875420875420875  C 16 13.23456790123457  15.874298540965208 13.539842873176205  15.622895622895623 13.79124579124579  L 13.79124579124579 15.622895622895623  C 13.539842873176209 15.874298540965208  13.234567901234568 16  12.875420875420875 16  C 12.516273849607185 16  12.210998877665546 15.874298540965208  11.95959595959596 15.622895622895623  L 8 11.663299663299664  L 4.040404040404041 15.622895622895623  C 3.789001122334456 15.874298540965208  3.483726150392817 16  3.1245791245791246 16  C 2.7654320987654324 16  2.460157126823794 15.874298540965208  2.208754208754209 15.622895622895623  L 0.3771043771043771 13.79124579124579  C 0.1257014590347925 13.539842873176205  0 13.23456790123457  0 12.875420875420875  C 0 12.516273849607181  0.1257014590347925 12.210998877665542  0.3771043771043771 11.959595959595958  L 4.3367003367003365 8  L 0.3771043771043771 4.04040404040404  C 0.1257014590347925 3.7890011223344544  0 3.483726150392817  0 3.1245791245791246  C 0 2.765432098765432  0.1257014590347925 2.460157126823791  0.3771043771043771 2.2087542087542094  L 2.208754208754209 0.37710437710437716  C 2.460157126823794 0.1257014590347918  2.7654320987654324 0  3.1245791245791246 0  C 3.483726150392817 0  3.789001122334456 0.1257014590347918  4.040404040404041 0.37710437710437716  L 8 4.336700336700337  L 11.95959595959596 0.37710437710437716  C 12.210998877665546 0.1257014590347918  12.516273849607185 0  12.875420875420875 0  C 13.234567901234568 0  13.539842873176209 0.1257014590347918  13.79124579124579 0.37710437710437716  L 15.622895622895623 2.2087542087542094  C 15.874298540965208 2.460157126823791  16 2.765432098765432  16 3.1245791245791246  C 16 3.483726150392817  15.874298540965208 3.7890011223344544  15.622895622895623 4.04040404040404  L 11.663299663299663 8  L 15.622895622895623 11.959595959595958  Z " stroke-width="0" stroke-dasharray="0" stroke="rgba(255, 255, 255, 0)" fill="none" transform="matrix(1 0 0 1 994 384 )" class="stroke" mask="url(#Clip5)" />
  </g>
</svg>