<svg width="16" height="16" viewBox="0 0 16 16" fill="none" xmlns="http://www.w3.org/2000/svg">
<g clip-path="url(#clip0_36495_5721)">
<path d="M6.01563 2.70218C2.34418 4.61565 2.49716 7.90347 3.03258 9.3082C5.60257 6.02803 9.30464 4.67637 10.8344 4.41056C5.96975 6.50626 2.91786 10.9027 2 12.8389C2.34419 12.9528 2.91786 13.0667 3.03258 12.9528C3.16237 12.824 3.95045 11.5101 4.40939 10.9027C5.78618 11.905 7.50717 11.9278 8.19557 11.8139C11.0409 11.6316 12.0965 9.76371 12.0965 8.16916C11.9817 4.98004 14.4294 3.95502 15.5385 3.38557C11.5917 1.38098 7.50717 1.92479 6.01563 2.70218Z" stroke="#333333" stroke-width="0.8" stroke-linejoin="round"/>
</g>
<defs>
<clipPath id="clip0_36495_5721">
<rect width="16" height="16" fill="white"/>
</clipPath>
</defs>
</svg>
