<svg width="40" height="40" viewBox="0 0 40 40" fill="none" xmlns="http://www.w3.org/2000/svg">
<path fill-rule="evenodd" clip-rule="evenodd" d="M20 35C11.7156 35 5 28.2844 5 20C5 11.7156 11.7156 5 20 5C28.2844 5 35 11.7156 35 20C35 28.2844 28.2844 35 20 35ZM25.9874 14.4135C25.3894 15.3824 25.1759 16.8653 25.3622 18.1547L25.379 18.2687C25.5401 19.3645 25.8398 21.4044 24.2215 22.9546C23.8213 23.338 23.3801 23.6263 22.9089 23.8078C22.6072 23.9238 22.4337 23.9612 22.2252 23.9966C22.017 24.0323 21.8058 24.0504 21.5983 24.0504C21.3811 24.0504 21.1551 24.0323 20.9271 23.9949C20.8262 23.9784 20.5867 23.9331 20.32 23.8559C19.8122 23.709 19.2893 23.4735 18.7636 23.1612C16.2481 21.6656 14.1392 21.1604 12.9927 21.1072C12.8179 21.0993 12.6447 21.0952 12.4742 21.0983C12.4523 21.0986 12.4375 21.0914 12.422 21.0753C12.1173 20.7544 11.7414 20.3004 11.4219 19.7688C11.4084 19.7464 11.4262 19.7241 11.4505 19.7334C13.2638 20.44 14.9345 20.8282 16.4391 20.8282C16.9422 20.8282 17.4538 20.7904 18.0029 20.7132C20.1247 20.4146 21.5176 19.2203 22.1428 17.1636C22.6267 15.5725 23.0569 15.2859 23.4914 15.114C23.907 14.9489 24.201 14.778 24.4724 14.393C24.6237 14.1785 24.732 13.9725 24.806 13.813C24.8113 13.8016 24.8282 13.8023 24.8315 13.8136C24.8705 13.942 24.9153 14.0909 24.9761 14.2849C25.0817 14.6222 25.2142 14.7646 25.5902 14.5851C25.682 14.5409 25.8482 14.4479 25.9618 14.3882C25.9834 14.3768 25.9982 14.396 25.9874 14.4135ZM21.5819 27.0297C21.3057 26.9961 21.0189 26.9776 20.7253 26.9776C20.5054 26.9776 20.2894 26.9879 20.0782 27.0074L20.8309 24.683C21.0929 24.7252 21.3515 24.7468 21.6051 24.7468C21.8553 24.7468 22.1008 24.7248 22.3416 24.6836L21.5819 27.0297ZM26.808 13.5116C26.6196 13.3394 26.3069 13.5116 26.0705 13.6239C25.8562 13.7254 25.6877 13.813 25.6275 13.8432C25.5768 13.8689 25.53 13.8397 25.5132 13.7961C25.4937 13.745 25.4113 13.4698 25.3538 13.2844C25.2828 13.0552 25.2015 12.6941 24.9563 12.6506C24.6903 12.6032 24.4888 12.9395 24.3402 13.2522C24.2786 13.3819 24.1858 13.674 23.942 14.0196C23.7802 14.2492 23.6239 14.3604 23.2583 14.5052C22.5205 14.7979 22.012 15.3584 21.5173 16.9844C20.9819 18.7471 19.818 19.7979 17.9192 20.0649C16.3645 20.2839 14.5219 20.264 11.6455 19.1157C11.2208 18.9465 11.0795 18.8703 10.7301 18.7169C10.6023 18.6609 10.4452 18.7261 10.3773 18.7951C10.2478 18.9272 10.2425 19.0923 10.3467 19.3078C10.6316 19.8964 11.5265 21.2129 12.0655 21.7459C12.187 21.866 12.3104 21.8859 12.452 21.8629C12.5942 21.8399 12.7307 21.8104 12.9924 21.8039C14.0766 21.8156 16.1075 22.3808 18.4371 23.7656C19.0169 24.1105 19.5879 24.3634 20.1442 24.5261L19.3031 27.1258C18.8097 27.2336 18.3712 27.3976 18.0255 27.6104C17.8452 27.7216 17.787 27.9608 17.896 28.1451C18.005 28.3291 18.2394 28.3884 18.42 28.2772C18.9493 27.9515 19.8112 27.7566 20.7253 27.7566C21.6394 27.7566 22.501 27.9515 23.0306 28.2772C23.0922 28.3153 23.1601 28.3335 23.2274 28.3335C23.3568 28.3335 23.483 28.2663 23.5546 28.1451C23.6636 27.9608 23.6054 27.7216 23.4248 27.6104C23.1103 27.4165 22.7185 27.2631 22.2783 27.1553L23.1507 24.4602C23.6985 24.2474 24.2121 23.9173 24.6812 23.4677C26.6163 21.6145 26.1821 19.1716 26.0237 18.0771C25.8653 16.9803 25.9316 15.9209 26.6149 14.4808C26.7642 14.1661 27.0582 13.7395 26.808 13.5116Z" fill="#333333"/>
</svg>
