<svg xmlns="http://www.w3.org/2000/svg" width="48" height="48" fill="none">
<path fill="#007AB9" d="M24 48c13.255 0 24-10.745 24-24S37.255 0 24 0 0 10.745 0 24s10.745 24 24 24Z"/>
<path fill="#F1F2F2" d="M38.34 25.932v9.894h-5.736v-9.231c0-2.319-.825-3.9-2.905-3.9a3.139 3.139 0 0 0-2.943 2.1c-.147.45-.211.924-.19 1.398v9.633H20.83s.075-15.636 0-17.25h5.738v2.445c-.012.02-.028.038-.038.056h.038v-.056a5.702 5.702 0 0 1 5.17-2.85c3.774 0 6.604 2.466 6.604 7.764l-.002-.003ZM14.83 10.255a2.99 2.99 0 1 0-.076 5.963h.038a2.99 2.99 0 1 0 .038-5.963ZM11.92 35.826h5.736V18.572H11.92v17.254Z"/>
</svg>
