<svg width="18" height="20" viewBox="0 0 18 20" fill="none" xmlns="http://www.w3.org/2000/svg">
<path fill-rule="evenodd" clip-rule="evenodd" d="M6.25462 7.02523H9.63042V8.71416H9.67689C10.1488 7.74246 11.2972 6.7201 13.0114 6.7201C16.5793 6.7201 17.2309 9.27826 17.2309 12.6066V19.3792H13.7105V13.37C13.7105 11.9389 13.6878 10.0979 11.8827 10.0979C10.0476 10.0979 9.77087 11.6585 9.77087 13.2686V19.3792H6.25462V7.02523ZM2.2811 0.884521C3.40981 0.884521 4.32166 1.88099 4.32166 3.11053C4.32166 4.34232 3.40981 5.33541 2.2811 5.33541C1.15136 5.33541 0.241577 4.34232 0.241577 3.11053C0.241577 1.88099 1.15136 0.884521 2.2811 0.884521ZM0.521026 19.3787H4.0445V7.02474H0.521026V19.3787Z" fill="white"/>
</svg>
