<svg width="40" height="40" viewBox="0 0 40 40" fill="none" xmlns="http://www.w3.org/2000/svg">
<path d="M13.7318 16.9697C12.9439 16.9697 12.3687 17.2849 12.0456 17.868V17.0958H10.8086V22.6586H12.0378V19.696C12.0378 18.6953 12.3766 17.9704 13.33 17.9704C14.2833 17.9704 14.3858 18.7032 14.3858 19.4596V22.6507H15.6149V19.168C15.6228 17.8364 15.0713 16.9697 13.7318 16.9697Z" fill="#333333"/>
<path d="M21.3588 17.0955H19.8774L17.821 19.3254V15.1572H16.5918V22.6583H17.821V20.8776L18.4119 20.2472L20.1611 22.6583H21.5951L19.2313 19.3805L21.3588 17.0955Z" fill="#333333"/>
<path d="M24.3537 19.3414L23.5658 19.1838C23.0773 19.0892 22.8173 18.8923 22.8173 18.5219C22.8173 18.1516 23.3136 17.9152 23.8494 17.9152C24.4719 17.9152 24.9368 18.1122 25.0707 18.6165H26.229C26.0005 17.4976 25.0077 16.9697 23.9204 16.9697C22.7227 16.9697 21.659 17.6001 21.659 18.5771C21.659 19.6014 22.3918 20.0032 23.3373 20.2002L24.1725 20.3657C24.724 20.4839 25.1338 20.6809 25.1338 21.13C25.1338 21.587 24.6689 21.8549 24.0149 21.8549C23.2821 21.8549 22.8803 21.5397 22.7621 20.9566H21.5645C21.6984 21.9967 22.6124 22.7846 23.9755 22.7846C25.2362 22.7846 26.3314 22.1464 26.3314 20.9882C26.3314 19.9087 25.4726 19.5541 24.3537 19.3414Z" fill="#333333"/>
<path d="M29.0006 21.0826L27.7399 17.0957H26.3926L28.4097 22.6269L28.3466 22.7609C28.0945 23.4858 27.8739 23.5252 27.3302 23.5252H26.8732V24.4707H27.4248C28.6776 24.4707 29.04 24.0846 29.5679 22.6506L31.522 17.0957H30.2613L29.0006 21.0826Z" fill="#333333"/>
<path d="M34.3996 19.3414L33.6117 19.1838C33.1232 19.0892 32.8632 18.8923 32.8632 18.5219C32.8632 18.1516 33.3595 17.9152 33.8953 17.9152C34.5178 17.9152 34.9827 18.1122 35.1166 18.6165H36.2749C36.0464 17.4976 35.0536 16.9697 33.9663 16.9697C32.7686 16.9697 31.7049 17.6001 31.7049 18.5771C31.7049 19.6014 32.4377 20.0032 33.3832 20.2002L34.2184 20.3657C34.7699 20.4839 35.1797 20.6809 35.1797 21.13C35.1797 21.587 34.7148 21.8549 34.0608 21.8549C33.328 21.8549 32.9262 21.5397 32.808 20.9566H31.6104C31.7443 21.9967 32.6583 22.7846 34.0214 22.7846C35.2821 22.7846 36.3773 22.1464 36.3773 20.9882C36.3852 19.9087 35.5263 19.5541 34.3996 19.3414Z" fill="#333333"/>
<path d="M4.31584 15.1572H3V22.6583H9.79192V21.5473H4.31584V15.1572Z" fill="#333333"/>
<path d="M9.00249 15C8.45882 15 8.01758 15.4412 8.01758 15.9849C8.01758 16.5286 8.45882 16.9698 9.00249 16.9698C9.54615 16.9698 9.98739 16.5286 9.98739 15.9849C9.98739 15.4412 9.54615 15 9.00249 15Z" fill="#333333"/>
<path d="M6.59311 15.1572H5.28516V19.5223V20.6097V20.6333H9.79209V19.5223H6.59311V15.1572Z" fill="#333333"/>
<path d="M36.3516 17.1273H36.4698V17.4425H36.5091V17.1273H36.6273V17.0879H36.3516V17.1273Z" fill="#333333"/>
<path d="M36.9605 17.0957L36.8423 17.3872L36.7241 17.0957H36.6689V17.4503H36.7083V17.1587C36.7083 17.1587 36.7162 17.1824 36.7241 17.206L36.8187 17.4503H36.8502L36.9447 17.206C36.9526 17.1903 36.9605 17.1587 36.9605 17.1587V17.4503H36.9999V17.0957H36.9605Z" fill="#333333"/>
</svg>
