<svg width="32" height="32" viewBox="0 0 32 32" fill="none" xmlns="http://www.w3.org/2000/svg">
<path fill-rule="evenodd" clip-rule="evenodd" d="M13.922 13.6125H16.7499V14.9101H16.7888C17.1841 14.1635 18.1461 13.3781 19.5821 13.3781C22.5708 13.3781 23.1167 15.3435 23.1167 17.9006V23.1038H20.1677V18.4871C20.1677 17.3876 20.1487 15.9732 18.6366 15.9732C17.0994 15.9732 16.8675 17.1722 16.8675 18.4092V23.1038H13.922V13.6125ZM10.5935 8.89482C11.5391 8.89482 12.3029 9.66039 12.3029 10.605C12.3029 11.5514 11.5391 12.3144 10.5935 12.3144C9.64718 12.3144 8.88507 11.5514 8.88507 10.605C8.88507 9.66039 9.64718 8.89482 10.5935 8.89482ZM9.11908 23.1037H12.0706V13.6124H9.11908V23.1037ZM16 4C9.38322 4 4 9.38495 4 15.9983C4 22.6159 9.38322 27.9991 16 27.9991C22.6168 27.9991 28 22.6159 28 15.9983C28 9.38495 22.6168 4 16 4Z" fill="#333333"/>
</svg>
