<svg width="16" height="16" viewBox="0 0 16 16" fill="none" xmlns="http://www.w3.org/2000/svg">
<path fill-rule="evenodd" clip-rule="evenodd" d="M9.52391 2.35362C10.6621 1.21546 12.5074 1.21546 13.6455 2.35362C14.7837 3.49178 14.7837 5.3371 13.6455 6.47525L10.9139 9.20688C9.77576 10.345 7.93044 10.345 6.79229 9.20688C6.59702 9.01162 6.59702 8.69503 6.79229 8.49977C6.98755 8.30451 7.30413 8.30451 7.49939 8.49977C8.24703 9.24741 9.45918 9.24741 10.2068 8.49977L12.9384 5.76815C13.6861 5.02051 13.6861 3.80836 12.9384 3.06073C12.1908 2.31309 10.9786 2.31309 10.231 3.06073L8.29536 4.99638C8.1001 5.19164 7.78352 5.19164 7.58826 4.99638C7.393 4.80111 7.393 4.48453 7.58826 4.28927L9.52391 2.35362Z" fill="#333333"/>
<path fill-rule="evenodd" clip-rule="evenodd" d="M8.49977 7.50053C7.75214 6.7529 6.53998 6.7529 5.79235 7.50053L3.06073 10.2322C2.31309 10.9798 2.31309 12.1919 3.06073 12.9396C3.80836 13.6872 5.02051 13.6872 5.76815 12.9396L7.70404 11.0037C7.8993 10.8084 8.21589 10.8084 8.41115 11.0037C8.60641 11.1989 8.60641 11.5155 8.41115 11.7108L6.47525 13.6467C5.3371 14.7848 3.49178 14.7848 2.35362 13.6467C1.21546 12.5085 1.21546 10.6632 2.35362 9.52505L5.08524 6.79342C6.2234 5.65526 8.06872 5.65527 9.20688 6.79342C9.40214 6.98869 9.40214 7.30527 9.20688 7.50053C9.01162 7.69579 8.69503 7.69579 8.49977 7.50053Z" fill="#333333"/>
</svg>
