<svg width="34" height="10" viewBox="0 0 34 10" fill="none" xmlns="http://www.w3.org/2000/svg">
<path d="M10.7318 1.96973C9.94387 1.96973 9.36869 2.2849 9.04564 2.86796V2.09579H7.80859V7.65855H9.03776V4.69595C9.03776 3.69528 9.37657 2.97039 10.33 2.97039C11.2833 2.97039 11.3858 3.70316 11.3858 4.45957V7.65067H12.6149V4.16804C12.6228 2.83645 12.0713 1.96973 10.7318 1.96973Z" fill="#333333"/>
<path d="M18.3588 2.09552H16.8774L14.821 4.32536V0.157227H13.5918V7.65828H14.821V5.87757L15.4119 5.24723L17.1611 7.65828H18.5951L16.2313 4.38051L18.3588 2.09552Z" fill="#333333"/>
<path d="M21.3537 4.34138L20.5658 4.1838C20.0773 4.08925 19.8173 3.89227 19.8173 3.52194C19.8173 3.15162 20.3136 2.91524 20.8494 2.91524C21.4719 2.91524 21.9368 3.11222 22.0707 3.61649H23.229C23.0005 2.49764 22.0077 1.96973 20.9204 1.96973C19.7227 1.96973 18.659 2.60007 18.659 3.5771C18.659 4.6014 19.3918 5.00324 20.3373 5.20022L21.1725 5.36569C21.724 5.48388 22.1338 5.68086 22.1338 6.12998C22.1338 6.58697 21.6689 6.85487 21.0149 6.85487C20.2821 6.85487 19.8803 6.5397 19.7621 5.95663H18.5645C18.6984 6.9967 19.6124 7.78462 20.9755 7.78462C22.2362 7.78462 23.3314 7.1464 23.3314 5.98815C23.3314 4.90869 22.4726 4.55412 21.3537 4.34138Z" fill="#333333"/>
<path d="M26.0006 6.08261L24.7399 2.0957H23.3926L25.4097 7.62694L25.3466 7.76089C25.0945 8.48578 24.8739 8.52518 24.3302 8.52518H23.8732V9.47069H24.4248C25.6776 9.47069 26.04 9.08461 26.5679 7.65058L28.522 2.0957H27.2613L26.0006 6.08261Z" fill="#333333"/>
<path d="M31.3996 4.34138L30.6117 4.1838C30.1232 4.08925 29.8632 3.89227 29.8632 3.52194C29.8632 3.15162 30.3595 2.91524 30.8953 2.91524C31.5178 2.91524 31.9827 3.11222 32.1166 3.61649H33.2749C33.0464 2.49764 32.0536 1.96973 30.9663 1.96973C29.7686 1.96973 28.7049 2.60007 28.7049 3.5771C28.7049 4.6014 29.4377 5.00324 30.3832 5.20022L31.2184 5.36569C31.7699 5.48388 32.1797 5.68086 32.1797 6.12998C32.1797 6.58697 31.7148 6.85487 31.0608 6.85487C30.328 6.85487 29.9262 6.5397 29.808 5.95663H28.6104C28.7443 6.9967 29.6583 7.78462 31.0214 7.78462C32.2821 7.78462 33.3773 7.1464 33.3773 5.98815C33.3852 4.90869 32.5263 4.55412 31.3996 4.34138Z" fill="#333333"/>
<path d="M1.31584 0.157227H0V7.65828H6.79192V6.54731H1.31584V0.157227Z" fill="#333333"/>
<path d="M6.00249 0C5.45882 0 5.01758 0.441239 5.01758 0.984908C5.01758 1.52858 5.45882 1.96982 6.00249 1.96982C6.54615 1.96982 6.98739 1.52858 6.98739 0.984908C6.98739 0.441239 6.54615 0 6.00249 0Z" fill="#333333"/>
<path d="M3.59311 0.157227H2.28516V4.52234V5.60968V5.63331H6.79209V4.52234H3.59311V0.157227Z" fill="#333333"/>
<path d="M33.3516 2.12729H33.4698V2.44246H33.5091V2.12729H33.6273V2.08789H33.3516V2.12729Z" fill="#333333"/>
<path d="M33.9605 2.0957L33.8423 2.38724L33.7241 2.0957H33.6689V2.45027H33.7083V2.15874C33.7083 2.15874 33.7162 2.18237 33.7241 2.20601L33.8187 2.45027H33.8502L33.9447 2.20601C33.9526 2.19025 33.9605 2.15874 33.9605 2.15874V2.45027H33.9999V2.0957H33.9605Z" fill="#333333"/>
</svg>
