<svg xmlns="http://www.w3.org/2000/svg" width="14" height="16">
  <path fill="#03aaff" d="M13.34 3.579a14.163 14.163 0 0 0-1.362-1.558A14.171 14.171 0 0 0 10.42.659 2.492 2.492 0 0 0 9.001 0H1.25A1.251 1.251 0 0 0 .001 1.25v13.5A1.251 1.251 0 0 0 1.251 16h11.5a1.251 1.251 0 0 0 1.25-1.25V5a2.492 2.492 0 0 0-.659-1.421Zm-2.069-.85A13.638 13.638 0 0 1 12.401 4h-2.4V1.595a13.632 13.632 0 0 1 1.27 1.134Zm1.73 12.021a.253.253 0 0 1-.25.25H1.25a.253.253 0 0 1-.25-.25V1.25A.253.253 0 0 1 1.25 1h7.751v3.5a.5.5 0 0 0 .5.5h3.5ZM3.001 8h5v5h-5V8Zm5 2 3-2v5l-3-2Z"/>
</svg>
