<svg width="40" height="40" viewBox="0 0 40 40" fill="none" xmlns="http://www.w3.org/2000/svg">
<path d="M19.2764 12.3304C19.2764 12.4297 19.1772 12.4297 19.1772 12.4297H19.078C18.9788 12.4297 18.9788 12.3304 18.8796 12.2311C18.8796 12.2311 18.7805 12.1317 18.7805 12.0324C18.7805 11.9331 18.7805 11.9331 18.8796 11.9331L19.078 12.0324C19.1772 12.1317 19.2764 12.2311 19.2764 12.3304ZM17.4909 11.3371C17.4909 10.8405 17.2925 10.5425 16.9949 10.5425C16.9949 10.5425 16.9949 10.6418 16.8957 10.6418V10.8405H17.1933C17.1933 11.0391 17.2925 11.1385 17.2925 11.3371H17.4909ZM20.9628 10.8405C21.1611 10.8405 21.2603 11.0391 21.3595 11.3371H21.5579C21.4587 11.2378 21.4587 11.1385 21.4587 11.0391C21.4587 10.9398 21.4587 10.8405 21.3595 10.7412C21.2603 10.6418 21.1611 10.5425 21.0619 10.5425C21.0619 10.5425 20.9628 10.6418 20.8636 10.6418C20.8636 10.7412 20.9628 10.7412 20.9628 10.8405ZM17.9869 12.4297C17.8877 12.4297 17.8877 12.4297 17.8877 12.3304C17.8877 12.2311 17.8877 12.1317 17.9869 12.0324C18.1853 12.0324 18.2845 11.9331 18.2845 11.9331C18.3837 11.9331 18.3837 12.0324 18.3837 12.0324C18.3837 12.1317 18.2845 12.2311 18.0861 12.4297H17.9869ZM16.8957 12.3304C16.499 12.1317 16.3998 11.8338 16.3998 11.3371C16.3998 11.0391 16.3998 10.8405 16.5982 10.6418C16.6973 10.4432 16.8957 10.3438 17.0941 10.3438C17.2925 10.3438 17.3917 10.4432 17.5901 10.6418C17.6893 10.9398 17.7885 11.2378 17.7885 11.5358V11.7344H17.8877V11.6351C17.9869 11.6351 17.9869 11.4364 17.9869 11.0391C17.9869 10.7412 17.9869 10.4432 17.7885 10.1452C17.5901 9.8472 17.3917 9.64854 16.9949 9.64854C16.6973 9.64854 16.3998 9.8472 16.3006 10.1452C16.1022 10.5425 16.0625 10.8405 16.0625 11.3371C16.0625 11.7344 16.2014 12.1317 16.5982 12.5291C16.6973 12.4297 16.7965 12.4297 16.8957 12.3304ZM29.2952 26.3356C29.3944 26.3356 29.3944 26.2959 29.3944 26.2065C29.3944 25.988 29.2952 25.7297 28.9976 25.4417C28.7 25.1437 28.204 24.955 27.6088 24.8755C27.5096 24.8656 27.4105 24.8656 27.4105 24.8656C27.3113 24.8457 27.3113 24.8457 27.2121 24.8457C27.1129 24.8358 26.9145 24.8159 26.8153 24.796C27.1129 23.8723 27.2121 23.0578 27.2121 22.3426C27.2121 21.3494 27.0137 20.6541 26.6169 20.0581C26.2201 19.4621 25.8233 19.1642 25.3273 19.0648C25.2282 19.1642 25.2282 19.1642 25.2282 19.2635C25.7241 19.4621 26.2201 19.8595 26.5177 20.4554C26.8153 21.1507 26.9145 21.7467 26.9145 22.442C26.9145 22.9982 26.8153 23.8226 26.4185 24.8755C26.0217 25.0344 25.6249 25.4019 25.3273 25.9781C25.3273 26.0674 25.3273 26.1171 25.4265 26.1171C25.4265 26.1171 25.5257 26.0277 25.6249 25.8589C25.8233 25.69 25.9225 25.5211 26.1209 25.3523C26.4185 25.1834 26.6169 25.094 26.9145 25.094C27.4105 25.094 27.9064 25.1636 28.204 25.3026C28.6008 25.4317 28.7992 25.5708 28.8984 25.7297C28.9976 25.8787 29.0968 26.0178 29.196 26.1469C29.196 26.276 29.2952 26.3356 29.2952 26.3356ZM20.1692 11.9331C20.07 11.8338 20.07 11.6351 20.07 11.4364C20.07 11.0391 20.07 10.8405 20.2684 10.5425C20.4668 10.3438 20.6652 10.2445 20.8636 10.2445C21.1611 10.2445 21.3595 10.4432 21.5579 10.6418C21.6571 10.9398 21.7563 11.1385 21.7563 11.4364C21.7563 11.9331 21.5579 12.2311 21.1611 12.3304C21.1611 12.3304 21.2603 12.4297 21.3595 12.4297C21.5579 12.4297 21.6571 12.5291 21.8555 12.6284C21.9547 12.0324 22.0539 11.6351 22.0539 11.1385C22.0539 10.5425 21.9547 10.1452 21.7563 9.8472C21.4587 9.54922 21.1611 9.44989 20.7644 9.44989C20.4668 9.44989 20.1692 9.54922 19.8716 9.74787C19.6732 10.0459 19.574 10.2445 19.574 10.5425C19.574 11.0391 19.6732 11.4364 19.8716 11.8338C19.9708 11.8338 20.07 11.9331 20.1692 11.9331ZM21.3595 13.5223C20.07 14.4163 19.078 14.8136 18.2845 14.8136C17.5901 14.8136 16.8957 14.5156 16.3006 14.019C16.3998 14.2176 16.499 14.4163 16.5982 14.5156L17.1933 15.1116C17.5901 15.5089 18.0861 15.7075 18.5821 15.7075C19.2764 15.7075 20.07 15.3102 21.0619 14.6149L21.9547 14.019C22.1531 13.8203 22.3515 13.6217 22.3515 13.3237C22.3515 13.2243 22.3515 13.125 22.2523 13.125C22.1531 12.9264 21.6571 12.6284 20.6652 12.3304C19.7724 11.9331 19.078 11.7344 18.6813 11.7344C18.3837 11.7344 17.8877 11.9331 17.1933 12.3304C16.5982 12.7277 16.2014 13.125 16.2014 13.5223C16.2014 13.5223 16.3006 13.6217 16.3998 13.8203C16.9949 14.317 17.5901 14.6149 18.1853 14.6149C18.9788 14.6149 19.9708 14.2176 21.2603 13.2243V13.423C21.3595 13.423 21.3595 13.5223 21.3595 13.5223ZM23.641 33.5866C24.0378 34.3335 24.7322 34.709 25.5257 34.709C25.7241 34.709 25.9225 34.6792 26.1209 34.6196C26.3193 34.5798 26.5177 34.5103 26.6169 34.4309C26.7161 34.3613 26.8153 34.2918 26.9145 34.2123C27.1129 34.1428 27.1129 34.0931 27.2121 34.0435L28.8984 32.5834C29.2952 32.2665 29.6919 31.9894 30.1879 31.749C30.5847 31.5106 30.9815 31.3517 31.1799 31.2623C31.4775 31.1828 31.6759 31.0636 31.8742 30.9047C31.9734 30.7557 32.0726 30.567 32.0726 30.3286C32.0726 30.0406 31.8742 29.822 31.6759 29.6631C31.4775 29.5042 31.2791 29.3949 31.0807 29.3254C30.8823 29.2559 30.6839 29.0969 30.3863 28.8288C30.1879 28.5705 29.9895 28.2129 29.8903 27.7461L29.7911 27.17C29.6919 26.9018 29.6919 26.7031 29.5928 26.5939C29.5928 26.5641 29.5928 26.5542 29.4936 26.5542C29.3944 26.5542 29.196 26.6435 29.0968 26.8124C28.8984 26.9813 28.7 27.17 28.5016 27.3686C28.4024 27.5673 28.1048 27.7461 27.9064 27.9149C27.6088 28.0838 27.3113 28.1732 27.1129 28.1732C26.3193 28.1732 25.9225 27.9547 25.6249 27.5276C25.4265 27.2097 25.3273 26.8422 25.2282 26.425C25.0298 26.2562 24.9306 26.1668 24.7322 26.1668C24.2362 26.1668 24.0378 26.6833 24.0378 27.7262V30.8153C24.0378 30.9047 23.9386 31.1034 23.9386 31.4113C23.8394 31.7192 23.8394 32.0688 23.8394 32.4642L23.641 33.5667V33.5836M9.25769 33.0581C10.1802 33.1932 11.2416 33.4823 12.4419 33.9233C13.6421 34.3603 14.3762 34.5888 14.644 34.5888C15.3384 34.5888 15.9137 34.2809 16.3898 33.6859C16.489 33.4932 16.489 33.2667 16.489 33.0065C16.489 32.0678 15.9236 30.8809 14.7928 29.4406L14.1183 28.5367C13.9794 28.348 13.8108 28.06 13.5925 27.6726C13.3842 27.2852 13.1957 26.9872 13.047 26.7786C12.918 26.5502 12.7097 26.3217 12.4419 26.0933C12.184 25.8648 11.8864 25.7158 11.559 25.6364C11.1424 25.7158 10.8547 25.8549 10.7159 26.0436C10.577 26.2323 10.4976 26.4409 10.4778 26.6594C10.448 26.868 10.3885 27.0071 10.2893 27.0766C10.1901 27.1362 10.0215 27.1859 9.79334 27.2355C9.74375 27.2355 9.65447 27.2355 9.52552 27.2455H9.25769C8.73195 27.2455 8.37485 27.3051 8.18638 27.4044C7.93839 27.6924 7.80943 28.0202 7.80943 28.3679C7.80943 28.5268 7.84911 28.795 7.92847 29.1724C8.00783 29.5399 8.0475 29.8379 8.0475 30.0465C8.0475 30.4538 7.92847 30.861 7.68048 31.2683C7.43249 31.6954 7.30354 32.0132 7.30354 32.2397C7.40273 32.6251 8.05742 32.8962 9.25769 33.0552M12.5609 24.0263C12.5609 23.3409 12.7394 22.586 13.1065 21.6921C13.4636 20.7981 13.8207 20.2021 14.1679 19.8048C14.148 19.7055 14.0984 19.7055 14.0191 19.7055L13.9199 19.6062C13.6322 19.9041 13.285 20.5994 12.8684 21.5927C12.4518 22.4867 12.2336 23.3111 12.2336 23.917C12.2336 24.364 12.3427 24.7514 12.5411 25.0891C12.7593 25.4168 13.285 25.8936 14.1183 26.4995L15.1697 27.1849C16.2906 28.1583 16.8858 28.8337 16.8858 29.231C16.8858 29.4396 16.7866 29.6482 16.489 29.8767C16.2906 30.1151 16.0228 30.2342 15.7947 30.2342C15.7748 30.2342 15.7649 30.2541 15.7649 30.3038C15.7649 30.3137 15.8641 30.5124 16.0724 30.8997C16.489 31.4659 17.3818 31.744 18.5721 31.744C20.7544 31.744 22.4408 30.8501 23.7303 29.0622C23.7303 28.5655 23.7303 28.2576 23.6311 28.1285V27.761C23.6311 27.1154 23.7303 26.6286 23.9287 26.3108C24.1271 25.9929 24.3255 25.844 24.6231 25.844C24.8215 25.844 25.0198 25.9135 25.2182 26.0625C25.3174 25.2977 25.3174 24.6322 25.3174 24.0362C25.3174 23.1323 25.3174 22.3873 25.119 21.6921C25.0198 21.0961 24.8215 20.5994 24.6231 20.2021L24.0279 19.3082C23.8295 19.0102 23.7303 18.7122 23.5319 18.4142C23.4327 18.0169 23.3335 17.7189 23.3335 17.2223C23.0359 16.7257 22.8375 16.229 22.54 15.7324C22.3416 15.2357 22.1432 14.7391 21.9448 14.3418L21.052 15.0371C20.0601 15.7324 19.2665 16.0304 18.5721 16.0304C17.977 16.0304 17.481 15.931 17.1834 15.5337L16.5882 15.0371C16.5882 15.3351 16.489 15.7324 16.2906 16.1297L15.6657 17.3216C15.388 18.0169 15.2392 18.4142 15.2094 18.7122C15.1697 18.9109 15.14 19.1095 15.1201 19.1095L14.3762 20.5994C13.5727 22.0894 13.166 23.47 13.166 24.6123C13.166 24.8407 13.1858 25.0791 13.2255 25.3175C12.7791 25.0096 12.5609 24.5825 12.5609 24.0263ZM19.6633 33.4227C18.3737 33.4227 17.3818 33.5975 16.6874 33.9441V33.9143C16.1915 34.5103 15.636 34.8182 14.8622 34.8182C14.3762 34.8182 13.6124 34.6295 12.5807 34.2521C11.5392 33.8945 10.6167 33.6203 9.81318 33.4396C9.73383 33.4167 9.55527 33.3829 9.26761 33.3372C8.98986 33.2926 8.73195 33.2469 8.5038 33.2012C8.29549 33.1565 8.05742 33.0889 7.79952 32.9976C7.55153 32.9191 7.35314 32.8168 7.20434 32.6926C7.06745 32.5675 7 32.4264 7 32.2685C7 32.1096 7.03373 31.9397 7.10118 31.7589C7.16466 31.6497 7.2341 31.5404 7.30354 31.4411C7.37297 31.3318 7.43249 31.2325 7.47217 31.1332C7.53169 31.0438 7.57137 30.9544 7.61104 30.855C7.65072 30.7657 7.6904 30.6763 7.71024 30.567C7.73008 30.4677 7.74992 30.3683 7.74992 30.269C7.74992 30.1697 7.71024 29.8717 7.63088 29.3453C7.55153 28.8288 7.51185 28.501 7.51185 28.3619C7.51185 27.9249 7.61104 27.5772 7.82927 27.3289C8.0475 27.0806 8.25581 26.9515 8.47404 26.9515H9.61479C9.70407 26.9515 9.84294 26.9018 10.0513 26.7826C10.1207 26.6237 10.1802 26.4946 10.2199 26.3754C10.2695 26.2562 10.2893 26.1668 10.3092 26.127C10.329 26.0674 10.3488 26.0078 10.3687 25.9582C10.4084 25.8887 10.458 25.8092 10.5274 25.7297C10.448 25.6304 10.4084 25.5013 10.4084 25.3424C10.4084 25.2331 10.4084 25.1338 10.4282 25.0742C10.4282 24.7166 10.5968 24.21 10.9539 23.5445L11.3011 22.9188C11.5888 22.3824 11.807 21.9851 11.9657 21.5878C12.1344 21.1904 12.3129 20.5945 12.5113 19.7999C12.67 19.1046 13.047 18.4093 13.6421 17.714L14.3861 16.82C14.9019 16.2241 15.2392 15.7274 15.4276 15.3301C15.6161 14.9328 15.7153 14.4361 15.7153 14.0388C15.7153 13.8402 15.6657 13.2442 15.5566 12.2509C15.4574 11.2577 15.4078 10.2644 15.4078 9.37043C15.4078 8.67513 15.4673 8.17849 15.5963 7.68185C15.7252 7.18521 15.9534 6.68857 16.2906 6.29126C16.5882 5.89395 16.985 5.49664 17.5802 5.29798C18.1754 5.09933 18.8697 5 19.6633 5C19.9609 5 20.2585 5 20.556 5.09933C20.8536 5.09933 21.2504 5.19866 21.7464 5.39731C22.1432 5.59597 22.54 5.79462 22.8375 6.09261C23.2343 6.39059 23.5319 6.88723 23.8295 7.38387C24.0279 7.97984 24.2263 8.5758 24.3255 9.37043C24.4247 9.86707 24.4247 10.3637 24.5239 11.059C24.5239 11.655 24.6231 12.0523 24.6231 12.3503C24.7223 12.6482 24.7223 13.0456 24.8215 13.5422C24.9206 13.9395 25.0198 14.3368 25.2182 14.6348C25.4166 15.0321 25.615 15.4294 25.9126 15.8267C26.2102 16.3234 26.607 16.82 27.0038 17.416C27.8965 18.4093 28.5909 19.5019 28.9877 20.5945C29.4836 21.5878 29.7812 22.879 29.7812 24.2597C29.7812 24.945 29.682 25.6105 29.4836 26.2562C29.682 26.2562 29.7812 26.3356 29.8804 26.4747C29.9796 26.6137 30.0788 26.9117 30.178 27.3786L30.2772 28.1136C30.3764 28.3321 30.4756 28.5407 30.7732 28.7195C30.9716 28.8983 31.17 29.0473 31.4675 29.1665C31.6659 29.2658 31.9635 29.4049 32.1619 29.5837C32.3603 29.7823 32.4595 29.9909 32.4595 30.2094C32.4595 30.5471 32.3603 30.7955 32.1619 30.9742C31.9635 31.1729 31.7651 31.312 31.4675 31.4014C31.2692 31.5007 30.8724 31.6993 30.2772 31.9794C29.7812 32.2735 29.2852 32.63 28.7893 33.0522L27.7973 33.8975C27.4005 34.2848 27.0038 34.563 26.7062 34.7318C26.4086 34.9106 26.0118 35 25.615 35L24.9206 34.9205C24.1271 34.7119 23.6311 34.3146 23.3335 33.7087C21.7464 33.516 20.4569 33.4207 19.6633 33.4207" fill="black"/>
</svg>
