<svg width="12" height="12" viewBox="0 0 12 12" fill="none" xmlns="http://www.w3.org/2000/svg">
<path d="M6.7742 0.590088V0.998907C6.7742 1.26404 6.95035 1.49362 7.20209 1.56496C9.07752 2.09633 10.4516 3.84076 10.4516 5.91399C10.4516 8.40948 8.46061 10.4294 6.00001 10.4294C3.53979 10.4294 1.5484 8.40987 1.5484 5.91399C1.5484 3.84106 2.92225 2.09638 4.79788 1.56496C5.04966 1.49362 5.22581 1.26399 5.22581 0.998833V0.590284C5.22581 0.204779 4.86693 -0.0760617 4.49889 0.0201123C1.9017 0.698704 -0.0146495 3.09689 8.43825e-05 5.94667C0.0175037 9.30999 2.69711 12.0071 6.01293 12C9.32069 11.9929 12 9.27082 12 5.91399C12 3.0763 10.0853 0.692299 7.4949 0.0184926C7.12931 -0.0766015 6.7742 0.207258 6.7742 0.590088Z" fill="#565758"/>
</svg>
