<?xml version="1.0" encoding="utf-8"?>
<svg version="1.1" xmlns:xlink="http://www.w3.org/1999/xlink" width="13px" height="16px" xmlns="http://www.w3.org/2000/svg">
  <defs>
    <pattern id="BGPattern" patternUnits="userSpaceOnUse" alignment="0 0" imageRepeat="None" />
    <mask fill="white" id="Clip14">
      <path d="M 3.611111111111111 5.090909090909092  L 3.611111111111111 7.272727272727273  L 9.38888888888889 7.272727272727273  L 9.38888888888889 5.090909090909092  C 9.38888888888889 4.287878787878787  9.106770833333334 3.6022727272727266  8.542534722222223 3.0340909090909083  C 7.978298611111112 2.4659090909090917  7.297453703703705 2.1818181818181817  6.5 2.1818181818181817  C 5.702546296296297 2.1818181818181817  5.021701388888888 2.4659090909090917  4.457465277777778 3.0340909090909083  C 3.893229166666667 3.6022727272727266  3.611111111111111 4.287878787878787  3.611111111111111 5.090909090909092  Z M 12.684027777777777 7.590909090909092  C 12.894675925925927 7.803030303030303  13 8.060606060606059  13 8.363636363636363  L 13 14.90909090909091  C 13 15.212121212121213  12.894675925925927 15.469696969696969  12.684027777777777 15.681818181818182  C 12.473379629629632 15.893939393939394  12.217592592592593 16  11.916666666666666 16  L 1.0833333333333333 16  C 0.7824074074074076 16  0.5266203703703705 15.893939393939394  0.3159722222222222 15.681818181818182  C 0.10532407407407407 15.469696969696969  0 15.212121212121213  0 14.90909090909091  L 0 8.363636363636363  C 0 8.060606060606059  0.10532407407407407 7.803030303030303  0.3159722222222222 7.590909090909092  C 0.5266203703703705 7.378787878787879  0.7824074074074076 7.272727272727273  1.0833333333333333 7.272727272727273  L 1.4444444444444444 7.272727272727273  L 1.4444444444444444 5.090909090909092  C 1.4444444444444444 3.6969696969696955  1.940972222222222 2.5  2.9340277777777777 1.5  C 3.927083333333333 0.5  5.115740740740741 0  6.5 0  C 7.8842592592592595 0  9.072916666666666 0.5  10.065972222222223 1.5  C 11.059027777777777 2.5  11.555555555555555 3.6969696969696955  11.555555555555555 5.090909090909092  L 11.555555555555555 7.272727272727273  L 11.916666666666666 7.272727272727273  C 12.217592592592593 7.272727272727273  12.473379629629632 7.378787878787879  12.684027777777777 7.590909090909092  Z " fill-rule="evenodd" />
    </mask>
  </defs>
  <g transform="matrix(1 0 0 1 -10 -14 )">
    <path d="M 3.611111111111111 5.090909090909092  L 3.611111111111111 7.272727272727273  L 9.38888888888889 7.272727272727273  L 9.38888888888889 5.090909090909092  C 9.38888888888889 4.287878787878787  9.106770833333334 3.6022727272727266  8.542534722222223 3.0340909090909083  C 7.978298611111112 2.4659090909090917  7.297453703703705 2.1818181818181817  6.5 2.1818181818181817  C 5.702546296296297 2.1818181818181817  5.021701388888888 2.4659090909090917  4.457465277777778 3.0340909090909083  C 3.893229166666667 3.6022727272727266  3.611111111111111 4.287878787878787  3.611111111111111 5.090909090909092  Z M 12.684027777777777 7.590909090909092  C 12.894675925925927 7.803030303030303  13 8.060606060606059  13 8.363636363636363  L 13 14.90909090909091  C 13 15.212121212121213  12.894675925925927 15.469696969696969  12.684027777777777 15.681818181818182  C 12.473379629629632 15.893939393939394  12.217592592592593 16  11.916666666666666 16  L 1.0833333333333333 16  C 0.7824074074074076 16  0.5266203703703705 15.893939393939394  0.3159722222222222 15.681818181818182  C 0.10532407407407407 15.469696969696969  0 15.212121212121213  0 14.90909090909091  L 0 8.363636363636363  C 0 8.060606060606059  0.10532407407407407 7.803030303030303  0.3159722222222222 7.590909090909092  C 0.5266203703703705 7.378787878787879  0.7824074074074076 7.272727272727273  1.0833333333333333 7.272727272727273  L 1.4444444444444444 7.272727272727273  L 1.4444444444444444 5.090909090909092  C 1.4444444444444444 3.6969696969696955  1.940972222222222 2.5  2.9340277777777777 1.5  C 3.927083333333333 0.5  5.115740740740741 0  6.5 0  C 7.8842592592592595 0  9.072916666666666 0.5  10.065972222222223 1.5  C 11.059027777777777 2.5  11.555555555555555 3.6969696969696955  11.555555555555555 5.090909090909092  L 11.555555555555555 7.272727272727273  L 11.916666666666666 7.272727272727273  C 12.217592592592593 7.272727272727273  12.473379629629632 7.378787878787879  12.684027777777777 7.590909090909092  Z " fill-rule="nonzero" fill="rgba(127, 127, 127, 1)" stroke="none" transform="matrix(1 0 0 1 10 14 )" class="fill" />
    <path d="M 3.611111111111111 5.090909090909092  L 3.611111111111111 7.272727272727273  L 9.38888888888889 7.272727272727273  L 9.38888888888889 5.090909090909092  C 9.38888888888889 4.287878787878787  9.106770833333334 3.6022727272727266  8.542534722222223 3.0340909090909083  C 7.978298611111112 2.4659090909090917  7.297453703703705 2.1818181818181817  6.5 2.1818181818181817  C 5.702546296296297 2.1818181818181817  5.021701388888888 2.4659090909090917  4.457465277777778 3.0340909090909083  C 3.893229166666667 3.6022727272727266  3.611111111111111 4.287878787878787  3.611111111111111 5.090909090909092  Z " stroke-width="0" stroke-dasharray="0" stroke="rgba(255, 255, 255, 0)" fill="none" transform="matrix(1 0 0 1 10 14 )" class="stroke" mask="url(#Clip14)" />
    <path d="M 12.684027777777777 7.590909090909092  C 12.894675925925927 7.803030303030303  13 8.060606060606059  13 8.363636363636363  L 13 14.90909090909091  C 13 15.212121212121213  12.894675925925927 15.469696969696969  12.684027777777777 15.681818181818182  C 12.473379629629632 15.893939393939394  12.217592592592593 16  11.916666666666666 16  L 1.0833333333333333 16  C 0.7824074074074076 16  0.5266203703703705 15.893939393939394  0.3159722222222222 15.681818181818182  C 0.10532407407407407 15.469696969696969  0 15.212121212121213  0 14.90909090909091  L 0 8.363636363636363  C 0 8.060606060606059  0.10532407407407407 7.803030303030303  0.3159722222222222 7.590909090909092  C 0.5266203703703705 7.378787878787879  0.7824074074074076 7.272727272727273  1.0833333333333333 7.272727272727273  L 1.4444444444444444 7.272727272727273  L 1.4444444444444444 5.090909090909092  C 1.4444444444444444 3.6969696969696955  1.940972222222222 2.5  2.9340277777777777 1.5  C 3.927083333333333 0.5  5.115740740740741 0  6.5 0  C 7.8842592592592595 0  9.072916666666666 0.5  10.065972222222223 1.5  C 11.059027777777777 2.5  11.555555555555555 3.6969696969696955  11.555555555555555 5.090909090909092  L 11.555555555555555 7.272727272727273  L 11.916666666666666 7.272727272727273  C 12.217592592592593 7.272727272727273  12.473379629629632 7.378787878787879  12.684027777777777 7.590909090909092  Z " stroke-width="0" stroke-dasharray="0" stroke="rgba(255, 255, 255, 0)" fill="none" transform="matrix(1 0 0 1 10 14 )" class="stroke" mask="url(#Clip14)" />
  </g>
</svg>