<svg width="151" height="37" viewBox="0 0 151 37" fill="none" xmlns="http://www.w3.org/2000/svg" style="margin-left: 6px;">
<path d="M30.5425 17.0497C30.5425 21.938 28.219 24.3822 23.5721 24.3822C19.0623 24.3822 16.8074 22.0066 16.8074 17.2554V7.8655H20.56V17.2636C20.56 19.8806 21.6052 21.1891 23.712 21.1891C25.8187 21.1891 26.798 19.93 26.798 17.3953V7.8655H30.5425V17.0497Z" fill="white"/>
<path d="M45.405 23.4852C43.9014 24.1034 42.2805 24.3843 40.6566 24.3081C39.5591 24.3701 38.4604 24.208 37.4276 23.8316C36.3948 23.4553 35.4494 22.8726 34.649 22.1191C33.906 21.3469 33.3286 20.431 32.9522 19.4277C32.5757 18.4244 32.4082 17.3547 32.46 16.2843C32.4133 15.12 32.6086 13.9586 33.0335 12.8736C33.4585 11.7886 34.1038 10.8035 34.9288 9.98052C35.7756 9.16806 36.7777 8.53497 37.875 8.11922C38.9724 7.70346 40.1424 7.51361 41.315 7.56104C42.7109 7.52245 44.1031 7.7257 45.4297 8.1618V11.7087C44.2751 11.0505 42.9647 10.7151 41.6359 10.7376C40.942 10.7071 40.2492 10.8183 39.5997 11.0645C38.9503 11.3107 38.3578 11.6867 37.8585 12.1696C37.3664 12.6847 36.9848 13.295 36.7371 13.9629C36.4895 14.6309 36.381 15.3425 36.4184 16.0539C36.3855 16.7376 36.4894 17.4209 36.724 18.0638C36.9586 18.7068 37.3191 19.2965 37.7845 19.7984C38.2629 20.2697 38.834 20.6367 39.4615 20.8761C40.089 21.1155 40.7593 21.2221 41.4302 21.1891C42.8344 21.2047 44.2175 20.8468 45.438 20.1522L45.405 23.4852Z" fill="white"/>
<path d="M77.9364 17.0497C77.9364 21.9106 75.6129 24.341 70.966 24.341C66.4562 24.341 64.2013 21.9654 64.2013 17.2143V7.8655H67.954V17.2636C67.954 19.8806 68.9991 21.1891 71.1059 21.1891C73.2126 21.1891 74.1919 19.93 74.1919 17.3953V7.8655H77.9364V17.0497Z" fill="white"/>
<path d="M80.0513 23.444V19.823C80.6951 20.3702 81.4306 20.7993 82.2238 21.0904C82.9906 21.3605 83.7974 21.4996 84.6104 21.5018C85.0252 21.5075 85.4394 21.466 85.8448 21.3784C86.1549 21.3108 86.4522 21.1941 86.7254 21.0327C86.9393 20.9037 87.1197 20.7261 87.2521 20.5143C87.3657 20.3165 87.4253 20.0923 87.4249 19.8642C87.4214 19.5671 87.3234 19.2788 87.1451 19.0412C86.9327 18.7705 86.6769 18.5369 86.388 18.3499C86.0226 18.1183 85.6402 17.9147 85.2441 17.7409C84.8079 17.5434 84.3306 17.3459 83.8204 17.1402C82.7113 16.7411 81.7148 16.0805 80.9154 15.2145C80.2758 14.4403 79.9368 13.4615 79.9607 12.4576C79.9371 11.6991 80.1191 10.9484 80.4874 10.285C80.8285 9.66031 81.3208 9.13118 81.9194 8.74605C82.5588 8.34986 83.2639 8.07116 84.0014 7.9231C84.8106 7.73374 85.6392 7.63983 86.4703 7.64329C87.2386 7.63515 88.0063 7.68744 88.7663 7.79966C89.3985 7.88967 90.0192 8.04692 90.618 8.26874V11.6428C90.3301 11.4492 90.0242 11.2838 89.7045 11.1491C89.3763 11.004 89.038 10.883 88.6923 10.787C88.3517 10.6947 88.0053 10.626 87.6553 10.5812C87.3309 10.5358 87.0036 10.5138 86.676 10.5154C86.2863 10.5133 85.8974 10.5519 85.5157 10.6306C85.2061 10.6956 84.9088 10.8095 84.6351 10.968C84.4144 11.0933 84.2257 11.2679 84.0837 11.4783C83.9511 11.678 83.8823 11.9133 83.8862 12.1531C83.8825 12.4118 83.9603 12.6651 84.1084 12.8773C84.2766 13.1179 84.4889 13.3245 84.7339 13.4863C85.0403 13.7082 85.3684 13.8984 85.7132 14.0541C86.0972 14.2352 86.5334 14.4244 87.0217 14.6219C87.6379 14.8705 88.2372 15.1592 88.8157 15.486C89.3134 15.7683 89.7702 16.1171 90.1736 16.523C90.5481 16.9002 90.8446 17.3477 91.0459 17.8397C91.2537 18.3888 91.3543 18.9727 91.3422 19.5597C91.3711 20.3501 91.1893 21.134 90.8155 21.831C90.4723 22.4432 89.9797 22.9584 89.3835 23.3288C88.7394 23.7274 88.0284 24.0063 87.285 24.1517C86.4507 24.3198 85.6014 24.4025 84.7503 24.3986C83.8786 24.4017 83.0083 24.3274 82.1498 24.1764C81.4197 24.0309 80.7134 23.7844 80.0513 23.444Z" fill="white"/>
<path d="M51.7748 24.0612H48.0303V7.8655H51.7748V24.0612Z" fill="white"/>
<path d="M53.2396 17.025L59.0332 24.0612H63.7569L56.5149 15.593L62.3085 7.8655H57.8481L53.2643 14.6219L53.2396 17.025Z" fill="white"/>
<path d="M11.4006 17.7985C11.8493 17.5802 12.2671 17.3035 12.6432 16.9756C13.2248 16.498 13.6895 15.8939 14.0019 15.2092C14.3142 14.5246 14.466 13.7777 14.4455 13.0254C14.4455 9.58547 12.3525 7.8655 8.16637 7.8655H0.438843V24.0612H4.18328V10.6635H7.52447C9.51602 10.6635 10.5118 11.4865 10.5118 13.1324C10.5118 14.7783 9.51602 15.6836 7.52447 15.6836H5.40948L12.0589 24.0118H16.7827L11.4006 17.7985Z" fill="white"/>
<path d="M95.4735 8.86945C95.4933 9.21839 95.4078 9.56523 95.2281 9.86502C95.0485 10.1648 94.7829 10.4037 94.4659 10.5508C94.1488 10.6979 93.7949 10.7464 93.45 10.69C93.1051 10.6336 92.7851 10.4749 92.5314 10.2344C92.2777 9.99399 92.1021 9.68291 92.0273 9.34151C91.9526 9.0001 91.982 8.6441 92.112 8.31965C92.2419 7.99519 92.4663 7.71724 92.756 7.5218C93.0458 7.32636 93.3875 7.22246 93.737 7.22355C93.9593 7.21697 94.1806 7.2544 94.3884 7.33367C94.5961 7.41294 94.7861 7.53249 94.9475 7.68545C95.1089 7.8384 95.2384 8.02175 95.3287 8.22495C95.4189 8.42814 95.4681 8.64717 95.4735 8.86945ZM92.4285 8.86945C92.4302 9.12789 92.5083 9.38006 92.653 9.59416C92.7978 9.80825 93.0027 9.97469 93.242 10.0725C93.4812 10.1702 93.744 10.195 93.9973 10.1436C94.2506 10.0922 94.483 9.96688 94.6651 9.78356C94.8473 9.60024 94.9711 9.36708 95.021 9.11349C95.0708 8.85989 95.0444 8.59722 94.9451 8.3586C94.8459 8.11998 94.6781 7.91611 94.4631 7.77269C94.2481 7.62927 93.9955 7.55273 93.737 7.55273C93.5639 7.55049 93.3921 7.58308 93.2317 7.64856C93.0714 7.71405 92.9259 7.81109 92.8039 7.93392C92.6818 8.05675 92.5857 8.20286 92.5212 8.36357C92.4567 8.52429 92.4252 8.69632 92.4285 8.86945ZM93.4655 9.74178H93.0787V8.09588C93.2932 8.05794 93.511 8.0414 93.7288 8.0465C93.9304 8.03101 94.1325 8.07085 94.3131 8.16171C94.3668 8.20514 94.4096 8.26047 94.4382 8.32332C94.4667 8.38617 94.4803 8.45482 94.4777 8.52381C94.4718 8.61769 94.4345 8.70685 94.3718 8.77699C94.3091 8.84714 94.2247 8.89419 94.1321 8.9106C94.2149 8.94339 94.2872 8.99837 94.3409 9.06949C94.3946 9.14062 94.4277 9.22516 94.4365 9.31385C94.4584 9.45973 94.5029 9.60132 94.5682 9.73355H94.1403C94.0776 9.60602 94.0333 9.47026 94.0086 9.33031C94.0086 9.14103 93.8687 9.06696 93.6547 9.06696H93.4655V9.74178ZM93.4655 8.80362H93.6465C93.8687 8.80362 94.0415 8.72955 94.0415 8.55673C94.0415 8.38391 93.9263 8.30984 93.6794 8.30984H93.4655V8.80362Z" fill="white"/>
<path d="M4.78403 36.0105C4.23335 36.2451 3.6375 36.3547 3.03937 36.3314C2.63357 36.3544 2.22741 36.2931 1.84643 36.1515C1.46545 36.0099 1.1179 35.7909 0.825629 35.5085C0.548182 35.2144 0.332427 34.8677 0.191088 34.489C0.0497482 34.1102 -0.0143146 33.7069 0.00267541 33.303C-0.00689703 32.8717 0.0696938 32.4428 0.227962 32.0415C0.386231 31.6401 0.622993 31.2744 0.924382 30.9658C1.23372 30.6611 1.60207 30.4229 2.00682 30.2659C2.41157 30.1088 2.84417 30.0361 3.27803 30.0523C3.78979 30.0381 4.29994 30.1161 4.78403 30.2827V31.6077C4.36109 31.3568 3.87668 31.2286 3.38501 31.2374C3.12819 31.2264 2.87189 31.269 2.63244 31.3625C2.393 31.456 2.17564 31.5984 1.99422 31.7805C1.81449 31.9781 1.67547 32.2092 1.5851 32.4605C1.49472 32.7119 1.45477 32.9786 1.46753 33.2454C1.45397 33.5027 1.49133 33.7602 1.57747 34.0031C1.66361 34.246 1.79685 34.4695 1.96953 34.6608C2.14396 34.8374 2.35344 34.9755 2.58447 35.0662C2.81551 35.1569 3.06298 35.1983 3.31095 35.1875C3.82881 35.1927 4.33822 35.0561 4.78403 34.7925V36.0105Z" fill="#F47920"/>
<path d="M9.28561 36.3314C8.89129 36.351 8.49723 36.288 8.12874 36.1462C7.76025 36.0045 7.42548 35.7873 7.14593 35.5085C6.86761 35.2116 6.65143 34.8622 6.51011 34.4806C6.36878 34.099 6.30516 33.693 6.32297 33.2865C6.28024 32.4272 6.57564 31.5853 7.14593 30.9411C7.43184 30.643 7.77771 30.4089 8.16072 30.2543C8.54373 30.0997 8.95517 30.028 9.3679 30.0441C9.75853 30.0243 10.1489 30.0875 10.5134 30.2293C10.8779 30.3711 11.2083 30.5885 11.4829 30.867C12.0146 31.5125 12.3054 32.3227 12.3054 33.1589C12.3054 33.9952 12.0146 34.8054 11.4829 35.4509C11.1999 35.7449 10.8577 35.9755 10.4789 36.1273C10.1001 36.2791 9.69334 36.3487 9.28561 36.3314ZM9.34321 31.1962C9.12189 31.1891 8.90204 31.2346 8.70175 31.329C8.50145 31.4235 8.32643 31.5641 8.19108 31.7393C7.89446 32.1592 7.74673 32.6661 7.77137 33.1795C7.73324 33.6895 7.86963 34.1974 8.15816 34.6197C8.29144 34.7879 8.46183 34.9229 8.65599 35.0143C8.85016 35.1057 9.06283 35.1509 9.27738 35.1464C9.49289 35.1551 9.7074 35.1127 9.90337 35.0225C10.0993 34.9324 10.2712 34.7972 10.4048 34.6279C10.7075 34.2173 10.8561 33.7133 10.8245 33.2042C10.8569 32.6795 10.7152 32.1588 10.4213 31.7229C10.2948 31.5574 10.1315 31.4237 9.94442 31.3323C9.7573 31.2409 9.55146 31.1943 9.34321 31.1962Z" fill="#F47920"/>
<path d="M21.2431 36.2244H19.8852V32.6117C19.8852 32.2166 19.9017 31.7805 19.9346 31.3032C19.8605 31.6817 19.7947 31.9451 19.7453 32.1261L18.3134 36.2409H17.153L15.6964 32.1261C15.6163 31.856 15.5531 31.5811 15.5071 31.3032C15.5071 31.9039 15.5647 32.4306 15.5647 32.8915V36.2656H14.2809V30.1428H16.2972L17.548 33.7638C17.6435 34.0481 17.715 34.3399 17.762 34.6361C17.8247 34.3375 17.9072 34.0433 18.0089 33.7556L19.2762 30.1428H21.2431V36.2244Z" fill="#F47920"/>
<path d="M30.5507 36.2244H29.1928V32.6117C29.1928 32.2166 29.1928 31.7887 29.2504 31.3032H29.2093C29.1678 31.582 29.1045 31.8572 29.02 32.1261L27.5881 36.2409H26.4606L25.004 32.1261C25.004 32.0109 24.9052 31.7311 24.8147 31.3032H24.7736C24.8147 31.9039 24.8312 32.4306 24.8312 32.8915V36.2656H23.5885V30.1428H25.6047L26.8556 33.7638C26.959 34.0385 27.0361 34.3223 27.0861 34.6114C27.1502 34.314 27.2299 34.02 27.3247 33.7309L28.5921 30.1428H30.5507V36.2244Z" fill="#F47920"/>
<path d="M32.6246 35.994V34.6279C33.0845 35.0203 33.6661 35.2413 34.2705 35.2534C34.4228 35.256 34.5749 35.2394 34.7231 35.204C34.8392 35.1782 34.9504 35.1337 35.0523 35.0723C35.1312 35.0237 35.1963 34.9557 35.2416 34.8748C35.287 34.8037 35.3099 34.7205 35.3074 34.6362C35.3098 34.5214 35.2752 34.4088 35.2086 34.3152C35.1297 34.2134 35.0353 34.1245 34.9288 34.0519C34.8054 33.9778 34.6655 33.8955 34.5091 33.8214L33.9824 33.5992C33.5716 33.4456 33.2044 33.1943 32.9126 32.8668C32.7659 32.6888 32.6583 32.4819 32.5967 32.2596C32.535 32.0374 32.5209 31.8046 32.555 31.5765C32.5891 31.3483 32.6709 31.1299 32.7948 30.9354C32.9188 30.7409 33.0823 30.5746 33.2747 30.4473C33.5076 30.2919 33.767 30.1803 34.04 30.1182C34.3424 30.0487 34.6515 30.0128 34.9618 30.0112C35.237 30.0125 35.5119 30.0317 35.7847 30.0688C36.018 30.1056 36.2469 30.1663 36.4678 30.2498V31.5254C36.3629 31.4496 36.2497 31.3861 36.1303 31.3361C36.0111 31.2813 35.8871 31.2373 35.76 31.2045C35.6339 31.1653 35.5044 31.1377 35.3732 31.1222H35.0111C34.8702 31.122 34.7296 31.1357 34.5914 31.1633C34.4753 31.1892 34.3642 31.2336 34.2622 31.295C34.1808 31.3424 34.1105 31.407 34.0565 31.4843C34.0136 31.5625 33.991 31.6502 33.9907 31.7394C33.9889 31.8363 34.0177 31.9313 34.073 32.0109C34.1312 32.1016 34.2067 32.1798 34.2952 32.2414C34.4096 32.3229 34.5307 32.3944 34.6573 32.4553C34.8054 32.5294 34.9618 32.5952 35.1428 32.6693C35.3687 32.7658 35.5885 32.8757 35.8012 32.9985C35.9844 33.1053 36.1531 33.2353 36.3032 33.3853C36.4418 33.5301 36.5509 33.7006 36.6241 33.8873C36.7009 34.0952 36.7373 34.3159 36.7311 34.5374C36.7341 34.8228 36.6692 35.1049 36.5418 35.3604C36.4155 35.5878 36.2345 35.7802 36.0151 35.92C35.7784 36.0703 35.5162 36.1762 35.2416 36.2327C34.9352 36.2925 34.6238 36.3229 34.3116 36.3232C33.9888 36.3259 33.6664 36.2983 33.3488 36.2409C33.0973 36.192 32.8536 36.1089 32.6246 35.994Z" fill="#F47920"/>
<path d="M43.1336 36.0105C42.583 36.2451 41.9871 36.3547 41.389 36.3314C40.9832 36.3544 40.577 36.2931 40.196 36.1515C39.8151 36.0099 39.4675 35.7909 39.1752 35.5085C38.8978 35.2144 38.682 34.8677 38.5407 34.489C38.3994 34.1102 38.3353 33.7069 38.3523 33.303C38.3427 32.8717 38.4193 32.4428 38.5776 32.0415C38.7358 31.6401 38.9726 31.2744 39.274 30.9658C39.5833 30.6611 39.9517 30.4229 40.3564 30.2659C40.7612 30.1088 41.1938 30.0361 41.6276 30.0523C42.1394 30.0373 42.6497 30.1154 43.1336 30.2827V31.6077C42.711 31.356 42.2264 31.2277 41.7346 31.2374C41.479 31.2265 41.224 31.2693 40.9859 31.3628C40.7478 31.4563 40.5319 31.5986 40.3521 31.7805C40.0176 32.1859 39.8347 32.6951 39.8347 33.2207C39.8347 33.7462 40.0176 34.2554 40.3521 34.6608C40.5265 34.8374 40.736 34.9755 40.967 35.0662C41.198 35.1569 41.4455 35.1983 41.6935 35.1875C42.2113 35.1927 42.7207 35.0561 43.1666 34.7925L43.1336 36.0105Z" fill="#F47920"/>
<path d="M47.6599 36.3314C47.2656 36.351 46.8715 36.288 46.503 36.1462C46.1345 36.0045 45.7997 35.7873 45.5202 35.5085C45.2419 35.2116 45.0257 34.8622 44.8844 34.4806C44.7431 34.099 44.6794 33.693 44.6972 33.2865C44.6545 32.4272 44.9499 31.5853 45.5202 30.9411C45.8061 30.643 46.152 30.4089 46.535 30.2543C46.918 30.0997 47.3294 30.028 47.7422 30.0441C48.1328 30.0243 48.5232 30.0875 48.8877 30.2293C49.2522 30.3711 49.5826 30.5885 49.8572 30.867C50.4202 31.4827 50.7161 32.2966 50.6801 33.1301C50.7216 33.9818 50.426 34.8156 49.8572 35.4509C49.5732 35.7437 49.2309 35.9734 48.8523 36.1251C48.4737 36.2768 48.0674 36.3471 47.6599 36.3314ZM47.6599 31.1962C47.4396 31.1884 47.2207 31.2336 47.0216 31.3282C46.8226 31.4227 46.6491 31.5637 46.516 31.7393C46.2129 32.1564 46.0619 32.6647 46.088 33.1795C46.0577 33.6949 46.2092 34.2045 46.516 34.6197C46.6527 34.7838 46.8238 34.9158 47.0172 35.0065C47.2106 35.0971 47.4216 35.144 47.6352 35.144C47.8488 35.144 48.0598 35.0971 48.2532 35.0065C48.4466 34.9158 48.6177 34.7838 48.7544 34.6197C49.0571 34.2091 49.2057 33.7051 49.1741 33.196C49.2065 32.6713 49.0648 32.1505 48.7709 31.7147C48.6402 31.5462 48.4713 31.4112 48.2781 31.3211C48.0849 31.2309 47.8729 31.1881 47.6599 31.1962Z" fill="#F47920"/>
<path d="M54.0049 34.1177V36.2244H52.5977V30.1428H54.7538C56.2927 30.1428 57.0663 30.7929 57.0663 32.085C57.0757 32.3676 57.0206 32.6486 56.9051 32.9068C56.7896 33.1649 56.6167 33.3932 56.3997 33.5745C55.8996 33.9745 55.2698 34.1767 54.6304 34.1424L54.0049 34.1177ZM54.0049 31.1715V33.0807H54.5481C55.2805 33.0807 55.6508 32.7598 55.6508 32.1179C55.6508 31.476 55.2805 31.1715 54.5481 31.1715H54.0049Z" fill="#F47920"/>
<path d="M62.613 36.2244H58.9509V30.1428H62.4731V31.262H60.3252V32.6117H62.325V33.7309H60.3252V35.0805H62.613V36.2244Z" fill="#F47920"/>
<path d="M149.649 14.7489L149.604 14.614C148.792 12.2372 146.77 10.5039 144.3 10.0485C144.087 5.04066 139.903 1.00001 134.869 1.00001L134.676 1.00779C133.873 1.02223 133.065 1.14695 132.273 1.37759C129.678 2.10988 127.487 3.98545 126.344 6.43274C125.511 5.61141 124.423 5.16393 123.242 5.16393C121.905 5.16393 120.654 5.76225 119.809 6.80594L120.194 7.11719C120.944 6.19059 122.055 5.65893 123.242 5.65893C124.405 5.65893 125.467 6.1481 126.232 7.03658L126.493 7.34052L126.648 6.97024C127.682 4.49246 129.835 2.57974 132.41 1.85361C133.161 1.63417 133.926 1.51626 134.689 1.5028L134.879 1.49501C139.704 1.49501 143.711 5.42878 143.811 10.264L143.816 10.4715L144.021 10.5034C146.401 10.8708 148.361 12.5074 149.135 14.7721L149.18 14.9088C149.395 15.52 149.505 16.1903 149.505 16.9013C149.505 20.4721 146.6 23.3773 143.029 23.3773H129.862V23.8723H143.029C146.873 23.8723 150 20.7453 150 16.9013C150 16.1343 149.881 15.4082 149.649 14.7489Z" fill="white" stroke="white" stroke-width="0.3"/>
<path d="M133.637 6.17504L128.716 9.72053H132.533V21.1519H136.954V6.17504H133.637Z" fill="#EC7100"/>
<path d="M128.716 24.0822H123.983L117.331 15.7417H119.444V15.7268C121.439 15.7268 122.434 14.8754 122.434 13.1728C122.434 11.5095 121.439 10.6731 119.444 10.6731H116.103V24.0822H112.356V7.87141H120.093C124.28 7.87141 126.374 9.59404 126.374 13.0391C126.374 14.6627 125.775 15.9793 124.572 16.9891C124.201 17.3008 123.781 17.5582 123.33 17.7761L128.716 24.0822Z" fill="white"/>
<rect x="102.586" y="6.54659" width="1.22126" height="19.5402" fill="#565758"/>
</svg>
