<svg width="142" height="28" viewBox="0 0 142 28" fill="none" xmlns="http://www.w3.org/2000/svg">
<path d="M10.164 4.908C8.344 4.908 7.14 5.104 6.58 5.468C6.02 5.832 5.516 6.756 5.096 8.296L0.084 26.552C0.028 26.86 0.14 27 0.448 27H4.732C4.9 27 5.012 26.86 5.096 26.552L6.664 20.896H13.692L15.204 26.552C15.288 26.86 15.4 27 15.596 27H19.88C20.188 27 20.3 26.86 20.244 26.552L15.26 8.296C14.84 6.756 14.336 5.832 13.776 5.468C13.216 5.104 12.012 4.908 10.164 4.908ZM10.136 9.22C10.472 9.22 10.528 9.304 10.64 9.668L12.544 16.668H7.812L9.688 9.668C9.8 9.304 9.828 9.22 10.136 9.22ZM30.7598 4.908C27.1198 4.908 24.6558 5.664 23.3958 7.204C22.1358 8.744 21.5198 11.656 21.5198 15.996C21.5198 20.448 21.9678 22.996 23.3958 24.788C24.8518 26.552 27.0358 27.14 30.7598 27.14C33.1398 27.14 35.0438 26.972 36.4158 26.636C36.8918 26.524 37.1438 26.244 37.1438 25.768V23.052C37.1438 22.772 37.0038 22.632 36.7238 22.632H30.7598C29.1078 22.632 28.0438 22.184 27.5118 21.26C27.0078 20.336 26.7558 18.6 26.7558 15.996C26.7558 13.392 27.0078 11.656 27.5118 10.76C28.0438 9.864 29.1078 9.416 30.7598 9.416H36.7238C37.0038 9.416 37.1438 9.276 37.1438 8.996V6.28C37.1438 5.748 36.9478 5.552 36.4158 5.412C34.9318 5.076 33.0278 4.908 30.7598 4.908ZM52.7632 5.076C52.4552 5.076 52.2032 5.216 52.0072 5.524L48.2552 11.656L44.5032 5.524C44.3072 5.216 44.0552 5.076 43.7472 5.076H38.9032C38.4272 5.076 38.3432 5.272 38.5952 5.692L45.2312 15.604L37.9792 26.384C37.6992 26.804 37.8112 27 38.2872 27H43.1312C43.4112 27 43.6632 26.86 43.8872 26.552L48.2552 19.552L52.6232 26.552C52.8192 26.86 53.0712 27 53.3792 27H58.2232C58.6992 27 58.8112 26.804 58.5312 26.384L51.2792 15.604L57.9152 5.692C58.1672 5.272 58.0832 5.076 57.6072 5.076H52.7632Z" fill="white"/>
<path d="M106.309 17.9112C106.309 20.2027 105.215 21.3484 103.027 21.3484C100.904 21.3484 99.8418 20.2298 99.8418 17.9925V13.5903H101.609V18.0119C101.609 19.2481 102.101 19.8642 103.093 19.8642C104.085 19.8642 104.546 19.2675 104.546 18.0778V13.5903H106.309V17.9112Z" fill="white"/>
<path d="M113.308 20.9454C112.599 21.2347 111.837 21.3669 111.072 21.3329C110.028 21.3901 109.006 21.0176 108.243 20.3021C107.536 19.5658 107.163 18.5706 107.212 17.5507C107.168 16.4423 107.59 15.3658 108.375 14.5824C109.182 13.8119 110.267 13.4021 111.382 13.4469C112.039 13.4297 112.694 13.5241 113.32 13.7259V15.3806C112.776 15.0707 112.159 14.9128 111.533 14.9234C110.864 14.9003 110.215 15.1573 109.743 15.6325C109.275 16.1244 109.029 16.7873 109.065 17.4655C109.032 18.1141 109.263 18.7485 109.704 19.2248C110.159 19.6746 110.782 19.9134 111.421 19.8836C112.082 19.8909 112.733 19.7224 113.308 19.3953V20.9454Z" fill="white"/>
<path d="M128.626 17.9112C128.626 20.2027 127.532 21.3484 125.344 21.3484C123.22 21.3484 122.159 20.2298 122.159 17.9925V13.5903H123.926V18.0119C123.926 19.2481 124.418 19.8642 125.41 19.8642C126.402 19.8642 126.863 19.2675 126.863 18.0778V13.5903H128.626V17.9112Z" fill="white"/>
<path d="M129.642 20.9221V19.2209C130.249 19.7202 131.01 19.994 131.797 19.996C131.992 19.9986 132.187 19.9791 132.378 19.9378C132.524 19.906 132.664 19.8511 132.792 19.7751C132.893 19.7143 132.978 19.6307 133.04 19.5309C133.095 19.4382 133.123 19.3323 133.122 19.2248C133.119 19.0851 133.073 18.9497 132.99 18.8373C132.891 18.7101 132.77 18.6012 132.634 18.5157C132.463 18.4036 132.283 18.3076 132.095 18.2289C131.89 18.1359 131.665 18.039 131.424 17.946C130.89 17.7588 130.411 17.4419 130.029 17.0237C129.728 16.6593 129.568 16.1983 129.58 15.7255C129.57 15.3685 129.655 15.0152 129.828 14.7025C129.99 14.4171 130.219 14.1751 130.494 13.9972C130.796 13.807 131.127 13.6694 131.475 13.5903C131.856 13.5043 132.246 13.4614 132.637 13.4624C132.999 13.4594 133.36 13.4827 133.719 13.5322C134.016 13.5746 134.309 13.6486 134.591 13.7531V15.3419C134.454 15.2522 134.31 15.1744 134.16 15.1094C134.006 15.0424 133.846 14.9867 133.684 14.9427C133.523 14.898 133.36 14.8644 133.195 14.842C133.042 14.8225 132.889 14.8121 132.734 14.811C132.551 14.8093 132.367 14.8288 132.188 14.8691C132.042 14.8985 131.902 14.9508 131.773 15.0241C131.668 15.0835 131.579 15.1672 131.514 15.2683C131.452 15.3611 131.419 15.4705 131.421 15.5821C131.419 15.7052 131.455 15.8257 131.525 15.927C131.606 16.0394 131.705 16.1365 131.82 16.2138C131.965 16.3155 132.119 16.4037 132.281 16.4773C132.463 16.5664 132.668 16.6556 132.897 16.7486C133.187 16.8593 133.469 16.9888 133.742 17.1361C133.975 17.269 134.19 17.4318 134.381 17.6205C134.557 17.7987 134.696 18.0093 134.792 18.2405C134.89 18.4992 134.937 18.774 134.932 19.0504C134.945 19.4238 134.859 19.7941 134.684 20.1238C134.522 20.4112 134.29 20.6526 134.009 20.8253C133.706 21.0129 133.371 21.1442 133.021 21.2128C132.628 21.2919 132.228 21.3308 131.828 21.329C131.417 21.3311 131.007 21.2948 130.603 21.2205C130.27 21.1661 129.947 21.0656 129.642 20.9221Z" fill="white"/>
<path d="M116.304 21.2167H114.529V13.5903H116.288L116.304 21.2167Z" fill="white"/>
<path d="M116.997 17.9034L119.725 21.2167H121.95L118.539 17.2252L121.268 13.5903H119.167L117.009 16.768L116.997 17.9034Z" fill="white"/>
<path d="M97.2955 18.2483C97.5067 18.1453 97.7034 18.015 97.8807 17.8608C98.4302 17.4093 98.7429 16.7311 98.7293 16.0201C98.7293 14.4002 97.7438 13.5903 95.7726 13.5903H92.1338V21.2167H93.897V14.9079H95.4703C96.4081 14.9079 96.877 15.2954 96.877 16.0704C96.877 16.8455 96.4081 17.2459 95.4703 17.2718H94.4744L97.6055 21.1973H99.8299L97.2955 18.2483Z" fill="white"/>
<path d="M86.6156 6.92498L86.6117 6.92885L86.6156 6.92498Z" fill="#231F20"/>
<path d="M90.2429 6.8667L89.7624 6.2583L87.1583 7.37435L86.0616 6.62644L84.3023 7.01396L82.3647 7.882L81.8648 8.9903L82.7909 10.0831L83.5001 10.2924L85.3718 8.35477L83.7171 11.0674L82.4422 10.6528L82.1554 10.2071L80.0163 12.8422L73.3588 14.5938H72.7852C66.6159 11.9509 70.1617 8.39352 70.1966 8.3664C70.154 8.38965 65.1356 10.924 70.8089 15.5936L69.7471 16.7949L68.9914 20.2012L67.0848 21.7125L65 26.2658H66.9802L67.3057 25.4908L66.5307 25.3009L67.7824 23.1231C68.4334 22.7743 70.7663 21.8365 71.2235 21.5188L74.3237 17.6436L77.7997 18.7325L78.288 16.574L78.4585 16.9383L78.7259 20.0113L77.2572 26.5759H79.3343V25.9055L78.5592 25.5799L81.082 19.9183C81.082 19.9183 84.9184 17.4769 84.9107 17.4537C84.9029 17.4304 86.7746 11.6409 86.7746 11.6409L89.0997 11.4433L89.7779 10.5094H87.0343L90.2197 8.16101L90.2429 6.8667Z" fill="white"/>
<path d="M81.7175 20.275L84.2402 18.6746L81.5121 25.0337L82.291 25.3321V25.9676L80.4658 25.9715L81.7175 20.275Z" fill="white"/>
<path d="M75.3545 21.7086L72.4713 23.1734L71.4095 25.049L72.2156 25.2738L71.9017 25.9636H70.1152L71.5142 22.286C71.6459 22.2047 73.1069 20.8987 73.1069 20.8987L73.2309 20.0694L74.5833 18.376L76.5519 19.0115L75.3545 21.7086Z" fill="white"/>
<path d="M86.2788 14.2219L80.4932 12.0479L81.0706 11.3271L86.5229 13.2841L86.2788 14.2219Z" fill="#F47920"/>
<path fill-rule="evenodd" clip-rule="evenodd" d="M136.41 14.8741C136.715 14.7324 136.904 14.4186 136.884 14.0824C136.885 13.8692 136.797 13.6653 136.643 13.5187C136.488 13.3721 136.28 13.2956 136.067 13.3073C135.73 13.3063 135.427 13.5108 135.302 13.8235C135.176 14.1361 135.255 14.4934 135.499 14.7251C135.743 14.9568 136.105 15.0158 136.41 14.8741ZM136.076 14.6907C135.737 14.6936 135.459 14.4216 135.455 14.0824C135.45 13.917 135.514 13.757 135.63 13.6393C135.746 13.5216 135.905 13.4563 136.071 13.4585C136.41 13.4585 136.685 13.7328 136.687 14.0721C136.688 14.4113 136.415 14.6879 136.076 14.6907ZM135.943 14.4699H135.761V13.6948C135.862 13.677 135.964 13.6692 136.067 13.6716C136.162 13.6631 136.258 13.6833 136.342 13.7297C136.396 13.7695 136.426 13.8334 136.423 13.9002C136.414 13.9903 136.346 14.0633 136.257 14.0785C136.337 14.1092 136.392 14.1829 136.4 14.2684C136.41 14.3359 136.431 14.4013 136.462 14.4621H136.261C136.23 14.4023 136.21 14.3383 136.199 14.2722C136.199 14.187 136.133 14.1482 136.032 14.1482H135.943V14.4699ZM136.028 14.0281H135.943V13.7956C135.976 13.79 136.01 13.79 136.044 13.7956C136.16 13.7956 136.214 13.8344 136.214 13.9157C136.214 13.9971 136.133 14.0281 136.028 14.0281Z" fill="white"/>
<path d="M92.165 6.80106V10.5019H93.936V5.52612L92.165 6.80106Z" fill="#F47920"/>
<path d="M95.959 4.07278V10.5017H97.7261V2.79785L95.959 4.07278Z" fill="#F47920"/>
<path d="M99.8418 1.27493V10.5017H101.613V0L99.8418 1.27493Z" fill="#F47920"/>
<path d="M94.18 26.8395C93.9216 26.9533 93.6406 27.0063 93.3585 26.9946C92.9722 27.0164 92.5943 26.8759 92.3161 26.607C92.0528 26.3285 91.913 25.9554 91.9286 25.5724C91.9112 25.1564 92.0653 24.7516 92.3548 24.4524C92.6492 24.1625 93.0502 24.0069 93.4631 24.0223C93.7038 24.0163 93.9436 24.0517 94.1723 24.1269V24.7508C93.9721 24.6357 93.7445 24.5768 93.5135 24.5803C93.269 24.5699 93.0313 24.6627 92.8586 24.8361C92.6869 25.0235 92.5976 25.272 92.6106 25.5259C92.5979 25.7694 92.683 26.008 92.847 26.1885C93.012 26.3583 93.2422 26.4487 93.4786 26.4365C93.7219 26.4384 93.9613 26.3755 94.1723 26.2544L94.18 26.8395Z" fill="#F47920"/>
<path fill-rule="evenodd" clip-rule="evenodd" d="M95.3077 26.607C95.5747 26.8712 95.94 27.0117 96.3153 26.9945C96.7036 27.011 97.0804 26.86 97.3499 26.5799C97.6166 26.2785 97.7555 25.8852 97.7375 25.4832C97.7525 25.0921 97.6134 24.7108 97.3499 24.4214C97.0884 24.1561 96.7261 24.0151 96.354 24.0339C95.9605 24.0166 95.5789 24.1706 95.3077 24.4563C95.0401 24.7587 94.9011 25.1535 94.9202 25.5568C94.9031 25.9447 95.0427 26.3232 95.3077 26.607ZM96.3196 24.5761C96.1165 24.5766 95.9245 24.6708 95.7999 24.8322C95.6596 25.0296 95.59 25.2685 95.6022 25.5103C95.5894 25.751 95.6591 25.9889 95.7999 26.1846C95.9259 26.3466 96.1217 26.4388 96.3269 26.4326C96.5318 26.4406 96.7285 26.3516 96.8578 26.1924C96.9997 25.9987 97.0696 25.7616 97.0554 25.522C97.0707 25.2749 97.0039 25.0297 96.8655 24.8244C96.7378 24.6538 96.5319 24.5602 96.3196 24.5761Z" fill="#F47920"/>
<path d="M101.931 26.9442H101.291V25.2197C101.291 25.0376 101.291 24.8322 101.314 24.6075C101.28 24.7818 101.249 24.9097 101.225 24.995L100.551 26.9326H100.02L99.3343 24.995C99.2962 24.8679 99.2665 24.7384 99.2452 24.6075C99.2452 24.8904 99.2723 25.1384 99.2723 25.3515V26.9442H98.6406V24.0649H99.59L100.179 25.77C100.224 25.9053 100.257 26.044 100.28 26.1847C100.309 26.0428 100.348 25.903 100.396 25.7661L100.981 24.0649H101.907L101.931 26.9442Z" fill="#F47920"/>
<path d="M106.313 26.9442H105.674V25.2197C105.674 25.0376 105.674 24.8322 105.701 24.6075C105.681 24.7387 105.651 24.8682 105.612 24.995L104.938 26.9326H104.407L103.721 24.995C103.721 24.9446 103.674 24.809 103.632 24.6075C103.632 24.8904 103.659 25.1384 103.659 25.3515V26.9442H103.074V24.0649H104.023L104.612 25.77C104.658 25.9049 104.692 26.0437 104.713 26.1847C104.743 26.0433 104.781 25.9036 104.825 25.7661L105.414 24.0649H106.337L106.313 26.9442Z" fill="#F47920"/>
<path d="M107.29 26.8318V26.1924C107.508 26.3741 107.781 26.4766 108.065 26.4831C108.137 26.4843 108.208 26.4765 108.278 26.4598C108.332 26.4489 108.385 26.4292 108.433 26.4017C108.469 26.3777 108.5 26.346 108.522 26.3087C108.544 26.274 108.555 26.2334 108.553 26.1924C108.553 26.1385 108.537 26.0858 108.507 26.0413C108.469 25.9945 108.425 25.954 108.375 25.9212C108.312 25.8802 108.246 25.844 108.177 25.8127L107.941 25.708C107.748 25.6371 107.575 25.52 107.437 25.367C107.251 25.1118 107.222 24.7739 107.363 24.4912C107.423 24.3841 107.506 24.2924 107.608 24.2238C107.717 24.1518 107.84 24.1006 107.968 24.0727C108.11 24.0381 108.256 24.0212 108.402 24.0223C108.532 24.0211 108.661 24.0302 108.789 24.0495C108.899 24.0656 109.007 24.0928 109.111 24.1308V24.7315C109.06 24.6987 109.007 24.6689 108.952 24.6424C108.895 24.6182 108.837 24.5975 108.778 24.5804L108.596 24.5416H108.425C108.359 24.5408 108.292 24.5486 108.228 24.5648C108.173 24.5758 108.121 24.5954 108.073 24.623C108.034 24.6458 108.002 24.6777 107.98 24.716C107.957 24.7503 107.944 24.7909 107.945 24.8322C107.943 24.8792 107.957 24.9253 107.983 24.964C108.011 25.0067 108.046 25.0435 108.088 25.0725C108.144 25.1103 108.202 25.1439 108.262 25.1733L108.487 25.274C108.594 25.3166 108.698 25.3672 108.797 25.4251C108.885 25.4754 108.964 25.5381 109.034 25.6111C109.099 25.678 109.15 25.757 109.185 25.8437C109.263 26.0763 109.249 26.3301 109.146 26.5528C109.087 26.661 109.001 26.7529 108.898 26.8202C108.786 26.8897 108.663 26.9383 108.534 26.9636C108.39 26.995 108.243 27.0106 108.096 27.0101C107.944 27.0101 107.792 26.9958 107.642 26.9675C107.519 26.9393 107.4 26.8937 107.29 26.8318Z" fill="#F47920"/>
<path d="M112.239 26.8395C111.98 26.9533 111.699 27.0063 111.417 26.9946C111.031 27.0164 110.653 26.8759 110.375 26.607C110.111 26.3285 109.972 25.9554 109.987 25.5724C109.97 25.1564 110.124 24.7516 110.413 24.4524C110.708 24.1625 111.109 24.0069 111.522 24.0223C111.762 24.016 112.002 24.0514 112.231 24.1269V24.7508C112.031 24.6353 111.803 24.5764 111.572 24.5803C111.329 24.57 111.092 24.6629 110.921 24.8361C110.595 25.228 110.595 25.7966 110.921 26.1885C111.086 26.3583 111.316 26.4487 111.553 26.4365C111.796 26.4384 112.035 26.3755 112.246 26.2544L112.239 26.8395Z" fill="#F47920"/>
<path fill-rule="evenodd" clip-rule="evenodd" d="M113.351 26.607C113.618 26.8712 113.983 27.0117 114.358 26.9945C114.746 27.0095 115.123 26.8587 115.393 26.5799C115.66 26.2785 115.798 25.8852 115.78 25.4832C115.798 25.0918 115.658 24.7097 115.393 24.4214C115.131 24.1561 114.769 24.0151 114.397 24.0339C114.004 24.0166 113.622 24.1706 113.351 24.4563C113.083 24.7587 112.944 25.1535 112.963 25.5568C112.946 25.9447 113.086 26.3232 113.351 26.607ZM113.847 24.8322C113.974 24.6644 114.175 24.5689 114.385 24.5764C114.59 24.5683 114.785 24.661 114.908 24.8244C115.047 25.0297 115.114 25.2749 115.098 25.522C115.112 25.7609 115.043 25.9974 114.905 26.1924C114.774 26.3517 114.576 26.4406 114.37 26.4326C114.166 26.4394 113.971 26.347 113.847 26.1846C113.703 25.9903 113.632 25.7517 113.645 25.5103C113.632 25.2678 113.703 25.0283 113.847 24.8322Z" fill="#F47920"/>
<path fill-rule="evenodd" clip-rule="evenodd" d="M117.358 26.9442V25.9522H117.668C117.969 25.9683 118.265 25.8731 118.501 25.6848C118.707 25.5114 118.823 25.2529 118.815 24.9834C118.815 24.3711 118.45 24.0649 117.726 24.0649H116.71V26.9442H117.358ZM117.358 25.46V24.5648H117.629C117.974 24.5648 118.148 24.7043 118.148 25.0066C118.148 25.3089 117.974 25.46 117.629 25.46H117.358Z" fill="#F47920"/>
<path d="M121.411 26.9442H119.687V24.0649H121.345V24.592H120.341V25.2352H121.283V25.7584H120.341V26.4172H121.419L121.411 26.9442Z" fill="#F47920"/>
</svg>
