<svg width="165" height="40" viewBox="0 0 165 40" fill="none" xmlns="http://www.w3.org/2000/svg">
<path d="M60.6773 26.005C60.6773 29.332 59.0703 30.9956 55.8561 30.9956C52.7369 30.9956 51.1772 29.3714 51.1772 26.1232V19.7316H53.7728V26.1513C53.7728 27.9461 54.4957 28.8407 55.9529 28.8407C57.4101 28.8407 58.0874 27.9742 58.0874 26.2469V19.7316H60.6773V26.005Z" fill="white"/>
<path d="M70.9565 30.4104C69.9158 30.8304 68.7952 31.0224 67.6722 30.973C66.9132 31.0141 66.1537 30.9026 65.4395 30.6454C64.7253 30.3882 64.0713 29.9905 63.517 29.4764C63.0029 28.9474 62.6035 28.3203 62.3431 27.6334C62.0828 26.9465 61.967 26.2144 62.0029 25.4817C61.9706 24.6857 62.1057 23.8917 62.3996 23.1499C62.6935 22.4081 63.1399 21.7346 63.7105 21.172C64.2972 20.6183 64.9906 20.187 65.7495 19.9038C66.5083 19.6206 67.3171 19.4912 68.1276 19.5234C69.0926 19.4985 70.0549 19.6354 70.9736 19.9285V22.331C70.175 21.881 69.2687 21.6517 68.3496 21.6671C67.8631 21.6505 67.3785 21.7334 66.926 21.9106C66.4734 22.0877 66.0628 22.3554 65.7198 22.6967C65.3795 23.0501 65.1157 23.4683 64.9444 23.9259C64.7732 24.3835 64.6981 24.8707 64.7237 25.3579C64.7 25.8241 64.7709 26.2902 64.9322 26.7289C65.0935 27.1676 65.3419 27.57 65.6629 27.9123C65.9935 28.2353 66.3883 28.487 66.8223 28.6517C67.2563 28.8163 67.7201 28.8902 68.1845 28.8688C69.1557 28.8794 70.1124 28.6348 70.9565 28.1599V30.4104Z" fill="white"/>
<path d="M93.4579 26.005C93.4579 29.332 91.8509 30.9956 88.6368 30.9956C85.5175 30.9956 83.9579 29.3714 83.9579 26.1232V19.7316H86.5535V26.1513C86.5535 27.9461 87.2764 28.8407 88.7335 28.8407C90.1907 28.8407 90.868 27.9742 90.868 26.2469V19.7316H93.4579V26.005Z" fill="white"/>
<path d="M94.949 30.3766V27.9066C95.8409 28.6315 96.9591 29.029 98.1137 29.0319C98.4006 29.0358 98.6871 29.0074 98.9675 28.9475C99.182 28.9013 99.3876 28.8215 99.5766 28.7112C99.7245 28.623 99.8493 28.5016 99.9409 28.3567C100.021 28.222 100.062 28.0684 100.06 27.9123C100.056 27.7094 99.9888 27.5128 99.8669 27.3496C99.7213 27.1649 99.544 27.0068 99.3432 26.8826C99.0931 26.72 98.8282 26.5806 98.552 26.4663C98.2503 26.3313 97.9202 26.1906 97.5673 26.0556C96.7826 25.7838 96.0785 25.3237 95.5182 24.7165C95.0753 24.1875 94.8408 23.5181 94.8579 22.8317C94.8429 22.3133 94.9687 21.8004 95.2222 21.3463C95.4602 20.9319 95.7961 20.5806 96.2012 20.3223C96.6439 20.0462 97.1309 19.8465 97.6413 19.7316C98.2017 19.6067 98.7745 19.5445 99.3489 19.5459C99.8801 19.5415 100.411 19.5754 100.937 19.6472C101.374 19.7087 101.804 19.8162 102.218 19.9679V22.2747C102.017 22.1444 101.806 22.0315 101.586 21.9371C101.359 21.8398 101.125 21.759 100.886 21.6952C100.65 21.6303 100.411 21.5814 100.169 21.5489C99.9439 21.5206 99.7177 21.5055 99.4912 21.5039C99.2213 21.5014 98.952 21.5297 98.6886 21.5883C98.4748 21.6309 98.2693 21.7069 98.0796 21.8133C97.9256 21.8996 97.7948 22.0211 97.6982 22.1678C97.6073 22.3026 97.5597 22.4615 97.5616 22.6235C97.559 22.8021 97.6127 22.9771 97.7153 23.1243C97.8333 23.2873 97.9798 23.4283 98.1479 23.5406C98.3614 23.6882 98.5881 23.8163 98.8252 23.9232C99.0928 24.0526 99.3944 24.182 99.7303 24.317C100.156 24.4779 100.57 24.6658 100.971 24.8797C101.314 25.0726 101.63 25.309 101.91 25.583C102.168 25.8417 102.373 26.1474 102.514 26.4832C102.657 26.8587 102.727 27.2578 102.719 27.6591C102.738 28.2012 102.612 28.7388 102.354 29.2176C102.117 29.6348 101.776 29.9853 101.364 30.2359C100.918 30.5084 100.427 30.699 99.9124 30.7986C99.3353 30.9134 98.7479 30.97 98.1593 30.9674C97.5561 30.9704 96.9539 30.9176 96.3606 30.8098C95.872 30.7307 95.3969 30.5849 94.949 30.3766Z" fill="white"/>
<path d="M75.3579 30.8043H72.7509V19.7316H75.3351L75.3579 30.8043Z" fill="white"/>
<path d="M76.3762 25.9937L80.3834 30.8043H83.6506L78.6416 25.0091L82.6488 19.7316H79.5637L76.3932 24.3452L76.3762 25.9937Z" fill="white"/>
<path d="M47.4374 26.4945C47.7476 26.345 48.0366 26.1558 48.2969 25.9319C48.6953 25.6083 49.0144 25.1998 49.2303 24.7369C49.4462 24.2741 49.5533 23.7689 49.5435 23.2594C49.5435 20.9075 48.0958 19.7316 45.2004 19.7316H39.8556V30.8043H42.4455V21.6446H44.7564C46.1339 21.6446 46.8227 22.2072 46.8227 23.3325C46.8227 24.4578 46.1339 25.0391 44.7564 25.0767H43.2936L47.8928 30.7761H51.16L47.4374 26.4945Z" fill="white"/>
<path d="M37.0781 9.96985L36.3723 9.08652L32.5472 10.7069L30.9364 9.62102L28.3522 10.1836L25.5061 11.4439L24.7719 13.0531L26.1323 14.6397L27.1739 14.9435L29.9232 12.1304L27.4927 16.0688L25.62 15.4668L25.1988 14.8197L22.0567 18.6456L12.2778 21.1887H11.4354C2.37359 17.3516 7.58183 12.1866 7.63306 12.1472C7.57044 12.181 0.199222 15.8606 8.5324 22.6403L6.97278 24.3845L5.86283 29.33L3.06233 31.5243L0 38.1353H2.90864L3.38678 37.01L2.24836 36.7343L4.0869 33.5723C5.04317 33.0659 8.46979 31.7044 9.14145 31.243L13.6951 25.6167L18.8009 27.1977L19.5181 24.0638L19.7685 24.5927L20.1613 29.0544L18.004 38.5854H21.0549V37.612L19.9165 37.1394L23.6221 28.9193C23.6221 28.9193 29.2572 25.3747 29.2458 25.341C29.2344 25.3072 31.9837 16.9015 31.9837 16.9015L35.3989 16.6145L36.3951 15.2586H32.3651L37.0439 11.849L37.0781 9.96985Z" fill="white"/>
<path d="M24.5559 29.4372L28.2615 27.1136L24.2543 36.3464L25.3984 36.7796V37.7023L22.7174 37.7079L24.5559 29.4372Z" fill="white"/>
<path d="M15.2092 31.5187L10.9743 33.6455L9.41464 36.3686L10.5986 36.6949L10.1375 37.6964H7.51349L9.56832 32.357C9.76185 32.2389 11.9078 30.3428 11.9078 30.3428L12.0899 29.1388L14.0764 26.6801L16.968 27.6028L15.2092 31.5187Z" fill="white"/>
<path d="M31.2554 20.6487L22.7572 17.4923L23.6053 16.4458L31.614 19.2871L31.2554 20.6487Z" fill="#F47920"/>
<path d="M105.588 20.4464C105.601 20.6849 105.542 20.922 105.418 21.127C105.294 21.332 105.11 21.4953 104.891 21.5959C104.671 21.6964 104.427 21.7296 104.188 21.691C103.949 21.6524 103.728 21.5439 103.553 21.3796C103.377 21.2152 103.256 21.0025 103.204 20.7691C103.152 20.5357 103.173 20.2923 103.262 20.0705C103.352 19.8486 103.508 19.6586 103.708 19.525C103.908 19.3914 104.145 19.3203 104.386 19.3211C104.541 19.3127 104.696 19.3355 104.841 19.3883C104.987 19.4411 105.12 19.5226 105.232 19.628C105.345 19.7333 105.434 19.8602 105.495 20.0009C105.556 20.1417 105.588 20.2932 105.588 20.4464ZM103.487 20.4464C103.489 20.6228 103.544 20.7946 103.645 20.9403C103.746 21.0859 103.888 21.1988 104.054 21.2648C104.219 21.3308 104.401 21.3469 104.576 21.3111C104.75 21.2753 104.911 21.1893 105.036 21.0637C105.161 20.9382 105.247 20.7787 105.281 20.6055C105.315 20.4323 105.296 20.253 105.227 20.0902C105.158 19.9274 105.042 19.7883 104.894 19.6905C104.745 19.5927 104.571 19.5405 104.392 19.5405C104.272 19.539 104.153 19.5614 104.041 19.6065C103.93 19.6516 103.829 19.7185 103.745 19.8031C103.66 19.8877 103.594 19.9882 103.55 20.0988C103.505 20.2093 103.484 20.3275 103.487 20.4464ZM104.204 21.009H103.937V19.8837C104.085 19.8578 104.236 19.8465 104.386 19.85C104.527 19.8376 104.667 19.867 104.791 19.9344C104.83 19.9628 104.861 20.0003 104.882 20.0434C104.902 20.0866 104.912 20.1341 104.91 20.1819C104.904 20.2456 104.876 20.3054 104.832 20.3521C104.788 20.3989 104.729 20.43 104.665 20.4407C104.723 20.4626 104.773 20.5 104.811 20.5488C104.848 20.5975 104.871 20.6556 104.876 20.7164C104.891 20.8144 104.922 20.9094 104.967 20.9977H104.671C104.627 20.9109 104.596 20.818 104.58 20.722C104.58 20.5983 104.483 20.542 104.335 20.542H104.204V21.009ZM104.204 20.3676H104.33C104.483 20.3676 104.603 20.3226 104.603 20.2044C104.603 20.0863 104.523 20.03 104.352 20.03C104.303 20.0219 104.253 20.0219 104.204 20.03V20.3676Z" fill="white"/>
<path d="M39.9012 9.87419V15.2473H42.5025V8.02313L39.9012 9.87419Z" fill="#F47920"/>
<path d="M45.4739 5.91348V15.2476H48.0695V4.06242L45.4739 5.91348Z" fill="#F47920"/>
<path d="M51.1772 1.85106V15.2473H53.7785V0L51.1772 1.85106Z" fill="#F47920"/>
<path d="M42.8618 38.9681C42.4822 39.1332 42.0694 39.2102 41.6551 39.1931C41.3744 39.2088 41.0934 39.1669 40.8299 39.0701C40.5664 38.9733 40.326 38.8236 40.1239 38.6305C39.9324 38.4303 39.7834 38.1942 39.6857 37.9362C39.5879 37.6782 39.5434 37.4035 39.5547 37.1283C39.5421 36.8294 39.591 36.5312 39.6987 36.2516C39.8063 35.9721 39.9704 35.7171 40.1808 35.5022C40.3948 35.294 40.6495 35.1311 40.9295 35.0237C41.2094 34.9163 41.5086 34.8666 41.8087 34.8777C42.1622 34.8691 42.5145 34.9205 42.8504 35.0296V35.9355C42.5563 35.7683 42.2219 35.6828 41.8827 35.6879C41.7051 35.6804 41.5278 35.7096 41.3622 35.7735C41.1966 35.8374 41.0463 35.9347 40.9208 36.0593C40.7959 36.194 40.6994 36.3519 40.6369 36.5238C40.5744 36.6958 40.547 36.8783 40.5565 37.0607C40.5472 37.2358 40.5732 37.411 40.6327 37.5761C40.6923 37.7412 40.7844 37.8931 40.9037 38.0228C41.0235 38.1447 41.1682 38.2399 41.3282 38.302C41.4882 38.3641 41.6598 38.3917 41.8315 38.3829C42.1888 38.3856 42.5405 38.2944 42.8504 38.1185L42.8618 38.9681Z" fill="#F47920"/>
<path d="M45.997 39.193C45.7244 39.2054 45.4521 39.1618 45.1974 39.065C44.9427 38.9681 44.711 38.8202 44.5171 38.6304C44.3244 38.4264 44.1748 38.1865 44.0771 37.9247C43.9793 37.6629 43.9354 37.3845 43.9479 37.1057C43.9198 36.5201 44.124 35.9468 44.5171 35.5078C44.7139 35.3028 44.953 35.142 45.2181 35.0362C45.4833 34.9304 45.7683 34.8821 46.0539 34.8945C46.3241 34.8811 46.5941 34.9242 46.8462 35.0212C47.0984 35.1181 47.3269 35.2667 47.5168 35.4572C47.9037 35.8774 48.1081 36.431 48.086 36.9988C48.1125 37.5824 47.9084 38.1534 47.5168 38.591C47.3211 38.7921 47.0843 38.9497 46.8223 39.0535C46.5603 39.1573 46.279 39.2048 45.997 39.193ZM46.0368 35.6822C45.8838 35.6774 45.7317 35.7085 45.5932 35.773C45.4546 35.8376 45.3336 35.9337 45.24 36.0536C45.034 36.3402 44.9317 36.687 44.9497 37.0382C44.9308 37.3876 45.0332 37.733 45.24 38.0171C45.3312 38.1331 45.4489 38.2262 45.5834 38.2887C45.7179 38.3513 45.8655 38.3816 46.0141 38.3772C46.1625 38.383 46.3103 38.3544 46.4457 38.2939C46.581 38.2333 46.7003 38.1424 46.7939 38.0284C47.0024 37.7473 47.105 37.403 47.0842 37.055C47.1066 36.6963 47.0085 36.3403 46.8053 36.0423C46.7124 35.9196 46.5895 35.8222 46.4481 35.7592C46.3068 35.6962 46.1515 35.6698 45.997 35.6822H46.0368Z" fill="#F47920"/>
<path d="M54.2452 39.12H53.306V36.6163C53.306 36.3519 53.306 36.0537 53.3401 35.7274C53.2889 35.9805 53.2434 36.1662 53.2092 36.29L52.2188 39.1032H51.439L50.4315 36.29C50.3756 36.1054 50.3319 35.9175 50.3006 35.7274C50.3006 36.1381 50.3404 36.4982 50.3404 36.8076V39.12H49.4126V34.9397H50.8072L51.6724 37.4153C51.7377 37.6117 51.7872 37.813 51.8204 38.0173C51.8638 37.8113 51.9208 37.6083 51.9911 37.4096L52.8506 34.9397H54.211L54.2452 39.12Z" fill="#F47920"/>
<path d="M60.6827 39.12H59.7435V36.6163C59.7435 36.3519 59.7435 36.0537 59.7834 35.7274C59.7539 35.9179 59.7102 36.1059 59.6525 36.29L58.6621 39.1032H57.8823L56.8748 36.29C56.8748 36.2168 56.8065 36.0199 56.7438 35.7274C56.7438 36.1381 56.7837 36.4982 56.7837 36.8076V39.12H55.9242V34.9397H57.3187L58.1839 37.4153C58.2518 37.611 58.3014 37.8125 58.3319 38.0173C58.3764 37.8121 58.4315 37.6092 58.497 37.4096L59.3622 34.9397H60.7169L60.6827 39.12Z" fill="#F47920"/>
<path d="M62.1171 38.9569V38.0285C62.4375 38.2923 62.8387 38.4411 63.2556 38.4505C63.3609 38.4523 63.4661 38.441 63.5686 38.4167C63.6486 38.4008 63.7255 38.3723 63.7963 38.3323C63.8496 38.2976 63.8943 38.2514 63.9272 38.1973C63.9594 38.1469 63.9753 38.088 63.9728 38.0285C63.9729 37.9502 63.9491 37.8738 63.9045 37.8091C63.8497 37.7412 63.7843 37.6823 63.7109 37.6347C63.6181 37.5753 63.5211 37.5226 63.4206 37.4771L63.0734 37.3252C62.7896 37.2222 62.5356 37.0523 62.3334 36.8301C62.1991 36.6484 62.118 36.4336 62.0989 36.2093C62.0798 35.985 62.1236 35.7599 62.2253 35.5586C62.3121 35.403 62.435 35.2699 62.5839 35.1703C62.7453 35.0658 62.9247 34.9914 63.1133 34.9509C63.3219 34.9007 63.536 34.8761 63.7508 34.8778C63.9413 34.876 64.1316 34.8892 64.32 34.9172C64.4811 34.9405 64.6394 34.9801 64.7924 35.0353V35.9074C64.7173 35.8598 64.6393 35.8166 64.559 35.778C64.4755 35.743 64.39 35.7129 64.3029 35.688L64.0354 35.6317H63.7849C63.6871 35.6306 63.5895 35.6419 63.4946 35.6655C63.4147 35.6814 63.3378 35.7099 63.2669 35.7498C63.2107 35.7829 63.1638 35.8293 63.1303 35.8849C63.0964 35.9348 63.0786 35.9936 63.0791 36.0537C63.077 36.1218 63.097 36.1888 63.136 36.245C63.1763 36.3069 63.2285 36.3604 63.2897 36.4025C63.3714 36.4573 63.457 36.5062 63.5459 36.5488L63.876 36.6951C64.0331 36.757 64.1853 36.8303 64.3314 36.9145C64.4597 36.9875 64.5766 37.0785 64.6786 37.1846C64.7743 37.2816 64.8498 37.3963 64.9006 37.5221C65.0159 37.8599 64.9955 38.2285 64.8436 38.5518C64.7565 38.7089 64.6313 38.8423 64.4793 38.94C64.3152 39.0409 64.1339 39.1114 63.9443 39.1482C63.733 39.1937 63.5173 39.2164 63.3011 39.2157C63.0776 39.2157 62.8547 39.1949 62.6351 39.1538C62.4538 39.1129 62.2794 39.0466 62.1171 38.9569Z" fill="#F47920"/>
<path d="M69.3866 38.9681C69.007 39.1332 68.5942 39.2102 68.1799 39.1931C67.8992 39.2088 67.6183 39.1669 67.3548 39.0701C67.0913 38.9733 66.8509 38.8236 66.6487 38.6305C66.4573 38.4303 66.3083 38.1942 66.2105 37.9362C66.1127 37.6782 66.0682 37.4035 66.0795 37.1283C66.0669 36.8294 66.1159 36.5312 66.2235 36.2516C66.3312 35.9721 66.4952 35.7171 66.7056 35.5022C66.9196 35.294 67.1744 35.1311 67.4543 35.0237C67.7343 34.9163 68.0335 34.8666 68.3336 34.8777C68.6871 34.8686 69.0395 34.92 69.3752 35.0296V35.9355C69.0813 35.7678 68.7469 35.6822 68.4076 35.6879C68.2308 35.6805 68.0544 35.7097 67.8897 35.7737C67.725 35.8376 67.5757 35.9349 67.4513 36.0593C67.2194 36.3351 67.0924 36.6824 67.0924 37.041C67.0924 37.3997 67.2194 37.747 67.4513 38.0228C67.5711 38.1447 67.7158 38.2399 67.8758 38.302C68.0359 38.3641 68.2074 38.3917 68.3791 38.3829C68.7365 38.3856 69.0881 38.2944 69.398 38.1185L69.3866 38.9681Z" fill="#F47920"/>
<path d="M72.5 39.193C72.2274 39.2054 71.9551 39.1618 71.7004 39.065C71.4457 38.9681 71.214 38.8202 71.0201 38.6304C70.8274 38.4264 70.6778 38.1865 70.5801 37.9247C70.4823 37.6629 70.4384 37.3845 70.4509 37.1057C70.4228 36.5201 70.627 35.9468 71.0201 35.5078C71.2169 35.3028 71.456 35.142 71.7211 35.0362C71.9863 34.9304 72.2713 34.8821 72.5569 34.8945C72.8271 34.8811 73.0971 34.9242 73.3492 35.0212C73.6014 35.1181 73.8299 35.2667 74.0198 35.4572C74.2127 35.6644 74.3623 35.9073 74.46 36.1718C74.5577 36.4364 74.6015 36.7174 74.589 36.9988C74.6155 37.5824 74.4114 38.1534 74.0198 38.591C73.8234 38.7912 73.5866 38.9482 73.3247 39.052C73.0629 39.1557 72.7819 39.2038 72.5 39.193ZM72.5398 35.6822C72.3875 35.6769 72.2361 35.7078 72.0984 35.7725C71.9607 35.8371 71.8407 35.9335 71.7486 36.0536C71.5382 36.3383 71.4336 36.6861 71.4527 37.0382C71.4326 37.3886 71.5373 37.735 71.7486 38.0171C71.8384 38.1334 71.955 38.2267 72.0887 38.2893C72.2223 38.352 72.3692 38.3821 72.5171 38.3772C72.6664 38.383 72.815 38.3544 72.9513 38.2939C73.0875 38.2334 73.2078 38.1425 73.3026 38.0284C73.5065 37.7453 73.6069 37.402 73.5872 37.055C73.6096 36.6963 73.5116 36.3403 73.3083 36.0423C73.2192 35.9254 73.1027 35.8315 72.9689 35.7688C72.835 35.7061 72.6878 35.6764 72.5398 35.6822Z" fill="#F47920"/>
<path d="M76.9052 37.6797V39.12H75.9547V34.9397H77.446C78.5104 34.9397 79.0454 35.3841 79.0454 36.2731C79.0515 36.4663 79.0132 36.6583 78.9333 36.8347C78.8535 37.0111 78.7342 37.1673 78.5844 37.2915C78.2385 37.565 77.8029 37.7031 77.3606 37.6797H76.9052ZM76.9052 35.6655V36.9651H77.3037C77.8102 36.9651 78.0664 36.7457 78.0664 36.3069C78.0664 35.868 77.8102 35.6655 77.3037 35.6655H76.9052Z" fill="#F47920"/>
<path d="M82.859 39.12H80.326V34.9397H82.7623V35.7048H81.288V36.6388H82.6712V37.3984H81.288V38.3549H82.8704L82.859 39.12Z" fill="#F47920"/>
<path d="M162.4 26.2244L162.355 26.0921C161.556 23.762 159.567 22.0626 157.137 21.6161C156.927 16.7065 152.811 12.7451 147.858 12.7451L147.668 12.7527C146.879 12.7669 146.083 12.8892 145.305 13.1153C142.751 13.8332 140.595 15.672 139.471 18.0713C138.651 17.2661 137.581 16.8274 136.418 16.8274C135.103 16.8274 133.873 17.414 133.041 18.4372L133.42 18.7423C134.158 17.8339 135.251 17.3127 136.418 17.3127C137.563 17.3127 138.608 17.7923 139.36 18.6633L139.617 18.9613L139.77 18.5983C140.787 16.1691 142.906 14.2939 145.439 13.582C146.178 13.3668 146.931 13.2512 147.682 13.238L147.868 13.2304C152.615 13.2304 156.558 17.087 156.656 21.8275L156.661 22.0308L156.863 22.0622C159.204 22.4223 161.132 24.0269 161.894 26.2472L161.939 26.3812C162.15 26.9804 162.258 27.6375 162.258 28.3346C162.258 31.8354 159.4 34.6836 155.886 34.6836H142.932V35.1689H155.886C159.668 35.1689 162.745 32.1032 162.745 28.3346C162.745 27.5827 162.628 26.8708 162.4 26.2244Z" fill="white" stroke="white" stroke-width="0.3"/>
<path d="M146.646 17.8187L141.804 21.2946H145.56V32.5018H149.91V17.8187H146.646Z" fill="#EC7100"/>
<path d="M133.321 20.1484H126.375V34.708H128.729V22.2285V21.5618H129.395H132.682C133.74 21.5618 134.657 21.7804 135.316 22.3304C135.999 22.8998 136.291 23.7259 136.291 24.6792C136.291 25.6469 136.002 26.4852 135.322 27.0647C134.804 27.5052 134.128 27.7375 133.349 27.8173V27.8644H132.682H131.991L137.469 34.708H140.355L135.999 29.626L135.435 28.9678L136.216 28.5916C136.621 28.3963 136.986 28.1722 137.3 27.9095L137.3 27.9093C138.326 27.051 138.834 25.9504 138.834 24.5482C138.834 23.001 138.368 21.949 137.533 21.2639C136.672 20.5581 135.306 20.1484 133.321 20.1484Z" fill="white" stroke="white" stroke-width="1.33333"/>
<rect x="114.128" y="18.1829" width="1.20156" height="19.1571" fill="#565758"/>
</svg>
