<svg width="127" height="34" viewBox="0 0 127 34" fill="none" xmlns="http://www.w3.org/2000/svg">
<path d="M29.009 18.1748C29.009 22.1775 27.1064 24.1789 23.3014 24.1789C19.6087 24.1789 17.7623 22.2337 17.7623 18.3433V10.6546H20.8351V18.35C20.8351 20.4929 21.6909 21.5643 23.416 21.5643C25.141 21.5643 25.9429 20.5333 25.9429 18.4578V10.6546H29.009V18.1748Z" fill="white"/>
<path d="M41.1788 23.4444C39.9476 23.9506 38.6204 24.1806 37.2906 24.1182C36.392 24.169 35.4924 24.0362 34.6467 23.7281C33.801 23.4199 33.0268 22.9428 32.3715 22.3258C31.7631 21.6935 31.2903 20.9436 30.9821 20.122C30.6738 19.3005 30.5367 18.4246 30.579 17.5482C30.5408 16.5948 30.7007 15.6438 31.0487 14.7554C31.3966 13.8669 31.9251 13.0603 32.6006 12.3864C33.2939 11.7212 34.1145 11.2028 35.013 10.8624C35.9116 10.5219 36.8696 10.3665 37.8297 10.4053C38.9728 10.3737 40.1127 10.5401 41.199 10.8972V13.8015C40.2536 13.2626 39.1806 12.9879 38.0925 13.0064C37.5244 12.9814 36.957 13.0725 36.4253 13.2741C35.8935 13.4757 35.4083 13.7835 34.9995 14.1789C34.5965 14.6007 34.2841 15.1004 34.0813 15.6473C33.8785 16.1943 33.7897 16.7769 33.8203 17.3595C33.7934 17.9193 33.8784 18.4788 34.0705 19.0053C34.2626 19.5317 34.5578 20.0146 34.9389 20.4255C35.3306 20.8115 35.7982 21.112 36.312 21.308C36.8259 21.504 37.3748 21.5913 37.9241 21.5643C39.0739 21.5771 40.2064 21.284 41.2057 20.7153L41.1788 23.4444Z" fill="white"/>
<path d="M67.8162 18.1748C67.8162 22.1551 65.9137 24.1452 62.1087 24.1452C58.4159 24.1452 56.5696 22.2 56.5696 18.3096V10.6546H59.6424V18.35C59.6424 20.4929 60.4982 21.5643 62.2232 21.5643C63.9483 21.5643 64.7502 20.5333 64.7502 18.4578V10.6546H67.8162V18.1748Z" fill="white"/>
<path d="M69.548 23.4107V20.4457C70.0752 20.8938 70.6775 21.2451 71.327 21.4834C71.9548 21.7046 72.6155 21.8185 73.2812 21.8204C73.6208 21.825 73.9599 21.7911 74.2919 21.7193C74.5458 21.664 74.7892 21.5684 75.013 21.4363C75.1881 21.3306 75.3359 21.1852 75.4442 21.0117C75.5373 20.8498 75.5861 20.6662 75.5857 20.4794C75.5828 20.2361 75.5026 20.0001 75.3566 19.8055C75.1827 19.5839 74.9732 19.3926 74.7367 19.2395C74.4375 19.0499 74.1244 18.8832 73.8 18.7409C73.4429 18.5791 73.052 18.4174 72.6343 18.2489C71.7261 17.9222 70.9102 17.3813 70.2555 16.6721C69.7318 16.0382 69.4543 15.2367 69.4739 14.4147C69.4545 13.7937 69.6035 13.179 69.9051 12.6357C70.1844 12.1242 70.5876 11.691 71.0776 11.3756C71.6012 11.0512 72.1786 10.823 72.7825 10.7018C73.4451 10.5467 74.1236 10.4698 74.8041 10.4727C75.4331 10.466 76.0618 10.5088 76.6841 10.6007C77.2017 10.6744 77.71 10.8032 78.2003 10.9848V13.7476C77.9646 13.589 77.7141 13.4536 77.4523 13.3433C77.1836 13.2245 76.9066 13.1254 76.6235 13.0468C76.3446 12.9713 76.061 12.915 75.7744 12.8783C75.5088 12.8411 75.2408 12.8231 74.9725 12.8244C74.6534 12.8227 74.335 12.8543 74.0224 12.9188C73.7689 12.972 73.5255 13.0652 73.3014 13.195C73.1207 13.2976 72.9662 13.4406 72.8499 13.6128C72.7413 13.7764 72.6849 13.9691 72.6882 14.1654C72.6852 14.3772 72.7488 14.5847 72.8701 14.7584C73.0079 14.9554 73.1816 15.1246 73.3822 15.257C73.6331 15.4387 73.9018 15.5945 74.1841 15.722C74.4986 15.8702 74.8557 16.0252 75.2555 16.1869C75.7601 16.3905 76.2508 16.6268 76.7246 16.8945C77.1321 17.1256 77.5062 17.4113 77.8364 17.7435C78.1431 18.0525 78.3858 18.4188 78.5507 18.8217C78.7208 19.2713 78.8032 19.7494 78.7933 20.2301C78.817 20.8773 78.6681 21.5192 78.362 22.0899C78.081 22.5912 77.6776 23.0131 77.1895 23.3163C76.6621 23.6428 76.0799 23.8711 75.4712 23.9902C74.788 24.1278 74.0926 24.1955 73.3957 24.1923C72.6819 24.1949 71.9693 24.134 71.2663 24.0104C70.6685 23.8913 70.0901 23.6894 69.548 23.4107Z" fill="white"/>
<path d="M46.3944 23.9161H43.3284V10.6546H46.3944V23.9161Z" fill="white"/>
<path d="M47.5938 18.1546L52.3378 23.9161H56.2057L50.2758 16.9821L55.0197 10.6546H51.3674L47.6141 16.1869L47.5938 18.1546Z" fill="white"/>
<path d="M13.3351 18.788C13.7024 18.6092 14.0446 18.3826 14.3526 18.1142C14.8288 17.7231 15.2093 17.2284 15.465 16.6678C15.7208 16.1072 15.8451 15.4956 15.8283 14.8797C15.8283 12.063 14.1145 10.6546 10.6868 10.6546H4.35931V23.9161H7.42535V12.9457H10.1612C11.7919 12.9457 12.6073 13.6196 12.6073 14.9673C12.6073 16.315 11.7919 17.0562 10.1612 17.0562H8.42939L13.8741 23.8756H17.7421L13.3351 18.788Z" fill="white"/>
<path d="M82.176 11.4767C82.1922 11.7624 82.1222 12.0464 81.9751 12.2919C81.828 12.5373 81.6106 12.733 81.351 12.8534C81.0914 12.9739 80.8016 13.0136 80.5192 12.9674C80.2367 12.9212 79.9747 12.7912 79.767 12.5943C79.5593 12.3975 79.4155 12.1428 79.3543 11.8632C79.293 11.5836 79.3172 11.2921 79.4235 11.0265C79.5299 10.7608 79.7137 10.5332 79.9509 10.3732C80.1882 10.2132 80.468 10.1281 80.7542 10.129C80.9362 10.1236 81.1174 10.1542 81.2875 10.2191C81.4576 10.284 81.6132 10.3819 81.7453 10.5072C81.8775 10.6324 81.9835 10.7826 82.0575 10.9489C82.1314 11.1153 82.1717 11.2947 82.176 11.4767ZM79.6828 11.4767C79.6841 11.6883 79.7481 11.8948 79.8666 12.0701C79.9851 12.2454 80.1529 12.3817 80.3488 12.4617C80.5447 12.5418 80.7599 12.562 80.9673 12.5199C81.1747 12.4778 81.365 12.3753 81.5142 12.2252C81.6633 12.0751 81.7647 11.8841 81.8055 11.6765C81.8463 11.4688 81.8247 11.2538 81.7434 11.0584C81.6621 10.863 81.5248 10.696 81.3487 10.5786C81.1727 10.4612 80.9658 10.3985 80.7542 10.3985C80.6124 10.3967 80.4717 10.4234 80.3404 10.477C80.2092 10.5306 80.09 10.6101 79.9901 10.7106C79.8901 10.8112 79.8114 10.9308 79.7586 11.0624C79.7058 11.194 79.68 11.3349 79.6828 11.4767ZM80.5318 12.191H80.2151V10.8432C80.3908 10.8122 80.5691 10.7986 80.7474 10.8028C80.9125 10.7901 81.078 10.8228 81.2259 10.8972C81.2698 10.9327 81.3049 10.978 81.3283 11.0295C81.3517 11.0809 81.3628 11.1372 81.3607 11.1937C81.3558 11.2705 81.3253 11.3435 81.2739 11.401C81.2226 11.4584 81.1535 11.4969 81.0776 11.5104C81.1455 11.5372 81.2047 11.5822 81.2486 11.6405C81.2926 11.6987 81.3197 11.7679 81.327 11.8406C81.3449 11.96 81.3813 12.0759 81.4348 12.1842H81.0844C81.033 12.0798 80.9967 11.9686 80.9766 11.854C80.9766 11.699 80.862 11.6384 80.6868 11.6384H80.5318V12.191ZM80.5318 11.4228H80.6801C80.862 11.4228 81.0035 11.3621 81.0035 11.2206C81.0035 11.0791 80.9092 11.0184 80.707 11.0184H80.5318V11.4228Z" fill="white"/>
<path d="M7.91728 33.7004C7.46637 33.8925 6.97848 33.9823 6.48871 33.9632C6.15643 33.982 5.82386 33.9318 5.5119 33.8159C5.19995 33.6999 4.91536 33.5206 4.67605 33.2894C4.44887 33.0486 4.2722 32.7647 4.15647 32.4545C4.04074 32.1444 3.98828 31.8142 4.00219 31.4834C3.99435 31.1303 4.05707 30.7791 4.18666 30.4505C4.31626 30.1219 4.51012 29.8224 4.75691 29.5697C5.0102 29.3202 5.31182 29.1252 5.64324 28.9966C5.97466 28.8679 6.32887 28.8084 6.68413 28.8217C7.10318 28.81 7.5209 28.8739 7.91728 29.0104V30.0953C7.57097 29.8899 7.17432 29.7849 6.77173 29.7921C6.56144 29.7831 6.35158 29.818 6.15551 29.8946C5.95944 29.9711 5.78147 30.0877 5.63292 30.2368C5.48575 30.3986 5.37191 30.5878 5.29792 30.7936C5.22392 30.9994 5.19121 31.2178 5.20165 31.4363C5.19054 31.647 5.22114 31.8578 5.29167 32.0567C5.36221 32.2556 5.4713 32.4386 5.6127 32.5953C5.75553 32.7399 5.92705 32.8529 6.11623 32.9272C6.30541 33.0015 6.50804 33.0353 6.71109 33.0266C7.13513 33.0308 7.55224 32.9189 7.91728 32.7031V33.7004Z" fill="#F47920"/>
<path d="M11.6033 33.9632C11.2804 33.9793 10.9577 33.9276 10.656 33.8116C10.3543 33.6955 10.0802 33.5176 9.85126 33.2894C9.62336 33.0463 9.44635 32.7601 9.33063 32.4477C9.21491 32.1352 9.16281 31.8028 9.1774 31.4699C9.14241 30.7663 9.38429 30.077 9.85126 29.5495C10.0854 29.3054 10.3686 29.1137 10.6822 28.9871C10.9958 28.8605 11.3327 28.8018 11.6707 28.815C11.9905 28.7988 12.3102 28.8505 12.6086 28.9666C12.9071 29.0828 13.1776 29.2607 13.4025 29.4888C13.8379 30.0173 14.0759 30.6808 14.0759 31.3655C14.0759 32.0502 13.8379 32.7137 13.4025 33.2422C13.1708 33.483 12.8905 33.6718 12.5804 33.7961C12.2702 33.9204 11.9371 33.9773 11.6033 33.9632ZM11.6504 29.7584C11.4692 29.7525 11.2892 29.7898 11.1252 29.8671C10.9612 29.9445 10.8179 30.0596 10.7071 30.2031C10.4642 30.5468 10.3432 30.9619 10.3634 31.3823C10.3322 31.8 10.4438 32.2158 10.6801 32.5616C10.7892 32.6993 10.9287 32.8099 11.0877 32.8847C11.2467 32.9595 11.4209 32.9965 11.5965 32.9929C11.773 33 11.9487 32.9653 12.1091 32.8915C12.2696 32.8177 12.4103 32.7069 12.5197 32.5683C12.7676 32.2321 12.8892 31.8194 12.8634 31.4026C12.8899 30.9729 12.7738 30.5465 12.5332 30.1896C12.4296 30.0541 12.2959 29.9446 12.1427 29.8698C11.9895 29.7949 11.821 29.7568 11.6504 29.7584Z" fill="#F47920"/>
<path d="M21.3944 33.8756H20.2826V30.9174C20.2826 30.5939 20.296 30.2368 20.323 29.8459C20.2623 30.1559 20.2084 30.3716 20.168 30.5198L18.9955 33.8891H18.0454L16.8526 30.5198C16.787 30.2986 16.7353 30.0736 16.6976 29.8459C16.6976 30.3379 16.7448 30.7691 16.7448 31.1465V33.9093H15.6936V28.8958H17.3445L18.3688 31.8608C18.4469 32.0936 18.5055 32.3325 18.544 32.5751C18.5954 32.3305 18.6629 32.0896 18.7462 31.854L19.7839 28.8958H21.3944V33.8756Z" fill="#F47920"/>
<path d="M29.0156 33.8756H27.9038V30.9174C27.9038 30.5939 27.9038 30.2435 27.9509 29.8459H27.9172C27.8833 30.0743 27.8314 30.2996 27.7623 30.5198L26.5898 33.8891H25.6666L24.4738 30.5198C24.4738 30.4255 24.393 30.1964 24.3189 29.8459H24.2852C24.3189 30.3379 24.3323 30.7691 24.3323 31.1465V33.9093H23.3148V28.8958H24.9658L25.99 31.8608C26.0746 32.0857 26.1378 32.3181 26.1787 32.5548C26.2312 32.3113 26.2965 32.0706 26.3741 31.8338L27.4119 28.8958H29.0156V33.8756Z" fill="#F47920"/>
<path d="M30.7138 33.6869V32.5683C31.0904 32.8896 31.5666 33.0706 32.0615 33.0805C32.1862 33.0827 32.3108 33.0691 32.4321 33.04C32.5272 33.0189 32.6182 32.9825 32.7017 32.9322C32.7663 32.8924 32.8196 32.8368 32.8566 32.7705C32.8938 32.7123 32.9126 32.6442 32.9105 32.5751C32.9125 32.4811 32.8841 32.3889 32.8297 32.3123C32.765 32.2289 32.6877 32.1561 32.6006 32.0967C32.4995 32.036 32.3849 31.9686 32.2569 31.908L31.8256 31.726C31.4892 31.6003 31.1886 31.3944 30.9496 31.1263C30.8295 30.9805 30.7414 30.8112 30.6909 30.6291C30.6405 30.4471 30.6289 30.2565 30.6568 30.0697C30.6848 29.8829 30.7517 29.7041 30.8532 29.5448C30.9547 29.3855 31.0886 29.2494 31.2461 29.1452C31.4368 29.0179 31.6492 28.9265 31.8728 28.8756C32.1204 28.8187 32.3735 28.7894 32.6275 28.788C32.8529 28.7891 33.078 28.8049 33.3014 28.8352C33.4924 28.8654 33.6798 28.915 33.8607 28.9834V30.0279C33.7748 29.9659 33.6821 29.9139 33.5844 29.8729C33.4867 29.8281 33.3852 29.792 33.2812 29.7651C33.1779 29.733 33.0719 29.7105 32.9645 29.6977H32.668C32.5526 29.6976 32.4375 29.7089 32.3243 29.7314C32.2292 29.7526 32.1382 29.789 32.0548 29.8392C31.988 29.8781 31.9305 29.931 31.8863 29.9942C31.8512 30.0583 31.8326 30.1301 31.8324 30.2031C31.8309 30.2825 31.8545 30.3603 31.8998 30.4255C31.9475 30.4997 32.0093 30.5638 32.0817 30.6142C32.1754 30.6809 32.2746 30.7395 32.3782 30.7894C32.4995 30.85 32.6275 30.9039 32.7758 30.9646C32.9607 31.0435 33.1407 31.1336 33.3149 31.2341C33.4649 31.3216 33.6031 31.428 33.7259 31.5508C33.8395 31.6694 33.9287 31.8091 33.9887 31.9619C34.0516 32.1321 34.0814 32.3128 34.0763 32.4942C34.0787 32.7279 34.0256 32.9589 33.9213 33.1681C33.8179 33.3543 33.6697 33.5118 33.4901 33.6263C33.2962 33.7494 33.0816 33.8361 32.8566 33.8824C32.6058 33.9314 32.3508 33.9562 32.0952 33.9565C31.8309 33.9587 31.5669 33.9361 31.3068 33.8891C31.1008 33.849 30.9013 33.781 30.7138 33.6869Z" fill="#F47920"/>
<path d="M39.3189 33.7004C38.868 33.8925 38.3801 33.9823 37.8903 33.9632C37.558 33.982 37.2255 33.9318 36.9135 33.8159C36.6016 33.6999 36.317 33.5206 36.0777 33.2894C35.8505 33.0486 35.6738 32.7647 35.5581 32.4545C35.4423 32.1444 35.3899 31.8142 35.4038 31.4834C35.396 31.1303 35.4587 30.7791 35.5883 30.4505C35.7179 30.1219 35.9117 29.8224 36.1585 29.5697C36.4118 29.3202 36.7134 29.1252 37.0448 28.9966C37.3763 28.8679 37.7305 28.8084 38.0857 28.8217C38.5048 28.8094 38.9227 28.8734 39.3189 29.0104V30.0953C38.9729 29.8892 38.576 29.7842 38.1733 29.7921C37.9641 29.7832 37.7553 29.8182 37.5603 29.8948C37.3653 29.9714 37.1885 30.0879 37.0413 30.2368C36.7674 30.5688 36.6176 30.9857 36.6176 31.416C36.6176 31.8464 36.7674 32.2633 37.0413 32.5953C37.1841 32.7399 37.3556 32.8529 37.5448 32.9272C37.734 33.0015 37.9366 33.0353 38.1396 33.0266C38.5637 33.0308 38.9808 32.9189 39.3458 32.7031L39.3189 33.7004Z" fill="#F47920"/>
<path d="M43.0251 33.9632C42.7022 33.9793 42.3795 33.9276 42.0778 33.8116C41.7761 33.6955 41.502 33.5176 41.2731 33.2894C41.0452 33.0463 40.8682 32.7601 40.7524 32.4477C40.6367 32.1352 40.5846 31.8028 40.5992 31.4699C40.5642 30.7663 40.8061 30.077 41.2731 29.5495C41.5072 29.3054 41.7904 29.1137 42.104 28.9871C42.4176 28.8605 42.7545 28.8018 43.0925 28.815C43.4123 28.7988 43.732 28.8505 44.0305 28.9666C44.3289 29.0828 44.5995 29.2607 44.8243 29.4888C45.2853 29.993 45.5276 30.6594 45.4981 31.3419C45.5321 32.0393 45.29 32.722 44.8243 33.2422C44.5918 33.4819 44.3114 33.67 44.0015 33.7943C43.6915 33.9185 43.3588 33.9761 43.0251 33.9632ZM43.0251 29.7584C42.8447 29.752 42.6655 29.789 42.5025 29.8664C42.3395 29.9438 42.1975 30.0593 42.0884 30.2031C41.8403 30.5446 41.7166 30.9608 41.738 31.3823C41.7132 31.8043 41.8372 32.2216 42.0884 32.5616C42.2004 32.696 42.3405 32.8041 42.4989 32.8783C42.6572 32.9525 42.83 32.991 43.0049 32.991C43.1798 32.991 43.3525 32.9525 43.5109 32.8783C43.6693 32.8041 43.8094 32.696 43.9213 32.5616C44.1692 32.2254 44.2908 31.8127 44.265 31.3958C44.2915 30.9662 44.1754 30.5398 43.9348 30.1829C43.8278 30.0449 43.6895 29.9344 43.5313 29.8606C43.3731 29.7868 43.1995 29.7517 43.0251 29.7584Z" fill="#F47920"/>
<path d="M48.2205 32.1505V33.8756H47.0682V28.8958H48.8337C50.0938 28.8958 50.7273 29.4282 50.7273 30.4861C50.735 30.7175 50.6899 30.9477 50.5953 31.159C50.5007 31.3704 50.3592 31.5574 50.1814 31.7058C49.772 32.0333 49.2563 32.1988 48.7327 32.1707L48.2205 32.1505ZM48.2205 29.7381V31.3015H48.6653C49.265 31.3015 49.5682 31.0387 49.5682 30.5131C49.5682 29.9875 49.265 29.7381 48.6653 29.7381H48.2205Z" fill="#F47920"/>
<path d="M55.269 33.8756H52.2704V28.8958H55.1545V29.8123H53.3957V30.9174H55.0332V31.8338H53.3957V32.9389H55.269V33.8756Z" fill="#F47920"/>
<path d="M126.536 16.2909L126.499 16.1804C125.834 14.2343 124.179 12.815 122.156 12.4421C121.982 8.34155 118.556 5.03296 114.434 5.03296L114.276 5.03934C113.619 5.05116 112.957 5.15328 112.309 5.34213C110.183 5.94175 108.389 7.47752 107.454 9.48142C106.771 8.80889 105.881 8.44248 104.913 8.44248C103.819 8.44248 102.794 8.9324 102.103 9.78701L102.418 10.0419C103.032 9.28314 103.942 8.84781 104.913 8.84781C105.866 8.84781 106.735 9.24835 107.362 9.97586L107.576 10.2247L107.702 9.92154C108.549 7.89267 110.312 6.32649 112.42 5.73192C113.036 5.55223 113.662 5.45568 114.287 5.44466L114.442 5.43829C118.393 5.43829 121.674 8.65935 121.756 12.6186L121.76 12.7884L121.928 12.8146C123.877 13.1154 125.481 14.4555 126.115 16.3099L126.153 16.4218C126.329 16.9223 126.418 17.4711 126.418 18.0534C126.418 20.9772 124.039 23.356 121.116 23.356H110.334V23.7614H121.116C124.263 23.7614 126.824 21.2009 126.824 18.0534C126.824 17.4253 126.727 16.8308 126.536 16.2909Z" fill="white"/>
<path d="M113.425 9.2704L109.396 12.1735H112.522V21.5338H116.142V9.2704H113.425Z" fill="#EC7100"/>
<path d="M109.395 23.9332H105.521L100.073 17.1038H101.804V17.0916C103.438 17.0916 104.252 16.3945 104.252 15.0003C104.252 13.6384 103.438 12.9535 101.804 12.9535H99.0682V23.9332H96V10.6594H102.335C105.764 10.6594 107.478 12.07 107.478 14.8909C107.478 16.2203 106.988 17.2984 106.003 18.1252C105.699 18.3805 105.355 18.5913 104.986 18.7696L109.395 23.9332Z" fill="white"/>
<rect x="88" y="9.57465" width="1" height="16" fill="#565758"/>
</svg>
