<svg width="16" height="16" viewBox="0 0 16 16" fill="none" xmlns="http://www.w3.org/2000/svg">
<path d="M14.6444 6.75822C14.2526 6.57384 13.9069 6.52775 13.6073 6.61994L11.9134 3.64689C12.3974 3.16291 12.4665 2.62131 12.1208 2.02209C11.9595 1.69943 11.6944 1.49201 11.3257 1.39982C10.9569 1.28459 10.6112 1.31916 10.2886 1.50354C9.96591 1.71096 9.77001 1.98752 9.70087 2.33322H6.31298C6.15166 1.734 5.73681 1.4344 5.06845 1.4344C4.65361 1.4344 4.30791 1.56115 4.03135 1.81467C3.77783 2.06818 3.65107 2.39084 3.65107 2.78264C3.65107 3.10529 3.77783 3.41642 4.03135 3.71603L2.3374 6.68908C1.66904 6.5047 1.17353 6.72365 0.850879 7.34591C0.666504 7.66857 0.62041 8.01427 0.712598 8.38302C0.827832 8.72873 1.04678 8.99376 1.36943 9.17814C1.69209 9.36251 2.03779 9.42013 2.40654 9.35099L4.10049 12.2895C3.6165 12.7734 3.54736 13.3151 3.89306 13.9143C4.05439 14.2369 4.31943 14.4559 4.68818 14.5711C5.05693 14.6633 5.40263 14.6172 5.72529 14.4328C6.04795 14.2254 6.24384 13.9488 6.31298 13.6031H9.70087C9.8622 14.2484 10.3001 14.5711 11.0145 14.5711C11.3833 14.5711 11.6944 14.4443 11.9479 14.1908C12.2245 13.9373 12.3628 13.6262 12.3628 13.2574C12.3628 12.9117 12.236 12.5891 11.9825 12.2895L13.6765 9.35099C14.3448 9.51232 14.8403 9.28185 15.163 8.65959C15.3474 8.29084 15.3819 7.93361 15.2667 7.58791C15.1745 7.21916 14.9671 6.94259 14.6444 6.75822ZM6.1747 12.4277C6.03642 12.2895 5.95576 12.1973 5.93271 12.1512L8.00693 8.65959L10.012 12.1512C9.80458 12.3125 9.70087 12.5084 9.70087 12.7389H6.31298C6.31298 12.6236 6.26689 12.5199 6.1747 12.4277ZM3.37451 7.55334C3.25928 7.32287 3.15556 7.12697 3.06338 6.96564L4.75732 4.02717C4.78037 4.02717 4.82646 4.03869 4.8956 4.06174C4.98779 4.08478 5.04541 4.09631 5.06845 4.09631C5.20674 4.09631 5.29892 4.07326 5.34502 4.02717L7.35009 7.4842H3.37451V7.55334ZM9.83915 3.43947C9.97743 3.57775 10.0581 3.66994 10.0811 3.71603L8.00693 7.20763L6.00185 3.71603C6.14013 3.53166 6.24384 3.33576 6.31298 3.12834H9.70087C9.70087 3.24357 9.74697 3.34728 9.83915 3.43947ZM10.9454 11.7709C10.8071 11.7709 10.7149 11.794 10.6688 11.8401L8.66376 8.38302H12.7431C12.7892 8.54435 12.8813 8.74025 13.0196 8.97072L11.3257 11.9092C11.2796 11.817 11.1528 11.7709 10.9454 11.7709ZM12.8122 7.27677C12.7892 7.29982 12.7661 7.34591 12.7431 7.41505C12.72 7.4842 12.6854 7.53029 12.6393 7.55334H8.59462L10.5997 4.09631C10.8071 4.16545 11.0261 4.16545 11.2565 4.09631L12.9505 7.03478C12.9044 7.15002 12.8583 7.23068 12.8122 7.27677ZM3.20166 8.59044C3.22471 8.5674 3.24775 8.5213 3.2708 8.45216C3.29385 8.38302 3.32842 8.33693 3.37451 8.31388H7.41923L5.41416 11.7709C5.20674 11.7018 4.98779 11.7018 4.75732 11.7709L3.06338 8.83244C3.10947 8.7172 3.15556 8.63654 3.20166 8.59044Z" fill="black"/>
</svg>
