<svg width="24" height="24" viewBox="0 0 24 24" fill="none" xmlns="http://www.w3.org/2000/svg">
<path d="M18 20.25V3.75C18 2.92157 17.3284 2.25 16.5 2.25L7.5 2.25C6.67157 2.25 6 2.92157 6 3.75L6 20.25C6 21.0784 6.67157 21.75 7.5 21.75H16.5C17.3284 21.75 18 21.0784 18 20.25Z" stroke="#333333" stroke-linecap="round" stroke-linejoin="round"/>
<path d="M12 19.2497C12.6213 19.2497 13.125 18.746 13.125 18.1247C13.125 17.5034 12.6213 16.9997 12 16.9997C11.3787 16.9997 10.875 17.5034 10.875 18.1247C10.875 18.746 11.3787 19.2497 12 19.2497Z" fill="#333333"/>
</svg>
