<svg width="32" height="32" viewBox="0 0 32 32" fill="none" xmlns="http://www.w3.org/2000/svg">
<g clip-path="url(#clip0_103_5158)">
<path d="M16 22.5C18.7614 22.5 21 20.2614 21 17.5C21 14.7386 18.7614 12.5 16 12.5C13.2386 12.5 11 14.7386 11 17.5C11 20.2614 13.2386 22.5 16 22.5Z" fill="#333333" stroke="#333333"/>
<path d="M7.5 14.5C9.70914 14.5 11.5 12.7091 11.5 10.5C11.5 8.29086 9.70914 6.5 7.5 6.5C5.29086 6.5 3.5 8.29086 3.5 10.5C3.5 12.7091 5.29086 14.5 7.5 14.5Z" fill="#333333" stroke="#333333"/>
<path d="M24.5 14.5C26.7091 14.5 28.5 12.7091 28.5 10.5C28.5 8.29086 26.7091 6.5 24.5 6.5C22.2909 6.5 20.5 8.29086 20.5 10.5C20.5 12.7091 22.2909 14.5 24.5 14.5Z" fill="#333333" stroke="#333333"/>
<path d="M16 22.5C18.7614 22.5 21 20.2614 21 17.5C21 14.7386 18.7614 12.5 16 12.5C13.2386 12.5 11 14.7386 11 17.5C11 20.2614 13.2386 22.5 16 22.5Z" stroke="#333333" stroke-linecap="round" stroke-linejoin="round"/>
<path d="M24.5 14.5C25.6645 14.499 26.8131 14.7696 27.8547 15.2903C28.8963 15.811 29.8021 16.5674 30.5001 17.4995" stroke="#333333" stroke-linecap="round" stroke-linejoin="round"/>
<path d="M1.50113 17.4997C2.19918 16.5676 3.105 15.8111 4.14662 15.2904C5.18824 14.7697 6.33695 14.499 7.50148 14.5" stroke="#333333" stroke-linecap="round" stroke-linejoin="round"/>
<path d="M8.80554 26.9999C9.46244 25.6506 10.4855 24.5133 11.7578 23.7176C13.0302 22.9219 14.5006 22.5 16.0012 22.5C17.5019 22.5 18.9723 22.9219 20.2447 23.7176C21.517 24.5132 22.54 25.6506 23.1969 26.9998" stroke="#333333" stroke-linecap="round" stroke-linejoin="round"/>
<path d="M7.50048 14.5C6.74152 14.4999 5.99827 14.2838 5.35752 13.8771C4.71676 13.4703 4.20494 12.8897 3.88183 12.2029C3.55872 11.5162 3.43765 10.7517 3.53275 9.99874C3.62786 9.24577 3.93522 8.5354 4.41895 7.95057C4.90267 7.36575 5.54279 6.93061 6.26456 6.69597C6.98633 6.46133 7.75996 6.43687 8.49511 6.62544C9.23026 6.81402 9.89659 7.20786 10.4163 7.76096C10.936 8.31406 11.2876 9.0036 11.4301 9.74905" stroke="#333333" stroke-linecap="round" stroke-linejoin="round"/>
<path d="M20.5706 9.74901C20.713 9.00343 21.0646 8.31376 21.5843 7.76054C22.1041 7.20732 22.7705 6.81338 23.5057 6.62473C24.2409 6.43607 25.0147 6.4605 25.7365 6.69514C26.4584 6.92979 27.0986 7.36498 27.5824 7.94988C28.0662 8.53478 28.3736 9.24525 28.4687 9.99832C28.5638 10.7514 28.4427 11.516 28.1195 12.2028C27.7963 12.8896 27.2844 13.4703 26.6436 13.877C26.0027 14.2838 25.2593 14.4998 24.5003 14.4999" stroke="#333333" stroke-linecap="round" stroke-linejoin="round"/>
</g>
<defs>
<clipPath id="clip0_103_5158">
<rect width="32" height="32" fill="white"/>
</clipPath>
</defs>
</svg>
