<svg xmlns="http://www.w3.org/2000/svg" width="24" height="24" fill="none" viewBox="0 0 24 24">
  <path fill="currentColor" d="M11.163 20.4a.543.543 0 0 1-.543-.543v-2.172H5.886A1.088 1.088 0 0 1 4.8 16.6V4.686A1.086 1.086 0 0 1 5.886 3.6H17.8a1.088 1.088 0 0 1 1.086 1.085V16.6a1.088 1.088 0 0 1-1.086 1.086h-1.813v2.17a.543.543 0 0 1-.83.461l-1.853-1.157-1.853 1.158a.542.542 0 0 1-.287.083ZM17.8 4.686H5.886V16.6h5.276a.543.543 0 0 1 .543.543v1.735l1.31-.819a.542.542 0 0 1 .575 0l1.31.819v-1.735a.543.543 0 0 1 .543-.543h2.352L17.8 4.686Z"/>
  <path fill="currentColor" d="M11.164 20.4a.534.534 0 0 1-.264-.07.56.56 0 0 1-.283-.49v-4.936a.56.56 0 0 1 .345-.52.536.536 0 0 1 .6.136 2.364 2.364 0 0 0 1.756.776 2.364 2.364 0 0 0 1.755-.776.536.536 0 0 1 .85.072.56.56 0 0 1 .093.312v4.935a.56.56 0 0 1-.281.49.533.533 0 0 1-.555-.015l-1.864-1.193-1.862 1.194a.538.538 0 0 1-.29.085Zm.546-4.376v2.806l1.317-.845a.535.535 0 0 1 .58 0l1.317.839v-2.8a3.416 3.416 0 0 1-1.606.396 3.415 3.415 0 0 1-1.608-.396Z"/>
  <path fill="currentColor" d="M13.318 9.511a3.28 3.28 0 0 1 3.242 3.311 3.28 3.28 0 0 1-3.242 3.31 3.28 3.28 0 0 1-3.243-3.31 3.28 3.28 0 0 1 3.243-3.31Zm0 5.502a2.17 2.17 0 0 0 2.144-2.191 2.17 2.17 0 0 0-2.144-2.19 2.17 2.17 0 0 0-2.146 2.19 2.17 2.17 0 0 0 2.146 2.19Z"/>
</svg>
