<svg width="120" height="70" viewBox="0 0 120 70" fill="none" xmlns="http://www.w3.org/2000/svg">
<path d="M24.5322 59.5V21.5546L35.8602 13.831L47.1881 21.5546V59.5H24.5322Z" fill="white" stroke="#333333"/>
<path d="M20 21.2903L35.8602 10.5376L47.4194 18.0645L58.9785 10L70.5376 18.0645L82.0968 10L98.2258 21.2903" stroke="#333333"/>
<path d="M71 21.7689V59.5H47V21.7684L58.9791 13.8254L71 21.7689Z" fill="white" stroke="#333333"/>
<path d="M70.7688 59.5V21.5546L82.0968 13.831L93.4247 21.5546V59.5H70.7688Z" fill="white" stroke="#333333"/>
<rect x="29.4087" y="25.5913" width="4.30108" height="5.91398" stroke="#333333"/>
<rect x="38.0107" y="25.5913" width="4.30108" height="5.91398" stroke="#333333"/>
<rect x="29.4087" y="36.8818" width="4.30108" height="5.91398" stroke="#333333"/>
<rect x="38.0107" y="36.8818" width="4.30108" height="5.91398" stroke="#333333"/>
<rect x="52.5269" y="25.5913" width="4.30108" height="5.91398" stroke="#333333"/>
<rect x="61.1292" y="25.5913" width="4.30108" height="5.91398" stroke="#333333"/>
<rect x="52.5269" y="36.8818" width="4.30108" height="5.91398" stroke="#333333"/>
<rect x="61.1292" y="36.8818" width="4.30108" height="5.91398" stroke="#333333"/>
<rect x="75.6453" y="25.5913" width="4.30108" height="5.91398" stroke="#333333"/>
<rect x="84.2473" y="25.5913" width="4.30108" height="5.91398" stroke="#333333"/>
<rect x="75.6453" y="36.8818" width="4.30108" height="5.91398" stroke="#333333"/>
<rect x="84.2473" y="36.8818" width="4.30108" height="5.91398" stroke="#333333"/>
<rect x="32.5967" y="49.7473" width="6.52688" height="9.75269" stroke="#333333"/>
<rect x="55.7151" y="49.7473" width="6.52688" height="9.75269" stroke="#333333"/>
<rect x="78.8333" y="49.7473" width="6.52688" height="9.75269" stroke="#333333"/>
</svg>
