<svg width="40" height="40" viewBox="0 0 40 40" fill="none" xmlns="http://www.w3.org/2000/svg">
<path d="M27.5678 21.9305C28.2268 22.2128 28.6205 22.7434 28.6205 23.3486C28.6205 24.1499 28.0046 24.6273 26.9713 24.6273C25.8751 24.6273 25.3661 23.6625 25.2357 23.3673L25.0754 23.0022H23.0225L23.0192 22.9996H21.1166C20.5977 23.866 19.5511 24.6653 18.3348 24.6653C16.1392 24.6653 15.0436 22.9494 14.903 21.2555H23.8772V20.8846C23.8772 20.1824 23.804 19.5218 23.6676 18.9075C23.9244 19.6953 24.5101 20.5117 25.7376 21.0894C26.1858 21.3034 26.8624 21.6221 27.5678 21.9305ZM18.2057 16.5476C20.0423 16.5476 20.9424 17.8149 21.2029 19.105H15.0903C15.4097 17.8123 16.5422 16.5476 18.2057 16.5476ZM36.2142 16.5849V14.2679H34.3065V11.5286H31.9648V14.2679H27.2472C25.0683 14.2692 23.487 15.734 23.487 17.7531C23.487 17.9692 23.5066 18.2032 23.5501 18.4463C22.808 15.8741 20.8511 14.2679 18.2235 14.2679C15.0089 14.2679 12.5523 16.7703 12.346 20.1606V19.4404C12.346 16.5875 10.025 14.2679 7.1728 14.2679C4.32075 14.2679 2 16.5875 2 19.4404V26.8557H4.37076V19.4404C4.37076 17.8961 5.6275 16.6384 7.1728 16.6384C8.71776 16.6384 9.9752 17.8961 9.9752 19.4404V26.8557H12.346V21.0861C12.5535 24.489 15.0421 27 18.298 27C20.286 27 22.039 25.8456 23.0321 24.5088C23.7732 26.0925 25.2209 27 27.0086 27C29.0816 27 31.1796 25.6762 31.1796 23.1454C31.1796 21.6301 30.2994 20.392 28.7017 19.6577C28.4973 19.5647 28.3324 19.4864 28.1744 19.4115L28.1528 19.4005C27.9743 19.3162 27.8011 19.235 27.5875 19.1377C26.5433 18.669 26.046 18.3252 26.046 17.6409C26.046 17.0385 26.5843 16.5849 27.2501 16.5849H31.9648V23.189C31.9648 25.2912 33.6743 27 35.7758 27V24.6585C34.9655 24.6585 34.3065 23.999 34.3065 23.189V16.5849C35.2433 16.5861 35.9654 16.5849 36.2142 16.5849Z" fill="#333333"/>
<path d="M37.3004 26.0764H37.1974V26.23H37.3004C37.3506 26.23 37.3859 26.201 37.3859 26.1486C37.3859 26.098 37.3464 26.0764 37.3004 26.0764ZM37.3859 26.6247L37.289 26.3925H37.1986V26.6247H37.017V25.9142H37.3004C37.4488 25.9142 37.5679 25.9956 37.5679 26.1554C37.5679 26.2364 37.5347 26.3176 37.4584 26.3575L37.5743 26.6247H37.3859ZM37.2779 25.7323C36.9578 25.7323 36.7405 25.9667 36.7405 26.2824C36.7405 26.6006 36.9555 26.8336 37.2779 26.8336C37.5963 26.8336 37.8155 26.5964 37.8155 26.2824C37.8155 25.9667 37.5985 25.7323 37.2779 25.7323ZM37.2779 27C36.8593 27 36.5566 26.7013 36.5566 26.2824C36.5566 25.8656 36.8635 25.5655 37.2779 25.5655C37.6921 25.5655 37.9997 25.8675 37.9997 26.2824C37.9997 26.7013 37.6947 27 37.2779 27Z" fill="#333333"/>
</svg>
