<svg width="24" height="24" viewBox="0 0 24 24" fill="none" xmlns="http://www.w3.org/2000/svg">
<g clip-path="url(#clip0_104_25434)">
<path d="M8.70996 15.567C9.59561 14.7211 10.7732 14.249 11.998 14.249C13.2228 14.249 14.4004 14.7211 15.2861 15.567" stroke="#ffffff" stroke-linecap="round" stroke-linejoin="round"/>
<path d="M5.5293 12.3851C7.25895 10.6951 9.58115 9.74902 11.9993 9.74902C14.4175 9.74902 16.7397 10.6951 18.4693 12.3851" stroke="#ffffff" stroke-linecap="round" stroke-linejoin="round"/>
<path d="M2.35059 9.20308C4.92321 6.66928 8.38923 5.24902 12.0001 5.24902C15.611 5.24902 19.077 6.66928 21.6497 9.20308" stroke="#ffffff" stroke-linecap="round" stroke-linejoin="round"/>
<path d="M12 19.875C12.6213 19.875 13.125 19.3713 13.125 18.75C13.125 18.1287 12.6213 17.625 12 17.625C11.3787 17.625 10.875 18.1287 10.875 18.75C10.875 19.3713 11.3787 19.875 12 19.875Z" fill="#ffffff"/>
</g>
<defs>
<clipPath id="clip0_104_25434">
<rect width="24" height="24" fill="white"/>
</clipPath>
</defs>
</svg>