<svg width="38" height="10" viewBox="0 0 38 10" fill="none" xmlns="http://www.w3.org/2000/svg">
<path d="M4.97015 9.36149C1.99078 9.36048 0 7.24909 0 4.68908C0 2.12907 1.99533 -0.00654512 4.9656 1.5077e-05H33.0344C36.0047 -0.00654586 38 2.12907 38 4.68908C38 7.24909 36.0092 9.36048 33.0299 9.36149H4.97015ZM4.97923 1.15159C2.62057 1.15613 1.17277 2.73261 1.17277 4.68303C1.17277 6.63293 2.61148 8.22254 4.97923 8.21396H33.0208C35.3885 8.22203 36.8277 6.63293 36.8277 4.68303C36.8277 2.73312 35.3799 1.15664 33.0213 1.1521L4.97923 1.15159ZM34.5291 2.79771C34.7436 2.79771 34.8501 2.87038 34.8501 3.0142C34.8501 3.11311 34.7885 3.1878 34.6861 3.21353L34.8541 3.54911H34.6507L34.5069 3.24129H34.4176V3.54911H34.2344V2.79771H34.5291ZM34.5125 2.50401C34.138 2.50401 33.8342 2.8078 33.8342 3.18224C33.8342 3.55668 34.138 3.86047 34.5125 3.86047C34.8869 3.86047 35.1907 3.55668 35.1907 3.18224C35.1907 2.8078 34.8869 2.50401 34.5125 2.50401ZM35.061 3.18275C35.061 3.48553 34.8153 3.73129 34.5125 3.73129C34.2097 3.73129 33.9639 3.48553 33.9639 3.18275C33.9639 2.87997 34.2097 2.63421 34.5125 2.63421C34.8153 2.63421 35.061 2.87946 35.061 3.18275ZM34.4176 3.13127H34.5069C34.6114 3.13127 34.6618 3.09948 34.6618 3.0248C34.6618 2.94658 34.6078 2.91277 34.4978 2.91277H34.4176V3.13127ZM19.0888 4.96764C19.0868 4.71078 19.0924 4.5392 19.1766 4.39286C19.2801 4.2122 19.4703 4.12642 19.6429 4.12541H19.6424C19.815 4.12642 20.0052 4.2122 20.1087 4.39286C20.1929 4.53971 20.1965 4.71129 20.1945 4.96815L19.0888 4.96764ZM20.1899 5.85126C20.1899 5.85126 20.1909 5.86438 20.1909 6.02889C20.1909 6.56481 19.8382 6.6839 19.6424 6.6839C19.4466 6.6839 19.0878 6.56481 19.0878 6.02889C19.0878 5.86842 19.0888 5.42383 19.0888 5.42383C19.0888 5.42383 21.5852 5.42484 21.5852 5.42331C21.5852 4.51446 20.7077 3.76155 19.6298 3.76155C18.5519 3.76155 17.6784 4.49831 17.6784 5.40716C17.6784 6.31601 18.5519 7.05227 19.6298 7.05227C20.524 7.05227 21.2794 6.54209 21.5101 5.85023L20.1899 5.85126ZM24.3597 3.81051C24.8553 3.79638 25.8605 4.12086 25.8534 5.28102C25.8524 5.48691 25.8529 6.87566 25.8529 6.87566H24.5363C24.5363 6.87566 24.5363 5.13417 24.5363 4.95099C24.5363 4.69564 24.2921 4.41153 23.9308 4.41153C23.57 4.41153 23.3015 4.69564 23.3015 4.95099C23.3015 5.07614 23.303 6.87566 23.303 6.87566H21.9874L21.9884 3.94525L23.3035 3.94424C23.3035 3.94424 23.302 4.1799 23.3035 4.25257C23.5568 4.01085 23.9222 3.82313 24.3597 3.81051H24.3597ZM13.5898 3.81051C14.0854 3.79638 15.0906 4.12086 15.0835 5.28102C15.0825 5.48691 15.083 6.87566 15.083 6.87566H13.7664C13.7664 6.87566 13.7664 5.13417 13.7664 4.95099C13.7664 4.69564 13.5222 4.41153 13.1609 4.41153C12.8 4.41153 12.5316 4.69564 12.5316 4.95099C12.5316 5.07614 12.5331 6.87566 12.5331 6.87566H11.2175L11.217 3.94525L12.5336 3.94424C12.5336 3.94424 12.5321 4.1799 12.5336 4.25257C12.7869 4.01085 13.1518 3.82313 13.5898 3.81051H13.5898ZM28.7097 2.4697H30.0177V6.87667H28.7077C28.7077 6.87667 28.7071 6.73437 28.7071 6.70712C28.2 7.02554 27.6277 7.02504 27.1821 6.81713C27.0625 6.76162 26.2758 6.38415 26.2758 5.36428C26.2758 4.59068 27.0055 3.74592 27.9608 3.82969C28.2752 3.85744 28.4987 3.97199 28.7107 4.09109C28.7097 3.41286 28.7097 2.4697 28.7097 2.4697H28.7097ZM28.7193 5.39658C28.7193 5.39658 28.7193 5.0292 28.7193 4.87277C28.7193 4.41961 28.4064 4.30405 28.2005 4.30405C27.9896 4.30405 27.6807 4.41961 27.6807 4.87277C27.6807 5.02315 27.6812 5.39507 27.6812 5.39507C27.6812 5.39507 27.6807 5.76042 27.6807 5.91635C27.6807 6.36901 27.9896 6.4876 28.2 6.4876C28.4064 6.4876 28.7198 6.36901 28.7198 5.91635C28.7198 5.72812 28.7192 5.39658 28.7192 5.39658H28.7193ZM32.9183 5.388C32.9183 5.388 32.9178 5.83107 32.9178 6.0087C32.9178 6.476 32.6418 6.66876 32.3763 6.66876C32.1104 6.66876 31.8333 6.476 31.8333 6.0087C31.8333 5.83107 31.8339 5.3769 31.8339 5.3769C31.8339 5.3769 31.8349 4.94342 31.8349 4.76579C31.8349 4.30052 32.1124 4.10926 32.3764 4.10926C32.6408 4.10926 32.9178 4.30052 32.9178 4.76579C32.9178 4.94342 32.9173 5.27193 32.9188 5.38951L32.9183 5.388ZM32.3859 3.74592C31.3161 3.74592 30.4492 4.48269 30.4492 5.39153C30.4492 6.30038 31.3166 7.03715 32.3859 7.03715C33.4558 7.03715 34.3227 6.30038 34.3227 5.39153C34.3227 4.48269 33.4558 3.74592 32.3859 3.74592ZM9.15912 3.36946V2.46869H10.4873V3.36946H9.15912ZM9.16215 6.87667V3.94575L10.4873 3.94627V6.87669L9.16215 6.87667ZM15.8107 6.87667L15.8112 3.95181H15.0906V3.51682L15.8117 3.5163L15.8107 2.92284H17.1369V3.51579H17.8545V3.9518H17.1369L17.1379 6.87666L15.8107 6.87667ZM3.76912 6.87667L3.76962 2.4697H5.14273L7.04218 5.54292L7.04117 2.4697H8.40368V6.87667H7.04319L5.13365 3.80345V6.87667H3.76912Z" fill="#333333"/>
</svg>
