<svg width="40" height="40" viewBox="0 0 40 40" fill="none" xmlns="http://www.w3.org/2000/svg">
<path d="M5.97015 24.3615C2.99078 24.3605 1 22.2491 1 19.6891C1 17.1291 2.99533 14.9935 5.9656 15H34.0344C37.0047 14.9935 39 17.1291 39 19.6891C39 22.2491 37.0092 24.3605 34.0299 24.3615H5.97015ZM5.97923 16.1516C3.62057 16.1561 2.17277 17.7326 2.17277 19.683C2.17277 21.6329 3.61148 23.2225 5.97923 23.214H34.0208C36.3885 23.222 37.8277 21.6329 37.8277 19.683C37.8277 17.7331 36.3799 16.1566 34.0213 16.1521L5.97923 16.1516ZM35.5291 17.7977C35.7436 17.7977 35.8501 17.8704 35.8501 18.0142C35.8501 18.1131 35.7885 18.1878 35.6861 18.2135L35.8541 18.5491H35.6507L35.5069 18.2413H35.4176V18.5491H35.2344V17.7977H35.5291ZM35.5125 17.504C35.138 17.504 34.8342 17.8078 34.8342 18.1822C34.8342 18.5567 35.138 18.8605 35.5125 18.8605C35.8869 18.8605 36.1907 18.5567 36.1907 18.1822C36.1907 17.8078 35.8869 17.504 35.5125 17.504ZM36.061 18.1827C36.061 18.4855 35.8153 18.7313 35.5125 18.7313C35.2097 18.7313 34.9639 18.4855 34.9639 18.1827C34.9639 17.88 35.2097 17.6342 35.5125 17.6342C35.8153 17.6342 36.061 17.8795 36.061 18.1827ZM35.4176 18.1313H35.5069C35.6114 18.1313 35.6618 18.0995 35.6618 18.0248C35.6618 17.9466 35.6078 17.9128 35.4978 17.9128H35.4176V18.1313ZM20.0888 19.9676C20.0868 19.7108 20.0924 19.5392 20.1766 19.3929C20.2801 19.2122 20.4703 19.1264 20.6429 19.1254H20.6424C20.815 19.1264 21.0052 19.2122 21.1087 19.3929C21.1929 19.5397 21.1965 19.7113 21.1945 19.9681L20.0888 19.9676ZM21.1899 20.8513C21.1899 20.8513 21.1909 20.8644 21.1909 21.0289C21.1909 21.5648 20.8382 21.6839 20.6424 21.6839C20.4466 21.6839 20.0878 21.5648 20.0878 21.0289C20.0878 20.8684 20.0888 20.4238 20.0888 20.4238C20.0888 20.4238 22.5852 20.4248 22.5852 20.4233C22.5852 19.5145 21.7077 18.7615 20.6298 18.7615C19.5519 18.7615 18.6784 19.4983 18.6784 20.4072C18.6784 21.316 19.5519 22.0523 20.6298 22.0523C21.524 22.0523 22.2794 21.5421 22.5101 20.8502L21.1899 20.8513ZM25.3597 18.8105C25.8553 18.7964 26.8605 19.1209 26.8534 20.281C26.8524 20.4869 26.8529 21.8757 26.8529 21.8757H25.5363C25.5363 21.8757 25.5363 20.1342 25.5363 19.951C25.5363 19.6956 25.2921 19.4115 24.9308 19.4115C24.57 19.4115 24.3015 19.6956 24.3015 19.951C24.3015 20.0761 24.303 21.8757 24.303 21.8757H22.9874L22.9884 18.9453L24.3035 18.9442C24.3035 18.9442 24.302 19.1799 24.3035 19.2526C24.5568 19.0109 24.9222 18.8231 25.3597 18.8105H25.3597ZM14.5898 18.8105C15.0854 18.7964 16.0906 19.1209 16.0835 20.281C16.0825 20.4869 16.083 21.8757 16.083 21.8757H14.7664C14.7664 21.8757 14.7664 20.1342 14.7664 19.951C14.7664 19.6956 14.5222 19.4115 14.1609 19.4115C13.8 19.4115 13.5316 19.6956 13.5316 19.951C13.5316 20.0761 13.5331 21.8757 13.5331 21.8757H12.2175L12.217 18.9453L13.5336 18.9442C13.5336 18.9442 13.5321 19.1799 13.5336 19.2526C13.7869 19.0109 14.1518 18.8231 14.5898 18.8105H14.5898ZM29.7097 17.4697H31.0177V21.8767H29.7077C29.7077 21.8767 29.7071 21.7344 29.7071 21.7071C29.2 22.0255 28.6277 22.025 28.1821 21.8171C28.0625 21.7616 27.2758 21.3841 27.2758 20.3643C27.2758 19.5907 28.0055 18.7459 28.9608 18.8297C29.2752 18.8574 29.4987 18.972 29.7107 19.0911C29.7097 18.4129 29.7097 17.4697 29.7097 17.4697H29.7097ZM29.7193 20.3966C29.7193 20.3966 29.7193 20.0292 29.7193 19.8728C29.7193 19.4196 29.4064 19.304 29.2005 19.304C28.9896 19.304 28.6807 19.4196 28.6807 19.8728C28.6807 20.0231 28.6812 20.3951 28.6812 20.3951C28.6812 20.3951 28.6807 20.7604 28.6807 20.9164C28.6807 21.369 28.9896 21.4876 29.2 21.4876C29.4064 21.4876 29.7198 21.369 29.7198 20.9164C29.7198 20.7281 29.7192 20.3966 29.7192 20.3966H29.7193ZM33.9183 20.388C33.9183 20.388 33.9178 20.8311 33.9178 21.0087C33.9178 21.476 33.6418 21.6688 33.3763 21.6688C33.1104 21.6688 32.8333 21.476 32.8333 21.0087C32.8333 20.8311 32.8339 20.3769 32.8339 20.3769C32.8339 20.3769 32.8349 19.9434 32.8349 19.7658C32.8349 19.3005 33.1124 19.1093 33.3764 19.1093C33.6408 19.1093 33.9178 19.3005 33.9178 19.7658C33.9178 19.9434 33.9173 20.2719 33.9188 20.3895L33.9183 20.388ZM33.3859 18.7459C32.3161 18.7459 31.4492 19.4827 31.4492 20.3915C31.4492 21.3004 32.3166 22.0371 33.3859 22.0371C34.4558 22.0371 35.3227 21.3004 35.3227 20.3915C35.3227 19.4827 34.4558 18.7459 33.3859 18.7459ZM10.1591 18.3695V17.4687H11.4873V18.3695H10.1591ZM10.1621 21.8767V18.9458L11.4873 18.9463V21.8767L10.1621 21.8767ZM16.8107 21.8767L16.8112 18.9518H16.0906V18.5168L16.8117 18.5163L16.8107 17.9228H18.1369V18.5158H18.8545V18.9518H18.1369L18.1379 21.8767L16.8107 21.8767ZM4.76912 21.8767L4.76962 17.4697H6.14273L8.04218 20.5429L8.04117 17.4697H9.40368V21.8767H8.04319L6.13365 18.8034V21.8767H4.76912Z" fill="#333333"/>
</svg>
