<svg xmlns="http://www.w3.org/2000/svg" width="64" height="40" fill="none">
<path fill="#F8F8F8" d="M32 40c17.673 0 32-3.134 32-7s-14.327-7-32-7c-17.673 0-32 3.134-32 7s14.327 7 32 7Z"/>
<path fill="#EBEDEE" d="M54 21v-7.862L44.049 1.857l-.044-.071C43.699 1.294 43.288 1 42.907 1H21.093c-.382 0-.792.294-1.098.785l-.044.07L10 13.14V21h44Zm1 1H9v-9.239L19.146 1.257C19.633.474 20.344 0 21.093 0h21.814c.749 0 1.46.474 1.947 1.258L55 12.76V22Z"/>
<path fill="#FCFCFC" d="M52.05 34.5h-40.1c-.628 0-1.227-.333-1.688-.939-.492-.644-.762-1.505-.762-2.424V13.5h10.66c.936 0 1.727 1.112 1.727 2.428v.022c0 1.875 1.228 3.401 2.737 3.401h14.752c1.51 0 2.737-1.531 2.737-3.413v-.007c0-1.317.791-2.43 1.727-2.431H54.5v17.637c0 .92-.27 1.78-.761 2.425-.462.605-1.061.938-1.689.938Z"/>
<path fill="#EBEDEE" d="M10 14v17.137c0 1.552.893 2.863 1.95 2.863h40.1c1.057 0 1.95-1.311 1.95-2.863V14H43.84c-.37 0-.647.293-.779.467-.285.377-.448.91-.448 1.464v.007c0 .995-.307 1.943-.863 2.667-.608.792-1.474 1.246-2.374 1.246H24.624c-.9 0-1.764-.451-2.372-1.237-.558-.723-.865-1.669-.865-2.664v-.022c0-1.136-.647-1.928-1.227-1.928H10Zm-1-1h11.16c1.233 0 2.227 1.323 2.227 2.928v.022c0 1.605 1.005 2.901 2.237 2.901h14.752c1.232 0 2.237-1.308 2.237-2.913v-.007c0-1.605.994-2.93 2.227-2.931H55v18.137C55 33.26 53.68 35 52.05 35h-40.1C10.32 35 9 33.259 9 31.137V13Z"/>
</svg>