<svg width="40" height="40" viewBox="0 0 40 40" fill="none" xmlns="http://www.w3.org/2000/svg">
<path d="M13.8491 23.5898C13.602 23.5529 13.333 23.489 13.0945 23.4105L12.8227 23.3211L12.5469 23.387C12.1347 23.4856 11.7999 23.5293 11.4599 23.529C11.1022 23.5286 10.8601 23.4836 10.6434 23.3772C10.5045 23.309 10.278 23.1075 10.278 23.052C10.278 23.0404 10.3781 23.0652 10.5004 23.107C10.6976 23.1746 10.7645 23.1844 11.0913 23.1938C11.4544 23.2042 11.8658 23.1573 12.167 23.0711L12.2641 23.0433L12.0399 22.8935C11.5975 22.5979 11.2199 22.2165 10.9131 21.7553L10.7388 21.4934L10.6077 21.6791C10.3489 22.0457 10.1763 22.4787 10.1763 22.7615C10.1763 22.862 10.1717 22.8711 10.1362 22.8417C9.97631 22.709 9.9031 22.2948 9.98362 21.9783C10.0381 21.7642 10.2015 21.4356 10.3712 21.1991L10.5065 21.0105L10.4202 20.7625C10.2799 20.3594 10.2224 20.0371 10.208 19.5719C10.2001 19.3187 10.2072 19.0641 10.2264 18.9111C10.3615 17.8316 10.9347 16.8148 11.7923 16.1333C11.9817 15.9828 11.9859 15.981 12.0416 16.0249C12.1976 16.1481 13.0991 16.9341 13.0978 16.9458C13.097 16.9532 13.0149 17.0108 12.9155 17.0737C12.6959 17.2125 12.3368 17.5595 12.176 17.7881C11.9601 18.095 11.7922 18.4835 11.7117 18.862C11.6638 19.0875 11.6374 19.5154 11.6615 19.6762L11.6796 19.797L11.7604 19.7319C11.8048 19.6961 11.9727 19.5653 12.1334 19.4413C13.019 18.7582 14.268 18.0881 15.2051 17.7934C15.3748 17.74 15.5137 17.6894 15.5138 17.6808C15.514 17.6505 15.2083 17.5286 15.0002 17.4759C14.7306 17.4077 14.3839 17.4221 14.0661 17.5148L13.851 17.5775L13.5621 17.3338L13.2733 17.09L13.3705 17.0308C13.4883 16.9592 13.7891 16.8408 14.0143 16.7776C14.1461 16.7405 14.2719 16.7311 14.637 16.7308C15.0386 16.7306 15.119 16.7376 15.2949 16.7886C15.7011 16.9062 16.0461 17.0902 16.3461 17.3492L16.4832 17.4676L16.9962 17.4689C17.5457 17.4704 17.6382 17.486 17.9103 17.6238C18.0496 17.6944 18.2115 17.847 18.2728 17.9655L18.3148 18.0468L18.2297 17.9949C18.0043 17.8575 17.638 17.8022 17.1921 17.8382C16.7814 17.8714 16.7969 17.861 16.8996 18.0343C17.1275 18.4192 17.2256 18.8096 17.2237 19.3231C17.2225 19.6217 17.2116 19.7198 17.156 19.9331C16.9918 20.5626 16.5916 21.1339 16.079 21.4704L15.8851 21.5977L15.8202 21.5385C15.7845 21.506 15.6581 21.3953 15.5393 21.2925C15.4205 21.1898 15.3205 21.0992 15.3171 21.0913C15.3138 21.0833 15.3575 21.0503 15.4143 21.0178C15.7061 20.8511 16.0982 20.3703 16.2473 19.9962C16.5056 19.3484 16.4291 18.575 16.0653 18.1541L15.9789 18.0542L15.6243 18.1719C14.5799 18.5188 13.4076 19.1465 12.4232 19.8858C12.268 20.0024 12.0679 20.1649 11.9786 20.2471L11.8162 20.3964L11.9347 20.6349C12.317 21.4046 13.0456 21.9442 13.9762 22.1466C14.2475 22.2056 14.8407 22.2059 15.1072 22.1472C15.3834 22.0863 15.6535 21.9925 15.88 21.8787L16.0784 21.779L16.5999 22.2271L17.1214 22.6752L17.0611 22.724C16.8371 22.9055 16.155 23.2472 15.7393 23.3861C15.2559 23.5477 15.029 23.5841 14.4464 23.5931C14.1598 23.5976 13.891 23.5961 13.8491 23.5898ZM7.17712 21.1516C6.19158 20.2936 5.37665 19.5912 5.36616 19.5907C5.35568 19.5903 5.3471 20.2876 5.3471 21.1404V22.6908H4.67355H4V19.817V16.9431L4.2224 17.1319C4.34472 17.2357 5.15908 17.9284 6.03209 18.6713C6.9051 19.4142 7.62853 20.022 7.63971 20.022C7.6509 20.022 7.66005 19.3243 7.66005 18.4716V16.9212H8.3336H9.00715V19.8187C9.00715 21.4123 8.99857 22.7152 8.98809 22.714C8.9776 22.7128 8.16267 22.0097 7.17712 21.1516ZM18.5639 19.8187V16.9466L19.6632 16.9471C21.0434 16.9477 21.2259 16.9706 21.7111 17.2042C22.1665 17.4234 22.4193 17.7485 22.5181 18.2417C22.5735 18.5182 22.5568 18.9261 22.4815 19.1394C22.3462 19.5225 22.1002 19.833 21.8111 19.9857L21.6651 20.0628L22.5291 21.366C23.0044 22.0827 23.3932 22.674 23.3932 22.68C23.3932 22.6859 23.0113 22.6908 22.5445 22.6908H21.6959L20.8225 21.1902L19.9492 19.6895L19.9335 20.3832C19.9249 20.7647 19.9163 21.44 19.9144 21.8838L19.911 22.6908H19.2375H18.5639V19.8187ZM20.5557 19.6538C21.0067 19.5582 21.1994 19.2911 21.1775 18.792C21.1693 18.6061 21.155 18.5383 21.1047 18.4473C20.9769 18.2161 20.7192 18.1156 20.2341 18.1077L19.9492 18.103L19.9424 18.8827C19.9362 19.6095 19.9388 19.6631 19.9806 19.674C20.0789 19.6997 20.3909 19.6887 20.5557 19.6538ZM24.5624 20.4414V18.192H23.8507H23.139V17.5566V16.9212H25.2105H27.282V17.5566V18.192H26.6084H25.9349V20.4414V22.6908H25.2486H24.5624V20.4414ZM28.197 19.806V16.9212H29.8872H31.5774V17.5057V18.0903H30.5735H29.5695V18.6114V19.1324H30.4718H31.3741V19.717V20.3016H30.4718H29.5695V20.9116V21.5216H30.6624H31.7554V22.1062V22.6908H29.9762H28.197V19.806ZM32.8229 19.806V16.9212H33.5091H34.1954V19.1706V21.42H35.0977H36V22.0554V22.6908H34.4114H32.8229V19.806Z" fill="#333333"/>
</svg>
