<svg width="32" height="8" viewBox="0 0 32 8" fill="none" xmlns="http://www.w3.org/2000/svg">
<path d="M9.84909 7.58985C9.60203 7.5529 9.33305 7.48896 9.09445 7.41046L8.82274 7.32108L8.54692 7.38703C8.13474 7.48558 7.79992 7.52931 7.45989 7.52898C7.10224 7.52864 6.86013 7.48364 6.64343 7.37724C6.5045 7.30902 6.278 7.10746 6.278 7.05204C6.278 7.0404 6.37808 7.06515 6.5004 7.10704C6.69763 7.17459 6.7645 7.1844 7.09134 7.19378C7.45437 7.2042 7.86582 7.15726 8.16698 7.07107L8.26407 7.04328L8.0399 6.8935C7.59754 6.59792 7.21988 6.21645 6.91308 5.75533L6.73881 5.49339L6.60773 5.67907C6.3489 6.04572 6.17633 6.47874 6.17633 6.76153C6.17633 6.86197 6.17174 6.87114 6.13622 6.84167C5.97631 6.70895 5.9031 6.29482 5.98362 5.97835C6.03811 5.76418 6.20154 5.4356 6.37122 5.19911L6.50652 5.01052L6.4202 4.76253C6.27987 4.35938 6.22242 4.03706 6.20799 3.57194C6.20013 3.31867 6.2072 3.0641 6.22636 2.9111C6.3615 1.83161 6.93473 0.814755 7.7923 0.133275C7.98166 -0.0171996 7.98591 -0.0190474 8.04161 0.0249382C8.19759 0.148098 9.09908 0.934076 9.09779 0.945774C9.09697 0.953203 9.01493 1.01075 8.91547 1.07366C8.69593 1.21251 8.33677 1.55952 8.17597 1.78813C7.96015 2.09498 7.7922 2.48347 7.71172 2.86204C7.66378 3.08751 7.63738 3.51543 7.66149 3.67618L7.6796 3.79696L7.76037 3.73188C7.8048 3.69608 7.97268 3.56533 8.13344 3.44131C9.019 2.75816 10.268 2.08808 11.2051 1.79339C11.3748 1.74003 11.5137 1.68936 11.5138 1.68078C11.514 1.65052 11.2083 1.52857 11.0002 1.47592C10.7306 1.40771 10.3839 1.42214 10.0661 1.5148L9.85099 1.5775L9.56212 1.33377L9.27326 1.09004L9.37054 1.03083C9.48825 0.959188 9.78907 0.840837 10.0143 0.777551C10.1461 0.740508 10.2719 0.731069 10.637 0.730829C11.0386 0.730565 11.119 0.737625 11.2949 0.788574C11.7011 0.906245 12.0461 1.09022 12.3461 1.34922L12.4832 1.46762L12.9962 1.46894C13.5457 1.47036 13.6382 1.48603 13.9103 1.62383C14.0496 1.69438 14.2115 1.84695 14.2728 1.96554L14.3148 2.04678L14.2297 1.99489C14.0043 1.85753 13.638 1.80222 13.1921 1.83821C12.7814 1.87136 12.7969 1.86097 12.8996 2.0343C13.1275 2.41917 13.2256 2.8096 13.2237 3.32306C13.2225 3.6217 13.2116 3.71976 13.156 3.93307C12.9918 4.56263 12.5916 5.13387 12.079 5.47038L11.8851 5.59772L11.8202 5.53853C11.7845 5.50598 11.6581 5.39528 11.5393 5.29252C11.4205 5.18976 11.3205 5.0992 11.3171 5.09126C11.3138 5.08333 11.3575 5.05028 11.4143 5.01783C11.7061 4.85112 12.0982 4.37025 12.2473 3.9962C12.5056 3.34844 12.4291 2.57498 12.0653 2.15406L11.9789 2.05417L11.6243 2.17195C10.5799 2.51882 9.40755 3.14646 8.42315 3.8858C8.26796 4.00236 8.06791 4.16493 7.97861 4.24706L7.81625 4.3964L7.93472 4.63495C8.31695 5.40462 9.0456 5.94416 9.97617 6.14658C10.2475 6.2056 10.8407 6.20591 11.1072 6.14718C11.3834 6.08632 11.6535 5.9925 11.88 5.87869L12.0784 5.77902L12.5999 6.22709L13.1214 6.67516L13.0611 6.724C12.8371 6.90549 12.155 7.24718 11.7393 7.38613C11.2559 7.54773 11.029 7.58406 10.4464 7.59314C10.1598 7.5976 9.89102 7.59612 9.84909 7.58985ZM3.17712 5.15165C2.19158 4.2936 1.37665 3.59119 1.36616 3.59075C1.35568 3.5903 1.3471 4.28764 1.3471 5.14038V6.69081H0.67355H0V3.81697V0.943122L0.222399 1.13188C0.344718 1.2357 1.15908 1.92845 2.03209 2.67133C2.9051 3.41422 3.62853 4.02203 3.63971 4.02203C3.6509 4.02203 3.66005 3.32433 3.66005 2.47159V0.921156H4.3336H5.00715V3.81869C5.00715 5.41234 4.99857 6.71522 4.98809 6.71399C4.9776 6.71275 4.16267 6.0097 3.17712 5.15165ZM14.5639 3.81869V0.946573L15.6632 0.947076C17.0434 0.947709 17.2259 0.970623 17.7111 1.20421C18.1665 1.42343 18.4193 1.7485 18.5181 2.24167C18.5735 2.51818 18.5568 2.92608 18.4815 3.13943C18.3462 3.52246 18.1002 3.83297 17.8111 3.98568L17.6651 4.0628L18.5291 5.36598C19.0044 6.08273 19.3932 6.67403 19.3932 6.67999C19.3932 6.68594 19.0113 6.69081 18.5445 6.69081H17.6959L16.8225 5.19015L15.9492 3.68949L15.9335 4.38316C15.9249 4.76468 15.9163 5.43998 15.9144 5.88382L15.911 6.69081H15.2375H14.5639V3.81869ZM16.5557 3.65376C17.0067 3.55822 17.1994 3.29114 17.1775 2.79199C17.1693 2.60608 17.155 2.53827 17.1047 2.4473C16.9769 2.21608 16.7192 2.11557 16.2341 2.10768L15.9492 2.10305L15.9424 2.88268C15.9362 3.60949 15.9388 3.66312 15.9806 3.67402C16.0789 3.69966 16.3909 3.68868 16.5557 3.65376ZM20.5624 4.44141V2.19201H19.8507H19.139V1.55658V0.921156H21.2105H23.282V1.55658V2.19201H22.6084H21.9349V4.44141V6.69081H21.2486H20.5624V4.44141ZM24.197 3.80598V0.921156H25.8872H27.5774V1.50575V2.09034H26.5735H25.5695V2.61139V3.13243H26.4718H27.3741V3.71703V4.30162H26.4718H25.5695V4.91162V5.52163H26.6624H27.7554V6.10622V6.69081H25.9762H24.197V3.80598ZM28.8229 3.80598V0.921156H29.5091H30.1954V3.17056V5.41996H31.0977H32V6.05539V6.69081H30.4114H28.8229V3.80598Z" fill="#333333"/>
</svg>
