<svg width="24" height="24" viewBox="0 0 24 24" fill="none" xmlns="http://www.w3.org/2000/svg">
<path d="M9 21H15" stroke="#333333" stroke-linecap="round" stroke-linejoin="round"/>
<path d="M6.00061 9.00041C6.00061 6.00024 8.25061 3.00024 12.0006 3.00024C15.7506 3.00024 17.9818 6.00024 17.9818 9.00041V10.5004C17.9818 13.8581 19.4343 15.8065 20.0531 16.8714C20.1197 16.9852 20.1552 17.1146 20.1559 17.2464C20.1566 17.3783 20.1225 17.508 20.0571 17.6225C19.9916 17.737 19.8972 17.8322 19.7832 17.8986C19.6692 17.9649 19.5398 18 19.4079 18.0004H4.59234C4.46046 18 4.33099 17.9649 4.21701 17.8985C4.10303 17.8322 4.00856 17.737 3.94313 17.6224C3.87771 17.5079 3.84364 17.3782 3.84437 17.2463C3.8451 17.1144 3.8806 16.9851 3.94728 16.8713C4.56634 15.8063 6.01916 13.8579 6.01916 10.5004L6.00061 9.00041Z" stroke="#333333" stroke-linecap="round" stroke-linejoin="round"/>
</svg>
