<svg width="120" height="70" viewBox="0 0 120 70" fill="none" xmlns="http://www.w3.org/2000/svg">
<path d="M34.5 64.5V5.5H64.5V27.0178V64.5H50.9253H34.5Z" fill="white" stroke="#333333"/>
<rect x="38.4053" y="9.76025" width="22.0769" height="4.32544" stroke="#333333"/>
<rect x="38.4053" y="18.281" width="22.0769" height="4.32544" stroke="#333333"/>
<path d="M51.0414 28.0769H37.9053V33.4023H51.0414" stroke="#333333"/>
<path d="M51.0414 37.6626H37.9053V42.988H51.0414" stroke="#333333"/>
<path d="M51.0414 47.9585H37.9053V53.2839H51.0414" stroke="#333333"/>
<path d="M51.0414 56.4792H37.9053V61.8047H51.0414" stroke="#333333"/>
<rect x="51.1863" y="27.1567" width="32.3728" height="37.3432" fill="white" stroke="#333333"/>
<rect x="55.8018" y="33.9023" width="4.68047" height="4.32544" stroke="#333333"/>
<rect x="64.6775" y="33.9023" width="4.68047" height="4.32544" stroke="#333333"/>
<rect x="73.5532" y="33.9023" width="4.68047" height="4.32544" stroke="#333333"/>
<rect x="55.8018" y="43.4883" width="4.68047" height="4.32544" stroke="#333333"/>
<rect x="64.6775" y="43.4883" width="4.68047" height="4.32544" stroke="#333333"/>
<rect x="73.5532" y="43.4883" width="4.68047" height="4.32544" stroke="#333333"/>
<rect x="56.512" y="54.8491" width="21.7219" height="9.65089" stroke="#333333"/>
</svg>
