<svg width="49" height="47" viewBox="0 0 49 47" fill="none" xmlns="http://www.w3.org/2000/svg">
<g id="Group 11722">
<ellipse id="Ellipse 4691" cx="24.4196" cy="23.5005" rx="23.9196" ry="23.5" fill="url(#paint0_linear_40238_41924)"/>
<g id="Logo">
<g id="dog">
<g id="Union">
<path d="M27.0223 13.9718C27.0455 13.8665 27.0577 13.7572 27.0577 13.6451C27.0577 12.7956 26.3568 12.1069 25.4921 12.1069C24.6274 12.1069 23.9264 12.7956 23.9264 13.6451C23.9264 13.7258 23.9327 13.8051 23.9449 13.8824L16.9376 15.9611C16.6682 15.4965 16.1595 15.1833 15.5763 15.1833C14.7116 15.1833 14.0106 15.872 14.0106 16.7215C14.0106 17.0931 14.1448 17.434 14.3682 17.6999L12.9332 19.7982C12.0841 19.8158 11.4012 20.4976 11.4012 21.336C11.4012 22.1855 12.1022 22.8742 12.9669 22.8742C13.0939 22.8742 13.2173 22.8594 13.3356 22.8313L14.1682 23.7391C14.0673 23.9424 14.0106 24.1709 14.0106 24.4124C14.0106 25.2619 14.7116 25.9506 15.5763 25.9506C16.441 25.9506 17.1419 25.2619 17.1419 24.4124C17.1419 23.5629 16.441 22.8742 15.5763 22.8742C15.339 22.8742 15.1141 22.9261 14.9126 23.0188L14.2177 22.2613C14.4154 22.0038 14.5325 21.6833 14.5325 21.336C14.5325 20.8546 14.3074 20.4249 13.955 20.1428L15.2638 18.229C15.3648 18.2491 15.4693 18.2597 15.5763 18.2597C16.352 18.2597 16.9959 17.7055 17.1202 16.9781L24.4591 14.801C24.7348 15.039 25.0963 15.1833 25.4921 15.1833C25.8632 15.1833 26.2042 15.0564 26.4725 14.8445L28.1211 15.9402C28.2402 16.6737 28.887 17.2342 29.6671 17.2342C30.4161 17.2342 31.0423 16.7175 31.1964 16.0271L34.7246 14.6271C35.0118 14.9669 35.445 15.1833 35.9297 15.1833C36.7944 15.1833 37.4954 14.4946 37.4954 13.6451C37.4954 12.7956 36.7944 12.1069 35.9297 12.1069C35.0651 12.1069 34.3641 12.7956 34.3641 13.6451C34.3641 13.6515 34.3641 13.6578 34.3642 13.6642L31.0523 14.9784C30.7898 14.4904 30.268 14.1578 29.6671 14.1578C29.1174 14.1578 28.6339 14.4362 28.3545 14.8572L27.0223 13.9718Z" fill="white"/>
<path d="M37.7563 14.6706C37.7563 15.3299 38.1786 15.8924 38.7719 16.1111L38.7507 17.2644C38.0347 17.4059 37.4954 18.0273 37.4954 18.7724C37.4954 18.9275 37.5188 19.0773 37.5622 19.2185L30.3204 24.4215C30.0335 24.1015 29.6134 23.8997 29.1453 23.8997C28.2806 23.8997 27.5796 24.5883 27.5796 25.4378C27.5796 26.2874 28.2806 26.976 29.1453 26.976C29.5876 26.976 29.9871 26.7958 30.2718 26.506H36.5568C36.5838 26.5745 36.6157 26.6407 36.652 26.7041L35.9865 27.5972C35.8075 27.5272 35.6123 27.4888 35.4079 27.4888C34.7145 27.4888 34.1263 27.9316 33.9205 28.5451L29.5298 28.9088C29.2847 28.3739 28.7374 28.0015 28.1015 28.0015C27.2368 28.0015 26.5358 28.6901 26.5358 29.5397C26.5358 30.052 26.7908 30.5059 27.183 30.7855L27.0784 31.078L27.0577 31.0778C26.193 31.0778 25.4921 31.7665 25.4921 32.616C25.4921 33.4655 26.193 34.1542 27.0577 34.1542C27.9224 34.1542 28.6234 33.4655 28.6234 32.616C28.6234 32.1402 28.4034 31.7148 28.0579 31.4326L28.1855 31.0757C28.8753 31.0398 29.4468 30.5653 29.6161 29.9308L33.9435 29.5723C34.1675 30.1526 34.7387 30.5651 35.4079 30.5651C36.2725 30.5651 36.9735 29.8764 36.9735 29.0269C36.9735 28.7542 36.9012 28.498 36.7745 28.2758L37.441 27.3812C37.6194 27.4506 37.8138 27.4888 38.0173 27.4888C38.882 27.4888 39.5829 26.8001 39.5829 25.9506C39.5829 25.1011 38.882 24.4124 38.0173 24.4124C37.3194 24.4124 36.7282 24.8609 36.5261 25.4806H30.7103C30.7107 25.4664 30.7109 25.4521 30.7109 25.4378C30.7109 25.429 30.7108 25.4202 30.7107 25.4115L38.1807 20.0446C38.4315 20.2124 38.7346 20.3106 39.061 20.3106C39.9257 20.3106 40.6267 19.6219 40.6267 18.7724C40.6267 18.1822 40.2884 17.6697 39.7919 17.4117L39.8155 16.1308C40.4384 15.9277 40.8876 15.3507 40.8876 14.6706C40.8876 13.8211 40.1867 13.1324 39.322 13.1324C38.4573 13.1324 37.7563 13.8211 37.7563 14.6706Z" fill="white"/>
<path d="M10.3575 26.4633C10.3575 26.8249 10.4844 27.1573 10.697 27.4199L9.73784 28.5713C9.60295 28.5341 9.46069 28.5142 9.3137 28.5142C8.44901 28.5142 7.74805 29.2029 7.74805 30.0524C7.74805 30.9019 8.44901 31.5906 9.3137 31.5906C9.76772 31.5906 10.1766 31.4007 10.4626 31.0974L24.9711 36.2574C24.9991 37.0827 25.6889 37.7433 26.5358 37.7433C27.4005 37.7433 28.1015 37.0546 28.1015 36.2051C28.1015 35.3556 27.4005 34.6669 26.5358 34.6669C26.0252 34.6669 25.5717 34.9071 25.2859 35.2787L10.876 30.1538C10.8782 30.1203 10.8793 30.0865 10.8793 30.0524C10.8793 29.7217 10.7731 29.4154 10.5924 29.1646L11.5902 27.9666C11.6975 27.9895 11.8089 28.0015 11.9231 28.0015C12.4949 28.0015 12.9952 27.7003 13.2684 27.2506L16.6452 28.2777C16.7777 28.9954 17.417 29.5397 18.1857 29.5397C19.0504 29.5397 19.7514 28.851 19.7514 28.0015C19.7514 27.6442 19.6274 27.3154 19.4194 27.0543L23.3092 20.8205C23.3408 20.8224 23.3725 20.8233 23.4045 20.8233C24.2692 20.8233 24.9702 20.1346 24.9702 19.2851C24.9702 18.4356 24.2692 17.7469 23.4045 17.7469C22.5399 17.7469 21.8389 18.4356 21.8389 19.2851C21.8389 19.7305 22.0316 20.1317 22.3395 20.4126L18.5393 26.5027C18.4257 26.4769 18.3073 26.4633 18.1857 26.4633C17.5963 26.4633 17.0829 26.7833 16.8158 27.2561L13.4723 26.2391C13.3618 25.4959 12.7103 24.9251 11.9231 24.9251C11.0584 24.9251 10.3575 25.6138 10.3575 26.4633Z" fill="white"/>
</g>
</g>
</g>
</g>
<defs>
<linearGradient id="paint0_linear_40238_41924" x1="156" y1="-6.49952" x2="-108.759" y2="30.0862" gradientUnits="userSpaceOnUse">
<stop stop-color="#F7B605"/>
<stop offset="0.285" stop-color="#F79B06"/>
<stop offset="0.595" stop-color="#F65650"/>
<stop offset="0.83" stop-color="#EC4C9A"/>
<stop offset="0.99" stop-color="#A560FF"/>
</linearGradient>
</defs>
</svg>
