<svg width="48" height="38" viewBox="0 0 48 38" fill="none" xmlns="http://www.w3.org/2000/svg">
<path d="M39.8799 3.15997L44.7845 4.39404L44.6815 10.0828L30.5674 20.4044H42.7241L39.7193 24.5092L29.417 25.3778C29.417 25.3778 28.048 29.5783 26.4247 34.5728L3.15991 26.1509L7.11991 20.8L15.5261 23.3424L23.2013 10.9344L12.5199 19.36L7.66198 13.7277L11.7999 8.19997L18.9999 5.67997L26.2576 3.33804L31.1169 6.62527L39.8799 3.15997Z" fill="#FDE3C9"/>
<path d="M27.5912 3.6188C27.6232 3.47094 27.64 3.31743 27.64 3.16C27.64 1.96706 26.6729 1 25.48 1C24.2871 1 23.32 1.96706 23.32 3.16C23.32 3.27332 23.3287 3.38459 23.3455 3.4932L13.6781 6.41226C13.3064 5.75988 12.6046 5.32 11.8 5.32C10.6071 5.32 9.64 6.28707 9.64 7.48C9.64 8.00191 9.82511 8.48059 10.1332 8.85397L8.15355 11.8005C6.98206 11.8252 6.04 12.7826 6.04 13.96C6.04 15.1529 7.00706 16.12 8.2 16.12C8.3752 16.12 8.54552 16.0991 8.70863 16.0598L9.85738 17.3345C9.71813 17.6201 9.64 17.9409 9.64 18.28C9.64 19.4729 10.6071 20.44 11.8 20.44C12.9929 20.44 13.96 19.4729 13.96 18.28C13.96 17.0871 12.9929 16.12 11.8 16.12C11.4727 16.12 11.1624 16.1928 10.8844 16.3231L9.92569 15.2593C10.1983 14.8977 10.36 14.4477 10.36 13.96C10.36 13.284 10.0495 12.6805 9.56323 12.2844L11.3689 9.59697C11.5082 9.62519 11.6524 9.64 11.8 9.64C12.8701 9.64 13.7585 8.86177 13.9301 7.84038L24.0549 4.78322C24.4352 5.11738 24.9339 5.32 25.48 5.32C25.992 5.32 26.4624 5.14186 26.8326 4.84417L29.1071 6.38283C29.2713 7.41284 30.1637 8.2 31.24 8.2C32.2733 8.2 33.1372 7.47442 33.3498 6.50495L38.2174 4.53897C38.6136 5.01614 39.2113 5.32 39.88 5.32C41.0729 5.32 42.04 4.35294 42.04 3.16C42.04 1.96706 41.0729 1 39.88 1C38.6871 1 37.72 1.96706 37.72 3.16C37.72 3.16894 37.7201 3.17786 37.7202 3.18677L33.151 5.03224C32.7889 4.34699 32.069 3.88 31.24 3.88C30.4816 3.88 29.8145 4.27087 29.4291 4.86214L27.5912 3.6188Z" fill="url(#paint0_linear_1185_10994)"/>
<path d="M42.4 4.6C42.4 5.5259 42.9826 6.31573 43.8012 6.62294L43.7718 8.24243C42.784 8.44108 42.04 9.31366 42.04 10.36C42.04 10.5778 42.0722 10.7882 42.1322 10.9864L32.1413 18.2927C31.7455 17.8434 31.1658 17.56 30.52 17.56C29.3271 17.56 28.36 18.5271 28.36 19.72C28.36 20.9129 29.3271 21.88 30.52 21.88C31.1303 21.88 31.6814 21.6269 32.0742 21.22H40.7451C40.7824 21.3162 40.8264 21.4091 40.8765 21.4981L39.9584 22.7523C39.7114 22.654 39.442 22.6 39.16 22.6C38.2034 22.6 37.392 23.2219 37.1081 24.0834L31.0506 24.5942C30.7124 23.843 29.9573 23.32 29.08 23.32C27.8871 23.32 26.92 24.2871 26.92 25.48C26.92 26.1995 27.2718 26.8369 27.8128 27.2294L27.6686 27.6402L27.64 27.64C26.4471 27.64 25.48 28.6071 25.48 29.8C25.48 30.9929 26.4471 31.96 27.64 31.96C28.8329 31.96 29.8 30.9929 29.8 29.8C29.8 29.1318 29.4965 28.5344 29.0199 28.1382L29.1959 27.6369C30.1476 27.5866 30.936 26.9203 31.1695 26.0293L37.1397 25.5259C37.4488 26.3408 38.2368 26.92 39.16 26.92C40.3529 26.92 41.32 25.9529 41.32 24.76C41.32 24.3769 41.2203 24.0172 41.0454 23.7052L41.965 22.449C42.2111 22.5464 42.4793 22.6 42.76 22.6C43.9529 22.6 44.92 21.6329 44.92 20.44C44.92 19.2471 43.9529 18.28 42.76 18.28C41.7973 18.28 40.9816 18.9099 40.7027 19.78H32.6792C32.6797 19.76 32.68 19.7401 32.68 19.72C32.68 19.7076 32.6799 19.6953 32.6797 19.683L42.9854 12.1464C43.3315 12.3822 43.7497 12.52 44.2 12.52C45.3929 12.52 46.36 11.5529 46.36 10.36C46.36 9.53125 45.8933 8.81152 45.2083 8.4493L45.2409 6.65049C46.1002 6.36529 46.72 5.55503 46.72 4.6C46.72 3.40707 45.7529 2.44 44.56 2.44C43.3671 2.44 42.4 3.40707 42.4 4.6Z" fill="url(#paint1_linear_1185_10994)"/>
<path d="M4.6 21.16C4.6 21.6677 4.77517 22.1345 5.06837 22.5033L3.74516 24.1202C3.55906 24.0679 3.36279 24.04 3.16 24.04C1.96706 24.04 1 25.0071 1 26.2C1 27.3929 1.96706 28.36 3.16 28.36C3.78637 28.36 4.35048 28.0934 4.74501 27.6674L24.7612 34.9134C24.7999 36.0723 25.7516 37 26.92 37C28.1129 37 29.08 36.0329 29.08 34.84C29.08 33.6471 28.1129 32.68 26.92 32.68C26.2155 32.68 25.5898 33.0173 25.1955 33.5391L5.31538 26.3425C5.31844 26.2954 5.32 26.2479 5.32 26.2C5.32 25.7356 5.17346 25.3055 4.92411 24.9533L6.30075 23.2711C6.44876 23.3031 6.60241 23.32 6.76 23.32C7.54891 23.32 8.23903 22.8971 8.61601 22.2656L13.2747 23.7079C13.4575 24.7157 14.3395 25.48 15.4 25.48C16.5929 25.48 17.56 24.5129 17.56 23.32C17.56 22.8183 17.389 22.3566 17.102 21.9899L22.4685 13.2361C22.512 13.2387 22.5558 13.24 22.6 13.24C23.7929 13.24 24.76 12.2729 24.76 11.08C24.76 9.88706 23.7929 8.92 22.6 8.92C21.4071 8.92 20.44 9.88706 20.44 11.08C20.44 11.7054 20.7058 12.2688 21.1306 12.6632L15.8878 21.2153C15.7311 21.1791 15.5678 21.16 15.4 21.16C14.5868 21.16 13.8786 21.6094 13.5101 22.2733L8.89722 20.8452C8.74482 19.8015 7.84601 19 6.76 19C5.56706 19 4.6 19.9671 4.6 21.16Z" fill="url(#paint2_linear_1185_10994)"/>
<defs>
<linearGradient id="paint0_linear_1185_10994" x1="15.4" y1="31.24" x2="42.4" y2="1" gradientUnits="userSpaceOnUse">
<stop stop-color="#A560FF"/>
<stop offset="0.235" stop-color="#EC4C9A"/>
<stop offset="0.53" stop-color="#F65650"/>
<stop offset="0.76" stop-color="#F79B06"/>
<stop offset="0.984904" stop-color="#F7B605"/>
</linearGradient>
<linearGradient id="paint1_linear_1185_10994" x1="15.4" y1="31.24" x2="42.4" y2="1" gradientUnits="userSpaceOnUse">
<stop stop-color="#A560FF"/>
<stop offset="0.235" stop-color="#EC4C9A"/>
<stop offset="0.53" stop-color="#F65650"/>
<stop offset="0.76" stop-color="#F79B06"/>
<stop offset="0.984904" stop-color="#F7B605"/>
</linearGradient>
<linearGradient id="paint2_linear_1185_10994" x1="15.4" y1="31.24" x2="42.4" y2="1" gradientUnits="userSpaceOnUse">
<stop stop-color="#A560FF"/>
<stop offset="0.235" stop-color="#EC4C9A"/>
<stop offset="0.53" stop-color="#F65650"/>
<stop offset="0.76" stop-color="#F79B06"/>
<stop offset="0.984904" stop-color="#F7B605"/>
</linearGradient>
</defs>
</svg>
