<svg width="32" height="32" viewBox="0 0 32 32" fill="none" xmlns="http://www.w3.org/2000/svg">
<path fill-rule="evenodd" clip-rule="evenodd" d="M4.21771 15.0761C4.41297 14.8809 4.72956 14.8809 4.92482 15.0761L6.82958 16.9809C7.02484 17.1762 7.02484 17.4927 6.82958 17.688C6.63432 17.8833 6.31774 17.8833 6.12247 17.688L4.57127 16.1368L3.02006 17.688C2.8248 17.8833 2.50821 17.8833 2.31295 17.688C2.11769 17.4927 2.11769 17.1762 2.31295 16.9809L4.21771 15.0761Z" fill="#5496EA"/>
<path fill-rule="evenodd" clip-rule="evenodd" d="M16.0003 4.5C11.4729 4.5 7.58729 7.25323 5.92875 11.1787L5.00759 10.7895C6.81702 6.50692 11.057 3.5 16.0003 3.5C22.5883 3.5 27.9289 8.8406 27.9289 15.4286H26.9289C26.9289 9.39289 22.036 4.5 16.0003 4.5ZM5.07178 15.4286C5.07178 21.4643 9.96466 26.3571 16.0003 26.3571C20.5278 26.3571 24.4134 23.6039 26.0719 19.6784L26.9931 20.0676C25.1837 24.3502 20.9437 27.3571 16.0003 27.3571C9.41238 27.3571 4.07178 22.0165 4.07178 15.4286H5.07178Z" fill="#5496EA"/>
<path fill-rule="evenodd" clip-rule="evenodd" d="M25.1704 13.1689C25.3656 12.9736 25.6822 12.9736 25.8775 13.1689L27.4287 14.7201L28.9799 13.1689C29.1752 12.9736 29.4917 12.9736 29.687 13.1689C29.8823 13.3642 29.8823 13.6808 29.687 13.876L27.7822 15.7808C27.587 15.976 27.2704 15.976 27.0751 15.7808L25.1704 13.876C24.9751 13.6808 24.9751 13.3642 25.1704 13.1689Z" fill="#5496EA"/>
<path d="M17.5956 20.1203C17.3075 20.1203 17.0876 20.0406 16.936 19.8814C16.7843 19.7222 16.7085 19.4985 16.7085 19.2104V12.8985C16.7085 12.6028 16.7843 12.3791 16.936 12.2275C17.0952 12.0758 17.3188 12 17.607 12H20.3706C21.2652 12 21.9552 12.2161 22.4404 12.6483C22.9257 13.0804 23.1683 13.6832 23.1683 14.4565C23.1683 14.957 23.0584 15.3891 22.8385 15.7531C22.6186 16.117 22.3002 16.3975 21.8832 16.5947C21.4737 16.7918 20.9695 16.8904 20.3706 16.8904L20.4616 16.697H20.9278C21.2463 16.697 21.523 16.7766 21.7581 16.9358C22.0007 17.0875 22.2092 17.3225 22.3836 17.641L23.0887 18.9489C23.1948 19.1384 23.2441 19.3242 23.2365 19.5061C23.229 19.6881 23.1607 19.8359 23.0318 19.9497C22.9029 20.0634 22.7134 20.1203 22.4632 20.1203C22.213 20.1203 22.0083 20.0672 21.8491 19.961C21.6974 19.8549 21.5609 19.6919 21.4396 19.472L20.3478 17.459C20.2341 17.2467 20.0938 17.1026 19.927 17.0268C19.7678 16.951 19.5707 16.9131 19.3356 16.9131H18.4713V19.2104C18.4713 19.4985 18.3955 19.7222 18.2438 19.8814C18.0998 20.0406 17.8837 20.1203 17.5956 20.1203ZM18.4713 15.6393H20.0521C20.5222 15.6393 20.8748 15.5446 21.1098 15.355C21.3524 15.1655 21.4737 14.8811 21.4737 14.502C21.4737 14.1305 21.3524 13.85 21.1098 13.6604C20.8748 13.4709 20.5222 13.3761 20.0521 13.3761H18.4713V15.6393Z" fill="#5496EA"/>
<path d="M12.3195 20.1203C12.0314 20.1203 11.8115 20.0406 11.6599 19.8814C11.5082 19.7222 11.4324 19.4985 11.4324 19.2104V13.4557H9.41942C9.18437 13.4557 9.00241 13.3913 8.87352 13.2624C8.74462 13.1335 8.68018 12.9553 8.68018 12.7279C8.68018 12.4928 8.74462 12.3147 8.87352 12.1933C9.00241 12.0644 9.18437 12 9.41942 12H15.2082C15.4433 12 15.6252 12.0644 15.7541 12.1933C15.883 12.3147 15.9475 12.4928 15.9475 12.7279C15.9475 12.9553 15.883 13.1335 15.7541 13.2624C15.6252 13.3913 15.4433 13.4557 15.2082 13.4557H13.1952V19.2104C13.1952 19.4985 13.1194 19.7222 12.9678 19.8814C12.8237 20.0406 12.6076 20.1203 12.3195 20.1203Z" fill="#5496EA"/>
</svg>
