<svg width="24" height="24" viewBox="0 0 24 24" fill="none" xmlns="http://www.w3.org/2000/svg">
<path d="M2 13.0008L3.42857 11.5723L4.85714 13.0008" stroke="#333333" stroke-linecap="round" stroke-linejoin="round"/>
<path d="M20.5721 11.5714C20.5721 6.83756 16.7345 3 12.0006 3C8.44905 3 5.40198 5.16006 4.10149 8.23809M3.4292 11.5714C3.4292 16.3053 7.26676 20.1429 12.0006 20.1429C15.5522 20.1429 18.5993 17.9828 19.8998 14.9048" stroke="#333333"/>
<path d="M19.1431 10.1416L20.5716 11.5702L22.0002 10.1416" stroke="#333333" stroke-linecap="round" stroke-linejoin="round"/>
<path d="M13.1961 15.0902C12.98 15.0902 12.8151 15.0305 12.7014 14.9111C12.5876 14.7917 12.5308 14.6239 12.5308 14.4078V9.67385C12.5308 9.45207 12.5876 9.28432 12.7014 9.17059C12.8208 9.05686 12.9885 9 13.2046 9H15.2773C15.9483 9 16.4658 9.16206 16.8297 9.48619C17.1937 9.81032 17.3756 10.2624 17.3756 10.8424C17.3756 11.2177 17.2932 11.5418 17.1283 11.8148C16.9634 12.0877 16.7245 12.2981 16.4118 12.446C16.1047 12.5938 15.7266 12.6678 15.2773 12.6678L15.3456 12.5228H15.6953C15.9341 12.5228 16.1417 12.5825 16.3179 12.7019C16.4999 12.8156 16.6563 12.9919 16.7871 13.2307L17.3159 14.2116C17.3955 14.3538 17.4325 14.4931 17.4268 14.6296C17.4211 14.7661 17.3699 14.877 17.2733 14.9623C17.1766 15.0475 17.0344 15.0902 16.8468 15.0902C16.6591 15.0902 16.5056 15.0504 16.3862 14.9708C16.2725 14.8912 16.1701 14.7689 16.0791 14.604L15.2603 13.0942C15.175 12.935 15.0698 12.827 14.9447 12.7701C14.8252 12.7133 14.6774 12.6848 14.5011 12.6848H13.8529V14.4078C13.8529 14.6239 13.796 14.7917 13.6823 14.9111C13.5742 15.0305 13.4122 15.0902 13.1961 15.0902ZM13.8529 11.7295H15.0385C15.391 11.7295 15.6555 11.6584 15.8317 11.5163C16.0137 11.3741 16.1047 11.1609 16.1047 10.8765C16.1047 10.5979 16.0137 10.3875 15.8317 10.2453C15.6555 10.1032 15.391 10.0321 15.0385 10.0321H13.8529V11.7295Z" fill="#333333"/>
<path d="M9.23926 15.0902C9.02318 15.0902 8.85827 15.0305 8.74454 14.9111C8.63081 14.7917 8.57395 14.6239 8.57395 14.4078V10.0918H7.0642C6.88791 10.0918 6.75144 10.0435 6.65477 9.94679C6.5581 9.85013 6.50977 9.71649 6.50977 9.5459C6.50977 9.36962 6.5581 9.23599 6.65477 9.145C6.75144 9.04833 6.88791 9 7.0642 9H11.4058C11.5821 9 11.7186 9.04833 11.8152 9.145C11.9119 9.23599 11.9602 9.36962 11.9602 9.5459C11.9602 9.71649 11.9119 9.85013 11.8152 9.94679C11.7186 10.0435 11.5821 10.0918 11.4058 10.0918H9.89605V14.4078C9.89605 14.6239 9.83919 14.7917 9.72546 14.9111C9.61741 15.0305 9.45535 15.0902 9.23926 15.0902Z" fill="#333333"/>
</svg>
