<svg width="38" height="6" viewBox="0 0 38 6" fill="none" xmlns="http://www.w3.org/2000/svg">
<path d="M37.5886 5.14406C37.287 5.46081 36.94 5.6569 36.5026 5.7474C36.201 5.80773 35.9445 5.82281 35.658 5.79265C35.2658 5.7474 34.934 5.62673 34.6172 5.3854C34.3608 5.18931 34.1647 4.97814 34.0139 4.70664C33.8932 4.49548 33.8178 4.28431 33.7725 4.04297C33.7122 3.69605 33.7273 3.39439 33.8178 3.06255C34.0289 2.2933 34.6021 1.7503 35.3714 1.59946C35.8088 1.50896 36.216 1.52405 36.6535 1.62963C36.9702 1.70505 37.2115 1.8408 37.4529 2.06705C37.6037 2.2028 37.7093 2.33855 37.7998 2.51955C37.9054 2.73072 37.9506 2.94189 37.9355 3.18322H36.5479C36.5177 3.00222 36.4272 2.85139 36.2764 2.73072C36.0803 2.57988 35.839 2.5648 35.6278 2.70055C35.492 2.79105 35.3865 2.91172 35.3412 3.06255C35.2205 3.43964 35.2205 3.78656 35.3261 4.17872C35.3714 4.34464 35.4468 4.46531 35.5675 4.58598C35.7032 4.72173 35.8842 4.76698 36.0652 4.75189C36.1859 4.73681 36.2764 4.67648 36.3518 4.60106C36.4272 4.51056 36.4875 4.40497 36.5026 4.28431C36.5177 4.19381 36.5328 4.13347 36.5328 4.04297H37.9959C38.026 4.43514 37.8903 4.82731 37.5886 5.14406Z" fill="#333333"/>
<path d="M33.5142 0H32.0059V1.07092H33.5142V0Z" fill="#333333"/>
<path d="M33.5142 1.61426H32.0059V5.67169H33.5142V1.61426Z" fill="#333333"/>
<path d="M28.8536 2.05257C29.0497 1.87157 29.2458 1.75091 29.4871 1.64532C29.8793 1.46432 30.2714 1.43416 30.6787 1.55482C31.1161 1.69057 31.448 1.99224 31.5837 2.44474C31.644 2.65591 31.6742 2.85199 31.6742 3.06316V5.67259H30.0603V3.31958C30.0603 3.24416 30.0452 3.16875 30.0301 3.09333C29.9849 2.95758 29.8944 2.85199 29.7737 2.80674C29.4871 2.68608 29.1704 2.79166 29.0044 3.06316C28.9441 3.16875 28.9139 3.28941 28.9139 3.41008V5.67259H27.3604V1.61516H28.8234L28.8536 2.05257Z" fill="#333333"/>
<path d="M10.9347 2.05257C11.1307 1.87157 11.3268 1.75091 11.5682 1.64532C11.9603 1.46432 12.3525 1.43416 12.7598 1.55482C13.1972 1.69057 13.529 1.99224 13.6648 2.44474C13.7251 2.65591 13.7553 2.85199 13.7553 3.06316V5.67259H12.1564V3.31958C12.1564 3.24416 12.1413 3.16875 12.1262 3.09333C12.081 2.95758 11.9905 2.85199 11.8698 2.80674C11.5832 2.68608 11.2665 2.79166 11.1006 3.06316C11.0402 3.16875 11.0101 3.28941 11.0101 3.41008V5.67259H9.44141V1.61516H10.9045L10.9347 2.05257Z" fill="#333333"/>
<path d="M20.4986 4.17813C20.6193 4.19321 20.7098 4.22338 20.8304 4.25355C20.9209 4.28372 20.9813 4.35913 21.0114 4.44963C21.0265 4.55522 21.0114 4.64572 20.936 4.72113C20.8606 4.79655 20.7701 4.8418 20.6645 4.85688C20.5288 4.88705 20.393 4.87197 20.2573 4.81163C20.1969 4.78147 20.1366 4.7513 20.0914 4.70605C20.0159 4.64572 19.9707 4.58538 19.9556 4.49488C19.9405 4.41947 19.9254 4.35913 19.9254 4.28371H18.4473V4.37422C18.4473 4.50997 18.4623 4.63063 18.5227 4.76638C18.5981 4.96247 18.7037 5.1133 18.8545 5.26414C19.0506 5.44514 19.2618 5.5658 19.5333 5.64122C20.0763 5.79205 20.574 5.82222 21.1472 5.7468C21.4187 5.70155 21.6299 5.64122 21.8712 5.50547C21.9768 5.44514 22.0673 5.39989 22.1578 5.32447C22.565 4.99263 22.7008 4.4798 22.5499 3.98205C22.4896 3.80105 22.3991 3.65021 22.2483 3.51446C22.0371 3.33346 21.841 3.22788 21.5695 3.15246C21.5092 3.13738 21.4639 3.12229 21.4036 3.10721C21.0869 3.01671 20.8154 2.95638 20.4835 2.91113C20.393 2.89604 20.3176 2.88096 20.2422 2.86588C20.1969 2.85079 20.1668 2.85079 20.1366 2.83571C20.0461 2.79046 20.0009 2.68488 20.0461 2.59437V2.57929C20.0914 2.48879 20.1668 2.42846 20.2573 2.41337C20.4232 2.36812 20.5891 2.36812 20.755 2.42846C20.9209 2.48879 21.0114 2.62454 21.0114 2.79046H22.4444C22.4444 2.60946 22.4142 2.47371 22.3539 2.30779C22.2935 2.14187 22.203 2.00612 22.0673 1.90054C21.9466 1.81004 21.8259 1.73462 21.6902 1.68937C21.5544 1.62904 21.4187 1.59887 21.2679 1.5687C20.9209 1.50837 20.6042 1.49329 20.2573 1.50837C20.0461 1.52345 19.8802 1.53854 19.6841 1.59887C19.4126 1.6592 19.2014 1.76479 18.9752 1.93071C18.7942 2.08154 18.6735 2.24746 18.5981 2.47371C18.5679 2.57929 18.5528 2.66979 18.5378 2.77538C18.5227 2.95638 18.5529 3.10721 18.6283 3.27313C18.7489 3.5748 18.9601 3.78596 19.2467 3.89155C19.3975 3.95188 19.5333 3.99713 19.6841 4.0273C19.9104 4.07255 20.1819 4.13288 20.4986 4.17813Z" fill="#333333"/>
<path d="M2.76026 3.92168H1.71951V2.59434H2.39826C2.53401 2.59434 2.63959 2.59434 2.76026 2.57926C2.94126 2.56418 3.0921 2.48876 3.19768 2.35301C3.25801 2.27759 3.28818 2.20218 3.30326 2.11168C3.31835 2.03626 3.31835 1.96084 3.30326 1.88542C3.2731 1.58376 3.03176 1.37259 2.73009 1.37259H1.71951V5.68644H0V0H2.8206C2.92618 0 3.03176 -1.46094e-08 3.13735 0.0150834C3.87643 0.0603336 4.49485 0.467585 4.8116 1.14634C4.97752 1.49326 5.03785 1.84017 4.9926 2.21726C4.9021 3.03176 4.32893 3.66527 3.52951 3.84627C3.25801 3.9066 3.03176 3.92168 2.76026 3.92168Z" fill="#333333"/>
<path d="M25.3556 1.53798C25.1897 1.50781 25.0539 1.50781 24.9031 1.50781C24.7372 1.50781 24.6014 1.5229 24.4506 1.53798C23.983 1.6134 23.6059 1.7944 23.2741 2.12623C22.9121 2.47315 22.716 2.89548 22.6707 3.39324C22.6406 3.6949 22.6707 3.96641 22.7462 4.26807C22.8668 4.72058 23.1082 5.08258 23.4852 5.36916C23.7266 5.56525 23.983 5.67083 24.2847 5.74625C24.4958 5.7915 24.6919 5.80658 24.9182 5.80658C25.1444 5.80658 25.3254 5.7915 25.5517 5.74625C25.8533 5.68591 26.1098 5.56525 26.3511 5.36916L25.4762 4.41891C25.3405 4.72058 24.9785 4.85633 24.6768 4.72058C24.5411 4.66024 24.4355 4.55466 24.3752 4.41891C24.3148 4.28316 24.2847 4.17757 24.2545 4.02674C24.2092 3.74015 24.2243 3.49882 24.2696 3.21224C24.2997 3.0614 24.345 2.94074 24.4355 2.82007C24.6165 2.54857 24.9785 2.47315 25.25 2.65415C25.3254 2.6994 25.3707 2.75973 25.4159 2.82007C25.4913 2.94074 25.5517 3.0614 25.5818 3.21224C25.6422 3.49882 25.6422 3.74015 25.5969 4.02674C25.5818 4.16249 25.5366 4.28316 25.4762 4.41891L26.3511 5.36916C26.7282 5.08258 26.9695 4.72058 27.0902 4.26807C27.1807 3.96641 27.1958 3.70999 27.1656 3.39324C27.1203 2.89548 26.9243 2.47315 26.5623 2.12623C26.2003 1.7944 25.8232 1.6134 25.3556 1.53798Z" fill="#333333"/>
<path d="M18.2351 5.35469C18.205 5.02286 18.205 4.73627 18.1899 4.40444C18.1748 3.96702 18.1748 3.58994 18.1748 3.15252C18.1748 2.91118 18.1446 2.7151 18.0843 2.48885C18.0089 2.18718 17.8279 1.96093 17.5564 1.8101C17.3905 1.71959 17.2396 1.65926 17.0586 1.62909C16.4704 1.50843 15.9575 1.49334 15.3693 1.59893C15.2034 1.62909 15.0676 1.67434 14.9168 1.73468C14.5548 1.88551 14.3135 2.15701 14.1928 2.51901C14.1475 2.65477 14.1324 2.79052 14.1475 2.94135C14.1475 2.97152 14.1626 2.9866 14.1626 3.01677L15.5201 3.04693C15.5201 2.95643 15.5352 2.88102 15.5503 2.8056C15.5955 2.68493 15.686 2.59443 15.8067 2.54918C15.9877 2.48885 16.1687 2.47376 16.3497 2.5341C16.4704 2.57935 16.5609 2.65477 16.591 2.79052C16.6212 2.86593 16.6061 2.94135 16.5609 3.00168C16.5156 3.06202 16.4704 3.09218 16.41 3.12235C16.3648 3.13743 16.3346 3.15252 16.2894 3.1676C16.0933 3.21285 15.9425 3.2581 15.7464 3.28827C15.5955 3.31843 15.4598 3.33352 15.309 3.36368C15.0978 3.40893 14.9319 3.45419 14.7358 3.51452C14.5548 3.57485 14.404 3.65027 14.2682 3.78602C14.0872 3.95194 13.9816 4.14802 13.9364 4.40444C13.9062 4.57036 13.9213 4.70611 13.9514 4.87202C14.0419 5.29436 14.3436 5.61111 14.7509 5.73178C15.2185 5.86753 15.6408 5.83736 16.0933 5.67144C16.3045 5.58094 16.4704 5.46028 16.6212 5.27928L16.5307 4.58544C16.4553 4.69102 16.3799 4.76644 16.2592 4.81169C16.1536 4.85694 16.048 4.88711 15.9425 4.90219C15.8369 4.91727 15.7615 4.90219 15.671 4.87202C15.5955 4.85694 15.5352 4.81169 15.4749 4.75136C15.4296 4.70611 15.3995 4.64577 15.3844 4.58544C15.3693 4.47986 15.3995 4.38936 15.4749 4.31394C15.5352 4.26869 15.5805 4.23852 15.6408 4.20835C15.7916 4.14802 15.9274 4.10277 16.0933 4.05752C16.2894 3.99719 16.4553 3.93685 16.6363 3.86144C16.6514 4.01227 16.6514 4.13294 16.6363 4.28377C16.6212 4.38936 16.591 4.47986 16.5307 4.57036L16.6212 5.26419C16.6514 5.36978 16.6815 5.44519 16.7117 5.53569C16.7268 5.59603 16.757 5.62619 16.7871 5.67144H18.2955C18.2804 5.56586 18.2502 5.47536 18.2351 5.35469Z" fill="#333333"/>
<path d="M9.14095 5.35469C9.11078 5.02286 9.11078 4.73627 9.0957 4.40444C9.08061 3.96702 9.08061 3.58994 9.08061 3.15252C9.08061 2.91118 9.05045 2.7151 8.99011 2.48885C8.9147 2.18718 8.7337 1.96093 8.4622 1.8101C8.29628 1.71959 8.14544 1.65926 7.96444 1.62909C7.37619 1.50843 6.86336 1.49334 6.2751 1.59893C6.10919 1.62909 5.97344 1.67434 5.8226 1.73468C5.4606 1.88551 5.21927 2.15701 5.0986 2.51901C5.05335 2.65477 5.03826 2.79052 5.05335 2.94135C5.05335 2.97152 5.06843 2.9866 5.06843 3.01677L6.42594 3.04693C6.42594 2.95643 6.44102 2.88102 6.4561 2.8056C6.50135 2.68493 6.59185 2.59443 6.71252 2.54918C6.89352 2.48885 7.07452 2.47376 7.25552 2.5341C7.37619 2.57935 7.46669 2.65477 7.49686 2.79052C7.52702 2.86593 7.51194 2.94135 7.46669 3.00168C7.42144 3.06202 7.37619 3.09218 7.31586 3.12235C7.27061 3.13743 7.24044 3.15252 7.19519 3.1676C6.99911 3.21285 6.84827 3.2581 6.65219 3.28827C6.50135 3.31843 6.3656 3.33352 6.21477 3.36368C6.0036 3.40893 5.83768 3.45419 5.6416 3.51452C5.4606 3.57485 5.30977 3.65027 5.17401 3.78602C4.99301 3.95194 4.88743 4.14802 4.85726 4.40444C4.8271 4.57036 4.84218 4.70611 4.87235 4.87202C4.96285 5.29436 5.26452 5.61111 5.67177 5.73178C6.13935 5.86753 6.56169 5.83736 7.01419 5.67144C7.22536 5.58094 7.39127 5.46028 7.54211 5.27928L7.45161 4.58544C7.37619 4.69102 7.30077 4.76644 7.18011 4.81169C7.07452 4.85694 6.96894 4.88711 6.86336 4.90219C6.75777 4.91727 6.68235 4.90219 6.59185 4.87202C6.51644 4.85694 6.4561 4.81169 6.39577 4.75136C6.35052 4.70611 6.32035 4.64577 6.30527 4.58544C6.29019 4.47986 6.32035 4.38936 6.39577 4.31394C6.4561 4.26869 6.50135 4.23852 6.56169 4.20835C6.71252 4.14802 6.84827 4.10277 7.01419 4.05752C7.21027 3.99719 7.37619 3.93685 7.55719 3.86144C7.57228 4.01227 7.57228 4.13294 7.55719 4.28377C7.54211 4.38936 7.51194 4.47986 7.45161 4.57036L7.54211 5.26419C7.57227 5.36978 7.60244 5.44519 7.63261 5.53569C7.64769 5.59603 7.67786 5.62619 7.70803 5.67144H9.21637C9.1862 5.56586 9.15603 5.47536 9.14095 5.35469Z" fill="#333333"/>
</svg>
