<svg width="40" height="40" viewBox="0 0 40 40" fill="none" xmlns="http://www.w3.org/2000/svg">
<path d="M38.5886 22.1441C38.287 22.4608 37.94 22.6569 37.5026 22.7474C37.201 22.8077 36.9445 22.8228 36.658 22.7926C36.2658 22.7474 35.934 22.6267 35.6172 22.3854C35.3608 22.1893 35.1647 21.9781 35.0139 21.7066C34.8932 21.4955 34.8178 21.2843 34.7725 21.043C34.7122 20.6961 34.7273 20.3944 34.8178 20.0626C35.0289 19.2933 35.6021 18.7503 36.3714 18.5995C36.8088 18.509 37.216 18.524 37.6535 18.6296C37.9702 18.705 38.2115 18.8408 38.4529 19.067C38.6037 19.2028 38.7093 19.3385 38.7998 19.5196C38.9054 19.7307 38.9506 19.9419 38.9355 20.1832H37.5479C37.5177 20.0022 37.4272 19.8514 37.2764 19.7307C37.0803 19.5799 36.839 19.5648 36.6278 19.7006C36.492 19.7911 36.3865 19.9117 36.3412 20.0626C36.2205 20.4396 36.2205 20.7866 36.3261 21.1787C36.3714 21.3446 36.4468 21.4653 36.5675 21.586C36.7032 21.7217 36.8842 21.767 37.0652 21.7519C37.1859 21.7368 37.2764 21.6765 37.3518 21.6011C37.4272 21.5106 37.4875 21.405 37.5026 21.2843C37.5177 21.1938 37.5328 21.1335 37.5328 21.043H38.9959C39.026 21.4351 38.8903 21.8273 38.5886 22.1441Z" fill="#333333"/>
<path d="M34.5142 17H33.0059V18.0709H34.5142V17Z" fill="#333333"/>
<path d="M34.5142 18.6143H33.0059V22.6717H34.5142V18.6143Z" fill="#333333"/>
<path d="M29.8536 19.0526C30.0497 18.8716 30.2458 18.7509 30.4871 18.6453C30.8793 18.4643 31.2714 18.4342 31.6787 18.5548C32.1161 18.6906 32.448 18.9922 32.5837 19.4447C32.644 19.6559 32.6742 19.852 32.6742 20.0632V22.6726H31.0603V20.3196C31.0603 20.2442 31.0452 20.1687 31.0301 20.0933C30.9849 19.9576 30.8944 19.852 30.7737 19.8067C30.4871 19.6861 30.1704 19.7917 30.0044 20.0632C29.9441 20.1687 29.9139 20.2894 29.9139 20.4101V22.6726H28.3604V18.6152H29.8234L29.8536 19.0526Z" fill="#333333"/>
<path d="M11.9347 19.0526C12.1307 18.8716 12.3268 18.7509 12.5682 18.6453C12.9603 18.4643 13.3525 18.4342 13.7598 18.5548C14.1972 18.6906 14.529 18.9922 14.6648 19.4447C14.7251 19.6559 14.7553 19.852 14.7553 20.0632V22.6726H13.1564V20.3196C13.1564 20.2442 13.1413 20.1687 13.1262 20.0933C13.081 19.9576 12.9905 19.852 12.8698 19.8067C12.5832 19.6861 12.2665 19.7917 12.1006 20.0632C12.0402 20.1687 12.0101 20.2894 12.0101 20.4101V22.6726H10.4414V18.6152H11.9045L11.9347 19.0526Z" fill="#333333"/>
<path d="M21.4986 21.1781C21.6193 21.1932 21.7098 21.2234 21.8304 21.2535C21.9209 21.2837 21.9813 21.3591 22.0114 21.4496C22.0265 21.5552 22.0114 21.6457 21.936 21.7211C21.8606 21.7966 21.7701 21.8418 21.6645 21.8569C21.5288 21.8871 21.393 21.872 21.2573 21.8116C21.1969 21.7815 21.1366 21.7513 21.0914 21.7061C21.0159 21.6457 20.9707 21.5854 20.9556 21.4949C20.9405 21.4195 20.9254 21.3591 20.9254 21.2837H19.4473V21.3742C19.4473 21.51 19.4623 21.6306 19.5227 21.7664C19.5981 21.9625 19.7037 22.1133 19.8545 22.2641C20.0506 22.4451 20.2618 22.5658 20.5333 22.6412C21.0763 22.7921 21.574 22.8222 22.1472 22.7468C22.4187 22.7016 22.6299 22.6412 22.8712 22.5055C22.9768 22.4451 23.0673 22.3999 23.1578 22.3245C23.565 21.9926 23.7008 21.4798 23.5499 20.982C23.4896 20.801 23.3991 20.6502 23.2483 20.5145C23.0371 20.3335 22.841 20.2279 22.5695 20.1525C22.5092 20.1374 22.4639 20.1223 22.4036 20.1072C22.0869 20.0167 21.8154 19.9564 21.4835 19.9111C21.393 19.896 21.3176 19.881 21.2422 19.8659C21.1969 19.8508 21.1668 19.8508 21.1366 19.8357C21.0461 19.7905 21.0009 19.6849 21.0461 19.5944V19.5793C21.0914 19.4888 21.1668 19.4285 21.2573 19.4134C21.4232 19.3681 21.5891 19.3681 21.755 19.4285C21.9209 19.4888 22.0114 19.6245 22.0114 19.7905H23.4444C23.4444 19.6095 23.4142 19.4737 23.3539 19.3078C23.2935 19.1419 23.203 19.0061 23.0673 18.9005C22.9466 18.81 22.8259 18.7346 22.6902 18.6894C22.5544 18.629 22.4187 18.5989 22.2679 18.5687C21.9209 18.5084 21.6042 18.4933 21.2573 18.5084C21.0461 18.5235 20.8802 18.5385 20.6841 18.5989C20.4126 18.6592 20.2014 18.7648 19.9752 18.9307C19.7942 19.0815 19.6735 19.2475 19.5981 19.4737C19.5679 19.5793 19.5528 19.6698 19.5378 19.7754C19.5227 19.9564 19.5529 20.1072 19.6283 20.2731C19.7489 20.5748 19.9601 20.786 20.2467 20.8915C20.3975 20.9519 20.5333 20.9971 20.6841 21.0273C20.9104 21.0725 21.1819 21.1329 21.4986 21.1781Z" fill="#333333"/>
<path d="M3.76026 20.9217H2.71951V19.5943H3.39826C3.53401 19.5943 3.63959 19.5943 3.76026 19.5793C3.94126 19.5642 4.0921 19.4888 4.19768 19.353C4.25801 19.2776 4.28818 19.2022 4.30326 19.1117C4.31835 19.0363 4.31835 18.9608 4.30326 18.8854C4.2731 18.5838 4.03176 18.3726 3.73009 18.3726H2.71951V22.6864H1V17H3.8206C3.92618 17 4.03176 17 4.13735 17.0151C4.87643 17.0603 5.49485 17.4676 5.8116 18.1463C5.97752 18.4933 6.03785 18.8402 5.9926 19.2173C5.9021 20.0318 5.32893 20.6653 4.52951 20.8463C4.25801 20.9066 4.03176 20.9217 3.76026 20.9217Z" fill="#333333"/>
<path d="M26.3556 18.538C26.1897 18.5078 26.0539 18.5078 25.9031 18.5078C25.7372 18.5078 25.6014 18.5229 25.4506 18.538C24.983 18.6134 24.6059 18.7944 24.2741 19.1262C23.9121 19.4731 23.716 19.8955 23.6707 20.3932C23.6406 20.6949 23.6707 20.9664 23.7462 21.2681C23.8668 21.7206 24.1082 22.0826 24.4852 22.3692C24.7266 22.5652 24.983 22.6708 25.2847 22.7462C25.4958 22.7915 25.6919 22.8066 25.9182 22.8066C26.1444 22.8066 26.3254 22.7915 26.5517 22.7462C26.8533 22.6859 27.1098 22.5652 27.3511 22.3692L26.4762 21.4189C26.3405 21.7206 25.9785 21.8563 25.6768 21.7206C25.5411 21.6602 25.4355 21.5547 25.3752 21.4189C25.3148 21.2832 25.2847 21.1776 25.2545 21.0267C25.2092 20.7402 25.2243 20.4988 25.2696 20.2122C25.2997 20.0614 25.345 19.9407 25.4355 19.8201C25.6165 19.5486 25.9785 19.4731 26.25 19.6542C26.3254 19.6994 26.3707 19.7597 26.4159 19.8201C26.4913 19.9407 26.5517 20.0614 26.5818 20.2122C26.6422 20.4988 26.6422 20.7402 26.5969 21.0267C26.5818 21.1625 26.5366 21.2832 26.4762 21.4189L27.3511 22.3692C27.7282 22.0826 27.9695 21.7206 28.0902 21.2681C28.1807 20.9664 28.1958 20.71 28.1656 20.3932C28.1203 19.8955 27.9243 19.4731 27.5623 19.1262C27.2003 18.7944 26.8232 18.6134 26.3556 18.538Z" fill="#333333"/>
<path d="M19.2351 22.3547C19.205 22.0229 19.205 21.7363 19.1899 21.4044C19.1748 20.967 19.1748 20.5899 19.1748 20.1525C19.1748 19.9112 19.1446 19.7151 19.0843 19.4888C19.0089 19.1872 18.8279 18.9609 18.5564 18.8101C18.3905 18.7196 18.2396 18.6593 18.0586 18.6291C17.4704 18.5084 16.9575 18.4933 16.3693 18.5989C16.2034 18.6291 16.0676 18.6743 15.9168 18.7347C15.5548 18.8855 15.3135 19.157 15.1928 19.519C15.1475 19.6548 15.1324 19.7905 15.1475 19.9413C15.1475 19.9715 15.1626 19.9866 15.1626 20.0168L16.5201 20.0469C16.5201 19.9564 16.5352 19.881 16.5503 19.8056C16.5955 19.6849 16.686 19.5944 16.8067 19.5492C16.9877 19.4888 17.1687 19.4738 17.3497 19.5341C17.4704 19.5793 17.5609 19.6548 17.591 19.7905C17.6212 19.8659 17.6061 19.9413 17.5609 20.0017C17.5156 20.062 17.4704 20.0922 17.41 20.1224C17.3648 20.1374 17.3346 20.1525 17.2894 20.1676C17.0933 20.2129 16.9425 20.2581 16.7464 20.2883C16.5955 20.3184 16.4598 20.3335 16.309 20.3637C16.0978 20.4089 15.9319 20.4542 15.7358 20.5145C15.5548 20.5749 15.404 20.6503 15.2682 20.786C15.0872 20.9519 14.9816 21.148 14.9364 21.4044C14.9062 21.5704 14.9213 21.7061 14.9514 21.872C15.0419 22.2944 15.3436 22.6111 15.7509 22.7318C16.2185 22.8675 16.6408 22.8374 17.0933 22.6714C17.3045 22.5809 17.4704 22.4603 17.6212 22.2793L17.5307 21.5854C17.4553 21.691 17.3799 21.7664 17.2592 21.8117C17.1536 21.8569 17.048 21.8871 16.9425 21.9022C16.8369 21.9173 16.7615 21.9022 16.671 21.872C16.5955 21.8569 16.5352 21.8117 16.4749 21.7514C16.4296 21.7061 16.3995 21.6458 16.3844 21.5854C16.3693 21.4799 16.3995 21.3894 16.4749 21.3139C16.5352 21.2687 16.5805 21.2385 16.6408 21.2084C16.7916 21.148 16.9274 21.1028 17.0933 21.0575C17.2894 20.9972 17.4553 20.9369 17.6363 20.8614C17.6514 21.0123 17.6514 21.1329 17.6363 21.2838C17.6212 21.3894 17.591 21.4799 17.5307 21.5704L17.6212 22.2642C17.6514 22.3698 17.6815 22.4452 17.7117 22.5357C17.7268 22.596 17.757 22.6262 17.7871 22.6714H19.2955C19.2804 22.5659 19.2502 22.4754 19.2351 22.3547Z" fill="#333333"/>
<path d="M10.1409 22.3547C10.1108 22.0229 10.1108 21.7363 10.0957 21.4044C10.0806 20.967 10.0806 20.5899 10.0806 20.1525C10.0806 19.9112 10.0504 19.7151 9.99011 19.4888C9.9147 19.1872 9.7337 18.9609 9.4622 18.8101C9.29628 18.7196 9.14544 18.6593 8.96444 18.6291C8.37619 18.5084 7.86336 18.4933 7.2751 18.5989C7.10919 18.6291 6.97344 18.6743 6.8226 18.7347C6.4606 18.8855 6.21927 19.157 6.0986 19.519C6.05335 19.6548 6.03826 19.7905 6.05335 19.9413C6.05335 19.9715 6.06843 19.9866 6.06843 20.0168L7.42594 20.0469C7.42594 19.9564 7.44102 19.881 7.4561 19.8056C7.50135 19.6849 7.59185 19.5944 7.71252 19.5492C7.89352 19.4888 8.07452 19.4738 8.25552 19.5341C8.37619 19.5793 8.46669 19.6548 8.49686 19.7905C8.52702 19.8659 8.51194 19.9413 8.46669 20.0017C8.42144 20.062 8.37619 20.0922 8.31586 20.1224C8.27061 20.1374 8.24044 20.1525 8.19519 20.1676C7.99911 20.2129 7.84827 20.2581 7.65219 20.2883C7.50135 20.3184 7.3656 20.3335 7.21477 20.3637C7.0036 20.4089 6.83768 20.4542 6.6416 20.5145C6.4606 20.5749 6.30977 20.6503 6.17401 20.786C5.99301 20.9519 5.88743 21.148 5.85726 21.4044C5.8271 21.5704 5.84218 21.7061 5.87235 21.872C5.96285 22.2944 6.26452 22.6111 6.67177 22.7318C7.13935 22.8675 7.56169 22.8374 8.01419 22.6714C8.22536 22.5809 8.39127 22.4603 8.54211 22.2793L8.45161 21.5854C8.37619 21.691 8.30077 21.7664 8.18011 21.8117C8.07452 21.8569 7.96894 21.8871 7.86336 21.9022C7.75777 21.9173 7.68235 21.9022 7.59185 21.872C7.51644 21.8569 7.4561 21.8117 7.39577 21.7514C7.35052 21.7061 7.32035 21.6458 7.30527 21.5854C7.29019 21.4799 7.32035 21.3894 7.39577 21.3139C7.4561 21.2687 7.50135 21.2385 7.56169 21.2084C7.71252 21.148 7.84827 21.1028 8.01419 21.0575C8.21027 20.9972 8.37619 20.9369 8.55719 20.8614C8.57228 21.0123 8.57228 21.1329 8.55719 21.2838C8.54211 21.3894 8.51194 21.4799 8.45161 21.5704L8.54211 22.2642C8.57227 22.3698 8.60244 22.4452 8.63261 22.5357C8.64769 22.596 8.67786 22.6262 8.70803 22.6714H10.2164C10.1862 22.5659 10.156 22.4754 10.1409 22.3547Z" fill="#333333"/>
</svg>
