<svg width="24" height="24" viewBox="0 0 24 24" fill="none" xmlns="http://www.w3.org/2000/svg">
<path d="M8.66965 11.702C9.44762 13.2925 10.7369 14.5758 12.3309 15.3466C12.4475 15.4018 12.5765 15.4258 12.7052 15.416C12.8339 15.4063 12.9579 15.3632 13.0648 15.291L15.4119 13.7259C15.5157 13.6567 15.6352 13.6145 15.7594 13.6031C15.8837 13.5917 16.0088 13.6114 16.1235 13.6606L20.5144 15.5424C20.6636 15.6058 20.7881 15.7159 20.8693 15.8562C20.9504 15.9965 20.9838 16.1593 20.9643 16.3202C20.8255 17.4062 20.2956 18.4044 19.4739 19.1279C18.6521 19.8513 17.5948 20.2505 16.5 20.2505C13.1185 20.2505 9.87548 18.9072 7.48439 16.5161C5.0933 14.125 3.75 10.882 3.75 7.50052C3.75006 6.40568 4.14918 5.34841 4.87264 4.52665C5.5961 3.7049 6.59428 3.17502 7.68028 3.03624C7.84117 3.01677 8.00403 3.05011 8.14432 3.13125C8.28461 3.21238 8.39473 3.33691 8.4581 3.48607L10.3416 7.88087C10.3903 7.99455 10.4101 8.11851 10.3994 8.24171C10.3886 8.36491 10.3475 8.48354 10.2798 8.58702L8.72011 10.9701C8.64912 11.0773 8.60716 11.2011 8.59831 11.3294C8.58947 11.4576 8.61405 11.586 8.66965 11.702V11.702Z" fill="#333333"/>
<path d="M8.66965 11.702C9.44762 13.2925 10.7369 14.5758 12.3309 15.3466C12.4475 15.4018 12.5765 15.4258 12.7052 15.416C12.8339 15.4063 12.9579 15.3632 13.0648 15.291L15.4119 13.7259C15.5157 13.6567 15.6352 13.6145 15.7594 13.6031C15.8837 13.5917 16.0088 13.6114 16.1235 13.6606L20.5144 15.5424C20.6636 15.6058 20.7881 15.7159 20.8693 15.8562C20.9504 15.9965 20.9838 16.1593 20.9643 16.3202C20.8255 17.4062 20.2956 18.4044 19.4739 19.1279C18.6521 19.8513 17.5948 20.2505 16.5 20.2505C13.1185 20.2505 9.87548 18.9072 7.48439 16.5161C5.0933 14.125 3.75 10.882 3.75 7.50052C3.75006 6.40568 4.14918 5.34841 4.87264 4.52665C5.5961 3.7049 6.59428 3.17502 7.68028 3.03624C7.84117 3.01677 8.00403 3.05011 8.14432 3.13125C8.28461 3.21238 8.39473 3.33691 8.4581 3.48607L10.3416 7.88087C10.3903 7.99455 10.4101 8.11851 10.3994 8.24171C10.3886 8.36491 10.3475 8.48354 10.2798 8.58702L8.72011 10.9701C8.64912 11.0773 8.60716 11.2011 8.59831 11.3294C8.58947 11.4576 8.61405 11.586 8.66965 11.702V11.702Z" stroke="#333333" stroke-linecap="round" stroke-linejoin="round"/>
</svg>
