<svg width="24" height="24" viewBox="0 0 24 24" fill="none" xmlns="http://www.w3.org/2000/svg">
<path d="M12 12V3" stroke="#333333" stroke-linecap="round" stroke-linejoin="round"/>
<path d="M19.7952 7.5L4.20673 16.5" stroke="#333333" stroke-linecap="round" stroke-linejoin="round"/>
<path d="M3.1499 13.6449C2.76023 11.5361 3.13514 9.35749 4.20731 7.50025C5.27947 5.64301 6.97865 4.22885 8.9997 3.51173V10.2676L3.1499 13.6449Z" stroke="#333333" stroke-linecap="round" stroke-linejoin="round"/>
<path d="M11.9986 3C13.5754 3.00029 15.1245 3.41485 16.4907 4.20216C17.8569 4.98947 18.9923 6.1219 19.7831 7.48605C20.574 8.8502 20.9925 10.3982 20.9969 11.975C21.0013 13.5518 20.5913 15.1021 19.8081 16.4706C19.0248 17.8391 17.8957 18.9779 16.5339 19.7728C15.1721 20.5676 13.6254 20.9908 12.0486 20.9999C10.4718 21.0089 8.92033 20.6035 7.54949 19.8243C6.17865 19.0451 5.03659 17.9194 4.23767 16.56" stroke="#333333" stroke-linecap="round" stroke-linejoin="round"/>
</svg>
