<svg width="75" height="51" viewBox="0 0 75 51" fill="none" xmlns="http://www.w3.org/2000/svg">
<rect x="5.5" y="9.5" width="49" height="35" rx="1.5" stroke="#333333"/>
<rect x="8" y="12" width="44" height="30" rx="1" fill="#EBEDEE"/>
<path d="M0.5 45.0005C0.5 44.7243 0.723857 44.5005 1 44.5005H59C59.2761 44.5005 59.5 44.7243 59.5 45.0005V47.6672C59.5 49.0479 58.3807 50.1672 57 50.1672H3C1.61929 50.1672 0.5 49.0479 0.5 47.6672V45.0005Z" stroke="#333333"/>
<path d="M23.3333 44.666V46.3327C23.3333 46.885 23.781 47.3327 24.3333 47.3327H35.6666C36.2189 47.3327 36.6666 46.885 36.6666 46.3327V44.666" stroke="#333333"/>
<rect x="40.5" y="0.5" width="25" height="31" rx="1.5" fill="white" stroke="#333333"/>
<path d="M51 3H55" stroke="#333333" stroke-linecap="round"/>
<path d="M40.5 27H65.5" stroke="#333333" stroke-linecap="round"/>
<circle cx="53" cy="29" r="1" fill="#333333"/>
<path d="M73.7693 36.1538V15.8462C73.7693 14.8266 72.9427 14 71.9231 14H60.8462C59.8266 14 59.0001 14.8266 59.0001 15.8462V36.1538C59.0001 37.1734 59.8266 38 60.8462 38H71.9231C72.9427 38 73.7693 37.1734 73.7693 36.1538Z" fill="white" stroke="#333333" stroke-linecap="round" stroke-linejoin="round"/>
<path d="M66.3846 34.9235C67.1493 34.9235 67.7692 34.3036 67.7692 33.5389C67.7692 32.7742 67.1493 32.1543 66.3846 32.1543C65.6199 32.1543 65 32.7742 65 33.5389C65 34.3036 65.6199 34.9235 66.3846 34.9235Z" fill="#333333"/>
</svg>
