<?xml version="1.0" encoding="utf-8"?>
<svg version="1.1" xmlns:xlink="http://www.w3.org/1999/xlink" width="22px" height="22px" xmlns="http://www.w3.org/2000/svg">
  <g transform="matrix(1 0 0 1 -934 -250 )">
    <path d="M 5.478515625 1.4752604166666659  C 7.163845486111112 0.4917534722222203  9.004340277777779 0  11 0  C 12.995659722222223 0  14.836154513888891 0.4917534722222203  16.521484375 1.4752604166666659  C 18.20681423611111 2.458767361111109  19.541232638888893 3.7931857638888884  20.524739583333336 5.478515625  C 21.508246527777775 7.163845486111109  22 9.004340277777775  22 11  C 22 12.995659722222223  21.508246527777775 14.836154513888886  20.524739583333336 16.521484375  C 19.541232638888893 18.20681423611111  18.20681423611111 19.54123263888889  16.521484375 20.524739583333336  C 14.836154513888891 21.50824652777778  12.995659722222223 22  11 22  C 9.004340277777779 22  7.163845486111112 21.50824652777778  5.478515625 20.524739583333336  C 3.7931857638888893 19.54123263888889  2.4587673611111116 18.20681423611111  1.4752604166666667 16.521484375  C 0.49175347222222215 14.836154513888886  0 12.995659722222223  0 11  C 0 9.004340277777775  0.49175347222222215 7.163845486111109  1.4752604166666667 5.478515625  C 2.4587673611111116 3.7931857638888884  3.7931857638888893 2.458767361111109  5.478515625 1.4752604166666659  Z M 8.708333333333332 16.37109375  L 16.5 11.787760416666668  C 16.805555555555557 11.615885416666668  16.958333333333336 11.353298611111109  16.958333333333336 11  C 16.958333333333336 10.64670138888889  16.805555555555557 10.384114583333334  16.5 10.212239583333334  L 8.708333333333332 5.62890625  C 8.41232638888889 5.447482638888888  8.106770833333332 5.442708333333334  7.791666666666667 5.614583333333334  C 7.4861111111111125 5.796006944444443  7.333333333333333 6.0633680555555545  7.333333333333333 6.416666666666666  L 7.333333333333333 15.583333333333332  C 7.333333333333333 15.936631944444441  7.4861111111111125 16.203993055555554  7.791666666666667 16.385416666666668  C 7.9444444444444455 16.461805555555554  8.097222222222223 16.5  8.25 16.5  C 8.41232638888889 16.5  8.565104166666668 16.45703125  8.708333333333332 16.37109375  Z " fill-rule="nonzero" fill="#333333" stroke="none" transform="matrix(1 0 0 1 934 250 )" />
  </g>
</svg>