<svg width="40" height="40" viewBox="0 0 40 40" fill="none" xmlns="http://www.w3.org/2000/svg">
<path fill-rule="evenodd" clip-rule="evenodd" d="M36.6976 27.0844C36.0335 27.9223 34.4063 28.52 34.4063 28.52L22.3018 32.8679V29.6614L31.2099 26.4874C32.2208 26.1252 32.376 25.6132 31.5543 25.3445C30.7342 25.0749 29.2491 25.1522 28.2374 25.5159L22.3018 27.6064V24.2787L22.6439 24.1629C22.6439 24.1629 24.3591 23.5559 26.7709 23.2887C29.1827 23.023 32.1358 23.325 34.4542 24.2038C37.0668 25.0294 37.361 26.2465 36.6976 27.0844ZM23.454 21.6244V13.4245C23.454 12.4615 23.2764 11.5749 22.3728 11.3239C21.6809 11.1023 21.2515 11.7448 21.2515 12.7071V33.2417L15.7136 31.484V7C18.0682 7.4371 21.4986 8.4704 23.3428 9.09207C28.0328 10.7023 29.6229 12.7063 29.6229 17.2217C29.6229 21.6229 26.906 23.291 23.454 21.6244ZM5.55206 29.3263C2.86997 28.571 2.4236 26.9971 3.6461 26.0905C4.77593 25.2533 6.69734 24.6232 6.69734 24.6232L14.6378 21.7997V25.0186L8.92378 27.0635C7.91443 27.4257 7.7592 27.9385 8.57935 28.2073C9.40027 28.476 10.8861 28.3995 11.897 28.0366L14.6378 27.0419V29.9217C14.464 29.9526 14.2702 29.9835 14.091 30.0136C11.3495 30.4615 8.42953 30.2746 5.55206 29.3263ZM34.9338 30.6013C35.2805 30.6013 35.6056 30.7357 35.8505 30.9836C36.0953 31.2276 36.2304 31.5535 36.2304 31.8995C36.2304 32.247 36.0953 32.5713 35.8505 32.8154C35.6056 33.0617 35.2805 33.1961 34.9338 33.1961C34.587 33.1961 34.2627 33.0617 34.0171 32.8154C33.7723 32.5713 33.6379 32.247 33.6379 31.8995C33.6379 31.1843 34.2187 30.6013 34.9338 30.6013ZM33.8557 31.8995C33.8557 32.1875 33.9677 32.4586 34.1715 32.6609C34.3747 32.8663 34.6465 32.9776 34.9338 32.9776C35.5292 32.9776 36.0119 32.4941 36.0119 31.8995C36.0119 31.6106 35.9007 31.3396 35.696 31.1365C35.4929 30.931 35.2211 30.8206 34.9338 30.8206C34.6465 30.8206 34.3747 30.931 34.1715 31.1365C33.9677 31.3396 33.8557 31.6106 33.8557 31.8995ZM35.3253 31.2006C35.4674 31.2631 35.5392 31.3836 35.5392 31.555C35.5392 31.6431 35.5207 31.7172 35.4829 31.7751C35.4558 31.8168 35.4172 31.8508 35.374 31.8802C35.4079 31.9002 35.4381 31.9242 35.4605 31.952C35.4913 31.9921 35.5091 32.0562 35.5114 32.1435L35.5184 32.3281C35.5207 32.3775 35.5238 32.4153 35.5315 32.4385C35.5392 32.4725 35.5539 32.4941 35.5724 32.5011L35.5918 32.5103V32.5312V32.5628V32.5945H35.5601H35.3307H35.3122L35.3029 32.5783C35.2952 32.5629 35.2898 32.5451 35.2844 32.5219C35.2805 32.5011 35.2767 32.4648 35.2743 32.4092L35.2628 32.1798C35.2597 32.1003 35.2326 32.0508 35.1817 32.0246C35.15 32.0099 35.0975 32.003 35.0264 32.003H34.6334V32.5629V32.5945H34.6009H34.414H34.3824V32.5629V31.1828V31.1512H34.414H35.0527C35.1624 31.1512 35.2543 31.1673 35.3253 31.2006ZM34.6334 31.7821H35.0334C35.1137 31.7821 35.1778 31.7674 35.2234 31.7373C35.2651 31.7072 35.2852 31.6523 35.2852 31.5728C35.2852 31.4863 35.2566 31.4299 35.1963 31.3998C35.1631 31.3836 35.1168 31.3743 35.0581 31.3743H34.6334V31.7821Z" fill="#333333"/>
</svg>
