<svg width="24" height="24" viewBox="0 0 24 24" fill="none" xmlns="http://www.w3.org/2000/svg">
<path d="M7.5094 7.5094H12.6631" stroke="currentColor" stroke-linecap="round" stroke-linejoin="round"/>
<path d="M7.5094 10.0863H12.6631" stroke="currentColor" stroke-linecap="round" stroke-linejoin="round"/>
<path d="M7.5094 12.6632H10.0863" stroke="currentColor" stroke-linecap="round" stroke-linejoin="round"/>
<path d="M8.26634 17.25H4.32955C4.17584 17.25 4.02843 17.1818 3.91975 17.0603C3.81106 16.9388 3.75 16.7741 3.75 16.6023V3.64773C3.75 3.47594 3.81106 3.31119 3.91975 3.18972C4.02843 3.06824 4.17584 3 4.32955 3H15.9205C16.0742 3 16.2216 3.06824 16.3303 3.18972C16.4389 3.31119 16.5 3.47594 16.5 3.64773V9.60682" stroke="currentColor" stroke-linecap="round" stroke-linejoin="round"/>
<path fill-rule="evenodd" clip-rule="evenodd" d="M19.635 15.1315C19.5474 14.9489 19.4461 14.7731 19.332 14.6057L19.3561 13.175C18.8258 12.6942 18.1986 12.3326 17.5166 12.1148L16.2903 12.8506C16.0884 12.8352 15.8855 12.8351 15.6835 12.8501L14.4565 12.1139C13.775 12.3327 13.1482 12.6952 12.6186 13.1768L12.6427 14.6067C12.5284 14.7739 12.4268 14.9495 12.3388 15.132L11.0878 15.8265C10.9365 16.5262 10.937 17.2502 11.0893 17.9496L12.3397 18.6438C12.4274 18.8263 12.5286 19.0021 12.6427 19.1695L12.6186 20.6002C13.1489 21.0811 13.7762 21.4426 14.4581 21.6605L15.6844 20.9247C15.8863 20.94 16.0892 20.9402 16.2912 20.9252L17.5182 21.6614C18.1998 21.4425 18.8265 21.0801 19.3561 20.5984L19.3321 19.1685C19.4463 19.0013 19.5479 18.8257 19.6359 18.6433L20.8869 17.9488C21.0382 17.2491 21.0377 16.5251 20.8854 15.8256L19.635 15.1315ZM14.1401 16.7867C14.1401 15.7663 14.9673 14.9391 15.9877 14.9391C17.0081 14.9391 17.8352 15.7663 17.8352 16.7867C17.8352 17.807 17.0081 18.6342 15.9877 18.6342C14.9673 18.6342 14.1401 17.807 14.1401 16.7867ZM15.9877 14.1391C14.5255 14.1391 13.3401 15.3245 13.3401 16.7867C13.3401 18.2489 14.5255 19.4342 15.9877 19.4342C17.4499 19.4342 18.6352 18.2489 18.6352 16.7867C18.6352 15.3245 17.4499 14.1391 15.9877 14.1391Z" fill="currentColor"/>
</svg>
