<svg width="24" height="24" viewBox="0 0 24 24" fill="none" xmlns="http://www.w3.org/2000/svg">
<path d="M16 19C17.1046 19 18 18.1046 18 17C18 15.8954 17.1046 15 16 15C14.8954 15 14 15.8954 14 17C14 18.1046 14.8954 19 16 19Z" stroke="#333333" stroke-linecap="round" stroke-linejoin="round"/>
<path d="M19.332 14.6057C19.4461 14.7731 19.5473 14.9489 19.635 15.1315L20.8854 15.8256C21.0377 16.5251 21.0382 17.2491 20.8869 17.9488L19.6359 18.6433C19.5479 18.8257 19.4463 19.0013 19.332 19.1685L19.3561 20.5984C18.8265 21.0801 18.1998 21.4425 17.5182 21.6614L16.2912 20.9252C16.0892 20.9402 15.8863 20.94 15.6844 20.9247L14.4581 21.6605C13.7761 21.4426 13.1489 21.0811 12.6186 20.6002L12.6427 19.1695C12.5286 19.0021 12.4273 18.8263 12.3397 18.6438L11.0893 17.9496C10.937 17.2502 10.9365 16.5262 11.0878 15.8265L12.3388 15.132C12.4268 14.9495 12.5284 14.7739 12.6427 14.6067L12.6186 13.1768C13.1482 12.6952 13.7749 12.3327 14.4565 12.1139L15.6835 12.8501C15.8855 12.8351 16.0884 12.8352 16.2903 12.8506L17.5166 12.1148C18.1985 12.3326 18.8258 12.6942 19.3561 13.175L19.332 14.6057Z" stroke="#333333" stroke-linecap="round" stroke-linejoin="round"/>
<path d="M7.5094 7.5094H12.6631" stroke="#333333" stroke-linecap="round" stroke-linejoin="round"/>
<path d="M7.5094 10.0863H12.6631" stroke="#333333" stroke-linecap="round" stroke-linejoin="round"/>
<path d="M7.5094 12.6632H10.0863" stroke="#333333" stroke-linecap="round" stroke-linejoin="round"/>
<path d="M8.26634 17.25H4.32955C4.17584 17.25 4.02843 17.1818 3.91975 17.0603C3.81106 16.9388 3.75 16.7741 3.75 16.6023V3.64773C3.75 3.47594 3.81106 3.31119 3.91975 3.18972C4.02843 3.06824 4.17584 3 4.32955 3H15.9205C16.0742 3 16.2216 3.06824 16.3303 3.18972C16.4389 3.31119 16.5 3.47594 16.5 3.64773V9.60682" stroke="#333333" stroke-linecap="round" stroke-linejoin="round"/>
</svg>
