<svg width="24" height="24" viewBox="0 0 24 24" fill="none" xmlns="http://www.w3.org/2000/svg">
<path d="M3 4.5V19.4766H21V4.5H3ZM19.4883 13.5C19.4883 13.8984 19.3359 14.25 19.0312 14.5547C18.75 14.8359 18.4102 14.9766 18.0117 14.9766H16.5V16.4883H14.25V18H9.75V16.4883H7.5V14.9766H5.98828C5.58984 14.9766 5.23828 14.8359 4.93359 14.5547C4.65234 14.25 4.51172 13.8984 4.51172 13.5V7.48828C4.51172 7.08984 4.65234 6.73828 4.93359 6.43359C5.23828 6.12891 5.58984 5.97656 5.98828 5.97656H18.0117C18.4102 5.97656 18.75 6.12891 19.0312 6.43359C19.3359 6.73828 19.4883 7.08984 19.4883 7.48828V13.5Z" fill="black"/>
</svg>
