<svg width="32" height="32" viewBox="0 0 32 32" fill="none" xmlns="http://www.w3.org/2000/svg">
<path d="M25.8828 3.64746H6.11805C4.75358 3.64746 3.64746 4.75358 3.64746 6.11805V25.8828C3.64746 27.2472 4.75358 28.3533 6.11805 28.3533H25.8828C27.2472 28.3533 28.3533 27.2472 28.3533 25.8828V6.11805C28.3533 4.75358 27.2472 3.64746 25.8828 3.64746Z" fill="white"/>
<path fill-rule="evenodd" clip-rule="evenodd" d="M25.8824 3.64706H6.11765C4.75318 3.64706 3.64706 4.75318 3.64706 6.11765V25.8824C3.64706 27.2468 4.75318 28.3529 6.11765 28.3529H25.8824C27.2468 28.3529 28.3529 27.2468 28.3529 25.8824V6.11765C28.3529 4.75318 27.2468 3.64706 25.8824 3.64706ZM6.11765 2C3.84353 2 2 3.84353 2 6.11765V25.8824C2 28.1565 3.84353 30 6.11765 30H25.8824C28.1565 30 30 28.1565 30 25.8824V6.11765C30 3.84353 28.1565 2 25.8824 2H6.11765Z" fill="#333333"/>
<path fill-rule="evenodd" clip-rule="evenodd" d="M6.11719 9.41131C6.11719 7.59201 7.59201 6.11719 9.41131 6.11719H22.5878C24.4071 6.11719 25.8819 7.59201 25.8819 9.41131V19.2937H23.4113V22.5878H20.1172V25.8819H11.8819V22.5878H8.58778V19.2937H6.11719V9.41131Z" fill="#333333"/>
<path d="M7.76465 8.58789H9.41171V11.882H7.76465V8.58789Z" fill="#D9D9D9"/>
<path d="M10.2354 8.58789H11.8824V11.882H10.2354V8.58789Z" fill="#D9D9D9"/>
<path d="M12.7061 8.58789H14.3531V11.882H12.7061V8.58789Z" fill="#D9D9D9"/>
<path d="M15.1768 8.58789H16.8238V11.882H15.1768V8.58789Z" fill="#D9D9D9"/>
<path d="M17.6475 8.58789H19.2945V11.882H17.6475V8.58789Z" fill="#D9D9D9"/>
<path d="M20.1172 8.58789H21.7642V11.882H20.1172V8.58789Z" fill="#D9D9D9"/>
<path d="M22.5879 8.58789H24.2349V11.882H22.5879V8.58789Z" fill="#D9D9D9"/>
</svg>
