<svg width="24" height="24" viewBox="0 0 24 24" fill="none" xmlns="http://www.w3.org/2000/svg">
<path d="M3.5 19.4766V5.5H20.5V19.4766H3.5Z" stroke="#333333"/>
<path d="M18.6638 7.27273L18.6706 7.28008L18.6777 7.28715C18.897 7.5065 18.9883 7.73392 18.9883 7.98828V14C18.9883 14.2544 18.897 14.4818 18.6777 14.7011C18.4904 14.8884 18.2778 14.9766 18.0117 14.9766H16.5H16V15.4766V16.4883H14.25H13.75V16.9883V18H10.25V16.9883V16.4883H9.75H8V15.4766V14.9766H7.5H5.98828C5.72714 14.9766 5.49977 14.8911 5.28753 14.7007C5.09715 14.4885 5.01172 14.2611 5.01172 14V7.98828C5.01172 7.72408 5.09917 7.49445 5.29426 7.28008C5.51142 7.06583 5.73667 6.97656 5.98828 6.97656H18.0117C18.2643 6.97656 18.4729 7.06587 18.6638 7.27273Z" stroke="#333333"/>
</svg>
