<svg width="24" height="24" viewBox="0 0 24 24" fill="none" xmlns="http://www.w3.org/2000/svg">
<rect x="10.9766" y="16.5967" width="2.12947" height="0.709825" fill="black"/>
<rect x="13.8154" y="16.5967" width="2.12947" height="0.709825" fill="black"/>
<rect x="8.1377" y="16.5967" width="2.12947" height="0.709825" fill="black"/>
<rect x="10.9766" y="18.7266" width="2.12947" height="0.709825" fill="black"/>
<rect x="13.8154" y="18.7266" width="2.12947" height="0.709825" fill="black"/>
<rect x="8.1377" y="18.7266" width="2.12947" height="0.709825" fill="black"/>
<path d="M8.64827 21.2803H15.5136C16.6182 21.2803 17.5136 20.3848 17.5136 19.2803V15.5384C17.5136 15.2911 17.6019 14.4784 17.6903 13.86C17.8669 13.2417 17.8669 12.8295 17.8669 12.7117V8.09626C17.8669 7.03507 17.0067 6.1748 15.9455 6.1748H8.13742C7.11983 6.1748 6.29492 6.99972 6.29492 8.0173V12.7117C6.30964 12.9767 6.35676 13.5774 6.42743 13.86C6.51576 14.4342 6.64827 15.2558 6.64827 15.5384V19.2803C6.64827 20.3848 7.5437 21.2803 8.64827 21.2803Z" stroke="black" stroke-linecap="round"/>
<rect x="7.7998" y="8.40039" width="8.4" height="4.2" stroke="black" stroke-width="0.9" stroke-linejoin="round"/>
<rect x="10.9775" y="14.4688" width="2.12947" height="0.709825" fill="black"/>
<rect x="13.8164" y="14.4688" width="2.12947" height="0.709825" fill="black"/>
<rect x="8.1377" y="14.4688" width="2.12947" height="0.709825" fill="black"/>
<rect x="8.5377" y="2.80039" width="7.00807" height="3.45895" rx="0.6" fill="white" stroke="black" stroke-width="0.8"/>
</svg>
