<svg width="126" height="30" viewBox="0 0 126 30" fill="none" xmlns="http://www.w3.org/2000/svg">
  <path
    d="M0.801758 3.09604H2.66322C2.99497 3.09604 3.29907 3.12604 3.57552 3.18604C3.85198 3.24604 4.08543 3.34504 4.27588 3.48304C4.47247 3.61504 4.62298 3.79204 4.72742 4.01404C4.838 4.23604 4.89329 4.50904 4.89329 4.83304C4.89329 5.14504 4.838 5.41504 4.72742 5.64304C4.62298 5.87104 4.47247 6.06004 4.27588 6.21004C4.07929 6.36004 3.84276 6.47404 3.56631 6.55204C3.296 6.62404 2.99497 6.66004 2.66322 6.66004H1.57583V9.00004H0.801758V3.09604ZM2.56186 6.04804C3.09634 6.04804 3.48952 5.95204 3.7414 5.76004C3.99942 5.56204 4.12843 5.25304 4.12843 4.83304C4.12843 4.40704 3.99635 4.11304 3.73218 3.95104C3.47416 3.78304 3.08405 3.69904 2.56186 3.69904H1.57583V6.04804H2.56186Z"
    fill="#333333"/>
  <path
    d="M5.46348 6.82204C5.46348 6.45604 5.51877 6.13204 5.62935 5.85004C5.74608 5.56204 5.89967 5.31904 6.09011 5.12104C6.28056 4.92304 6.49865 4.77304 6.74439 4.67104C6.99627 4.56904 7.26044 4.51804 7.53689 4.51804C7.81335 4.51804 8.07445 4.56904 8.32018 4.67104C8.57207 4.77304 8.79323 4.92304 8.98368 5.12104C9.17412 5.31904 9.32464 5.56204 9.43522 5.85004C9.55194 6.13204 9.61031 6.45604 9.61031 6.82204C9.61031 7.18204 9.55194 7.50604 9.43522 7.79404C9.32464 8.07604 9.17412 8.31604 8.98368 8.51404C8.79323 8.70604 8.57207 8.85304 8.32018 8.95504C8.07445 9.05704 7.81335 9.10804 7.53689 9.10804C7.26044 9.10804 6.99627 9.05704 6.74439 8.95504C6.49865 8.85304 6.28056 8.70604 6.09011 8.51404C5.89967 8.31604 5.74608 8.07604 5.62935 7.79404C5.51877 7.50604 5.46348 7.18204 5.46348 6.82204ZM6.24677 6.82204C6.24677 7.07404 6.27749 7.30204 6.33892 7.50604C6.40036 7.71004 6.48636 7.88704 6.59695 8.03704C6.71367 8.18104 6.8519 8.29504 7.01163 8.37904C7.17136 8.45704 7.34645 8.49604 7.53689 8.49604C7.72734 8.49604 7.90243 8.45704 8.06216 8.37904C8.22189 8.29504 8.35705 8.18104 8.46763 8.03704C8.58435 7.88704 8.67343 7.71004 8.73487 7.50604C8.7963 7.30204 8.82702 7.07404 8.82702 6.82204C8.82702 6.57004 8.7963 6.34204 8.73487 6.13804C8.67343 5.92804 8.58435 5.74804 8.46763 5.59804C8.35705 5.44804 8.22189 5.33404 8.06216 5.25604C7.90243 5.17204 7.72734 5.13004 7.53689 5.13004C7.34645 5.13004 7.17136 5.17204 7.01163 5.25604C6.8519 5.33404 6.71367 5.44804 6.59695 5.59804C6.48636 5.74804 6.40036 5.92804 6.33892 6.13804C6.27749 6.34204 6.24677 6.57004 6.24677 6.82204Z"
    fill="#333333"/>
  <path
    d="M10.2193 4.62604H10.9934L11.6569 7.15504C11.706 7.36504 11.7521 7.56904 11.7951 7.76704C11.8381 7.96504 11.8811 8.16604 11.9241 8.37004H11.961C12.0101 8.16604 12.0593 7.96504 12.1084 7.76704C12.1576 7.56304 12.2098 7.35904 12.2651 7.15504L12.9562 4.62604H13.6934L14.3938 7.15504C14.4491 7.36504 14.5013 7.56904 14.5504 7.76704C14.6057 7.96504 14.6579 8.16604 14.7071 8.37004H14.7439C14.7931 8.16604 14.8392 7.96504 14.8822 7.76704C14.9252 7.56904 14.9713 7.36504 15.0204 7.15504L15.6747 4.62604H16.3935L15.1955 9.00004H14.274L13.6289 6.65104C13.5736 6.44104 13.5214 6.23404 13.4723 6.03004C13.4293 5.82604 13.3801 5.61304 13.3248 5.39104H13.288C13.2388 5.61304 13.1897 5.82904 13.1405 6.03904C13.0914 6.24304 13.0361 6.45004 12.9746 6.66004L12.348 9.00004H11.4633L10.2193 4.62604Z"
    fill="#333333"/>
  <path
    d="M17.0004 6.82204C17.0004 6.46204 17.0557 6.14104 17.1663 5.85904C17.283 5.57104 17.4336 5.32804 17.6179 5.13004C17.8083 4.93204 18.0233 4.78204 18.2629 4.68004C18.5025 4.57204 18.7513 4.51804 19.0093 4.51804C19.2919 4.51804 19.5438 4.56604 19.765 4.66204C19.9923 4.75804 20.1797 4.89604 20.3271 5.07604C20.4807 5.25604 20.5974 5.47204 20.6773 5.72404C20.7572 5.97604 20.7971 6.25804 20.7971 6.57004C20.7971 6.73204 20.7879 6.86704 20.7694 6.97504H17.7469C17.7776 7.44904 17.925 7.82404 18.1892 8.10004C18.4595 8.37604 18.8097 8.51404 19.2397 8.51404C19.4547 8.51404 19.6513 8.48404 19.8295 8.42404C20.0138 8.35804 20.1889 8.27404 20.3548 8.17204L20.622 8.65804C20.4254 8.77804 20.2073 8.88304 19.9677 8.97304C19.7281 9.06304 19.4547 9.10804 19.1476 9.10804C18.8465 9.10804 18.5639 9.05704 18.2998 8.95504C18.0418 8.84704 17.8144 8.69704 17.6179 8.50504C17.4274 8.30704 17.2769 8.06704 17.1663 7.78504C17.0557 7.50304 17.0004 7.18204 17.0004 6.82204ZM20.1336 6.48904C20.1336 6.03904 20.0353 5.69704 19.8387 5.46304C19.6483 5.22304 19.378 5.10304 19.0278 5.10304C18.868 5.10304 18.7145 5.13604 18.567 5.20204C18.4257 5.26204 18.2967 5.35204 18.18 5.47204C18.0633 5.58604 17.965 5.73004 17.8851 5.90404C17.8114 6.07204 17.7622 6.26704 17.7377 6.48904H20.1336Z"
    fill="#333333"/>
  <path
    d="M21.9038 4.62604H22.5304L22.5949 5.41804H22.6226C22.7761 5.14204 22.9604 4.92304 23.1755 4.76104C23.3966 4.59904 23.6362 4.51804 23.8942 4.51804C24.0724 4.51804 24.2321 4.54804 24.3734 4.60804L24.226 5.25604C24.1523 5.23204 24.0847 5.21404 24.0233 5.20204C23.9618 5.19004 23.885 5.18404 23.7929 5.18404C23.6024 5.18404 23.4028 5.25904 23.1939 5.40904C22.9912 5.55904 22.813 5.82004 22.6594 6.19204V9.00004H21.9038V4.62604Z"
    fill="#333333"/>
  <path
    d="M24.6767 6.82204C24.6767 6.46204 24.732 6.14104 24.8426 5.85904C24.9593 5.57104 25.1099 5.32804 25.2942 5.13004C25.4846 4.93204 25.6996 4.78204 25.9392 4.68004C26.1788 4.57204 26.4276 4.51804 26.6857 4.51804C26.9683 4.51804 27.2201 4.56604 27.4413 4.66204C27.6686 4.75804 27.856 4.89604 28.0034 5.07604C28.157 5.25604 28.2737 5.47204 28.3536 5.72404C28.4335 5.97604 28.4734 6.25804 28.4734 6.57004C28.4734 6.73204 28.4642 6.86704 28.4458 6.97504H25.4232C25.4539 7.44904 25.6013 7.82404 25.8655 8.10004C26.1358 8.37604 26.486 8.51404 26.916 8.51404C27.1311 8.51404 27.3276 8.48404 27.5058 8.42404C27.6901 8.35804 27.8652 8.27404 28.0311 8.17204L28.2983 8.65804C28.1017 8.77804 27.8836 8.88304 27.644 8.97304C27.4044 9.06304 27.1311 9.10804 26.8239 9.10804C26.5229 9.10804 26.2403 9.05704 25.9761 8.95504C25.7181 8.84704 25.4908 8.69704 25.2942 8.50504C25.1037 8.30704 24.9532 8.06704 24.8426 7.78504C24.732 7.50304 24.6767 7.18204 24.6767 6.82204ZM27.8099 6.48904C27.8099 6.03904 27.7116 5.69704 27.515 5.46304C27.3246 5.22304 27.0543 5.10304 26.7041 5.10304C26.5444 5.10304 26.3908 5.13604 26.2433 5.20204C26.102 5.26204 25.973 5.35204 25.8563 5.47204C25.7396 5.58604 25.6413 5.73004 25.5614 5.90404C25.4877 6.07204 25.4385 6.26704 25.414 6.48904H27.8099Z"
    fill="#333333"/>
  <path
    d="M29.2576 6.82204C29.2576 6.46804 29.3098 6.15004 29.4142 5.86804C29.5248 5.58004 29.6692 5.33704 29.8473 5.13904C30.0255 4.94104 30.2313 4.78804 30.4647 4.68004C30.6982 4.57204 30.9439 4.51804 31.202 4.51804C31.46 4.51804 31.6842 4.56304 31.8747 4.65304C32.0651 4.74304 32.2586 4.86604 32.4552 5.02204L32.4184 4.27504V2.59204H33.1832V9.00004H32.5566L32.4921 8.48704H32.4644C32.2863 8.65504 32.0805 8.80204 31.847 8.92804C31.6197 9.04804 31.374 9.10804 31.1098 9.10804C30.5446 9.10804 30.0931 8.91004 29.7552 8.51404C29.4234 8.11804 29.2576 7.55404 29.2576 6.82204ZM30.0408 6.81304C30.0408 7.34104 30.1483 7.75204 30.3634 8.04604C30.5784 8.34004 30.8825 8.48704 31.2757 8.48704C31.4845 8.48704 31.6811 8.43904 31.8654 8.34304C32.0497 8.24104 32.2341 8.08804 32.4184 7.88404V5.59804C32.2279 5.43004 32.0436 5.31304 31.8654 5.24704C31.6934 5.17504 31.5153 5.13904 31.331 5.13904C31.1528 5.13904 30.9839 5.18104 30.8241 5.26504C30.6705 5.34304 30.5354 5.45704 30.4187 5.60704C30.3019 5.75104 30.2098 5.92504 30.1422 6.12904C30.0746 6.33304 30.0408 6.56104 30.0408 6.81304Z"
    fill="#333333"/>
  <path
    d="M36.5545 2.59204H37.3101V4.33804L37.2917 5.13004C37.4944 4.95604 37.7156 4.81204 37.9552 4.69804C38.1948 4.57804 38.4405 4.51804 38.6924 4.51804C38.9811 4.51804 39.2361 4.57204 39.4572 4.68004C39.6784 4.78204 39.8627 4.93204 40.0101 5.13004C40.1637 5.32204 40.2774 5.55604 40.3511 5.83204C40.431 6.10204 40.4709 6.40504 40.4709 6.74104C40.4709 7.11304 40.4187 7.44604 40.3142 7.74004C40.2098 8.03404 40.0685 8.28304 39.8903 8.48704C39.7122 8.69104 39.5064 8.84704 39.2729 8.95504C39.0395 9.05704 38.7937 9.10804 38.5357 9.10804C38.3268 9.10804 38.1087 9.06304 37.8814 8.97304C37.6603 8.87704 37.4514 8.74204 37.2548 8.56804H37.2272L37.1627 9.00004H36.5545V2.59204ZM37.3101 8.02804C37.5067 8.19604 37.7002 8.31604 37.8907 8.38804C38.0872 8.45404 38.2593 8.48704 38.4067 8.48704C38.591 8.48704 38.7599 8.44804 38.9135 8.37004C39.0733 8.28604 39.2084 8.17204 39.319 8.02804C39.4357 7.87804 39.5248 7.69504 39.5862 7.47904C39.6538 7.26304 39.6876 7.02004 39.6876 6.75004C39.6876 6.51004 39.6661 6.29104 39.6231 6.09304C39.5801 5.89504 39.5094 5.72704 39.4112 5.58904C39.319 5.44504 39.1961 5.33404 39.0425 5.25604C38.8951 5.17804 38.7169 5.13904 38.5081 5.13904C38.1456 5.13904 37.7463 5.33704 37.3101 5.73304V8.02804Z"
    fill="#333333"/>
  <path
    d="M41.3259 10.206C41.375 10.218 41.4303 10.23 41.4918 10.242C41.5532 10.26 41.6116 10.269 41.6669 10.269C41.9249 10.269 42.1338 10.179 42.2935 9.99904C42.4594 9.82504 42.5884 9.60304 42.6805 9.33304L42.7819 9.00904L40.9849 4.62604H41.7682L42.6805 7.04704C42.7481 7.23904 42.8188 7.44304 42.8925 7.65904C42.9723 7.86904 43.0461 8.07604 43.1136 8.28004H43.1505C43.2181 8.08204 43.2826 7.87504 43.344 7.65904C43.4054 7.44304 43.4669 7.23904 43.5283 7.04704L44.33 4.62604H45.0673L43.3809 9.36004C43.301 9.57604 43.2119 9.77704 43.1136 9.96304C43.0153 10.149 42.8986 10.308 42.7635 10.44C42.6283 10.578 42.4747 10.686 42.3027 10.764C42.1307 10.842 41.931 10.881 41.7037 10.881C41.5993 10.881 41.5041 10.872 41.418 10.854C41.332 10.842 41.2522 10.821 41.1785 10.791L41.3259 10.206Z"
    fill="#333333"/>
  <path
    d="M91.8824 19.8939C91.8824 22.4391 90.6672 23.7116 88.2368 23.7116C85.8781 23.7116 84.6987 22.4692 84.6987 19.9842V15.0947H86.6614V20.0058C86.6614 21.3788 87.2081 22.0632 88.3099 22.0632C89.4118 22.0632 89.924 21.4003 89.924 20.0789V15.0947H91.8824V19.8939Z"
    fill="#231F20"/>
  <path
    d="M99.6556 23.2639C98.8687 23.5852 98.0214 23.732 97.1721 23.6943C96.0124 23.7578 94.8771 23.3441 94.0301 22.5494C93.2445 21.7315 92.8304 20.6262 92.8852 19.4934C92.8358 18.2623 93.3041 17.0666 94.1764 16.1965C95.0728 15.3407 96.2782 14.8856 97.5165 14.9353C98.2462 14.9162 98.9739 15.021 99.6685 15.2452V17.0831C99.0647 16.7389 98.3793 16.5634 97.6843 16.5752C96.9408 16.5496 96.2201 16.835 95.6958 17.3629C95.1758 17.9093 94.9034 18.6455 94.9426 19.3987C94.9064 20.1192 95.1625 20.8237 95.6528 21.3528C96.1582 21.8524 96.8496 22.1177 97.5595 22.0845C98.2939 22.0927 99.0173 21.9055 99.6556 21.5422V23.2639Z"
    fill="#231F20"/>
  <path
    d="M116.67 19.8939C116.67 22.4391 115.455 23.7116 113.024 23.7116C110.666 23.7116 109.486 22.4692 109.486 19.9842V15.0947H111.449V20.0058C111.449 21.3788 111.996 22.0632 113.098 22.0632C114.199 22.0632 114.712 21.4003 114.712 20.0789V15.0947H116.67V19.8939Z"
    fill="#231F20"/>
  <path
    d="M117.798 23.2382V21.3487C118.472 21.9032 119.318 22.2073 120.191 22.2095C120.408 22.2124 120.624 22.1908 120.836 22.1449C120.999 22.1096 121.154 22.0486 121.297 21.9642C121.409 21.8967 121.503 21.8038 121.572 21.693C121.633 21.5899 121.664 21.4724 121.663 21.353C121.66 21.1978 121.609 21.0474 121.516 20.9226C121.406 20.7812 121.272 20.6603 121.12 20.5653C120.931 20.4409 120.731 20.3343 120.522 20.2468C120.294 20.1435 120.044 20.0359 119.778 19.9326C119.184 19.7247 118.652 19.3727 118.228 18.9082C117.893 18.5035 117.716 17.9914 117.729 17.4663C117.717 17.0697 117.813 16.6774 118.004 16.33C118.184 16.013 118.438 15.7442 118.745 15.5467C119.079 15.3354 119.448 15.1826 119.834 15.0947C120.257 14.9992 120.69 14.9516 121.125 14.9527C121.526 14.9493 121.928 14.9752 122.326 15.0302C122.656 15.0772 122.981 15.1595 123.294 15.2755V17.0402C123.143 16.9405 122.983 16.8541 122.816 16.782C122.645 16.7075 122.468 16.6457 122.287 16.5969C122.109 16.5472 121.928 16.5098 121.745 16.485C121.575 16.4633 121.404 16.4518 121.232 16.4505C121.028 16.4486 120.825 16.4703 120.626 16.5151C120.464 16.5477 120.308 16.6059 120.165 16.6873C120.048 16.7532 119.95 16.8462 119.877 16.9584C119.808 17.0616 119.772 17.1831 119.773 17.3071C119.771 17.4437 119.812 17.5776 119.889 17.6901C119.979 17.8149 120.09 17.9227 120.217 18.0086C120.378 18.1216 120.55 18.2196 120.729 18.3013C120.931 18.4003 121.159 18.4993 121.413 18.6026C121.735 18.7256 122.048 18.8694 122.351 19.033C122.611 19.1806 122.849 19.3615 123.062 19.571C123.257 19.769 123.412 20.0028 123.518 20.2597C123.626 20.547 123.679 20.8523 123.673 21.1593C123.688 21.574 123.592 21.9853 123.397 22.3515C123.218 22.6707 122.96 22.9388 122.648 23.1306C122.312 23.339 121.94 23.4848 121.551 23.561C121.115 23.6489 120.67 23.6921 120.225 23.6901C119.769 23.6924 119.314 23.6521 118.865 23.5696C118.496 23.5091 118.136 23.3976 117.798 23.2382Z"
    fill="#231F20"/>
  <path d="M102.983 23.5653H101.011V15.0947H102.966L102.983 23.5653Z" fill="#231F20"/>
  <path
    d="M103.753 19.8853L106.783 23.5653H109.254L105.466 19.132L108.496 15.0947H106.164L103.766 18.6241L103.753 19.8853Z"
    fill="#231F20"/>
  <path
    d="M81.8708 20.2683C82.1054 20.1539 82.3239 20.0092 82.5208 19.8379C83.1311 19.3364 83.4784 18.5832 83.4634 17.7934C83.4634 15.9943 82.3687 15.0947 80.1793 15.0947H76.1377V23.5653H78.0961V16.5581H79.8436C80.8852 16.5581 81.406 16.9886 81.406 17.8494C81.406 18.7102 80.8852 19.155 79.8436 19.1837H78.7374L82.2152 23.5438H84.6858L81.8708 20.2683Z"
    fill="#231F20"/>
  <path d="M70.0086 7.69157L70.0043 7.69588L70.0086 7.69157Z" fill="#231F20"/>
  <path
    d="M74.0373 7.62692L73.5036 6.95117L70.6112 8.19077L69.3931 7.36007L67.439 7.79048L65.2869 8.75461L64.7317 9.9856L65.7604 11.1994L66.5481 11.4318L68.627 9.27972L66.7891 12.2926L65.373 11.8321L65.0545 11.3371L62.6786 14.2639L55.2841 16.2094H54.6471C47.7948 13.274 51.7331 9.32276 51.7719 9.29263C51.7245 9.31846 46.1506 12.1334 52.4519 17.3199L51.2726 18.6542L50.4333 22.4375L48.3156 24.1162L46 29.1735H48.1994L48.561 28.3127L47.7001 28.1018L49.0904 25.6829C49.8135 25.2955 52.4046 24.2539 52.9125 23.9009L56.3558 19.5968L60.2166 20.8063L60.759 18.4088L60.9483 18.8134L61.2453 22.2266L59.6141 29.5179H61.9211V28.7733L61.0603 28.4117L63.8623 22.1233C63.8623 22.1233 68.1234 19.4117 68.1148 19.3859C68.1062 19.3601 70.1851 12.9296 70.1851 12.9296L72.7676 12.7101L73.5208 11.6728H70.4734L74.0115 9.06451L74.0373 7.62692Z"
    fill="#231F20"/>
  <path d="M64.5681 22.5193L67.3701 20.7417L64.34 27.8048L65.2051 28.1362V28.8421L63.1779 28.8464L64.5681 22.5193Z"
        fill="#231F20"/>
  <path
    d="M57.5007 24.112L54.2984 25.7389L53.1191 27.8222L54.0144 28.0718L53.6657 28.8379H51.6815L53.2353 24.7533C53.3817 24.6629 55.0043 23.2124 55.0043 23.2124L55.1421 22.2913L56.6442 20.4104L58.8307 21.1163L57.5007 24.112Z"
    fill="#231F20"/>
  <path d="M69.6341 15.7963L63.208 13.3816L63.8493 12.5811L69.9053 14.7547L69.6341 15.7963Z" fill="#F47920"/>
  <path fill-rule="evenodd" clip-rule="evenodd"
        d="M125.315 16.5208C125.654 16.3634 125.863 16.0149 125.842 15.6414C125.842 15.4047 125.745 15.1782 125.573 15.0154C125.402 14.8525 125.17 14.7676 124.934 14.7806C124.56 14.7794 124.223 15.0066 124.084 15.3539C123.945 15.7011 124.032 16.098 124.303 16.3553C124.575 16.6126 124.976 16.6782 125.315 16.5208ZM124.944 16.3172C124.567 16.3203 124.259 16.0182 124.254 15.6414C124.249 15.4577 124.319 15.2801 124.449 15.1493C124.578 15.0186 124.754 14.9461 124.938 14.9485C125.315 14.9485 125.621 15.2532 125.623 15.63C125.624 16.0068 125.321 16.314 124.944 16.3172ZM124.796 16.0718H124.594V15.211C124.706 15.1912 124.82 15.1825 124.934 15.1852C125.04 15.1758 125.146 15.1982 125.24 15.2498C125.299 15.294 125.333 15.3649 125.33 15.4391C125.32 15.5392 125.244 15.6202 125.145 15.6371C125.234 15.6713 125.296 15.7531 125.304 15.848C125.315 15.923 125.339 15.9957 125.373 16.0632H125.149C125.116 15.9968 125.092 15.9257 125.08 15.8523C125.08 15.7576 125.007 15.7146 124.895 15.7146H124.796V16.0718ZM124.891 15.5812H124.796V15.3229C124.833 15.3167 124.871 15.3167 124.908 15.3229C125.037 15.3229 125.097 15.366 125.097 15.4564C125.097 15.5467 125.007 15.5812 124.891 15.5812Z"
        fill="#231F20"/>
  <path d="M76.1721 7.55376V11.6642H78.1391V6.1377L76.1721 7.55376Z" fill="#F47920"/>
  <path d="M80.386 4.52373V11.6643H82.3487V3.10767L80.386 4.52373Z" fill="#F47920"/>
  <path d="M84.6987 1.41607V11.6643H86.6657V0L84.6987 1.41607Z" fill="#F47920"/>
  <path
    d="M78.4103 29.8107C78.1232 29.937 77.8111 29.9959 77.4978 29.9829C77.0687 30.0071 76.649 29.8511 76.34 29.5525C76.0475 29.2431 75.8923 28.8287 75.9096 28.4032C75.8903 27.9413 76.0614 27.4916 76.383 27.1593C76.71 26.8373 77.1554 26.6645 77.614 26.6816C77.8813 26.675 78.1477 26.7143 78.4017 26.7978V27.4908C78.1793 27.3629 77.9265 27.2975 77.67 27.3014C77.3984 27.2898 77.1344 27.3929 76.9426 27.5855C76.7519 27.7937 76.6526 28.0696 76.6671 28.3516C76.653 28.6221 76.7475 28.8871 76.9296 29.0876C77.1129 29.2762 77.3686 29.3766 77.6312 29.3631C77.9014 29.3652 78.1673 29.2953 78.4017 29.1608L78.4103 29.8107Z"
    fill="#F47920"/>
  <path fill-rule="evenodd" clip-rule="evenodd"
        d="M79.6628 29.5524C79.9594 29.8459 80.3651 30.002 80.7819 29.9829C81.2133 30.0011 81.6317 29.8334 81.9311 29.5223C82.2272 29.1875 82.3816 28.7507 82.3615 28.3042C82.3783 27.8699 82.2237 27.4463 81.9311 27.1249C81.6406 26.8302 81.2382 26.6736 80.8249 26.6945C80.3879 26.6752 79.964 26.8464 79.6628 27.1636C79.3656 27.4995 79.2112 27.938 79.2324 28.386C79.2134 28.8168 79.3685 29.2372 79.6628 29.5524ZM80.7867 27.2967C80.5612 27.2972 80.3479 27.4019 80.2094 27.5811C80.0537 27.8004 79.9764 28.0658 79.9899 28.3344C79.9756 28.6017 80.0531 28.8659 80.2094 29.0833C80.3494 29.2632 80.5669 29.3656 80.7948 29.3588C81.0224 29.3676 81.2409 29.2688 81.3845 29.0919C81.5421 28.8768 81.6198 28.6135 81.604 28.3473C81.6209 28.0728 81.5468 27.8005 81.3931 27.5725C81.2512 27.383 81.0225 27.2791 80.7867 27.2967Z"
        fill="#F47920"/>
  <path
    d="M87.0186 29.9268H86.3084V28.0114C86.3084 27.8091 86.3084 27.581 86.3343 27.3313C86.2955 27.525 86.2611 27.6671 86.2353 27.7618L85.4863 29.9138H84.8967L84.1348 27.7618C84.0926 27.6206 84.0595 27.4768 84.0358 27.3313C84.0358 27.6455 84.066 27.921 84.066 28.1577V29.9268H83.3644V26.7288H84.4189L85.0731 28.6226C85.1226 28.7729 85.16 28.9269 85.185 29.0831C85.2179 28.9255 85.261 28.7703 85.3142 28.6183L85.9641 26.7288H86.9928L87.0186 29.9268Z"
    fill="#F47920"/>
  <path
    d="M91.8866 29.9268H91.1764V28.0114C91.1764 27.8091 91.1764 27.581 91.2065 27.3313C91.1843 27.4771 91.1512 27.6209 91.1076 27.7618L90.3586 29.9138H89.769L89.0071 27.7618C89.0071 27.7058 88.9555 27.5552 88.9081 27.3313C88.9081 27.6455 88.9383 27.921 88.9383 28.1577V29.9268H88.2883V26.7288H89.3428L89.9971 28.6226C90.0484 28.7724 90.0859 28.9265 90.109 29.0831C90.1426 28.9261 90.1843 28.771 90.2338 28.6183L90.888 26.7288H91.9124L91.8866 29.9268Z"
    fill="#F47920"/>
  <path
    d="M92.9713 29.802V29.0918C93.2135 29.2937 93.517 29.4075 93.8321 29.4147C93.9118 29.416 93.9914 29.4074 94.0689 29.3888C94.1293 29.3767 94.1875 29.3549 94.241 29.3243C94.2814 29.2977 94.3152 29.2624 94.34 29.221C94.3644 29.1824 94.3764 29.1374 94.3745 29.0918C94.3746 29.032 94.3566 28.9735 94.3228 28.924C94.2814 28.8721 94.232 28.827 94.1765 28.7906C94.1063 28.7451 94.033 28.7048 93.957 28.67L93.6944 28.5538C93.4798 28.475 93.2877 28.345 93.1349 28.1751C92.9278 27.8916 92.8963 27.5163 93.0531 27.2023C93.1188 27.0833 93.2117 26.9815 93.3243 26.9053C93.4463 26.8254 93.582 26.7685 93.7245 26.7375C93.8823 26.699 94.0442 26.6802 94.2066 26.6815C94.3507 26.6802 94.4946 26.6902 94.637 26.7116C94.7589 26.7295 94.8786 26.7598 94.9943 26.802V27.4692C94.9374 27.4327 94.8785 27.3997 94.8178 27.3702C94.7547 27.3434 94.69 27.3204 94.6241 27.3013L94.4218 27.2583H94.2324C94.1585 27.2574 94.0847 27.2661 94.0129 27.2841C93.9524 27.2963 93.8943 27.3181 93.8408 27.3487C93.7983 27.374 93.7628 27.4095 93.7375 27.452C93.7118 27.4901 93.6983 27.5351 93.6987 27.5811C93.6972 27.6332 93.7122 27.6845 93.7418 27.7274C93.7722 27.7748 93.8117 27.8158 93.858 27.8479C93.9197 27.8899 93.9845 27.9273 94.0517 27.9599L94.3013 28.0718C94.4201 28.1191 94.5352 28.1752 94.6456 28.2396C94.7426 28.2955 94.8311 28.3651 94.9082 28.4462C94.9806 28.5204 95.0376 28.6082 95.076 28.7045C95.1632 28.9628 95.1478 29.2448 95.033 29.4921C94.9671 29.6123 94.8725 29.7144 94.7575 29.7891C94.6334 29.8663 94.4964 29.9203 94.3529 29.9484C94.1932 29.9832 94.0301 30.0006 93.8666 30C93.6976 30 93.529 29.9842 93.363 29.9527C93.2259 29.9214 93.094 29.8707 92.9713 29.802Z"
    fill="#F47920"/>
  <path
    d="M98.4676 29.8107C98.1806 29.937 97.8685 29.9959 97.5552 29.9829C97.1261 30.0071 96.7064 29.8511 96.3973 29.5525C96.1049 29.2431 95.9497 28.8287 95.9669 28.4032C95.9476 27.9413 96.1188 27.4916 96.4404 27.1593C96.7674 26.8373 97.2127 26.6645 97.6714 26.6816C97.9387 26.6746 98.2051 26.714 98.459 26.7978V27.4908C98.2368 27.3625 97.9839 27.2971 97.7273 27.3014C97.457 27.2899 97.1945 27.3931 97.0042 27.5855C96.6424 28.0208 96.6424 28.6523 97.0042 29.0876C97.1875 29.2762 97.4432 29.3766 97.7058 29.3631C97.976 29.3652 98.2419 29.2953 98.4762 29.1608L98.4676 29.8107Z"
    fill="#F47920"/>
  <path fill-rule="evenodd" clip-rule="evenodd"
        d="M99.703 29.5524C99.9995 29.8459 100.405 30.002 100.822 29.9829C101.253 29.9995 101.671 29.832 101.971 29.5223C102.267 29.1875 102.422 28.7507 102.402 28.3042C102.421 27.8695 102.266 27.4451 101.971 27.1249C101.681 26.8302 101.278 26.6736 100.865 26.6945C100.428 26.6752 100.004 26.8464 99.703 27.1636C99.4058 27.4995 99.2513 27.938 99.2726 28.386C99.2535 28.8168 99.4087 29.2372 99.703 29.5524ZM100.254 27.5811C100.395 27.3947 100.618 27.2888 100.852 27.2971C101.079 27.288 101.296 27.391 101.433 27.5725C101.587 27.8005 101.661 28.0728 101.644 28.3473C101.659 28.6127 101.583 28.8753 101.429 29.0919C101.284 29.2689 101.064 29.3677 100.835 29.3587C100.608 29.3663 100.392 29.2637 100.254 29.0833C100.094 28.8675 100.015 28.6025 100.03 28.3344C100.016 28.065 100.095 27.7989 100.254 27.5811Z"
        fill="#F47920"/>
  <path fill-rule="evenodd" clip-rule="evenodd"
        d="M104.153 29.9268V28.8249H104.498C104.832 28.8428 105.162 28.7371 105.423 28.5279C105.653 28.3354 105.781 28.0482 105.772 27.7488C105.772 27.0688 105.367 26.7288 104.562 26.7288H103.435V29.9268H104.153ZM104.153 28.2783V27.284H104.455C104.838 27.284 105.032 27.4389 105.032 27.7747C105.032 28.1104 104.838 28.2783 104.455 28.2783H104.153Z"
        fill="#F47920"/>
  <path
    d="M108.656 29.9268H106.74V26.7288H108.582V27.3141H107.468V28.0286H108.514V28.6097H107.468V29.3414H108.664L108.656 29.9268Z"
    fill="#F47920"/>
</svg>
