<svg width="16" height="16" viewBox="0 0 16 16" fill="none" xmlns="http://www.w3.org/2000/svg">
<path d="M10.582 13.1733H5.41768C5.18815 13.1733 5.07339 13.0575 5.07339 12.8261C5.07339 12.5714 5.18815 12.4441 5.41768 12.4441H10.582C10.8115 12.4441 10.9263 12.5714 10.9263 12.8261C10.9263 13.0575 10.8115 13.1733 10.582 13.1733ZM10.582 11.715H5.41768C5.18815 11.715 5.07339 11.5876 5.07339 11.333C5.07339 11.0784 5.18815 10.9511 5.41768 10.9511H10.582C10.8115 10.9511 10.9263 11.0784 10.9263 11.333C10.9263 11.5876 10.8115 11.715 10.582 11.715ZM15.3332 7.27051C15.3332 6.85384 15.184 6.50662 14.8856 6.22884C14.6102 5.92792 14.2774 5.77745 13.8872 5.77745H12.4067V2.82606C12.4067 2.4094 12.2575 2.06217 11.9591 1.7844C11.6837 1.48347 11.3394 1.33301 10.9263 1.33301H6.69154C6.57678 1.33301 6.42759 1.3793 6.24397 1.4719L3.73067 4.00662C3.63886 4.1918 3.59295 4.34227 3.59295 4.45801V5.77745H2.11251C1.72232 5.77745 1.37803 5.92792 1.07965 6.22884C0.804219 6.50662 0.666504 6.85384 0.666504 7.27051V12.4441H3.59295V13.1733C3.59295 13.59 3.73067 13.9487 4.0061 14.2497C4.30448 14.5275 4.66024 14.6663 5.07339 14.6663H10.9263C11.3394 14.6663 11.6837 14.5275 11.9591 14.2497C12.2575 13.9487 12.4067 13.59 12.4067 13.1733V12.4441H15.3332V7.27051ZM4.31596 4.2844H5.79639C6.00297 4.2844 6.17511 4.21495 6.31283 4.07606C6.45054 3.93717 6.5194 3.76356 6.5194 3.55523V2.06217H10.9263C11.4312 2.06217 11.6837 2.3168 11.6837 2.82606V7.27051H4.31596V4.2844ZM11.6837 13.1733C11.6837 13.6825 11.4312 13.9372 10.9263 13.9372H5.07339C4.56843 13.9372 4.31596 13.6825 4.31596 13.1733V10.2219H11.6837V13.1733ZM13.8872 7.99967H13.1297V7.27051H13.8872V7.99967Z" fill="black"/>
</svg>
