<svg width="24" height="24" viewBox="0 0 24 24" fill="none" xmlns="http://www.w3.org/2000/svg">
<path d="M3 9.7002H20.6V8.7002H3V9.7002ZM22.1 11.2002V17.8002H23.1V11.2002H22.1ZM21.6 18.3002H2V19.3002H21.6V18.3002ZM1.5 17.8002V11.2002H0.5V17.8002H1.5ZM2 18.3002C1.72386 18.3002 1.5 18.0763 1.5 17.8002H0.5C0.5 18.6286 1.17157 19.3002 2 19.3002V18.3002ZM22.1 17.8002C22.1 18.0763 21.8761 18.3002 21.6 18.3002V19.3002C22.4284 19.3002 23.1 18.6286 23.1 17.8002H22.1ZM20.6 9.7002C21.4284 9.7002 22.1 10.3718 22.1 11.2002H23.1C23.1 9.81948 21.9807 8.7002 20.6 8.7002V9.7002ZM3 8.7002C1.61929 8.7002 0.5 9.81948 0.5 11.2002H1.5C1.5 10.3718 2.17157 9.7002 3 9.7002V8.7002Z" fill="#333333"/>
<rect x="19.8996" y="11.3" width="0.6" height="0.6" stroke="#333333" stroke-width="0.6"/>
<path d="M17.2998 4V11.1H6.2998V6.72843C6.2998 6.3306 6.45784 5.94907 6.73915 5.66777L9.46757 2.93934C9.74888 2.65804 10.1304 2.5 10.5282 2.5H15.7998C16.6282 2.5 17.2998 3.17157 17.2998 4Z" fill="white" stroke="#333333"/>
<path d="M9.99961 2.59961V5.49961C9.99961 6.05189 9.55189 6.49961 8.99961 6.49961H6.5" stroke="#333333" stroke-linecap="round"/>
<path d="M5.7998 15.2002H17.7998V20.8002C17.7998 21.3525 17.3521 21.8002 16.7998 21.8002H6.7998C6.24752 21.8002 5.7998 21.3525 5.7998 20.8002V15.2002Z" fill="white" stroke="#333333"/>
<path d="M7.89941 17H15.6994" stroke="#333333" stroke-linecap="round"/>
<path d="M7.89941 19.4004H15.6994" stroke="#333333" stroke-linecap="round"/>
<path d="M4.59961 15.2002H18.9996" stroke="#333333" stroke-linecap="round"/>
</svg>
