<?xml version="1.0" encoding="utf-8"?>
<svg version="1.1" xmlns:xlink="http://www.w3.org/1999/xlink" width="16px" height="16px" xmlns="http://www.w3.org/2000/svg">
  <g transform="matrix(1 0 0 1 -326 -10 )">
    <path d="M 2.909090909090909 11.636363636363637  L 4.363636363636363 11.636363636363637  L 4.363636363636363 13.09090909090909  L 2.909090909090909 13.09090909090909  L 2.909090909090909 11.636363636363637  Z M 2.909090909090909 2.9090909090909083  L 4.363636363636363 2.9090909090909083  L 4.363636363636363 4.363636363636363  L 2.909090909090909 4.363636363636363  L 2.909090909090909 2.9090909090909083  Z M 11.636363636363637 2.9090909090909083  L 13.090909090909092 2.9090909090909083  L 13.090909090909092 4.363636363636363  L 11.636363636363637 4.363636363636363  L 11.636363636363637 2.9090909090909083  Z M 1.4545454545454546 10.181818181818182  L 1.4545454545454546 14.53409090909091  L 5.818181818181818 14.53409090909091  L 5.818181818181818 10.181818181818182  L 1.4545454545454546 10.181818181818182  Z M 1.4545454545454546 1.454545454545455  L 1.4545454545454546 5.818181818181818  L 5.818181818181818 5.818181818181818  L 5.818181818181818 1.454545454545455  L 1.4545454545454546 1.454545454545455  Z M 10.181818181818182 1.454545454545455  L 10.181818181818182 5.818181818181818  L 14.545454545454545 5.818181818181818  L 14.545454545454545 1.454545454545455  L 10.181818181818182 1.454545454545455  Z M 0 8.727272727272727  L 7.2727272727272725 8.727272727272727  L 7.2727272727272725 16  L 0 16  L 0 8.727272727272727  Z M 11.636363636363637 14.545454545454545  L 13.090909090909092 14.545454545454545  L 13.090909090909092 16  L 11.636363636363637 16  L 11.636363636363637 14.545454545454545  Z M 14.545454545454545 14.545454545454545  L 16 14.545454545454545  L 16 16  L 14.545454545454545 16  L 14.545454545454545 14.545454545454545  Z M 14.545454545454545 8.727272727272727  L 16 8.727272727272727  L 16 13.09090909090909  L 11.636363636363637 13.09090909090909  L 11.636363636363637 11.636363636363637  L 10.181818181818182 11.636363636363637  L 10.181818181818182 16  L 8.727272727272727 16  L 8.727272727272727 8.727272727272727  L 13.090909090909092 8.727272727272727  L 13.090909090909092 10.181818181818182  L 14.545454545454545 10.181818181818182  L 14.545454545454545 8.727272727272727  Z M 0 0  L 7.2727272727272725 0  L 7.2727272727272725 7.272727272727273  L 0 7.272727272727273  L 0 0  Z M 8.727272727272727 0  L 16 0  L 16 7.272727272727273  L 8.727272727272727 7.272727272727273  L 8.727272727272727 0  Z " fill-rule="nonzero" fill="#237dac" stroke="none" transform="matrix(1 0 0 1 326 10 )" />
  </g>
</svg>