<svg width="24" height="24" viewBox="0 0 24 24" fill="none" xmlns="http://www.w3.org/2000/svg">
<path d="M12.002 21C16.9725 21 21.002 16.9706 21.002 12C21.002 7.02944 16.9725 3 12.002 3C7.03139 3 3.00195 7.02944 3.00195 12C3.00195 16.9706 7.03139 21 12.002 21Z" stroke="#333333" stroke-linecap="round" stroke-linejoin="round"/>
<path d="M11.9999 17.4002C12.3313 17.4002 12.5999 17.1316 12.5999 16.8002C12.5999 16.4688 12.3313 16.2002 11.9999 16.2002C11.6685 16.2002 11.3999 16.4688 11.3999 16.8002C11.3999 17.1316 11.6685 17.4002 11.9999 17.4002Z" fill="#333333"/>
<path d="M12.0015 14.25V12.75C12.5206 12.75 13.0282 12.596 13.4598 12.3076C13.8915 12.0192 14.228 11.6092 14.4266 11.1295C14.6253 10.6499 14.6773 10.1221 14.576 9.61289C14.4747 9.10369 14.2247 8.63596 13.8576 8.26885C13.4905 7.90173 13.0228 7.65173 12.5136 7.55044C12.0044 7.44915 11.4766 7.50114 10.9969 7.69982C10.5173 7.8985 10.1073 8.23495 9.81886 8.66663C9.53042 9.09831 9.37646 9.60583 9.37646 10.125" stroke="#333333" stroke-width="1.5" stroke-linecap="round" stroke-linejoin="round"/>
</svg>
