<svg width="24" height="24" viewBox="0 0 24 24" fill="none" xmlns="http://www.w3.org/2000/svg">
<path d="M12.0018 21C16.9724 21 21.0018 16.9706 21.0018 12C21.0018 7.02944 16.9724 3 12.0018 3C7.03127 3 3.00183 7.02944 3.00183 12C3.00183 16.9706 7.03127 21 12.0018 21Z" stroke="#333333" stroke-linecap="round" stroke-linejoin="round"/>
<path d="M12 17.25C12.4142 17.25 12.75 16.9142 12.75 16.5C12.75 16.0858 12.4142 15.75 12 15.75C11.5858 15.75 11.25 16.0858 11.25 16.5C11.25 16.9142 11.5858 17.25 12 17.25Z" fill="#333333"/>
<path d="M12.0015 14.2501V12.7501C12.5206 12.7501 13.0282 12.5962 13.4598 12.3077C13.8915 12.0193 14.228 11.6093 14.4266 11.1297C14.6253 10.65 14.6773 10.1222 14.576 9.61301C14.4747 9.10381 14.2247 8.63608 13.8576 8.26897C13.4905 7.90186 13.0228 7.65185 12.5136 7.55056C12.0044 7.44928 11.4766 7.50126 10.9969 7.69994C10.5173 7.89862 10.1073 8.23507 9.81886 8.66675C9.53042 9.09843 9.37646 9.60595 9.37646 10.1251" stroke="#333333" stroke-linecap="round" stroke-linejoin="round"/>
</svg>
