<svg width="16" height="16" viewBox="0 0 16 16" fill="none" xmlns="http://www.w3.org/2000/svg">
<path d="M8.00098 14C11.3147 14 14.001 11.3137 14.001 8C14.001 4.68629 11.3147 2 8.00098 2C4.68727 2 2.00098 4.68629 2.00098 8C2.00098 11.3137 4.68727 14 8.00098 14Z" fill="currentColor" stroke="currentColor" stroke-linecap="round" stroke-linejoin="round"/>
<path d="M8.0001 11.5998C8.22101 11.5998 8.4001 11.4207 8.4001 11.1998C8.4001 10.9789 8.22101 10.7998 8.0001 10.7998C7.77918 10.7998 7.6001 10.9789 7.6001 11.1998C7.6001 11.4207 7.77918 11.5998 8.0001 11.5998Z" fill="current"/>
<path d="M8.00097 9.5V8.5C8.34709 8.5 8.68544 8.39737 8.97322 8.20507C9.26101 8.01278 9.48531 7.73947 9.61776 7.4197C9.75022 7.09993 9.78487 6.74806 9.71735 6.40859C9.64982 6.06913 9.48315 5.75731 9.23841 5.51256C8.99367 5.26782 8.68185 5.10115 8.34238 5.03363C8.00292 4.9661 7.65105 5.00076 7.33128 5.13321C7.01151 5.26567 6.7382 5.48997 6.5459 5.77775C6.35361 6.06554 6.25098 6.40388 6.25098 6.75" stroke="current" stroke-width="1.5" stroke-linecap="round" stroke-linejoin="round"/>
</svg>
