<svg width="32" height="25" viewBox="0 0 32 25" fill="none" xmlns="http://www.w3.org/2000/svg">
<path d="M17.932 4.46399V7.78199H17.227L13.909 10.17H16.483V13.524H13.156C13.186 13.314 13.204 13.095 13.204 12.87C13.204 11.397 12.604 8.92799 8.58703 8.92799H7.66003C8.10103 7.94999 9.08503 7.26599 10.225 7.26599C11.086 7.26599 11.845 7.64999 12.364 8.25299C13.078 6.54299 14.545 5.21699 16.354 4.70699C16.867 4.55699 17.392 4.47299 17.932 4.46399Z" fill="#D85227"/>
<path d="M28.09 15.009C28.09 17.508 26.062 19.542 23.557 19.542H17.929V17.877H19.462V13.524H27.832C27.841 13.554 27.85 13.584 27.862 13.611C28.015 14.049 28.09 14.52 28.09 15.009Z" fill="#F37201"/>
<path d="M17.932 17.877V19.542H14.875L11.782 15.921L11.818 15.891C12.568 15.261 13.015 14.469 13.153 13.527H16.48V17.88H17.929L17.932 17.877Z" fill="#F99D28"/>
<path d="M19.462 13.521V7.77901H17.929V4.46101C17.974 4.45801 18.019 4.45801 18.064 4.45801C21.436 4.45801 24.184 7.17601 24.253 10.53C25.924 10.788 27.298 11.955 27.835 13.521H19.465H19.462Z" fill="#FAC799"/>
<path d="M19.4619 7.77905V17.8741H16.4829V10.1701H13.9089L17.2269 7.77905H19.4619Z" fill="white"/>
<path d="M13.792 19.5421H10.933L6.90998 14.5051H8.18798V14.4961C9.39098 14.4961 9.99398 13.9831 9.99398 12.9541C9.99398 11.9251 9.39098 11.4451 8.18798 11.4451H6.16898V19.5451H3.90698V9.75305H8.58098C11.113 9.75305 12.376 10.7941 12.376 12.8731C12.376 13.8571 12.013 14.6521 11.287 15.2611C11.062 15.4501 10.807 15.6061 10.537 15.7381L13.792 19.5481V19.5421Z" fill="#231F20"/>
<path d="M25.411 8.57699H24.955V8.41199H26.053V8.57699H25.597V9.74099H25.408V8.57699H25.411Z" fill="#919496"/>
<path d="M27.49 9.73799V8.77199L27.007 9.57899H26.92L26.44 8.77799V9.74099H26.257V8.41199H26.413L26.968 9.34499L27.514 8.41199H27.67V9.74099H27.49V9.73799Z" fill="#919496"/>
</svg>
