<svg width="32" height="32" viewBox="0 0 32 32" fill="none" xmlns="http://www.w3.org/2000/svg">
<path d="M15.6001 4.88778C12.5966 4.88008 9.70845 6.04366 7.54914 8.13133V4.88778C7.54914 4.65233 7.45561 4.42652 7.28912 4.26003C7.12262 4.09353 6.89681 4 6.66136 4C6.4259 4 6.20009 4.09353 6.0336 4.26003C5.86711 4.42652 5.77358 4.65233 5.77358 4.88778V10.2145C5.77274 10.4 5.8301 10.5811 5.93759 10.7323C6.04508 10.8835 6.19727 10.9972 6.37276 11.0573L11.6994 12.8329C11.8112 12.8741 11.9301 12.8924 12.049 12.8868C12.168 12.8811 12.2846 12.8516 12.392 12.8C12.4993 12.7484 12.5952 12.6758 12.6739 12.5864C12.7526 12.497 12.8126 12.3927 12.8502 12.2797C12.8878 12.1667 12.9023 12.0473 12.8929 11.9286C12.8835 11.8099 12.8503 11.6943 12.7953 11.5886C12.7403 11.483 12.6646 11.3895 12.5728 11.3136C12.481 11.2378 12.3748 11.1812 12.2607 11.1472L8.32807 9.83899C9.90722 8.11551 12.0543 7.01851 14.3762 6.74884C16.6982 6.47917 19.0395 7.05489 20.9717 8.37057C22.9038 9.68625 24.2973 11.6539 24.8972 13.9131C25.497 16.1724 25.263 18.5721 24.2379 20.6729C23.2129 22.7737 21.4655 24.435 19.3156 25.3526C17.1657 26.2702 14.7572 26.3827 12.5311 25.6695C10.305 24.9564 8.41031 23.4652 7.1939 21.4691C5.97749 19.473 5.52078 17.1055 5.90739 14.8002C5.94871 14.5684 5.89627 14.3298 5.76162 14.1367C5.62697 13.9436 5.42113 13.8119 5.18938 13.7706C4.95763 13.7293 4.71896 13.7817 4.52588 13.9164C4.33279 14.051 4.20111 14.2569 4.15979 14.4886V14.5046C4.05354 15.1402 4.00009 15.7835 4.00001 16.428C3.99687 18.7123 4.67084 20.9464 5.9368 22.848C7.20275 24.7495 9.00388 26.2332 11.1126 27.1115C13.2214 27.9899 15.5432 28.2236 17.7847 27.7831C20.0262 27.3425 22.0869 26.2475 23.7064 24.6364C25.3259 23.0253 26.4315 20.9703 26.8837 18.7311C27.3358 16.4919 27.1142 14.1689 26.2467 12.0556C25.3793 9.94236 23.9049 8.13357 22.01 6.85779C20.115 5.58201 17.8845 4.89647 15.6001 4.88778Z" fill="currentColor"/>
</svg>
