<svg width="16" height="16" viewBox="0 0 16 16" fill="none" xmlns="http://www.w3.org/2000/svg">
<path d="M7.80005 2.44389C6.2983 2.44004 4.85422 3.02183 3.77457 4.06567V2.44389C3.77457 2.32616 3.7278 2.21326 3.64456 2.13001C3.56131 2.04677 3.44841 2 3.33068 2C3.21295 2 3.10005 2.04677 3.0168 2.13001C2.93356 2.21326 2.88679 2.32616 2.88679 2.44389V5.10724C2.88637 5.19999 2.91505 5.29054 2.9688 5.36614C3.02254 5.44174 3.09864 5.49858 3.18638 5.52866L5.84972 6.41644C5.9056 6.43704 5.96504 6.4462 6.02452 6.44338C6.084 6.44056 6.14231 6.42581 6.19598 6.40001C6.24965 6.37421 6.29759 6.33789 6.33695 6.2932C6.37631 6.24851 6.40628 6.19637 6.42509 6.13987C6.4439 6.08337 6.45117 6.02366 6.44645 5.9643C6.44174 5.90494 6.42514 5.84713 6.39764 5.79431C6.37015 5.74149 6.33232 5.69473 6.2864 5.65681C6.24048 5.6189 6.18741 5.5906 6.13034 5.5736L4.16404 4.9195C4.95361 4.05776 6.02716 3.50925 7.18812 3.37442C8.34909 3.23959 9.51977 3.52744 10.4858 4.18528C11.4519 4.84313 12.1487 5.82693 12.4486 6.95656C12.7485 8.08619 12.6315 9.28606 12.119 10.3365C11.6065 11.3869 10.7327 12.2175 9.65778 12.6763C8.58283 13.1351 7.37858 13.1914 6.26555 12.8348C5.15251 12.4782 4.20515 11.7326 3.59695 10.7345C2.98875 9.7365 2.76039 8.55276 2.9537 7.40009C2.97436 7.28422 2.94814 7.16489 2.88081 7.06834C2.81348 6.9718 2.71056 6.90596 2.59469 6.8853C2.47882 6.86464 2.35948 6.89086 2.26294 6.95819C2.1664 7.02551 2.10055 7.12843 2.0799 7.24431V7.2523C2.02677 7.5701 2.00005 7.89176 2.00001 8.21398C1.99843 9.35617 2.33542 10.4732 2.9684 11.424C3.60137 12.3747 4.50194 13.1166 5.55632 13.5558C6.61071 13.995 7.7716 14.1118 8.89236 13.8915C10.0131 13.6713 11.0435 13.1238 11.8532 12.3182C12.6629 11.5126 13.2158 10.4852 13.4418 9.36556C13.6679 8.24596 13.5571 7.08447 13.1234 6.02782C12.6896 4.97118 11.9525 4.06679 11.005 3.42889C10.0575 2.791 8.94224 2.44824 7.80005 2.44389Z" fill="#333333"/>
</svg>
