<svg width="24" height="24" viewBox="0 0 24 24" fill="none" xmlns="http://www.w3.org/2000/svg">
<path d="M13.5 21H10.5" stroke="#333333" stroke-linecap="round" stroke-linejoin="round"/>
<path d="M11.3667 1.66467C9.58616 3.09099 3.6308 8.79052 8.83821 17.8119H14.8382C19.9373 8.79691 14.0691 3.09906 12.3072 1.6677C12.1744 1.55974 12.0086 1.50056 11.8375 1.5C11.6663 1.49945 11.5002 1.55757 11.3667 1.66467V1.66467Z" fill="#333333" stroke="#333333" stroke-linecap="round" stroke-linejoin="round"/>
<path d="M6.92444 10.5L3.98536 14.0269C3.91194 14.115 3.85971 14.2187 3.83267 14.3302C3.80563 14.4416 3.80451 14.5578 3.82938 14.6697L4.98841 19.8853C5.01604 20.0097 5.07487 20.1249 5.15936 20.2202C5.24386 20.3155 5.35123 20.3877 5.47136 20.43C5.59148 20.4723 5.72041 20.4834 5.84597 20.4621C5.97154 20.4408 6.08962 20.3879 6.18907 20.3083L8.99944 18.06" stroke="#333333" stroke-linecap="round" stroke-linejoin="round"/>
<path d="M17.0186 10.5586L20.0141 14.1532C20.0875 14.2413 20.1397 14.3451 20.1668 14.4565C20.1938 14.5679 20.1949 14.6841 20.1701 14.796L19.011 20.0117C18.9834 20.136 18.9246 20.2512 18.8401 20.3465C18.7556 20.4418 18.6482 20.514 18.5281 20.5563C18.408 20.5987 18.279 20.6097 18.1535 20.5884C18.0279 20.5671 17.9098 20.5142 17.8104 20.4346L15 18.1863" stroke="#333333" stroke-linecap="round" stroke-linejoin="round"/>
<path d="M12 10.125C12.6213 10.125 13.125 9.62132 13.125 9C13.125 8.37868 12.6213 7.875 12 7.875C11.3787 7.875 10.875 8.37868 10.875 9C10.875 9.62132 11.3787 10.125 12 10.125Z" fill="white"/>
</svg>
