<svg width="24" height="24" viewBox="0 0 24 24" fill="none" xmlns="http://www.w3.org/2000/svg">
<path d="M13.5 21H10.5" stroke="currentColor" stroke-linecap="round" stroke-linejoin="round"/>
<path d="M11.5288 1.85021C9.74827 3.27654 3.79291 8.97607 9.00032 17.9975H15.0003C20.0994 8.98246 14.2312 3.2846 12.4693 1.85325C12.3365 1.74529 12.1707 1.6861 11.9996 1.68555C11.8285 1.685 11.6623 1.74312 11.5288 1.85021V1.85021Z" stroke="currentColor" stroke-linecap="round" stroke-linejoin="round"/>
<path d="M6.92541 10.4404L3.98633 13.9673C3.91292 14.0554 3.86069 14.1592 3.83365 14.2706C3.80661 14.3821 3.80548 14.4982 3.83036 14.6102L4.98938 19.8258C5.01701 19.9501 5.07585 20.0653 5.16034 20.1606C5.24484 20.2559 5.35221 20.3281 5.47233 20.3705C5.59246 20.4128 5.72138 20.4238 5.84695 20.4025C5.97252 20.3812 6.09059 20.3283 6.19005 20.2487L9.00042 18.0004" stroke="currentColor" stroke-linecap="round" stroke-linejoin="round"/>
<path d="M17.0186 10.373L20.0141 13.9677C20.0875 14.0558 20.1397 14.1595 20.1668 14.271C20.1938 14.3824 20.1949 14.4986 20.1701 14.6105L19.011 19.8261C18.9834 19.9504 18.9246 20.0657 18.8401 20.161C18.7556 20.2563 18.6482 20.3285 18.5281 20.3708C18.408 20.4131 18.279 20.4241 18.1535 20.4028C18.0279 20.3815 17.9098 20.3286 17.8104 20.2491L15 18.0008" stroke="currentColor" stroke-linecap="round" stroke-linejoin="round"/>
<path d="M12 10.125C12.6213 10.125 13.125 9.62132 13.125 9C13.125 8.37868 12.6213 7.875 12 7.875C11.3787 7.875 10.875 8.37868 10.875 9C10.875 9.62132 11.3787 10.125 12 10.125Z" fill="currentColor"/>
</svg>
