<svg width="16" height="16" viewBox="0 0 16 16" fill="none" xmlns="http://www.w3.org/2000/svg">
<path d="M9 14H7" stroke="currentColor" stroke-linecap="round" stroke-linejoin="round"/>
<path d="M7.68522 1.23283C6.49819 2.18371 2.52795 5.9834 5.99956 11.9977H9.99956C13.399 5.98765 9.48682 2.18908 8.31224 1.23485C8.22371 1.16288 8.11318 1.12342 7.99909 1.12305C7.88499 1.12268 7.77421 1.16143 7.68522 1.23283V1.23283Z" stroke="currentColor" stroke-linecap="round" stroke-linejoin="round"/>
<path d="M4.61727 6.95996L2.65788 9.31122C2.60894 9.36995 2.57412 9.43913 2.55609 9.51342C2.53806 9.58771 2.53731 9.66515 2.5539 9.73978L3.32658 13.2169C3.345 13.2997 3.38422 13.3766 3.44055 13.4401C3.49688 13.5036 3.56846 13.5518 3.64855 13.58C3.72863 13.6082 3.81458 13.6155 3.89829 13.6013C3.982 13.5871 4.06072 13.5519 4.12702 13.4988L6.0006 12" stroke="currentColor" stroke-linecap="round" stroke-linejoin="round"/>
<path d="M11.3457 6.91504L13.3427 9.31145C13.3917 9.37018 13.4265 9.43935 13.4445 9.51365C13.4625 9.58794 13.4633 9.66538 13.4467 9.74001L12.674 13.2171C12.6556 13.3 12.6164 13.3768 12.5601 13.4403C12.5037 13.5039 12.4321 13.552 12.3521 13.5802C12.272 13.6084 12.186 13.6158 12.1023 13.6016C12.0186 13.5874 11.9399 13.5521 11.8736 13.499L10 12.0002" stroke="currentColor" stroke-linecap="round" stroke-linejoin="round"/>
<path d="M8 6.75C8.41421 6.75 8.75 6.41421 8.75 6C8.75 5.58579 8.41421 5.25 8 5.25C7.58579 5.25 7.25 5.58579 7.25 6C7.25 6.41421 7.58579 6.75 8 6.75Z" fill="currentColor"/>
</svg>
