<svg width="40" height="40" viewBox="0 0 40 40" fill="none" xmlns="http://www.w3.org/2000/svg">
<path d="M7.66989 17.4983C7.66989 16.4757 6.8471 15.6521 5.84102 15.6521H4.93408V19.3283H5.84102C6.8471 19.3283 7.66989 18.5042 7.66989 17.4983ZM11.7955 24.8271H8.46625L5.82305 21.1591H4.93408V24.8192H2V13.8232H6.20325C8.6264 13.8232 10.6042 15.4709 10.6042 17.4983C10.6042 18.7348 9.846 19.8392 8.69203 20.515L11.7955 24.8271Z" fill="#333333"/>
<path d="M15.1049 18.1579C14.33 18.1579 13.6709 19.2111 13.6709 20.5149C13.6709 21.8186 14.33 22.8732 15.1049 22.8732C15.8977 22.8732 16.5557 21.8186 16.5557 20.5149C16.5557 19.2111 15.8977 18.1579 15.1049 18.1579ZM19.6211 20.5149C19.6211 23.0055 17.5956 25 15.1049 25C12.615 25 10.6045 23.0055 10.6045 20.5149C10.6045 18.0261 12.615 16.0305 15.1049 16.0305C17.5956 16.0305 19.6211 18.0261 19.6211 20.5149Z" fill="#333333"/>
<path d="M26.5058 16.213L23.1259 19.5924V16.2018H20.1924V24.8189H23.1259V21.3235L26.6545 24.8189H30.3469L25.8628 20.3343L29.5769 16.6215V21.7353C29.5769 23.4331 30.598 25 33.1693 25C34.39 25 35.5102 24.3077 36.0546 23.6813L37.3736 24.8189H37.9998V16.213H35.0662V20.6965V21.7848C34.7359 22.3614 34.2756 22.7239 33.5642 22.7239C32.8425 22.7239 32.5113 22.2961 32.5113 20.9275V20.5663V16.213H26.5058Z" fill="#333333"/>
</svg>
