<svg width="24" height="24" viewBox="0 0 24 24" fill="none" xmlns="http://www.w3.org/2000/svg">
<g clip-path="url(#clip0_17935_33863)">
<path d="M14.0771 19.6154L14.0771 4.38462C14.0771 3.61991 13.4572 3 12.6925 3L4.38484 3C3.62014 3 3.00023 3.61991 3.00023 4.38462L3.00023 19.6154C3.00023 20.3801 3.62014 21 4.38484 21H12.6925C13.4572 21 14.0771 20.3801 14.0771 19.6154Z" stroke="#333333" stroke-linecap="round" stroke-linejoin="round"/>
<path d="M15.5192 10.6154C17.6821 10.6154 20.3654 10.6154 20.3654 10.6154C21.1301 10.6154 21.75 11.1966 21.75 11.9135L21.75 19.7019C21.75 20.4188 21.1301 21 20.3654 21L14.8269 21" stroke="#333333" stroke-linecap="round" stroke-linejoin="round"/>
<path d="M8.53846 18.6922C9.11199 18.6922 9.57692 18.2272 9.57692 17.6537C9.57692 17.0802 9.11199 16.6152 8.53846 16.6152C7.96494 16.6152 7.5 17.0802 7.5 17.6537C7.5 18.2272 7.96494 18.6922 8.53846 18.6922Z" fill="#333333"/>
<path d="M18.375 7.87549L19.7883 8.53861M19.7883 8.53861L20.625 7.12549M19.7883 8.53861C19.6499 5.48138 16.846 4.49553 15.4614 4.38477" stroke="#333333" stroke-width="0.75" stroke-linecap="round" stroke-linejoin="round"/>
</g>
<defs>
<clipPath id="clip0_17935_33863">
<rect width="24" height="24" fill="white"/>
</clipPath>
</defs>
</svg>
