<svg width="158" height="21" viewBox="0 0 158 21" fill="none" xmlns="http://www.w3.org/2000/svg">
<path d="M47.8083 19.544C49.115 20.0293 50.5243 20.272 52.0363 20.272C53.7537 20.272 55.2937 19.9733 56.6563 19.376C58.0377 18.7787 59.195 17.9107 60.1283 16.772L57.2163 14.084C56.5443 14.868 55.7977 15.456 54.9763 15.848C54.155 16.2213 53.259 16.408 52.2883 16.408C51.3737 16.408 50.5337 16.2587 49.7683 15.96C49.003 15.6613 48.3403 15.232 47.7803 14.672C47.2203 14.112 46.7817 13.4493 46.4643 12.684C46.1656 11.9187 46.0163 11.0693 46.0163 10.136C46.0163 9.20267 46.1656 8.35333 46.4643 7.588C46.7817 6.82267 47.2203 6.16 47.7803 5.6C48.3403 5.04 49.003 4.61067 49.7683 4.312C50.5337 4.01333 51.3737 3.864 52.2883 3.864C53.259 3.864 54.155 4.06 54.9763 4.452C55.7977 4.82533 56.5443 5.39467 57.2163 6.16L60.1283 3.472C59.195 2.33333 58.0377 1.47467 56.6563 0.896001C55.2937 0.298667 53.763 0 52.0643 0C50.5337 0 49.1243 0.252 47.8363 0.755999C46.5483 1.24133 45.419 1.94133 44.4483 2.856C43.4963 3.77067 42.7496 4.844 42.2083 6.076C41.6856 7.308 41.4243 8.66133 41.4243 10.136C41.4243 11.6107 41.6856 12.964 42.2083 14.196C42.7496 15.428 43.4963 16.5013 44.4483 17.416C45.4003 18.3307 46.5203 19.04 47.8083 19.544Z" fill="url(#paint0_linear_627_6717)"/>
<path d="M112.151 20.272C110.583 20.272 109.08 20.0667 107.643 19.656C106.206 19.2267 105.048 18.676 104.171 18.004L105.711 14.588C106.551 15.1853 107.54 15.68 108.679 16.072C109.836 16.4453 111.003 16.632 112.179 16.632C113.075 16.632 113.794 16.548 114.335 16.38C114.895 16.1933 115.306 15.9413 115.567 15.624C115.828 15.3067 115.959 14.9427 115.959 14.532C115.959 14.0093 115.754 13.5987 115.343 13.3C114.932 12.9827 114.391 12.7307 113.719 12.544C113.047 12.3387 112.3 12.152 111.479 11.984C110.676 11.7973 109.864 11.5733 109.043 11.312C108.24 11.0507 107.503 10.7147 106.831 10.304C106.159 9.89333 105.608 9.352 105.179 8.68C104.768 8.008 104.563 7.14933 104.563 6.104C104.563 4.984 104.862 3.96667 105.459 3.052C106.075 2.11867 106.99 1.38133 108.203 0.84C109.435 0.280001 110.975 0 112.823 0C114.055 0 115.268 0.149334 116.463 0.448C117.658 0.728 118.712 1.15733 119.627 1.736L118.227 5.18C117.312 4.65733 116.398 4.27467 115.483 4.032C114.568 3.77067 113.672 3.64 112.795 3.64C111.918 3.64 111.199 3.74267 110.639 3.948C110.079 4.15333 109.678 4.424 109.435 4.76C109.192 5.07733 109.071 5.45067 109.071 5.88C109.071 6.384 109.276 6.79467 109.687 7.112C110.098 7.41067 110.639 7.65333 111.311 7.84C111.983 8.02667 112.72 8.21333 113.523 8.4C114.344 8.58667 115.156 8.80133 115.959 9.044C116.78 9.28667 117.527 9.61333 118.199 10.024C118.871 10.4347 119.412 10.976 119.823 11.648C120.252 12.32 120.467 13.1693 120.467 14.196C120.467 15.2973 120.159 16.3053 119.543 17.22C118.927 18.1347 118.003 18.872 116.771 19.432C115.558 19.992 114.018 20.272 112.151 20.272Z" fill="url(#paint1_linear_627_6717)"/>
<path fill-rule="evenodd" clip-rule="evenodd" d="M137.656 0.33606L128.92 19.9361H133.568L135.315 15.7361H144.4L146.14 19.9361H150.9L142.136 0.33606H137.656ZM142.974 12.2921L139.866 4.79083L136.747 12.2921H142.974Z" fill="url(#paint2_linear_627_6717)"/>
<path d="M152.934 0.33606V19.9361H157.47V0.33606H152.934Z" fill="url(#paint3_linear_627_6717)"/>
<path d="M85.8286 17.9481C87.3966 19.4974 89.5712 20.2721 92.3526 20.2721C95.1339 20.2721 97.3086 19.4974 98.8766 17.9481C100.445 16.3987 101.229 14.1867 101.229 11.3121V0.33606H96.7486V11.1441C96.7486 13.0107 96.3659 14.3547 95.6006 15.1761C94.8352 15.9974 93.7619 16.4081 92.3806 16.4081C90.9992 16.4081 89.9259 15.9974 89.1606 15.1761C88.3952 14.3547 88.0126 13.0107 88.0126 11.1441V0.33606H83.4766V11.3121C83.4766 14.1867 84.2606 16.3987 85.8286 17.9481Z" fill="url(#paint4_linear_627_6717)"/>
<path d="M67.6994 19.9361V14.9884L70.3259 12.2467L76.6034 19.9361H81.8954L73.3049 9.06856L81.4194 0.33606H76.3794L67.6994 9.48245V0.33606H63.1914V19.9361H67.6994Z" fill="url(#paint5_linear_627_6717)"/>
<path d="M29.2979 20.2721C26.5165 20.2721 24.3419 19.4974 22.7739 17.9481C21.2059 16.3987 20.4219 14.1867 20.4219 11.3121V0.33606H24.9579V11.1441C24.9579 13.0107 25.3405 14.3547 26.1059 15.1761C26.8712 15.9974 27.9445 16.4081 29.3259 16.4081C30.7072 16.4081 31.7805 15.9974 32.5459 15.1761C33.3112 14.3547 33.6939 13.0107 33.6939 11.1441V0.33606H38.1739V11.3121C38.1739 14.1867 37.3899 16.3987 35.8219 17.9481C34.2539 19.4974 32.0792 20.2721 29.2979 20.2721Z" fill="url(#paint6_linear_627_6717)"/>
<path fill-rule="evenodd" clip-rule="evenodd" d="M0 0.33606V19.9361H4.536V14.4761H8.484C8.55548 14.4761 8.62655 14.4756 8.69723 14.4747L12.46 19.9361H17.36L12.9816 13.6529C12.9944 13.6473 13.0072 13.6417 13.02 13.6361C14.2893 13.0761 15.2693 12.2734 15.96 11.2281C16.6507 10.1641 16.996 8.90406 16.996 7.44806C16.996 5.97339 16.6507 4.70406 15.96 3.64006C15.2693 2.57606 14.2893 1.76406 13.02 1.20406C11.7507 0.625394 10.2387 0.33606 8.484 0.33606H0ZM4.536 10.8641H8.232C9.632 10.8641 10.6773 10.5654 11.368 9.96806C12.0587 9.35206 12.404 8.51206 12.404 7.44806C12.404 6.36539 12.0587 5.52539 11.368 4.92806C10.6773 4.33073 9.632 4.03206 8.232 4.03206H4.536V10.8641Z" fill="url(#paint7_linear_627_6717)"/>
<defs>
<linearGradient id="paint0_linear_627_6717" x1="0" y1="10.136" x2="157.47" y2="10.136" gradientUnits="userSpaceOnUse">
<stop stop-color="#F7B605"/>
<stop offset="0.25" stop-color="#F79B06"/>
<stop offset="0.5" stop-color="#F65650"/>
<stop offset="0.75" stop-color="#EC4C9A"/>
<stop offset="1" stop-color="#A560FF"/>
</linearGradient>
<linearGradient id="paint1_linear_627_6717" x1="0" y1="10.136" x2="157.47" y2="10.136" gradientUnits="userSpaceOnUse">
<stop stop-color="#F7B605"/>
<stop offset="0.25" stop-color="#F79B06"/>
<stop offset="0.5" stop-color="#F65650"/>
<stop offset="0.75" stop-color="#EC4C9A"/>
<stop offset="1" stop-color="#A560FF"/>
</linearGradient>
<linearGradient id="paint2_linear_627_6717" x1="0" y1="10.136" x2="157.47" y2="10.136" gradientUnits="userSpaceOnUse">
<stop stop-color="#F7B605"/>
<stop offset="0.25" stop-color="#F79B06"/>
<stop offset="0.5" stop-color="#F65650"/>
<stop offset="0.75" stop-color="#EC4C9A"/>
<stop offset="1" stop-color="#A560FF"/>
</linearGradient>
<linearGradient id="paint3_linear_627_6717" x1="0" y1="10.136" x2="157.47" y2="10.136" gradientUnits="userSpaceOnUse">
<stop stop-color="#F7B605"/>
<stop offset="0.25" stop-color="#F79B06"/>
<stop offset="0.5" stop-color="#F65650"/>
<stop offset="0.75" stop-color="#EC4C9A"/>
<stop offset="1" stop-color="#A560FF"/>
</linearGradient>
<linearGradient id="paint4_linear_627_6717" x1="0" y1="10.136" x2="157.47" y2="10.136" gradientUnits="userSpaceOnUse">
<stop stop-color="#F7B605"/>
<stop offset="0.25" stop-color="#F79B06"/>
<stop offset="0.5" stop-color="#F65650"/>
<stop offset="0.75" stop-color="#EC4C9A"/>
<stop offset="1" stop-color="#A560FF"/>
</linearGradient>
<linearGradient id="paint5_linear_627_6717" x1="0" y1="10.136" x2="157.47" y2="10.136" gradientUnits="userSpaceOnUse">
<stop stop-color="#F7B605"/>
<stop offset="0.25" stop-color="#F79B06"/>
<stop offset="0.5" stop-color="#F65650"/>
<stop offset="0.75" stop-color="#EC4C9A"/>
<stop offset="1" stop-color="#A560FF"/>
</linearGradient>
<linearGradient id="paint6_linear_627_6717" x1="0" y1="10.136" x2="157.47" y2="10.136" gradientUnits="userSpaceOnUse">
<stop stop-color="#F7B605"/>
<stop offset="0.25" stop-color="#F79B06"/>
<stop offset="0.5" stop-color="#F65650"/>
<stop offset="0.75" stop-color="#EC4C9A"/>
<stop offset="1" stop-color="#A560FF"/>
</linearGradient>
<linearGradient id="paint7_linear_627_6717" x1="0" y1="10.136" x2="157.47" y2="10.136" gradientUnits="userSpaceOnUse">
<stop stop-color="#F7B605"/>
<stop offset="0.25" stop-color="#F79B06"/>
<stop offset="0.5" stop-color="#F65650"/>
<stop offset="0.75" stop-color="#EC4C9A"/>
<stop offset="1" stop-color="#A560FF"/>
</linearGradient>
</defs>
</svg>
