<svg width="160" height="22" viewBox="0 0 160 22" fill="none" xmlns="http://www.w3.org/2000/svg">
<path d="M48.8083 20.544C50.115 21.0293 51.5243 21.272 53.0363 21.272C54.7537 21.272 56.2937 20.9733 57.6563 20.376C59.0377 19.7787 60.195 18.9107 61.1283 17.772L58.2163 15.084C57.5443 15.868 56.7977 16.456 55.9763 16.848C55.155 17.2213 54.259 17.408 53.2883 17.408C52.3737 17.408 51.5337 17.2587 50.7683 16.96C50.003 16.6613 49.3403 16.232 48.7803 15.672C48.2203 15.112 47.7817 14.4493 47.4643 13.684C47.1656 12.9187 47.0163 12.0693 47.0163 11.136C47.0163 10.2027 47.1656 9.35333 47.4643 8.588C47.7817 7.82267 48.2203 7.16 48.7803 6.6C49.3403 6.04 50.003 5.61067 50.7683 5.312C51.5337 5.01333 52.3737 4.864 53.2883 4.864C54.259 4.864 55.155 5.06 55.9763 5.452C56.7977 5.82533 57.5443 6.39467 58.2163 7.16L61.1283 4.472C60.195 3.33333 59.0377 2.47467 57.6563 1.896C56.2937 1.29867 54.763 1 53.0643 1C51.5337 1 50.1243 1.252 48.8363 1.756C47.5483 2.24133 46.419 2.94133 45.4483 3.856C44.4963 4.77067 43.7496 5.844 43.2083 7.076C42.6856 8.308 42.4243 9.66133 42.4243 11.136C42.4243 12.6107 42.6856 13.964 43.2083 15.196C43.7496 16.428 44.4963 17.5013 45.4483 18.416C46.4003 19.3307 47.5203 20.04 48.8083 20.544Z" fill="url(#paint0_linear_794_7723)"/>
<path d="M113.151 21.272C111.583 21.272 110.08 21.0667 108.643 20.656C107.206 20.2267 106.048 19.676 105.171 19.004L106.711 15.588C107.551 16.1853 108.54 16.68 109.679 17.072C110.836 17.4453 112.003 17.632 113.179 17.632C114.075 17.632 114.794 17.548 115.335 17.38C115.895 17.1933 116.306 16.9413 116.567 16.624C116.828 16.3067 116.959 15.9427 116.959 15.532C116.959 15.0093 116.754 14.5987 116.343 14.3C115.932 13.9827 115.391 13.7307 114.719 13.544C114.047 13.3387 113.3 13.152 112.479 12.984C111.676 12.7973 110.864 12.5733 110.043 12.312C109.24 12.0507 108.503 11.7147 107.831 11.304C107.159 10.8933 106.608 10.352 106.179 9.68C105.768 9.008 105.563 8.14933 105.563 7.104C105.563 5.984 105.862 4.96667 106.459 4.052C107.075 3.11867 107.99 2.38133 109.203 1.84C110.435 1.28 111.975 1 113.823 1C115.055 1 116.268 1.14933 117.463 1.448C118.658 1.728 119.712 2.15733 120.627 2.736L119.227 6.18C118.312 5.65733 117.398 5.27467 116.483 5.032C115.568 4.77067 114.672 4.64 113.795 4.64C112.918 4.64 112.199 4.74267 111.639 4.948C111.079 5.15333 110.678 5.424 110.435 5.76C110.192 6.07733 110.071 6.45067 110.071 6.88C110.071 7.384 110.276 7.79467 110.687 8.112C111.098 8.41067 111.639 8.65333 112.311 8.84C112.983 9.02667 113.72 9.21333 114.523 9.4C115.344 9.58667 116.156 9.80133 116.959 10.044C117.78 10.2867 118.527 10.6133 119.199 11.024C119.871 11.4347 120.412 11.976 120.823 12.648C121.252 13.32 121.467 14.1693 121.467 15.196C121.467 16.2973 121.159 17.3053 120.543 18.22C119.927 19.1347 119.003 19.872 117.771 20.432C116.558 20.992 115.018 21.272 113.151 21.272Z" fill="url(#paint1_linear_794_7723)"/>
<path fill-rule="evenodd" clip-rule="evenodd" d="M138.656 1.33606L129.92 20.9361H134.568L136.315 16.7361H145.4L147.14 20.9361H151.9L143.136 1.33606H138.656ZM143.974 13.2921L140.866 5.79083L137.747 13.2921H143.974Z" fill="url(#paint2_linear_794_7723)"/>
<path d="M153.934 1.33606V20.9361H158.47V1.33606H153.934Z" fill="url(#paint3_linear_794_7723)"/>
<path d="M86.8286 18.9481C88.3966 20.4974 90.5712 21.2721 93.3526 21.2721C96.1339 21.2721 98.3086 20.4974 99.8766 18.9481C101.445 17.3987 102.229 15.1867 102.229 12.3121V1.33606H97.7486V12.1441C97.7486 14.0107 97.3659 15.3547 96.6006 16.1761C95.8352 16.9974 94.7619 17.4081 93.3806 17.4081C91.9992 17.4081 90.9259 16.9974 90.1606 16.1761C89.3952 15.3547 89.0126 14.0107 89.0126 12.1441V1.33606H84.4766V12.3121C84.4766 15.1867 85.2606 17.3987 86.8286 18.9481Z" fill="url(#paint4_linear_794_7723)"/>
<path d="M68.6994 20.9361V15.9884L71.3259 13.2467L77.6034 20.9361H82.8954L74.3049 10.0686L82.4194 1.33606H77.3794L68.6994 10.4825V1.33606H64.1914V20.9361H68.6994Z" fill="url(#paint5_linear_794_7723)"/>
<path d="M30.2979 21.2721C27.5165 21.2721 25.3419 20.4974 23.7739 18.9481C22.2059 17.3987 21.4219 15.1867 21.4219 12.3121V1.33606H25.9579V12.1441C25.9579 14.0107 26.3405 15.3547 27.1059 16.1761C27.8712 16.9974 28.9445 17.4081 30.3259 17.4081C31.7072 17.4081 32.7805 16.9974 33.5459 16.1761C34.3112 15.3547 34.6939 14.0107 34.6939 12.1441V1.33606H39.1739V12.3121C39.1739 15.1867 38.3899 17.3987 36.8219 18.9481C35.2539 20.4974 33.0792 21.2721 30.2979 21.2721Z" fill="url(#paint6_linear_794_7723)"/>
<path fill-rule="evenodd" clip-rule="evenodd" d="M1 1.33606V20.9361H5.536V15.4761H9.484C9.55548 15.4761 9.62655 15.4756 9.69723 15.4747L13.46 20.9361H18.36L13.9816 14.6529C13.9944 14.6473 14.0072 14.6417 14.02 14.6361C15.2893 14.0761 16.2693 13.2734 16.96 12.2281C17.6507 11.1641 17.996 9.90406 17.996 8.44806C17.996 6.97339 17.6507 5.70406 16.96 4.64006C16.2693 3.57606 15.2893 2.76406 14.02 2.20406C12.7507 1.62539 11.2387 1.33606 9.484 1.33606H1ZM5.536 11.8641H9.232C10.632 11.8641 11.6773 11.5654 12.368 10.9681C13.0587 10.3521 13.404 9.51206 13.404 8.44806C13.404 7.36539 13.0587 6.52539 12.368 5.92806C11.6773 5.33073 10.632 5.03206 9.232 5.03206H5.536V11.8641Z" fill="url(#paint7_linear_794_7723)"/>
<defs>
<linearGradient id="paint0_linear_794_7723" x1="1" y1="11.136" x2="158.47" y2="11.136" gradientUnits="userSpaceOnUse">
<stop stop-color="#F7B605"/>
<stop offset="0.25" stop-color="#F79B06"/>
<stop offset="0.5" stop-color="#F65650"/>
<stop offset="0.75" stop-color="#EC4C9A"/>
<stop offset="1" stop-color="#A560FF"/>
</linearGradient>
<linearGradient id="paint1_linear_794_7723" x1="1" y1="11.136" x2="158.47" y2="11.136" gradientUnits="userSpaceOnUse">
<stop stop-color="#F7B605"/>
<stop offset="0.25" stop-color="#F79B06"/>
<stop offset="0.5" stop-color="#F65650"/>
<stop offset="0.75" stop-color="#EC4C9A"/>
<stop offset="1" stop-color="#A560FF"/>
</linearGradient>
<linearGradient id="paint2_linear_794_7723" x1="1" y1="11.136" x2="158.47" y2="11.136" gradientUnits="userSpaceOnUse">
<stop stop-color="#F7B605"/>
<stop offset="0.25" stop-color="#F79B06"/>
<stop offset="0.5" stop-color="#F65650"/>
<stop offset="0.75" stop-color="#EC4C9A"/>
<stop offset="1" stop-color="#A560FF"/>
</linearGradient>
<linearGradient id="paint3_linear_794_7723" x1="1" y1="11.136" x2="158.47" y2="11.136" gradientUnits="userSpaceOnUse">
<stop stop-color="#F7B605"/>
<stop offset="0.25" stop-color="#F79B06"/>
<stop offset="0.5" stop-color="#F65650"/>
<stop offset="0.75" stop-color="#EC4C9A"/>
<stop offset="1" stop-color="#A560FF"/>
</linearGradient>
<linearGradient id="paint4_linear_794_7723" x1="1" y1="11.136" x2="158.47" y2="11.136" gradientUnits="userSpaceOnUse">
<stop stop-color="#F7B605"/>
<stop offset="0.25" stop-color="#F79B06"/>
<stop offset="0.5" stop-color="#F65650"/>
<stop offset="0.75" stop-color="#EC4C9A"/>
<stop offset="1" stop-color="#A560FF"/>
</linearGradient>
<linearGradient id="paint5_linear_794_7723" x1="1" y1="11.136" x2="158.47" y2="11.136" gradientUnits="userSpaceOnUse">
<stop stop-color="#F7B605"/>
<stop offset="0.25" stop-color="#F79B06"/>
<stop offset="0.5" stop-color="#F65650"/>
<stop offset="0.75" stop-color="#EC4C9A"/>
<stop offset="1" stop-color="#A560FF"/>
</linearGradient>
<linearGradient id="paint6_linear_794_7723" x1="1" y1="11.136" x2="158.47" y2="11.136" gradientUnits="userSpaceOnUse">
<stop stop-color="#F7B605"/>
<stop offset="0.25" stop-color="#F79B06"/>
<stop offset="0.5" stop-color="#F65650"/>
<stop offset="0.75" stop-color="#EC4C9A"/>
<stop offset="1" stop-color="#A560FF"/>
</linearGradient>
<linearGradient id="paint7_linear_794_7723" x1="1" y1="11.136" x2="158.47" y2="11.136" gradientUnits="userSpaceOnUse">
<stop stop-color="#F7B605"/>
<stop offset="0.25" stop-color="#F79B06"/>
<stop offset="0.5" stop-color="#F65650"/>
<stop offset="0.75" stop-color="#EC4C9A"/>
<stop offset="1" stop-color="#A560FF"/>
</linearGradient>
</defs>
</svg>
