<svg width="135" height="21" viewBox="0 0 135 21" fill="none" xmlns="http://www.w3.org/2000/svg">
<path d="M62.4437 14.8779L60.3334 16.9527V20.776H55.9654V0H60.3334V11.7654L66.7174 5.712H71.9254L65.6517 12.0899L72.4854 20.776H67.1934L62.4437 14.8779Z" fill="url(#paint0_linear_563_6251)"/>
<path fill-rule="evenodd" clip-rule="evenodd" d="M13.02 2.044C11.7507 1.46533 10.2387 1.176 8.484 1.176H0V20.776H4.536V15.316H8.484C8.55548 15.316 8.62656 15.3155 8.69723 15.3146L12.46 20.776H17.36L12.9816 14.4928L13.02 14.476C14.2893 13.916 15.2693 13.1133 15.96 12.068C16.6507 11.004 16.996 9.744 16.996 8.288C16.996 6.81333 16.6507 5.544 15.96 4.48C15.2693 3.416 14.2893 2.604 13.02 2.044ZM11.368 5.768C10.6773 5.17067 9.632 4.872 8.232 4.872H4.536V11.704H8.232C9.632 11.704 10.6773 11.4053 11.368 10.808C12.0587 10.192 12.404 9.352 12.404 8.288C12.404 7.20533 12.0587 6.36533 11.368 5.768Z" fill="url(#paint1_linear_563_6251)"/>
<path d="M23.2778 20.272C24.2672 20.7573 25.3872 21 26.6378 21C27.7952 21 28.8592 20.7387 29.8298 20.216C30.4071 19.9001 30.9018 19.4984 31.3138 19.011V20.776H35.4578V5.712H31.0898V13.16C31.0898 14.0747 30.9405 14.84 30.6418 15.456C30.3432 16.0533 29.9325 16.5013 29.4098 16.8C28.8872 17.08 28.2898 17.22 27.6178 17.22C26.6472 17.22 25.8912 16.9307 25.3498 16.352C24.8272 15.7547 24.5658 14.8307 24.5658 13.58V5.712H20.1978V14.224C20.1978 15.7733 20.4685 17.052 21.0098 18.06C21.5512 19.0493 22.3072 19.7867 23.2778 20.272Z" fill="url(#paint2_linear_563_6251)"/>
<path d="M46.7845 21C45.1605 21 43.7138 20.6733 42.4445 20.02C41.1752 19.348 40.1765 18.424 39.4485 17.248C38.7392 16.072 38.3845 14.7373 38.3845 13.244C38.3845 11.732 38.7392 10.3973 39.4485 9.24C40.1765 8.064 41.1752 7.14933 42.4445 6.496C43.7138 5.824 45.1605 5.488 46.7845 5.488C48.3712 5.488 49.7525 5.824 50.9285 6.496C52.1045 7.14933 52.9725 8.092 53.5325 9.324L50.1445 11.144C49.7525 10.4347 49.2578 9.912 48.6605 9.576C48.0818 9.24 47.4472 9.072 46.7565 9.072C46.0098 9.072 45.3378 9.24 44.7405 9.576C44.1432 9.912 43.6672 10.388 43.3125 11.004C42.9765 11.62 42.8085 12.3667 42.8085 13.244C42.8085 14.1213 42.9765 14.868 43.3125 15.484C43.6672 16.1 44.1432 16.576 44.7405 16.912C45.3378 17.248 46.0098 17.416 46.7565 17.416C47.4472 17.416 48.0818 17.2573 48.6605 16.94C49.2578 16.604 49.7525 16.072 50.1445 15.344L53.5325 17.192C52.9725 18.4053 52.1045 19.348 50.9285 20.02C49.7525 20.6733 48.3712 21 46.7845 21Z" fill="url(#paint3_linear_563_6251)"/>
<path d="M80.5324 21C79.2817 21 78.1617 20.7573 77.1724 20.272C76.2017 19.7867 75.4457 19.0493 74.9044 18.06C74.363 17.052 74.0924 15.7733 74.0924 14.224V5.712H78.4604V13.58C78.4604 14.8307 78.7217 15.7547 79.2444 16.352C79.7857 16.9307 80.5417 17.22 81.5124 17.22C82.1844 17.22 82.7817 17.08 83.3044 16.8C83.827 16.5013 84.2377 16.0533 84.5364 15.456C84.835 14.84 84.9844 14.0747 84.9844 13.16V5.712H89.3524V20.776H85.2084V19.011C84.7963 19.4984 84.3017 19.9001 83.7244 20.216C82.7537 20.7387 81.6897 21 80.5324 21Z" fill="url(#paint4_linear_563_6251)"/>
<path d="M94.743 20.552C95.9377 20.8507 97.179 21 98.467 21C99.979 21 101.258 20.7947 102.303 20.384C103.367 19.9733 104.179 19.4133 104.739 18.704C105.299 17.976 105.579 17.1453 105.579 16.212C105.579 15.3533 105.411 14.6627 105.075 14.14C104.739 13.5987 104.3 13.1787 103.759 12.88C103.236 12.5627 102.648 12.32 101.995 12.152C101.342 11.984 100.688 11.8627 100.035 11.788C99.4004 11.6947 98.8124 11.592 98.271 11.48C97.7297 11.368 97.291 11.2187 96.955 11.032C96.6377 10.8453 96.479 10.5653 96.479 10.192C96.479 9.78133 96.703 9.44533 97.151 9.184C97.599 8.92267 98.3084 8.792 99.279 8.792C99.9697 8.792 100.679 8.876 101.407 9.044C102.154 9.19333 102.891 9.48267 103.619 9.912L105.075 6.804C104.366 6.37467 103.479 6.048 102.415 5.824C101.351 5.6 100.306 5.488 99.279 5.488C97.823 5.488 96.5724 5.70267 95.527 6.132C94.4817 6.54267 93.679 7.112 93.119 7.84C92.5777 8.568 92.307 9.408 92.307 10.36C92.307 11.2187 92.4657 11.9187 92.783 12.46C93.119 13.0013 93.5577 13.4307 94.099 13.748C94.6404 14.0653 95.2377 14.308 95.891 14.476C96.5444 14.6253 97.1884 14.7467 97.823 14.84C98.4764 14.9333 99.0737 15.0267 99.615 15.12C100.156 15.2133 100.586 15.3533 100.903 15.54C101.239 15.708 101.407 15.9693 101.407 16.324C101.407 16.7533 101.192 17.0893 100.763 17.332C100.352 17.5747 99.643 17.696 98.635 17.696C97.7204 17.696 96.787 17.5653 95.835 17.304C94.9017 17.024 94.0897 16.6693 93.399 16.24L91.943 19.376C92.6337 19.8427 93.567 20.2347 94.743 20.552Z" fill="url(#paint5_linear_563_6251)"/>
<path fill-rule="evenodd" clip-rule="evenodd" d="M106.006 20.776L114.742 1.176H119.222L127.986 20.776H123.226L121.486 16.576H112.401L110.654 20.776H106.006ZM116.952 5.63078L120.06 13.132H113.833L116.952 5.63078Z" fill="url(#paint6_linear_563_6251)"/>
<path d="M130.02 1.176V20.776H134.556V1.176H130.02Z" fill="url(#paint7_linear_563_6251)"/>
<defs>
<linearGradient id="paint0_linear_563_6251" x1="0" y1="10.5" x2="134.556" y2="10.5" gradientUnits="userSpaceOnUse">
<stop stop-color="#F7B605"/>
<stop offset="0.17" stop-color="#F79B06"/>
<stop offset="0.425" stop-color="#F65650"/>
<stop offset="0.72" stop-color="#EC4C9A"/>
<stop offset="0.985" stop-color="#A560FF"/>
</linearGradient>
<linearGradient id="paint1_linear_563_6251" x1="0" y1="10.5" x2="134.556" y2="10.5" gradientUnits="userSpaceOnUse">
<stop stop-color="#F7B605"/>
<stop offset="0.17" stop-color="#F79B06"/>
<stop offset="0.425" stop-color="#F65650"/>
<stop offset="0.72" stop-color="#EC4C9A"/>
<stop offset="0.985" stop-color="#A560FF"/>
</linearGradient>
<linearGradient id="paint2_linear_563_6251" x1="0" y1="10.5" x2="134.556" y2="10.5" gradientUnits="userSpaceOnUse">
<stop stop-color="#F7B605"/>
<stop offset="0.17" stop-color="#F79B06"/>
<stop offset="0.425" stop-color="#F65650"/>
<stop offset="0.72" stop-color="#EC4C9A"/>
<stop offset="0.985" stop-color="#A560FF"/>
</linearGradient>
<linearGradient id="paint3_linear_563_6251" x1="0" y1="10.5" x2="134.556" y2="10.5" gradientUnits="userSpaceOnUse">
<stop stop-color="#F7B605"/>
<stop offset="0.17" stop-color="#F79B06"/>
<stop offset="0.425" stop-color="#F65650"/>
<stop offset="0.72" stop-color="#EC4C9A"/>
<stop offset="0.985" stop-color="#A560FF"/>
</linearGradient>
<linearGradient id="paint4_linear_563_6251" x1="0" y1="10.5" x2="134.556" y2="10.5" gradientUnits="userSpaceOnUse">
<stop stop-color="#F7B605"/>
<stop offset="0.17" stop-color="#F79B06"/>
<stop offset="0.425" stop-color="#F65650"/>
<stop offset="0.72" stop-color="#EC4C9A"/>
<stop offset="0.985" stop-color="#A560FF"/>
</linearGradient>
<linearGradient id="paint5_linear_563_6251" x1="0" y1="10.5" x2="134.556" y2="10.5" gradientUnits="userSpaceOnUse">
<stop stop-color="#F7B605"/>
<stop offset="0.17" stop-color="#F79B06"/>
<stop offset="0.425" stop-color="#F65650"/>
<stop offset="0.72" stop-color="#EC4C9A"/>
<stop offset="0.985" stop-color="#A560FF"/>
</linearGradient>
<linearGradient id="paint6_linear_563_6251" x1="0" y1="10.5" x2="134.556" y2="10.5" gradientUnits="userSpaceOnUse">
<stop stop-color="#F7B605"/>
<stop offset="0.17" stop-color="#F79B06"/>
<stop offset="0.425" stop-color="#F65650"/>
<stop offset="0.72" stop-color="#EC4C9A"/>
<stop offset="0.985" stop-color="#A560FF"/>
</linearGradient>
<linearGradient id="paint7_linear_563_6251" x1="0" y1="10.5" x2="134.556" y2="10.5" gradientUnits="userSpaceOnUse">
<stop stop-color="#F7B605"/>
<stop offset="0.17" stop-color="#F79B06"/>
<stop offset="0.425" stop-color="#F65650"/>
<stop offset="0.72" stop-color="#EC4C9A"/>
<stop offset="0.985" stop-color="#A560FF"/>
</linearGradient>
</defs>
</svg>
