<svg width="40" height="40" viewBox="0 0 40 40" fill="none" xmlns="http://www.w3.org/2000/svg">
<rect width="40" height="40" rx="4" fill="#23AB36"/>
<path d="M29.8672 25.3516C29.9557 26.138 30 26.974 30 27.8594C30 28.9948 29.6745 29.9688 29.0234 30.7812C28.3724 31.5938 27.5885 32 26.6719 32H13.3281C12.4115 32 11.6276 31.5938 10.9766 30.7812C10.3255 29.9688 10 28.9948 10 27.8594C10 26.974 10.0443 26.138 10.1328 25.3516C10.2214 24.5651 10.3854 23.7734 10.625 22.9766C10.8646 22.1797 11.1693 21.4974 11.5391 20.9297C11.9089 20.362 12.3984 19.8984 13.0078 19.5391C13.6172 19.1797 14.3177 19 15.1094 19C16.474 20.3333 18.1042 21 20 21C21.8958 21 23.526 20.3333 24.8906 19C25.6823 19 26.3828 19.1797 26.9922 19.5391C27.6016 19.8984 28.0911 20.362 28.4609 20.9297C28.8307 21.4974 29.1354 22.1797 29.375 22.9766C29.6146 23.7734 29.7786 24.5651 29.8672 25.3516ZM24.2422 9.75781C25.4141 10.9297 26 12.3438 26 14C26 15.6562 25.4141 17.0703 24.2422 18.2422C23.0703 19.4141 21.6562 20 20 20C18.3438 20 16.9297 19.4141 15.7578 18.2422C14.5859 17.0703 14 15.6562 14 14C14 12.3438 14.5859 10.9297 15.7578 9.75781C16.9297 8.58594 18.3438 8 20 8C21.6562 8 23.0703 8.58594 24.2422 9.75781Z" fill="white"/>
<path d="M21.9389 27.3551C21.9322 27.6935 22.0473 27.9811 22.2842 28.218C22.5211 28.4549 22.8087 28.5699 23.1471 28.5632C23.4854 28.5565 23.7779 28.4299 24.0243 28.1834C24.2708 27.9369 24.3974 27.6445 24.4041 27.3061C24.4109 26.9678 24.2958 26.6802 24.0589 26.4433C23.9345 26.3189 23.7824 26.2253 23.6024 26.1624C23.785 26.0924 23.941 25.9926 24.0704 25.8632C24.3169 25.6167 24.4435 25.3243 24.4502 24.9859C24.4569 24.6476 24.3419 24.36 24.105 24.1231C23.8681 23.8862 23.5805 23.7711 23.2421 23.7778C22.9037 23.7845 22.6113 23.9112 22.3648 24.1576C22.1183 24.4041 21.9917 24.6965 21.985 25.0349C21.9783 25.3733 22.0934 25.6609 22.3303 25.8978C22.4546 26.0221 22.6068 26.1158 22.7867 26.1786C22.6042 26.2487 22.4482 26.3484 22.3188 26.4778C22.0723 26.7243 21.9457 27.0167 21.9389 27.3551ZM15.5381 29.0744C15.3526 29.0645 15.248 29.0477 15.2243 29.0241C15.174 28.9737 15.1517 28.8005 15.1576 28.5044C15.1635 28.2084 15.1926 28.0342 15.245 27.9818C15.2727 27.9541 15.3403 27.9338 15.4478 27.9211C15.5552 27.9084 15.6603 27.9011 15.763 27.899C15.8658 27.897 15.9843 27.8969 16.1186 27.8988C16.253 27.9006 16.3292 27.9014 16.3473 27.901L16.3646 27.0309L14.3707 27.0705C14.2015 27.0739 14.0577 27.0163 13.9393 26.8979C13.8149 26.7735 13.7551 26.5935 13.7598 26.3579C13.7644 26.1222 13.8315 25.9397 13.9609 25.8103C14.0841 25.6871 14.2303 25.6238 14.3995 25.6204L20.4809 25.4996C20.6353 24.5695 21.0037 23.8132 21.586 23.2309C22.0882 22.7287 22.649 22.4714 23.2683 22.4591C23.8876 22.4468 24.4386 22.682 24.9213 23.1647C25.395 23.6384 25.7121 24.2482 25.8724 24.9939C26.0328 25.7397 26.0179 26.4889 25.8278 27.2416C25.6377 27.9943 25.2962 28.6172 24.8032 29.1101C24.301 29.6124 23.7402 29.8696 23.1209 29.8819C22.5016 29.8942 21.9506 29.659 21.4679 29.1764C20.9083 28.6167 20.5697 27.8745 20.4521 26.9498L17.2347 27.0137L17.2174 27.8837C17.2355 27.8834 17.3119 27.8796 17.4464 27.8724C17.5809 27.8652 17.6996 27.8606 17.8023 27.8585C17.905 27.8565 18.0099 27.8597 18.1169 27.8681C18.2239 27.8766 18.2908 27.8941 18.3174 27.9208C18.3678 27.9711 18.39 28.1443 18.3841 28.4404C18.3782 28.7364 18.3491 28.9107 18.2967 28.963C18.2567 29.0031 18.2064 29.0237 18.146 29.0249C18.1098 29.0256 17.973 29.0306 17.7358 29.0399C17.4985 29.0491 17.2545 29.0577 17.0037 29.0657C16.7529 29.0737 16.4923 29.0797 16.2219 29.0835C15.9516 29.0874 15.7236 29.0844 15.5381 29.0744Z" fill="#23AB36"/>
</svg>
