<svg width="40" height="40" viewBox="0 0 40 40" fill="none" xmlns="http://www.w3.org/2000/svg">
<path d="M36.1795 19.9079V20.6585H36.707V21.4032C36.7087 21.4698 36.705 21.5415 36.6936 21.5989C36.6726 21.7379 36.5407 21.9744 36.1662 21.9744C35.794 21.9744 35.6645 21.7379 35.642 21.5989C35.6325 21.5415 35.6285 21.4698 35.6285 21.4032V19.0511C35.6285 18.9679 35.6341 18.8768 35.6518 18.8079C35.6773 18.6825 35.7884 18.4353 36.1635 18.4353C36.5571 18.4353 36.6554 18.6959 36.6779 18.8079C36.6927 18.882 36.6936 19.0064 36.6936 19.0064V19.292H37.9897V19.1232C37.9897 19.1232 37.9956 18.947 37.9798 18.7826C37.8824 17.8172 37.087 17.5117 36.1749 17.5117C35.2611 17.5117 34.4818 17.82 34.3683 18.7826C34.358 18.8706 34.3424 19.0289 34.3424 19.1232V21.2869C34.3424 21.3811 34.3454 21.4541 34.3629 21.6263C34.4475 22.5652 35.2611 22.898 36.1713 22.898C37.087 22.898 37.8951 22.5652 37.9811 21.6263C37.9964 21.4541 37.998 21.3811 38 21.2869V19.9079H36.1795ZM27.2426 17.6502H25.941V21.4575C25.9431 21.5238 25.941 21.5984 25.9296 21.653C25.9024 21.7808 25.7941 22.0268 25.435 22.0268C25.0805 22.0268 24.9694 21.7808 24.9443 21.653C24.9313 21.5984 24.9296 21.5238 24.9313 21.4575V17.6502H23.6301V21.3393C23.6284 21.4344 23.6359 21.6287 23.6415 21.6796C23.7313 22.6409 24.489 22.953 25.435 22.953C26.3829 22.953 27.1401 22.6409 27.2316 21.6796C27.2388 21.6287 27.2482 21.4344 27.2426 21.3393V17.6502ZM15.2834 17.6502L14.6341 21.6731L13.9852 17.6502H11.8857L11.7743 22.7967H13.0606L13.0954 18.0324L13.9804 22.7967H15.2854L16.1712 18.0324L16.2062 22.7967H17.4957L17.3806 17.6502H15.2834ZM7.50983 17.6502L6.5565 22.7967H7.94671L8.66511 18.0324L9.36627 22.7967H10.7468L9.79747 17.6502H7.50983ZM31.7915 21.7937L30.5795 17.6502H28.6696V22.743H29.933L29.8597 18.4669L31.1613 22.743H32.9929V17.6502H31.7213L31.7915 21.7937ZM20.1053 18.9896C20.0824 18.8879 20.089 18.7799 20.1008 18.7235C20.1377 18.5587 20.2483 18.3791 20.5673 18.3791C20.8645 18.3791 21.0388 18.5644 21.0388 18.8424V19.1571H22.3076V18.7984C22.3076 17.6895 21.3134 17.5153 20.5936 17.5153C19.6871 17.5153 18.9468 17.8142 18.8115 18.6486C18.7758 18.8756 18.7669 19.0772 18.8238 19.3344C19.0443 20.3747 20.8555 20.6765 21.1183 21.3345C21.1647 21.4591 21.1515 21.618 21.1278 21.7117C21.0884 21.8829 20.9732 22.0551 20.6318 22.0551C20.3115 22.0551 20.1188 21.871 20.1188 21.5935L20.1184 21.0996H18.7527V21.4922C18.7527 22.6299 19.6437 22.9731 20.6035 22.9731C21.5226 22.9731 22.2818 22.659 22.4036 21.8076C22.4617 21.3677 22.4179 21.0811 22.3946 20.9732C22.1818 19.9061 20.2514 19.5852 20.1053 18.9896ZM3.36794 18.9769C3.34303 18.8732 3.34884 18.7637 3.36272 18.7066C3.39788 18.5426 3.50923 18.3598 3.83377 18.3598C4.13478 18.3598 4.31202 18.5469 4.31202 18.8272V19.1457H5.5957V18.7842C5.5957 17.6646 4.58633 17.4862 3.85868 17.4862C2.94454 17.4862 2.19759 17.7897 2.06093 18.6301C2.02353 18.8608 2.01711 19.0637 2.07117 19.3237C2.29401 20.3759 4.12308 20.6802 4.3892 21.346C4.43903 21.4698 4.42396 21.6287 4.39925 21.726C4.35702 21.899 4.24091 22.0736 3.89661 22.0736C3.57511 22.0736 3.38281 21.8863 3.38281 21.605L3.38103 21.1098H2V21.5033C2 22.654 2.9037 23 3.87091 23C4.80078 23 5.56438 22.6831 5.68895 21.8219C5.75087 21.3779 5.70441 21.089 5.68353 20.9794C5.46631 19.8993 3.51445 19.5794 3.36794 18.9769Z" fill="#333333"/>
</svg>
