<svg width="36" height="6" viewBox="0 0 36 6" fill="none" xmlns="http://www.w3.org/2000/svg">
<path d="M34.1795 2.90792V3.65851H34.707V4.40321C34.7087 4.46976 34.705 4.54152 34.6936 4.59895C34.6726 4.73786 34.5407 4.97437 34.1662 4.97437C33.794 4.97437 33.6645 4.73786 33.642 4.59895C33.6325 4.54152 33.6285 4.46976 33.6285 4.40321V2.05108C33.6285 1.96788 33.6341 1.87681 33.6518 1.80789C33.6773 1.68252 33.7884 1.4353 34.1635 1.4353C34.5571 1.4353 34.6554 1.69594 34.6779 1.80789C34.6927 1.88203 34.6936 2.0064 34.6936 2.0064V2.29202H35.9897V2.12317C35.9897 2.12317 35.9956 1.94699 35.9798 1.78258C35.8824 0.817152 35.087 0.511711 34.1749 0.511711C33.2611 0.511711 32.4818 0.819993 32.3683 1.78258C32.358 1.8706 32.3424 2.02894 32.3424 2.12317V4.2869C32.3424 4.38114 32.3454 4.45409 32.3629 4.62631C32.4475 5.56517 33.2611 5.89797 34.1713 5.89797C35.087 5.89797 35.8951 5.56517 35.9811 4.62631C35.9964 4.45409 35.998 4.38114 36 4.2869V2.90792H34.1795ZM25.2426 0.650157H23.941V4.45746C23.9431 4.52381 23.941 4.59836 23.9296 4.65301C23.9024 4.78081 23.7941 5.02678 23.435 5.02678C23.0805 5.02678 22.9694 4.78081 22.9443 4.65301C22.9313 4.59836 22.9296 4.52381 22.9313 4.45746V0.650157H21.6301V4.33931C21.6284 4.4344 21.6359 4.62869 21.6415 4.67957C21.7313 5.6409 22.489 5.95301 23.435 5.95301C24.3829 5.95301 25.1401 5.6409 25.2316 4.67957C25.2388 4.62869 25.2482 4.4344 25.2426 4.33931V0.650157ZM13.2834 0.650157L12.6341 4.6731L11.9852 0.650157H9.88566L9.77431 5.79666H11.0606L11.0954 1.03239L11.9804 5.79666H13.2854L14.1712 1.03239L14.2062 5.79666H15.4957L15.3806 0.650157H13.2834ZM5.50983 0.650157L4.5565 5.79666H5.94671L6.66511 1.03239L7.36627 5.79666H8.74683L7.79747 0.650157H5.50983ZM29.7915 4.7937L28.5795 0.650157H26.6696V5.743H27.933L27.8597 1.46689L29.1613 5.743H30.9929V0.650157H29.7213L29.7915 4.7937ZM18.1053 1.98955C18.0824 1.88791 18.089 1.77993 18.1008 1.7235C18.1377 1.55875 18.2483 1.37907 18.5673 1.37907C18.8645 1.37907 19.0388 1.56437 19.0388 1.84245V2.15714H20.3076V1.79844C20.3076 0.689543 19.3134 0.515346 18.5936 0.515346C17.6871 0.515346 16.9468 0.814178 16.8115 1.64856C16.7758 1.87562 16.7669 2.07718 16.8238 2.33438C17.0443 3.37474 18.8555 3.67655 19.1183 4.33448C19.1647 4.45912 19.1515 4.61805 19.1278 4.71169C19.0884 4.88291 18.9732 5.05513 18.6318 5.05513C18.3115 5.05513 18.1188 4.87102 18.1188 4.59353L18.1184 4.09962H16.7527V4.49222C16.7527 5.62986 17.6437 5.9731 18.6035 5.9731C19.5226 5.9731 20.2818 5.65901 20.4036 4.80758C20.4617 4.36766 20.4179 4.08111 20.3946 3.9732C20.1818 2.90614 18.2514 2.58517 18.1053 1.98955ZM1.36794 1.97693C1.34303 1.87318 1.34884 1.76368 1.36272 1.70658C1.39788 1.54262 1.50923 1.35977 1.83377 1.35977C2.13478 1.35977 2.31202 1.54685 2.31202 1.82718V2.14571H3.5957V1.78416C3.5957 0.66463 2.58633 0.486202 1.85868 0.486202C0.944539 0.486202 0.197591 0.789661 0.0609294 1.63005C0.0235258 1.86075 0.0171135 2.0637 0.0711703 2.32374C0.294006 3.37593 2.12308 3.68018 2.3892 4.34598C2.43903 4.46976 2.42396 4.62869 2.39925 4.72596C2.35702 4.89897 2.24091 5.07363 1.89661 5.07363C1.57511 5.07363 1.38281 4.88635 1.38281 4.60503L1.38103 4.10979H0V4.50333C0 5.65398 0.903699 6 1.87091 6C2.80078 6 3.56438 5.68313 3.68895 4.82185C3.75087 4.3779 3.70441 4.08898 3.68353 3.97941C3.46631 2.89927 1.51445 2.57935 1.36794 1.97693Z" fill="#333333"/>
</svg>
