<svg width="24" height="24" viewBox="0 0 24 24" fill="none" xmlns="http://www.w3.org/2000/svg">
<g clip-path="url(#clip0_1211_20605)">
<path d="M10.8746 18.75C15.2239 18.75 18.7496 15.2242 18.7496 10.875C18.7496 6.52576 15.2239 3 10.8746 3C6.52539 3 2.99963 6.52576 2.99963 10.875C2.99963 15.2242 6.52539 18.75 10.8746 18.75Z" stroke="#333333" stroke-linecap="round" stroke-linejoin="round"/>
<path d="M16.4419 16.4432L20.9982 20.9995" stroke="#333333" stroke-linecap="round" stroke-linejoin="round"/>
<path d="M6.6593 13V12.456H7.8273V8.696H6.8993V8.272C7.13397 8.22933 7.33664 8.17866 7.5073 8.12C7.6833 8.056 7.84064 7.98133 7.9793 7.896H8.4833V12.456H9.5393V13H6.6593Z" fill="#333333"/>
<path d="M11.0039 10.208C10.8705 10.208 10.7559 10.1627 10.6599 10.072C10.5692 9.976 10.5239 9.856 10.5239 9.712C10.5239 9.55733 10.5692 9.43466 10.6599 9.344C10.7559 9.248 10.8705 9.2 11.0039 9.2C11.1319 9.2 11.2412 9.248 11.3319 9.344C11.4279 9.43466 11.4759 9.55733 11.4759 9.712C11.4759 9.856 11.4279 9.976 11.3319 10.072C11.2412 10.1627 11.1319 10.208 11.0039 10.208ZM11.0039 13.096C10.8705 13.096 10.7559 13.0507 10.6599 12.96C10.5692 12.864 10.5239 12.744 10.5239 12.6C10.5239 12.4453 10.5692 12.3227 10.6599 12.232C10.7559 12.136 10.8705 12.088 11.0039 12.088C11.1319 12.088 11.2412 12.136 11.3319 12.232C11.4279 12.3227 11.4759 12.4453 11.4759 12.6C11.4759 12.744 11.4279 12.864 11.3319 12.96C11.2412 13.0507 11.1319 13.096 11.0039 13.096Z" fill="#333333"/>
<path d="M12.6281 13V12.456H13.7961V8.696H12.8681V8.272C13.1027 8.22933 13.3054 8.17866 13.4761 8.12C13.6521 8.056 13.8094 7.98133 13.9481 7.896H14.4521V12.456H15.5081V13H12.6281Z" fill="#333333"/>
</g>
<defs>
<clipPath id="clip0_1211_20605">
<rect width="24" height="24" fill="white"/>
</clipPath>
</defs>
</svg>
