<svg width="34" height="52" viewBox="0 0 34 52" fill="none" xmlns="http://www.w3.org/2000/svg">
<path fill-rule="evenodd" clip-rule="evenodd" d="M20.7936 26.7748C20.7936 23.1389 22.3023 19.8418 24.7374 17.4368L21.9943 14.7646C18.8553 17.8538 16.9119 22.097 16.9119 26.7748C16.9119 31.5799 18.9666 35.92 22.257 39.0294L25.0001 36.3572C22.4123 33.9345 20.7936 30.538 20.7936 26.7748Z" fill="#EC7100"/>
<path fill-rule="evenodd" clip-rule="evenodd" d="M12.5559 27.1413C12.5559 21.073 14.9684 15.5711 18.865 11.5682L16.2274 8.88184C11.6552 13.5728 8.82349 20.025 8.82349 27.1413C8.82349 34.3855 11.7622 40.9366 16.48 45.6465L19.1176 42.9602C15.0754 38.9383 12.5559 33.3376 12.5559 27.1413Z" fill="#EC7100"/>
<path fill-rule="evenodd" clip-rule="evenodd" d="M3.62845 27.1427C3.62845 18.7618 6.92791 11.1617 12.2581 5.64004L9.694 3C3.70585 9.19662 0 17.7319 0 27.1427C0 36.6792 3.80745 45.3129 9.93589 51.5294L12.5 48.8894C7.02951 43.349 3.62845 35.6493 3.62845 27.1427Z" fill="#EC7100"/>
<path d="M23.9687 4.83638C23.9969 3.54299 25.0809 2.50883 26.4085 2.50883C27.7361 2.50883 28.8202 3.54299 28.8483 4.83638V8.12276H31.3711V4.83638C31.3711 2.16532 29.149 0 26.408 0C23.6669 0 21.4448 2.16532 21.4448 4.83638V8.12276H23.9731L23.9687 4.83638ZM32.3011 9.3032H20.5192C19.6819 9.3032 19.0024 9.96337 19 10.7793V18.525C19.003 19.3388 19.6796 19.9977 20.5148 20H32.3011C33.1361 19.9976 33.8124 19.3386 33.8148 18.525V10.7793C33.8124 9.96546 33.1363 9.30614 32.3011 9.3032ZM27.6699 15.2932C27.6699 15.9027 27.1049 16.3955 26.4091 16.3955C25.7132 16.3955 25.1449 15.8985 25.1449 15.2932V13.1948C25.1449 12.5853 25.7099 12.0925 26.408 12.0925C27.106 12.0925 27.6688 12.5864 27.6688 13.1948L27.6699 15.2932Z" fill="#333333"/>
</svg>