<svg width="24" height="24" viewBox="0 0 24 24" fill="none" xmlns="http://www.w3.org/2000/svg">
<path d="M3.67175 20.6158L6.65872 12.2523L6.74866 12H20.9638C20.9638 12.1333 20.9283 12.2642 20.8609 12.3792C20.7935 12.4943 20.6966 12.5892 20.5803 12.6544L4.74451 21.5224C4.61128 21.597 4.45846 21.6292 4.30647 21.6146C4.15448 21.6 4.01055 21.5394 3.89393 21.4409C3.77731 21.3423 3.69356 21.2105 3.65385 21.0631C3.61415 20.9156 3.62039 20.7596 3.67175 20.6158Z" fill="#333333"/>
<path d="M20.5803 11.3465L4.7445 2.47849C4.61128 2.40389 4.45846 2.37172 4.30647 2.3863C4.15448 2.40087 4.01055 2.46149 3.89393 2.56005C3.77731 2.65861 3.69356 2.79041 3.65385 2.93785C3.61415 3.08529 3.62039 3.24133 3.67175 3.38513L6.65872 11.7487C6.71698 11.9118 6.71698 12.09 6.65872 12.2532L3.67175 20.6167C3.62039 20.7605 3.61415 20.9165 3.65385 21.064C3.69356 21.2114 3.77731 21.3432 3.89393 21.4418C4.01055 21.5403 4.15448 21.6009 4.30647 21.6155C4.45846 21.6301 4.61128 21.5979 4.74451 21.5233L20.5803 12.6553C20.6966 12.5901 20.7935 12.4952 20.8609 12.3802C20.9283 12.2651 20.9638 12.1342 20.9638 12.0009C20.9638 11.8676 20.9283 11.7367 20.8609 11.6217C20.7935 11.5066 20.6966 11.4117 20.5803 11.3465V11.3465Z" stroke="#333333" stroke-linecap="round" stroke-linejoin="round"/>
<path d="M6.75 12H20.25" stroke="#333333" stroke-linecap="round" stroke-linejoin="round"/>
</svg>
