<svg xmlns="http://www.w3.org/2000/svg" width="24" height="24" fill="none" viewBox="0 0 24 24">
  <path fill="currentColor" fill-rule="evenodd" d="M2.5 13.913c.109.232.236.455.379.667l-.041 1.81a6.336 6.336 0 0 0 2.32 1.356l1.558-.922c.255.02.512.022.767.005l1.548.94a6.338 6.338 0 0 0 2.334-1.331l-.02-1.81c.146-.21.275-.432.388-.663l1.588-.87c.197-.884.202-1.8.014-2.686l-1.577-.888a5.123 5.123 0 0 0-.38-.667l.04-1.81a6.337 6.337 0 0 0-2.32-1.356l-1.557.922a5.119 5.119 0 0 0-.768-.005l-1.547-.94a6.336 6.336 0 0 0-2.334 1.331l.02 1.81c-.146.21-.275.432-.388.663l-1.588.87a6.336 6.336 0 0 0-.014 2.686l1.577.888Zm4.509.263a2.574 2.574 0 1 1 0-5.149 2.574 2.574 0 0 1 0 5.149Z" clip-rule="evenodd"/>
  <path fill="currentColor" d="m2.879 14.58.4.01a.4.4 0 0 0-.068-.233l-.332.223Zm-.38-.667.362-.171a.4.4 0 0 0-.166-.178l-.196.349Zm.339 2.478-.4-.01a.4.4 0 0 0 .13.305l.27-.295Zm2.32 1.355-.124.38a.4.4 0 0 0 .328-.036l-.204-.344Zm1.558-.922.032-.399a.4.4 0 0 0-.236.055l.204.344Zm.767.005.208-.342a.4.4 0 0 0-.235-.057l.027.399Zm1.548.94-.208.342a.4.4 0 0 0 .328.04l-.12-.381Zm2.334-1.331.267.297a.4.4 0 0 0 .133-.302l-.4.005Zm-.02-1.81-.33-.228a.4.4 0 0 0-.07.232l.4-.004Zm.388-.663-.192-.35a.4.4 0 0 0-.167.175l.359.175Zm1.588-.87.192.351a.4.4 0 0 0 .199-.264l-.39-.086Zm.014-2.686.391-.083a.4.4 0 0 0-.195-.266l-.196.349Zm-1.577-.888-.362.171a.4.4 0 0 0 .165.178l.197-.349Zm-.38-.667-.4-.01a.4.4 0 0 0 .068.233l.332-.223Zm.04-1.81.4.008a.4.4 0 0 0-.129-.304l-.27.295Zm-2.32-1.356.125-.38a.4.4 0 0 0-.328.036l.204.344Zm-1.557.922-.032.399a.4.4 0 0 0 .236-.055l-.204-.344Zm-.768-.005-.207.342a.4.4 0 0 0 .235.057l-.028-.399Zm-1.547-.94.208-.342a.4.4 0 0 0-.328-.04l.12.381ZM2.892 6.995 2.625 6.7A.4.4 0 0 0 2.492 7l.4-.005Zm.02 1.81.33.228a.4.4 0 0 0 .07-.232l-.4.004Zm-.388.663.192.35a.4.4 0 0 0 .167-.175l-.36-.175Zm-1.588.87-.193-.352a.4.4 0 0 0-.198.264l.39.087Zm-.014 2.686-.391.083a.4.4 0 0 0 .195.266l.196-.349Zm3.512-1.424h.4-.4Zm2.575 2.575v.4-.4Zm0-5.149v-.4.4Zm-3.798 5.33a4.713 4.713 0 0 1-.35-.615l-.723.342c.118.25.255.49.409.72l.664-.447Zm.027 2.043.04-1.81-.799-.019-.04 1.81.799.019Zm2.044.966a5.936 5.936 0 0 1-2.174-1.27l-.54.59a6.736 6.736 0 0 0 2.466 1.44l.248-.76Zm1.23-.886-1.558.922.408.688 1.557-.922-.407-.688Zm.944-.05a4.726 4.726 0 0 1-.708-.005l-.065.797c.275.023.552.025.828.006l-.055-.798Zm1.783.998-1.548-.94-.415.683 1.547.94.416-.683Zm1.858-1.288a5.937 5.937 0 0 1-2.186 1.248l.24.763a6.737 6.737 0 0 0 2.481-1.416l-.535-.595Zm-.152-1.508.02 1.81.8-.009-.02-1.81-.8.01Zm.429-.842a4.713 4.713 0 0 1-.358.61l.658.456c.157-.228.297-.466.418-.715l-.718-.351Zm1.755-1.045-1.588.87.384.701 1.588-.87-.384-.701Zm-.185-2.253c.175.83.171 1.688-.013 2.517l.78.173c.21-.94.215-1.914.015-2.856l-.782.165ZM11.56 9.87l1.578.887.392-.697-1.577-.887-.393.697Zm-.515-.793c.132.196.249.402.35.615l.723-.342a5.513 5.513 0 0 0-.41-.72l-.663.447Zm-.027-2.043-.041 1.81.8.019.04-1.81-.799-.019Zm-2.044-.966a5.936 5.936 0 0 1 2.174 1.27l.54-.59a6.737 6.737 0 0 0-2.466-1.44l-.248.76Zm-1.23.886 1.557-.922-.407-.688-1.557.922.407.688Zm-.944.05c.236-.016.472-.014.708.005l.065-.798a5.517 5.517 0 0 0-.828-.005l.055.798Zm-1.783-.998 1.548.94.415-.683-1.547-.94-.416.683ZM3.16 7.294a5.936 5.936 0 0 1 2.186-1.248l-.24-.763a6.736 6.736 0 0 0-2.481 1.416l.535.595Zm.152 1.508-.02-1.81-.8.009.02 1.81.8-.01Zm-.429.842c.104-.212.224-.416.358-.61l-.658-.456a5.517 5.517 0 0 0-.418.715l.718.351ZM1.128 10.69l1.588-.87-.384-.701-1.589.87.385.701Zm.185 2.253a5.936 5.936 0 0 1 .013-2.517l-.78-.174a6.736 6.736 0 0 0-.015 2.857l.782-.166Zm1.382.622-1.577-.887-.392.697 1.577.887.392-.697Zm1.34-1.963a2.974 2.974 0 0 0 2.974 2.975v-.8c-1.201 0-2.175-.974-2.175-2.175h-.8Zm2.974-2.974a2.974 2.974 0 0 0-2.975 2.974h.8c0-1.2.974-2.174 2.175-2.174v-.8Zm2.974 2.974A2.974 2.974 0 0 0 7.01 8.627v.8c1.2 0 2.174.974 2.174 2.175h.8ZM7.01 14.576a2.974 2.974 0 0 0 2.974-2.975h-.8c0 1.201-.973 2.175-2.174 2.175v.8Z"/>
  <path fill="currentColor" fill-rule="evenodd" d="M20.727 4.92a3.385 3.385 0 0 0-.317-.396l-.16-1.188a4.193 4.193 0 0 0-1.657-.645l-.923.764c-.169.012-.337.038-.502.076l-1.109-.455a4.193 4.193 0 0 0-1.387 1.112l.2 1.181a3.387 3.387 0 0 0-.185.473l-.948.733a4.193 4.193 0 0 0 .27 1.758l1.122.417c.096.14.202.273.317.397l.16 1.187c.5.331 1.066.552 1.658.646l.922-.764c.17-.013.337-.038.503-.076l1.108.454a4.194 4.194 0 0 0 1.388-1.112l-.2-1.18c.073-.154.135-.312.185-.474l.948-.733a4.193 4.193 0 0 0-.27-1.758l-1.123-.416ZM19.72 6.69a1.766 1.766 0 1 1-3.49.532 1.766 1.766 0 0 1 3.49-.532Z" clip-rule="evenodd"/>
  <path fill="currentColor" d="m20.41 4.524-.396.053a.4.4 0 0 0 .103.22l.293-.273Zm.317.397-.33.225a.4.4 0 0 0 .191.15l.14-.375Zm-.477-1.585.396-.054a.4.4 0 0 0-.175-.28l-.221.334Zm-1.657-.645.063-.395a.4.4 0 0 0-.318.087l.255.308Zm-.923.764.03.398a.4.4 0 0 0 .226-.09l-.256-.308Zm-.502.076-.152.37a.4.4 0 0 0 .241.02l-.09-.39Zm-1.109-.455.152-.37a.4.4 0 0 0-.33.012l.178.358Zm-1.387 1.112-.311-.252a.4.4 0 0 0-.084.32l.395-.068Zm.2 1.181.36.173a.4.4 0 0 0 .035-.24l-.395.067Zm-.185.473.245.317a.4.4 0 0 0 .137-.2l-.382-.117Zm-.948.733-.245-.316a.4.4 0 0 0-.154.292l.399.024Zm.27 1.758-.374.143a.4.4 0 0 0 .234.232l.14-.375Zm1.122.417.33-.226a.4.4 0 0 0-.19-.15l-.14.376Zm.317.397.397-.054a.4.4 0 0 0-.104-.219l-.293.273Zm.16 1.187-.395.054a.4.4 0 0 0 .175.28l.22-.334Zm1.658.646-.063.395a.4.4 0 0 0 .318-.087l-.255-.308Zm.922-.764-.03-.4a.4.4 0 0 0-.225.092l.255.308Zm.503-.076.151-.37a.4.4 0 0 0-.24-.02l.089.39Zm1.108.454-.151.37a.4.4 0 0 0 .33-.012l-.179-.358Zm1.388-1.112.31.252a.4.4 0 0 0 .084-.319l-.394.067Zm-.2-1.18-.361-.174a.4.4 0 0 0-.034.24l.394-.067Zm.185-.474-.245-.316a.4.4 0 0 0-.138.199l.383.117Zm.948-.733.244.317a.4.4 0 0 0 .155-.292l-.4-.025Zm-.27-1.758.374-.143a.4.4 0 0 0-.234-.232l-.14.375Zm-3.61 3.365-.06-.396.06.396Zm1.48-2.012.395-.06-.395.06Zm-3.492.532-.395.06.395-.06Zm3.89-2.426c.101.11.195.227.28.35l.66-.45a3.791 3.791 0 0 0-.355-.445l-.586.545Zm-.265-1.406.16 1.187.794-.107-.161-1.188-.793.108Zm-1.323-.304a3.793 3.793 0 0 1 1.499.584l.442-.667a4.593 4.593 0 0 0-1.815-.707l-.126.79Zm-.604.677.922-.764-.51-.617-.923.765.51.616Zm-.669.158c.146-.034.294-.056.444-.068l-.06-.797c-.19.014-.378.042-.563.085l.18.78Zm-1.35-.475 1.11.455.303-.74-1.11-.455-.303.74Zm-.925.994c.342-.421.77-.764 1.255-1.006l-.356-.716a4.594 4.594 0 0 0-1.52 1.218l.621.504Zm.285.862-.201-1.18-.789.133.2 1.181.79-.134Zm-.198.658c.044-.143.099-.283.164-.418l-.721-.346a3.788 3.788 0 0 0-.207.529l.764.235Zm-1.086.932.949-.733-.49-.633-.948.733.49.633Zm.399 1.298a3.793 3.793 0 0 1-.244-1.59l-.798-.05c-.04.656.06 1.313.295 1.926l.747-.286Zm.888.185-1.123-.417-.278.75 1.123.417.278-.75Zm.471.5a2.98 2.98 0 0 1-.28-.35l-.66.45c.107.157.225.305.354.444l.586-.545Zm.264 1.406-.16-1.188-.793.107.16 1.188.793-.107Zm1.324.304a3.793 3.793 0 0 1-1.5-.584l-.441.667a4.592 4.592 0 0 0 1.815.707l.126-.79Zm.604-.677-.922.764.51.616.922-.764-.51-.616Zm.668-.158a2.987 2.987 0 0 1-.443.067l.06.798a3.78 3.78 0 0 0 .562-.086l-.179-.78Zm1.35.474-1.109-.455-.303.74 1.109.455.303-.74Zm.925-.994c-.341.421-.77.764-1.255 1.006l.357.716a4.592 4.592 0 0 0 1.52-1.218l-.622-.504Zm-.284-.862.2 1.181.79-.134-.201-1.18-.789.133Zm.197-.657a2.987 2.987 0 0 1-.163.417l.72.347c.083-.171.152-.348.208-.53l-.765-.234Zm1.086-.932-.948.733.49.633.947-.733-.489-.633Zm-.398-1.298c.194.506.277 1.048.244 1.59l.798.049a4.593 4.593 0 0 0-.295-1.926l-.747.287Zm-.889-.185 1.123.416.279-.75-1.123-.416-.279.75ZM18.3 9.097a2.166 2.166 0 0 0 1.815-2.468l-.79.121a1.366 1.366 0 0 1-1.145 1.556l.12.791Zm-2.467-1.815A2.166 2.166 0 0 0 18.3 9.097l-.12-.79a1.366 1.366 0 0 1-1.556-1.145l-.791.12Zm1.814-2.467a2.166 2.166 0 0 0-1.814 2.467l.79-.12a1.366 1.366 0 0 1 1.145-1.556l-.12-.791Zm2.468 1.814a2.166 2.166 0 0 0-2.468-1.814l.121.79a1.366 1.366 0 0 1 1.556 1.145l.791-.12Z"/>
  <path stroke="currentColor" stroke-linecap="round" stroke-linejoin="round" stroke-width=".8" d="M18.077 18.279a1.322 1.322 0 1 0-.399-2.613 1.322 1.322 0 0 0 .399 2.613Z"/>
  <path stroke="currentColor" stroke-linecap="round" stroke-linejoin="round" stroke-width=".8" d="M20.863 15.755c.06.15.11.303.148.46l.857.75c.001.57-.12 1.134-.354 1.653l-1.09.331a3.218 3.218 0 0 1-.325.358l-.22 1.117a3.987 3.987 0 0 1-1.609.52l-.832-.778a3.202 3.202 0 0 1-.472-.102l-1.078.368a3.986 3.986 0 0 1-1.254-1.133l.258-1.11c-.061-.15-.11-.303-.148-.46l-.857-.75c-.002-.57.119-1.133.354-1.653l1.09-.331a3.2 3.2 0 0 1 .324-.358l.22-1.117a3.987 3.987 0 0 1 1.61-.52l.831.778c.16.022.318.056.473.102l1.077-.368c.495.284.923.67 1.255 1.134l-.258 1.11Z"/>
</svg>
