<svg width="24" height="24" viewBox="0 0 17 22" fill="none" xmlns="http://www.w3.org/2000/svg">
<path fill-rule="evenodd" clip-rule="evenodd" d="M8.4821 1C7.28359 1.89035 4.33418 3.50433 1.00465 3.62498V9.79314L1.00451 9.79678C0.909898 12.2164 2.26895 17.866 8.48881 21C11.0168 19.9266 15.9346 16.243 16 9.78849V3.62558C14.4736 3.56778 11.1565 2.98311 8.4821 1Z" stroke="#333333"/>
<path fill-rule="evenodd" clip-rule="evenodd" d="M8.48807 4.33398C7.68906 4.92755 5.72278 6.00353 3.5031 6.08397V10.1961L3.503 10.1985C3.43993 11.8116 4.34596 15.578 8.49254 17.6673C10.1779 16.9517 13.4564 14.496 13.5 10.193V6.08437C12.4824 6.04584 10.271 5.65605 8.48807 4.33398Z" stroke="#333333" stroke-width="0.5"/>
</svg>
