<svg xmlns="http://www.w3.org/2000/svg" width="24" height="24" fill="none" viewBox="0 0 24 24">
  <path stroke="currentColor" stroke-linecap="round" stroke-linejoin="round" stroke-width=".8" d="M4.434 11.601a2.574 2.574 0 1 0 5.15 0 2.574 2.574 0 0 0-5.15 0Z"/>
  <path stroke="currentColor" stroke-linecap="round" stroke-linejoin="round" stroke-width=".8" d="M2.879 14.58a5.118 5.118 0 0 1-.38-.667l-1.577-.888a6.336 6.336 0 0 1 .014-2.687l1.588-.87c.113-.23.242-.451.388-.662l-.02-1.81a6.336 6.336 0 0 1 2.334-1.332l1.547.941c.256-.017.513-.016.768.005L9.1 5.688c.861.28 1.652.743 2.32 1.355l-.041 1.81c.143.213.27.436.38.668l1.577.888a6.336 6.336 0 0 1-.014 2.687l-1.588.87c-.113.23-.242.451-.388.662l.02 1.81A6.338 6.338 0 0 1 9.03 17.77l-1.548-.941a5.127 5.127 0 0 1-.767-.005l-1.558.922a6.336 6.336 0 0 1-2.32-1.355l.041-1.81ZM18.173 8.26a1.32 1.32 0 1 0-.398-2.609 1.32 1.32 0 0 0 .398 2.61Z"/>
  <path stroke="currentColor" stroke-linecap="round" stroke-linejoin="round" stroke-width=".8" d="M20.41 4.524c.116.124.222.257.317.397l1.123.417c.215.56.307 1.159.27 1.757l-.948.733c-.05.162-.112.32-.186.473l.2 1.181c-.377.466-.85.845-1.387 1.112l-1.108-.454a3.368 3.368 0 0 1-.503.076l-.922.764a4.192 4.192 0 0 1-1.657-.646l-.16-1.187a3.386 3.386 0 0 1-.318-.397l-1.123-.417a4.193 4.193 0 0 1-.27-1.758l.949-.733c.05-.162.112-.32.185-.473l-.2-1.18c.377-.466.85-.846 1.387-1.113l1.109.455c.165-.038.333-.064.502-.076l.923-.764a4.193 4.193 0 0 1 1.657.645l.16 1.188ZM18.077 18.279a1.322 1.322 0 1 0-.399-2.613 1.322 1.322 0 0 0 .399 2.613Z"/>
  <path stroke="currentColor" stroke-linecap="round" stroke-linejoin="round" stroke-width=".8" d="M20.863 15.755c.06.15.11.303.148.46l.857.75c.001.57-.12 1.134-.354 1.653l-1.09.331a3.218 3.218 0 0 1-.325.358l-.22 1.117a3.987 3.987 0 0 1-1.609.52l-.832-.778a3.202 3.202 0 0 1-.472-.102l-1.078.368a3.986 3.986 0 0 1-1.254-1.133l.258-1.11c-.061-.15-.11-.303-.148-.46l-.857-.75c-.002-.57.119-1.133.354-1.653l1.09-.331a3.2 3.2 0 0 1 .324-.358l.22-1.117a3.987 3.987 0 0 1 1.61-.52l.831.778c.16.022.318.056.473.102l1.077-.368c.495.284.923.67 1.255 1.134l-.258 1.11Z"/>
</svg>
