<svg width="64" height="131" viewBox="0 0 64 131" fill="none" xmlns="http://www.w3.org/2000/svg">
<g clip-path="url(#clip0_13323_29415)">
<path fill-rule="evenodd" clip-rule="evenodd" d="M32.7941 22.25L32.9045 22.3347C35.4313 24.2737 38.6596 24.7857 39.9484 24.7983L40.125 24.8V30.8994L40.125 30.9011C40.0622 37.1841 35.2593 40.7287 32.864 41.7187L32.7882 41.75L32.7149 41.7133C26.736 38.7227 25.4134 33.2724 25.5043 30.896V24.8016L25.6792 24.7983C28.8444 24.7377 31.6735 23.1283 32.6846 22.3358L32.7941 22.25ZM32.7959 22.6971C31.6843 23.528 28.9489 25.0341 25.861 25.1467V30.9028L25.8609 30.9062C25.7731 33.1641 27.0335 38.4363 32.8021 41.3609C35.1467 40.3592 39.7077 36.9217 39.7683 30.8984V25.1473C38.3527 25.0933 35.2762 24.5477 32.7959 22.6971Z" fill="black" stroke="black" stroke-width="0.5"/>
<path fill-rule="evenodd" clip-rule="evenodd" d="M32.7989 24.6875L32.8546 24.7302C34.7753 26.2026 37.2269 26.5909 38.2079 26.6005L38.2969 26.6013V31.1648L38.2969 31.1657C38.2496 35.8875 34.6359 38.5528 32.8341 39.2967L32.7959 39.3125L32.759 39.294C28.2563 37.044 27.2628 32.9443 27.3314 31.1631V26.6022L27.4195 26.6005C29.8258 26.5545 31.9742 25.3332 32.7437 24.7307L32.7989 24.6875ZM32.7999 24.9129C31.9776 25.5359 29.8776 26.7034 27.5112 26.7762V31.1665L27.5111 31.1682C27.4441 32.8898 28.4063 36.8998 32.803 39.1166C34.5795 38.3666 38.0709 35.7552 38.1171 31.1643V26.7766C37.0689 26.7457 34.6964 26.3396 32.7999 24.9129Z" fill="black" stroke="black" stroke-width="0.3"/>
</g>
<!-- <g clip-path="url(#clip1_13323_29415)">
<path fill-rule="evenodd" clip-rule="evenodd" d="M32.7941 57.25L32.9045 57.3347C35.4313 59.2737 38.6596 59.7857 39.9484 59.7983L40.125 59.8V65.8994L40.125 65.9011C40.0622 72.1841 35.2593 75.7287 32.864 76.7187L32.7882 76.75L32.7149 76.7133C26.736 73.7227 25.4134 68.2724 25.5043 65.896V59.8016L25.6792 59.7983C28.8444 59.7377 31.6735 58.1283 32.6846 57.3358L32.7941 57.25ZM32.7959 57.6971C31.6843 58.528 28.9489 60.0341 25.861 60.1467V65.9028L25.8609 65.9062C25.7731 68.1641 27.0335 73.4363 32.8021 76.3609C35.1467 75.3592 39.7077 71.9217 39.7683 65.8984V60.1473C38.3527 60.0933 35.2762 59.5477 32.7959 57.6971Z" fill="black" stroke="black" stroke-width="0.5"/>
<path fill-rule="evenodd" clip-rule="evenodd" d="M32.7989 59.6875L32.8546 59.7302C34.7753 61.2026 37.2269 61.5909 38.2079 61.6005L38.2969 61.6013V66.1648L38.2969 66.1657C38.2496 70.8875 34.6359 73.5528 32.8341 74.2967L32.7959 74.3125L32.759 74.294C28.2563 72.044 27.2628 67.9443 27.3314 66.1631V61.6022L27.4195 61.6005C29.8258 61.5545 31.9742 60.3332 32.7437 59.7307L32.7989 59.6875ZM32.7999 59.9129C31.9776 60.5359 29.8776 61.7034 27.5112 61.7762V66.1665L27.5111 66.1682C27.4441 67.8898 28.4063 71.8998 32.803 74.1166C34.5795 73.3666 38.0709 70.7552 38.1171 66.1643V61.7766C37.0689 61.7457 34.6964 61.3396 32.7999 59.9129Z" fill="black" stroke="black" stroke-width="0.3"/>
<path d="M32.7998 59.9121C31.9775 60.5351 29.8774 61.7026 27.5111 61.7754L27.511 66.1674C27.444 67.8889 28.4061 71.8989 32.8029 74.1158C34.5794 73.3658 38.0708 70.7543 38.1169 66.1635V61.7758C37.0688 61.7449 34.6963 61.3388 32.7998 59.9121Z" fill="#FDE3C9" stroke="black" stroke-width="0.3"/>
</g>
<g clip-path="url(#clip2_13323_29415)">
<path fill-rule="evenodd" clip-rule="evenodd" d="M32.7941 94.25L32.9045 94.3347C35.4313 96.2737 38.6596 96.7857 39.9484 96.7983L40.125 96.8V102.899L40.125 102.901C40.0622 109.184 35.2593 112.729 32.864 113.719L32.7882 113.75L32.7149 113.713C26.736 110.723 25.4134 105.272 25.5043 102.896V96.8016L25.6792 96.7983C28.8444 96.7377 31.6735 95.1283 32.6846 94.3358L32.7941 94.25ZM32.7959 94.6971C31.6843 95.528 28.9489 97.0341 25.861 97.1467V102.903L25.8609 102.906C25.7731 105.164 27.0335 110.436 32.8021 113.361C35.1467 112.359 39.7077 108.922 39.7683 102.898V97.1473C38.3527 97.0933 35.2762 96.5477 32.7959 94.6971Z" fill="black" stroke="black" stroke-width="0.5"/>
<path fill-rule="evenodd" clip-rule="evenodd" d="M32.7989 96.6875L32.8546 96.7302C34.7753 98.2026 37.2269 98.5909 38.2079 98.6005L38.2969 98.6013V103.165L38.2969 103.166C38.2496 107.887 34.6359 110.553 32.8341 111.297L32.7959 111.312L32.759 111.294C28.2563 109.044 27.2628 104.944 27.3314 103.163V98.6022L27.4195 98.6005C29.8258 98.5545 31.9742 97.3332 32.7437 96.7307L32.7989 96.6875ZM32.7999 96.9129C31.9776 97.5359 29.8776 98.7034 27.5112 98.7762V103.167L27.5111 103.168C27.4441 104.89 28.4063 108.9 32.803 111.117C34.5795 110.367 38.0709 107.755 38.1171 103.164V98.7766C37.0689 98.7457 34.6964 98.3396 32.7999 96.9129Z" fill="black" stroke="black" stroke-width="0.3"/>
<path d="M32.7998 96.9121C31.9775 97.5351 29.8774 98.7026 27.5111 98.7754L27.511 103.167C27.444 104.889 28.4061 108.899 32.8029 111.116C34.5794 110.366 38.0708 107.754 38.1169 103.163V98.7758C37.0688 98.7449 34.6963 98.3388 32.7998 96.9121Z" fill="#333333" stroke="black" stroke-width="0.3"/>
</g> -->
<!-- <rect x="0.5" y="0.5" width="63" height="130" rx="4.5" stroke="#9747FF" stroke-dasharray="10 5"/>
<defs>
<clipPath id="clip0_13323_29415">
<rect width="24" height="24" fill="white" transform="translate(21 20)"/>
</clipPath>
<clipPath id="clip1_13323_29415">
<rect width="24" height="24" fill="white" transform="translate(21 55)"/>
</clipPath>
<clipPath id="clip2_13323_29415">
<rect width="24" height="24" fill="white" transform="translate(21 92)"/>
</clipPath>
</defs> -->
</svg>
