<svg width="24" height="24" viewBox="0 0 20 20" fill="none" xmlns="http://www.w3.org/2000/svg">
    <path fill-rule="evenodd" clip-rule="evenodd" d="M9.98568 2C9.02687 2.71228 6.66734 4.00346 4.00372 4.09998V9.03451L4.00361 9.03742C3.92792 10.9731 5.01516 15.4928 9.99104 18C12.0135 17.1413 15.9477 14.1944 16 9.03079V4.10046C14.7789 4.05422 12.1252 3.58648 9.98568 2Z" stroke="white"/>
    <path fill-rule="evenodd" clip-rule="evenodd" d="M9.99045 4.66666C9.35125 5.14151 7.77823 6.0023 6.00248 6.06664V9.35633L6.0024 9.35827C5.95195 10.6487 6.67677 13.6619 9.99403 15.3333C11.3423 14.7609 13.9651 12.7963 14 9.35385V6.06696C13.1859 6.03614 11.4168 5.72431 9.99045 4.66666Z" fill="white" stroke="white" stroke-width="0.5"/>
</svg>
