<svg width="24" height="24" viewBox="0 0 24 24" fill="none" xmlns="http://www.w3.org/2000/svg">
<path fill-rule="evenodd" clip-rule="evenodd" d="M2.49931 13.9128C2.60895 14.1445 2.73585 14.3677 2.87893 14.5804L2.83801 16.3908C3.50563 17.0033 4.29682 17.4654 5.15822 17.7461L6.71553 16.8238C6.97102 16.8447 7.22773 16.8464 7.48348 16.8289L9.0309 17.7695C9.89509 17.4975 10.6909 17.0434 11.3647 16.4378L11.3446 14.628C11.4905 14.4172 11.6203 14.1957 11.733 13.9654L13.3213 13.0957C13.5179 12.2113 13.5225 11.295 13.3349 10.4087L11.7576 9.52113C11.6479 9.28941 11.521 9.06625 11.3779 8.85355L11.4189 7.04311C10.7512 6.43069 9.96004 5.96855 9.09865 5.68789L7.54134 6.61012C7.28584 6.58921 7.02913 6.58753 6.77338 6.60508L5.22596 5.66443C4.36178 5.93639 3.56596 6.39052 2.8922 6.99617L2.91222 8.80596C2.76636 9.01677 2.63655 9.23824 2.52388 9.46851L0.93554 10.3383C0.738974 11.2227 0.734351 12.1389 0.921985 13.0253L2.49931 13.9128ZM7.00862 14.176C5.58679 14.176 4.43418 13.0234 4.43418 11.6015C4.43418 10.1797 5.58679 9.0271 7.00862 9.0271C8.43044 9.0271 9.58305 10.1797 9.58305 11.6015C9.58305 13.0234 8.43044 14.176 7.00862 14.176Z" fill="currentColor"/>
<path d="M2.87893 14.5804L3.27883 14.5894C3.2807 14.5068 3.25694 14.4257 3.21083 14.3571L2.87893 14.5804ZM2.49931 13.9128L2.86088 13.7417C2.82546 13.6669 2.76766 13.6048 2.69547 13.5642L2.49931 13.9128ZM2.83801 16.3908L2.43811 16.3818C2.43551 16.497 2.4827 16.6077 2.56761 16.6856L2.83801 16.3908ZM5.15822 17.7461L5.0343 18.1264C5.14366 18.162 5.26307 18.1488 5.36204 18.0902L5.15822 17.7461ZM6.71553 16.8238L6.74815 16.4252C6.6656 16.4184 6.58298 16.4374 6.5117 16.4796L6.71553 16.8238ZM7.48348 16.8289L7.69126 16.4871C7.62066 16.4441 7.53851 16.4241 7.45608 16.4298L7.48348 16.8289ZM9.0309 17.7695L8.82313 18.1113C8.92159 18.1712 9.04107 18.1857 9.15098 18.1511L9.0309 17.7695ZM11.3647 16.4378L11.6321 16.7352C11.7176 16.6583 11.7659 16.5484 11.7646 16.4333L11.3647 16.4378ZM11.3446 14.628L11.0157 14.4004C10.9686 14.4685 10.9438 14.5496 10.9447 14.6324L11.3446 14.628ZM11.733 13.9654L11.5409 13.6146C11.4684 13.6543 11.41 13.7154 11.3737 13.7896L11.733 13.9654ZM13.3213 13.0957L13.5134 13.4465C13.6145 13.3912 13.6868 13.2949 13.7118 13.1824L13.3213 13.0957ZM13.3349 10.4087L13.7262 10.3258C13.7024 10.2133 13.6313 10.1165 13.531 10.0601L13.3349 10.4087ZM11.7576 9.52113L11.396 9.69221C11.4314 9.76708 11.4892 9.82911 11.5614 9.86973L11.7576 9.52113ZM11.3779 8.85355L10.978 8.84451C10.9762 8.9271 10.9999 9.00825 11.046 9.0768L11.3779 8.85355ZM11.4189 7.04311L11.8188 7.05215C11.8214 6.93696 11.7742 6.82624 11.6893 6.74835L11.4189 7.04311ZM9.09865 5.68789L9.22256 5.30757C9.1132 5.27193 8.99379 5.2851 8.89482 5.34371L9.09865 5.68789ZM7.54134 6.61012L7.50871 7.00879C7.59127 7.01555 7.67389 6.99651 7.74516 6.9543L7.54134 6.61012ZM6.77338 6.60508L6.56561 6.94689C6.6362 6.9898 6.71836 7.0098 6.80078 7.00414L6.77338 6.60508ZM5.22596 5.66443L5.43374 5.32263C5.33528 5.26277 5.21579 5.24829 5.10589 5.28288L5.22596 5.66443ZM2.8922 6.99617L2.62479 6.6987C2.53925 6.77559 2.49095 6.88559 2.49222 7.0006L2.8922 6.99617ZM2.91222 8.80596L3.24116 9.03355C3.28829 8.96543 3.31311 8.88436 3.3122 8.80153L2.91222 8.80596ZM2.52388 9.46851L2.716 9.81935C2.78847 9.77967 2.84687 9.71852 2.88318 9.64431L2.52388 9.46851ZM0.93554 10.3383L0.743419 9.98745C0.642357 10.0428 0.570068 10.139 0.545068 10.2515L0.93554 10.3383ZM0.921985 13.0253L0.530658 13.1081C0.554479 13.2206 0.625588 13.3175 0.725829 13.3739L0.921985 13.0253ZM4.43418 11.6015L4.83418 11.6015V11.6015H4.43418ZM7.00862 14.176V14.576V14.176ZM7.00862 9.0271V8.6271V9.0271ZM3.21083 14.3571C3.07893 14.1611 2.96195 13.9553 2.86088 13.7417L2.13775 14.0839C2.25595 14.3337 2.39277 14.5743 2.54703 14.8037L3.21083 14.3571ZM3.23791 16.3999L3.27883 14.5894L2.47903 14.5714L2.43811 16.3818L3.23791 16.3999ZM5.28214 17.3657C4.47512 17.1028 3.73388 16.6698 3.1084 16.0961L2.56761 16.6856C3.27738 17.3367 4.11852 17.828 5.0343 18.1264L5.28214 17.3657ZM6.5117 16.4796L4.9544 17.4019L5.36204 18.0902L6.91935 17.168L6.5117 16.4796ZM7.45608 16.4298C7.22032 16.446 6.98368 16.4444 6.74815 16.4252L6.6829 17.2225C6.95836 17.245 7.23514 17.2468 7.51088 17.2279L7.45608 16.4298ZM9.23868 17.4277L7.69126 16.4871L7.2757 17.1707L8.82313 18.1113L9.23868 17.4277ZM11.0973 16.1403C10.466 16.7077 9.72046 17.1332 8.91083 17.388L9.15098 18.1511C10.0697 17.8619 10.9158 17.3791 11.6321 16.7352L11.0973 16.1403ZM10.9447 14.6324L10.9647 16.4422L11.7646 16.4333L11.7446 14.6236L10.9447 14.6324ZM11.3737 13.7896C11.2698 14.0019 11.1502 14.2061 11.0157 14.4004L11.6736 14.8556C11.8308 14.6283 11.9708 14.3895 12.0923 14.1412L11.3737 13.7896ZM13.1292 12.7448L11.5409 13.6146L11.9251 14.3163L13.5134 13.4465L13.1292 12.7448ZM12.9436 10.4915C13.1193 11.3219 13.115 12.1803 12.9309 13.0089L13.7118 13.1824C13.9208 12.2422 13.9257 11.2681 13.7262 10.3258L12.9436 10.4915ZM11.5614 9.86973L13.1387 10.7573L13.531 10.0601L11.9537 9.17253L11.5614 9.86973ZM11.046 9.0768C11.1779 9.27288 11.2949 9.4786 11.396 9.69221L12.1191 9.35005C12.0009 9.10022 11.8641 8.85962 11.7098 8.63029L11.046 9.0768ZM11.019 7.03407L10.978 8.84451L11.7778 8.86258L11.8188 7.05215L11.019 7.03407ZM8.97473 6.06821C9.78174 6.33116 10.523 6.76411 11.1485 7.33788L11.6893 6.74835C10.9795 6.09726 10.1383 5.60595 9.22256 5.30757L8.97473 6.06821ZM7.74516 6.9543L9.30247 6.03206L8.89482 5.34371L7.33752 6.26595L7.74516 6.9543ZM6.80078 7.00414C7.03654 6.98796 7.27318 6.98951 7.50871 7.00879L7.57397 6.21146C7.2985 6.18891 7.02173 6.18709 6.74599 6.20602L6.80078 7.00414ZM5.01818 6.00623L6.56561 6.94689L6.98116 6.26328L5.43374 5.32263L5.01818 6.00623ZM3.15961 7.29365C3.79083 6.72623 4.53641 6.30077 5.34604 6.04598L5.10589 5.28288C4.18714 5.57201 3.34109 6.0548 2.62479 6.6987L3.15961 7.29365ZM3.3122 8.80153L3.29217 6.99175L2.49222 7.0006L2.51225 8.81038L3.3122 8.80153ZM2.88318 9.64431C2.98704 9.43204 3.10671 9.22788 3.24116 9.03355L2.58328 8.57837C2.42602 8.80566 2.28606 9.04444 2.16459 9.2927L2.88318 9.64431ZM1.12766 10.6891L2.716 9.81935L2.33176 9.11767L0.743419 9.98745L1.12766 10.6891ZM1.31331 12.9424C1.13752 12.112 1.14185 11.2536 1.32601 10.4251L0.545068 10.2515C0.336093 11.1917 0.331179 12.1658 0.530658 13.1081L1.31331 12.9424ZM2.69547 13.5642L1.11814 12.6767L0.725829 13.3739L2.30316 14.2614L2.69547 13.5642ZM4.03418 11.6015C4.03418 13.2443 5.36588 14.576 7.00862 14.576V13.776C5.80771 13.776 4.83418 12.8024 4.83418 11.6015L4.03418 11.6015ZM7.00862 8.6271C5.36588 8.6271 4.03418 9.9588 4.03418 11.6015H4.83418C4.83418 10.4006 5.80771 9.4271 7.00862 9.4271V8.6271ZM9.98305 11.6015C9.98305 9.9588 8.65135 8.6271 7.00862 8.6271V9.4271C8.20953 9.4271 9.18305 10.4006 9.18305 11.6015H9.98305ZM7.00862 14.576C8.65135 14.576 9.98305 13.2443 9.98305 11.6015H9.18305C9.18305 12.8024 8.20953 13.776 7.00862 13.776V14.576Z" fill="currentColor"/>
<path fill-rule="evenodd" clip-rule="evenodd" d="M20.7275 4.92068C20.6319 4.78058 20.5258 4.64786 20.4103 4.52365L20.2496 3.3361C19.7498 3.00494 19.1848 2.78481 18.5928 2.69055L17.6704 3.45457C17.5012 3.46735 17.3333 3.49283 17.1679 3.53079L16.0591 3.07619C15.5225 3.34342 15.0493 3.72264 14.6717 4.18826L14.8721 5.36907C14.7986 5.52195 14.7367 5.68015 14.6869 5.84232L13.7388 6.57526C13.7019 7.17366 13.7938 7.773 14.0082 8.33288L15.131 8.74968C15.2267 8.88978 15.3327 9.0225 15.4482 9.14671L15.6089 10.3343C16.1087 10.6654 16.6737 10.8855 17.2658 10.9798L18.1881 10.2158C18.3573 10.203 18.5253 10.1775 18.6906 10.1396L19.7994 10.5942C20.3361 10.3269 20.8092 9.94772 21.1869 9.4821L20.9864 8.3013C21.0599 8.14841 21.1218 7.99021 21.1716 7.82804L22.1197 7.0951C22.1566 6.4967 22.0648 5.89736 21.8504 5.33748L20.7275 4.92068ZM19.7195 6.68973C19.8666 7.65382 19.2042 8.55455 18.2401 8.70158C17.276 8.8486 16.3753 8.18625 16.2283 7.22216C16.0812 6.25808 16.7436 5.35734 17.7077 5.21031C18.6718 5.06329 19.5725 5.72564 19.7195 6.68973Z" fill="currentColor"/>
<path d="M20.4103 4.52365L20.0139 4.57729C20.025 4.65916 20.0611 4.73559 20.1174 4.79609L20.4103 4.52365ZM20.7275 4.92068L20.3972 5.14622C20.4439 5.21463 20.5107 5.26685 20.5883 5.29568L20.7275 4.92068ZM20.2496 3.3361L20.646 3.28246C20.6305 3.16828 20.5666 3.06631 20.4705 3.00266L20.2496 3.3361ZM18.5928 2.69055L18.6557 2.29553C18.5421 2.27744 18.4262 2.30913 18.3376 2.3825L18.5928 2.69055ZM17.6704 3.45457L17.7005 3.85343C17.7831 3.84719 17.8618 3.81545 17.9256 3.76262L17.6704 3.45457ZM17.1679 3.53079L17.0162 3.90089C17.0926 3.93223 17.1769 3.93913 17.2574 3.92065L17.1679 3.53079ZM16.0591 3.07619L16.2109 2.70609C16.1043 2.66238 15.984 2.66676 15.8808 2.71812L16.0591 3.07619ZM14.6717 4.18826L14.361 3.93628C14.2886 4.02561 14.2581 4.14181 14.2773 4.25521L14.6717 4.18826ZM14.8721 5.36907L15.2326 5.54239C15.2685 5.46773 15.2804 5.38378 15.2665 5.30211L14.8721 5.36907ZM14.6869 5.84232L14.9316 6.15878C14.9969 6.10825 15.045 6.03872 15.0693 5.95974L14.6869 5.84232ZM13.7388 6.57526L13.4942 6.2588C13.403 6.32928 13.3467 6.43564 13.3396 6.55064L13.7388 6.57526ZM14.0082 8.33288L13.6346 8.47593C13.6758 8.58335 13.7611 8.66786 13.869 8.70788L14.0082 8.33288ZM15.131 8.74968L15.4614 8.52414C15.4146 8.45573 15.3479 8.4035 15.2702 8.37468L15.131 8.74968ZM15.4482 9.14671L15.8446 9.09307C15.8336 9.0112 15.7974 8.93477 15.7411 8.87428L15.4482 9.14671ZM15.6089 10.3343L15.2126 10.3879C15.228 10.5021 15.2919 10.6041 15.388 10.6677L15.6089 10.3343ZM17.2658 10.9798L17.2029 11.3748C17.3165 11.3929 17.4323 11.3612 17.5209 11.2879L17.2658 10.9798ZM18.1881 10.2158L18.158 9.81693C18.0754 9.82317 17.9968 9.8549 17.933 9.90774L18.1881 10.2158ZM18.6906 10.1396L18.8423 9.76947C18.7659 9.73813 18.6816 9.73123 18.6011 9.74971L18.6906 10.1396ZM19.7994 10.5942L19.6477 10.9643C19.7543 11.008 19.8745 11.0036 19.9777 10.9522L19.7994 10.5942ZM21.1869 9.4821L21.4975 9.73408C21.57 9.64475 21.6005 9.52855 21.5812 9.41515L21.1869 9.4821ZM20.9864 8.3013L20.6259 8.12797C20.59 8.20263 20.5782 8.28658 20.592 8.36825L20.9864 8.3013ZM21.1716 7.82804L20.927 7.51158C20.8616 7.56211 20.8135 7.63164 20.7892 7.71062L21.1716 7.82804ZM22.1197 7.0951L22.3644 7.41156C22.4555 7.34108 22.5119 7.23472 22.519 7.11972L22.1197 7.0951ZM21.8504 5.33748L22.2239 5.19443C22.1828 5.08701 22.0974 5.0025 21.9896 4.96248L21.8504 5.33748ZM18.2401 8.70158L18.1798 8.30615L18.2401 8.70158ZM19.7195 6.68973L20.115 6.62943L19.7195 6.68973ZM16.2283 7.22216L15.8328 7.28246L16.2283 7.22216ZM20.1174 4.79609C20.2193 4.90563 20.3128 5.02267 20.3972 5.14622L21.0579 4.69514C20.9509 4.53849 20.8324 4.3901 20.7032 4.25121L20.1174 4.79609ZM19.8532 3.38974L20.0139 4.57729L20.8067 4.47001L20.646 3.28246L19.8532 3.38974ZM18.5299 3.08558C19.0655 3.17084 19.5765 3.36998 20.0286 3.66954L20.4705 3.00266C19.9231 2.63991 19.3042 2.39878 18.6557 2.29553L18.5299 3.08558ZM17.9256 3.76262L18.8479 2.9986L18.3376 2.3825L17.4152 3.14652L17.9256 3.76262ZM17.2574 3.92065C17.4032 3.88718 17.5514 3.86471 17.7005 3.85343L17.6402 3.05571C17.4511 3.07 17.2633 3.09849 17.0784 3.14093L17.2574 3.92065ZM15.9074 3.44629L17.0162 3.90089L17.3197 3.16069L16.2109 2.70609L15.9074 3.44629ZM14.9823 4.44023C15.324 4.01903 15.752 3.67599 16.2374 3.43425L15.8808 2.71812C15.293 3.01085 14.7747 3.42624 14.361 3.93628L14.9823 4.44023ZM15.2665 5.30211L15.066 4.12131L14.2773 4.25521L14.4778 5.43602L15.2665 5.30211ZM15.0693 5.95974C15.1132 5.81673 15.1678 5.67722 15.2326 5.54239L14.5116 5.19574C14.4294 5.36669 14.3602 5.54357 14.3045 5.72489L15.0693 5.95974ZM13.9835 6.89173L14.9316 6.15878L14.4423 5.52586L13.4942 6.2588L13.9835 6.89173ZM14.3817 8.18983C14.1878 7.68337 14.1047 7.1412 14.1381 6.59989L13.3396 6.55064C13.2991 7.20612 13.3998 7.86264 13.6346 8.47593L14.3817 8.18983ZM15.2702 8.37468L14.1474 7.95789L13.869 8.70788L14.9918 9.12468L15.2702 8.37468ZM15.7411 8.87428C15.6392 8.76473 15.5457 8.64769 15.4614 8.52414L14.8007 8.97522C14.9076 9.13187 15.0262 9.28026 15.1554 9.41915L15.7411 8.87428ZM16.0053 10.2806L15.8446 9.09307L15.0519 9.20035L15.2126 10.3879L16.0053 10.2806ZM17.3287 10.5848C16.7931 10.4995 16.282 10.3004 15.8299 10.0008L15.388 10.6677C15.9354 11.0304 16.5543 11.2716 17.2029 11.3748L17.3287 10.5848ZM17.933 9.90774L17.0106 10.6718L17.5209 11.2879L18.4433 10.5238L17.933 9.90774ZM18.6011 9.74971C18.4553 9.78318 18.3072 9.80565 18.158 9.81693L18.2183 10.6147C18.4074 10.6004 18.5952 10.5719 18.7801 10.5294L18.6011 9.74971ZM19.9511 10.2241L18.8423 9.76947L18.5389 10.5097L19.6477 10.9643L19.9511 10.2241ZM20.8762 9.23013C20.5346 9.65133 20.1066 9.99437 19.6211 10.2361L19.9777 10.9522C20.5656 10.6595 21.0838 10.2441 21.4975 9.73408L20.8762 9.23013ZM20.592 8.36825L20.7925 9.54905L21.5812 9.41515L21.3808 8.23434L20.592 8.36825ZM20.7892 7.71062C20.7453 7.85363 20.6907 7.99314 20.6259 8.12797L21.3469 8.47462C21.4291 8.30367 21.4983 8.12678 21.554 7.94546L20.7892 7.71062ZM21.8751 6.77863L20.927 7.51158L21.4163 8.1445L22.3644 7.41156L21.8751 6.77863ZM21.4768 5.48053C21.6708 5.98699 21.7539 6.52916 21.7205 7.07047L22.519 7.11972C22.5594 6.46424 22.4588 5.80772 22.2239 5.19443L21.4768 5.48053ZM20.5883 5.29568L21.7112 5.71247L21.9896 4.96248L20.8667 4.54568L20.5883 5.29568ZM18.3004 9.097C19.4829 8.91667 20.2953 7.8119 20.115 6.62943L19.3241 6.75003C19.4378 7.49573 18.9255 8.19243 18.1798 8.30615L18.3004 9.097ZM15.8328 7.28246C16.0132 8.46494 17.1179 9.27734 18.3004 9.097L18.1798 8.30615C17.4341 8.41987 16.7374 7.90755 16.6237 7.16186L15.8328 7.28246ZM17.6474 4.81489C16.4649 4.99522 15.6525 6.09999 15.8328 7.28246L16.6237 7.16186C16.51 6.41616 17.0223 5.71946 17.768 5.60574L17.6474 4.81489ZM20.115 6.62943C19.9346 5.44695 18.8299 4.63455 17.6474 4.81489L17.768 5.60574C18.5137 5.49202 19.2104 6.00434 19.3241 6.75003L20.115 6.62943Z" fill="currentColor"/>
<path d="M18.0768 18.279C18.7984 18.1689 19.2941 17.4948 19.1841 16.7732C19.074 16.0517 18.3999 15.556 17.6783 15.666C16.9568 15.776 16.4611 16.4502 16.5711 17.1717C16.6811 17.8933 17.3553 18.389 18.0768 18.279Z" stroke="currentColor" stroke-width="0.8" stroke-linecap="round" stroke-linejoin="round"/>
<path d="M20.8628 15.7553C20.9236 15.9047 20.973 16.0585 21.0107 16.2153L21.8679 16.9649C21.8694 17.5349 21.7487 18.0986 21.5139 18.6179L20.4237 18.9492C20.3247 19.0765 20.2163 19.1962 20.0993 19.3073L19.8788 20.4245C19.3859 20.7108 18.8374 20.8881 18.2702 20.9444L17.4382 20.1659C17.2784 20.1439 17.1206 20.1098 16.9659 20.064L15.8882 20.4316C15.3938 20.148 14.966 19.7615 14.6336 19.2985L14.8917 18.1888C14.831 18.0394 14.7815 17.8856 14.7438 17.7288L13.8866 16.9792C13.8851 16.4092 14.0058 15.8455 14.2407 15.3262L15.3308 14.9949C15.4298 14.8675 15.5382 14.7478 15.6552 14.6368L15.8757 13.5196C16.3686 13.2333 16.9171 13.056 17.4844 12.9997L18.3163 13.7781C18.4761 13.8002 18.634 13.8343 18.7886 13.88L19.8664 13.5124C20.3608 13.7961 20.7886 14.1825 21.1209 14.6456L20.8628 15.7553Z" stroke="currentColor" stroke-width="0.8" stroke-linecap="round" stroke-linejoin="round"/>
</svg>
