<svg width="24" height="24" viewBox="0 0 24 24" fill="none" xmlns="http://www.w3.org/2000/svg">
<path d="M12.0004 10.125L12.0005 20.25" stroke="#333333" stroke-linecap="round" stroke-linejoin="round"/>
<path d="M12.0005 3.75L12.0004 6.375" stroke="#333333" stroke-linecap="round" stroke-linejoin="round"/>
<path d="M12.0004 10.125C13.0359 10.125 13.8754 9.28553 13.8754 8.25C13.8754 7.21447 13.0359 6.375 12.0004 6.375C10.9648 6.375 10.1254 7.21447 10.1254 8.25C10.1254 9.28553 10.9648 10.125 12.0004 10.125Z" stroke="#333333" stroke-linecap="round" stroke-linejoin="round"/>
<path d="M18.7504 17.625L18.7505 20.25" stroke="#333333" stroke-linecap="round" stroke-linejoin="round"/>
<path d="M18.7505 3.75L18.7504 13.875" stroke="#333333" stroke-linecap="round" stroke-linejoin="round"/>
<path d="M18.7504 17.625C19.7859 17.625 20.6254 16.7855 20.6254 15.75C20.6254 14.7145 19.7859 13.875 18.7504 13.875C17.7148 13.875 16.8754 14.7145 16.8754 15.75C16.8754 16.7855 17.7148 17.625 18.7504 17.625Z" stroke="#333333" stroke-linecap="round" stroke-linejoin="round"/>
<path d="M5.24995 14.625L5.24988 20.25" stroke="#333333" stroke-linecap="round" stroke-linejoin="round"/>
<path d="M5.24988 3.75L5.24995 10.875" stroke="#333333" stroke-linecap="round" stroke-linejoin="round"/>
<path d="M5.25037 14.625C6.2859 14.625 7.12537 13.7855 7.12537 12.75C7.12537 11.7145 6.2859 10.875 5.25037 10.875C4.21483 10.875 3.37537 11.7145 3.37537 12.75C3.37537 13.7855 4.21483 14.625 5.25037 14.625Z" stroke="#333333" stroke-linecap="round" stroke-linejoin="round"/>
</svg>
