<svg width="16" height="16" viewBox="0 0 16 16" fill="none" xmlns="http://www.w3.org/2000/svg">
  <path d="M3.00954 9.17328C3.82583 9.19035 4.6035 9.4938 5.18086 10.0205C5.75822 10.5473 6.09083 11.2567 6.10954 12.0014" stroke="#D4D4D4" stroke-linecap="round" stroke-linejoin="round"/>
  <path d="M3.01029 6.43641C4.62229 6.4535 6.16299 7.0453 7.30293 8.08528C8.44286 9.12525 9.09156 10.5308 9.11029 12.0015" stroke="#D4D4D4" stroke-linecap="round" stroke-linejoin="round"/>
  <path d="M3.01202 3.70051C5.41921 3.71721 7.72262 4.59702 9.42481 6.14994C11.127 7.70287 12.0914 9.80429 12.1097 12.0004" stroke="#D4D4D4" stroke-linecap="round" stroke-linejoin="round"/>
  <path d="M3.31384 12.188C3.17395 12.3156 2.94714 12.3156 2.80725 12.188C2.66736 12.0604 2.66736 11.8534 2.80725 11.7258C2.94714 11.5982 3.17395 11.5982 3.31384 11.7258C3.45374 11.8534 3.45374 12.0604 3.31384 12.188Z" fill="#333333" stroke="#333333" stroke-width="0.75"/>
</svg>
