<svg viewBox="0 0 512 544.4114" xmlns="http://www.w3.org/2000/svg"><path d="M83 299.41c7 0 11 2 11 6 43 45 96 66 162 68 64 0 117-21 162-64 7-6 15-6 26 0 6 7 6 17 0 26-51 51-113 77-188 77-70 0-132-26-186-79-6-9-6-15 0-26 3-6 7-8 13-8zm58-56c6 0 10 2 13 7 25 29 59 42 102 42 41 0 75-13 102-40 7-7 15-7 26 0 6 6 6 15 0 25-34 34-77 52-128 52-49 0-94-18-128-54-6-6-6-15 0-25 4-5 9-7 13-7zm45-21c19 19 42 30 70 30s51-11 70-30c5-4 7-9 7-13s-2-8-7-13c-8-6-17-6-25 0-13 13-28 19-45 19s-32-6-45-19c-8-6-17-6-25 0-5 5-7 9-7 13s2 9 7 13zm44-111c7-6 15-11 26-11s17 5 26 11c6 6 10 15 10 26 0 10-4 17-10 23-7 6-15 9-26 9s-17-3-26-9c-6-6-10-15-10-23 2-11 4-20 10-26z"/></svg>