<svg viewBox="0 0 512 544.4114" xmlns="http://www.w3.org/2000/svg"><path d="M429 211.41c-7 0-11-2-11-6-43-45-96-66-162-68-64 0-117 21-162 64-7 6-15 6-26 0-6-7-6-18 0-26 51-49 115-75 188-75 70 0 132 26 186 79 6 9 6 15 0 26-3 4-7 6-13 6zm-58 54c-6 0-10-3-13-7-25-30-59-43-102-43-41 0-75 13-102 41-7 6-15 6-26 0-6-6-6-15 0-26 34-34 77-51 128-51 49 0 94 17 128 54 6 6 6 14 0 25-4 7-9 7-13 7zm-45 21c-19-19-42-30-70-30s-51 11-70 30c-5 4-7 8-7 13 0 4 2 8 7 12 8 7 17 7 25 0 13-12 28-19 45-19s32 7 45 19c8 7 17 7 25 0 5-4 7-8 7-12 0-2-2-7-7-13zm-44 113c-7 6-15 11-26 11s-17-5-26-11c-8-6-10-15-10-26 0-10 4-17 10-23 7-7 15-9 26-9s17 2 26 9c8 6 10 15 10 23-2 11-4 20-10 26z"/></svg>