<svg viewBox="0 0 512 544.4114" xmlns="http://www.w3.org/2000/svg"><path d="M213 81.41c0 6-2 11-6 11-45 42-66 96-68 162 0 64 21 117 64 162 6 6 6 15 0 26-7 6-17 6-26 0-51-52-77-113-77-188 0-71 26-132 79-186 9-6 15-6 26 0 6 2 8 9 8 13zm54 60c0 6-2 10-7 13-30 25-42 59-42 102 0 41 12 75 40 102 7 7 7 15 0 26-6 6-15 6-25 0-35-34-52-77-52-128 0-49 17-94 54-128 6-6 15-6 25 0 5 4 7 9 7 13zm21 42c-19 20-30 43-30 71s11 51 30 70c4 5 9 7 13 7s8-2 13-7c6-8 6-17 0-25-13-13-20-28-20-45s7-32 20-45c6-8 6-17 0-26-5-4-9-6-13-6-4 2-9 4-13 6zm111 47c6 7 11 15 11 26s-5 17-11 26c-6 8-15 10-26 10-10 0-17-4-23-10-7-7-9-17-9-28s2-17 9-26c6-8 15-10 23-10 11 2 20 6 26 12z"/></svg>