<svg width="22" height="23" viewBox="0 0 22 23" fill="none" xmlns="http://www.w3.org/2000/svg">
<path fill-rule="evenodd" clip-rule="evenodd" d="M17.7552 10.5506C18.83 10.9811 19.339 11.593 19.339 12.5308C19.339 13.6429 18.5507 14.5906 16.8801 14.5906C16.1851 14.5906 15.496 14.3935 15.1541 14.185L15.4347 12.9427C15.8047 13.1498 16.3757 13.3561 16.9617 13.3561C17.5921 13.3561 17.9275 13.0715 17.9275 12.6354C17.9275 12.2248 17.6378 11.9886 16.9082 11.7026C15.8961 11.3169 15.2337 10.7064 15.2337 9.7409C15.2337 8.60532 16.1003 7.7394 17.5379 7.7394C18.227 7.7394 18.7308 7.89878 19.0937 8.07523L18.7883 9.28624C18.5448 9.1603 18.1076 8.97246 17.5131 8.97246C16.9134 8.97246 16.6276 9.26845 16.6276 9.6114C16.6276 10.0376 16.9695 10.2233 17.7552 10.5506ZM12.9829 14.4924L12.8935 11.9515C12.8687 11.1518 12.8413 10.187 12.8413 9.21858H12.812C12.624 10.0681 12.3708 11.0137 12.1359 11.7907L11.3946 14.3835H10.3191L9.66787 11.8114C9.46818 11.0337 9.26066 10.0881 9.11645 9.21858H9.09883C9.06359 10.1151 9.03553 11.1418 8.98724 11.9707L8.88283 14.4924H7.60835L7.99402 7.84962H9.8284L10.4288 10.0681C10.6148 10.8352 10.806 11.6655 10.9423 12.4446H10.9684C11.142 11.6747 11.3469 10.7989 11.5466 10.0582L12.1972 7.84962H13.9957L14.3305 14.4924H12.9829ZM4.35353 14.5906C3.65789 14.5906 2.97008 14.3935 2.62748 14.185L2.90874 12.947C3.27875 13.1498 3.84844 13.3561 4.4338 13.3561C5.0681 13.3561 5.40222 13.0715 5.40222 12.6396C5.40222 12.2248 5.11117 11.9886 4.3829 11.7026C3.37011 11.3169 2.70905 10.7064 2.70905 9.7409C2.70905 8.60958 3.57436 7.7394 5.01263 7.7394C5.70044 7.7394 6.20488 7.89878 6.56575 8.07523L6.26165 9.28908C6.0189 9.1603 5.58167 8.97246 4.98653 8.97246C4.38942 8.97246 4.10099 9.26845 4.10099 9.6114C4.10099 10.0376 4.44293 10.2233 5.22994 10.5506C6.30342 10.9811 6.81308 11.593 6.81308 12.5308C6.81308 13.6457 6.02346 14.5906 4.35353 14.5906ZM10.7231 0.450439C4.94722 0.450439 0.246094 5.15286 0.246094 10.9311C0.246094 13.6206 1.2491 16.148 3.0776 18.0975C2.36761 20.1211 1.71047 20.9151 1.4266 20.95C1.14925 20.9834 0.9326 21.2296 0.916285 21.5356C0.899318 21.8408 1.08726 22.1133 1.36264 22.1809C1.38222 22.1873 1.92516 22.3211 2.7213 22.3211C3.89071 22.3211 5.55738 22.0393 7.02305 20.7408C8.20878 21.1869 9.45062 21.416 10.7231 21.416C16.4997 21.416 21.1995 16.7136 21.1995 10.9311C21.1995 5.15286 16.4997 0.450439 10.7231 0.450439Z" fill="white"/>
</svg>
