<svg width="32" height="32" viewBox="0 0 32 32" fill="none" xmlns="http://www.w3.org/2000/svg">
<path fill-rule="evenodd" clip-rule="evenodd" d="M24.0549 14.6104C25.2859 15.0626 25.8689 15.7054 25.8689 16.6906C25.8689 17.8588 24.966 18.8544 23.0525 18.8544C22.2565 18.8544 21.4672 18.6474 21.0755 18.4284L21.3969 17.1233C21.8207 17.3408 22.4747 17.5576 23.146 17.5576C23.868 17.5576 24.2522 17.2586 24.2522 16.8004C24.2522 16.3692 23.9203 16.121 23.0847 15.8205C21.9254 15.4154 21.1667 14.7741 21.1667 13.7598C21.1667 12.5669 22.1593 11.6572 23.806 11.6572C24.5953 11.6572 25.1723 11.8246 25.5879 12.01L25.2381 13.2822C24.9593 13.1499 24.4585 12.9525 23.7776 12.9525C23.0906 12.9525 22.7633 13.2635 22.7633 13.6238C22.7633 14.0715 23.1549 14.2666 24.0549 14.6104ZM18.5887 18.7511L18.4863 16.082C18.4579 15.2418 18.4265 14.2283 18.4265 13.211H18.3929C18.1776 14.1035 17.8876 15.0968 17.6186 15.913L16.7694 18.6368H15.5376L14.7917 15.9347C14.563 15.1177 14.3253 14.1244 14.1601 13.211H14.1399C14.0995 14.1528 14.0674 15.2314 14.0121 16.1021L13.8925 18.7511H12.4327L12.8745 11.7729H14.9756L15.6632 14.1035C15.8762 14.9092 16.0952 15.7815 16.2515 16.5999H16.2814C16.4802 15.7912 16.7149 14.8711 16.9436 14.093L17.6888 11.7729H19.7488L20.1322 18.7511H18.5887ZM8.70466 18.8544C7.90787 18.8544 7.12006 18.6474 6.72764 18.4284L7.0498 17.1278C7.4736 17.3408 8.12613 17.5576 8.7966 17.5576C9.52312 17.5576 9.90582 17.2586 9.90582 16.8049C9.90582 16.3692 9.57245 16.121 8.73829 15.8205C7.57825 15.4154 6.82108 14.7741 6.82108 13.7598C6.82108 12.5713 7.8122 11.6572 9.45959 11.6572C10.2474 11.6572 10.8252 11.8246 11.2385 12.01L10.8902 13.2852C10.6122 13.1499 10.1114 12.9525 9.42969 12.9525C8.74577 12.9525 8.41539 13.2635 8.41539 13.6238C8.41539 14.0715 8.80706 14.2666 9.70849 14.6104C10.9381 15.0626 11.5218 15.7054 11.5218 16.6906C11.5218 17.8618 10.6174 18.8544 8.70466 18.8544ZM16.0004 4C9.38466 4 4 8.93992 4 15.01C4 17.8354 5.14884 20.4903 7.2432 22.5384C6.42997 24.6641 5.67729 25.4983 5.35214 25.5349C5.03448 25.57 4.78632 25.8286 4.76764 26.1501C4.7482 26.4707 4.96347 26.757 5.27889 26.828C5.30132 26.8347 5.9232 26.9752 6.83509 26.9752C8.17453 26.9752 10.0835 26.6792 11.7623 25.3151C13.1204 25.7838 14.5428 26.0245 16.0004 26.0245C22.6168 26.0245 28 21.0846 28 15.01C28 8.93992 22.6168 4 16.0004 4Z" fill="#333333"/>
</svg>
