<svg width="40" height="40" viewBox="0 0 40 40" fill="none" xmlns="http://www.w3.org/2000/svg">
<path d="M21.5007 16.2502H22.763V23.0056L18.4992 19.0366V22.8009H17.237V16.0626L21.5007 20.0374V16.2502ZM15.2412 19.537C15.2412 21.4873 13.655 23.074 11.7052 23.074C9.75485 23.074 8.1686 21.4873 8.1686 19.537C8.1686 17.5867 9.75485 16 11.7052 16C13.655 16 15.2412 17.5867 15.2412 19.537ZM13.9452 19.537C13.9452 18.286 12.9386 17.2681 11.6993 17.2681C10.46 17.2681 9.4592 18.286 9.4592 19.537C9.4592 20.788 10.4654 21.8059 11.6993 21.8059C12.9386 21.8059 13.9448 20.788 13.9448 19.537H13.9452ZM6.014 19.5937C5.6783 19.3377 5.23505 19.1334 4.5812 18.9228C3.30185 18.5132 3.30185 18.1951 3.30185 18.0358C3.30185 17.6718 3.7055 17.2964 4.3877 17.2964C4.9619 17.2964 5.4056 17.5808 5.5703 17.706L5.6612 17.7744L6.6791 17.0858L6.56525 16.9554C6.5315 16.9153 5.7467 16 4.3823 16C3.728 16 3.1259 16.2106 2.68805 16.5913C2.2502 16.9724 2 17.4958 2 18.0412C2 18.6217 2.25605 19.1104 2.756 19.4916C3.0917 19.7472 3.53495 19.9519 4.1888 20.1621C5.46815 20.5662 5.46815 20.8902 5.46815 21.0494C5.46815 21.4135 5.0645 21.7888 4.3823 21.7888C3.8081 21.7888 3.3644 21.5044 3.1997 21.3793L3.1088 21.3109L2.0909 21.9994L2.20475 22.1299C2.23895 22.1695 3.02375 23.0794 4.3823 23.0794C5.03615 23.0794 5.6387 22.8692 6.07655 22.4881C6.5144 22.107 6.76415 21.5782 6.76415 21.0382C6.76415 20.4636 6.5144 19.9807 6.014 19.5937ZM24.77 19.5654C24.77 17.6151 26.3562 16.0284 28.3066 16.0284C30.2564 16.0284 31.8426 17.6151 31.8426 19.5654C31.8426 21.5157 30.2564 23.1024 28.3066 23.1024C26.3562 23.1024 24.77 21.5157 24.77 19.5654ZM26.0606 19.5654C26.0606 20.8164 27.0668 21.8343 28.3007 21.8343C29.54 21.8343 30.5408 20.8164 30.5408 19.5654C30.5408 18.3144 29.5346 17.296 28.3007 17.296C27.0668 17.296 26.0606 18.3139 26.0606 19.5649V19.5654ZM33.9918 19.5024C34.3271 19.7589 34.7703 19.9632 35.4246 20.1738C36.7035 20.5833 36.7035 20.9014 36.7035 21.0607C36.7035 21.4248 36.2999 21.8001 35.6177 21.8001C35.0435 21.8001 34.6002 21.5157 34.4351 21.3906L34.3442 21.3226L33.3267 22.0107L33.4401 22.1412C33.4743 22.1812 34.2591 23.0907 35.6181 23.0907C36.2715 23.0907 36.8741 22.8805 37.312 22.4994C37.7498 22.1187 38 21.5953 38 21.0495C38 20.4694 37.7439 19.9803 37.244 19.5996C36.9083 19.3435 36.465 19.1388 35.8112 18.9286C34.5318 18.5191 34.5318 18.2005 34.5318 18.0412C34.5318 17.6776 34.9355 17.3023 35.6177 17.3023C36.1919 17.3023 36.6356 17.5867 36.8003 17.7118L36.8912 17.7798L37.9091 17.0917L37.7952 16.9612C37.761 16.9212 36.9762 16.0117 35.6177 16.0117C34.9638 16.0117 34.3613 16.2219 33.9234 16.6026C33.4856 16.9837 33.2358 17.5125 33.2358 18.0529C33.2413 18.633 33.4914 19.1217 33.9918 19.5028V19.5024Z" fill="#333333"/>
</svg>
