<svg width="36" height="8" viewBox="0 0 36 8" fill="none" xmlns="http://www.w3.org/2000/svg">
<path d="M19.5007 0.2502H20.763V7.0056L16.4992 3.0366V6.80085H15.237V0.0625507L19.5007 4.0374V0.2502ZM13.2412 3.537C13.2412 5.4873 11.655 7.074 9.70515 7.074C7.75485 7.074 6.1686 5.4873 6.1686 3.537C6.1686 1.5867 7.75485 0 9.70515 0C11.655 0 13.2412 1.5867 13.2412 3.537ZM11.9452 3.537C11.9452 2.286 10.9386 1.2681 9.6993 1.2681C8.46 1.2681 7.4592 2.286 7.4592 3.537C7.4592 4.788 8.4654 5.8059 9.6993 5.8059C10.9386 5.8059 11.9448 4.788 11.9448 3.537H11.9452ZM4.014 3.5937C3.6783 3.33765 3.23505 3.13335 2.5812 2.92275C1.30185 2.51325 1.30185 2.1951 1.30185 2.0358C1.30185 1.67175 1.7055 1.29645 2.3877 1.29645C2.9619 1.29645 3.4056 1.58085 3.5703 1.70595L3.6612 1.77435L4.6791 1.08585L4.56525 0.955351C4.5315 0.915302 3.7467 0 2.3823 0C1.728 0 1.1259 0.2106 0.688049 0.591301C0.2502 0.972449 0 1.4958 0 2.0412C0 2.6217 0.256049 3.1104 0.756 3.49155C1.0917 3.74715 1.53495 3.9519 2.1888 4.16205C3.46815 4.56615 3.46815 4.89015 3.46815 5.04945C3.46815 5.4135 3.0645 5.7888 2.3823 5.7888C1.8081 5.7888 1.3644 5.5044 1.1997 5.3793L1.1088 5.3109L0.0908986 5.9994L0.204751 6.1299C0.238951 6.1695 1.02375 7.0794 2.3823 7.0794C3.03615 7.0794 3.6387 6.86925 4.07655 6.4881C4.5144 6.10695 4.76415 5.5782 4.76415 5.0382C4.76415 4.46355 4.5144 3.9807 4.014 3.5937ZM22.77 3.56536C22.77 1.61506 24.3562 0.0283622 26.3066 0.0283622C28.2564 0.0283622 29.8426 1.61506 29.8426 3.56536C29.8426 5.51566 28.2564 7.10236 26.3066 7.10236C24.3562 7.10236 22.77 5.51566 22.77 3.56536ZM24.0606 3.56536C24.0606 4.81636 25.0668 5.83426 26.3007 5.83426C27.54 5.83426 28.5408 4.81636 28.5408 3.56536C28.5408 2.31436 27.5346 1.29601 26.3007 1.29601C25.0668 1.29601 24.0606 2.31391 24.0606 3.56491V3.56536ZM31.9918 3.50236C32.3271 3.75886 32.7703 3.96316 33.4246 4.17376C34.7035 4.58326 34.7035 4.90141 34.7035 5.06071C34.7035 5.42476 34.2999 5.80006 33.6177 5.80006C33.0435 5.80006 32.6002 5.51566 32.4351 5.39056L32.3442 5.32261L31.3267 6.01066L31.4401 6.14116C31.4743 6.18121 32.2591 7.09066 33.6181 7.09066C34.2715 7.09066 34.8741 6.88051 35.312 6.49936C35.7498 6.11866 36 5.59531 36 5.04946C36 4.46941 35.7439 3.98026 35.244 3.59956C34.9083 3.34351 34.465 3.13876 33.8112 2.92861C32.5318 2.51911 32.5318 2.20051 32.5318 2.04121C32.5318 1.67761 32.9355 1.30231 33.6177 1.30231C34.1919 1.30231 34.6356 1.58671 34.8003 1.71181L34.8912 1.77976L35.9091 1.09171L35.7952 0.961212C35.761 0.921162 34.9762 0.011713 33.6177 0.011713C32.9638 0.011713 32.3613 0.221861 31.9234 0.602562C31.4856 0.983713 31.2358 1.51246 31.2358 2.05291C31.2413 2.63296 31.4914 3.12166 31.9918 3.50281V3.50236Z" fill="#333333"/>
</svg>
