<svg width="38" height="7" viewBox="0 0 38 7" fill="none" xmlns="http://www.w3.org/2000/svg">
<path d="M13.5378 6.69021C12.1612 6.69021 10.8834 6.2774 10.0305 5.51183C9.38608 4.93344 9.07643 4.1478 9.07643 3.33919C9.07643 2.54043 9.39943 1.74937 10.0304 1.17403C10.8225 0.452108 12.221 0 13.5378 0C14.9949 0 16.1611 0.367028 17.0527 1.17602C17.687 1.75166 17.9937 2.53921 17.9937 3.33927C17.9937 4.11476 17.6682 4.94061 17.0527 5.51183C16.2225 6.28236 14.9178 6.69021 13.5378 6.69021V5.80782C14.2684 5.80782 14.9461 5.55555 15.4195 5.0846C15.8895 4.61685 16.1085 4.04189 16.1085 3.33919C16.1085 2.66603 15.8722 2.03666 15.4195 1.59028C14.9525 1.13031 14.2585 0.871482 13.5378 0.871482C12.8148 0.871482 12.1204 1.12764 11.653 1.59028C11.2027 2.03651 10.9658 2.66771 10.9658 3.33919C10.9658 4.00862 11.2054 4.63943 11.653 5.08468C12.1208 5.54998 12.8127 5.8079 13.5378 5.8079V6.69029V6.69021ZM3.47662 0.00320482C2.74027 0.00320482 1.90374 0.140936 1.19296 0.458365C0.53696 0.751072 1.5547e-07 1.22447 1.5547e-07 2.00927C-0.000305065 2.71608 0.448904 3.13004 0.436695 3.11859C0.627763 3.29448 0.93535 3.59398 1.73953 3.76986C2.09893 3.84845 2.86732 3.96917 3.63251 4.04914C4.39205 4.12926 5.13954 4.20541 5.444 4.28248C5.68588 4.34406 6.09221 4.42792 6.09221 4.88376C6.09221 5.33778 5.66414 5.47635 5.58974 5.50641C5.51542 5.53579 5.00188 5.77142 4.07874 5.77142C3.39718 5.77142 2.57782 5.56647 2.27916 5.45964C1.93487 5.33709 1.57372 5.17502 1.23683 4.76351C1.15305 4.66149 1.02089 4.38091 1.02089 4.10308H0.185422V6.44413H1.11406V6.12784C1.11406 6.09183 1.15908 5.94372 1.31497 6.01415C1.50894 6.10228 2.07833 6.32898 2.67366 6.45329C3.16178 6.55538 3.47654 6.62856 4.0834 6.62856C5.07353 6.62856 5.60546 6.46725 5.97317 6.36225C6.3196 6.26306 6.74767 6.08496 7.09539 5.80767C7.28371 5.65773 7.69668 5.27338 7.69668 4.57572C7.69668 3.90606 7.33728 3.49043 7.21084 3.36399C7.03862 3.19169 6.82825 3.05816 6.60902 2.95522C6.41803 2.86534 6.11663 2.75737 5.87001 2.69701C5.39135 2.5795 4.30903 2.43452 3.79145 2.38034C3.24869 2.32365 2.30716 2.24566 1.93113 2.1293C1.81713 2.09397 1.58471 1.98325 1.58471 1.71343C1.58471 1.52153 1.691 1.35884 1.90107 1.22737C2.23452 1.01845 2.90807 0.888574 3.61015 0.888574C4.4402 0.885522 5.14312 1.07529 5.59027 1.27521C5.74235 1.34312 5.92029 1.44064 6.06161 1.55602C6.22109 1.68604 6.44497 1.95624 6.52593 2.33311H7.27601V0.295301H6.43848V0.532153C6.43848 0.60861 6.35951 0.70796 6.21018 0.625855C5.83537 0.429217 4.77564 0.00495984 3.47647 0.00320482M21.8306 0.373514L25.9162 4.06058L25.8742 1.57814C25.8701 1.25263 25.8101 1.11673 25.458 1.11673H24.6898V0.374124H28.1831V1.11673H27.4338C27.0747 1.11673 27.052 1.23157 27.0477 1.57814L27.111 6.32151H25.9147L21.209 2.12167L21.21 5.1023C21.2141 5.42629 21.2293 5.5789 21.5631 5.5789H22.4021V6.3212H18.9714V5.57898H19.7734C20.0729 5.57898 20.061 5.29337 20.061 5.08544V1.60638C20.061 1.38181 20.0295 1.11726 19.5592 1.11726H18.9084V0.373514H21.8306ZM32.1749 5.57753C32.2077 5.57753 32.3534 5.57333 32.3816 5.56471C32.4623 5.53953 32.517 5.482 32.5423 5.42202C32.553 5.39684 32.5584 5.28543 32.5584 5.26125L32.559 4.08767C32.559 4.05944 32.5569 4.04723 32.509 3.98435C32.4563 3.91568 30.369 1.55022 30.2735 1.44606C30.1548 1.31672 29.9465 1.1168 29.63 1.1168H28.9041V0.373896H33.0007V1.11589H32.5069C32.3926 1.11589 32.3167 1.22424 32.4143 1.34465C32.4143 1.34465 33.7926 2.99338 33.8057 3.01062C33.8185 3.02817 33.8295 3.03237 33.847 3.01635C33.8643 2.99994 35.2599 1.35976 35.2709 1.34679C35.3373 1.26728 35.2922 1.11673 35.1492 1.11673H34.6426V0.373896H38V1.11673H37.2499C36.9778 1.11673 36.8671 1.16709 36.6624 1.39852C36.5687 1.50443 34.4591 3.9124 34.4017 3.97764C34.3717 4.01175 34.3743 4.05929 34.3743 4.08752V5.26094C34.3743 5.28475 34.3796 5.39631 34.3903 5.42133C34.4157 5.48161 34.4707 5.53915 34.5513 5.56402C34.5795 5.57272 34.7233 5.577 34.756 5.577H35.5233V6.31975H31.4478V5.57692L32.175 5.57753H32.1749Z" fill="#333333"/>
</svg>
