<svg width="40" height="40" viewBox="0 0 40 40" fill="none" xmlns="http://www.w3.org/2000/svg">
<path d="M14.5378 23.6902C13.1612 23.6902 11.8834 23.2774 11.0305 22.5118C10.3861 21.9334 10.0764 21.1478 10.0764 20.3392C10.0764 19.5404 10.3994 18.7494 11.0304 18.174C11.8225 17.4521 13.221 17 14.5378 17C15.9949 17 17.1611 17.367 18.0527 18.176C18.687 18.7517 18.9937 19.5392 18.9937 20.3393C18.9937 21.1148 18.6682 21.9406 18.0527 22.5118C17.2225 23.2824 15.9178 23.6902 14.5378 23.6902V22.8078C15.2684 22.8078 15.9461 22.5556 16.4195 22.0846C16.8895 21.6168 17.1085 21.0419 17.1085 20.3392C17.1085 19.666 16.8722 19.0367 16.4195 18.5903C15.9525 18.1303 15.2585 17.8715 14.5378 17.8715C13.8148 17.8715 13.1204 18.1276 12.653 18.5903C12.2027 19.0365 11.9658 19.6677 11.9658 20.3392C11.9658 21.0086 12.2054 21.6394 12.653 22.0847C13.1208 22.55 13.8127 22.8079 14.5378 22.8079V23.6903V23.6902ZM4.47662 17.0032C3.74027 17.0032 2.90374 17.1409 2.19296 17.4584C1.53696 17.7511 1 18.2245 1 19.0093C0.999695 19.7161 1.4489 20.13 1.43669 20.1186C1.62776 20.2945 1.93535 20.594 2.73953 20.7699C3.09893 20.8485 3.86732 20.9692 4.63251 21.0491C5.39205 21.1293 6.13954 21.2054 6.444 21.2825C6.68588 21.3441 7.09221 21.4279 7.09221 21.8838C7.09221 22.3378 6.66414 22.4763 6.58974 22.5064C6.51542 22.5358 6.00188 22.7714 5.07874 22.7714C4.39718 22.7714 3.57782 22.5665 3.27916 22.4596C2.93487 22.3371 2.57372 22.175 2.23683 21.7635C2.15305 21.6615 2.02089 21.3809 2.02089 21.1031H1.18542V23.4441H2.11406V23.1278C2.11406 23.0918 2.15908 22.9437 2.31497 23.0141C2.50894 23.1023 3.07833 23.329 3.67366 23.4533C4.16178 23.5554 4.47654 23.6286 5.0834 23.6286C6.07353 23.6286 6.60546 23.4672 6.97317 23.3623C7.3196 23.2631 7.74767 23.085 8.09539 22.8077C8.28371 22.6577 8.69668 22.2734 8.69668 21.5757C8.69668 20.9061 8.33728 20.4904 8.21084 20.364C8.03862 20.1917 7.82825 20.0582 7.60902 19.9552C7.41803 19.8653 7.11663 19.7574 6.87001 19.697C6.39135 19.5795 5.30903 19.4345 4.79145 19.3803C4.24869 19.3236 3.30716 19.2457 2.93113 19.1293C2.81713 19.094 2.58471 18.9832 2.58471 18.7134C2.58471 18.5215 2.691 18.3588 2.90107 18.2274C3.23452 18.0184 3.90807 17.8886 4.61015 17.8886C5.4402 17.8855 6.14312 18.0753 6.59027 18.2752C6.74235 18.3431 6.92029 18.4406 7.06161 18.556C7.22109 18.686 7.44497 18.9562 7.52593 19.3331H8.27601V17.2953H7.43848V17.5322C7.43848 17.6086 7.35951 17.708 7.21018 17.6259C6.83537 17.4292 5.77564 17.005 4.47647 17.0032M22.8306 17.3735L26.9162 21.0606L26.8742 18.5781C26.8701 18.2526 26.8101 18.1167 26.458 18.1167H25.6898V17.3741H29.1831V18.1167H28.4338C28.0747 18.1167 28.052 18.2316 28.0477 18.5781L28.111 23.3215H26.9147L22.209 19.1217L22.21 22.1023C22.2141 22.4263 22.2293 22.5789 22.5631 22.5789H23.4021V23.3212H19.9714V22.579H20.7734C21.0729 22.579 21.061 22.2934 21.061 22.0854V18.6064C21.061 18.3818 21.0295 18.1173 20.5592 18.1173H19.9084V17.3735H22.8306ZM33.1749 22.5775C33.2077 22.5775 33.3534 22.5733 33.3816 22.5647C33.4623 22.5395 33.517 22.482 33.5423 22.422C33.553 22.3968 33.5584 22.2854 33.5584 22.2612L33.559 21.0877C33.559 21.0594 33.5569 21.0472 33.509 20.9844C33.4563 20.9157 31.369 18.5502 31.2735 18.4461C31.1548 18.3167 30.9465 18.1168 30.63 18.1168H29.9041V17.3739H34.0007V18.1159H33.5069C33.3926 18.1159 33.3167 18.2242 33.4143 18.3447C33.4143 18.3447 34.7926 19.9934 34.8057 20.0106C34.8185 20.0282 34.8295 20.0324 34.847 20.0163C34.8643 19.9999 36.2599 18.3598 36.2709 18.3468C36.3373 18.2673 36.2922 18.1167 36.1492 18.1167H35.6426V17.3739H39V18.1167H38.2499C37.9778 18.1167 37.8671 18.1671 37.6624 18.3985C37.5687 18.5044 35.4591 20.9124 35.4017 20.9776C35.3717 21.0117 35.3743 21.0593 35.3743 21.0875V22.2609C35.3743 22.2847 35.3796 22.3963 35.3903 22.4213C35.4157 22.4816 35.4707 22.5391 35.5513 22.564C35.5795 22.5727 35.7233 22.577 35.756 22.577H36.5233V23.3198H32.4478V22.5769L33.175 22.5775H33.1749Z" fill="#333333"/>
</svg>
