<svg width="16" height="16" viewBox="0 0 16 16" fill="none" xmlns="http://www.w3.org/2000/svg">
<path d="M7.91753 13.2849C6.39175 13.2849 4.85223 12.8313 4 12.1715L4.75601 10.4945C5.56701 11.0856 6.77663 11.498 7.93127 11.498C9.25086 11.498 9.78694 11.0581 9.78694 10.467C9.78694 8.66634 4.19244 9.90345 4.19244 6.32957C4.19244 4.69383 5.51203 3.33301 8.24742 3.33301C9.45705 3.33301 10.6942 3.62167 11.5876 4.18524L10.9003 5.87596C10.0069 5.36737 9.08591 5.11995 8.23368 5.11995C6.91409 5.11995 6.4055 5.6148 6.4055 6.21961C6.4055 7.9928 12 6.76943 12 10.3021C12 11.9103 10.6667 13.2849 7.91753 13.2849Z" fill="#333333"/>
</svg>
