<svg viewBox="0 0 512 544.4114" xmlns="http://www.w3.org/2000/svg"><path d="M382 134.41c-4 0-7 3-9 3-6 0-8-3-12-5-3-2-5-4-7-8-11-26-23-45-38-58s-37-19-62-19c-11 0-19 2-30 4-9 2-17 7-23 13-7 6-13 13-18 21-4 9-4 20-4 30 0 22 9 41 26 54 17 14 40 27 74 42 41 17 71 36 90 60 19 21 30 49 30 79 0 19-2 36-9 53-4 17-12 32-25 43-11 13-26 21-43 30-17 6-38 10-64 10-25 0-49-2-70-8-22-7-39-15-54-24-2-19-2-38-6-55-2-19-6-36-9-56 0-2 3-2 7-2s8 2 11 5c2 2 4 6 6 12 11 35 23 58 40 75 18 15 41 24 71 24 13 0 25-3 36-7s19-11 26-17c6-6 13-15 15-26 4-8 4-19 4-29 0-24-9-43-24-58-14-15-36-26-64-38-19-7-34-15-49-24-15-8-27-17-38-28-6-12-15-23-21-38-5-15-9-32-9-51 0-17 2-34 9-49 6-15 15-28 25-39 11-10 24-19 39-25 15-7 32-11 51-11s38 2 57 6c20 5 39 11 62 22 0 15 2 30 5 45 0 15 2 29 4 44z"/></svg>