<svg width="68" height="49" viewBox="0 0 68 49" fill="none" xmlns="http://www.w3.org/2000/svg">
<path d="M31.9666 31.4732V29L28.2742 29.4632V32.0161L29.0057 31.926V32.4694L29.5282 32.4137V32.7911L30.608 32.6575V32.2047L31.1306 32.149V31.5777L31.9666 31.4732Z" stroke="#ACAEB0" stroke-width="0.4" stroke-linecap="round" stroke-linejoin="round"/>
<path d="M27.5779 32.0298V29.5566L23.8855 30.0198V32.5728L24.617 32.4827V33.0261L25.1395 32.9703V33.3478L26.2194 33.2142V32.7613L26.7419 32.7056V32.1343L27.5779 32.0298Z" stroke="#ACAEB0" stroke-width="0.4" stroke-linecap="round" stroke-linejoin="round"/>
<path d="M36.3555 30.9849V28.5117L32.6631 28.9749V31.5279L33.3946 31.4377V31.9811L33.9171 31.9254V32.3029L34.997 32.1692V31.7164L35.5195 31.6607V31.0894L36.3555 30.9849Z" stroke="#ACAEB0" stroke-width="0.4" stroke-linecap="round" stroke-linejoin="round"/>
<path d="M23.1887 32.5869V30.1138L19.4964 30.5769V33.1299L20.2279 33.0398V33.5832L20.7504 33.5275V33.9049L21.8302 33.7713V33.3185L22.3527 33.2627V32.6915L23.1887 32.5869Z" stroke="#ACAEB0" stroke-width="0.4" stroke-linecap="round" stroke-linejoin="round"/>
<path d="M19.4963 27.6336V30.1138L23.1887 29.6713V27.0936L22.4572 27.1878V26.6444L21.9347 26.7001V26.3517L20.8548 26.4861V26.9091L20.3323 26.9648V27.5361L19.4963 27.6336Z" stroke="#ACAEB0" stroke-width="0.4" stroke-linecap="round" stroke-linejoin="round"/>
<path d="M23.8855 27.0863V29.5664L27.5778 29.1239V26.5462L26.8463 26.6404V26.097L26.3238 26.1527V25.8044L25.244 25.9387V26.3617L24.7215 26.4175V26.9887L23.8855 27.0863Z" stroke="#ACAEB0" stroke-width="0.4" stroke-linecap="round" stroke-linejoin="round"/>
<path d="M32.5935 25.9022V28.3823L36.2858 27.9398V25.3621L35.5543 25.4563V24.9129L35.0318 24.9686V24.6203L33.952 24.7546V25.1776L33.4295 25.2334V25.8046L32.5935 25.9022Z" stroke="#ACAEB0" stroke-width="0.4" stroke-linecap="round" stroke-linejoin="round"/>
<path d="M18.8 34.7469V26.143L36.9482 23.7847V32.3085L18.8 34.7469Z" stroke="#ACAEB0" stroke-width="0.4" stroke-linecap="round" stroke-linejoin="round"/>
<path d="M28.2747 26.5291V29.0093L31.967 28.5668V25.9891L31.2355 26.0833V25.5399L30.713 25.5956V25.2473L29.6332 25.3816V25.8046L29.1107 25.8603V26.4316L28.2747 26.5291Z" stroke="#ACAEB0" stroke-width="0.4" stroke-linecap="round" stroke-linejoin="round"/>
<path d="M50.9509 29.0342V26.561L47.2586 27.0242V29.5772L47.9901 29.4871V30.0305L48.5126 29.9747V30.3522L49.5924 30.2186V29.7657L50.1149 29.71V29.1387L50.9509 29.0342Z" stroke="#ACAEB0" stroke-width="0.4" stroke-linecap="round" stroke-linejoin="round"/>
<path d="M46.5618 29.5909V27.1177L42.8694 27.5809V30.1338L43.6009 30.0437V30.5871L44.1234 30.5314V30.9088L45.2033 30.7752V30.3224L45.7258 30.2666V29.6954L46.5618 29.5909Z" stroke="#ACAEB0" stroke-width="0.4" stroke-linecap="round" stroke-linejoin="round"/>
<path d="M55.3401 28.5459V26.0728L51.6477 26.5359V29.0889L52.3792 28.9988V29.5422L52.9017 29.4864V29.8639L53.9816 29.7303V29.2774L54.5041 29.2217V28.6504L55.3401 28.5459Z" stroke="#ACAEB0" stroke-width="0.4" stroke-linecap="round" stroke-linejoin="round"/>
<path d="M52.9016 29.487L52.3825 29.2432" stroke="#ACAEB0" stroke-width="0.4" stroke-linecap="round" stroke-linejoin="round"/>
<path d="M42.1726 30.148V27.6748L38.4803 28.138V30.691L39.2118 30.6008V31.1442L39.7343 31.0885V31.466L40.8141 31.3323V30.8795L41.3366 30.8238V30.2525L42.1726 30.148Z" stroke="#ACAEB0" stroke-width="0.4" stroke-linecap="round" stroke-linejoin="round"/>
<path d="M38.4802 25.1947V27.6748L42.1726 27.2323V24.6546L41.4411 24.7488V24.2054L40.9186 24.2611V23.9128L39.8387 24.0471V24.4701L39.3162 24.5259V25.0971L38.4802 25.1947Z" stroke="#ACAEB0" stroke-width="0.4" stroke-linecap="round" stroke-linejoin="round"/>
<path d="M42.8694 24.6478V27.1279L46.5617 26.6854V24.1078L45.8302 24.2019V23.6585L45.3077 23.7142V23.3659L44.2279 23.5002V23.9232L43.7054 23.979V24.5502L42.8694 24.6478Z" stroke="#ACAEB0" stroke-width="0.4" stroke-linecap="round" stroke-linejoin="round"/>
<path d="M51.5779 23.4632V25.9434L55.2702 25.5009V22.9232L54.5387 23.0173V22.4739L54.0162 22.5297V22.1813L52.9364 22.3157V22.7387L52.4139 22.7944V23.3657L51.5779 23.4632Z" stroke="#ACAEB0" stroke-width="0.4" stroke-linecap="round" stroke-linejoin="round"/>
<path d="M37.7839 32.3079V23.704L55.9321 21.3457V29.8696L37.7839 32.3079Z" stroke="#ACAEB0" stroke-width="0.4" stroke-linecap="round" stroke-linejoin="round"/>
<path d="M47.259 24.0902V26.5703L50.9514 26.1278V23.5501L50.2199 23.6443V23.1009L49.6974 23.1566V22.8083L48.6175 22.9426V23.3656L48.095 23.4214V23.9926L47.259 24.0902Z" stroke="#ACAEB0" stroke-width="0.4" stroke-linecap="round" stroke-linejoin="round"/>
<path d="M17.1626 36.4881C16.8839 36.523 16.6122 36.509 16.5008 36.4533L2.46523 28.9782C1.56337 28.4978 0.99989 27.5593 0.99989 26.5375V16.8786C0.99989 16.6798 1.15047 16.5134 1.34822 16.4937V16.4937" stroke="#333333" stroke-linecap="round" stroke-linejoin="round"/>
<path d="M66.8701 18.3081V18.3081C67.204 18.2694 67.4971 18.5304 67.4971 18.8666V28.2685C67.4971 29.165 66.8329 29.9228 65.9442 30.0404L18.4149 36.3282C17.2166 36.4867 16.1526 35.5542 16.1526 34.3454V25.4214C16.1526 25.1427 16.2571 24.8989 16.4313 24.8292" stroke="#333333" stroke-linecap="round" stroke-linejoin="round"/>
<path d="M13.7839 29.4169V33.8059L13.5053 33.6569V27.3241C13.6788 27.9405 13.7839 28.6361 13.7839 29.4169Z" fill="#C4C4C4"/>
<path d="M6.25992 23.2127V29.7805L5.98125 29.6314V23.0394L6.25992 23.2127Z" fill="#C4C4C4"/>
<path d="M6.60825 21.2772V29.9668L6.88692 30.1159V21.4239C6.79453 21.3752 6.70159 21.3263 6.60825 21.2772Z" fill="#C4C4C4"/>
<path d="M7.23525 21.6073V30.3023L7.51392 30.4514V21.7542C7.42194 21.7057 7.32899 21.6567 7.23525 21.6073Z" fill="#C4C4C4"/>
<path d="M7.86225 21.9378V30.6378L8.14092 30.7868V22.0849C8.04948 22.0366 7.95652 21.9875 7.86225 21.9378Z" fill="#C4C4C4"/>
<path d="M8.48925 30.9732L8.76792 31.1223V22.4163C8.67731 22.3684 8.58434 22.3192 8.48925 22.2689V30.9732Z" fill="#C4C4C4"/>
<path d="M9.11626 31.3087L9.39492 31.4578V22.7492C9.3059 22.7018 9.21287 22.6523 9.11626 22.601V31.3087Z" fill="#C4C4C4"/>
<path d="M9.74326 31.6441L10.0219 31.7932V23.0853C9.93742 23.0396 9.84423 22.9894 9.74326 22.9353V31.6441Z" fill="#C4C4C4"/>
<path d="M10.3703 23.276C10.4302 23.3096 10.4771 23.3364 10.5096 23.3559C10.55 23.3801 10.5967 23.4089 10.6489 23.4425V32.1287L10.3703 31.9796V23.276Z" fill="#C4C4C4"/>
<path d="M11.2759 23.9028C11.1782 23.8218 11.0847 23.7489 10.9973 23.6839V32.315L11.2759 32.4641V23.9028Z" fill="#C4C4C4"/>
<path d="M11.9029 24.4916C11.809 24.3919 11.7158 24.2987 11.6243 24.2118V32.6505L11.9029 32.7996V24.4916Z" fill="#C4C4C4"/>
<path d="M12.5299 25.2618C12.4386 25.1313 12.3453 25.0079 12.2513 24.8912V32.9859L12.5299 33.135V25.2618Z" fill="#C4C4C4"/>
<path d="M13.1569 26.3644C13.0698 26.171 12.9764 25.9876 12.8783 25.814V33.3214L13.1569 33.4705V26.3644Z" fill="#C4C4C4"/>
<path d="M2.49791 20.8726V27.7678L2.21924 27.6187V20.6992L2.49791 20.8726Z" fill="#C4C4C4"/>
<path d="M3.12491 21.2626V28.1032L2.84624 27.9541V21.0892L3.12491 21.2626Z" fill="#C4C4C4"/>
<path d="M3.75191 21.6526V28.4387L3.47324 28.2896V21.4793L3.75191 21.6526Z" fill="#C4C4C4"/>
<path d="M4.37891 22.0426V28.7741L4.10024 28.625V21.8693L4.37891 22.0426Z" fill="#C4C4C4"/>
<path d="M5.00591 22.4327V29.1096L4.72725 28.9605V22.2593L5.00591 22.4327Z" fill="#C4C4C4"/>
<path d="M5.63291 22.8227V29.445L5.35425 29.2959V22.6493L5.63291 22.8227Z" fill="#C4C4C4"/>
<path d="M15.1074 25.54V25.4454C15.1074 25.3042 15.0328 25.1736 14.9112 25.1018C14.7516 25.0076 14.5501 25.1227 14.5501 25.308V25.4063C14.5501 25.5398 14.6158 25.6648 14.7258 25.7406C14.8874 25.8518 15.1074 25.7362 15.1074 25.54Z" stroke="#333333" stroke-width="0.5"/>
<path d="M15.1074 34.2099V34.1389C15.1074 33.9771 15.0198 33.828 14.8785 33.7492C14.7 33.6497 14.4804 33.7788 14.4804 33.983V34.0578C14.4804 34.2113 14.5581 34.3545 14.6868 34.4382C14.8679 34.5559 15.1074 34.426 15.1074 34.2099Z" stroke="#333333" stroke-width="0.5"/>
<path d="M1.87085 18.948V18.8422C1.87085 18.7392 1.81834 18.6433 1.73157 18.5879C1.61099 18.5108 1.45285 18.5974 1.45285 18.7405V18.8495C1.45285 18.9464 1.49863 19.0377 1.57636 19.0957C1.69792 19.1863 1.87085 19.0996 1.87085 18.948Z" stroke="#333333" stroke-width="0.5"/>
<path d="M1.87085 26.0735V26.0025C1.87085 25.8966 1.81488 25.7986 1.72368 25.7448C1.60398 25.6742 1.45285 25.7604 1.45285 25.8994V25.9732C1.45285 26.0733 1.50212 26.1671 1.58463 26.2239C1.7058 26.3073 1.87085 26.2206 1.87085 26.0735Z" stroke="#333333" stroke-width="0.5"/>
<path d="M61.157 22.2093V24.6895L64.8493 24.247V21.6693L64.1178 21.7634V21.22L63.5953 21.2758V20.9274L62.5155 21.0617V21.4848L61.993 21.5405V22.1118L61.157 22.2093Z" stroke="#ACAEB0" stroke-width="0.4" stroke-linecap="round" stroke-linejoin="round"/>
<path d="M64.8499 27.2329V24.7598L61.1575 25.2229V27.7759L61.889 27.6858V28.2292L62.4115 28.1735V28.5509L63.4913 28.4173V27.9644L64.0139 27.9087V27.3374L64.8499 27.2329Z" stroke="#ACAEB0" stroke-width="0.4" stroke-linecap="round" stroke-linejoin="round"/>
<path d="M65.4768 28.6578V20.1963L60.5827 20.8059V29.2878L65.4768 28.6578Z" stroke="#ACAEB0" stroke-width="0.4"/>
<path d="M31.9666 43.2198V40.7466L28.2742 41.2098V43.7627L29.0057 43.6726V44.216L29.5282 44.1603V44.5377L30.608 44.4041V43.9513L31.1306 43.8955V43.3243L31.9666 43.2198Z" stroke="#ACAEB0" stroke-width="0.4" stroke-linecap="round" stroke-linejoin="round"/>
<path d="M27.5779 43.7779V41.3047L23.8855 41.7679V44.3208L24.617 44.2307V44.7741L25.1395 44.7184V45.0958L26.2194 44.9622V44.5094L26.7419 44.4536V43.8824L27.5779 43.7779Z" stroke="#ACAEB0" stroke-width="0.4" stroke-linecap="round" stroke-linejoin="round"/>
<path d="M36.3555 42.7329V40.2598L32.6631 40.7229V43.2759L33.3946 43.1858V43.7292L33.9171 43.6735V44.0509L34.997 43.9173V43.4644L35.5195 43.4087V42.8374L36.3555 42.7329Z" stroke="#ACAEB0" stroke-width="0.4" stroke-linecap="round" stroke-linejoin="round"/>
<path d="M23.1887 44.335V41.8618L19.4964 42.325V44.878L20.2279 44.7878V45.3312L20.7504 45.2755V45.653L21.8302 45.5193V45.0665L22.3527 45.0108V44.4395L23.1887 44.335Z" stroke="#ACAEB0" stroke-width="0.4" stroke-linecap="round" stroke-linejoin="round"/>
<path d="M19.4963 39.3817V41.8618L23.1887 41.4193V38.8416L22.4572 38.9358V38.3924L21.9347 38.4481V38.0998L20.8548 38.2341V38.6571L20.3323 38.7129V39.2841L19.4963 39.3817Z" stroke="#ACAEB0" stroke-width="0.4" stroke-linecap="round" stroke-linejoin="round"/>
<path d="M23.8855 38.8348V41.3149L27.5778 40.8724V38.2948L26.8463 38.3889V37.8455L26.3238 37.9013V37.5529L25.244 37.6872V38.1103L24.7215 38.166V38.7373L23.8855 38.8348Z" stroke="#ACAEB0" stroke-width="0.4" stroke-linecap="round" stroke-linejoin="round"/>
<path d="M32.5938 37.6502V40.1304L36.2861 39.6879V37.1102L35.5546 37.2044V36.661L35.0321 36.7167V36.3684L33.9523 36.5027V36.9257L33.4298 36.9814V37.5527L32.5938 37.6502Z" stroke="#ACAEB0" stroke-width="0.4" stroke-linecap="round" stroke-linejoin="round"/>
<path d="M18.8 46.4949V37.8911L36.9482 35.5327V44.0566L18.8 46.4949Z" stroke="#ACAEB0" stroke-width="0.4" stroke-linecap="round" stroke-linejoin="round"/>
<path d="M28.2747 38.2772V40.7573L31.967 40.3148V37.7371L31.2355 37.8313V37.2879L30.713 37.3436V36.9953L29.6332 37.1296V37.5526L29.1107 37.6084V38.1796L28.2747 38.2772Z" stroke="#ACAEB0" stroke-width="0.4" stroke-linecap="round" stroke-linejoin="round"/>
<path d="M50.9514 40.7818V38.3086L47.2591 38.7718V41.3247L47.9906 41.2346V41.778L48.5131 41.7223V42.0997L49.5929 41.9661V41.5133L50.1154 41.4575V40.8863L50.9514 40.7818Z" stroke="#ACAEB0" stroke-width="0.4" stroke-linecap="round" stroke-linejoin="round"/>
<path d="M46.5625 41.3389V38.8657L42.8702 39.3289V41.8819L43.6017 41.7917V42.3351L44.1242 42.2794V42.6569L45.204 42.5232V42.0704L45.7265 42.0147V41.4434L46.5625 41.3389Z" stroke="#ACAEB0" stroke-width="0.4" stroke-linecap="round" stroke-linejoin="round"/>
<path d="M55.3406 40.294V37.8208L51.6482 38.284V40.8369L52.3797 40.7468V41.2902L52.9022 41.2345V41.6119L53.9821 41.4783V41.0255L54.5046 40.9698V40.3985L55.3406 40.294Z" stroke="#ACAEB0" stroke-width="0.4" stroke-linecap="round" stroke-linejoin="round"/>
<path d="M42.1738 41.896V39.4229L38.4815 39.886V42.439L39.213 42.3489V42.8923L39.7355 42.8365V43.214L40.8153 43.0804V42.6275L41.3378 42.5718V42.0005L42.1738 41.896Z" stroke="#ACAEB0" stroke-width="0.4" stroke-linecap="round" stroke-linejoin="round"/>
<path d="M38.481 36.9427V39.4229L42.1733 38.9804V36.4027L41.4418 36.4968V35.9534L40.9193 36.0092V35.6608L39.8395 35.7951V36.2182L39.317 36.2739V36.8452L38.481 36.9427Z" stroke="#ACAEB0" stroke-width="0.4" stroke-linecap="round" stroke-linejoin="round"/>
<path d="M42.8701 36.3963V38.8765L46.5625 38.434V35.8563L45.831 35.9504V35.407L45.3085 35.4628V35.1144L44.2286 35.2488V35.6718L43.7061 35.7275V36.2988L42.8701 36.3963Z" stroke="#ACAEB0" stroke-width="0.4" stroke-linecap="round" stroke-linejoin="round"/>
<path d="M51.5786 35.2117V37.6919L55.271 37.2494V34.6717L54.5395 34.7659V34.2225L54.017 34.2782V33.9299L52.9371 34.0642V34.4872L52.4146 34.5429V35.1142L51.5786 35.2117Z" stroke="#ACAEB0" stroke-width="0.4" stroke-linecap="round" stroke-linejoin="round"/>
<path d="M37.7846 44.056V35.4521L55.9329 33.0938V41.6176L37.7846 44.056Z" stroke="#ACAEB0" stroke-width="0.4" stroke-linecap="round" stroke-linejoin="round"/>
<path d="M47.259 35.8382V38.3184L50.9514 37.8759V35.2982L50.2199 35.3923V34.8489L49.6974 34.9047V34.5563L48.6175 34.6907V35.1137L48.095 35.1694V35.7407L47.259 35.8382Z" stroke="#ACAEB0" stroke-width="0.4" stroke-linecap="round" stroke-linejoin="round"/>
<path d="M17.1626 48.2367C16.8839 48.2715 16.6122 48.2576 16.5008 48.2018L2.46523 40.7267C1.56337 40.2464 0.99989 39.3079 0.99989 38.2861V28.6271C0.99989 28.4284 1.15047 28.262 1.34822 28.2422V28.2422" stroke="#333333" stroke-linecap="round" stroke-linejoin="round"/>
<path d="M66.8701 30.0566V30.0566C67.204 30.0179 67.4971 30.2789 67.4971 30.6151V40.017C67.4971 40.9135 66.8329 41.6713 65.9442 41.7889L18.4149 48.0767C17.2166 48.2352 16.1526 47.3027 16.1526 46.094V37.17C16.1526 36.8913 16.2571 36.6474 16.4313 36.5778" stroke="#333333" stroke-linecap="round" stroke-linejoin="round"/>
<path d="M13.7839 41.1659V45.555L13.5053 45.4059V39.0731C13.6788 39.6895 13.7839 40.3851 13.7839 41.1659Z" fill="#C4C4C4"/>
<path d="M6.25992 34.9617V41.5295L5.98125 41.3804V34.7884L6.25992 34.9617Z" fill="#C4C4C4"/>
<path d="M6.60825 33.0262V41.7159L6.88692 41.865V33.1729C6.79453 33.1243 6.70159 33.0753 6.60825 33.0262Z" fill="#C4C4C4"/>
<path d="M7.23525 33.3564V42.0513L7.51392 42.2004V33.5032C7.42194 33.4547 7.32899 33.4057 7.23525 33.3564Z" fill="#C4C4C4"/>
<path d="M7.86225 33.6868V42.3868L8.14092 42.5359V33.8339C8.04948 33.7856 7.95652 33.7366 7.86225 33.6868Z" fill="#C4C4C4"/>
<path d="M8.48925 42.7222L8.76792 42.8713V34.1654C8.67731 34.1174 8.58434 34.0682 8.48925 34.0179V42.7222Z" fill="#C4C4C4"/>
<path d="M9.11626 43.0577L9.39492 43.2068V34.4982C9.3059 34.4508 9.21287 34.4013 9.11626 34.35V43.0577Z" fill="#C4C4C4"/>
<path d="M9.74326 43.3931L10.0219 43.5422V34.8343C9.93742 34.7886 9.84423 34.7384 9.74326 34.6843V43.3931Z" fill="#C4C4C4"/>
<path d="M10.3703 35.0251C10.4302 35.0586 10.4771 35.0854 10.5096 35.1049C10.55 35.1292 10.5967 35.158 10.6489 35.1915V43.8777L10.3703 43.7286V35.0251Z" fill="#C4C4C4"/>
<path d="M11.2759 35.6518C11.1782 35.5708 11.0847 35.4979 10.9973 35.4329V44.0641L11.2759 44.2131V35.6518Z" fill="#C4C4C4"/>
<path d="M11.9029 36.2407C11.809 36.1409 11.7158 36.0477 11.6243 35.9609V44.3995L11.9029 44.5486V36.2407Z" fill="#C4C4C4"/>
<path d="M12.5299 37.0108C12.4386 36.8803 12.3453 36.7569 12.2513 36.6403V44.735L12.5299 44.8841V37.0108Z" fill="#C4C4C4"/>
<path d="M13.1569 38.1135C13.0698 37.92 12.9764 37.7366 12.8783 37.5631V45.0704L13.1569 45.2195V38.1135Z" fill="#C4C4C4"/>
<path d="M2.49791 32.6216V39.5168L2.21924 39.3677V32.4482L2.49791 32.6216Z" fill="#C4C4C4"/>
<path d="M3.12491 33.0116V39.8522L2.84624 39.7031V32.8383L3.12491 33.0116Z" fill="#C4C4C4"/>
<path d="M3.75191 33.4016V40.1877L3.47324 40.0386V33.2283L3.75191 33.4016Z" fill="#C4C4C4"/>
<path d="M4.37891 33.7917V40.5231L4.10024 40.374V33.6183L4.37891 33.7917Z" fill="#C4C4C4"/>
<path d="M5.00591 34.1817V40.8586L4.72725 40.7095V34.0083L5.00591 34.1817Z" fill="#C4C4C4"/>
<path d="M5.63291 34.5717V41.194L5.35425 41.0449V34.3984L5.63291 34.5717Z" fill="#C4C4C4"/>
<path d="M15.1074 37.2885V37.194C15.1074 37.0528 15.0328 36.9221 14.9112 36.8503C14.7516 36.7561 14.5501 36.8712 14.5501 37.0565V37.1548C14.5501 37.2884 14.6158 37.4134 14.7258 37.4891C14.8874 37.6004 15.1074 37.4847 15.1074 37.2885Z" stroke="#333333" stroke-width="0.5"/>
<path d="M15.1074 45.9585V45.8875C15.1074 45.7257 15.0198 45.5765 14.8785 45.4977C14.7 45.3983 14.4804 45.5273 14.4804 45.7316V45.8063C14.4804 45.9599 14.5581 46.103 14.6868 46.1867C14.8679 46.3045 15.1074 46.1745 15.1074 45.9585Z" stroke="#333333" stroke-width="0.5"/>
<path d="M1.87085 30.6965V30.5908C1.87085 30.4878 1.81834 30.3919 1.73157 30.3364C1.61099 30.2593 1.45285 30.3459 1.45285 30.489V30.598C1.45285 30.695 1.49863 30.7862 1.57636 30.8442C1.69792 30.9349 1.87085 30.8481 1.87085 30.6965Z" stroke="#333333" stroke-width="0.5"/>
<path d="M1.87085 37.8225V37.7516C1.87085 37.6457 1.81488 37.5476 1.72368 37.4938C1.60398 37.4232 1.45285 37.5095 1.45285 37.6485V37.7222C1.45285 37.8224 1.50212 37.9161 1.58463 37.9729C1.7058 38.0563 1.87085 37.9696 1.87085 37.8225Z" stroke="#333333" stroke-width="0.5"/>
<path d="M61.157 33.9588V36.439L64.8493 35.9965V33.4188L64.1178 33.5129V32.9695L63.5953 33.0253V32.6769L62.5155 32.8113V33.2343L61.993 33.29V33.8613L61.157 33.9588Z" stroke="#ACAEB0" stroke-width="0.4" stroke-linecap="round" stroke-linejoin="round"/>
<path d="M64.8499 38.981V36.5078L61.1575 36.971V39.524L61.889 39.4338V39.9772L62.4115 39.9215V40.299L63.4913 40.1653V39.7125L64.0139 39.6568V39.0855L64.8499 38.981Z" stroke="#ACAEB0" stroke-width="0.4" stroke-linecap="round" stroke-linejoin="round"/>
<path d="M65.4768 40.4063V31.9448L60.5827 32.5544V41.0364L65.4768 40.4063Z" stroke="#ACAEB0" stroke-width="0.4"/>
<path d="M31.9666 19.7432V17.27L28.2742 17.6532V20.2657L29.0057 20.196V20.7394L29.5282 20.6837V21.032L30.608 20.9275V20.4747L31.1306 20.419V19.8477L31.9666 19.7432Z" stroke="#ACAEB0" stroke-width="0.4" stroke-linecap="round" stroke-linejoin="round"/>
<path d="M27.5774 20.2657V17.7925L23.885 18.1756V20.7882L24.6166 20.7185V21.2619L25.1391 21.2062V21.5545L26.2189 21.45V20.9972L26.7414 20.9414V20.3702L27.5774 20.2657Z" stroke="#ACAEB0" stroke-width="0.4" stroke-linecap="round" stroke-linejoin="round"/>
<path d="M25.1394 21.2057L24.6203 20.9619" stroke="#ACAEB0" stroke-width="0.4" stroke-linecap="round" stroke-linejoin="round"/>
<path d="M36.3557 19.2554V16.7822L32.6634 17.1654V19.7779L33.3949 19.7082V20.2516L33.9174 20.1959V20.5442L34.9972 20.4397V19.9869L35.5197 19.9312V19.3599L36.3557 19.2554Z" stroke="#ACAEB0" stroke-width="0.4" stroke-linecap="round" stroke-linejoin="round"/>
<path d="M23.189 20.8228V18.3496L19.4966 18.7328V21.3453L20.2281 21.2756V21.819L20.7506 21.7633V22.1116L21.8305 22.0071V21.5543L22.353 21.4986V20.9273L23.189 20.8228Z" stroke="#ACAEB0" stroke-width="0.4" stroke-linecap="round" stroke-linejoin="round"/>
<path d="M20.7502 21.7639L20.2311 21.52" stroke="#ACAEB0" stroke-width="0.4" stroke-linecap="round" stroke-linejoin="round"/>
<path d="M19.4963 15.8695V18.3496L23.1887 17.9664V15.3539L22.4572 15.4236V14.8802L21.9347 14.9359V14.5876L20.8548 14.6921V15.1449L20.3323 15.2007V15.7719L19.4963 15.8695Z" stroke="#ACAEB0" stroke-width="0.4" stroke-linecap="round" stroke-linejoin="round"/>
<path d="M23.885 15.3123V17.7925L27.5774 17.4093V14.7968L26.8459 14.8665V14.3231L26.3233 14.3788V14.0305L25.2435 14.135V14.5878L24.721 14.6435V15.2148L23.885 15.3123Z" stroke="#ACAEB0" stroke-width="0.4" stroke-linecap="round" stroke-linejoin="round"/>
<path d="M32.5935 14.3019V16.8169L36.2858 16.4337V13.8212L35.5543 13.8909V13.3475L35.0318 13.4032V13.0549L33.952 13.1594V13.6122L33.4295 13.6679V14.2392L32.5935 14.3019Z" stroke="#ACAEB0" stroke-width="0.4" stroke-linecap="round" stroke-linejoin="round"/>
<path d="M18.7995 22.9826V14.3788L36.9478 12.2539V20.5443L18.7995 22.9826Z" stroke="#ACAEB0" stroke-width="0.4" stroke-linecap="round" stroke-linejoin="round"/>
<path d="M28.2747 14.7897V17.3047L31.967 16.9215V14.309L31.2355 14.3787V13.8353L30.713 13.891V13.5427L29.6332 13.6472V14.1L29.1107 14.1557V14.727L28.2747 14.7897Z" stroke="#ACAEB0" stroke-width="0.4" stroke-linecap="round" stroke-linejoin="round"/>
<path d="M50.9509 17.4102V14.937L47.2586 15.3202V17.9327L47.9901 17.863V18.4064L48.5126 18.3507V18.699L49.5924 18.5945V18.1417L50.1149 18.086V17.5147L50.9509 17.4102Z" stroke="#ACAEB0" stroke-width="0.4" stroke-linecap="round" stroke-linejoin="round"/>
<path d="M48.5122 18.3503L47.9931 18.1064" stroke="#ACAEB0" stroke-width="0.4" stroke-linecap="round" stroke-linejoin="round"/>
<path d="M46.5613 17.9327V15.4595L42.8689 15.8426V18.4552L43.6004 18.3855V18.9289L44.1229 18.8732V19.2215L45.2028 19.117V18.6642L45.7253 18.6084V18.0372L46.5613 17.9327Z" stroke="#ACAEB0" stroke-width="0.4" stroke-linecap="round" stroke-linejoin="round"/>
<path d="M44.123 18.8727L43.6039 18.6289" stroke="#ACAEB0" stroke-width="0.4" stroke-linecap="round" stroke-linejoin="round"/>
<path d="M55.3049 16.9224V14.4492L51.6126 14.8324V17.4449L52.3441 17.3752V17.9186L52.8666 17.8629V18.2112L53.9464 18.1067V17.6539L54.4689 17.5982V17.0269L55.3049 16.9224Z" stroke="#ACAEB0" stroke-width="0.4" stroke-linecap="round" stroke-linejoin="round"/>
<path d="M42.1726 18.4893V16.0161L38.4803 16.3993V19.0118L39.2118 18.9421V19.4855L39.7343 19.4298V19.7781L40.8141 19.6736V19.2208L41.3366 19.1651V18.5938L42.1726 18.4893Z" stroke="#ACAEB0" stroke-width="0.4" stroke-linecap="round" stroke-linejoin="round"/>
<path d="M39.7346 19.4294L39.2155 19.1855" stroke="#ACAEB0" stroke-width="0.4" stroke-linecap="round" stroke-linejoin="round"/>
<path d="M38.4802 13.536V16.0161L42.1726 15.6329V13.0204L41.4411 13.0901V12.5467L40.9186 12.6024V12.2541L39.8387 12.3586V12.8114L39.3162 12.8672V13.4384L38.4802 13.536Z" stroke="#ACAEB0" stroke-width="0.4" stroke-linecap="round" stroke-linejoin="round"/>
<path d="M42.8694 12.9793V15.4595L46.5617 15.0763V12.4638L45.8302 12.5335V11.9901L45.3077 12.0458V11.6975L44.2279 11.802V12.2548L43.7054 12.3105V12.8818L42.8694 12.9793Z" stroke="#ACAEB0" stroke-width="0.4" stroke-linecap="round" stroke-linejoin="round"/>
<path d="M51.5779 11.9694V14.4844L55.2702 14.1012V11.4887L54.5387 11.5584V11.015L54.0162 11.0707V10.7224L52.9364 10.8269V11.2797L52.4139 11.3354V11.9067L51.5779 11.9694Z" stroke="#ACAEB0" stroke-width="0.4" stroke-linecap="round" stroke-linejoin="round"/>
<path d="M37.7839 20.5101V12.1849L55.9321 10.0601V18.0718L37.7839 20.5101Z" stroke="#ACAEB0" stroke-width="0.4" stroke-linecap="round" stroke-linejoin="round"/>
<path d="M47.2585 12.4567V14.9717L50.9509 14.5885V11.976L50.2194 12.0457V11.5023L49.6969 11.558V11.2097L48.617 11.3142V11.767L48.0945 11.8227V12.394L47.2585 12.4567Z" stroke="#ACAEB0" stroke-width="0.4" stroke-linecap="round" stroke-linejoin="round"/>
<path d="M66.9397 6.71568L56.2511 3.4407C49.6489 1.41782 42.71 0.730113 35.8392 1.41772L2.80087 4.72411C1.77853 4.82642 1.00002 5.68673 1.00002 6.71417V14.7724C1.00002 15.8809 1.61135 16.8991 2.5898 17.4203L16.5009 24.8291C16.6124 24.8848 16.8841 24.8988 17.1627 24.8639" stroke="#333333" stroke-linecap="round" stroke-linejoin="round"/>
<path d="M16.1526 22.7214V14.3493C16.1526 13.3338 16.9135 12.4796 17.9221 12.3626L65.2666 6.87009C66.4545 6.73228 67.4971 7.66087 67.4971 8.85676V15.5816C67.4971 17.0864 66.3823 18.3584 64.8905 18.5557L18.4149 24.7041C17.2166 24.8627 16.1526 23.9302 16.1526 22.7214Z" stroke="#333333" stroke-linecap="round" stroke-linejoin="round"/>
<path d="M16.2224 12.7067L1.3025 5.21191" stroke="#333333" stroke-linecap="round" stroke-linejoin="round"/>
<path d="M13.7839 17.7924V22.1814L13.5053 22.0323V15.6995C13.6788 16.3159 13.7839 17.0116 13.7839 17.7924Z" fill="#C4C4C4"/>
<path d="M6.25992 11.5882V18.156L5.98125 18.0069V11.4149L6.25992 11.5882Z" fill="#C4C4C4"/>
<path d="M6.60825 9.65265V18.3423L6.88692 18.4914V9.79937C6.79453 9.75072 6.70159 9.70178 6.60825 9.65265Z" fill="#C4C4C4"/>
<path d="M7.23525 9.98282V18.6778L7.51392 18.8269V10.1296C7.42194 10.0812 7.32899 10.0322 7.23525 9.98282Z" fill="#C4C4C4"/>
<path d="M7.86225 10.3133V19.0132L8.14092 19.1623V10.4604C8.04948 10.4121 7.95652 10.363 7.86225 10.3133Z" fill="#C4C4C4"/>
<path d="M8.48925 19.3487L8.76792 19.4978V10.7918C8.67731 10.7438 8.58434 10.6947 8.48925 10.6444V19.3487Z" fill="#C4C4C4"/>
<path d="M9.11626 19.6841L9.39492 19.8332V11.1247C9.3059 11.0773 9.21287 11.0278 9.11626 10.9765V19.6841Z" fill="#C4C4C4"/>
<path d="M9.74326 20.0196L10.0219 20.1687V11.4608C9.93742 11.415 9.84423 11.3649 9.74326 11.3108V20.0196Z" fill="#C4C4C4"/>
<path d="M10.3703 11.6515C10.4302 11.685 10.4771 11.7119 10.5096 11.7314C10.55 11.7556 10.5967 11.7844 10.6489 11.818V20.5042L10.3703 20.3551V11.6515Z" fill="#C4C4C4"/>
<path d="M11.2759 12.2783C11.1782 12.1973 11.0847 12.1244 10.9973 12.0594V20.6905L11.2759 20.8396V12.2783Z" fill="#C4C4C4"/>
<path d="M11.9029 12.8671C11.809 12.7674 11.7158 12.6742 11.6243 12.5873V21.026L11.9029 21.1751V12.8671Z" fill="#C4C4C4"/>
<path d="M12.5299 13.6373C12.4386 13.5068 12.3453 13.3833 12.2513 13.2667V21.3614L12.5299 21.5105V13.6373Z" fill="#C4C4C4"/>
<path d="M13.1569 14.7399C13.0698 14.5464 12.9764 14.3631 12.8783 14.1895V21.6969L13.1569 21.846V14.7399Z" fill="#C4C4C4"/>
<path d="M2.49791 9.24805V16.1432L2.21924 15.9941V9.07471L2.49791 9.24805Z" fill="#C4C4C4"/>
<path d="M3.12491 9.63808V16.4787L2.84624 16.3296V9.46473L3.12491 9.63808Z" fill="#C4C4C4"/>
<path d="M3.75191 10.0281V16.8141L3.47324 16.6651V9.85476L3.75191 10.0281Z" fill="#C4C4C4"/>
<path d="M4.37891 10.4181V17.1496L4.10024 17.0005V10.2448L4.37891 10.4181Z" fill="#C4C4C4"/>
<path d="M5.00591 10.8082V17.4851L4.72725 17.336V10.6348L5.00591 10.8082Z" fill="#C4C4C4"/>
<path d="M5.63291 11.1982V17.8205L5.35425 17.6714V11.0248L5.63291 11.1982Z" fill="#C4C4C4"/>
<path d="M15.1074 13.916V13.8214C15.1074 13.6802 15.0328 13.5495 14.9112 13.4778C14.7516 13.3836 14.5501 13.4986 14.5501 13.684V13.7823C14.5501 13.9158 14.6158 14.0408 14.7258 14.1166C14.8874 14.2278 15.1074 14.1121 15.1074 13.916Z" stroke="#333333" stroke-width="0.5"/>
<path d="M15.1074 22.5859V22.5149C15.1074 22.3531 15.0198 22.204 14.8785 22.1252C14.7 22.0257 14.4804 22.1547 14.4804 22.359V22.4338C14.4804 22.5873 14.5581 22.7304 14.6868 22.8141C14.8679 22.9319 15.1074 22.8019 15.1074 22.5859Z" stroke="#333333" stroke-width="0.5"/>
<path d="M1.87085 7.32393V7.21821C1.87085 7.11521 1.81834 7.01932 1.73157 6.96384C1.61099 6.88675 1.45285 6.97335 1.45285 7.11646V7.22544C1.45285 7.32241 1.49863 7.41368 1.57636 7.47166C1.69792 7.56232 1.87085 7.47557 1.87085 7.32393Z" stroke="#333333" stroke-width="0.5"/>
<path d="M1.87085 14.4494V14.3785C1.87085 14.2726 1.81488 14.1746 1.72368 14.1208C1.60398 14.0501 1.45285 14.1364 1.45285 14.2754V14.3491C1.45285 14.4493 1.50212 14.5431 1.58463 14.5999C1.7058 14.6833 1.87085 14.5966 1.87085 14.4494Z" stroke="#333333" stroke-width="0.5"/>
<path d="M61.157 10.6095V13.1245L64.8493 12.7413V10.1288L64.1178 10.1985V9.65509L63.5953 9.71083V9.36249L62.5155 9.46699V9.91983L61.993 9.97556V10.5468L61.157 10.6095Z" stroke="#ACAEB0" stroke-width="0.4" stroke-linecap="round" stroke-linejoin="round"/>
<path d="M64.8499 15.7378V13.2646L61.1575 13.6478V16.2603L61.889 16.1907V16.7341L62.4115 16.6783V17.0267L63.4913 16.9222V16.4693L64.0139 16.4136V15.8423L64.8499 15.7378Z" stroke="#ACAEB0" stroke-width="0.4" stroke-linecap="round" stroke-linejoin="round"/>
<path d="M65.4768 16.8524V8.87549L60.5827 9.48507V17.4824L65.4768 16.8524Z" stroke="#ACAEB0" stroke-width="0.4"/>
</svg>
