<svg width="20" height="20" viewBox="0 0 20 20" fill="none" xmlns="http://www.w3.org/2000/svg">
<path fill-rule="evenodd" clip-rule="evenodd" d="M17.5431 4.35345H2.4569C2.12362 4.35345 1.85345 4.62362 1.85345 4.9569V9.18103C1.85345 9.51431 2.12362 9.78448 2.4569 9.78448H17.5431C17.8764 9.78448 18.1466 9.51431 18.1466 9.18103V4.9569C18.1466 4.62362 17.8764 4.35345 17.5431 4.35345ZM2.4569 3.75C1.79035 3.75 1.25 4.29035 1.25 4.9569V9.18103C1.25 9.84758 1.79035 10.3879 2.4569 10.3879H17.5431C18.2097 10.3879 18.75 9.84758 18.75 9.18103V4.9569C18.75 4.29035 18.2097 3.75 17.5431 3.75H2.4569Z" fill="#333333"/>
<path fill-rule="evenodd" clip-rule="evenodd" d="M16.9396 5.25778H6.07757C5.91093 5.25778 5.77585 5.39287 5.77585 5.5595V8.57674C5.77585 8.74338 5.91093 8.87847 6.07757 8.87847H16.9396C17.1063 8.87847 17.2414 8.74338 17.2414 8.57674V5.5595C17.2414 5.39287 17.1063 5.25778 16.9396 5.25778ZM6.07757 4.95605C5.74429 4.95605 5.47412 5.22623 5.47412 5.5595V8.57674C5.47412 8.91002 5.74429 9.18019 6.07757 9.18019H16.9396C17.2729 9.18019 17.5431 8.91002 17.5431 8.57674V5.5595C17.5431 5.22623 17.2729 4.95605 16.9396 4.95605H6.07757Z" fill="#333333"/>
<path fill-rule="evenodd" clip-rule="evenodd" d="M7.64073 6.27183C7.64073 6.21123 7.68985 6.16211 7.75045 6.16211H8.62819C8.68879 6.16211 8.73791 6.21123 8.73791 6.27183V6.49126H9.2865C9.34709 6.49126 9.39622 6.54039 9.39622 6.60098V8.24675C9.39622 8.30734 9.34709 8.35647 9.2865 8.35647H7.09214C7.03154 8.35647 6.98242 8.30734 6.98242 8.24675V6.60098C6.98242 6.54039 7.03154 6.49126 7.09214 6.49126H7.64073V6.27183Z" fill="#333333"/>
<path fill-rule="evenodd" clip-rule="evenodd" d="M7.64073 6.27183C7.64073 6.21123 7.68985 6.16211 7.75045 6.16211H8.62819C8.68879 6.16211 8.73791 6.21123 8.73791 6.27183V6.49126H9.2865C9.34709 6.49126 9.39622 6.54039 9.39622 6.60098V8.24675C9.39622 8.30734 9.34709 8.35647 9.2865 8.35647H7.09214C7.03154 8.35647 6.98242 8.30734 6.98242 8.24675V6.60098C6.98242 6.54039 7.03154 6.49126 7.09214 6.49126H7.64073V6.27183ZM7.86016 6.38155V6.60098C7.86016 6.66158 7.81104 6.7107 7.75045 6.7107H7.20186V8.13703H9.17678V6.7107H8.62819C8.56759 6.7107 8.51847 6.66158 8.51847 6.60098V6.38155H7.86016Z" fill="#333333"/>
<path fill-rule="evenodd" clip-rule="evenodd" d="M7.53013 7.47949C7.59072 7.47949 7.63985 7.52861 7.63985 7.58921V7.91836C7.63985 7.97896 7.59072 8.02808 7.53013 8.02808C7.46953 8.02808 7.42041 7.97896 7.42041 7.91836V7.58921C7.42041 7.52861 7.46953 7.47949 7.53013 7.47949Z" fill="white"/>
<path fill-rule="evenodd" clip-rule="evenodd" d="M7.96812 7.47949C8.02871 7.47949 8.07783 7.52861 8.07783 7.58921V7.91836C8.07783 7.97896 8.02871 8.02808 7.96812 8.02808C7.90752 8.02808 7.8584 7.97896 7.8584 7.91836V7.58921C7.8584 7.52861 7.90752 7.47949 7.96812 7.47949Z" fill="white"/>
<path fill-rule="evenodd" clip-rule="evenodd" d="M8.40757 7.47949C8.46816 7.47949 8.51729 7.52861 8.51729 7.58921V7.91836C8.51729 7.97896 8.46816 8.02808 8.40757 8.02808C8.34697 8.02808 8.29785 7.97896 8.29785 7.91836V7.58921C8.29785 7.52861 8.34697 7.47949 8.40757 7.47949Z" fill="white"/>
<path fill-rule="evenodd" clip-rule="evenodd" d="M8.84653 7.47949C8.90713 7.47949 8.95625 7.52861 8.95625 7.58921V7.91836C8.95625 7.97896 8.90713 8.02808 8.84653 8.02808C8.78594 8.02808 8.73682 7.97896 8.73682 7.91836V7.58921C8.73682 7.52861 8.78594 7.47949 8.84653 7.47949Z" fill="white"/>
<path fill-rule="evenodd" clip-rule="evenodd" d="M10.9606 6.27183C10.9606 6.21123 11.0097 6.16211 11.0703 6.16211H11.948C12.0086 6.16211 12.0577 6.21123 12.0577 6.27183V6.49126H12.6063C12.6669 6.49126 12.716 6.54039 12.716 6.60098V8.24675C12.716 8.30734 12.6669 8.35647 12.6063 8.35647H10.412C10.3514 8.35647 10.3022 8.30734 10.3022 8.24675V6.60098C10.3022 6.54039 10.3514 6.49126 10.412 6.49126H10.9606V6.27183Z" fill="#333333"/>
<path fill-rule="evenodd" clip-rule="evenodd" d="M10.9606 6.27183C10.9606 6.21123 11.0097 6.16211 11.0703 6.16211H11.948C12.0086 6.16211 12.0577 6.21123 12.0577 6.27183V6.49126H12.6063C12.6669 6.49126 12.716 6.54039 12.716 6.60098V8.24675C12.716 8.30734 12.6669 8.35647 12.6063 8.35647H10.412C10.3514 8.35647 10.3022 8.30734 10.3022 8.24675V6.60098C10.3022 6.54039 10.3514 6.49126 10.412 6.49126H10.9606V6.27183ZM11.18 6.38155V6.60098C11.18 6.66158 11.1309 6.7107 11.0703 6.7107H10.5217V8.13703H12.4966V6.7107H11.948C11.8874 6.7107 11.8383 6.66158 11.8383 6.60098V6.38155H11.18Z" fill="#333333"/>
<path fill-rule="evenodd" clip-rule="evenodd" d="M10.8504 7.47949C10.911 7.47949 10.9602 7.52861 10.9602 7.58921V7.91836C10.9602 7.97896 10.911 8.02808 10.8504 8.02808C10.7898 8.02808 10.7407 7.97896 10.7407 7.91836V7.58921C10.7407 7.52861 10.7898 7.47949 10.8504 7.47949Z" fill="white"/>
<path fill-rule="evenodd" clip-rule="evenodd" d="M11.2889 7.47949C11.3495 7.47949 11.3986 7.52861 11.3986 7.58921V7.91836C11.3986 7.97896 11.3495 8.02808 11.2889 8.02808C11.2283 8.02808 11.1792 7.97896 11.1792 7.91836V7.58921C11.1792 7.52861 11.2283 7.47949 11.2889 7.47949Z" fill="white"/>
<path fill-rule="evenodd" clip-rule="evenodd" d="M11.7284 7.47949C11.789 7.47949 11.8381 7.52861 11.8381 7.58921V7.91836C11.8381 7.97896 11.789 8.02808 11.7284 8.02808C11.6678 8.02808 11.6187 7.97896 11.6187 7.91836V7.58921C11.6187 7.52861 11.6678 7.47949 11.7284 7.47949Z" fill="white"/>
<path fill-rule="evenodd" clip-rule="evenodd" d="M12.1673 7.47949C12.2279 7.47949 12.2771 7.52861 12.2771 7.58921V7.91836C12.2771 7.97896 12.2279 8.02808 12.1673 8.02808C12.1067 8.02808 12.0576 7.97896 12.0576 7.91836V7.58921C12.0576 7.52861 12.1067 7.47949 12.1673 7.47949Z" fill="white"/>
<path fill-rule="evenodd" clip-rule="evenodd" d="M14.2794 6.27183C14.2794 6.21123 14.3285 6.16211 14.3891 6.16211H15.2669C15.3275 6.16211 15.3766 6.21123 15.3766 6.27183V6.49126H15.9252C15.9858 6.49126 16.0349 6.54039 16.0349 6.60098V8.24675C16.0349 8.30734 15.9858 8.35647 15.9252 8.35647H13.7308C13.6702 8.35647 13.6211 8.30734 13.6211 8.24675V6.60098C13.6211 6.54039 13.6702 6.49126 13.7308 6.49126H14.2794V6.27183Z" fill="#333333"/>
<path fill-rule="evenodd" clip-rule="evenodd" d="M14.2794 6.27183C14.2794 6.21123 14.3285 6.16211 14.3891 6.16211H15.2669C15.3275 6.16211 15.3766 6.21123 15.3766 6.27183V6.49126H15.9252C15.9858 6.49126 16.0349 6.54039 16.0349 6.60098V8.24675C16.0349 8.30734 15.9858 8.35647 15.9252 8.35647H13.7308C13.6702 8.35647 13.6211 8.30734 13.6211 8.24675V6.60098C13.6211 6.54039 13.6702 6.49126 13.7308 6.49126H14.2794V6.27183ZM14.4988 6.38155V6.60098C14.4988 6.66158 14.4497 6.7107 14.3891 6.7107H13.8405V8.13703H15.8155V6.7107H15.2669C15.2063 6.7107 15.1571 6.66158 15.1571 6.60098V6.38155H14.4988Z" fill="#333333"/>
<path fill-rule="evenodd" clip-rule="evenodd" d="M14.1698 7.47949C14.2304 7.47949 14.2795 7.52861 14.2795 7.58921V7.91836C14.2795 7.97896 14.2304 8.02808 14.1698 8.02808C14.1092 8.02808 14.0601 7.97896 14.0601 7.91836V7.58921C14.0601 7.52861 14.1092 7.47949 14.1698 7.47949Z" fill="white"/>
<path fill-rule="evenodd" clip-rule="evenodd" d="M14.6083 7.47949C14.6688 7.47949 14.718 7.52861 14.718 7.58921V7.91836C14.718 7.97896 14.6688 8.02808 14.6083 8.02808C14.5477 8.02808 14.4985 7.97896 14.4985 7.91836V7.58921C14.4985 7.52861 14.5477 7.47949 14.6083 7.47949Z" fill="white"/>
<path fill-rule="evenodd" clip-rule="evenodd" d="M15.0477 7.47949C15.1083 7.47949 15.1574 7.52861 15.1574 7.58921V7.91836C15.1574 7.97896 15.1083 8.02808 15.0477 8.02808C14.9871 8.02808 14.938 7.97896 14.938 7.91836V7.58921C14.938 7.52861 14.9871 7.47949 15.0477 7.47949Z" fill="white"/>
<path fill-rule="evenodd" clip-rule="evenodd" d="M15.4867 7.47949C15.5473 7.47949 15.5964 7.52861 15.5964 7.58921V7.91836C15.5964 7.97896 15.5473 8.02808 15.4867 8.02808C15.4261 8.02808 15.377 7.97896 15.377 7.91836V7.58921C15.377 7.52861 15.4261 7.47949 15.4867 7.47949Z" fill="white"/>
<path fill-rule="evenodd" clip-rule="evenodd" d="M2.87939 8.57752C2.87939 8.47754 2.96045 8.39648 3.06043 8.39648H4.56905C4.66903 8.39648 4.75008 8.47754 4.75008 8.57752C4.75008 8.6775 4.66903 8.75855 4.56905 8.75855H3.06043C2.96045 8.75855 2.87939 8.6775 2.87939 8.57752Z" fill="#333333"/>
<path fill-rule="evenodd" clip-rule="evenodd" d="M2.87939 7.97498C2.87939 7.875 2.96045 7.79395 3.06043 7.79395H4.56905C4.66903 7.79395 4.75008 7.875 4.75008 7.97498C4.75008 8.07496 4.66903 8.15601 4.56905 8.15601H3.06043C2.96045 8.15601 2.87939 8.07496 2.87939 7.97498Z" fill="#333333"/>
<path fill-rule="evenodd" clip-rule="evenodd" d="M17.5431 10.6913H2.4569C2.12362 10.6913 1.85345 10.9615 1.85345 11.2948V15.5189C1.85345 15.8522 2.12362 16.1224 2.4569 16.1224H17.5431C17.8764 16.1224 18.1466 15.8522 18.1466 15.5189V11.2948C18.1466 10.9615 17.8764 10.6913 17.5431 10.6913ZM2.4569 10.0879C1.79035 10.0879 1.25 10.6282 1.25 11.2948V15.5189C1.25 16.1855 1.79035 16.7258 2.4569 16.7258H17.5431C18.2097 16.7258 18.75 16.1855 18.75 15.5189V11.2948C18.75 10.6282 18.2097 10.0879 17.5431 10.0879H2.4569Z" fill="#333333"/>
<path fill-rule="evenodd" clip-rule="evenodd" d="M16.9396 11.5966H6.07757C5.91093 11.5966 5.77585 11.7317 5.77585 11.8984V14.9156C5.77585 15.0822 5.91093 15.2173 6.07757 15.2173H16.9396C17.1063 15.2173 17.2414 15.0822 17.2414 14.9156V11.8984C17.2414 11.7317 17.1063 11.5966 16.9396 11.5966ZM6.07757 11.2949C5.74429 11.2949 5.47412 11.5651 5.47412 11.8984V14.9156C5.47412 15.2489 5.74429 15.5191 6.07757 15.5191H16.9396C17.2729 15.5191 17.5431 15.2489 17.5431 14.9156V11.8984C17.5431 11.5651 17.2729 11.2949 16.9396 11.2949H6.07757Z" fill="#333333"/>
<path fill-rule="evenodd" clip-rule="evenodd" d="M7.64122 12.6107C7.64122 12.5501 7.69034 12.501 7.75094 12.501H8.62868C8.68927 12.501 8.7384 12.5501 8.7384 12.6107V12.8301H9.28699C9.34758 12.8301 9.3967 12.8793 9.3967 12.9398V14.5856C9.3967 14.6462 9.34758 14.6953 9.28699 14.6953H7.09263C7.03203 14.6953 6.98291 14.6462 6.98291 14.5856V12.9398C6.98291 12.8793 7.03203 12.8301 7.09263 12.8301H7.64122V12.6107Z" fill="#333333"/>
<path fill-rule="evenodd" clip-rule="evenodd" d="M7.64122 12.6107C7.64122 12.5501 7.69034 12.501 7.75094 12.501H8.62868C8.68927 12.501 8.7384 12.5501 8.7384 12.6107V12.8301H9.28699C9.34758 12.8301 9.3967 12.8793 9.3967 12.9398V14.5856C9.3967 14.6462 9.34758 14.6953 9.28699 14.6953H7.09263C7.03203 14.6953 6.98291 14.6462 6.98291 14.5856V12.9398C6.98291 12.8793 7.03203 12.8301 7.09263 12.8301H7.64122V12.6107ZM7.86065 12.7204V12.9398C7.86065 13.0004 7.81153 13.0496 7.75094 13.0496H7.20235V14.4759H9.17727V13.0496H8.62868C8.56808 13.0496 8.51896 13.0004 8.51896 12.9398V12.7204H7.86065Z" fill="#333333"/>
<path fill-rule="evenodd" clip-rule="evenodd" d="M7.5311 13.8174C7.5917 13.8174 7.64082 13.8665 7.64082 13.9271V14.2563C7.64082 14.3168 7.5917 14.366 7.5311 14.366C7.47051 14.366 7.42139 14.3168 7.42139 14.2563V13.9271C7.42139 13.8665 7.47051 13.8174 7.5311 13.8174Z" fill="white"/>
<path fill-rule="evenodd" clip-rule="evenodd" d="M7.96958 13.8174C8.03018 13.8174 8.0793 13.8665 8.0793 13.9271V14.2563C8.0793 14.3168 8.03018 14.366 7.96958 14.366C7.90899 14.366 7.85986 14.3168 7.85986 14.2563V13.9271C7.85986 13.8665 7.90899 13.8174 7.96958 13.8174Z" fill="white"/>
<path fill-rule="evenodd" clip-rule="evenodd" d="M8.40855 13.8174C8.46914 13.8174 8.51826 13.8665 8.51826 13.9271V14.2563C8.51826 14.3168 8.46914 14.366 8.40855 14.366C8.34795 14.366 8.29883 14.3168 8.29883 14.2563V13.9271C8.29883 13.8665 8.34795 13.8174 8.40855 13.8174Z" fill="white"/>
<path fill-rule="evenodd" clip-rule="evenodd" d="M8.84751 13.8174C8.90811 13.8174 8.95723 13.8665 8.95723 13.9271V14.2563C8.95723 14.3168 8.90811 14.366 8.84751 14.366C8.78692 14.366 8.73779 14.3168 8.73779 14.2563V13.9271C8.73779 13.8665 8.78692 13.8174 8.84751 13.8174Z" fill="white"/>
<path fill-rule="evenodd" clip-rule="evenodd" d="M10.9601 12.6107C10.9601 12.5501 11.0092 12.501 11.0698 12.501H11.9475C12.0081 12.501 12.0572 12.5501 12.0572 12.6107V12.8301H12.6058C12.6664 12.8301 12.7156 12.8793 12.7156 12.9398V14.5856C12.7156 14.6462 12.6664 14.6953 12.6058 14.6953H10.4115C10.3509 14.6953 10.3018 14.6462 10.3018 14.5856V12.9398C10.3018 12.8793 10.3509 12.8301 10.4115 12.8301H10.9601V12.6107Z" fill="#333333"/>
<path fill-rule="evenodd" clip-rule="evenodd" d="M10.9601 12.6107C10.9601 12.5501 11.0092 12.501 11.0698 12.501H11.9475C12.0081 12.501 12.0572 12.5501 12.0572 12.6107V12.8301H12.6058C12.6664 12.8301 12.7156 12.8793 12.7156 12.9398V14.5856C12.7156 14.6462 12.6664 14.6953 12.6058 14.6953H10.4115C10.3509 14.6953 10.3018 14.6462 10.3018 14.5856V12.9398C10.3018 12.8793 10.3509 12.8301 10.4115 12.8301H10.9601V12.6107ZM11.1795 12.7204V12.9398C11.1795 13.0004 11.1304 13.0496 11.0698 13.0496H10.5212V14.4759H12.4961V13.0496H11.9475C11.8869 13.0496 11.8378 13.0004 11.8378 12.9398V12.7204H11.1795Z" fill="#333333"/>
<path fill-rule="evenodd" clip-rule="evenodd" d="M10.85 13.8174C10.9105 13.8174 10.9597 13.8665 10.9597 13.9271V14.2563C10.9597 14.3168 10.9105 14.366 10.85 14.366C10.7894 14.366 10.7402 14.3168 10.7402 14.2563V13.9271C10.7402 13.8665 10.7894 13.8174 10.85 13.8174Z" fill="white"/>
<path fill-rule="evenodd" clip-rule="evenodd" d="M11.2884 13.8174C11.349 13.8174 11.3981 13.8665 11.3981 13.9271V14.2563C11.3981 14.3168 11.349 14.366 11.2884 14.366C11.2278 14.366 11.1787 14.3168 11.1787 14.2563V13.9271C11.1787 13.8665 11.2278 13.8174 11.2884 13.8174Z" fill="white"/>
<path fill-rule="evenodd" clip-rule="evenodd" d="M11.7279 13.8174C11.7885 13.8174 11.8376 13.8665 11.8376 13.9271V14.2563C11.8376 14.3168 11.7885 14.366 11.7279 14.366C11.6673 14.366 11.6182 14.3168 11.6182 14.2563V13.9271C11.6182 13.8665 11.6673 13.8174 11.7279 13.8174Z" fill="white"/>
<path fill-rule="evenodd" clip-rule="evenodd" d="M12.1668 13.8174C12.2274 13.8174 12.2766 13.8665 12.2766 13.9271V14.2563C12.2766 14.3168 12.2274 14.366 12.1668 14.366C12.1063 14.366 12.0571 14.3168 12.0571 14.2563V13.9271C12.0571 13.8665 12.1063 13.8174 12.1668 13.8174Z" fill="white"/>
<path fill-rule="evenodd" clip-rule="evenodd" d="M14.2794 12.6107C14.2794 12.5501 14.3285 12.501 14.3891 12.501H15.2669C15.3275 12.501 15.3766 12.5501 15.3766 12.6107V12.8301H15.9252C15.9858 12.8301 16.0349 12.8793 16.0349 12.9398V14.5856C16.0349 14.6462 15.9858 14.6953 15.9252 14.6953H13.7308C13.6702 14.6953 13.6211 14.6462 13.6211 14.5856V12.9398C13.6211 12.8793 13.6702 12.8301 13.7308 12.8301H14.2794V12.6107Z" fill="#333333"/>
<path fill-rule="evenodd" clip-rule="evenodd" d="M14.2794 12.6107C14.2794 12.5501 14.3285 12.501 14.3891 12.501H15.2669C15.3275 12.501 15.3766 12.5501 15.3766 12.6107V12.8301H15.9252C15.9858 12.8301 16.0349 12.8793 16.0349 12.9398V14.5856C16.0349 14.6462 15.9858 14.6953 15.9252 14.6953H13.7308C13.6702 14.6953 13.6211 14.6462 13.6211 14.5856V12.9398C13.6211 12.8793 13.6702 12.8301 13.7308 12.8301H14.2794V12.6107ZM14.4988 12.7204V12.9398C14.4988 13.0004 14.4497 13.0496 14.3891 13.0496H13.8405V14.4759H15.8155V13.0496H15.2669C15.2063 13.0496 15.1571 13.0004 15.1571 12.9398V12.7204H14.4988Z" fill="#333333"/>
<path fill-rule="evenodd" clip-rule="evenodd" d="M14.1698 13.8174C14.2304 13.8174 14.2795 13.8665 14.2795 13.9271V14.2563C14.2795 14.3168 14.2304 14.366 14.1698 14.366C14.1092 14.366 14.0601 14.3168 14.0601 14.2563V13.9271C14.0601 13.8665 14.1092 13.8174 14.1698 13.8174Z" fill="white"/>
<path fill-rule="evenodd" clip-rule="evenodd" d="M14.6083 13.8174C14.6688 13.8174 14.718 13.8665 14.718 13.9271V14.2563C14.718 14.3168 14.6688 14.366 14.6083 14.366C14.5477 14.366 14.4985 14.3168 14.4985 14.2563V13.9271C14.4985 13.8665 14.5477 13.8174 14.6083 13.8174Z" fill="white"/>
<path fill-rule="evenodd" clip-rule="evenodd" d="M15.0472 13.8174C15.1078 13.8174 15.1569 13.8665 15.1569 13.9271V14.2563C15.1569 14.3168 15.1078 14.366 15.0472 14.366C14.9866 14.366 14.9375 14.3168 14.9375 14.2563V13.9271C14.9375 13.8665 14.9866 13.8174 15.0472 13.8174Z" fill="white"/>
<path fill-rule="evenodd" clip-rule="evenodd" d="M15.4867 13.8174C15.5473 13.8174 15.5964 13.8665 15.5964 13.9271V14.2563C15.5964 14.3168 15.5473 14.366 15.4867 14.366C15.4261 14.366 15.377 14.3168 15.377 14.2563V13.9271C15.377 13.8665 15.4261 13.8174 15.4867 13.8174Z" fill="white"/>
<path fill-rule="evenodd" clip-rule="evenodd" d="M2.87939 14.9154C2.87939 14.8154 2.96045 14.7344 3.06043 14.7344H4.56905C4.66903 14.7344 4.75008 14.8154 4.75008 14.9154C4.75008 15.0154 4.66903 15.0964 4.56905 15.0964H3.06043C2.96045 15.0964 2.87939 15.0154 2.87939 14.9154Z" fill="#333333"/>
<path fill-rule="evenodd" clip-rule="evenodd" d="M2.87939 14.3129C2.87939 14.2129 2.96045 14.1318 3.06043 14.1318H4.56905C4.66903 14.1318 4.75008 14.2129 4.75008 14.3129C4.75008 14.4129 4.66903 14.4939 4.56905 14.4939H3.06043C2.96045 14.4939 2.87939 14.4129 2.87939 14.3129Z" fill="#333333"/>
</svg>
