
<svg width="32" height="32" viewBox="0 0 32 32" fill="none" xmlns="http://www.w3.org/2000/svg">
<g clip-path="url(#clip0_2918_23846)">
<path d="M26 6H6.8C6.35817 6 6 6.25584 6 6.57143V13.4286C6 13.7442 6.35817 14 6.8 14H26C26.4418 14 26.8 13.7442 26.8 13.4286V6.57143C26.8 6.25584 26.4418 6 26 6Z" fill="currentColor"/>
<path d="M26 6H6.8C6.35817 6 6 6.25584 6 6.57143V13.4286C6 13.7442 6.35817 14 6.8 14H26C26.4418 14 26.8 13.7442 26.8 13.4286V6.57143C26.8 6.25584 26.4418 6 26 6Z" stroke="currentColor" stroke-linecap="round" stroke-linejoin="round"/>
<path d="M22.4 11.2C23.0627 11.2 23.6 10.6627 23.6 9.99999C23.6 9.33725 23.0627 8.79999 22.4 8.79999C21.7373 8.79999 21.2 9.33725 21.2 9.99999C21.2 10.6627 21.7373 11.2 22.4 11.2Z" fill="white"/>
<path d="M26 17H6.8C6.35817 17 6 17.2558 6 17.5714V24.4286C6 24.7442 6.35817 25 6.8 25H26C26.4418 25 26.8 24.7442 26.8 24.4286V17.5714C26.8 17.2558 26.4418 17 26 17Z" fill="currentColor"/>
<path d="M26 17H6.8C6.35817 17 6 17.2558 6 17.5714V24.4286C6 24.7442 6.35817 25 6.8 25H26C26.4418 25 26.8 24.7442 26.8 24.4286V17.5714C26.8 17.2558 26.4418 17 26 17Z" stroke="currentColor" stroke-linecap="round" stroke-linejoin="round"/>
<path d="M22.4 22.2C23.0627 22.2 23.6 21.6627 23.6 21C23.6 20.3372 23.0627 19.8 22.4 19.8C21.7373 19.8 21.2 20.3372 21.2 21C21.2 21.6627 21.7373 22.2 22.4 22.2Z" fill="white"/>
</g>
<defs>
<clipPath id="clip0_2918_23846">
<rect width="32" height="32" fill="white"/>
</clipPath>
</defs>
</svg>
