<svg width="120" height="70" viewBox="0 0 120 70" fill="none" xmlns="http://www.w3.org/2000/svg">
<path d="M59.7778 58.9999C78.4327 58.9999 93.5556 54.2243 93.5556 48.3332V27.4443H26V48.3332C26 54.2243 41.1228 58.9999 59.7778 58.9999Z" fill="white"/>
<path d="M34.4443 34.5554V43.4443" stroke="#333333"/>
<path d="M44.6667 36.7778V45.6667" stroke="#333333"/>
<path d="M54.4446 37.6667V46.5556" stroke="#333333"/>
<path d="M65.1111 37.6667V46.5556" stroke="#333333"/>
<path d="M75.7778 36.7778V45.6667" stroke="#333333"/>
<path d="M85.5557 34.1111V43" stroke="#333333"/>
<ellipse cx="59.7778" cy="27.8889" rx="33.7778" ry="9.77778" fill="white" stroke="#333333"/>
<path d="M34 33.5896C40.1933 30.1112 49.6394 27.8889 60.2222 27.8889C71.3249 27.8889 81.1764 30.3349 87.3333 34.1111" stroke="#333333"/>
<path d="M93.5556 35.8889C93.5556 41.78 78.4327 46.5556 59.7778 46.5556C41.1228 46.5556 26 41.78 26 35.8889" stroke="#333333"/>
<path d="M93.5556 43C93.5556 48.2198 81.6827 52.5639 66 53.4861M26 43C26 48.318 38.3236 52.727 54.4444 53.5345" stroke="#333333"/>
<path d="M93.5556 27.4443V48.3332C93.5556 54.2243 78.4327 58.9999 59.7778 58.9999C41.1228 58.9999 26 54.2243 26 48.3332V27.4443" stroke="#333333"/>
<path d="M66.0001 58.9999V49.2222H54.4446V58.9999" stroke="#333333"/>
<path d="M59.7778 18.1111V27.8889M70.0001 28.3333L74.4445 19.4444M49.5556 28.7778L43.7778 19.4444" stroke="#333333"/>
<path d="M78.8889 14.1111L74.8889 11.8889V14.5556L78.8889 14.1111Z" fill="white"/>
<path d="M74.8889 19.4445V14.5556M74.8889 14.5556V11.8889L78.8889 14.1111L74.8889 14.5556Z" stroke="#333333" stroke-linejoin="round"/>
<path d="M63.7778 13.2222L59.7778 11V13.6667L63.7778 13.2222Z" fill="white"/>
<path d="M59.7778 18.5556V13.6667M59.7778 13.6667V11L63.7778 13.2222L59.7778 13.6667Z" stroke="#333333" stroke-linejoin="round"/>
<path d="M47.7778 14.1111L43.7778 11.8889V14.5556L47.7778 14.1111Z" fill="white"/>
<path d="M43.7778 19.4445V14.5556M43.7778 14.5556V11.8889L47.7778 14.1111L43.7778 14.5556Z" stroke="#333333" stroke-linejoin="round"/>
</svg>
