<?xml version="1.0" encoding="utf-8"?>
<svg version="1.1" xmlns:xlink="http://www.w3.org/1999/xlink" width="22px" height="22px" xmlns="http://www.w3.org/2000/svg">
  <g transform="matrix(1 0 0 1 -956 -251 )">
    <path d="M 15.454427083333334 15.454427083333332  C 15.540364583333334 15.368489583333332  15.583333333333334 15.258680555555554  15.583333333333334 15.125  L 15.583333333333334 6.875  C 15.583333333333334 6.741319444444443  15.540364583333334 6.631510416666666  15.454427083333334 6.545572916666666  C 15.368489583333334 6.459635416666666  15.258680555555557 6.416666666666666  15.125 6.416666666666666  L 6.875 6.416666666666666  C 6.741319444444445 6.416666666666666  6.631510416666667 6.459635416666666  6.545572916666667 6.545572916666666  C 6.459635416666667 6.631510416666666  6.416666666666667 6.741319444444443  6.416666666666667 6.875  L 6.416666666666667 15.125  C 6.416666666666667 15.258680555555554  6.459635416666667 15.368489583333332  6.545572916666667 15.454427083333332  C 6.631510416666667 15.540364583333332  6.741319444444445 15.583333333333332  6.875 15.583333333333332  L 15.125 15.583333333333332  C 15.258680555555557 15.583333333333332  15.368489583333334 15.540364583333332  15.454427083333334 15.454427083333332  Z M 20.524739583333336 5.478515625  C 21.508246527777775 7.163845486111109  22 9.004340277777775  22 11  C 22 12.995659722222223  21.508246527777775 14.836154513888886  20.524739583333336 16.521484375  C 19.541232638888893 18.20681423611111  18.20681423611111 19.54123263888889  16.521484375 20.524739583333336  C 14.836154513888891 21.50824652777778  12.995659722222223 22  11 22  C 9.004340277777779 22  7.163845486111112 21.50824652777778  5.478515625 20.524739583333336  C 3.7931857638888893 19.54123263888889  2.4587673611111116 18.20681423611111  1.4752604166666667 16.521484375  C 0.49175347222222215 14.836154513888886  0 12.995659722222223  0 11  C 0 9.004340277777775  0.49175347222222215 7.163845486111109  1.4752604166666667 5.478515625  C 2.4587673611111116 3.7931857638888884  3.7931857638888893 2.458767361111109  5.478515625 1.4752604166666659  C 7.163845486111112 0.4917534722222203  9.004340277777779 0  11 0  C 12.995659722222223 0  14.836154513888891 0.4917534722222203  16.521484375 1.4752604166666659  C 18.20681423611111 2.458767361111109  19.541232638888893 3.7931857638888884  20.524739583333336 5.478515625  Z " fill-rule="nonzero" fill="#000000" stroke="none" transform="matrix(1 0 0 1 956 251 )" />
  </g>
</svg>