<svg width="32" height="40" viewBox="0 0 32 40" fill="none" xmlns="http://www.w3.org/2000/svg">
<g clip-path="url(#clip0_35181_1728)">
<path d="M16 10.047L26.1563 15L16 19.9531L5.84372 15L16 10.047Z" fill="white"/>
<path fill-rule="evenodd" clip-rule="evenodd" d="M2.43117 14.9996C2.43117 15.3973 2.6579 15.7601 3.01529 15.9344L15.5441 22.0445C15.8319 22.1848 16.1681 22.1848 16.4559 22.0445L28.9847 15.9344C29.3421 15.7601 29.5688 15.3973 29.5688 14.9996C29.5688 14.602 29.3421 14.2392 28.9847 14.0649L16.4559 7.95481C16.1681 7.8145 15.8319 7.8145 15.5441 7.95481L3.01529 14.0649C2.6579 14.2392 2.43117 14.602 2.43117 14.9996ZM16 10.0466L26.1563 14.9996L16 19.9527L5.84372 14.9996L16 10.0466Z" fill="#333333"/>
<path fill-rule="evenodd" clip-rule="evenodd" d="M2.53641 20.0891C2.28464 20.6053 2.49905 21.2279 3.01529 21.4797L15.5441 27.5897C15.8319 27.7301 16.1681 27.7301 16.4559 27.5897L28.9847 21.4797C29.501 21.2279 29.7154 20.6053 29.4636 20.0891C29.2118 19.5728 28.5892 19.3584 28.073 19.6102L16 25.4979L3.92701 19.6102C3.41076 19.3584 2.78817 19.5728 2.53641 20.0891Z" fill="#333333"/>
<path fill-rule="evenodd" clip-rule="evenodd" d="M2.53641 25.6359C2.28464 26.1522 2.49905 26.7748 3.01529 27.0265L15.5441 33.1366C15.8319 33.2769 16.1681 33.2769 16.4559 33.1366L28.9847 27.0265C29.501 26.7748 29.7154 26.1522 29.4636 25.6359C29.2118 25.1197 28.5892 24.9053 28.073 25.1571L16 31.0448L3.92701 25.1571C3.41076 24.9053 2.78817 25.1197 2.53641 25.6359Z" fill="#333333"/>
</g>
<defs>
<clipPath id="clip0_35181_1728">
<rect width="28" height="39.0919" fill="white" transform="translate(2)"/>
</clipPath>
</defs>
</svg>
