
<svg width="21" height="12" viewBox="0 0 21 12" fill="none" xmlns="http://www.w3.org/2000/svg">
<path d="M1.71429 1.375H18.8571C19.0445 1.375 19.1964 1.5269 19.1964 1.71429V10.2857C19.1964 10.4731 19.0445 10.625 18.8571 10.625H1.71429C1.5269 10.625 1.375 10.4731 1.375 10.2857V1.71429C1.375 1.5269 1.5269 1.375 1.71429 1.375Z" fill="#ffffff" stroke="#ffffff" stroke-width="0.75"/>
<path d="M18.8571 1H1.71429C1.3198 1 1 1.3198 1 1.71429V10.2857C1 10.6802 1.3198 11 1.71429 11H18.8571C19.2516 11 19.5714 10.6802 19.5714 10.2857V1.71429C19.5714 1.3198 19.2516 1 18.8571 1Z" fill="#ffffff" stroke="#acaeb0" stroke-linecap="round" stroke-linejoin="round"/>
<path d="M15.6427 7.07157C16.2345 7.07157 16.7141 6.59187 16.7141 6.00014C16.7141 5.40841 16.2345 4.92871 15.6427 4.92871C15.051 4.92871 14.5713 5.40841 14.5713 6.00014C14.5713 6.59187 15.051 7.07157 15.6427 7.07157Z" fill="#acaeb0"/>
</svg>
