<svg width="32" height="32" viewBox="0 0 32 32" fill="none" xmlns="http://www.w3.org/2000/svg">
<g clip-path="url(#clip0_104_25482)">
<path d="M22.021 12.4658H28.021V6.46582" stroke="#333333" stroke-linecap="round" stroke-linejoin="round"/>
<path d="M8.2207 8.22183C9.24215 7.20038 10.4548 6.39013 11.7894 5.83733C13.1239 5.28452 14.5543 5 15.9989 5C17.4434 5 18.8738 5.28452 20.2084 5.83733C21.543 6.39013 22.7556 7.20038 23.7771 8.22183L28.0197 12.4645" stroke="#333333" stroke-linecap="round" stroke-linejoin="round"/>
<path d="M9.979 19.5342H3.979V25.5342" stroke="#333333" stroke-linecap="round" stroke-linejoin="round"/>
<path d="M23.7785 23.7768C22.757 24.7983 21.5444 25.6085 20.2098 26.1613C18.8752 26.7141 17.4448 26.9987 16.0003 26.9987C14.5558 26.9987 13.1254 26.7141 11.7908 26.1613C10.4562 25.6085 9.24358 24.7983 8.22213 23.7768L3.97949 19.5342" stroke="#333333" stroke-linecap="round" stroke-linejoin="round"/>
</g>
<defs>
<clipPath id="clip0_104_25482">
<rect width="32" height="32" fill="white"/>
</clipPath>
</defs>
</svg>
