<svg width="21" height="24" viewBox="0 0 21 24" fill="none" xmlns="http://www.w3.org/2000/svg">
<path d="M20.1706 15.2348L12.7791 2.35932C12.4591 1.76507 11.9792 1.41842 11.3392 1.31938L5.00366 0.0318349C4.3957 -0.0672071 3.80374 0.0648489 3.22778 0.428003C2.65182 0.758143 2.25184 1.22034 2.02786 1.81459L0.107993 8.05424C-0.0839942 8.6815 -0.0199986 9.30877 0.299979 9.93604L7.69147 22.861C7.97945 23.3562 8.41142 23.7029 8.98738 23.901C9.08337 23.901 9.17937 23.9175 9.27536 23.9505C9.40335 23.9835 9.48335 24 9.51534 24C9.86732 24 10.2513 23.901 10.6673 23.7029L19.3547 18.4041C19.8346 18.14 20.1706 17.6778 20.3626 17.0175C20.5546 16.4233 20.4906 15.829 20.1706 15.2348ZM5.72361 4.68681C4.98766 5.04996 4.44369 4.9014 4.09172 4.24112C3.64375 3.58084 3.78774 2.98659 4.52369 2.45836C4.74767 2.29329 5.03565 2.27679 5.38763 2.40884C5.7396 2.50788 5.99559 2.70597 6.15558 3.00309C6.50755 3.59735 6.36356 4.15859 5.72361 4.68681Z" fill="black"/>
</svg>
