<svg width="22" height="24" viewBox="0 0 22 24" fill="none" xmlns="http://www.w3.org/2000/svg">
<path d="M9.88014 24C9.61434 24 9.43161 23.967 9.33193 23.901C8.80034 23.8019 8.35181 23.4553 7.98634 22.8611L0.31148 9.93747C-0.0207653 9.31027 -0.0872143 8.68307 0.112133 8.05586L2.1056 1.81685C2.33817 1.18965 2.73687 0.710998 3.30169 0.380892C3.8665 0.0507856 4.49777 -0.0647516 5.19548 0.0342803L11.6743 1.32169C12.3388 1.42073 12.8371 1.76734 13.1694 2.36153L20.8442 15.2357C21.1765 15.7638 21.2595 16.325 21.0934 16.9192C20.9605 17.5134 20.6283 17.9756 20.0967 18.3057L11.0762 23.6039C10.7772 23.868 10.3785 24 9.88014 24ZM4.69711 0.975083C3.89973 0.975083 3.40136 1.37121 3.20201 2.16347L1.05903 8.35296C0.992582 8.58403 1.02581 8.94715 1.1587 9.44231L8.83357 22.3165C9.13259 22.9767 9.6974 23.1252 10.528 22.7621L19.5485 17.4639C20.213 17.1668 20.3625 16.6056 19.997 15.7804L12.4218 2.90621C12.2225 2.5761 11.9401 2.36153 11.5746 2.2625L4.99613 0.975083H4.69711ZM5.29516 5.33249C4.69711 5.33249 4.19875 5.0519 3.80005 4.49072C3.56748 4.1276 3.50103 3.66545 3.60071 3.10427C3.70038 2.67513 3.98279 2.31201 4.44793 2.01492C4.78018 1.81685 5.21209 1.78384 5.74369 1.91589C6.20883 2.04793 6.55769 2.32852 6.79026 2.75766C7.05605 3.12077 7.1225 3.53341 6.98961 3.99556C6.85671 4.4577 6.5743 4.82082 6.14238 5.08491C5.64401 5.24996 5.3616 5.33249 5.29516 5.33249ZM5.29516 2.90621C5.16226 2.90621 5.02936 2.93922 4.89646 3.00524C4.66389 3.23631 4.5476 3.36835 4.5476 3.40136C4.5476 3.69846 4.59744 3.88002 4.69711 3.94604C4.92969 4.27615 5.27854 4.34217 5.74369 4.1441C6.10916 3.91303 6.1756 3.56642 5.94303 3.10427C5.81014 2.97223 5.6274 2.90621 5.39483 2.90621H5.29516Z" fill="black"/>
</svg>
