<svg width="40" height="40" viewBox="0 0 40 40" fill="none" xmlns="http://www.w3.org/2000/svg">
<path d="M37.3027 24.0237V23.7578H38.4423V24.0237H38.0245V25.2773H37.7206V24.0237H37.3027Z" fill="black"/>
<path d="M13.7891 25.9229H10.0664V26.5306H11.6618V29.1137H12.2696V26.5306H13.7891V25.9229Z" fill="black"/>
<path d="M37.417 25.9229H33.6943V26.5306H35.2898V29.1137H35.8976V26.5306H37.417V25.9229Z" fill="black"/>
<path d="M17.7016 29.0378V28.468H14.8906C14.7766 28.468 14.7007 28.392 14.7007 28.278V26.7965C14.7007 26.6826 14.7386 26.4927 14.9286 26.4927H16.9039C17.0558 26.4927 17.1698 26.6446 17.1698 26.8725C17.1698 27.1004 17.0178 27.2144 16.9039 27.2144H15.0425V27.7462H16.9799C17.2838 27.7462 17.7396 27.5563 17.7396 26.8725C17.7396 26.1888 17.3217 25.9229 16.9799 25.9229H14.8526C14.4348 25.9229 14.1309 26.3787 14.1309 26.6446V28.278C14.1309 28.6199 14.5107 29.0378 14.8906 29.0378H17.7016Z" fill="black"/>
<path d="M25.185 29.0378V28.468H22.374C22.26 28.468 22.1841 28.392 22.1841 28.278V26.7965C22.1841 26.6826 22.222 26.4927 22.412 26.4927H24.3873C24.5392 26.4927 24.6532 26.6446 24.6532 26.8725C24.6532 27.1004 24.5012 27.2144 24.3873 27.2144H22.5259V27.7462H24.4633C24.7672 27.7462 25.223 27.5563 25.223 26.8725C25.223 26.1888 24.8051 25.9229 24.4633 25.9229H22.336C21.9182 25.9229 21.6143 26.3787 21.6143 26.6446V28.278C21.6143 28.6199 21.9941 29.0378 22.374 29.0378H25.185Z" fill="black"/>
<path d="M33.3139 29.0378V28.468H30.5029C30.3889 28.468 30.313 28.392 30.313 28.278V26.7965C30.313 26.6826 30.351 26.4927 30.5409 26.4927H32.5162C32.6681 26.4927 32.7821 26.6446 32.7821 26.8725C32.7821 27.1004 32.6302 27.2144 32.5162 27.2144H30.6548V27.7462H32.5922C32.8961 27.7462 33.3519 27.5563 33.3519 26.8725C33.3519 26.1888 32.934 25.9229 32.5922 25.9229H30.4649C30.0471 25.9229 29.7432 26.3787 29.7432 26.6446V28.278C29.7432 28.6199 30.123 29.0378 30.5029 29.0378H33.3139Z" fill="black"/>
<path d="M18.6889 25.9229H18.1191V28.278C18.1191 28.8478 18.651 29.0378 18.9169 29.0378H21.272V28.468H18.9169C18.7649 28.468 18.6889 28.392 18.6889 28.278V25.9229Z" fill="black"/>
<path d="M25.5654 25.9609V28.9999H26.1352V26.7587L28.7563 28.9999H29.3641V25.9609H28.7563V28.2401L26.1352 25.9609H25.5654Z" fill="black"/>
<path d="M38.6328 25.2773V23.7578H39.0507L39.3546 24.7455L39.6205 23.7578H40.0003V25.2773H39.7724V24.0997L39.4685 25.2773H39.2026L38.8987 24.0997V25.2773H38.6328Z" fill="black"/>
<path d="M11.8139 15.3244C8.8509 14.5645 2.43115 23.821 0 28.2021C1.17759 26.3783 3.77588 22.9823 4.90028 21.8579C6.30579 20.4524 8.66097 18.2492 9.80057 18.781C10.9402 19.3128 10.5783 21.2985 10.2944 22.4657C9.80468 24.479 8.73694 26.6442 7.97721 28.2017C10.1045 24.9348 12.0798 19.9966 12.4217 17.7553C12.6688 16.135 12.1684 15.4129 11.8139 15.3244Z" fill="black"/>
<path d="M17.8538 11.0317C14.9288 10.386 8.31913 19.7687 5.62207 24.7829C7.29349 22.2758 9.95255 18.4771 12.1558 16.5398C13.7512 15.1369 15.4606 14.0707 16.1824 14.7545C16.8985 15.4329 16.5675 17.0463 16.2654 18.5185L16.2583 18.5531C16.0152 19.7383 14.4097 23.2001 13.6373 24.7829C14.8528 22.8456 16.6382 19.8067 18.0817 15.6281C19.2245 12.3201 18.4363 11.1963 17.8538 11.0317Z" fill="black"/>
</svg>
