<svg width="40" height="19" viewBox="0 0 40 19" fill="none" xmlns="http://www.w3.org/2000/svg">
<path d="M37.3027 13.0237V12.7578H38.4423V13.0237H38.0245V14.2773H37.7206V13.0237H37.3027Z" fill="black"/>
<path d="M13.7891 14.9229H10.0664V15.5306H11.6618V18.1137H12.2696V15.5306H13.7891V14.9229Z" fill="black"/>
<path d="M37.417 14.9229H33.6943V15.5306H35.2898V18.1137H35.8976V15.5306H37.417V14.9229Z" fill="black"/>
<path d="M17.7016 18.0378V17.468H14.8906C14.7766 17.468 14.7007 17.392 14.7007 17.278V15.7965C14.7007 15.6826 14.7386 15.4927 14.9286 15.4927H16.9039C17.0558 15.4927 17.1698 15.6446 17.1698 15.8725C17.1698 16.1004 17.0178 16.2144 16.9039 16.2144H15.0425V16.7462H16.9799C17.2838 16.7462 17.7396 16.5563 17.7396 15.8725C17.7396 15.1888 17.3217 14.9229 16.9799 14.9229H14.8526C14.4348 14.9229 14.1309 15.3787 14.1309 15.6446V17.278C14.1309 17.6199 14.5107 18.0378 14.8906 18.0378H17.7016Z" fill="black"/>
<path d="M25.185 18.0378V17.468H22.374C22.26 17.468 22.1841 17.392 22.1841 17.278V15.7965C22.1841 15.6826 22.222 15.4927 22.412 15.4927H24.3873C24.5392 15.4927 24.6532 15.6446 24.6532 15.8725C24.6532 16.1004 24.5012 16.2144 24.3873 16.2144H22.5259V16.7462H24.4633C24.7672 16.7462 25.223 16.5563 25.223 15.8725C25.223 15.1888 24.8051 14.9229 24.4633 14.9229H22.336C21.9182 14.9229 21.6143 15.3787 21.6143 15.6446V17.278C21.6143 17.6199 21.9941 18.0378 22.374 18.0378H25.185Z" fill="black"/>
<path d="M33.3139 18.0378V17.468H30.5029C30.3889 17.468 30.313 17.392 30.313 17.278V15.7965C30.313 15.6826 30.351 15.4927 30.5409 15.4927H32.5162C32.6681 15.4927 32.7821 15.6446 32.7821 15.8725C32.7821 16.1004 32.6302 16.2144 32.5162 16.2144H30.6548V16.7462H32.5922C32.8961 16.7462 33.3519 16.5563 33.3519 15.8725C33.3519 15.1888 32.934 14.9229 32.5922 14.9229H30.4649C30.0471 14.9229 29.7432 15.3787 29.7432 15.6446V17.278C29.7432 17.6199 30.123 18.0378 30.5029 18.0378H33.3139Z" fill="black"/>
<path d="M18.6889 14.9229H18.1191V17.278C18.1191 17.8478 18.651 18.0378 18.9169 18.0378H21.272V17.468H18.9169C18.7649 17.468 18.6889 17.392 18.6889 17.278V14.9229Z" fill="black"/>
<path d="M25.5654 14.9609V17.9999H26.1352V15.7587L28.7563 17.9999H29.3641V14.9609H28.7563V17.2401L26.1352 14.9609H25.5654Z" fill="black"/>
<path d="M38.6328 14.2773V12.7578H39.0507L39.3546 13.7455L39.6205 12.7578H40.0003V14.2773H39.7724V13.0997L39.4685 14.2773H39.2026L38.8987 13.0997V14.2773H38.6328Z" fill="black"/>
<path d="M11.8139 4.32436C8.8509 3.56446 2.43115 12.821 0 17.2021C1.17759 15.3783 3.77588 11.9823 4.90028 10.8579C6.30579 9.4524 8.66097 7.24917 9.80057 7.78099C10.9402 8.3128 10.5783 10.2985 10.2944 11.4657C9.80468 13.479 8.73694 15.6442 7.97721 17.2017C10.1045 13.9348 12.0798 8.99656 12.4217 6.75535C12.6688 5.13504 12.1684 4.41294 11.8139 4.32436Z" fill="black"/>
<path d="M17.8538 0.0316783C14.9288 -0.614016 8.31913 8.76872 5.62207 13.7829C7.29349 11.2758 9.95255 7.47715 12.1558 5.53983C13.7512 4.13694 15.4606 3.07069 16.1824 3.75445C16.8985 4.43289 16.5675 6.04628 16.2654 7.51851L16.2583 7.55312C16.0152 8.73831 14.4097 12.2001 13.6373 13.7829C14.8528 11.8456 16.6382 8.80668 18.0817 4.62815C19.2245 1.32005 18.4363 0.196314 17.8538 0.0316783Z" fill="black"/>
</svg>
