<svg width="16" height="16" viewBox="0 0 16 16" fill="none" xmlns="http://www.w3.org/2000/svg">
<path d="M9.49209 9.98361H5.54284L4.43637 13.0984L5.74711 13.4262C5.78116 13.6339 5.75278 13.8251 5.662 14C4.64064 13.9454 3.94838 13.918 3.58523 13.918C3.39231 13.918 3.20506 13.9235 3.02349 13.9344C2.84191 13.9454 2.66601 13.9563 2.49578 13.9672C2.32556 13.9781 2.16668 13.9891 2.01915 14C1.98511 13.7923 1.99645 13.6011 2.0532 13.4262C2.56388 13.3607 3.00079 13.2514 3.36394 13.0984L7.39831 2.13115C7.56853 2.04372 7.78983 2 8.06219 2L12.6753 13.0984L13.9861 13.4262C14.0201 13.6339 13.9917 13.8251 13.901 14C12.8796 13.9454 12.1873 13.918 11.8242 13.918C11.2341 13.918 10.4113 13.9454 9.35591 14C9.32187 13.7923 9.33322 13.6011 9.38996 13.4262C9.92333 13.3607 10.3773 13.2514 10.7518 13.0984L9.49209 9.98361ZM7.43235 4.40984H7.39831C7.04651 5.62295 6.79684 6.43169 6.64931 6.83607L5.84925 9.08197H9.1176L8.18135 6.7541C7.8182 5.94535 7.56853 5.16393 7.43235 4.40984Z" fill="#333333"/>
</svg>
