<svg width="20" height="20" viewBox="0 0 20 20" fill="none" xmlns="http://www.w3.org/2000/svg">
<g clip-path="url(#clip0_40476_39732)">
<path d="M6.28906 9.21875H4.33594C4.01233 9.21875 3.75 9.48108 3.75 9.80469V15.6641C3.75 15.9877 4.01233 16.25 4.33594 16.25H6.28906C6.61267 16.25 6.875 15.9877 6.875 15.6641V9.80469C6.875 9.48108 6.61267 9.21875 6.28906 9.21875ZM13.125 5.73857C13.125 6.77412 12.491 7.35498 12.3126 8.04688H14.7961C15.6114 8.04688 16.2462 8.72427 16.25 9.46528C16.252 9.90322 16.0658 10.3747 15.7754 10.6664L15.7727 10.6691C16.0128 11.2388 15.9738 12.0372 15.5455 12.6092C15.7574 13.2414 15.5438 14.018 15.1455 14.4344C15.2504 14.864 15.2003 15.2296 14.9954 15.524C14.4971 16.2399 13.2621 16.25 12.2178 16.25L12.1483 16.25C10.9694 16.2496 10.0046 15.8203 9.22935 15.4754C8.83977 15.3021 8.3304 15.0876 7.94392 15.0805C7.78426 15.0775 7.65625 14.9472 7.65625 14.7875V9.56855C7.65625 9.49043 7.68755 9.41545 7.74312 9.36052C8.71026 8.40486 9.12613 7.39307 9.91883 6.59902C10.2803 6.23691 10.4117 5.68994 10.5388 5.16099C10.6473 4.7093 10.8744 3.75 11.3672 3.75C11.9531 3.75 13.125 3.94531 13.125 5.73857Z" fill="white" stroke="#808284"/>
</g>
<defs>
<clipPath id="clip0_40476_39732">
<rect width="20" height="20" fill="white"/>
</clipPath>
</defs>
</svg>
