<svg width="20" height="20" viewBox="0 0 20 20" fill="none" xmlns="http://www.w3.org/2000/svg">
<g clip-path="url(#clip0_40476_39772)">
<path d="M3.75 5.11719V10.9766C3.75 11.3002 4.01233 11.5625 4.33594 11.5625H6.28906C6.61267 11.5625 6.875 11.3002 6.875 10.9766V5.11719C6.875 4.79358 6.61267 4.53125 6.28906 4.53125H4.33594C4.01233 4.53125 3.75 4.79358 3.75 5.11719ZM11.3672 16.25C10.8744 16.25 10.6473 15.2907 10.5388 14.839C10.4117 14.31 10.2803 13.7631 9.91884 13.401C9.12614 12.6069 8.71027 11.5951 7.74313 10.6395C7.71561 10.6122 7.69376 10.5799 7.67885 10.5441C7.66394 10.5084 7.65627 10.4701 7.65627 10.4314V5.21243C7.65627 5.05273 7.78427 4.92244 7.94394 4.91951C8.33044 4.91243 8.83979 4.69785 9.22936 4.52454C10.0046 4.17964 10.9694 3.75042 12.1483 3.75H12.2177C13.2621 3.75 14.4971 3.76008 14.9954 4.476C15.2003 4.77036 15.2504 5.13601 15.1455 5.56565C15.5438 5.98198 15.7574 6.75859 15.5455 7.39077C15.9738 7.96284 16.0128 8.76118 15.7727 9.33093L15.7754 9.33362C16.0658 9.62534 16.252 10.0968 16.25 10.5347C16.2462 11.2757 15.6114 11.9531 14.7961 11.9531H12.3126C12.491 12.645 13.125 13.2259 13.125 14.2614C13.125 16.0547 11.9531 16.25 11.3672 16.25Z" fill="white" stroke="#808284"/>
</g>
<defs>
<clipPath id="clip0_40476_39772">
<rect width="20" height="20" fill="white"/>
</clipPath>
</defs>
</svg>
