<svg width="32" height="32" viewBox="0 0 32 32" fill="none" xmlns="http://www.w3.org/2000/svg">
<path d="M24.9351 25.1161C28.8464 25.0606 32 21.8726 32 17.9481C32 13.9888 28.7904 10.7792 24.8312 10.7792C24.4485 10.7792 24.0729 10.8092 23.7064 10.8669C22.0666 7.96161 18.9507 6 15.3766 6C10.7724 6 6.92855 9.25535 6.0211 13.5899C5.9366 13.5863 5.85163 13.5844 5.76623 13.5844C2.58163 13.5844 0 16.166 0 19.3506C0 22.5353 2.58163 25.1169 5.76623 25.1169C5.78357 25.1169 5.80088 25.1168 5.81818 25.1167L24.9351 25.1161Z" fill="url(#paint0_linear_33006_2600)"/>
<ellipse cx="24.8309" cy="17.9481" rx="7.16883" ry="7.16883" fill="url(#paint1_linear_33006_2600)"/>
<ellipse cx="5.76623" cy="19.3502" rx="5.76623" ry="5.76623" fill="url(#paint2_linear_33006_2600)"/>
<defs>
<linearGradient id="paint0_linear_33006_2600" x1="12.5" y1="7.5" x2="16" y2="25.1169" gradientUnits="userSpaceOnUse">
<stop stop-color="#5E9CEC"/>
<stop offset="1" stop-color="#91BEF8"/>
</linearGradient>
<linearGradient id="paint1_linear_33006_2600" x1="31.9998" y1="11.8702" x2="20.6751" y2="23.2468" gradientUnits="userSpaceOnUse">
<stop stop-color="#5E9CEC"/>
<stop offset="1" stop-color="#6BA5EF" stop-opacity="0"/>
</linearGradient>
<linearGradient id="paint2_linear_33006_2600" x1="2.12987" y1="15.61" x2="9.45455" y2="21.7918" gradientUnits="userSpaceOnUse">
<stop stop-color="#ADCFFA"/>
<stop offset="1" stop-color="#ADCFFA" stop-opacity="0"/>
</linearGradient>
</defs>
</svg>
