<svg width="32" height="24" viewBox="0 0 32 24" fill="none" xmlns="http://www.w3.org/2000/svg">
<path d="M1 16.5957C1 16.5957 1.02992 16.9235 1.596 17.0129C4.22741 17.3385 11.333 17.8175 15.9 17.8175C20.8422 17.8175 28.0943 17.2817 30.204 17.0129C30.5865 16.9642 30.8 16.5957 30.8 16.5957L30.364 18.9499C30.364 18.9499 30.3285 19.2583 30.1444 19.5161C30.0167 19.6949 29.8774 19.8387 29.31 19.8783C26.9463 20.0433 20.4048 20.4697 15.9 20.4697C11.3761 20.4697 4.79824 20.0397 2.4602 19.8762C1.91122 19.8378 1.8344 19.6949 1.6854 19.5459C1.5364 19.3969 1.46356 19.0989 1.46356 19.0989L1 16.5957Z" fill="url(#paint0_linear_33288_26304)"/>
<path d="M4.21875 19.9939C7.23459 20.188 12.2398 20.4695 15.9002 20.4695C19.6715 20.4695 24.8703 20.1707 27.8501 19.9766C27.4625 20.2972 26.9881 20.489 26.4861 20.5225C24.5978 20.6484 19.613 20.9545 15.9002 20.9464C12.2635 20.9384 7.38778 20.6218 5.5536 20.4932C5.06867 20.4592 4.60801 20.2851 4.21875 19.9939Z" fill="#3B3D56"/>
<path d="M1.596 17.0128C1.02992 16.9234 1 16.5956 1 16.5956V16.2678L6.58613 8.6986C6.58613 8.6986 6.75576 8.47792 6.96 8.341C7.18711 8.18874 7.21308 8.13632 7.6454 8.04903C9.21336 7.73243 13.1391 7 15.9 7C18.6966 7 22.6883 7.75148 24.2142 8.06109C24.6101 8.14142 24.678 8.18116 24.8698 8.341C25.0322 8.4763 25.1919 8.6688 25.1919 8.6688L30.8 16.2678V16.5956C30.8 16.5956 30.5865 16.9641 30.204 17.0128C28.0943 17.2816 20.8422 17.8174 15.9 17.8174C11.333 17.8174 4.22741 17.3384 1.596 17.0128Z" fill="url(#paint1_linear_33288_26304)"/>
<path d="M1.596 17.0128C1.02992 16.9234 1 16.5956 1 16.5956V16.2678L6.58613 8.6986C6.58613 8.6986 6.75576 8.47792 6.96 8.341C7.18711 8.18874 7.21308 8.13632 7.6454 8.04903C9.21336 7.73243 13.1391 7 15.9 7C18.6966 7 22.6883 7.75148 24.2142 8.06109C24.6101 8.14142 24.678 8.18116 24.8698 8.341C25.0322 8.4763 25.1919 8.6688 25.1919 8.6688L30.8 16.2678V16.5956C30.8 16.5956 30.5865 16.9641 30.204 17.0128C28.0943 17.2816 20.8422 17.8174 15.9 17.8174C11.333 17.8174 4.22741 17.3384 1.596 17.0128Z" fill="url(#paint2_linear_33288_26304)" fill-opacity="0.6"/>
<path d="M1.596 17.0128C1.02992 16.9234 1 16.5955 1 16.5955V16.2678C1 16.2678 7.64528 13.9434 15.9 13.9434C24.1547 13.9434 30.8 16.2678 30.8 16.2678V16.5955C30.8 16.5955 30.5865 16.964 30.204 17.0128C28.0943 17.2815 20.8422 17.8173 15.9 17.8173C11.333 17.8173 4.22741 17.3384 1.596 17.0128Z" fill="url(#paint3_linear_33288_26304)"/>
<path d="M1.596 17.0128C1.02992 16.9234 1 16.5955 1 16.5955V16.2678C1 16.2678 7.64528 13.9434 15.9 13.9434C24.1547 13.9434 30.8 16.2678 30.8 16.2678V16.5955C30.8 16.5955 30.5865 16.964 30.204 17.0128C28.0943 17.2815 20.8422 17.8173 15.9 17.8173C11.333 17.8173 4.22741 17.3384 1.596 17.0128Z" fill="url(#paint4_linear_33288_26304)"/>
<path d="M1.596 17.0128C1.02992 16.9234 1 16.5955 1 16.5955V16.2678C1 16.2678 7.64528 13.9434 15.9 13.9434C24.1547 13.9434 30.8 16.2678 30.8 16.2678V16.5955C30.8 16.5955 30.5865 16.964 30.204 17.0128C28.0943 17.2815 20.8422 17.8173 15.9 17.8173C11.333 17.8173 4.22741 17.3384 1.596 17.0128Z" fill="url(#paint5_linear_33288_26304)" fill-opacity="0.3"/>
<path d="M1.596 17.0131C1.02992 16.9237 1 16.5959 1 16.5959V16.2681L1.14912 16.2383V16.5661C1.14912 16.6555 1.23827 16.8045 1.596 16.8641C1.95372 16.9237 10.8935 16.5661 15.9 16.5661C20.4992 16.6555 29.7869 16.8224 30.1445 16.7747C30.5319 16.723 30.6511 16.572 30.6511 16.4767V16.2383L30.8 16.2681V16.5959C30.8 16.5959 30.5865 16.9644 30.204 17.0131C28.0943 17.2818 20.8422 17.8177 15.9 17.8177C11.333 17.8177 4.22741 17.3387 1.596 17.0131Z" fill="#EEF4F8"/>
<rect x="15.543" y="17.3105" width="0.2384" height="1.0728" fill="#3B3D56"/>
<path d="M13.9336 17.3105H14.172L14.1124 17.8469V18.3833H13.874V17.8469L13.9336 17.3105Z" fill="#3B3D56"/>
<path d="M12.1455 17.3105H12.3839L12.3243 17.8469V18.3833H12.0859V17.8469L12.1455 17.3105Z" fill="#3B3D56"/>
<path d="M17.1514 17.3105H17.3898L17.4494 17.8469V18.3833H17.211V17.8469L17.1514 17.3105Z" fill="#3B3D56"/>
<path d="M18.9395 17.3105H19.1779L19.2375 17.8469V18.3833H18.9991V17.8469L18.9395 17.3105Z" fill="#3B3D56"/>
<circle cx="28" cy="19" r="3.5" fill="#23AB36" stroke="white"/>
<circle cx="4" cy="4" r="4" fill="#565758"/>
<path d="M4.875 3.75V6.5" stroke="white" stroke-width="0.5" stroke-linecap="round" stroke-linejoin="round"/>
<path d="M3.75 5.375L4.875 6.5L6 5.375" stroke="white" stroke-width="0.5" stroke-linecap="round" stroke-linejoin="round"/>
<path d="M3.125 4.25V1.5" stroke="white" stroke-width="0.5" stroke-linecap="round" stroke-linejoin="round"/>
<path d="M2 2.625L3.125 1.5L4.25 2.625" stroke="white" stroke-width="0.5" stroke-linecap="round" stroke-linejoin="round"/>
<defs>
<linearGradient id="paint0_linear_33288_26304" x1="-0.9668" y1="20.4697" x2="32.4986" y2="20.4697" gradientUnits="userSpaceOnUse">
<stop stop-color="#C2CADC"/>
<stop offset="0.177083" stop-color="#D2DAEC"/>
<stop offset="0.489583" stop-color="#BCC6DE"/>
<stop offset="0.802762" stop-color="#D2DAEC"/>
<stop offset="1" stop-color="#C2CADC"/>
</linearGradient>
<linearGradient id="paint1_linear_33288_26304" x1="15.9" y1="0.7122" x2="15.9" y2="13.6156" gradientUnits="userSpaceOnUse">
<stop stop-color="#B1BDD8"/>
<stop offset="1" stop-color="#EEF4F8"/>
</linearGradient>
<linearGradient id="paint2_linear_33288_26304" x1="-5.6752" y1="17.7876" x2="36.313" y2="17.7876" gradientUnits="userSpaceOnUse">
<stop stop-color="#D6DDED"/>
<stop offset="0.510417" stop-color="#EEF4F8"/>
<stop offset="1" stop-color="#D6DDED"/>
</linearGradient>
<linearGradient id="paint3_linear_33288_26304" x1="15.9" y1="12.513" x2="15.9" y2="17.8173" gradientUnits="userSpaceOnUse">
<stop stop-color="#C2CADC"/>
<stop offset="1" stop-color="#EEF4F8" stop-opacity="0.5"/>
</linearGradient>
<linearGradient id="paint4_linear_33288_26304" x1="15.9" y1="12.513" x2="15.9" y2="17.8173" gradientUnits="userSpaceOnUse">
<stop stop-color="#C2CADC"/>
<stop offset="1" stop-color="#EEF4F8" stop-opacity="0.5"/>
</linearGradient>
<linearGradient id="paint5_linear_33288_26304" x1="-1.682" y1="17.7876" x2="31.5748" y2="17.7876" gradientUnits="userSpaceOnUse">
<stop stop-color="#B1BDD8"/>
<stop offset="0.520833" stop-color="#EEF4F8"/>
<stop offset="1" stop-color="#B1BDD8"/>
</linearGradient>
</defs>
</svg>
