<svg width="32" height="32" viewBox="0 0 32 32" fill="none" xmlns="http://www.w3.org/2000/svg">
<g clip-path="url(#clip0_33003_2389)">
<path d="M3.00671 14.6914H28.9933L32 17.9129H0L3.00671 14.6914Z" fill="#6C759B"/>
<path d="M0 17.9131H32V23.497H0V17.9131Z" fill="#3B3D56"/>
<rect x="4.93945" y="18.9863" width="8.5906" height="3.43624" fill="#DFDFE0"/>
<path d="M6.76507 20.5971V19.6307H6.44293V19.4159H6.22816V19.2012H5.79863V19.4159H5.58387V19.6307H5.26172V20.5971H6.76507Z" fill="#0C0C0C"/>
<path d="M5.26129 20.812V21.7785H5.58344V21.9932H5.79821V22.208H6.22774V21.9932H6.4425V21.7785H6.76465V20.812H5.26129Z" fill="#0C0C0C"/>
<path d="M6.87262 20.812V21.7785H7.19477V21.9932H7.40953V22.208H7.83906V21.9932H8.05383V21.7785H8.37598V20.812H6.87262Z" fill="#0C0C0C"/>
<path d="M8.48297 20.812V21.7785H8.80512V21.9932H9.01989V22.208H9.44942V21.9932H9.66418V21.7785H9.98633V20.812H8.48297Z" fill="#0C0C0C"/>
<path d="M10.0933 20.812V21.7785H10.4155V21.9932H10.6302V22.208H11.0598V21.9932H11.2745V21.7785H11.5967V20.812H10.0933Z" fill="#0C0C0C"/>
<path d="M8.37543 20.5971V19.6307H8.05328V19.4159H7.83851V19.2012H7.40898V19.4159H7.19422V19.6307H6.87207V20.5971H8.37543Z" fill="#0C0C0C"/>
<path d="M9.98675 20.5971V19.6307H9.66461V19.4159H9.44984V19.2012H9.02031V19.4159H8.80555V19.6307H8.4834V20.5971H9.98675Z" fill="#0C0C0C"/>
<path d="M11.5971 20.5971V19.6307H11.275V19.4159H11.0602V19.2012H10.6307V19.4159H10.4159V19.6307H10.0938V20.5971H11.5971Z" fill="#0C0C0C"/>
<path d="M11.7047 20.812V21.7785H12.0268V21.9932H12.2416V22.208H12.6711V21.9932H12.8859V21.7785H13.208V20.812H11.7047Z" fill="#0C0C0C"/>
<path d="M13.2075 20.5971V19.6307H12.8853V19.4159H12.6705V19.2012H12.241V19.4159H12.0262V19.6307H11.7041V20.5971H13.2075Z" fill="#0C0C0C"/>
<rect x="13.7451" y="18.9863" width="8.5906" height="3.43624" fill="#DFDFE0"/>
<path d="M15.5707 20.5971V19.6307H15.2486V19.4159H15.0338V19.2012H14.6043V19.4159H14.3895V19.6307H14.0674V20.5971H15.5707Z" fill="#0C0C0C"/>
<path d="M14.067 20.812V21.7785H14.3891V21.9932H14.6039V22.208H15.0334V21.9932H15.2482V21.7785H15.5703V20.812H14.067Z" fill="#0C0C0C"/>
<path d="M15.6783 20.812V21.7785H16.0004V21.9932H16.2152V22.208H16.6447V21.9932H16.8595V21.7785H17.1816V20.812H15.6783Z" fill="#0C0C0C"/>
<path d="M17.2886 20.812V21.7785H17.6108V21.9932H17.8255V22.208H18.2551V21.9932H18.4698V21.7785H18.792V20.812H17.2886Z" fill="#0C0C0C"/>
<path d="M18.9 20.812V21.7785H19.2221V21.9932H19.4369V22.208H19.8664V21.9932H20.0812V21.7785H20.4033V20.812H18.9Z" fill="#0C0C0C"/>
<path d="M17.1811 20.5971V19.6307H16.8589V19.4159H16.6442V19.2012H16.2146V19.4159H15.9999V19.6307H15.6777V20.5971H17.1811Z" fill="#0C0C0C"/>
<path d="M18.7924 20.5971V19.6307H18.4703V19.4159H18.2555V19.2012H17.826V19.4159H17.6112V19.6307H17.2891V20.5971H18.7924Z" fill="#0C0C0C"/>
<path d="M20.4028 20.5971V19.6307H20.0806V19.4159H19.8659V19.2012H19.4363V19.4159H19.2216V19.6307H18.8994V20.5971H20.4028Z" fill="#0C0C0C"/>
<path d="M20.5103 20.812V21.7785H20.8325V21.9932H21.0472V22.208H21.4768V21.9932H21.6915V21.7785H22.0137V20.812H20.5103Z" fill="#0C0C0C"/>
<path d="M22.0131 20.5971V19.6307H21.691V19.4159H21.4762V19.2012H21.0467V19.4159H20.8319V19.6307H20.5098V20.5971H22.0131Z" fill="#0C0C0C"/>
<rect x="22.5508" y="18.9863" width="8.5906" height="3.43624" fill="#DFDFE0"/>
<path d="M24.3764 20.5971V19.6307H24.0543V19.4159H23.8395V19.2012H23.41V19.4159H23.1952V19.6307H22.873V20.5971H24.3764Z" fill="#0C0C0C"/>
<path d="M22.8726 20.812V21.7785H23.1948V21.9932H23.4095V22.208H23.8391V21.9932H24.0538V21.7785H24.376V20.812H22.8726Z" fill="#0C0C0C"/>
<path d="M24.4839 20.812V21.7785H24.8061V21.9932H25.0209V22.208H25.4504V21.9932H25.6652V21.7785H25.9873V20.812H24.4839Z" fill="#0C0C0C"/>
<path d="M26.0943 20.812V21.7785H26.4164V21.9932H26.6312V22.208H27.0607V21.9932H27.2755V21.7785H27.5977V20.812H26.0943Z" fill="#0C0C0C"/>
<path d="M27.7056 20.812V21.7785H28.0278V21.9932H28.2425V22.208H28.6721V21.9932H28.8868V21.7785H29.209V20.812H27.7056Z" fill="#0C0C0C"/>
<path d="M25.9868 20.5971V19.6307H25.6646V19.4159H25.4498V19.2012H25.0203V19.4159H24.8055V19.6307H24.4834V20.5971H25.9868Z" fill="#0C0C0C"/>
<path d="M27.5981 20.5971V19.6307H27.2759V19.4159H27.0612V19.2012H26.6316V19.4159H26.4169V19.6307H26.0947V20.5971H27.5981Z" fill="#0C0C0C"/>
<path d="M29.2084 20.5971V19.6307H28.8863V19.4159H28.6715V19.2012H28.242V19.4159H28.0272V19.6307H27.7051V20.5971H29.2084Z" fill="#0C0C0C"/>
<path d="M29.316 20.812V21.7785H29.6381V21.9932H29.8529V22.208H30.2824V21.9932H30.4972V21.7785H30.8193V20.812H29.316Z" fill="#0C0C0C"/>
<path d="M30.8188 20.5971V19.6307H30.4966V19.4159H30.2819V19.2012H29.8523V19.4159H29.6376V19.6307H29.3154V20.5971H30.8188Z" fill="#0C0C0C"/>
<rect x="0.644531" y="19.8457" width="0.42953" height="0.42953" fill="#00E62C"/>
<rect x="0.644531" y="20.7051" width="0.42953" height="0.42953" fill="#00E62C"/>
<rect x="0.644531" y="18.9863" width="0.42953" height="0.42953" fill="#E7311B"/>
<rect x="1.28906" y="19.2012" width="1.93289" height="0.107383" rx="0.0536913" fill="#D9D9D9"/>
<rect x="1.28906" y="20.0605" width="1.93289" height="0.107383" rx="0.0536913" fill="#D9D9D9"/>
<rect x="1.28906" y="20.9199" width="1.93289" height="0.107383" rx="0.0536913" fill="#D9D9D9"/>
<path d="M3.00671 9H28.9933L32 12.2215H0L3.00671 9Z" fill="#6C759B"/>
<path d="M0 12.2217H32V17.8056H0V12.2217Z" fill="#3B3D56"/>
<rect x="4.93945" y="13.2949" width="8.5906" height="3.43624" fill="#DFDFE0"/>
<path d="M6.76507 14.9057V13.9393H6.44293V13.7245H6.22816V13.5098H5.79863V13.7245H5.58387V13.9393H5.26172V14.9057H6.76507Z" fill="#0C0C0C"/>
<path d="M5.26129 15.1206V16.0871H5.58344V16.3018H5.79821V16.5166H6.22774V16.3018H6.4425V16.0871H6.76465V15.1206H5.26129Z" fill="#0C0C0C"/>
<path d="M6.87262 15.1206V16.0871H7.19477V16.3018H7.40953V16.5166H7.83906V16.3018H8.05383V16.0871H8.37598V15.1206H6.87262Z" fill="#0C0C0C"/>
<path d="M8.48297 15.1206V16.0871H8.80512V16.3018H9.01989V16.5166H9.44942V16.3018H9.66418V16.0871H9.98633V15.1206H8.48297Z" fill="#0C0C0C"/>
<path d="M10.0933 15.1206V16.0871H10.4155V16.3018H10.6302V16.5166H11.0598V16.3018H11.2745V16.0871H11.5967V15.1206H10.0933Z" fill="#0C0C0C"/>
<path d="M8.37543 14.9057V13.9393H8.05328V13.7245H7.83851V13.5098H7.40898V13.7245H7.19422V13.9393H6.87207V14.9057H8.37543Z" fill="#0C0C0C"/>
<path d="M9.98675 14.9057V13.9393H9.66461V13.7245H9.44984V13.5098H9.02031V13.7245H8.80555V13.9393H8.4834V14.9057H9.98675Z" fill="#0C0C0C"/>
<path d="M11.5971 14.9057V13.9393H11.275V13.7245H11.0602V13.5098H10.6307V13.7245H10.4159V13.9393H10.0938V14.9057H11.5971Z" fill="#0C0C0C"/>
<path d="M11.7047 15.1206V16.0871H12.0268V16.3018H12.2416V16.5166H12.6711V16.3018H12.8859V16.0871H13.208V15.1206H11.7047Z" fill="#0C0C0C"/>
<path d="M13.2075 14.9057V13.9393H12.8853V13.7245H12.6705V13.5098H12.241V13.7245H12.0262V13.9393H11.7041V14.9057H13.2075Z" fill="#0C0C0C"/>
<rect x="13.7451" y="13.2949" width="8.5906" height="3.43624" fill="#DFDFE0"/>
<path d="M15.5707 14.9057V13.9393H15.2486V13.7245H15.0338V13.5098H14.6043V13.7245H14.3895V13.9393H14.0674V14.9057H15.5707Z" fill="#0C0C0C"/>
<path d="M14.067 15.1206V16.0871H14.3891V16.3018H14.6039V16.5166H15.0334V16.3018H15.2482V16.0871H15.5703V15.1206H14.067Z" fill="#0C0C0C"/>
<path d="M15.6783 15.1206V16.0871H16.0004V16.3018H16.2152V16.5166H16.6447V16.3018H16.8595V16.0871H17.1816V15.1206H15.6783Z" fill="#0C0C0C"/>
<path d="M17.2886 15.1206V16.0871H17.6108V16.3018H17.8255V16.5166H18.2551V16.3018H18.4698V16.0871H18.792V15.1206H17.2886Z" fill="#0C0C0C"/>
<path d="M18.9 15.1206V16.0871H19.2221V16.3018H19.4369V16.5166H19.8664V16.3018H20.0812V16.0871H20.4033V15.1206H18.9Z" fill="#0C0C0C"/>
<path d="M17.1811 14.9057V13.9393H16.8589V13.7245H16.6442V13.5098H16.2146V13.7245H15.9999V13.9393H15.6777V14.9057H17.1811Z" fill="#0C0C0C"/>
<path d="M18.7924 14.9057V13.9393H18.4703V13.7245H18.2555V13.5098H17.826V13.7245H17.6112V13.9393H17.2891V14.9057H18.7924Z" fill="#0C0C0C"/>
<path d="M20.4028 14.9057V13.9393H20.0806V13.7245H19.8659V13.5098H19.4363V13.7245H19.2216V13.9393H18.8994V14.9057H20.4028Z" fill="#0C0C0C"/>
<path d="M20.5103 15.1206V16.0871H20.8325V16.3018H21.0472V16.5166H21.4768V16.3018H21.6915V16.0871H22.0137V15.1206H20.5103Z" fill="#0C0C0C"/>
<path d="M22.0131 14.9057V13.9393H21.691V13.7245H21.4762V13.5098H21.0467V13.7245H20.8319V13.9393H20.5098V14.9057H22.0131Z" fill="#0C0C0C"/>
<rect x="22.5508" y="13.2949" width="8.5906" height="3.43624" fill="#DFDFE0"/>
<path d="M24.3764 14.9057V13.9393H24.0543V13.7245H23.8395V13.5098H23.41V13.7245H23.1952V13.9393H22.873V14.9057H24.3764Z" fill="#0C0C0C"/>
<path d="M22.8726 15.1206V16.0871H23.1948V16.3018H23.4095V16.5166H23.8391V16.3018H24.0538V16.0871H24.376V15.1206H22.8726Z" fill="#0C0C0C"/>
<path d="M24.4839 15.1206V16.0871H24.8061V16.3018H25.0209V16.5166H25.4504V16.3018H25.6652V16.0871H25.9873V15.1206H24.4839Z" fill="#0C0C0C"/>
<path d="M26.0943 15.1206V16.0871H26.4164V16.3018H26.6312V16.5166H27.0607V16.3018H27.2755V16.0871H27.5977V15.1206H26.0943Z" fill="#0C0C0C"/>
<path d="M27.7056 15.1206V16.0871H28.0278V16.3018H28.2425V16.5166H28.6721V16.3018H28.8868V16.0871H29.209V15.1206H27.7056Z" fill="#0C0C0C"/>
<path d="M25.9868 14.9057V13.9393H25.6646V13.7245H25.4498V13.5098H25.0203V13.7245H24.8055V13.9393H24.4834V14.9057H25.9868Z" fill="#0C0C0C"/>
<path d="M27.5981 14.9057V13.9393H27.2759V13.7245H27.0612V13.5098H26.6316V13.7245H26.4169V13.9393H26.0947V14.9057H27.5981Z" fill="#0C0C0C"/>
<path d="M29.2084 14.9057V13.9393H28.8863V13.7245H28.6715V13.5098H28.242V13.7245H28.0272V13.9393H27.7051V14.9057H29.2084Z" fill="#0C0C0C"/>
<path d="M29.316 15.1206V16.0871H29.6381V16.3018H29.8529V16.5166H30.2824V16.3018H30.4972V16.0871H30.8193V15.1206H29.316Z" fill="#0C0C0C"/>
<path d="M30.8188 14.9057V13.9393H30.4966V13.7245H30.2819V13.5098H29.8523V13.7245H29.6376V13.9393H29.3154V14.9057H30.8188Z" fill="#0C0C0C"/>
<rect x="0.644531" y="14.1543" width="0.42953" height="0.42953" fill="#00E62C"/>
<rect x="0.644531" y="15.0137" width="0.42953" height="0.42953" fill="#00E62C"/>
<rect x="0.644531" y="13.2949" width="0.42953" height="0.42953" fill="#E7311B"/>
<rect x="1.28906" y="13.5098" width="1.93289" height="0.107383" rx="0.0536913" fill="#D9D9D9"/>
<rect x="1.28906" y="14.3691" width="1.93289" height="0.107383" rx="0.0536913" fill="#D9D9D9"/>
<rect x="1.28906" y="15.2285" width="1.93289" height="0.107383" rx="0.0536913" fill="#D9D9D9"/>
<rect y="17.8057" width="32" height="0.107383" fill="#0C0C0C"/>
</g>
<defs>
<clipPath id="clip0_33003_2389">
<rect width="32" height="32" fill="white"/>
</clipPath>
</defs>
</svg>
