<svg width="32" height="32" viewBox="0 0 32 32" fill="none" xmlns="http://www.w3.org/2000/svg">
<path d="M16.002 28C22.6294 28 28.002 22.6274 28.002 16C28.002 9.37258 22.6294 4 16.002 4C9.37454 4 4.00195 9.37258 4.00195 16C4.00195 22.6274 9.37454 28 16.002 28Z" fill="#C4C4C4" stroke="#C4C4C4" stroke-linecap="round" stroke-linejoin="round"/>
<path d="M16.0002 23.1996C16.442 23.1996 16.8002 22.8414 16.8002 22.3996C16.8002 21.9578 16.442 21.5996 16.0002 21.5996C15.5584 21.5996 15.2002 21.9578 15.2002 22.3996C15.2002 22.8414 15.5584 23.1996 16.0002 23.1996Z" fill="white"/>
<path fill-rule="evenodd" clip-rule="evenodd" d="M14.2799 9.34254C15.1021 9.00195 16.0069 8.91283 16.8799 9.08647C17.7528 9.2601 18.5546 9.68869 19.1839 10.318C19.8133 10.9474 20.2418 11.7492 20.4155 12.6221C20.5891 13.495 20.5 14.3998 20.1594 15.2221C19.8188 16.0443 19.242 16.7472 18.502 17.2416C18.0432 17.5482 17.5345 17.7661 17.002 17.8875V19C17.002 19.5523 16.5542 20 16.002 20C15.4497 20 15.002 19.5523 15.002 19V17C15.002 16.7348 15.1073 16.4804 15.2948 16.2929C15.4824 16.1054 15.7367 16 16.002 16C16.4964 16 16.9798 15.8534 17.3909 15.5787C17.802 15.304 18.1224 14.9135 18.3116 14.4567C18.5009 13.9999 18.5504 13.4972 18.4539 13.0123C18.3574 12.5273 18.1193 12.0819 17.7697 11.7322C17.4201 11.3826 16.9746 11.1445 16.4897 11.048C16.0047 10.9516 15.5021 11.0011 15.0452 11.1903C14.5884 11.3795 14.198 11.7 13.9233 12.1111C13.6486 12.5222 13.502 13.0055 13.502 13.5C13.502 14.0523 13.0542 14.5 12.502 14.5C11.9497 14.5 11.502 14.0523 11.502 13.5C11.502 12.61 11.7659 11.74 12.2603 10.9999C12.7548 10.2599 13.4576 9.68314 14.2799 9.34254Z" fill="white"/>
</svg>
