<svg width="32" height="24" viewBox="0 0 32 24" fill="none" xmlns="http://www.w3.org/2000/svg">
<path d="M4.351 7H27.449L30.8 11.2H1L4.351 7Z" fill="#6C759B"/>
<path d="M1 11.2002H30.8V17.9002H1V11.2002Z" fill="#3B3D56"/>
<rect x="6.02637" y="12.5049" width="7.77912" height="4.06908" fill="#DFDFE0"/>
<path d="M8.06124 14.4201V13.343H7.70221V13.1036H7.46285V12.8643H6.98414V13.1036H6.74478V13.343H6.38574V14.4201H8.06124Z" fill="#0C0C0C"/>
<path d="M6.38504 14.659V15.7361H6.74408V15.9755H6.98344V16.2148H7.46215V15.9755H7.70151V15.7361H8.06055V14.659H6.38504Z" fill="#0C0C0C"/>
<path d="M8.18094 14.659V15.7361H8.53998V15.9755H8.77934V16.2148H9.25805V15.9755H9.49741V15.7361H9.85645V14.659H8.18094Z" fill="#0C0C0C"/>
<path d="M9.97587 14.659V15.7361H10.3349V15.9755H10.5743V16.2148H11.053V15.9755H11.2923V15.7361H11.6514V14.659H9.97587Z" fill="#0C0C0C"/>
<path d="M11.7708 14.659V15.7361H12.1298V15.9755H12.3692V16.2148H12.8479V15.9755H13.0873V15.7361H13.4463V14.659H11.7708Z" fill="#0C0C0C"/>
<path d="M9.85617 14.4201V13.343H9.49713V13.1036H9.25777V12.8643H8.77906V13.1036H8.5397V13.343H8.18066V14.4201H9.85617Z" fill="#0C0C0C"/>
<path d="M11.6511 14.4201V13.343H11.2921V13.1036H11.0527V12.8643H10.574V13.1036H10.3346V13.343H9.97559V14.4201H11.6511Z" fill="#0C0C0C"/>
<path d="M13.446 14.4201V13.343H13.087V13.1036H12.8476V12.8643H12.3689V13.1036H12.1295V13.343H11.7705V14.4201H13.446Z" fill="#0C0C0C"/>
<rect x="14.0449" y="12.5049" width="7.77912" height="4.06908" fill="#DFDFE0"/>
<path d="M16.0798 14.4201V13.343H15.7208V13.1036H15.4814V12.8643H15.0027V13.1036H14.7633V13.343H14.4043V14.4201H16.0798Z" fill="#0C0C0C"/>
<path d="M14.4036 14.659V15.7361H14.7626V15.9755H15.002V16.2148H15.4807V15.9755H15.7201V15.7361H16.0791V14.659H14.4036Z" fill="#0C0C0C"/>
<path d="M16.1995 14.659V15.7361H16.5585V15.9755H16.7979V16.2148H17.2766V15.9755H17.516V15.7361H17.875V14.659H16.1995Z" fill="#0C0C0C"/>
<path d="M17.9944 14.659V15.7361H18.3535V15.9755H18.5928V16.2148H19.0715V15.9755H19.3109V15.7361H19.6699V14.659H17.9944Z" fill="#0C0C0C"/>
<path d="M19.7893 14.659V15.7361H20.1484V15.9755H20.3877V16.2148H20.8665V15.9755H21.1058V15.7361H21.4648V14.659H19.7893Z" fill="#0C0C0C"/>
<path d="M17.8747 14.4201V13.343H17.5157V13.1036H17.2763V12.8643H16.7976V13.1036H16.5583V13.343H16.1992V14.4201H17.8747Z" fill="#0C0C0C"/>
<path d="M19.6696 14.4201V13.343H19.3106V13.1036H19.0712V12.8643H18.5925V13.1036H18.3532V13.343H17.9941V14.4201H19.6696Z" fill="#0C0C0C"/>
<path d="M21.4646 14.4201V13.343H21.1055V13.1036H20.8662V12.8643H20.3875V13.1036H20.1481V13.343H19.7891V14.4201H21.4646Z" fill="#0C0C0C"/>
<rect x="22.0635" y="12.5049" width="7.77912" height="4.06908" fill="#DFDFE0"/>
<path d="M24.0984 14.4201V13.343H23.7393V13.1036H23.5V12.8643H23.0212V13.1036H22.7819V13.343H22.4229V14.4201H24.0984Z" fill="#0C0C0C"/>
<path d="M22.4222 14.659V15.7361H22.7812V15.9755H23.0205V16.2148H23.4993V15.9755H23.7386V15.7361H24.0977V14.659H22.4222Z" fill="#0C0C0C"/>
<path d="M24.2181 14.659V15.7361H24.5771V15.9755H24.8164V16.2148H25.2952V15.9755H25.5345V15.7361H25.8936V14.659H24.2181Z" fill="#0C0C0C"/>
<path d="M26.013 14.659V15.7361H26.372V15.9755H26.6114V16.2148H27.0901V15.9755H27.3294V15.7361H27.6885V14.659H26.013Z" fill="#0C0C0C"/>
<path d="M27.8079 14.659V15.7361H28.1669V15.9755H28.4063V16.2148H28.885V15.9755H29.1244V15.7361H29.4834V14.659H27.8079Z" fill="#0C0C0C"/>
<path d="M25.8933 14.4201V13.343H25.5342V13.1036H25.2949V12.8643H24.8162V13.1036H24.5768V13.343H24.2178V14.4201H25.8933Z" fill="#0C0C0C"/>
<path d="M27.6882 14.4201V13.343H27.3292V13.1036H27.0898V12.8643H26.6111V13.1036H26.3717V13.343H26.0127V14.4201H27.6882Z" fill="#0C0C0C"/>
<path d="M29.4831 14.4201V13.343H29.1241V13.1036H28.8847V12.8643H28.406V13.1036H28.1667V13.343H27.8076V14.4201H29.4831Z" fill="#0C0C0C"/>
<rect x="1.71777" y="13.4629" width="0.478715" height="0.478715" fill="#00E62C"/>
<rect x="1.71777" y="14.4199" width="0.478715" height="0.478715" fill="#00E62C"/>
<rect x="1.71777" y="12.5049" width="0.478715" height="0.478715" fill="#E7311B"/>
<rect x="2.43652" y="12.7441" width="2.15422" height="0.119679" rx="0.0598394" fill="#D9D9D9"/>
<rect x="2.43652" y="13.7021" width="2.15422" height="0.119679" rx="0.0598394" fill="#D9D9D9"/>
<rect x="2.43652" y="14.6592" width="2.15422" height="0.119679" rx="0.0598394" fill="#D9D9D9"/>
<circle cx="28" cy="17" r="3.5" fill="#23AB36" stroke="white"/>
</svg>
