<svg width="32" height="32" viewBox="0 0 32 32" fill="none" xmlns="http://www.w3.org/2000/svg">
<g clip-path="url(#clip0_33003_2293)">
<path d="M3.00671 12H28.9933L32 15.2215H0L3.00671 12Z" fill="#6C759B"/>
<path d="M0 15.2217H32V20.8056H0V15.2217Z" fill="#3B3D56"/>
<rect x="4.93945" y="16.2949" width="8.5906" height="3.43624" fill="#DFDFE0"/>
<path d="M6.76507 17.9057V16.9393H6.44293V16.7245H6.22816V16.5098H5.79863V16.7245H5.58387V16.9393H5.26172V17.9057H6.76507Z" fill="#0C0C0C"/>
<path d="M5.26129 18.1206V19.0871H5.58344V19.3018H5.79821V19.5166H6.22774V19.3018H6.4425V19.0871H6.76465V18.1206H5.26129Z" fill="#0C0C0C"/>
<path d="M6.87262 18.1206V19.0871H7.19477V19.3018H7.40953V19.5166H7.83906V19.3018H8.05383V19.0871H8.37598V18.1206H6.87262Z" fill="#0C0C0C"/>
<path d="M8.48297 18.1206V19.0871H8.80512V19.3018H9.01989V19.5166H9.44942V19.3018H9.66418V19.0871H9.98633V18.1206H8.48297Z" fill="#0C0C0C"/>
<path d="M10.0943 18.1206V19.0871H10.4164V19.3018H10.6312V19.5166H11.0607V19.3018H11.2755V19.0871H11.5977V18.1206H10.0943Z" fill="#0C0C0C"/>
<path d="M8.37543 17.9057V16.9393H8.05328V16.7245H7.83851V16.5098H7.40898V16.7245H7.19422V16.9393H6.87207V17.9057H8.37543Z" fill="#0C0C0C"/>
<path d="M9.98675 17.9057V16.9393H9.66461V16.7245H9.44984V16.5098H9.02031V16.7245H8.80555V16.9393H8.4834V17.9057H9.98675Z" fill="#0C0C0C"/>
<path d="M11.5971 17.9057V16.9393H11.275V16.7245H11.0602V16.5098H10.6307V16.7245H10.4159V16.9393H10.0938V17.9057H11.5971Z" fill="#0C0C0C"/>
<path d="M11.7047 18.1206V19.0871H12.0268V19.3018H12.2416V19.5166H12.6711V19.3018H12.8859V19.0871H13.208V18.1206H11.7047Z" fill="#0C0C0C"/>
<path d="M13.2075 17.9057V16.9393H12.8853V16.7245H12.6705V16.5098H12.241V16.7245H12.0262V16.9393H11.7041V17.9057H13.2075Z" fill="#0C0C0C"/>
<rect x="13.7451" y="16.2949" width="8.5906" height="3.43624" fill="#DFDFE0"/>
<path d="M15.5707 17.9057V16.9393H15.2486V16.7245H15.0338V16.5098H14.6043V16.7245H14.3895V16.9393H14.0674V17.9057H15.5707Z" fill="#0C0C0C"/>
<path d="M14.067 18.1206V19.0871H14.3891V19.3018H14.6039V19.5166H15.0334V19.3018H15.2482V19.0871H15.5703V18.1206H14.067Z" fill="#0C0C0C"/>
<path d="M15.6783 18.1206V19.0871H16.0004V19.3018H16.2152V19.5166H16.6447V19.3018H16.8595V19.0871H17.1816V18.1206H15.6783Z" fill="#0C0C0C"/>
<path d="M17.2886 18.1206V19.0871H17.6108V19.3018H17.8255V19.5166H18.2551V19.3018H18.4698V19.0871H18.792V18.1206H17.2886Z" fill="#0C0C0C"/>
<path d="M18.899 18.1206V19.0871H19.2211V19.3018H19.4359V19.5166H19.8654V19.3018H20.0802V19.0871H20.4023V18.1206H18.899Z" fill="#0C0C0C"/>
<path d="M17.1811 17.9057V16.9393H16.8589V16.7245H16.6442V16.5098H16.2146V16.7245H15.9999V16.9393H15.6777V17.9057H17.1811Z" fill="#0C0C0C"/>
<path d="M18.7924 17.9057V16.9393H18.4703V16.7245H18.2555V16.5098H17.826V16.7245H17.6112V16.9393H17.2891V17.9057H18.7924Z" fill="#0C0C0C"/>
<path d="M20.4028 17.9057V16.9393H20.0806V16.7245H19.8659V16.5098H19.4363V16.7245H19.2216V16.9393H18.8994V17.9057H20.4028Z" fill="#0C0C0C"/>
<path d="M20.5103 18.1206V19.0871H20.8325V19.3018H21.0472V19.5166H21.4768V19.3018H21.6915V19.0871H22.0137V18.1206H20.5103Z" fill="#0C0C0C"/>
<path d="M22.0131 17.9057V16.9393H21.691V16.7245H21.4762V16.5098H21.0467V16.7245H20.8319V16.9393H20.5098V17.9057H22.0131Z" fill="#0C0C0C"/>
<rect x="22.5508" y="16.2949" width="8.5906" height="3.43624" fill="#DFDFE0"/>
<path d="M24.3764 17.9057V16.9393H24.0543V16.7245H23.8395V16.5098H23.41V16.7245H23.1952V16.9393H22.873V17.9057H24.3764Z" fill="#0C0C0C"/>
<path d="M22.8726 18.1206V19.0871H23.1948V19.3018H23.4095V19.5166H23.8391V19.3018H24.0538V19.0871H24.376V18.1206H22.8726Z" fill="#0C0C0C"/>
<path d="M24.4839 18.1206V19.0871H24.8061V19.3018H25.0209V19.5166H25.4504V19.3018H25.6652V19.0871H25.9873V18.1206H24.4839Z" fill="#0C0C0C"/>
<path d="M26.0943 18.1206V19.0871H26.4164V19.3018H26.6312V19.5166H27.0607V19.3018H27.2755V19.0871H27.5977V18.1206H26.0943Z" fill="#0C0C0C"/>
<path d="M27.7047 18.1206V19.0871H28.0268V19.3018H28.2416V19.5166H28.6711V19.3018H28.8859V19.0871H29.208V18.1206H27.7047Z" fill="#0C0C0C"/>
<path d="M25.9868 17.9057V16.9393H25.6646V16.7245H25.4498V16.5098H25.0203V16.7245H24.8055V16.9393H24.4834V17.9057H25.9868Z" fill="#0C0C0C"/>
<path d="M27.5981 17.9057V16.9393H27.2759V16.7245H27.0612V16.5098H26.6316V16.7245H26.4169V16.9393H26.0947V17.9057H27.5981Z" fill="#0C0C0C"/>
<path d="M29.2084 17.9057V16.9393H28.8863V16.7245H28.6715V16.5098H28.242V16.7245H28.0272V16.9393H27.7051V17.9057H29.2084Z" fill="#0C0C0C"/>
<path d="M29.316 18.1206V19.0871H29.6381V19.3018H29.8529V19.5166H30.2824V19.3018H30.4972V19.0871H30.8193V18.1206H29.316Z" fill="#0C0C0C"/>
<path d="M30.8188 17.9057V16.9393H30.4966V16.7245H30.2819V16.5098H29.8523V16.7245H29.6376V16.9393H29.3154V17.9057H30.8188Z" fill="#0C0C0C"/>
<rect x="0.644531" y="17.1543" width="0.42953" height="0.42953" fill="#00E62C"/>
<rect x="0.644531" y="18.0137" width="0.42953" height="0.42953" fill="#00E62C"/>
<rect x="0.644531" y="16.2949" width="0.42953" height="0.42953" fill="#E7311B"/>
<rect x="1.28906" y="16.5098" width="1.93289" height="0.107383" rx="0.0536913" fill="#D9D9D9"/>
<rect x="1.28906" y="17.3691" width="1.93289" height="0.107383" rx="0.0536913" fill="#D9D9D9"/>
<rect x="1.28906" y="18.2285" width="1.93289" height="0.107383" rx="0.0536913" fill="#D9D9D9"/>
</g>
<defs>
<clipPath id="clip0_33003_2293">
<rect width="32" height="32" fill="white"/>
</clipPath>
</defs>
</svg>
