<svg width="32" height="24" viewBox="0 0 32 24" fill="none" xmlns="http://www.w3.org/2000/svg">
<path d="M23.8182 20.7266C27.2406 20.678 30 17.8885 30 14.4545C30 10.9902 27.1916 8.18182 23.7273 8.18182C23.3925 8.18182 23.0638 8.20805 22.7431 8.25857C21.3083 5.71641 18.5819 4 15.4545 4C11.4259 4 8.06248 6.84843 7.26846 10.6412C7.19453 10.638 7.12018 10.6364 7.04545 10.6364C4.25893 10.6364 2 12.8953 2 15.6818C2 18.4683 4.25893 20.7273 7.04545 20.7273C7.06062 20.7273 7.07577 20.7272 7.09091 20.7271L23.8182 20.7266Z" fill="url(#paint0_linear_33288_23283)"/>
<ellipse cx="23.7268" cy="14.4544" rx="6.27273" ry="6.27273" fill="url(#paint1_linear_33288_23283)"/>
<circle cx="7.04545" cy="15.6822" r="5.04545" fill="url(#paint2_linear_33288_23283)"/>
<defs>
<linearGradient id="paint0_linear_33288_23283" x1="12.9375" y1="5.3125" x2="16" y2="20.7273" gradientUnits="userSpaceOnUse">
<stop stop-color="#5E9CEC"/>
<stop offset="1" stop-color="#91BEF8"/>
</linearGradient>
<linearGradient id="paint1_linear_33288_23283" x1="29.9996" y1="9.13618" x2="20.0905" y2="19.0907" gradientUnits="userSpaceOnUse">
<stop stop-color="#5E9CEC"/>
<stop offset="1" stop-color="#6BA5EF" stop-opacity="0"/>
</linearGradient>
<linearGradient id="paint2_linear_33288_23283" x1="3.86364" y1="12.4094" x2="10.2727" y2="17.8185" gradientUnits="userSpaceOnUse">
<stop stop-color="#ADCFFA"/>
<stop offset="1" stop-color="#ADCFFA" stop-opacity="0"/>
</linearGradient>
</defs>
</svg>
