<svg width="32" height="24" viewBox="0 0 32 24" fill="none" xmlns="http://www.w3.org/2000/svg">
<path d="M3.8 10.2998H28L30.8 13.2998H1L3.8 10.2998Z" fill="#6C759B"/>
<path d="M1 13.2998H30.8V18.4998H1V13.2998Z" fill="#3B3D56"/>
<rect x="5.59961" y="14.2998" width="8" height="3.2" fill="#DFDFE0"/>
<path d="M7.29941 15.8V14.9H6.99941V14.7H6.79941V14.5H6.39941V14.7H6.19941V14.9H5.89941V15.8H7.29941Z" fill="#0C0C0C"/>
<path d="M5.8998 15.9998V16.8998H6.1998V17.0998H6.3998V17.2998H6.7998V17.0998H6.9998V16.8998H7.2998V15.9998H5.8998Z" fill="#0C0C0C"/>
<path d="M7.3998 15.9998V16.8998H7.6998V17.0998H7.8998V17.2998H8.2998V17.0998H8.4998V16.8998H8.7998V15.9998H7.3998Z" fill="#0C0C0C"/>
<path d="M8.8998 15.9998V16.8998H9.1998V17.0998H9.3998V17.2998H9.7998V17.0998H9.9998V16.8998H10.2998V15.9998H8.8998Z" fill="#0C0C0C"/>
<path d="M10.3998 15.9998V16.8998H10.6998V17.0998H10.8998V17.2998H11.2998V17.0998H11.4998V16.8998H11.7998V15.9998H10.3998Z" fill="#0C0C0C"/>
<path d="M8.79941 15.8V14.9H8.49941V14.7H8.29941V14.5H7.89941V14.7H7.69941V14.9H7.39941V15.8H8.79941Z" fill="#0C0C0C"/>
<path d="M10.2994 15.8V14.9H9.99941V14.7H9.79941V14.5H9.39941V14.7H9.19941V14.9H8.89941V15.8H10.2994Z" fill="#0C0C0C"/>
<path d="M11.7994 15.8V14.9H11.4994V14.7H11.2994V14.5H10.8994V14.7H10.6994V14.9H10.3994V15.8H11.7994Z" fill="#0C0C0C"/>
<path d="M11.8998 15.9998V16.8998H12.1998V17.0998H12.3998V17.2998H12.7998V17.0998H12.9998V16.8998H13.2998V15.9998H11.8998Z" fill="#0C0C0C"/>
<path d="M13.2994 15.8V14.9H12.9994V14.7H12.7994V14.5H12.3994V14.7H12.1994V14.9H11.8994V15.8H13.2994Z" fill="#0C0C0C"/>
<rect x="13.7998" y="14.2998" width="8" height="3.2" fill="#DFDFE0"/>
<path d="M15.4996 15.8V14.9H15.1996V14.7H14.9996V14.5H14.5996V14.7H14.3996V14.9H14.0996V15.8H15.4996Z" fill="#0C0C0C"/>
<path d="M14.1 15.9998V16.8998H14.4V17.0998H14.6V17.2998H15V17.0998H15.2V16.8998H15.5V15.9998H14.1Z" fill="#0C0C0C"/>
<path d="M15.6 15.9998V16.8998H15.9V17.0998H16.1V17.2998H16.5V17.0998H16.7V16.8998H17V15.9998H15.6Z" fill="#0C0C0C"/>
<path d="M17.1 15.9998V16.8998H17.4V17.0998H17.6V17.2998H18V17.0998H18.2V16.8998H18.5V15.9998H17.1Z" fill="#0C0C0C"/>
<path d="M18.6 15.9998V16.8998H18.9V17.0998H19.1V17.2998H19.5V17.0998H19.7V16.8998H20V15.9998H18.6Z" fill="#0C0C0C"/>
<path d="M16.9996 15.8V14.9H16.6996V14.7H16.4996V14.5H16.0996V14.7H15.8996V14.9H15.5996V15.8H16.9996Z" fill="#0C0C0C"/>
<path d="M18.4996 15.8V14.9H18.1996V14.7H17.9996V14.5H17.5996V14.7H17.3996V14.9H17.0996V15.8H18.4996Z" fill="#0C0C0C"/>
<path d="M19.9996 15.8V14.9H19.6996V14.7H19.4996V14.5H19.0996V14.7H18.8996V14.9H18.5996V15.8H19.9996Z" fill="#0C0C0C"/>
<path d="M20.1 15.9998V16.8998H20.4V17.0998H20.6V17.2998H21V17.0998H21.2V16.8998H21.5V15.9998H20.1Z" fill="#0C0C0C"/>
<path d="M21.4996 15.8V14.9H21.1996V14.7H20.9996V14.5H20.5996V14.7H20.3996V14.9H20.0996V15.8H21.4996Z" fill="#0C0C0C"/>
<rect x="22" y="14.2998" width="8" height="3.2" fill="#DFDFE0"/>
<path d="M23.6998 15.8V14.9H23.3998V14.7H23.1998V14.5H22.7998V14.7H22.5998V14.9H22.2998V15.8H23.6998Z" fill="#0C0C0C"/>
<path d="M22.3002 15.9998V16.8998H22.6002V17.0998H22.8002V17.2998H23.2002V17.0998H23.4002V16.8998H23.7002V15.9998H22.3002Z" fill="#0C0C0C"/>
<path d="M23.8002 15.9998V16.8998H24.1002V17.0998H24.3002V17.2998H24.7002V17.0998H24.9002V16.8998H25.2002V15.9998H23.8002Z" fill="#0C0C0C"/>
<path d="M25.3002 15.9998V16.8998H25.6002V17.0998H25.8002V17.2998H26.2002V17.0998H26.4002V16.8998H26.7002V15.9998H25.3002Z" fill="#0C0C0C"/>
<path d="M26.8002 15.9998V16.8998H27.1002V17.0998H27.3002V17.2998H27.7002V17.0998H27.9002V16.8998H28.2002V15.9998H26.8002Z" fill="#0C0C0C"/>
<path d="M25.1998 15.8V14.9H24.8998V14.7H24.6998V14.5H24.2998V14.7H24.0998V14.9H23.7998V15.8H25.1998Z" fill="#0C0C0C"/>
<path d="M26.6998 15.8V14.9H26.3998V14.7H26.1998V14.5H25.7998V14.7H25.5998V14.9H25.2998V15.8H26.6998Z" fill="#0C0C0C"/>
<path d="M28.1998 15.8V14.9H27.8998V14.7H27.6998V14.5H27.2998V14.7H27.0998V14.9H26.7998V15.8H28.1998Z" fill="#0C0C0C"/>
<path d="M28.3002 15.9998V16.8998H28.6002V17.0998H28.8002V17.2998H29.2002V17.0998H29.4002V16.8998H29.7002V15.9998H28.3002Z" fill="#0C0C0C"/>
<path d="M29.6998 15.8V14.9H29.3998V14.7H29.1998V14.5H28.7998V14.7H28.5998V14.9H28.2998V15.8H29.6998Z" fill="#0C0C0C"/>
<rect x="1.59961" y="15.0996" width="0.4" height="0.4" fill="#00E62C"/>
<rect x="1.59961" y="15.8994" width="0.4" height="0.4" fill="#00E62C"/>
<rect x="1.59961" y="14.2998" width="0.4" height="0.4" fill="#E7311B"/>
<rect x="2.2002" y="14.5" width="1.8" height="0.1" rx="0.05" fill="#D9D9D9"/>
<rect x="2.2002" y="15.2998" width="1.8" height="0.1" rx="0.05" fill="#D9D9D9"/>
<rect x="2.2002" y="16.0996" width="1.8" height="0.1" rx="0.05" fill="#D9D9D9"/>
<path d="M3.8 5H28L30.8 8H1L3.8 5Z" fill="#6C759B"/>
<path d="M1 8H30.8V13.2H1V8Z" fill="#3B3D56"/>
<rect x="5.59961" y="9" width="8" height="3.2" fill="#DFDFE0"/>
<path d="M7.29941 10.5002V9.6002H6.99941V9.4002H6.79941V9.2002H6.39941V9.4002H6.19941V9.6002H5.89941V10.5002H7.29941Z" fill="#0C0C0C"/>
<path d="M5.8998 10.7V11.6H6.1998V11.8H6.3998V12H6.7998V11.8H6.9998V11.6H7.2998V10.7H5.8998Z" fill="#0C0C0C"/>
<path d="M7.3998 10.7V11.6H7.6998V11.8H7.8998V12H8.2998V11.8H8.4998V11.6H8.7998V10.7H7.3998Z" fill="#0C0C0C"/>
<path d="M8.8998 10.7V11.6H9.1998V11.8H9.3998V12H9.7998V11.8H9.9998V11.6H10.2998V10.7H8.8998Z" fill="#0C0C0C"/>
<path d="M10.3998 10.7V11.6H10.6998V11.8H10.8998V12H11.2998V11.8H11.4998V11.6H11.7998V10.7H10.3998Z" fill="#0C0C0C"/>
<path d="M8.79941 10.5002V9.6002H8.49941V9.4002H8.29941V9.2002H7.89941V9.4002H7.69941V9.6002H7.39941V10.5002H8.79941Z" fill="#0C0C0C"/>
<path d="M10.2994 10.5002V9.6002H9.99941V9.4002H9.79941V9.2002H9.39941V9.4002H9.19941V9.6002H8.89941V10.5002H10.2994Z" fill="#0C0C0C"/>
<path d="M11.7994 10.5002V9.6002H11.4994V9.4002H11.2994V9.2002H10.8994V9.4002H10.6994V9.6002H10.3994V10.5002H11.7994Z" fill="#0C0C0C"/>
<path d="M11.8998 10.7V11.6H12.1998V11.8H12.3998V12H12.7998V11.8H12.9998V11.6H13.2998V10.7H11.8998Z" fill="#0C0C0C"/>
<path d="M13.2994 10.5002V9.6002H12.9994V9.4002H12.7994V9.2002H12.3994V9.4002H12.1994V9.6002H11.8994V10.5002H13.2994Z" fill="#0C0C0C"/>
<rect x="13.7998" y="9" width="8" height="3.2" fill="#DFDFE0"/>
<path d="M15.4996 10.5002V9.6002H15.1996V9.4002H14.9996V9.2002H14.5996V9.4002H14.3996V9.6002H14.0996V10.5002H15.4996Z" fill="#0C0C0C"/>
<path d="M14.1 10.7V11.6H14.4V11.8H14.6V12H15V11.8H15.2V11.6H15.5V10.7H14.1Z" fill="#0C0C0C"/>
<path d="M15.6 10.7V11.6H15.9V11.8H16.1V12H16.5V11.8H16.7V11.6H17V10.7H15.6Z" fill="#0C0C0C"/>
<path d="M17.1 10.7V11.6H17.4V11.8H17.6V12H18V11.8H18.2V11.6H18.5V10.7H17.1Z" fill="#0C0C0C"/>
<path d="M18.6 10.7V11.6H18.9V11.8H19.1V12H19.5V11.8H19.7V11.6H20V10.7H18.6Z" fill="#0C0C0C"/>
<path d="M16.9996 10.5002V9.6002H16.6996V9.4002H16.4996V9.2002H16.0996V9.4002H15.8996V9.6002H15.5996V10.5002H16.9996Z" fill="#0C0C0C"/>
<path d="M18.4996 10.5002V9.6002H18.1996V9.4002H17.9996V9.2002H17.5996V9.4002H17.3996V9.6002H17.0996V10.5002H18.4996Z" fill="#0C0C0C"/>
<path d="M19.9996 10.5002V9.6002H19.6996V9.4002H19.4996V9.2002H19.0996V9.4002H18.8996V9.6002H18.5996V10.5002H19.9996Z" fill="#0C0C0C"/>
<path d="M20.1 10.7V11.6H20.4V11.8H20.6V12H21V11.8H21.2V11.6H21.5V10.7H20.1Z" fill="#0C0C0C"/>
<path d="M21.4996 10.5002V9.6002H21.1996V9.4002H20.9996V9.2002H20.5996V9.4002H20.3996V9.6002H20.0996V10.5002H21.4996Z" fill="#0C0C0C"/>
<rect x="22" y="9" width="8" height="3.2" fill="#DFDFE0"/>
<path d="M23.6998 10.5002V9.6002H23.3998V9.4002H23.1998V9.2002H22.7998V9.4002H22.5998V9.6002H22.2998V10.5002H23.6998Z" fill="#0C0C0C"/>
<path d="M22.3002 10.7V11.6H22.6002V11.8H22.8002V12H23.2002V11.8H23.4002V11.6H23.7002V10.7H22.3002Z" fill="#0C0C0C"/>
<path d="M23.8002 10.7V11.6H24.1002V11.8H24.3002V12H24.7002V11.8H24.9002V11.6H25.2002V10.7H23.8002Z" fill="#0C0C0C"/>
<path d="M25.3002 10.7V11.6H25.6002V11.8H25.8002V12H26.2002V11.8H26.4002V11.6H26.7002V10.7H25.3002Z" fill="#0C0C0C"/>
<path d="M26.8002 10.7V11.6H27.1002V11.8H27.3002V12H27.7002V11.8H27.9002V11.6H28.2002V10.7H26.8002Z" fill="#0C0C0C"/>
<path d="M25.1998 10.5002V9.6002H24.8998V9.4002H24.6998V9.2002H24.2998V9.4002H24.0998V9.6002H23.7998V10.5002H25.1998Z" fill="#0C0C0C"/>
<path d="M26.6998 10.5002V9.6002H26.3998V9.4002H26.1998V9.2002H25.7998V9.4002H25.5998V9.6002H25.2998V10.5002H26.6998Z" fill="#0C0C0C"/>
<path d="M28.1998 10.5002V9.6002H27.8998V9.4002H27.6998V9.2002H27.2998V9.4002H27.0998V9.6002H26.7998V10.5002H28.1998Z" fill="#0C0C0C"/>
<path d="M28.3002 10.7V11.6H28.6002V11.8H28.8002V12H29.2002V11.8H29.4002V11.6H29.7002V10.7H28.3002Z" fill="#0C0C0C"/>
<path d="M29.6998 10.5002V9.6002H29.3998V9.4002H29.1998V9.2002H28.7998V9.4002H28.5998V9.6002H28.2998V10.5002H29.6998Z" fill="#0C0C0C"/>
<rect x="1.59961" y="9.7998" width="0.4" height="0.4" fill="#00E62C"/>
<rect x="1.59961" y="10.5996" width="0.4" height="0.4" fill="#00E62C"/>
<rect x="1.59961" y="9" width="0.4" height="0.4" fill="#E7311B"/>
<rect x="2.2002" y="9.2002" width="1.8" height="0.1" rx="0.05" fill="#D9D9D9"/>
<rect x="2.2002" y="10" width="1.8" height="0.1" rx="0.05" fill="#D9D9D9"/>
<rect x="2.2002" y="10.7998" width="1.8" height="0.1" rx="0.05" fill="#D9D9D9"/>
<rect x="1" y="13.2002" width="29.8" height="0.1" fill="#0C0C0C"/>
<circle cx="28" cy="18" r="3.5" fill="#ED1C24" stroke="white"/>
</svg>
