<svg width="32" height="24" viewBox="0 0 32 24" fill="none" xmlns="http://www.w3.org/2000/svg">
<path d="M13.1968 10.5571L5 7.3877V17.1692L13.1968 20.885V10.5571Z" fill="#D4D4D4"/>
<path d="M13.1968 4L5 7.38799L13.1968 10.5574L21.3935 7.38799L13.1968 4Z" fill="#EBEDEE"/>
<path d="M21.393 7.3877L13.1963 10.5571V20.885L21.393 17.1145V7.3877Z" fill="#C4C4C4"/>
<path d="M22.3496 21C24.5587 21 26.3496 19.2091 26.3496 17C26.3496 14.7909 24.5587 13 22.3496 13C20.1405 13 18.3496 14.7909 18.3496 17C18.3496 19.2091 20.1405 21 22.3496 21Z" fill="#565758" stroke="white" stroke-linecap="round" stroke-linejoin="round"/>
<path d="M22.3487 19.4005C22.496 19.4005 22.6154 19.2811 22.6154 19.1339C22.6154 18.9866 22.496 18.8672 22.3487 18.8672C22.2014 18.8672 22.082 18.9866 22.082 19.1339C22.082 19.2811 22.2014 19.4005 22.3487 19.4005Z" fill="white"/>
<path fill-rule="evenodd" clip-rule="evenodd" d="M21.7756 14.7812C22.0497 14.6676 22.3513 14.6379 22.6422 14.6958C22.9332 14.7537 23.2005 14.8966 23.4103 15.1063C23.62 15.3161 23.7629 15.5834 23.8208 15.8744C23.8787 16.1653 23.849 16.4669 23.7354 16.741C23.6219 17.0151 23.4296 17.2494 23.183 17.4142C23.03 17.5164 22.8604 17.589 22.6829 17.6295V18.0003C22.6829 18.1844 22.5337 18.3337 22.3496 18.3337C22.1655 18.3337 22.0163 18.1844 22.0163 18.0003V17.3337C22.0163 17.2453 22.0514 17.1605 22.1139 17.098C22.1764 17.0354 22.2612 17.0003 22.3496 17.0003C22.5144 17.0003 22.6755 16.9515 22.8126 16.8599C22.9496 16.7683 23.0564 16.6382 23.1195 16.4859C23.1826 16.3336 23.1991 16.1661 23.1669 16.0044C23.1348 15.8428 23.0554 15.6943 22.9389 15.5777C22.8223 15.4612 22.6738 15.3818 22.5122 15.3497C22.3505 15.3175 22.183 15.334 22.0307 15.3971C21.8784 15.4602 21.7483 15.567 21.6567 15.704C21.5652 15.8411 21.5163 16.0022 21.5163 16.167C21.5163 16.3511 21.367 16.5003 21.1829 16.5003C20.9988 16.5003 20.8496 16.3511 20.8496 16.167C20.8496 15.8703 20.9376 15.5803 21.1024 15.3336C21.2672 15.087 21.5015 14.8947 21.7756 14.7812Z" fill="white"/>
</svg>
