
<svg width="32" height="32" viewBox="0 0 32 32" fill="none" xmlns="http://www.w3.org/2000/svg">
<g clip-path="url(#clip0_2918_24060)">
<path d="M24.8571 11H7.71429C7.3198 11 7 11.3198 7 11.7143V20.2857C7 20.6802 7.3198 21 7.71429 21H24.8571C25.2516 21 25.5714 20.6802 25.5714 20.2857V11.7143C25.5714 11.3198 25.2516 11 24.8571 11Z" fill="currentColor"/>
<path d="M24.8571 11H7.71429C7.3198 11 7 11.3198 7 11.7143V20.2857C7 20.6802 7.3198 21 7.71429 21H24.8571C25.2516 21 25.5714 20.6802 25.5714 20.2857V11.7143C25.5714 11.3198 25.2516 11 24.8571 11Z" stroke="currentColor" stroke-linecap="round" stroke-linejoin="round"/>
<path d="M21.6429 17.0714C22.2346 17.0714 22.7143 16.5917 22.7143 16C22.7143 15.4083 22.2346 14.9286 21.6429 14.9286C21.0511 14.9286 20.5714 15.4083 20.5714 16C20.5714 16.5917 21.0511 17.0714 21.6429 17.0714Z" fill="white"/>
</g>
<defs>
<clipPath id="clip0_2918_24060">
<rect width="32" height="32" fill="white"/>
</clipPath>
</defs>
</svg>
