<svg width="32" height="24" viewBox="0 0 32 24" fill="none" xmlns="http://www.w3.org/2000/svg">
<path d="M1 14.5957C1 14.5957 1.02992 14.9235 1.596 15.0129C4.22741 15.3385 11.333 15.8175 15.9 15.8175C20.8422 15.8175 28.0943 15.2817 30.204 15.0129C30.5865 14.9642 30.8 14.5957 30.8 14.5957L30.364 16.9499C30.364 16.9499 30.3285 17.2583 30.1444 17.5161C30.0167 17.6949 29.8774 17.8387 29.31 17.8783C26.9463 18.0433 20.4048 18.4697 15.9 18.4697C11.3761 18.4697 4.79824 18.0397 2.4602 17.8762C1.91122 17.8378 1.8344 17.6949 1.6854 17.5459C1.5364 17.3969 1.46356 17.0989 1.46356 17.0989L1 14.5957Z" fill="url(#paint0_linear_33287_20407)"/>
<path d="M4.21875 17.9939C7.23459 18.188 12.2398 18.4695 15.9002 18.4695C19.6715 18.4695 24.8703 18.1707 27.8501 17.9766C27.4625 18.2972 26.9881 18.489 26.4861 18.5225C24.5978 18.6484 19.613 18.9545 15.9002 18.9464C12.2635 18.9384 7.38778 18.6218 5.5536 18.4932C5.06867 18.4592 4.60801 18.2851 4.21875 17.9939Z" fill="#3B3D56"/>
<path d="M1.596 15.0128C1.02992 14.9234 1 14.5956 1 14.5956V14.2678L6.58613 6.6986C6.58613 6.6986 6.75576 6.47792 6.96 6.341C7.18711 6.18874 7.21308 6.13632 7.6454 6.04903C9.21336 5.73243 13.1391 5 15.9 5C18.6966 5 22.6883 5.75148 24.2142 6.06109C24.6101 6.14142 24.678 6.18116 24.8698 6.341C25.0322 6.4763 25.1919 6.6688 25.1919 6.6688L30.8 14.2678V14.5956C30.8 14.5956 30.5865 14.9641 30.204 15.0128C28.0943 15.2816 20.8422 15.8174 15.9 15.8174C11.333 15.8174 4.22741 15.3384 1.596 15.0128Z" fill="url(#paint1_linear_33287_20407)"/>
<path d="M1.596 15.0128C1.02992 14.9234 1 14.5956 1 14.5956V14.2678L6.58613 6.6986C6.58613 6.6986 6.75576 6.47792 6.96 6.341C7.18711 6.18874 7.21308 6.13632 7.6454 6.04903C9.21336 5.73243 13.1391 5 15.9 5C18.6966 5 22.6883 5.75148 24.2142 6.06109C24.6101 6.14142 24.678 6.18116 24.8698 6.341C25.0322 6.4763 25.1919 6.6688 25.1919 6.6688L30.8 14.2678V14.5956C30.8 14.5956 30.5865 14.9641 30.204 15.0128C28.0943 15.2816 20.8422 15.8174 15.9 15.8174C11.333 15.8174 4.22741 15.3384 1.596 15.0128Z" fill="url(#paint2_linear_33287_20407)" fill-opacity="0.6"/>
<path d="M1.596 15.0128C1.02992 14.9234 1 14.5955 1 14.5955V14.2678C1 14.2678 7.64528 11.9434 15.9 11.9434C24.1547 11.9434 30.8 14.2678 30.8 14.2678V14.5955C30.8 14.5955 30.5865 14.964 30.204 15.0128C28.0943 15.2815 20.8422 15.8173 15.9 15.8173C11.333 15.8173 4.22741 15.3384 1.596 15.0128Z" fill="url(#paint3_linear_33287_20407)"/>
<path d="M1.596 15.0128C1.02992 14.9234 1 14.5955 1 14.5955V14.2678C1 14.2678 7.64528 11.9434 15.9 11.9434C24.1547 11.9434 30.8 14.2678 30.8 14.2678V14.5955C30.8 14.5955 30.5865 14.964 30.204 15.0128C28.0943 15.2815 20.8422 15.8173 15.9 15.8173C11.333 15.8173 4.22741 15.3384 1.596 15.0128Z" fill="url(#paint4_linear_33287_20407)"/>
<path d="M1.596 15.0128C1.02992 14.9234 1 14.5955 1 14.5955V14.2678C1 14.2678 7.64528 11.9434 15.9 11.9434C24.1547 11.9434 30.8 14.2678 30.8 14.2678V14.5955C30.8 14.5955 30.5865 14.964 30.204 15.0128C28.0943 15.2815 20.8422 15.8173 15.9 15.8173C11.333 15.8173 4.22741 15.3384 1.596 15.0128Z" fill="url(#paint5_linear_33287_20407)" fill-opacity="0.3"/>
<path d="M1.596 15.0131C1.02992 14.9237 1 14.5959 1 14.5959V14.2681L1.14912 14.2383V14.5661C1.14912 14.6555 1.23827 14.8045 1.596 14.8641C1.95372 14.9237 10.8935 14.5661 15.9 14.5661C20.4992 14.6555 29.7869 14.8224 30.1445 14.7747C30.5319 14.723 30.6511 14.572 30.6511 14.4767V14.2383L30.8 14.2681V14.5959C30.8 14.5959 30.5865 14.9644 30.204 15.0131C28.0943 15.2818 20.8422 15.8177 15.9 15.8177C11.333 15.8177 4.22741 15.3387 1.596 15.0131Z" fill="#EEF4F8"/>
<rect x="15.543" y="15.3105" width="0.2384" height="1.0728" fill="#3B3D56"/>
<path d="M13.9336 15.3105H14.172L14.1124 15.8469V16.3833H13.874V15.8469L13.9336 15.3105Z" fill="#3B3D56"/>
<path d="M12.1455 15.3105H12.3839L12.3243 15.8469V16.3833H12.0859V15.8469L12.1455 15.3105Z" fill="#3B3D56"/>
<path d="M17.1514 15.3105H17.3898L17.4494 15.8469V16.3833H17.211V15.8469L17.1514 15.3105Z" fill="#3B3D56"/>
<path d="M18.9395 15.3105H19.1779L19.2375 15.8469V16.3833H18.9991V15.8469L18.9395 15.3105Z" fill="#3B3D56"/>
<circle cx="28" cy="18" r="3.5" fill="#23AB36" stroke="white"/>
<defs>
<linearGradient id="paint0_linear_33287_20407" x1="-0.9668" y1="18.4697" x2="32.4986" y2="18.4697" gradientUnits="userSpaceOnUse">
<stop stop-color="#C2CADC"/>
<stop offset="0.177083" stop-color="#D2DAEC"/>
<stop offset="0.489583" stop-color="#BCC6DE"/>
<stop offset="0.802762" stop-color="#D2DAEC"/>
<stop offset="1" stop-color="#C2CADC"/>
</linearGradient>
<linearGradient id="paint1_linear_33287_20407" x1="15.9" y1="-1.2878" x2="15.9" y2="11.6156" gradientUnits="userSpaceOnUse">
<stop stop-color="#B1BDD8"/>
<stop offset="1" stop-color="#EEF4F8"/>
</linearGradient>
<linearGradient id="paint2_linear_33287_20407" x1="-5.6752" y1="15.7876" x2="36.313" y2="15.7876" gradientUnits="userSpaceOnUse">
<stop stop-color="#D6DDED"/>
<stop offset="0.510417" stop-color="#EEF4F8"/>
<stop offset="1" stop-color="#D6DDED"/>
</linearGradient>
<linearGradient id="paint3_linear_33287_20407" x1="15.9" y1="10.513" x2="15.9" y2="15.8173" gradientUnits="userSpaceOnUse">
<stop stop-color="#C2CADC"/>
<stop offset="1" stop-color="#EEF4F8" stop-opacity="0.5"/>
</linearGradient>
<linearGradient id="paint4_linear_33287_20407" x1="15.9" y1="10.513" x2="15.9" y2="15.8173" gradientUnits="userSpaceOnUse">
<stop stop-color="#C2CADC"/>
<stop offset="1" stop-color="#EEF4F8" stop-opacity="0.5"/>
</linearGradient>
<linearGradient id="paint5_linear_33287_20407" x1="-1.682" y1="15.7876" x2="31.5748" y2="15.7876" gradientUnits="userSpaceOnUse">
<stop stop-color="#B1BDD8"/>
<stop offset="0.520833" stop-color="#EEF4F8"/>
<stop offset="1" stop-color="#B1BDD8"/>
</linearGradient>
</defs>
</svg>
