<svg width="32" height="32" viewBox="0 0 32 32" fill="none" xmlns="http://www.w3.org/2000/svg">
<path d="M8.5 26L10 30L11.5 26L13 30L14.5 26M16 27V30M23 26H21V28M21 30V28M21 28H22.5M24.5 27V30M18 28H19" stroke="#565758" stroke-linecap="round" stroke-linejoin="round"/>
<path d="M0 16.3037C0 16.3037 0.032125 16.6557 0.639995 16.7517C3.46568 17.1014 11.0958 17.6157 16 17.6157C21.3071 17.6157 29.0945 17.0403 31.36 16.7517C31.7708 16.6994 32 16.3037 32 16.3037L31.5319 18.8317C31.5319 18.8317 31.4937 19.1629 31.296 19.4397C31.1589 19.6317 31.0092 19.7861 30.4 19.8286C27.8618 20.0059 20.8373 20.4637 16 20.4637C11.1422 20.4637 4.07865 20.002 1.568 19.8264C0.978497 19.7852 0.896 19.6317 0.736 19.4717C0.576 19.3117 0.497784 18.9917 0.497784 18.9917L0 16.3037Z" fill="url(#paint0_linear_33003_2419)"/>
<path d="M3.45605 19.9532C6.69454 20.1616 12.0693 20.4639 15.9999 20.4639C20.0496 20.4639 25.6322 20.1431 28.8321 19.9346C28.4157 20.2789 27.9063 20.4849 27.3673 20.5208C25.3396 20.656 19.9868 20.9847 15.9999 20.976C12.0947 20.9674 6.85904 20.6274 4.88945 20.4893C4.36872 20.4529 3.87406 20.2659 3.45605 19.9532Z" fill="#3B3D56"/>
<path d="M0.639995 16.752C0.032125 16.656 0 16.304 0 16.304V15.952L5.99852 7.824C5.99852 7.824 6.18069 7.58703 6.4 7.44C6.64388 7.2765 6.67176 7.22021 7.136 7.12647C8.81971 6.7865 13.0352 6 16 6C19.0031 6 23.2895 6.80696 24.928 7.13942C25.3531 7.22568 25.426 7.26836 25.632 7.44C25.8063 7.58529 25.9779 7.792 25.9779 7.792L32 15.952V16.304C32 16.304 31.7708 16.6997 31.36 16.752C29.0945 17.0406 21.3071 17.616 16 17.616C11.0958 17.616 3.46568 17.1016 0.639995 16.752Z" fill="url(#paint1_linear_33003_2419)"/>
<path d="M0.639995 16.752C0.032125 16.656 0 16.304 0 16.304V15.952L5.99852 7.824C5.99852 7.824 6.18069 7.58703 6.4 7.44C6.64388 7.2765 6.67176 7.22021 7.136 7.12647C8.81971 6.7865 13.0352 6 16 6C19.0031 6 23.2895 6.80696 24.928 7.13942C25.3531 7.22568 25.426 7.26836 25.632 7.44C25.8063 7.58529 25.9779 7.792 25.9779 7.792L32 15.952V16.304C32 16.304 31.7708 16.6997 31.36 16.752C29.0945 17.0406 21.3071 17.616 16 17.616C11.0958 17.616 3.46568 17.1016 0.639995 16.752Z" fill="url(#paint2_linear_33003_2419)" fill-opacity="0.6"/>
<path d="M0.639995 16.7521C0.032125 16.6561 0 16.304 0 16.304V15.9521C0 15.9521 7.13588 13.4561 16 13.4561C24.8641 13.4561 32 15.9521 32 15.9521V16.304C32 16.304 31.7708 16.6997 31.36 16.7521C29.0945 17.0407 21.3071 17.616 16 17.616C11.0958 17.616 3.46568 17.1017 0.639995 16.7521Z" fill="url(#paint3_linear_33003_2419)"/>
<path d="M0.639995 16.7521C0.032125 16.6561 0 16.304 0 16.304V15.9521C0 15.9521 7.13588 13.4561 16 13.4561C24.8641 13.4561 32 15.9521 32 15.9521V16.304C32 16.304 31.7708 16.6997 31.36 16.7521C29.0945 17.0407 21.3071 17.616 16 17.616C11.0958 17.616 3.46568 17.1017 0.639995 16.7521Z" fill="url(#paint4_linear_33003_2419)"/>
<path d="M0.639995 16.7521C0.032125 16.6561 0 16.304 0 16.304V15.9521C0 15.9521 7.13588 13.4561 16 13.4561C24.8641 13.4561 32 15.9521 32 15.9521V16.304C32 16.304 31.7708 16.6997 31.36 16.7521C29.0945 17.0407 21.3071 17.616 16 17.616C11.0958 17.616 3.46568 17.1017 0.639995 16.7521Z" fill="url(#paint5_linear_33003_2419)" fill-opacity="0.3"/>
<path d="M0.639995 16.7519C0.032125 16.6559 0 16.3039 0 16.3039V15.9519L0.160125 15.9199V16.2719C0.160125 16.3679 0.255864 16.5279 0.639995 16.5919C1.02413 16.6559 10.6239 16.2719 16 16.2719C20.9387 16.3679 30.9121 16.5471 31.2961 16.4959C31.7121 16.4405 31.8401 16.2783 31.8401 16.1759V15.9199L32 15.9519V16.3039C32 16.3039 31.7708 16.6996 31.36 16.7519C29.0945 17.0405 21.3071 17.6159 16 17.6159C11.0958 17.6159 3.46568 17.1016 0.639995 16.7519Z" fill="#EEF4F8"/>
<rect x="15.6162" y="17.0723" width="0.256" height="1.152" fill="#3B3D56"/>
<path d="M13.8882 17.0723H14.1442L14.0802 17.6483V18.2243H13.8242V17.6483L13.8882 17.0723Z" fill="#3B3D56"/>
<path d="M11.9683 17.0723H12.2243L12.1603 17.6483V18.2243H11.9043V17.6483L11.9683 17.0723Z" fill="#3B3D56"/>
<path d="M17.3438 17.0723H17.5997L17.6637 17.6483V18.2243H17.4077V17.6483L17.3438 17.0723Z" fill="#3B3D56"/>
<path d="M19.2637 17.0723H19.5197L19.5837 17.6483V18.2243H19.3277V17.6483L19.2637 17.0723Z" fill="#3B3D56"/>
<defs>
<linearGradient id="paint0_linear_33003_2419" x1="-2.112" y1="20.4637" x2="33.824" y2="20.4637" gradientUnits="userSpaceOnUse">
<stop stop-color="#C2CADC"/>
<stop offset="0.177083" stop-color="#D2DAEC"/>
<stop offset="0.489583" stop-color="#BCC6DE"/>
<stop offset="0.802762" stop-color="#D2DAEC"/>
<stop offset="1" stop-color="#C2CADC"/>
</linearGradient>
<linearGradient id="paint1_linear_33003_2419" x1="16" y1="-0.752" x2="16" y2="13.104" gradientUnits="userSpaceOnUse">
<stop stop-color="#B1BDD8"/>
<stop offset="1" stop-color="#EEF4F8"/>
</linearGradient>
<linearGradient id="paint2_linear_33003_2419" x1="-7.168" y1="17.584" x2="37.92" y2="17.584" gradientUnits="userSpaceOnUse">
<stop stop-color="#D6DDED"/>
<stop offset="0.510417" stop-color="#EEF4F8"/>
<stop offset="1" stop-color="#D6DDED"/>
</linearGradient>
<linearGradient id="paint3_linear_33003_2419" x1="16" y1="11.9201" x2="16" y2="17.616" gradientUnits="userSpaceOnUse">
<stop stop-color="#C2CADC"/>
<stop offset="1" stop-color="#EEF4F8" stop-opacity="0.5"/>
</linearGradient>
<linearGradient id="paint4_linear_33003_2419" x1="16" y1="11.9201" x2="16" y2="17.616" gradientUnits="userSpaceOnUse">
<stop stop-color="#C2CADC"/>
<stop offset="1" stop-color="#EEF4F8" stop-opacity="0.5"/>
</linearGradient>
<linearGradient id="paint5_linear_33003_2419" x1="-2.88" y1="17.5841" x2="32.832" y2="17.5841" gradientUnits="userSpaceOnUse">
<stop stop-color="#B1BDD8"/>
<stop offset="0.520833" stop-color="#EEF4F8"/>
<stop offset="1" stop-color="#B1BDD8"/>
</linearGradient>
</defs>
</svg>
