<svg width="120" height="70" viewBox="0 0 120 70" fill="none" xmlns="http://www.w3.org/2000/svg">
<path d="M41.262 14C41.262 12.067 42.829 10.5 44.762 10.5H74.8572C76.7902 10.5 78.3572 12.067 78.3572 14V54.7381H41.262V14Z" fill="white" stroke="#333333"/>
<path d="M41.1587 18.7302H78.4603" stroke="#333333" stroke-linejoin="round"/>
<path d="M41.1587 38.5715H78.4603" stroke="#333333" stroke-linejoin="round"/>
<path d="M60.2063 18.7302V38.9683" stroke="#333333" stroke-linejoin="round"/>
<circle cx="73.3016" cy="46.5079" r="1.88095" stroke="#333333"/>
<circle cx="2.38095" cy="2.38095" r="1.88095" transform="matrix(-1 0 0 1 48.6985 44.127)" stroke="#333333"/>
<path d="M42.8491 54.9443H49.7856V57.9999C49.7856 58.8283 49.1141 59.4999 48.2856 59.4999H44.3491C43.5207 59.4999 42.8491 58.8283 42.8491 57.9999V54.9443Z" fill="white" stroke="#333333"/>
<path d="M69.8333 54.9443H76.7698V57.9999C76.7698 58.8283 76.0982 59.4999 75.2698 59.4999H71.3333C70.5048 59.4999 69.8333 58.8283 69.8333 57.9999V54.9443Z" fill="white" stroke="#333333"/>
<path d="M41.1587 22.3015H40C37.7909 22.3015 36 24.0924 36 26.3015V31.0317" stroke="#333333" stroke-linejoin="round"/>
<path d="M78.8571 22.3015H80.0159C82.225 22.3015 84.0159 24.0924 84.0159 26.3015V31.0317" stroke="#333333" stroke-linejoin="round"/>
<rect x="53.9602" y="13.6746" width="11.6984" height="2.1746" rx="1.0873" stroke="#333333"/>
</svg>
