<svg width="32" height="32" viewBox="0 0 32 32" fill="none" xmlns="http://www.w3.org/2000/svg">
<path fill-rule="evenodd" clip-rule="evenodd" d="M16 28C22.6274 28 28 22.6274 28 16C28 9.37258 22.6274 4 16 4C9.37258 4 4 9.37258 4 16C4 22.6274 9.37258 28 16 28ZM21.6089 10L17.1416 15.1928H17.1414L22 22.2637H18.4267L15.1549 17.5022L11.0587 22.2637H10L14.6849 16.8182L10 10H13.5733L16.6714 14.5089L20.5503 10H21.6089ZM15.217 16.1993L15.6916 16.8783V16.8785L18.9248 21.503H20.5508L16.5888 15.8358L16.1141 15.1568L13.0661 10.7969H11.4401L15.217 16.1993Z" fill="#FFF"/>
</svg>
