<svg width="32" height="32" viewBox="0 0 32 32" fill="none" xmlns="http://www.w3.org/2000/svg">
<path fill-rule="evenodd" clip-rule="evenodd" d="M22.9152 12.4526C22.9212 12.6075 22.9273 12.7623 22.9273 12.918C22.9273 17.6291 19.3364 23.0616 12.775 23.0616C10.7586 23.0616 8.88749 22.476 7.30963 21.4613C7.58818 21.4941 7.87192 21.5123 8.15652 21.5123C9.83299 21.5123 11.3676 20.9422 12.5916 19.9846C11.0276 19.9535 9.71361 18.9223 9.25773 17.5088C9.47572 17.5504 9.70063 17.5711 9.93074 17.5711C10.2534 17.5711 10.5709 17.5287 10.8685 17.4457C9.23697 17.1204 8.00513 15.6801 8.00513 13.9526C8.00513 13.9362 8.00513 13.9215 8.01119 13.905C8.48783 14.1749 9.03887 14.3306 9.62278 14.3505C8.6669 13.7139 8.03714 12.6204 8.03714 11.3825C8.03714 10.7294 8.21534 10.1187 8.51984 9.59102C10.2776 11.7502 12.9065 13.168 15.8693 13.3177C15.8088 13.0564 15.7785 12.7839 15.7785 12.5036C15.7785 10.5357 17.3745 8.93877 19.3408 8.93877C20.3693 8.93877 21.2993 9.37302 21.9437 10.0625C22.7577 9.90416 23.5259 9.60572 24.2119 9.19569C23.9437 10.0313 23.384 10.7294 22.6453 11.1715C23.365 11.0841 24.0536 10.8955 24.6903 10.61C24.2136 11.3246 23.6107 11.95 22.9152 12.4526ZM15.9991 4C9.38149 4 4 9.38408 4 15.9983C4 22.6176 9.38149 28.0009 15.9991 28.0009C22.6151 28.0009 28 22.6176 28 15.9983C28 9.38408 22.6151 4 15.9991 4Z" fill="#333333"/>
</svg>
