<svg width="24" height="17" viewBox="0 0 24 17" fill="none" xmlns="http://www.w3.org/2000/svg">
<path fill-rule="evenodd" clip-rule="evenodd" d="M7.50677 16.2542C16.0834 16.2542 20.7736 10.0014 20.7736 4.57936C20.7736 4.40168 20.7695 4.2248 20.7603 4.04888C21.6707 3.46976 22.462 2.74712 23.0864 1.92432C22.2509 2.25088 21.3518 2.47104 20.4087 2.57032C21.3713 2.0624 22.1105 1.25856 22.459 0.30048C21.5579 0.77048 20.5604 1.1124 19.4983 1.2964C18.6474 0.49888 17.4356 0 16.0947 0C13.5194 0 11.4311 1.83768 11.4311 4.10304C11.4311 4.42512 11.4721 4.73816 11.5521 5.03864C7.67695 4.8672 4.24049 3.23432 1.94104 0.75152C1.54022 1.35776 1.30949 2.0624 1.30949 2.81392C1.30949 4.23752 2.13277 5.49424 3.38449 6.22944C2.61968 6.20872 1.90104 6.02376 1.27259 5.71608C1.27159 5.7332 1.27159 5.7504 1.27159 5.7684C1.27159 7.75592 2.87904 9.41496 5.01249 9.7912C4.62086 9.88496 4.20877 9.9356 3.78331 9.9356C3.48286 9.9356 3.19068 9.90936 2.90677 9.86152C3.50031 11.4918 5.22159 12.6781 7.26277 12.7115C5.66649 13.8122 3.65613 14.468 1.47149 14.468C1.09522 14.468 0.724131 14.449 0.359131 14.4111C2.42286 15.575 4.87304 16.2542 7.50677 16.2542Z" fill="white"/>
</svg>
