<svg width="40" height="40" viewBox="0 0 40 40" fill="none" xmlns="http://www.w3.org/2000/svg">
<path d="M34.96 20.0001C34.96 28.2838 28.2534 35 19.9799 35C11.7062 35 5 28.2838 5 20.0001C5 11.7154 11.7062 5 19.9799 5C28.2534 5 34.96 11.7154 34.96 20.0001Z" fill="#333333"/>
<path d="M12.2026 19.9993C12.2026 21.0644 11.3403 21.9278 10.2766 21.9278C9.21288 21.9278 8.35059 21.0644 8.35059 19.9993C8.35059 18.9343 9.21288 18.0708 10.2766 18.0708C11.3403 18.0708 12.2026 18.9343 12.2026 19.9993ZM23.1608 29.3766C23.6926 30.2988 24.8703 30.6148 25.7913 30.0823C26.7124 29.55 27.0279 28.3707 26.4961 27.4481C25.9644 26.5257 24.7865 26.21 23.8656 26.7424C22.9446 27.2749 22.629 28.4541 23.1608 29.3766ZM26.4963 12.5509C27.0281 11.6284 26.7127 10.4493 25.7913 9.91681C24.8706 9.38447 23.6926 9.70031 23.1608 10.6226C22.629 11.5448 22.9447 12.7243 23.8656 13.2566C24.7866 13.7891 25.9645 13.4731 26.4963 12.5509ZM19.9779 14.4996C22.8472 14.4996 25.2025 16.7029 25.449 19.5121L28.2352 19.4686C28.1033 17.3806 27.1996 15.5027 25.8058 14.1179C25.0676 14.4032 24.2118 14.3644 23.4732 13.9373C22.734 13.5099 22.2724 12.7864 22.1504 12.0029C21.4581 11.8147 20.7299 11.7137 19.9779 11.7137C18.6597 11.7137 17.4136 12.0224 16.3074 12.5714L17.6634 15.0104C18.3669 14.6828 19.151 14.4996 19.9779 14.4996ZM14.4853 19.9996C14.4853 18.1387 15.4083 16.4939 16.8208 15.4985L15.3895 13.1036C13.732 14.2118 12.4963 15.9034 11.9755 17.885C12.5922 18.3826 12.9873 19.1446 12.9873 19.9993C12.9873 20.8539 12.5923 21.6159 11.9754 22.1138C12.4963 24.0955 13.7318 25.7867 15.3895 26.8952L16.8208 24.5002C15.4084 23.5051 14.4853 21.8604 14.4853 19.9996ZM19.9779 25.4996C19.151 25.4996 18.3669 25.316 17.6634 24.9882L16.3074 27.4273C17.4134 27.9765 18.6597 28.2853 19.9779 28.2853C20.7297 28.2853 21.4579 28.1841 22.1504 27.9959C22.2724 27.2124 22.7339 26.489 23.473 26.0616C24.2118 25.6347 25.0675 25.5957 25.8057 25.8812C27.1995 24.4964 28.1033 22.6185 28.2352 20.5304L25.449 20.4869C25.2025 23.296 22.8473 25.4996 19.9779 25.4996Z" fill="white"/>
</svg>
