
<svg width="24" height="24" viewBox="0 0 24 24" fill="none" xmlns="http://www.w3.org/2000/svg">
<path d="M19.849 4.32292C17.6337 2.10764 15.0556 1 12.1146 1C9.09722 1 6.5 2.10764 4.32292 4.32292C2.10764 6.38542 1 8.98264 1 12.1146C1 15.1701 2.10764 17.7483 4.32292 19.849C6.53819 21.9497 9.13542 23 12.1146 23C15.0938 23 17.6719 21.9497 19.849 19.849C21.9497 17.6719 23 15.0938 23 12.1146C23 9.13542 21.9497 6.53819 19.849 4.32292ZM12.7448 18.8177C12.5156 19.0851 12.2292 19.2188 11.8854 19.2188C11.5417 19.2188 11.2552 19.0851 11.026 18.8177C10.7969 18.5885 10.6823 18.2639 10.6823 17.8438C10.6823 17.4618 10.7969 17.1372 11.026 16.8698C11.2552 16.6406 11.5417 16.526 11.8854 16.526C12.2292 16.526 12.5156 16.6406 12.7448 16.8698C12.974 17.1372 13.0885 17.4618 13.0885 17.8438C13.0885 18.2639 12.974 18.5885 12.7448 18.8177ZM15.3229 9.19271C15.1319 9.57465 14.9219 9.9375 14.6927 10.2812C14.5017 10.625 14.2535 10.9497 13.9479 11.2552C13.6806 11.7135 13.4323 12.0382 13.2031 12.2292C13.0503 12.4965 12.8976 12.8594 12.7448 13.3177C12.6684 13.5851 12.6302 14.0434 12.6302 14.6927H11.026C10.9115 14.0816 10.9115 13.5851 11.026 13.2031C11.1788 12.6684 11.3316 12.2674 11.4844 12C11.5608 11.9236 11.809 11.5608 12.2292 10.9115C12.3056 10.7969 12.4201 10.6441 12.5729 10.4531C12.7639 10.224 12.8976 10.0521 12.974 9.9375C13.0503 9.82292 13.1649 9.67014 13.3177 9.47917C13.4705 9.25 13.566 9.07812 13.6042 8.96354C13.7569 8.42882 13.8333 8.04688 13.8333 7.81771C13.8333 7.1684 13.6615 6.69097 13.3177 6.38542C12.8212 6.04167 12.3438 5.86979 11.8854 5.86979C11.4653 5.86979 11.0069 6.00347 10.5104 6.27083C10.0521 6.57639 9.68924 6.86285 9.42188 7.13021L8.33333 6.27083C8.98264 5.62153 9.51736 5.20139 9.9375 5.01042C10.434 4.70486 11.1215 4.55208 12 4.55208C13.1076 4.55208 14.0052 4.83854 14.6927 5.41146C15.342 5.98438 15.6667 6.78646 15.6667 7.81771C15.6667 8.39062 15.5521 8.84896 15.3229 9.19271Z" fill="#C4C4C4"/>
</svg>
