<?xml version="1.0" encoding="utf-8"?>
<svg version="1.1" xmlns:xlink="http://www.w3.org/1999/xlink" width="10px" height="11px" xmlns="http://www.w3.org/2000/svg">
  <g transform="matrix(1 0 0 1 -606 -360 )">
    <path d="M 9.762516046213094 5.141304347826087  C 9.920838682071034 5.335597826086956  10.000000000000002 5.562273550724637  10 5.821331521739131  C 10.000000000000002 6.075407608695652  9.920838682071034 6.299592391304348  9.762516046213094 6.493885869565217  L 9.281129653401797 7.054347826086956  C 9.118528027385537 7.243659420289854  8.923833975181859 7.338315217391305  8.697047496790757 7.338315217391305  C 8.465982028241335 7.338315217391305  8.273427471116817 7.243659420289854  8.119383825417202 7.054347826086956  L 6.2323491655969185 4.864809782608695  L 6.2323491655969185 10.125679347826086  C 6.2323491655969185 10.38473731884058  6.152118100128369 10.595221920289855  5.991655969191271 10.757133152173914  C 5.831193838254172 10.919044384057973  5.6375695335900735 11  5.410783055198973 11  L 4.589216944801027 11  C 4.362430466409927 11  4.168806161745827 10.919044384057973  4.008344030808729 10.757133152173914  C 3.84788189987163 10.595221920289855  3.7676508344030806 10.38473731884058  3.7676508344030806 10.125679347826086  L 3.7676508344030806 4.864809782608695  L 1.8806161745827985 7.054347826086956  C 1.7265725288831835 7.243659420289854  1.534017971758665 7.338315217391305  1.3029525032092426 7.338315217391305  C 1.0718870346598202 7.338315217391305  0.8793324775353016 7.243659420289854  0.7252888318356867 7.054347826086956  L 0.24390243902439024 6.493885869565217  C 0.08130081300813011 6.304574275362318  0 6.080389492753623  0 5.821331521739131  C 0 5.557291666666666  0.08130081300813011 5.330615942028985  0.24390243902439024 5.141304347826087  L 4.422336328626445 0.27649456521739146  C 4.572100984167737 0.09216485507246341  4.764655541292256 0  5 0  C 5.231065468549422 0  5.425759520753103 0.09216485507246341  5.58408215661104 0.27649456521739146  L 9.762516046213094 5.141304347826087  Z " fill-rule="nonzero" fill="currentColor" stroke="none" transform="matrix(1 0 0 1 606 360 )" />
  </g>
</svg>
