<svg width="20" height="20" viewBox="0 0 20 20" fill="none" xmlns="http://www.w3.org/2000/svg">
<path fill-rule="evenodd" clip-rule="evenodd" d="M15.1153 17.6026C15.3631 17.6026 15.564 17.4017 15.564 17.1538L15.564 9.07692C15.564 8.8291 15.3631 8.62821 15.1153 8.62821L4.34604 8.62821C4.09822 8.62821 3.89732 8.8291 3.89732 9.07692L3.89732 17.1538C3.89732 17.4017 4.09822 17.6026 4.34604 17.6026H15.1153ZM16.4614 17.1538C16.4614 17.8973 15.8587 18.5 15.1153 18.5H4.34604C3.60258 18.5 2.99989 17.8973 2.99989 17.1538L2.99989 9.07692C2.99989 8.33346 3.60258 7.73077 4.34604 7.73077L15.1153 7.73077C15.8587 7.73077 16.4614 8.33346 16.4614 9.07692V17.1538Z" fill="#333333"/>
<path fill-rule="evenodd" clip-rule="evenodd" d="M14.6665 16.2564C14.6665 16.5042 14.4656 16.7051 14.2178 16.7051H5.24343C4.99561 16.7051 4.79471 16.5042 4.79471 16.2564V12.039C4.79471 11.7912 4.99561 11.5903 5.24343 11.5903H6.04115V10.9847C6.04115 10.7369 6.24205 10.536 6.48987 10.536H7.22527V9.97431C7.22527 9.72649 7.42616 9.52559 7.67398 9.52559H11.6626C11.9104 9.52559 12.1113 9.72649 12.1113 9.97431V10.536H12.9713C13.2192 10.536 13.4201 10.7369 13.4201 10.9847V11.5903H14.2178C14.4656 11.5903 14.6665 11.7912 14.6665 12.039V16.2564ZM13.7691 15.8076V12.4878H12.9713C12.7235 12.4878 12.5226 12.2869 12.5226 12.039V11.4334H11.6626C11.4148 11.4334 11.2139 11.2325 11.2139 10.9847V10.423H8.1227V10.9847C8.1227 11.2325 7.9218 11.4334 7.67398 11.4334H6.93858V12.039C6.93858 12.2869 6.73769 12.4878 6.48987 12.4878H5.69214V15.8076L13.7691 15.8076Z" fill="#333333"/>
<path d="M5.24341 12.0385V16.2559H7.87874H11.5824H14.2178V12.0385H12.9713V10.9842H11.6626V9.97381H7.67397V10.9842H6.48985V12.0385H5.24341Z" fill="#333333"/>
<path fill-rule="evenodd" clip-rule="evenodd" d="M14.6665 16.2564C14.6665 16.5042 14.4656 16.7051 14.2178 16.7051H5.24343C4.99561 16.7051 4.79471 16.5042 4.79471 16.2564V12.039C4.79471 11.7912 4.99561 11.5903 5.24343 11.5903H6.04115V10.9847C6.04115 10.7369 6.24205 10.536 6.48987 10.536H7.22527V9.97431C7.22527 9.72649 7.42616 9.52559 7.67398 9.52559H11.6626C11.9104 9.52559 12.1113 9.72649 12.1113 9.97431V10.536H12.9713C13.2192 10.536 13.4201 10.7369 13.4201 10.9847V11.5903H14.2178C14.4656 11.5903 14.6665 11.7912 14.6665 12.039V16.2564ZM13.7691 15.8076V12.4878H12.9713C12.7235 12.4878 12.5226 12.2869 12.5226 12.039V11.4334H11.6626C11.4148 11.4334 11.2139 11.2325 11.2139 10.9847V10.423H8.1227V10.9847C8.1227 11.2325 7.9218 11.4334 7.67398 11.4334H6.93858V12.039C6.93858 12.2869 6.73769 12.4878 6.48987 12.4878H5.69214V15.8076L13.7691 15.8076Z" fill="#333333"/>
<path d="M7.03857 3.45715L9.73088 1L12.4232 3.45715H10.6283V6.83333H8.83345V3.45715H7.03857Z" fill="#333333"/>
</svg>
