<svg width="24" height="24" viewBox="0 0 24 24" fill="none" xmlns="http://www.w3.org/2000/svg">
<path d="M12 16.875C14.0711 16.875 15.75 15.1961 15.75 13.125C15.75 11.0539 14.0711 9.375 12 9.375C9.92893 9.375 8.25 11.0539 8.25 13.125C8.25 15.1961 9.92893 16.875 12 16.875Z" stroke="#333333" stroke-linecap="round" stroke-linejoin="round"/>
<path d="M18.375 10.875C19.2484 10.8743 20.1098 11.0772 20.891 11.4677C21.6722 11.8583 22.3516 12.4256 22.8751 13.1246" stroke="#333333" stroke-linecap="round" stroke-linejoin="round"/>
<path d="M1.12613 13.1248C1.64967 12.4257 2.32903 11.8584 3.11025 11.4678C3.89146 11.0772 4.753 10.8743 5.62639 10.875" stroke="#333333" stroke-linecap="round" stroke-linejoin="round"/>
<path d="M6.60437 20.2499C7.09704 19.238 7.8643 18.385 8.81856 17.7882C9.77283 17.1914 10.8756 16.875 12.0011 16.875C13.1266 16.875 14.2295 17.1914 15.1837 17.7882C16.138 18.3849 16.9052 19.238 17.3979 20.2499" stroke="#333333" stroke-linecap="round" stroke-linejoin="round"/>
<path d="M5.62566 10.875C5.05645 10.8749 4.49901 10.7129 4.01844 10.4078C3.53788 10.1027 3.15401 9.66726 2.91168 9.1522C2.66934 8.63715 2.57854 8.06378 2.64987 7.49906C2.7212 6.93433 2.95172 6.40155 3.31452 5.96293C3.67731 5.52431 4.1574 5.19796 4.69873 5.02198C5.24005 4.84599 5.82028 4.82765 6.37164 4.96908C6.923 5.11052 7.42275 5.40589 7.81253 5.82072C8.2023 6.23554 8.46602 6.7527 8.57288 7.31179" stroke="#333333" stroke-linecap="round" stroke-linejoin="round"/>
<path d="M15.428 7.31156C15.5348 6.75238 15.7985 6.23512 16.1883 5.82021C16.5781 5.40529 17.0779 5.10983 17.6293 4.96835C18.1808 4.82686 18.7611 4.84518 19.3025 5.02116C19.8439 5.19715 20.3241 5.52353 20.6869 5.96221C21.0497 6.40088 21.2803 6.93374 21.3516 7.49854C21.423 8.06335 21.3321 8.63679 21.0897 9.1519C20.8473 9.66701 20.4634 10.1025 19.9827 10.4076C19.5021 10.7126 18.9446 10.8747 18.3753 10.8747" stroke="#333333" stroke-linecap="round" stroke-linejoin="round"/>
</svg>
