<svg xmlns="http://www.w3.org/2000/svg" width="24" height="24" fill="none" viewBox="0 0 24 24">
  <path stroke="currentColor" stroke-linecap="round" stroke-linejoin="round" d="M12 16.875a3.75 3.75 0 1 0 0-7.5 3.75 3.75 0 0 0 0 7.5ZM18.375 10.875a5.617 5.617 0 0 1 4.5 2.25M1.126 13.125a5.617 5.617 0 0 1 4.5-2.25"/>
  <path stroke="currentColor" stroke-linecap="round" stroke-linejoin="round" d="M6.604 20.25a6.003 6.003 0 0 1 10.794 0M5.626 10.875a3 3 0 1 1 2.947-3.563M15.428 7.312a3 3 0 1 1 2.947 3.563"/>
</svg>
