<svg width="24" height="24" viewBox="0 0 24 24" fill="none" xmlns="http://www.w3.org/2000/svg">
<path d="M8.25024 15C10.9426 15 13.1252 12.8174 13.1252 10.125C13.1252 7.43261 10.9426 5.25 8.25024 5.25C5.55786 5.25 3.37524 7.43261 3.37524 10.125C3.37524 12.8174 5.55786 15 8.25024 15Z" stroke="#333333" stroke-miterlimit="10"/>
<path d="M14.5706 5.43009C15.2411 5.24117 15.9444 5.19813 16.6329 5.30387C17.3215 5.40962 17.9794 5.66168 18.5623 6.0431C19.1452 6.42451 19.6397 6.92642 20.0123 7.51501C20.3849 8.1036 20.6271 8.7652 20.7225 9.45527C20.8179 10.1453 20.7643 10.8478 20.5653 11.5154C20.3663 12.183 20.0266 12.8003 19.569 13.3255C19.1115 13.8508 18.5466 14.2719 17.9126 14.5605C17.2785 14.849 16.59 14.9984 15.8934 14.9985" stroke="#333333" stroke-linecap="round" stroke-linejoin="round"/>
<path d="M1.50055 18.5059C2.26192 17.4229 3.2727 16.539 4.44753 15.9288C5.62237 15.3186 6.92678 15.0001 8.25063 15C9.57448 14.9999 10.8789 15.3184 12.0538 15.9285C13.2287 16.5386 14.2395 17.4225 15.001 18.5054" stroke="#333333" stroke-linecap="round" stroke-linejoin="round"/>
<path d="M15.8932 15C17.2172 14.999 18.5219 15.3171 19.6969 15.9273C20.8719 16.5375 21.8825 17.4218 22.6433 18.5054" stroke="#333333" stroke-linecap="round" stroke-linejoin="round"/>
</svg>
