<svg width="24" height="24" viewBox="0 0 24 24" fill="none" xmlns="http://www.w3.org/2000/svg">
<path d="M7.20784 19.2347C4.78782 17.1172 3.49321 14.3347 2.87419 12.1674C2.4406 10.6494 3.306 9.1541 4.70998 8.43206C5.62042 7.96383 6.73752 8.26122 7.29465 9.12014L8.49009 10.9631C8.7872 11.4211 8.73155 12.0231 8.35552 12.419C7.46134 13.3602 7.22046 14.7808 8.07066 15.762C8.4567 16.2075 8.9189 16.6487 9.44387 16.9987C9.99653 17.3672 10.5998 17.6471 11.1677 17.8541C12.37 18.2923 13.6504 17.7974 14.5329 16.8707C15.0369 16.3416 15.8146 16.1771 16.4896 16.457L19.0592 17.5225C19.5578 17.7292 19.8029 18.2939 19.6134 18.7993C18.9748 20.5021 17.6378 21.9498 15.8192 21.9685C12.499 22.0027 8.66712 20.5116 7.20784 19.2347Z" stroke="#333333" stroke-linecap="round" stroke-linejoin="round"/>
<path d="M15.7002 2.40039C12.6626 2.40039 10.2002 4.86282 10.2002 7.90039C10.2002 9.46261 10.8515 10.8727 11.8974 11.8739L11.2003 14.2105L13.6481 13.0048C14.2822 13.26 14.9748 13.4004 15.7002 13.4004H16.7002C19.7378 13.4004 22.2002 10.938 22.2002 7.90039C22.2002 4.86282 19.7378 2.40039 16.7002 2.40039H15.7002Z" stroke="#333333" stroke-linecap="round" stroke-linejoin="round"/>
<path d="M13.6082 6.60254H14.2501L13.2309 9.60078H12.5377L11.5205 6.60254H12.1624L12.7264 8.38672C12.7578 8.49199 12.7899 8.61504 12.8228 8.75586C12.8569 8.89531 12.8781 8.99238 12.8863 9.04707C12.9014 8.92129 12.9526 8.70117 13.0401 8.38672L13.6082 6.60254Z" fill="#333333"/>
<path d="M15.0786 8.45029C15.0786 8.67725 15.1155 8.84883 15.1894 8.96504C15.2646 9.08125 15.3862 9.13936 15.5544 9.13936C15.7212 9.13936 15.8408 9.08193 15.9133 8.96709C15.9871 8.85088 16.024 8.67861 16.024 8.45029C16.024 8.22334 15.9871 8.05313 15.9133 7.93965C15.8395 7.82617 15.7185 7.76943 15.5503 7.76943C15.3835 7.76943 15.2632 7.82617 15.1894 7.93965C15.1155 8.05176 15.0786 8.22197 15.0786 8.45029ZM16.6639 8.45029C16.6639 8.82354 16.5654 9.11543 16.3686 9.32598C16.1717 9.53652 15.8976 9.6418 15.5462 9.6418C15.3261 9.6418 15.1319 9.59395 14.9638 9.49824C14.7956 9.40117 14.6664 9.2624 14.5762 9.08193C14.4859 8.90146 14.4408 8.69092 14.4408 8.45029C14.4408 8.07568 14.5386 7.78447 14.7341 7.57666C14.9296 7.36885 15.2044 7.26494 15.5585 7.26494C15.7786 7.26494 15.9728 7.31279 16.1409 7.4085C16.3091 7.5042 16.4383 7.6416 16.5285 7.8207C16.6187 7.9998 16.6639 8.20967 16.6639 8.45029Z" fill="#333333"/>
<path d="M17.2299 9.60078V6.60254H17.8656V9.60078H17.2299Z" fill="#333333"/>
<path d="M19.2561 8.01348H19.4652C19.6607 8.01348 19.807 7.9752 19.9041 7.89863C20.0012 7.8207 20.0497 7.70791 20.0497 7.56025C20.0497 7.41123 20.0087 7.30117 19.9267 7.23008C19.846 7.15898 19.7188 7.12344 19.5452 7.12344H19.2561V8.01348ZM20.6916 7.5377C20.6916 7.86035 20.5904 8.10713 20.3881 8.27803C20.1871 8.44893 19.9007 8.53438 19.5288 8.53438H19.2561V9.60078H18.6203V6.60254H19.578C19.9417 6.60254 20.2179 6.68115 20.4065 6.83838C20.5966 6.99424 20.6916 7.22734 20.6916 7.5377Z" fill="#333333"/>
</svg>
