<svg width="24" height="24" viewBox="0 0 24 24" fill="none" xmlns="http://www.w3.org/2000/svg">
<path d="M10.7011 3.74857L2.45332 17.9978C2.32134 18.2258 2.25174 18.4846 2.25153 18.748C2.25131 19.0115 2.32048 19.2703 2.45208 19.4986C2.58367 19.7268 2.77306 19.9163 3.00117 20.0481C3.22928 20.1799 3.48808 20.2493 3.75153 20.2493H20.2471C20.5105 20.2493 20.7693 20.1799 20.9974 20.0481C21.2256 19.9163 21.4149 19.7268 21.5465 19.4986C21.6781 19.2703 21.7473 19.0115 21.7471 18.748C21.7469 18.4846 21.6773 18.2258 21.5453 17.9978L13.2975 3.74857C13.1657 3.52093 12.9764 3.33193 12.7486 3.20055C12.5207 3.06916 12.2623 3 11.9993 3C11.7363 3 11.4779 3.06916 11.25 3.20055C11.0222 3.33193 10.8329 3.52093 10.7011 3.74857V3.74857Z" fill="#333333"/>
<path d="M12 10.5V13.5" stroke="white" stroke-linecap="round" stroke-linejoin="round"/>
<path d="M10.7011 3.74857L2.45332 17.9978C2.32134 18.2258 2.25174 18.4846 2.25153 18.748C2.25131 19.0115 2.32048 19.2703 2.45208 19.4986C2.58367 19.7268 2.77306 19.9163 3.00117 20.0481C3.22928 20.1799 3.48808 20.2493 3.75153 20.2493H20.2471C20.5105 20.2493 20.7693 20.1799 20.9974 20.0481C21.2256 19.9163 21.4149 19.7268 21.5465 19.4986C21.6781 19.2703 21.7473 19.0115 21.7471 18.748C21.7469 18.4846 21.6773 18.2258 21.5453 17.9978L13.2975 3.74857C13.1657 3.52093 12.9764 3.33193 12.7486 3.20055C12.5207 3.06916 12.2623 3 11.9993 3C11.7363 3 11.4779 3.06916 11.25 3.20055C11.0222 3.33193 10.8329 3.52093 10.7011 3.74857V3.74857Z" stroke="#333333" stroke-linecap="round" stroke-linejoin="round"/>
<path d="M12 17.25C12.4142 17.25 12.75 16.9142 12.75 16.5C12.75 16.0858 12.4142 15.75 12 15.75C11.5858 15.75 11.25 16.0858 11.25 16.5C11.25 16.9142 11.5858 17.25 12 17.25Z" fill="white"/>
</svg>
