<?xml version="1.0" encoding="utf-8"?>
<svg version="1.1" xmlns:xlink="http://www.w3.org/1999/xlink" width="16px" height="15px" xmlns="http://www.w3.org/2000/svg">
  <defs>
    <pattern id="BGPattern" patternUnits="userSpaceOnUse" alignment="0 0" imageRepeat="None" />
    <mask fill="white" id="Clip117">
      <path d="M 9.055679287305123 12.606670673076923  C 9.112100965107647 12.549579326923077  9.140311804008908 12.478966346153845  9.140311804008908 12.394831730769232  L 9.140311804008908 10.682091346153847  C 9.140311804008908 10.59795673076923  9.112100965107647 10.52734375  9.055679287305123 10.470252403846153  C 8.9992576095026 10.413161057692308  8.932442464736452 10.384615384615385  8.855233853006682 10.384615384615385  L 7.144766146993319 10.384615384615385  C 7.067557535263549 10.384615384615385  7.000742390497402 10.413161057692308  6.944320712694878 10.470252403846153  C 6.887899034892353 10.52734375  6.859688195991091 10.59795673076923  6.859688195991091 10.682091346153847  L 6.859688195991091 12.394831730769232  C 6.859688195991091 12.478966346153845  6.887899034892353 12.549579326923077  6.944320712694878 12.606670673076923  C 7.000742390497402 12.663762019230768  7.067557535263549 12.692307692307692  7.144766146993319 12.692307692307692  L 8.855233853006682 12.692307692307692  C 8.932442464736452 12.692307692307692  8.9992576095026 12.663762019230768  9.055679287305123 12.606670673076923  Z M 9.028953229398663 9.172175480769232  C 9.085374907201189 9.13311298076923  9.116555308092057 9.083533653846153  9.122494432071269 9.0234375  L 9.282850779510023 4.8858173076923075  C 9.282850779510023 4.813701923076923  9.253155159613957 4.756610576923076  9.193763919821826 4.714543269230768  C 9.116555308092058 4.648437499999999  9.045285820341501 4.615384615384616  8.979955456570156 4.615384615384616  L 7.020044543429844 4.615384615384616  C 6.9547141796585015 4.615384615384616  6.883444691907944 4.648437499999999  6.806236080178174 4.714543269230768  C 6.746844840386044 4.756610576923076  6.717149220489977 4.8197115384615365  6.717149220489977 4.903846153846153  L 6.868596881959911 9.0234375  C 6.868596881959911 9.083533653846153  6.898292501855977 9.13311298076923  6.957683741648107 9.172175480769232  C 7.0170749814402384 9.21123798076923  7.088344469190795 9.230769230769232  7.171492204899777 9.230769230769232  L 8.819599109131403 9.230769230769232  C 8.902746844840387 9.230769230769232  8.97253155159614 9.21123798076923  9.028953229398663 9.172175480769232  Z M 8.579064587973274 0.16225961538461564  C 8.757238307349667 0.2704326923076922  8.896807720861174 0.41766826923076816  8.997772828507795 0.6039663461538469  L 15.839643652561247 13.296274038461538  C 16.047512991833706 13.674879807692308  16.041573867854492 14.053485576923077  15.821826280623608 14.432091346153847  C 15.720861172976987 14.606370192307692  15.582776540460284 14.744591346153847  15.407572383073497 14.846754807692308  C 15.232368225686713 14.948918269230768  15.043801039346699 15  14.841870824053451 15  L 1.158129175946548 15  C 0.9561989606533037 15  0.7676317743132889 14.948918269230768  0.5924276169265034 14.846754807692308  C 0.4172234595397179 14.744591346153847  0.2791388270230141 14.606370192307692  0.17817371937639198 14.432091346153847  C -0.04157386785449147 14.053485576923077  -0.04751299183370454 13.674879807692308  0.1603563474387528 13.296274038461538  L 7.002227171492205 0.6039663461538469  C 7.1031922791388284 0.41766826923076816  7.242761692650335 0.2704326923076922  7.420935412026726 0.16225961538461564  C 7.599109131403119 0.0540865384615391  7.792130660727543 0  8 0  C 8.207869339272458 0  8.400890868596882 0.0540865384615391  8.579064587973274 0.16225961538461564  Z " fill-rule="evenodd" />
    </mask>
  </defs>
  <g transform="matrix(1 0 0 1 -316 -53 )">
    <path d="M 9.055679287305123 12.606670673076923  C 9.112100965107647 12.549579326923077  9.140311804008908 12.478966346153845  9.140311804008908 12.394831730769232  L 9.140311804008908 10.682091346153847  C 9.140311804008908 10.59795673076923  9.112100965107647 10.52734375  9.055679287305123 10.470252403846153  C 8.9992576095026 10.413161057692308  8.932442464736452 10.384615384615385  8.855233853006682 10.384615384615385  L 7.144766146993319 10.384615384615385  C 7.067557535263549 10.384615384615385  7.000742390497402 10.413161057692308  6.944320712694878 10.470252403846153  C 6.887899034892353 10.52734375  6.859688195991091 10.59795673076923  6.859688195991091 10.682091346153847  L 6.859688195991091 12.394831730769232  C 6.859688195991091 12.478966346153845  6.887899034892353 12.549579326923077  6.944320712694878 12.606670673076923  C 7.000742390497402 12.663762019230768  7.067557535263549 12.692307692307692  7.144766146993319 12.692307692307692  L 8.855233853006682 12.692307692307692  C 8.932442464736452 12.692307692307692  8.9992576095026 12.663762019230768  9.055679287305123 12.606670673076923  Z M 9.028953229398663 9.172175480769232  C 9.085374907201189 9.13311298076923  9.116555308092057 9.083533653846153  9.122494432071269 9.0234375  L 9.282850779510023 4.8858173076923075  C 9.282850779510023 4.813701923076923  9.253155159613957 4.756610576923076  9.193763919821826 4.714543269230768  C 9.116555308092058 4.648437499999999  9.045285820341501 4.615384615384616  8.979955456570156 4.615384615384616  L 7.020044543429844 4.615384615384616  C 6.9547141796585015 4.615384615384616  6.883444691907944 4.648437499999999  6.806236080178174 4.714543269230768  C 6.746844840386044 4.756610576923076  6.717149220489977 4.8197115384615365  6.717149220489977 4.903846153846153  L 6.868596881959911 9.0234375  C 6.868596881959911 9.083533653846153  6.898292501855977 9.13311298076923  6.957683741648107 9.172175480769232  C 7.0170749814402384 9.21123798076923  7.088344469190795 9.230769230769232  7.171492204899777 9.230769230769232  L 8.819599109131403 9.230769230769232  C 8.902746844840387 9.230769230769232  8.97253155159614 9.21123798076923  9.028953229398663 9.172175480769232  Z M 8.579064587973274 0.16225961538461564  C 8.757238307349667 0.2704326923076922  8.896807720861174 0.41766826923076816  8.997772828507795 0.6039663461538469  L 15.839643652561247 13.296274038461538  C 16.047512991833706 13.674879807692308  16.041573867854492 14.053485576923077  15.821826280623608 14.432091346153847  C 15.720861172976987 14.606370192307692  15.582776540460284 14.744591346153847  15.407572383073497 14.846754807692308  C 15.232368225686713 14.948918269230768  15.043801039346699 15  14.841870824053451 15  L 1.158129175946548 15  C 0.9561989606533037 15  0.7676317743132889 14.948918269230768  0.5924276169265034 14.846754807692308  C 0.4172234595397179 14.744591346153847  0.2791388270230141 14.606370192307692  0.17817371937639198 14.432091346153847  C -0.04157386785449147 14.053485576923077  -0.04751299183370454 13.674879807692308  0.1603563474387528 13.296274038461538  L 7.002227171492205 0.6039663461538469  C 7.1031922791388284 0.41766826923076816  7.242761692650335 0.2704326923076922  7.420935412026726 0.16225961538461564  C 7.599109131403119 0.0540865384615391  7.792130660727543 0  8 0  C 8.207869339272458 0  8.400890868596882 0.0540865384615391  8.579064587973274 0.16225961538461564  Z " fill-rule="nonzero" fill="rgba(121, 0, 15, 1)" stroke="none" transform="matrix(1 0 0 1 316 53 )" class="fill" />
    <path d="M 9.055679287305123 12.606670673076923  C 9.112100965107647 12.549579326923077  9.140311804008908 12.478966346153845  9.140311804008908 12.394831730769232  L 9.140311804008908 10.682091346153847  C 9.140311804008908 10.59795673076923  9.112100965107647 10.52734375  9.055679287305123 10.470252403846153  C 8.9992576095026 10.413161057692308  8.932442464736452 10.384615384615385  8.855233853006682 10.384615384615385  L 7.144766146993319 10.384615384615385  C 7.067557535263549 10.384615384615385  7.000742390497402 10.413161057692308  6.944320712694878 10.470252403846153  C 6.887899034892353 10.52734375  6.859688195991091 10.59795673076923  6.859688195991091 10.682091346153847  L 6.859688195991091 12.394831730769232  C 6.859688195991091 12.478966346153845  6.887899034892353 12.549579326923077  6.944320712694878 12.606670673076923  C 7.000742390497402 12.663762019230768  7.067557535263549 12.692307692307692  7.144766146993319 12.692307692307692  L 8.855233853006682 12.692307692307692  C 8.932442464736452 12.692307692307692  8.9992576095026 12.663762019230768  9.055679287305123 12.606670673076923  Z " stroke-width="0" stroke-dasharray="0" stroke="rgba(255, 255, 255, 0)" fill="none" transform="matrix(1 0 0 1 316 53 )" class="stroke" mask="url(#Clip117)" />
    <path d="M 9.028953229398663 9.172175480769232  C 9.085374907201189 9.13311298076923  9.116555308092057 9.083533653846153  9.122494432071269 9.0234375  L 9.282850779510023 4.8858173076923075  C 9.282850779510023 4.813701923076923  9.253155159613957 4.756610576923076  9.193763919821826 4.714543269230768  C 9.116555308092058 4.648437499999999  9.045285820341501 4.615384615384616  8.979955456570156 4.615384615384616  L 7.020044543429844 4.615384615384616  C 6.9547141796585015 4.615384615384616  6.883444691907944 4.648437499999999  6.806236080178174 4.714543269230768  C 6.746844840386044 4.756610576923076  6.717149220489977 4.8197115384615365  6.717149220489977 4.903846153846153  L 6.868596881959911 9.0234375  C 6.868596881959911 9.083533653846153  6.898292501855977 9.13311298076923  6.957683741648107 9.172175480769232  C 7.0170749814402384 9.21123798076923  7.088344469190795 9.230769230769232  7.171492204899777 9.230769230769232  L 8.819599109131403 9.230769230769232  C 8.902746844840387 9.230769230769232  8.97253155159614 9.21123798076923  9.028953229398663 9.172175480769232  Z " stroke-width="0" stroke-dasharray="0" stroke="rgba(255, 255, 255, 0)" fill="none" transform="matrix(1 0 0 1 316 53 )" class="stroke" mask="url(#Clip117)" />
    <path d="M 8.579064587973274 0.16225961538461564  C 8.757238307349667 0.2704326923076922  8.896807720861174 0.41766826923076816  8.997772828507795 0.6039663461538469  L 15.839643652561247 13.296274038461538  C 16.047512991833706 13.674879807692308  16.041573867854492 14.053485576923077  15.821826280623608 14.432091346153847  C 15.720861172976987 14.606370192307692  15.582776540460284 14.744591346153847  15.407572383073497 14.846754807692308  C 15.232368225686713 14.948918269230768  15.043801039346699 15  14.841870824053451 15  L 1.158129175946548 15  C 0.9561989606533037 15  0.7676317743132889 14.948918269230768  0.5924276169265034 14.846754807692308  C 0.4172234595397179 14.744591346153847  0.2791388270230141 14.606370192307692  0.17817371937639198 14.432091346153847  C -0.04157386785449147 14.053485576923077  -0.04751299183370454 13.674879807692308  0.1603563474387528 13.296274038461538  L 7.002227171492205 0.6039663461538469  C 7.1031922791388284 0.41766826923076816  7.242761692650335 0.2704326923076922  7.420935412026726 0.16225961538461564  C 7.599109131403119 0.0540865384615391  7.792130660727543 0  8 0  C 8.207869339272458 0  8.400890868596882 0.0540865384615391  8.579064587973274 0.16225961538461564  Z " stroke-width="0" stroke-dasharray="0" stroke="rgba(255, 255, 255, 0)" fill="none" transform="matrix(1 0 0 1 316 53 )" class="stroke" mask="url(#Clip117)" />
  </g>
</svg>