<svg width="24" height="24" viewBox="0 0 24 24" fill="none" xmlns="http://www.w3.org/2000/svg">
<path d="M11.2492 9.97614L8.8117 5.75426C8.56356 5.32363 8.49654 4.8121 8.62538 4.33208C8.75421 3.85206 9.06836 3.44283 9.49878 3.19432C9.92921 2.94582 10.4407 2.87837 10.9208 3.00681C11.4009 3.13524 11.8104 3.44905 12.0593 3.87926L15.8093 10.3744" stroke="#333333" stroke-linecap="round" stroke-linejoin="round"/>
<path d="M8.37565 12.5014L4.81314 6.33095C4.68979 6.1177 4.60966 5.88223 4.57735 5.63799C4.54504 5.39376 4.56118 5.14555 4.62484 4.90756C4.68851 4.66957 4.79845 4.44646 4.94838 4.25097C5.09832 4.05549 5.2853 3.89147 5.49866 3.76829C5.71201 3.64511 5.94755 3.56519 6.19181 3.53308C6.43607 3.50097 6.68426 3.51732 6.9222 3.58118C7.16014 3.64504 7.38316 3.75517 7.57852 3.90527C7.77388 4.05537 7.93774 4.24249 8.06074 4.45595L11.2482 9.97686" stroke="#333333" stroke-linecap="round" stroke-linejoin="round"/>
<path d="M14.4362 15.4971C13.9389 14.6358 13.8041 13.6122 14.0615 12.6516C14.319 11.6909 14.9474 10.8718 15.8088 10.3745L14.8713 8.75075C14.7479 8.5375 14.6678 8.30203 14.6355 8.05779C14.6032 7.81356 14.6193 7.56535 14.683 7.32736C14.7466 7.08937 14.8566 6.86626 15.0065 6.67077C15.1564 6.47529 15.3434 6.31127 15.5568 6.18809C15.7701 6.06491 16.0057 5.98498 16.2499 5.95288C16.4942 5.92077 16.7424 5.93712 16.9803 6.00098C17.2183 6.06484 17.4413 6.17497 17.6366 6.32507C17.832 6.47517 17.9959 6.66229 18.1189 6.87575L19.9939 10.1233C20.4866 10.9763 20.8064 11.918 20.9352 12.8946C21.0639 13.8712 20.999 14.8636 20.7442 15.8151C20.4893 16.7666 20.0495 17.6586 19.4499 18.4402C18.8503 19.2217 18.1026 19.8775 17.2495 20.37C16.3964 20.8625 15.4547 21.1822 14.478 21.3107C13.5014 21.4392 12.509 21.3741 11.5575 21.119C10.6061 20.864 9.71419 20.424 8.93279 19.8242C8.1514 19.2244 7.49581 18.4765 7.00347 17.6233L3.06598 10.8034C2.81783 10.3728 2.75081 9.86123 2.87965 9.38121C3.00848 8.90119 3.32263 8.49196 3.75306 8.24345C4.18348 7.99495 4.69496 7.9275 5.17508 8.05594C5.65521 8.18437 6.0647 8.49818 6.31357 8.92839L8.37607 12.5007" stroke="#333333" stroke-linecap="round" stroke-linejoin="round"/>
<path d="M7.60258 22.5006C6.33137 21.6186 5.27171 20.4655 4.5 19.1245" stroke="#333333" stroke-linecap="round" stroke-linejoin="round"/>
<path d="M16.5 2.90625C17.3557 2.90614 18.1964 3.13139 18.9374 3.55936C19.6784 3.98732 20.2936 4.6029 20.7212 5.34416" stroke="#333333" stroke-linecap="round" stroke-linejoin="round"/>
</svg>
