<svg width="24" height="24" viewBox="0 0 24 24" fill="none" xmlns="http://www.w3.org/2000/svg">
<rect x="2.90039" y="14.1807" width="18.2" height="5.72" rx="1.5" stroke="#333333"/>
<path d="M17.2803 6.48047V13.6805" stroke="#333333" stroke-linecap="round" stroke-linejoin="round"/>
<path d="M17.2806 6.45866C17.7349 6.45866 18.1032 6.09037 18.1032 5.63607C18.1032 5.18176 17.7349 4.81348 17.2806 4.81348C16.8263 4.81348 16.458 5.18176 16.458 5.63607C16.458 6.09037 16.8263 6.45866 17.2806 6.45866Z" fill="#333333"/>
<path d="M15.9715 6.94559C15.7994 6.77383 15.6629 6.56983 15.5698 6.34526C15.4766 6.1207 15.4287 5.87997 15.4287 5.63686C15.4287 5.39374 15.4766 5.15302 15.5698 4.92845C15.6629 4.70388 15.7994 4.49988 15.9715 4.32812" stroke="#333333" stroke-width="0.8" stroke-linecap="round" stroke-linejoin="round"/>
<path d="M18.5889 4.32812C18.7609 4.49988 18.8974 4.70388 18.9906 4.92845C19.0837 5.15302 19.1316 5.39374 19.1316 5.63686C19.1316 5.87997 19.0837 6.1207 18.9906 6.34526C18.8974 6.56983 18.7609 6.77383 18.5889 6.94559" stroke="#333333" stroke-width="0.8" stroke-linecap="round" stroke-linejoin="round"/>
<path d="M15.2447 7.6722C14.977 7.40501 14.7647 7.08768 14.6198 6.73836C14.475 6.38903 14.4004 6.01457 14.4004 5.63639C14.4004 5.25822 14.475 4.88375 14.6198 4.53443C14.7647 4.1851 14.977 3.86777 15.2447 3.60059" stroke="#333333" stroke-width="0.8" stroke-linecap="round" stroke-linejoin="round"/>
<path d="M19.3154 3.60059C19.5831 3.86777 19.7954 4.1851 19.9403 4.53443C20.0851 4.88375 20.1597 5.25822 20.1597 5.63639C20.1597 6.01457 20.0851 6.38903 19.9403 6.73836C19.7954 7.08768 19.5831 7.40501 19.3154 7.6722" stroke="#333333" stroke-width="0.8" stroke-linecap="round" stroke-linejoin="round"/>
<path d="M6.7207 6.48047V13.6805" stroke="#333333" stroke-linecap="round" stroke-linejoin="round"/>
<path d="M6.72103 6.45866C7.17533 6.45866 7.54362 6.09037 7.54362 5.63607C7.54362 5.18176 7.17533 4.81348 6.72103 4.81348C6.26672 4.81348 5.89844 5.18176 5.89844 5.63607C5.89844 6.09037 6.26672 6.45866 6.72103 6.45866Z" fill="#333333"/>
<path d="M5.41189 6.94559C5.23984 6.77383 5.10334 6.56983 5.01021 6.34526C4.91708 6.1207 4.86914 5.87997 4.86914 5.63686C4.86914 5.39374 4.91708 5.15302 5.01021 4.92845C5.10334 4.70388 5.23984 4.49988 5.41189 4.32812" stroke="#333333" stroke-width="0.8" stroke-linecap="round" stroke-linejoin="round"/>
<path d="M8.0293 4.32812C8.20135 4.49988 8.33785 4.70388 8.43098 4.92845C8.52411 5.15302 8.57205 5.39374 8.57205 5.63686C8.57205 5.87997 8.52411 6.1207 8.43098 6.34526C8.33785 6.56983 8.20135 6.77383 8.0293 6.94559" stroke="#333333" stroke-width="0.8" stroke-linecap="round" stroke-linejoin="round"/>
<path d="M4.6851 7.6722C4.41746 7.40501 4.20513 7.08768 4.06026 6.73836C3.91539 6.38903 3.84082 6.01457 3.84082 5.63639C3.84082 5.25822 3.91539 4.88375 4.06026 4.53443C4.20513 4.1851 4.41746 3.86777 4.6851 3.60059" stroke="#333333" stroke-width="0.8" stroke-linecap="round" stroke-linejoin="round"/>
<path d="M8.75586 3.60059C9.0235 3.86777 9.23583 4.1851 9.3807 4.53443C9.52557 4.88375 9.60014 5.25822 9.60014 5.63639C9.60014 6.01457 9.52557 6.38903 9.3807 6.73836C9.23583 7.08768 9.0235 7.40501 8.75586 7.6722" stroke="#333333" stroke-width="0.8" stroke-linecap="round" stroke-linejoin="round"/>
</svg>
