<svg width="106" height="106" viewBox="0 0 106 106" fill="none" xmlns="http://www.w3.org/2000/svg">
<g filter="url(#filter0_d_1183_10970)">
<rect x="8.5" y="4.5" width="89" height="89" rx="19.5" fill="url(#paint0_linear_1183_10970)" stroke="#F7F7F7"/>
<path d="M75 27L81.812 28.714L81.6689 36.6151L62.0659 50.9506H78.9502L74.7769 56.6517L60.4681 57.8582C60.4681 57.8582 58.5668 63.6921 56.3122 70.629L24 58.9319L29.5 51.5L41.1752 55.0312L51.8352 37.7979L37 49.5L30.2529 41.6775L36 34L46 30.5L56.0801 27.2473L62.8291 31.8129L75 27Z" fill="#FDE3C9"/>
<path d="M57.9322 27.6372C57.9766 27.4319 58 27.2187 58 27C58 25.3431 56.6569 24 55 24C53.3431 24 52 25.3431 52 27C52 27.1574 52.0121 27.3119 52.0355 27.4628L38.6084 31.517C38.0922 30.6109 37.1174 30 36 30C34.3431 30 33 31.3431 33 33C33 33.7249 33.2571 34.3897 33.6851 34.9083L30.9355 39.0007C29.3084 39.035 28 40.3647 28 42C28 43.6569 29.3431 45 31 45C31.2433 45 31.4799 44.971 31.7064 44.9164L33.3019 46.6868C33.1085 47.0834 33 47.529 33 48C33 49.6569 34.3431 51 36 51C37.6569 51 39 49.6569 39 48C39 46.3431 37.6569 45 36 45C35.5454 45 35.1144 45.1011 34.7283 45.2821L33.3968 43.8046C33.7755 43.3024 34 42.6774 34 42C34 41.0611 33.5687 40.2229 32.8934 39.6728L35.4012 35.9402C35.5947 35.9794 35.795 36 36 36C37.4863 36 38.7202 34.9191 38.9584 33.5005L53.0207 29.2545C53.5489 29.7186 54.2416 30 55 30C55.7111 30 56.3644 29.7526 56.8786 29.3391L60.0376 31.4762C60.2657 32.9067 61.5052 34 63 34C64.4352 34 65.6349 32.9922 65.9303 31.6458L72.6908 28.9152C73.2411 29.578 74.0713 30 75 30C76.6569 30 78 28.6569 78 27C78 25.3431 76.6569 24 75 24C73.3431 24 72 25.3431 72 27C72 27.0124 72.0001 27.0248 72.0002 27.0372L65.6542 29.6003C65.1512 28.6486 64.1514 28 63 28C61.9467 28 61.0201 28.5429 60.4849 29.3641L57.9322 27.6372Z" fill="url(#paint1_linear_1183_10970)"/>
<path d="M78.5 29C78.5 30.286 79.3091 31.383 80.4461 31.8096L80.4053 34.0589C79.0333 34.3348 78 35.5467 78 37C78 37.3026 78.0448 37.5947 78.1281 37.87L64.2518 48.0177C63.7021 47.3937 62.897 47 62 47C60.3431 47 59 48.3431 59 50C59 51.6569 60.3431 53 62 53C62.8476 53 63.6131 52.6485 64.1587 52.0833H76.2016C76.2533 52.217 76.3144 52.346 76.384 52.4696L75.1088 54.2116C74.7658 54.0751 74.3917 54 74 54C72.6713 54 71.5444 54.8637 71.1501 56.0603L62.7369 56.7697C62.2672 55.7264 61.2184 55 60 55C58.3431 55 57 56.3431 57 58C57 58.9993 57.4886 59.8845 58.24 60.4297L58.0397 61.0003L58 61C56.3431 61 55 62.3431 55 64C55 65.6569 56.3431 67 58 67C59.6569 67 61 65.6569 61 64C61 63.0719 60.5785 62.2422 59.9165 61.6919L60.1609 60.9958C61.4828 60.9259 62.5777 60.0004 62.9021 58.7629L71.194 58.0637C71.6233 59.1955 72.7177 60 74 60C75.6569 60 77 58.6569 77 57C77 56.468 76.8615 55.9683 76.6186 55.5351L77.8958 53.7903C78.2376 53.9256 78.6101 54 79 54C80.6569 54 82 52.6569 82 51C82 49.3431 80.6569 48 79 48C77.6629 48 76.53 48.8748 76.1426 50.0833H64.9989C64.9996 50.0556 65 50.0279 65 50C65 49.9828 64.9999 49.9657 64.9996 49.9486L79.3131 39.4812C79.7938 39.8086 80.3745 40 81 40C82.6569 40 84 38.6569 84 37C84 35.849 83.3518 34.8493 82.4004 34.3463L82.4457 31.8479C83.6392 31.4518 84.5 30.3264 84.5 29C84.5 27.3431 83.1569 26 81.5 26C79.8431 26 78.5 27.3431 78.5 29Z" fill="url(#paint2_linear_1183_10970)"/>
<path d="M26 52C26 52.7052 26.2433 53.3535 26.6505 53.8656L24.8127 56.1114C24.5542 56.0388 24.2817 56 24 56C22.3431 56 21 57.3431 21 59C21 60.6569 22.3431 62 24 62C24.87 62 25.6534 61.6297 26.2014 61.0381L54.0017 71.1019C54.0554 72.7116 55.3772 74 57 74C58.6569 74 60 72.6569 60 71C60 69.3431 58.6569 68 57 68C56.0216 68 55.1525 68.4684 54.6049 69.1932L26.9936 59.1979C26.9978 59.1325 27 59.0665 27 59C27 58.355 26.7965 57.7576 26.4502 57.2685L28.3622 54.9321C28.5677 54.9766 28.7811 55 29 55C30.0957 55 31.0542 54.4126 31.5778 53.5355L38.0482 55.5387C38.302 56.9385 39.527 58 41 58C42.6569 58 44 56.6569 44 55C44 54.3032 43.7625 53.6619 43.3639 53.1527L50.8174 40.9945C50.8778 40.9982 50.9387 41 51 41C52.6569 41 54 39.6569 54 38C54 36.3431 52.6569 35 51 35C49.3431 35 48 36.3431 48 38C48 38.8687 48.3692 39.6511 48.9592 40.1989L41.6776 52.0768C41.4598 52.0266 41.233 52 41 52C39.8706 52 38.887 52.6241 38.3751 53.5462L31.9684 51.5628C31.7567 50.1132 30.5083 49 29 49C27.3431 49 26 50.3431 26 52Z" fill="url(#paint3_linear_1183_10970)"/>
</g>
<defs>
<filter id="filter0_d_1183_10970" x="0" y="0" width="106" height="106" filterUnits="userSpaceOnUse" color-interpolation-filters="sRGB">
<feFlood flood-opacity="0" result="BackgroundImageFix"/>
<feColorMatrix in="SourceAlpha" type="matrix" values="0 0 0 0 0 0 0 0 0 0 0 0 0 0 0 0 0 0 127 0" result="hardAlpha"/>
<feOffset dy="4"/>
<feGaussianBlur stdDeviation="4"/>
<feComposite in2="hardAlpha" operator="out"/>
<feColorMatrix type="matrix" values="0 0 0 0 0.2 0 0 0 0 0.2 0 0 0 0 0.2 0 0 0 0.15 0"/>
<feBlend mode="normal" in2="BackgroundImageFix" result="effect1_dropShadow_1183_10970"/>
<feBlend mode="normal" in="SourceGraphic" in2="effect1_dropShadow_1183_10970" result="shape"/>
</filter>
<linearGradient id="paint0_linear_1183_10970" x1="53" y1="4" x2="53" y2="94" gradientUnits="userSpaceOnUse">
<stop stop-color="#FFF8F0"/>
<stop offset="1" stop-color="#E9FBFF"/>
</linearGradient>
<linearGradient id="paint1_linear_1183_10970" x1="41" y1="66" x2="78.5" y2="24" gradientUnits="userSpaceOnUse">
<stop stop-color="#A560FF"/>
<stop offset="0.235" stop-color="#EC4C9A"/>
<stop offset="0.53" stop-color="#F65650"/>
<stop offset="0.76" stop-color="#F79B06"/>
<stop offset="0.984904" stop-color="#F7B605"/>
</linearGradient>
<linearGradient id="paint2_linear_1183_10970" x1="41" y1="66" x2="78.5" y2="24" gradientUnits="userSpaceOnUse">
<stop stop-color="#A560FF"/>
<stop offset="0.235" stop-color="#EC4C9A"/>
<stop offset="0.53" stop-color="#F65650"/>
<stop offset="0.76" stop-color="#F79B06"/>
<stop offset="0.984904" stop-color="#F7B605"/>
</linearGradient>
<linearGradient id="paint3_linear_1183_10970" x1="41" y1="66" x2="78.5" y2="24" gradientUnits="userSpaceOnUse">
<stop stop-color="#A560FF"/>
<stop offset="0.235" stop-color="#EC4C9A"/>
<stop offset="0.53" stop-color="#F65650"/>
<stop offset="0.76" stop-color="#F79B06"/>
<stop offset="0.984904" stop-color="#F7B605"/>
</linearGradient>
</defs>
</svg>
