<svg width="40" height="40" viewBox="0 0 40 40" fill="none" xmlns="http://www.w3.org/2000/svg">
<path d="M33.7466 29.4155C33.7466 32.3584 31.3584 34.7471 28.4137 34.7471H9.33156C6.38601 34.7471 4 32.3584 4 29.4155V10.332C4 7.38646 6.38601 5 9.33156 5H28.4142C31.3588 5 33.7471 7.38691 33.7471 10.332V29.4155H33.7466Z" fill="#333333"/>
<path d="M15.9799 18.9576C15.1769 18.9576 14.382 18.6352 13.7979 18.0729L13.5894 17.8716L13.3812 18.0729C12.7972 18.6352 12.0028 18.9576 11.2006 18.9576C9.46894 18.9576 8.06055 17.5501 8.06055 15.8193V10.3281H9.55962V15.8193C9.55962 16.7244 10.2951 17.4598 11.2006 17.4598C12.1052 17.4598 12.8421 16.7244 12.8421 15.8193V10.3281H14.338V15.8193C14.338 16.7244 15.0744 17.4598 15.9799 17.4598C16.8845 17.4598 17.6204 16.7244 17.6204 15.8193V10.3281H19.1195V15.8193C19.1195 17.5501 17.7116 18.9576 15.9799 18.9576Z" fill="white"/>
<path d="M17.6214 29.356V23.8648C17.6214 22.9598 16.8846 22.2229 15.9804 22.2229C15.0744 22.2229 14.339 22.9598 14.339 23.8648V29.356H12.8422V23.8648C12.8422 22.9598 12.1067 22.2229 11.1998 22.2229C10.2956 22.2229 9.56015 22.9598 9.56015 23.8648V29.356H8.06152V23.8648C8.06152 22.1354 9.47036 20.7266 11.1998 20.7266C12.0033 20.7266 12.7995 21.0485 13.3836 21.6108L13.5903 21.8121L13.7994 21.6108C14.3843 21.0485 15.1783 20.7266 15.98 20.7266C17.7103 20.7266 19.1187 22.1349 19.1187 23.8648V29.356H17.6214Z" fill="white"/>
<path d="M25.333 29.5207C22.742 29.5207 20.6367 27.5115 20.6367 25.0416C20.6367 22.5726 22.7425 20.5625 25.333 20.5625C27.9226 20.5625 30.0298 22.5726 30.0298 25.0416C30.0298 27.5119 27.9226 29.5207 25.333 29.5207ZM25.333 22.014C23.5705 22.014 22.1362 23.3725 22.1362 25.042C22.1362 26.7112 23.5705 28.0692 25.333 28.0692C27.096 28.0692 28.5284 26.7112 28.5284 25.042C28.5284 23.3725 27.0955 22.014 25.333 22.014Z" fill="white"/>
<path d="M25.3348 19.1209C22.7433 19.1209 20.6357 17.1121 20.6357 14.6427C20.6357 12.1733 22.7433 10.1641 25.3348 10.1641C27.923 10.1641 30.0306 12.1733 30.0306 14.6427C30.0306 14.7601 30.0256 14.8753 30.017 14.9896L29.9975 15.2072H22.1589L22.3003 15.6094C22.7388 16.8419 23.9577 17.6703 25.3343 17.6703C26.3623 17.6703 27.3344 17.1956 27.9361 16.4016L28.0713 16.2202L29.2978 17.0564L29.1491 17.255C28.2681 18.4235 26.8415 19.1209 25.3348 19.1209ZM25.3348 11.5978C24.1114 11.5978 23.0018 12.239 22.4391 13.2692L22.1978 13.7136H28.468L28.2268 13.2692C27.6645 12.2386 26.5563 11.5978 25.3348 11.5978Z" fill="white"/>
<path d="M34.7682 34.7453C34.0948 34.7453 33.5371 34.2215 33.5371 33.5006C33.5371 32.7796 34.0944 32.2559 34.7682 32.2559C35.442 32.2559 35.9993 32.7796 35.9993 33.5006C35.9993 34.2215 35.442 34.7453 34.7682 34.7453ZM34.7682 32.4531C34.2037 32.4531 33.7412 32.8884 33.7412 33.5006C33.7412 34.1059 34.2037 34.5412 34.7682 34.5412C35.3327 34.5412 35.7884 34.1059 35.7884 33.5006C35.7884 32.8884 35.3327 32.4531 34.7682 32.4531ZM34.5714 33.6769V34.1399H34.2857V32.834H34.8571C35.1427 32.834 35.3196 32.9904 35.3196 33.262C35.3196 33.4661 35.2108 33.6021 35.0339 33.6497L35.3672 34.1395H35.0475L34.7414 33.6765H34.5714V33.6769ZM34.843 33.0789H34.571V33.4393H34.843C34.9722 33.4393 35.0471 33.3573 35.0471 33.262C35.0475 33.1605 34.9722 33.0789 34.843 33.0789Z" fill="#333333"/>
</svg>
