<svg width="32" height="32" viewBox="0 0 32 32" fill="none" xmlns="http://www.w3.org/2000/svg">
<path d="M24.4054 7.4875C22.1607 5.2375 19.1714 4 15.9946 4C9.4375 4 4.10179 9.33571 4.10179 15.8929C4.10179 17.9875 4.64821 20.0339 5.6875 21.8393L4 28L10.3054 26.3446C12.0411 27.2929 13.9964 27.7911 15.9893 27.7911H15.9946C22.5464 27.7911 28 22.4554 28 15.8982C28 12.7214 26.65 9.7375 24.4054 7.4875ZM15.9946 25.7875C14.2161 25.7875 12.475 25.3107 10.9589 24.4107L10.6 24.1964L6.86071 25.1768L7.85714 21.5286L7.62143 21.1536C6.63036 19.5786 6.11071 17.7625 6.11071 15.8929C6.11071 10.4446 10.5464 6.00893 16 6.00893C18.6411 6.00893 21.1214 7.0375 22.9857 8.90714C24.85 10.7768 25.9964 13.2571 25.9911 15.8982C25.9911 21.3518 21.4429 25.7875 15.9946 25.7875ZM21.4161 18.3839C21.1214 18.2339 19.6589 17.5161 19.3857 17.4196C19.1125 17.3179 18.9143 17.2696 18.7161 17.5696C18.5179 17.8696 17.95 18.5339 17.7732 18.7375C17.6018 18.9357 17.425 18.9625 17.1304 18.8125C15.3839 17.9393 14.2375 17.2536 13.0857 15.2768C12.7804 14.7518 13.3911 14.7893 13.9589 13.6536C14.0554 13.4554 14.0071 13.2839 13.9321 13.1339C13.8571 12.9839 13.2625 11.5214 13.0161 10.9268C12.775 10.3482 12.5286 10.4286 12.3464 10.4179C12.175 10.4071 11.9768 10.4071 11.7786 10.4071C11.5804 10.4071 11.2589 10.4821 10.9857 10.7768C10.7125 11.0768 9.94643 11.7946 9.94643 13.2571C9.94643 14.7196 11.0125 16.1339 11.1571 16.3321C11.3071 16.5304 13.2518 19.5304 16.2357 20.8214C18.1214 21.6357 18.8607 21.7054 19.8036 21.5661C20.3768 21.4804 21.5607 20.8482 21.8071 20.1518C22.0536 19.4554 22.0536 18.8607 21.9786 18.7375C21.9089 18.6036 21.7107 18.5286 21.4161 18.3839Z" fill="#25D366"/>
</svg>
