<svg width="24" height="39" viewBox="0 0 24 39" fill="none" xmlns="http://www.w3.org/2000/svg">
<rect x="1.5" y="17.5928" width="20.9066" height="20.9066" rx="2.5" stroke="#333333"/>
<circle cx="11.9536" cy="28.0454" r="6.80221" stroke="#333333"/>
<rect x="9.03223" y="25.125" width="1.46044" height="2.92088" rx="0.730221" fill="#333333"/>
<rect x="13.4141" y="25.125" width="1.46044" height="2.92088" rx="0.730221" fill="#333333"/>
<path d="M13.4131 31.6977C13.048 31.6977 12.7592 31.6977 11.9526 31.6977C11.146 31.6977 10.8573 31.6977 10.4922 31.6977C10.4922 30.8912 11.146 30.2373 11.9526 30.2373C12.7592 30.2373 13.4131 30.8912 13.4131 31.6977Z" fill="#333333"/>
<path d="M8.21777 12.7119C9.22309 11.7517 10.5598 11.2158 11.9501 11.2158C13.3403 11.2158 14.6771 11.7517 15.6824 12.7119" stroke="#333333" stroke-linecap="round" stroke-linejoin="round"/>
<path d="M4.6084 9.1006C6.57175 7.18235 9.20771 6.1084 11.9526 6.1084C14.6975 6.1084 17.3335 7.18235 19.2968 9.1006" stroke="#333333" stroke-linecap="round" stroke-linejoin="round"/>
<path d="M1 5.4883C3.92022 2.61215 7.85454 1 11.9533 1C16.0521 1 19.9864 2.61215 22.9066 5.4883" stroke="#333333" stroke-linecap="round" stroke-linejoin="round"/>
</svg>
