<svg width="40" height="40" viewBox="0 0 40 40" fill="none" xmlns="http://www.w3.org/2000/svg">
<rect x="9.5" y="17.5928" width="20.9066" height="20.9066" rx="2.5" stroke="#333333"/>
<circle cx="19.9536" cy="28.0454" r="6.80221" stroke="#333333"/>
<rect x="17.0322" y="25.125" width="1.46044" height="2.92088" rx="0.730221" fill="#333333"/>
<rect x="21.4141" y="25.125" width="1.46044" height="2.92088" rx="0.730221" fill="#333333"/>
<path d="M21.4131 31.6977C21.048 31.6977 20.7592 31.6977 19.9526 31.6977C19.146 31.6977 18.8573 31.6977 18.4922 31.6977C18.4922 30.8912 19.146 30.2373 19.9526 30.2373C20.7592 30.2373 21.4131 30.8912 21.4131 31.6977Z" fill="#333333"/>
<path d="M16.2178 12.7119C17.2231 11.7517 18.5598 11.2158 19.9501 11.2158C21.3403 11.2158 22.6771 11.7517 23.6824 12.7119" stroke="#333333" stroke-linecap="round" stroke-linejoin="round"/>
<path d="M12.6084 9.1006C14.5718 7.18235 17.2077 6.1084 19.9526 6.1084C22.6975 6.1084 25.3335 7.18235 27.2968 9.1006" stroke="#333333" stroke-linecap="round" stroke-linejoin="round"/>
<path d="M9 5.4883C11.9202 2.61215 15.8545 1 19.9533 1C24.0521 1 27.9864 2.61215 30.9066 5.4883" stroke="#333333" stroke-linecap="round" stroke-linejoin="round"/>
</svg>
