<svg width="16" height="16" viewBox="0 0 16 16" fill="none" xmlns="http://www.w3.org/2000/svg">
<g clip-path="url(#clip0_103_4900)">
<path d="M8 14C11.3137 14 14 11.3137 14 8C14 4.68629 11.3137 2 8 2C4.68629 2 2 4.68629 2 8C2 11.3137 4.68629 14 8 14Z" stroke="#333333" stroke-linecap="round" stroke-linejoin="round"/>
<path d="M13.3844 10.6476L9.99155 8.56085C9.93208 8.52427 9.8656 8.50055 9.7964 8.49122L8.37024 8.29898C8.26314 8.28454 8.15426 8.30519 8.05988 8.35783C7.96551 8.41046 7.89073 8.49226 7.84674 8.59096L6.99057 10.5121C6.95075 10.6015 6.93801 10.7005 6.95393 10.797C6.96985 10.8935 7.01373 10.9832 7.08013 11.0551L8.25513 12.326C8.30839 12.3836 8.34735 12.4529 8.36885 12.5284C8.39035 12.6039 8.39379 12.6833 8.37889 12.7604L8.13955 13.9976" stroke="#333333" stroke-linecap="round" stroke-linejoin="round"/>
<path d="M4.06029 3.47559L3.50128 4.79744C3.45144 4.91531 3.44868 5.04779 3.49358 5.16763L4.21176 7.08439C4.24117 7.16288 4.28984 7.23272 4.35329 7.28748C4.41675 7.34225 4.49296 7.38018 4.57491 7.39779L5.91428 7.68566C5.9886 7.70164 6.05829 7.73434 6.11807 7.7813C6.17785 7.82826 6.22614 7.88823 6.25926 7.95665L6.49711 8.44802C6.53804 8.53259 6.60197 8.6039 6.68157 8.65381C6.76116 8.70371 6.85321 8.73018 6.94716 8.73018H7.78669" stroke="#333333" stroke-linecap="round" stroke-linejoin="round"/>
<path d="M9.5283 2.19666L10.1117 3.24156C10.1668 3.34033 10.1868 3.4549 10.1684 3.56652C10.1501 3.67815 10.0944 3.78024 10.0105 3.85613L8.32853 5.37722C8.29998 5.40304 8.26855 5.42547 8.23486 5.44408L7.46975 5.8666C7.39575 5.90747 7.31258 5.92891 7.22804 5.92891H5.89396C5.79558 5.92891 5.69938 5.95793 5.61742 6.01234C5.53545 6.06676 5.47136 6.14414 5.43317 6.2348L4.91272 7.47033" stroke="#333333" stroke-linecap="round" stroke-linejoin="round"/>
</g>
<defs>
<clipPath id="clip0_103_4900">
<rect width="16" height="16" fill="white"/>
</clipPath>
</defs>
</svg>
