<svg width="24" height="24" viewBox="0 0 24 24" fill="none" xmlns="http://www.w3.org/2000/svg">
<path d="M12.2097 20.9965C13.8552 20.9583 15.4587 20.4697 16.8458 19.5837C18.233 18.6977 19.3506 17.4483 20.0772 15.9714L20.077 15.9714L14.9877 12.8412C14.8985 12.7863 14.7988 12.7507 14.695 12.7367L12.5557 12.4484C12.3951 12.4267 12.2317 12.4577 12.0902 12.5366C11.9486 12.6156 11.8365 12.7383 11.7705 12.8864L10.4862 15.7681C10.4265 15.9021 10.4074 16.0507 10.4313 16.1954C10.4551 16.3402 10.521 16.4748 10.6206 16.5825L12.3831 18.4889C12.463 18.5753 12.5214 18.6793 12.5536 18.7925C12.5859 18.9057 12.5911 19.0249 12.5687 19.1405L12.2097 20.9964L12.2097 20.9965Z" fill="#333333"/>
<path d="M6.09001 5.2131L5.25149 7.19588C5.17673 7.37268 5.17259 7.57141 5.23994 7.75116L6.31721 10.6263C6.36132 10.744 6.43433 10.8488 6.52951 10.9309C6.6247 11.0131 6.73901 11.07 6.86193 11.0964L7.37034 11.2057L8.15101 9.3524C8.2083 9.2164 8.30444 9.10033 8.42738 9.01871C8.55033 8.93709 8.69462 8.89355 8.84219 8.89355H10.8433C10.9701 8.89355 11.0949 8.8614 11.2059 8.80009L12.3536 8.16631C12.4041 8.1384 12.4512 8.10475 12.4941 8.06603L15.0169 5.78438C15.1428 5.67056 15.2263 5.51742 15.2539 5.34998C15.2815 5.18254 15.2515 5.01069 15.1687 4.86253L14.2937 3.29518L14.2938 3.29474C12.8735 2.92242 11.3838 2.90254 9.95406 3.23683C8.52433 3.57112 7.19785 4.24948 6.08989 5.21295L6.09001 5.2131Z" fill="#333333"/>
<path d="M12 21C16.9706 21 21 16.9706 21 12C21 7.02944 16.9706 3 12 3C7.02944 3 3 7.02944 3 12C3 16.9706 7.02944 21 12 21Z" stroke="#333333" stroke-linecap="round" stroke-linejoin="round"/>
<path d="M20.077 15.9714L14.9877 12.8412C14.8985 12.7863 14.7988 12.7507 14.695 12.7367L12.5557 12.4484C12.3951 12.4267 12.2318 12.4577 12.0902 12.5366C11.9486 12.6156 11.8365 12.7383 11.7705 12.8864L10.4862 15.7681C10.4265 15.9021 10.4074 16.0507 10.4313 16.1954C10.4551 16.3402 10.521 16.4748 10.6206 16.5825L12.3831 18.4889C12.463 18.5753 12.5214 18.6793 12.5536 18.7925C12.5859 18.9057 12.5911 19.0249 12.5687 19.1405L12.2097 20.9964" stroke="#333333" stroke-linecap="round" stroke-linejoin="round"/>
<path d="M6.09001 5.21387L5.25149 7.19665C5.17673 7.37345 5.17259 7.57218 5.23994 7.75193L6.31721 10.6271C6.36132 10.7448 6.43433 10.8496 6.52951 10.9317C6.6247 11.0139 6.73901 11.0708 6.86193 11.0972L8.87099 11.529C8.98247 11.5529 9.08701 11.602 9.17668 11.6724C9.26635 11.7429 9.33878 11.8328 9.38846 11.9355L9.74524 12.6725C9.80664 12.7994 9.90253 12.9063 10.0219 12.9812C10.1413 13.0561 10.2794 13.0958 10.4203 13.0958H11.6796" stroke="#333333" stroke-linecap="round" stroke-linejoin="round"/>
<path d="M14.2931 3.29431L15.1681 4.86166C15.2509 5.00983 15.2809 5.18167 15.2533 5.34911C15.2258 5.51655 15.1422 5.66969 15.0164 5.78352L12.4935 8.06516C12.4506 8.10389 12.4035 8.13754 12.353 8.16545L11.2053 8.79923C11.0943 8.86053 10.9695 8.89269 10.8427 8.89269H8.84161C8.69403 8.89269 8.54974 8.93622 8.4268 9.01784C8.30385 9.09946 8.20771 9.21554 8.15043 9.35153L7.36975 11.2048" stroke="#333333" stroke-linecap="round" stroke-linejoin="round"/>
</svg>
