<svg width="40" height="40" viewBox="0 0 40 40" fill="none" xmlns="http://www.w3.org/2000/svg">
<path d="M18.5042 34.9548C16.1933 34.7334 13.8537 33.9035 11.8439 32.5923C10.1597 31.4934 9.77939 31.0417 9.77939 30.1403C9.77939 28.3296 11.7703 25.1581 15.1767 21.5427C17.1112 19.4894 19.806 17.0826 20.0974 17.1477C20.6638 17.2744 25.1932 21.6925 26.8888 23.7723C29.5701 27.0611 30.8027 29.7539 30.1765 30.9544C29.7005 31.867 26.7466 33.6507 24.5766 34.3359C22.788 34.9007 20.4391 35.1401 18.5042 34.9548ZM7.50473 28.2576C6.10522 26.1106 5.39814 23.9969 5.05676 20.9397C4.94404 19.9302 4.98443 19.3528 5.31273 17.2808C5.72191 14.6984 7.19257 11.7108 8.9597 9.87224C9.71233 9.08916 9.77955 9.07009 10.697 9.37914C11.811 9.75445 13.0008 10.5761 14.846 12.2446L15.9225 13.218L15.3346 13.9403C12.6057 17.2928 9.72489 22.0449 8.6392 24.9849C8.04898 26.5832 7.81092 28.1876 8.06488 28.8556C8.23634 29.3065 8.07885 29.1384 7.50473 28.2576ZM32.0704 28.6228C32.2086 27.9479 32.0338 26.7084 31.6239 25.4582C30.7364 22.7507 27.7697 17.7139 25.0455 14.2894L24.188 13.2113L25.1157 12.3594C26.3272 11.2471 27.1682 10.581 28.0757 10.0154C28.7919 9.56907 29.8152 9.17395 30.2551 9.17395C30.5263 9.17395 31.4811 10.1648 32.2519 11.2461C33.4456 12.9209 34.3238 14.9511 34.7688 17.0645C35.0563 18.4301 35.0802 21.3531 34.8151 22.7154C34.5975 23.8333 34.1381 25.2834 33.6899 26.2668C33.3541 27.0037 32.5189 28.4349 32.1529 28.9006C31.9647 29.14 31.9645 29.1395 32.0704 28.6228H32.0704ZM18.7516 8.66269C17.4947 8.02439 15.5556 7.33923 14.4844 7.15489C14.1089 7.09027 13.4684 7.05422 13.061 7.0748C12.1772 7.11943 12.2167 7.07321 13.6344 6.40339C14.8131 5.84652 15.7963 5.51905 17.131 5.2388C18.6324 4.92354 21.4546 4.91984 22.9321 5.2312C24.528 5.56748 26.4071 6.26679 27.466 6.91843L27.7807 7.1121L27.0587 7.07564C25.6238 7.00318 23.5327 7.58287 21.2875 8.67546C20.6104 9.00502 20.0212 9.26822 19.9784 9.26037C19.9355 9.25251 19.3834 8.98355 18.7516 8.66269V8.66269Z" fill="#333333"/>
</svg>
