<svg width="36" height="8" viewBox="0 0 36 8" fill="none" xmlns="http://www.w3.org/2000/svg">
<path d="M24.6317 0C22.3044 0 20.7597 1.73099 20.7597 3.93441C20.7597 6.26412 22.3254 7.86565 24.6317 7.86565C26.8939 7.86565 28.4957 6.19213 28.4957 3.93258C28.4957 1.67347 26.8937 0 24.6317 0ZM11.382 0.00555444C10.6427 0.00555444 9.70722 0.26017 9.01893 0.826172C8.19788 1.50154 7.56234 2.55825 7.56234 3.97983C7.56234 5.20561 7.95951 6.19283 8.67609 6.86152C9.37752 7.51639 10.3697 7.87387 11.5999 7.87387C12.5902 7.87387 13.7863 7.50011 14.2993 7.18291C14.4789 7.07199 14.5352 7.02434 14.4887 6.84302L14.1683 5.93578C14.1311 5.78698 13.9661 5.74887 13.832 5.81548C13.6068 5.92618 13.4386 6.0133 13.2103 6.0975C12.7668 6.26144 12.308 6.37327 11.8712 6.37327C10.9514 6.37327 10.4284 6.12329 10.0279 5.66198C9.77354 5.36907 9.62453 4.99778 9.5782 4.56877H14.6535C14.8382 4.56877 14.9204 4.44113 14.9204 4.22529V3.85952C14.9204 3.68132 14.9123 3.40159 14.8972 3.2343C14.8039 2.21234 14.4279 1.39015 13.8006 0.833062C13.1963 0.295573 12.385 0.00555444 11.382 0.00555444ZM19.6564 0.0128671C18.191 0.0128671 17.296 0.349009 16.7217 1.08942C16.2818 1.65721 16.2023 2.29229 16.2028 3.65105V7.38028C16.223 7.64602 16.3299 7.7703 16.5783 7.7703H17.7377C18.0059 7.7703 18.1155 7.63043 18.1155 7.38028V3.58151C18.1155 2.72571 18.1259 2.24814 18.4269 1.92516C18.6857 1.64739 19.033 1.46566 19.7613 1.46566C19.9057 1.46566 20.2516 1.50377 20.3724 1.51847C20.418 1.52404 20.4552 1.52761 20.4748 1.52761C20.6004 1.52761 20.6441 1.48194 20.6844 1.32223L20.8584 0.467297C20.8904 0.291995 20.8637 0.155689 20.689 0.114258C20.4235 0.0514433 20.0008 0.0128671 19.6564 0.0128671ZM0.427306 0.114468C0.301233 0.114468 0.210596 0.214946 0.262494 0.384679C0.607977 1.51334 1.48424 2.85339 2.39282 3.95332C1.23498 4.99645 0.42529 6.38391 0.0190016 7.49876C-0.0409197 7.6627 0.051988 7.76988 0.143314 7.76988H1.50963C1.70631 7.76988 1.7965 7.6999 1.88671 7.50009C2.25603 6.68417 2.80447 5.74262 3.52373 4.97904C4.18306 5.61387 4.75998 6.57925 5.12974 7.50009C5.23332 7.75469 5.35314 7.76988 5.50795 7.76988H6.99766C7.28278 7.76988 7.30799 7.61531 7.25676 7.48055C6.68853 5.98279 5.47969 4.45401 4.79786 3.80827C5.42222 3.1418 6.55399 1.85459 7.04849 0.384679C7.12133 0.168392 6.98677 0.114468 6.87517 0.114468H5.62776C5.47652 0.114468 5.37543 0.167278 5.26361 0.384679C4.59181 1.65167 3.98704 2.39878 3.72665 2.66808C3.31635 2.18093 2.77684 1.30463 2.38213 0.384679C2.29637 0.185098 2.20571 0.114468 2.03219 0.114468H0.427306ZM29.1493 0.114468C29.0236 0.114468 28.9328 0.214946 28.9844 0.384679C29.3297 1.51334 30.206 2.85339 31.1148 3.95332C29.9572 4.99645 29.1475 6.38391 28.7412 7.49876C28.6812 7.6627 28.7748 7.76988 28.8657 7.76988H30.2318C30.4282 7.76988 30.5185 7.6999 30.6085 7.50009C30.978 6.68417 31.5262 5.74262 32.2457 4.97904C32.9052 5.61387 33.4822 6.57925 33.8515 7.50009C33.9559 7.75469 34.0755 7.76988 34.2299 7.76988H35.7196C36.0045 7.76988 36.0299 7.61531 35.9789 7.48055C35.4102 5.98279 34.2014 4.45401 33.5204 3.80827C34.1444 3.1418 35.2764 1.85459 35.7707 0.384679C35.8437 0.168392 35.7089 0.114468 35.5971 0.114468H34.3502C34.1987 0.114468 34.0974 0.167278 33.9856 0.384679C33.314 1.65167 32.7092 2.39878 32.449 2.66808C32.0383 2.18093 31.4988 1.30463 31.1039 0.384679C31.0183 0.185098 30.9272 0.114468 30.7541 0.114468H29.1493ZM24.6328 1.44028C25.9878 1.44028 26.4983 2.61218 26.4983 3.93307C26.4983 5.25441 25.9878 6.42711 24.6328 6.42691C23.2774 6.42691 22.7553 5.25441 22.7553 3.93307C22.7553 2.6124 23.2774 1.44028 24.6328 1.44028ZM11.4455 1.44696C12.4592 1.44696 13.0785 2.13549 13.0785 3.15745V3.20379H9.57531C9.61296 2.94963 9.68556 2.70814 9.79961 2.47894C10.1119 1.84901 10.7075 1.44696 11.4455 1.44696Z" fill="#333333"/>
</svg>
