<svg width="40" height="40" viewBox="0 0 40 40" fill="none" xmlns="http://www.w3.org/2000/svg">
<path d="M26.6317 16C24.3044 16 22.7597 17.731 22.7597 19.9344C22.7597 22.2641 24.3254 23.8656 26.6317 23.8656C28.8939 23.8656 30.4957 22.1921 30.4957 19.9326C30.4957 17.6735 28.8937 16 26.6317 16ZM13.382 16.0056C12.6427 16.0056 11.7072 16.2602 11.0189 16.8262C10.1979 17.5015 9.56234 18.5583 9.56234 19.9798C9.56234 21.2056 9.95951 22.1928 10.6761 22.8615C11.3775 23.5164 12.3697 23.8739 13.5999 23.8739C14.5902 23.8739 15.7863 23.5001 16.2993 23.1829C16.4789 23.072 16.5352 23.0243 16.4887 22.843L16.1683 21.9358C16.1311 21.787 15.9661 21.7489 15.832 21.8155C15.6068 21.9262 15.4386 22.0133 15.2103 22.0975C14.7668 22.2614 14.308 22.3733 13.8712 22.3733C12.9514 22.3733 12.4284 22.1233 12.0279 21.662C11.7735 21.3691 11.6245 20.9978 11.5782 20.5688H16.6535C16.8382 20.5688 16.9204 20.4411 16.9204 20.2253V19.8595C16.9204 19.6813 16.9123 19.4016 16.8972 19.2343C16.8039 18.2123 16.4279 17.3902 15.8006 16.8331C15.1963 16.2956 14.385 16.0056 13.382 16.0056ZM21.6564 16.0129C20.191 16.0129 19.296 16.349 18.7217 17.0894C18.2818 17.6572 18.2023 18.2923 18.2028 19.651V23.3803C18.223 23.646 18.3299 23.7703 18.5783 23.7703H19.7377C20.0059 23.7703 20.1155 23.6304 20.1155 23.3803V19.5815C20.1155 18.7257 20.1259 18.2481 20.4269 17.9252C20.6857 17.6474 21.033 17.4657 21.7613 17.4657C21.9057 17.4657 22.2516 17.5038 22.3724 17.5185C22.418 17.524 22.4552 17.5276 22.4748 17.5276C22.6004 17.5276 22.6441 17.4819 22.6844 17.3222L22.8584 16.4673C22.8904 16.292 22.8637 16.1557 22.689 16.1143C22.4235 16.0514 22.0008 16.0129 21.6564 16.0129ZM2.42731 16.1145C2.30123 16.1145 2.2106 16.2149 2.26249 16.3847C2.60798 17.5133 3.48424 18.8534 4.39282 19.9533C3.23498 20.9964 2.42529 22.3839 2.019 23.4988C1.95908 23.6627 2.05199 23.7699 2.14331 23.7699H3.50963C3.70631 23.7699 3.7965 23.6999 3.88671 23.5001C4.25603 22.6842 4.80447 21.7426 5.52373 20.979C6.18306 21.6139 6.75998 22.5793 7.12974 23.5001C7.23332 23.7547 7.35314 23.7699 7.50795 23.7699H8.99766C9.28278 23.7699 9.30799 23.6153 9.25676 23.4805C8.68853 21.9828 7.47969 20.454 6.79786 19.8083C7.42222 19.1418 8.55399 17.8546 9.04849 16.3847C9.12133 16.1684 8.98677 16.1145 8.87517 16.1145H7.62776C7.47652 16.1145 7.37543 16.1673 7.26361 16.3847C6.59181 17.6517 5.98704 18.3988 5.72665 18.6681C5.31635 18.1809 4.77684 17.3046 4.38213 16.3847C4.29637 16.1851 4.20571 16.1145 4.03219 16.1145H2.42731ZM31.1493 16.1145C31.0236 16.1145 30.9328 16.2149 30.9844 16.3847C31.3297 17.5133 32.206 18.8534 33.1148 19.9533C31.9572 20.9964 31.1475 22.3839 30.7412 23.4988C30.6812 23.6627 30.7748 23.7699 30.8657 23.7699H32.2318C32.4282 23.7699 32.5185 23.6999 32.6085 23.5001C32.978 22.6842 33.5262 21.7426 34.2457 20.979C34.9052 21.6139 35.4822 22.5793 35.8515 23.5001C35.9559 23.7547 36.0755 23.7699 36.2299 23.7699H37.7196C38.0045 23.7699 38.0299 23.6153 37.9789 23.4805C37.4102 21.9828 36.2014 20.454 35.5204 19.8083C36.1444 19.1418 37.2764 17.8546 37.7707 16.3847C37.8437 16.1684 37.7089 16.1145 37.5971 16.1145H36.3502C36.1987 16.1145 36.0974 16.1673 35.9856 16.3847C35.314 17.6517 34.7092 18.3988 34.449 18.6681C34.0383 18.1809 33.4988 17.3046 33.1039 16.3847C33.0183 16.1851 32.9272 16.1145 32.7541 16.1145H31.1493ZM26.6328 17.4403C27.9878 17.4403 28.4983 18.6122 28.4983 19.9331C28.4983 21.2544 27.9878 22.4271 26.6328 22.4269C25.2774 22.4269 24.7553 21.2544 24.7553 19.9331C24.7553 18.6124 25.2774 17.4403 26.6328 17.4403ZM13.4455 17.447C14.4592 17.447 15.0785 18.1355 15.0785 19.1575V19.2038H11.5753C11.613 18.9496 11.6856 18.7081 11.7996 18.4789C12.1119 17.849 12.7075 17.447 13.4455 17.447Z" fill="#333333"/>
</svg>
