<svg xmlns="http://www.w3.org/2000/svg" width="50" height="50" fill="none">
<path fill="#fff" fill-rule="evenodd" stroke="#DA1A1A" stroke-width="1.117" d="M25 1C11.752 1 1 11.745 1 25c0 13.253 10.751 24 24 24 13.258 0 24-10.747 24-24C49 11.744 38.258 1 25 1Z" clip-rule="evenodd"/><path fill="#DA1A1A" d="m22.01 29.496 7.807-4.5-7.807-4.5v9Z"/><path fill="#DA1A1A" d="M25 1a24 24 0 1 0 0 48 24 24 0 0 0 0-48Zm15 24.025s0 4.867-.617 7.214a3.758 3.758 0 0 1-2.644 2.643C34.389 35.5 25 35.5 25 35.5s-9.364 0-11.735-.642a3.758 3.758 0 0 1-2.644-2.644C10 29.892 10 25 10 25s0-4.867.618-7.214a3.834 3.834 0 0 1 2.644-2.669C15.612 14.5 25 14.5 25 14.5s9.389 0 11.735.642a3.759 3.759 0 0 1 2.644 2.644c.642 2.347.621 7.239.621 7.239Z"/>
</svg>