<svg xmlns="http://www.w3.org/2000/svg" width="180" height="60" viewBox="0 0 180 60" fill="none" fill-rule="nonzero">
  <path fill="#FFF" d="M69.677 36.005c0 3.327-1.607 4.99-4.82 4.99-3.12 0-4.68-1.624-4.68-4.872v-6.391h2.596v6.42c0 1.794.723 2.689 2.18 2.689 1.457 0 2.134-.867 2.134-2.594v-6.515h2.59v6.273ZM79.957 40.41a7.856 7.856 0 0 1-3.285.563 5.684 5.684 0 0 1-2.233-.328 5.634 5.634 0 0 1-1.922-1.169 5.382 5.382 0 0 1-1.174-1.843 5.334 5.334 0 0 1-.34-2.151 5.702 5.702 0 0 1 .397-2.332 5.755 5.755 0 0 1 1.31-1.978 6.054 6.054 0 0 1 2.04-1.268 6.11 6.11 0 0 1 2.378-.38 8.632 8.632 0 0 1 2.846.404v2.403a5.17 5.17 0 0 0-2.624-.664 3.57 3.57 0 0 0-2.63 1.03 3.554 3.554 0 0 0-.996 2.661 3.462 3.462 0 0 0 .939 2.554 3.4 3.4 0 0 0 2.522.956 5.532 5.532 0 0 0 2.772-.708v2.25ZM102.458 36.005c0 3.327-1.607 4.99-4.821 4.99-3.12 0-4.68-1.624-4.68-4.872v-6.391h2.597v6.42c0 1.794.722 2.689 2.18 2.689 1.457 0 2.134-.867 2.134-2.594v-6.515h2.59v6.273ZM103.949 40.377v-2.47a5.039 5.039 0 0 0 3.165 1.125c.287.004.573-.025.853-.084.215-.047.42-.127.61-.237.148-.088.272-.21.364-.354a.848.848 0 0 0 .119-.445.972.972 0 0 0-.193-.562 2.02 2.02 0 0 0-.524-.467 4.864 4.864 0 0 0-.791-.417 19.234 19.234 0 0 0-.985-.41 5.025 5.025 0 0 1-2.049-1.34 2.826 2.826 0 0 1-.66-1.884 2.876 2.876 0 0 1 .364-1.486c.238-.414.574-.765.98-1.024.442-.276.929-.476 1.44-.59a7.763 7.763 0 0 1 1.707-.186c.531-.005 1.062.03 1.588.101.437.062.867.17 1.281.32v2.308a4.22 4.22 0 0 0-.632-.338 5.145 5.145 0 0 0-.7-.242 5.424 5.424 0 0 0-.717-.146 5.758 5.758 0 0 0-.678-.045c-.27-.003-.539.026-.802.084-.214.043-.42.119-.61.225a1.1 1.1 0 0 0-.38.355.798.798 0 0 0-.137.456.854.854 0 0 0 .153.5 1.7 1.7 0 0 0 .433.417c.213.147.44.275.677.382.268.13.57.259.905.394.426.16.84.349 1.241.563.343.193.659.429.939.703.258.259.463.564.604.9.143.376.213.775.205 1.176a3.059 3.059 0 0 1-.365 1.559 2.828 2.828 0 0 1-.99 1.018 4.378 4.378 0 0 1-1.452.563 8.787 8.787 0 0 1-1.753.168 9.79 9.79 0 0 1-1.798-.157 5.39 5.39 0 0 1-1.412-.433ZM84.358 40.804h-2.607V29.732h2.584zM85.376 35.994l4.007 4.81h3.268l-5.009-5.795 4.007-5.277h-3.085l-3.171 4.613zM56.437 36.495c.31-.15.6-.34.86-.563.398-.324.717-.732.933-1.195.216-.463.323-.968.314-1.478 0-2.352-1.448-3.527-4.344-3.527h-5.344v11.072h2.59v-9.16h2.31c1.378 0 2.067.563 2.067 1.688 0 1.126-.69 1.707-2.067 1.745h-1.462l4.599 5.7h3.267l-3.723-4.282ZM46.078 19.97l-.706-.883-3.825 1.62-1.61-1.086-2.585.563-2.846 1.26-.734 1.61 1.36 1.586 1.042.303 2.75-2.813-2.431 3.939-1.873-.602-.421-.647-3.142 3.826-9.78 2.543h-.842c-9.061-3.837-3.853-9.002-3.802-9.042-.063.034-7.434 3.714.9 10.493l-1.56 1.745-1.11 4.945-2.8 2.194L9 48.135h2.909l.478-1.125-1.139-.276 1.839-3.162c.956-.506 4.383-1.868 5.054-2.329l4.554-5.626 5.106 1.58.717-3.133.25.529.393 4.461-2.157 9.531h3.05v-.973l-1.137-.473 3.705-8.22s5.635-3.544 5.624-3.578c-.012-.034 2.738-8.44 2.738-8.44l3.415-.287.996-1.355h-4.03l4.679-3.41.034-1.88Z"/>
  <path fill="#FFF" d="m33.556 39.437 3.706-2.323-4.008 9.232 1.144.434v.922l-2.681.006zM24.21 41.519l-4.236 2.127-1.56 2.723 1.185.326-.462 1.001h-2.624l2.055-5.339c.194-.118 2.34-2.014 2.34-2.014l.182-1.204 1.986-2.459 2.892.923-1.759 3.916Z"/>
  <path fill="#F47920" d="m40.255 30.649-8.498-3.157.848-1.046 8.009 2.841z"/>
  <path fill="#FFF" d="M114.588 30.446a1.19 1.19 0 0 1-.697 1.15 1.221 1.221 0 0 1-1.338-.216 1.188 1.188 0 0 1-.291-1.31 1.215 1.215 0 0 1 1.124-.75 1.149 1.149 0 0 1 .846.308 1.115 1.115 0 0 1 .356.818Zm-2.101 0a.884.884 0 0 0 .158.494.914.914 0 0 0 1.391.123.884.884 0 0 0 .191-.974.901.901 0 0 0-.835-.549.908.908 0 0 0-.647.263.87.87 0 0 0-.258.643Zm.717.563h-.267v-1.125c.148-.026.299-.038.449-.034a.715.715 0 0 1 .405.084.294.294 0 0 1 .119.248.296.296 0 0 1-.245.259.321.321 0 0 1 .211.276.93.93 0 0 0 .091.28h-.296a.959.959 0 0 1-.091-.275c0-.124-.097-.18-.245-.18h-.131v.467Zm0-.641h.126c.153 0 .273-.045.273-.164 0-.118-.08-.174-.251-.174a.454.454 0 0 0-.148 0v.338Z"/>
  <path fill="#F47920" d="M48.901 19.874v5.373h2.602v-7.224zM54.474 15.913v9.335h2.596V14.062zM60.177 11.851v13.396h2.602V10zM51.862 48.968c-.38.165-.793.242-1.207.225a2.06 2.06 0 0 1-1.531-.563 2.06 2.06 0 0 1-.57-1.502 2.182 2.182 0 0 1 .627-1.626 2.207 2.207 0 0 1 1.628-.624c.353-.009.706.042 1.041.152v.905a1.9 1.9 0 0 0-.967-.247 1.295 1.295 0 0 0-.962.371 1.374 1.374 0 0 0-.364 1.002 1.314 1.314 0 0 0 .347.962 1.208 1.208 0 0 0 .927.36c.358.003.71-.089 1.02-.265l.01.85ZM54.997 49.193a1.996 1.996 0 0 1-1.48-.563 2.094 2.094 0 0 1-.57-1.524 2.234 2.234 0 0 1 .57-1.598 1.998 1.998 0 0 1 1.537-.614 1.94 1.94 0 0 1 1.463.563c.387.42.591.974.569 1.542a2.235 2.235 0 0 1-.57 1.592 1.993 1.993 0 0 1-1.519.602Zm.04-3.51a.979.979 0 0 0-.797.37 1.55 1.55 0 0 0-.29.985c-.02.35.083.695.29.98a.941.941 0 0 0 .774.36.966.966 0 0 0 .78-.35c.208-.28.311-.625.29-.973a1.618 1.618 0 0 0-.279-1.013.915.915 0 0 0-.808-.36h.04ZM63.245 49.12h-.939v-2.504c0-.264 0-.562.034-.889a8.482 8.482 0 0 1-.13.563l-.991 2.813h-.78l-1.008-2.813a4.417 4.417 0 0 1-.13-.563c0 .411.04.771.04 1.08v2.313h-.928v-4.18h1.394l.865 2.475c.066.197.115.398.148.602.044-.206.1-.409.171-.607l.86-2.47h1.36l.034 4.18ZM69.683 49.12h-.94v-2.504c0-.264 0-.562.04-.889-.03.19-.073.379-.13.563l-.99 2.813h-.78l-1.008-2.813c0-.073-.069-.27-.131-.563 0 .411.04.771.04 1.08v2.313h-.86v-4.18h1.395l.865 2.475c.068.196.117.398.148.602.044-.205.1-.408.165-.607l.865-2.47h1.355l-.034 4.18ZM71.117 48.957v-.928c.32.263.722.412 1.139.421.105.002.21-.009.313-.033a.767.767 0 0 0 .227-.085.424.424 0 0 0 .131-.135.29.29 0 0 0 .046-.169.385.385 0 0 0-.069-.219.827.827 0 0 0-.193-.174 2.292 2.292 0 0 0-.29-.158l-.348-.152a1.856 1.856 0 0 1-.74-.495 1.218 1.218 0 0 1-.108-1.271 1.13 1.13 0 0 1 .359-.389c.161-.104.34-.179.53-.22.208-.05.422-.074.637-.072.19-.002.38.011.569.04.161.023.32.062.472.117v.872a2.286 2.286 0 0 0-.233-.129 2.293 2.293 0 0 0-.256-.09l-.268-.056h-.25a1.15 1.15 0 0 0-.29.034.771.771 0 0 0-.228.084.391.391 0 0 0-.137.135.296.296 0 0 0-.05.169.318.318 0 0 0 .056.191c.04.062.093.115.154.158.081.054.167.103.256.146l.33.146c.157.062.31.135.455.22.129.072.246.163.348.27.095.097.17.211.222.337.115.338.095.706-.057 1.03a1.09 1.09 0 0 1-.365.388c-.164.1-.345.171-.535.208a3.01 3.01 0 0 1-.643.068 3.62 3.62 0 0 1-.666-.062 1.965 1.965 0 0 1-.518-.197ZM78.387 48.968c-.38.165-.793.242-1.207.225a2.06 2.06 0 0 1-1.531-.563 2.063 2.063 0 0 1-.57-1.502 2.184 2.184 0 0 1 .627-1.626 2.208 2.208 0 0 1 1.628-.624 3.1 3.1 0 0 1 1.041.152v.905a1.889 1.889 0 0 0-.967-.247 1.282 1.282 0 0 0-.957.371 1.525 1.525 0 0 0 0 1.964 1.208 1.208 0 0 0 .928.36c.358.003.71-.089 1.019-.265l-.011.85ZM81.5 49.193a1.996 1.996 0 0 1-1.48-.563 2.094 2.094 0 0 1-.57-1.524 2.234 2.234 0 0 1 .57-1.598 1.998 1.998 0 0 1 1.537-.614 1.94 1.94 0 0 1 1.463.563A2.134 2.134 0 0 1 83.589 47a2.235 2.235 0 0 1-.57 1.592 2.012 2.012 0 0 1-1.519.602Zm.04-3.51a.96.96 0 0 0-.791.37c-.21.285-.315.633-.296.985-.02.35.084.697.296.98a.925.925 0 0 0 .768.36.977.977 0 0 0 .786-.35c.204-.283.304-.626.284-.973a1.617 1.617 0 0 0-.279-1.013.915.915 0 0 0-.768-.36ZM85.905 47.68v1.44h-.95v-4.18h1.491c1.064 0 1.6.444 1.6 1.333a1.264 1.264 0 0 1-.462 1.018 1.819 1.819 0 0 1-1.223.389h-.456Zm0-2.014v1.3h.399c.506 0 .762-.22.762-.66 0-.438-.256-.64-.762-.64h-.399ZM91.859 49.12h-2.533v-4.18h2.436v.765h-1.474v.934h1.383v.759h-1.383v.957h1.582z"/>
  <path fill="#FFF" stroke="#FFF" stroke-width=".3" d="m171.4 36.224-.045-.132a6.79 6.79 0 0 0-5.218-4.476c-.21-4.91-4.326-8.87-9.279-8.87l-.19.007a9.063 9.063 0 0 0-2.363.362 9.263 9.263 0 0 0-5.834 4.956 4.304 4.304 0 0 0-3.053-1.244 4.335 4.335 0 0 0-3.377 1.61l.379.305a3.849 3.849 0 0 1 2.998-1.43c1.145 0 2.19.48 2.942 1.351l.257.298.153-.363a8.768 8.768 0 0 1 5.669-5.016 8.557 8.557 0 0 1 2.243-.344l.186-.008c4.747 0 8.69 3.857 8.788 8.598l.005.203.202.031a6.308 6.308 0 0 1 5.031 4.185l.045.134c.211.6.319 1.257.319 1.954 0 3.5-2.858 6.349-6.372 6.349h-12.954v.485h12.954c3.782 0 6.859-3.066 6.859-6.834 0-.752-.117-1.464-.345-2.11Z"/>
  <path fill="#EC7100" d="m155.646 27.819-4.842 3.476h3.756v11.207h4.35V27.819z"/>
  <path fill="#FFF" stroke="#FFF" stroke-width="1.333" d="M142.321 30.148h-6.946v14.56h2.354V31.562h3.953c1.058 0 1.975.218 2.634.768.683.57.975 1.396.975 2.35 0 .967-.289 1.805-.969 2.385-.518.44-1.194.672-1.973.752v.047h-1.358l5.478 6.844h2.886l-4.356-5.082-.564-.658.781-.376c.405-.196.77-.42 1.084-.682 1.026-.859 1.534-1.96 1.534-3.362 0-1.547-.466-2.599-1.301-3.284-.861-.706-2.227-1.116-4.212-1.116Z"/>
  <path fill="#565758" d="M123.128 28.183h1.202V47.34h-1.202z"/>
</svg>
