<svg xmlns="http://www.w3.org/2000/svg" width="180" height="60" fill="none">
  <path fill="#fff" d="M68.6773 36.005c0 3.327-1.607 4.9906-4.8212 4.9906-3.1192 0-4.6789-1.6242-4.6789-4.8724v-6.3916h2.5956v6.4197c0 1.7948.7229 2.6894 2.1801 2.6894 1.4572 0 2.1345-.8665 2.1345-2.5938v-6.5153h2.5899v6.2734ZM78.9565 40.4104c-1.0408.42-2.1613.612-3.2843.5626-.759.0411-1.5185-.0704-2.2327-.3276s-1.3682-.6549-1.9225-1.169c-.5141-.529-.9135-1.1561-1.1739-1.843-.2603-.6869-.3761-1.419-.3402-2.1517-.0323-.796.1028-1.59.3967-2.3318.2939-.7418.7403-1.4153 1.3109-1.9779.5867-.5537 1.2801-.985 2.039-1.2682.7588-.2832 1.5676-.4126 2.378-.3804.9651-.0249 1.9274.112 2.8461.4051v2.4025c-.7986-.45-1.705-.6793-2.6241-.6639-.4864-.0166-.971.0663-1.4236.2435-.4525.1771-.8631.4448-1.2061.7861-.3403.3534-.6041.7716-.7754 1.2292-.1712.4576-.2464.9448-.2207 1.432-.0237.4662.0472.9323.2085 1.371s.4097.8411.7307 1.1834c.3306.323.7254.5747 1.1594.7394.434.1646.8978.2385 1.3622.2171.9712.0106 1.9278-.234 2.772-.7089v2.2505ZM101.458 36.005c0 3.327-1.6071 4.9906-4.8213 4.9906-3.1192 0-4.6788-1.6242-4.6788-4.8724v-6.3916h2.5956v6.4197c0 1.7948.7228 2.6894 2.18 2.6894 1.4572 0 2.1345-.8665 2.1345-2.5938v-6.5153h2.59v6.2734ZM102.949 40.3766v-2.47c.892.7249 2.01 1.1224 3.165 1.1253.287.0039.573-.0245.854-.0844.214-.0462.42-.126.609-.2363.148-.0882.272-.2096.364-.3545.08-.1347.121-.2883.119-.4444-.004-.2029-.071-.3995-.193-.5627-.146-.1847-.323-.3428-.524-.467-.25-.1626-.515-.302-.791-.4163-.302-.135-.632-.2757-.985-.4107-.784-.2718-1.488-.7319-2.049-1.3391-.443-.529-.677-1.1984-.66-1.8848-.015-.5184.111-1.0313.364-1.4854.238-.4144.574-.7657.979-1.024.443-.2761.93-.4758 1.44-.5907.561-.1249 1.133-.1871 1.708-.1857.531-.0044 1.062.0295 1.588.1013.437.0615.867.169 1.281.3207v2.3068c-.201-.1303-.412-.2432-.632-.3376-.227-.0973-.461-.1781-.7-.2419-.236-.0649-.475-.1138-.717-.1463-.225-.0283-.451-.0434-.678-.045-.27-.0025-.539.0258-.802.0844-.214.0426-.42.1186-.609.225-.154.0863-.285.2078-.382.3545-.091.1348-.138.2937-.136.4557-.003.1786.051.3536.153.5008.118.163.265.304.433.4163.213.1476.44.2757.677.3826.268.1294.569.2588.905.3938.426.1609.84.3488 1.241.5627.343.1929.659.4293.939.7033.258.2587.463.5644.604.9002.143.3755.213.7746.205 1.1759.019.5421-.107 1.0797-.365 1.5585-.237.4172-.578.7677-.99 1.0183-.446.2725-.937.4631-1.452.5627-.577.1148-1.164.1714-1.753.1688-.603.003-1.205-.0498-1.798-.1576-.489-.0791-.964-.2249-1.412-.4332ZM83.3579 40.8043h-2.607V29.7316h2.5842l.0228 11.0727ZM84.3762 35.9937l4.0072 4.8106h3.2672l-5.009-5.7952 4.0072-5.2775h-3.0851l-3.1705 4.6136-.017 1.6485ZM55.4374 36.4945c.3102-.1495.5992-.3387.8595-.5626.3984-.3236.7175-.7321.9334-1.195.2159-.4628.3229-.968.3131-1.4775 0-2.3519-1.4476-3.5278-4.343-3.5278h-5.3448v11.0727h2.5898v-9.1597h2.311c1.3775 0 2.0662.5626 2.0662 1.6879s-.6887 1.7066-2.0662 1.7442h-1.4628l4.5991 5.6994H59.16l-3.7226-4.2816ZM45.0781 19.9699l-.7058-.8834-3.8251 1.6204-1.6108-1.0859-2.5842.5626-2.8461 1.2603-.7342 1.6092 1.3604 1.5866 1.0416.3038 2.7493-2.8131-2.4305 3.9384-1.8727-.602-.4212-.6471-3.1421 3.8259-9.7789 2.5431h-.8424c-9.0618-3.8371-3.8536-9.0021-3.8023-9.0415-.0627.0338-7.43388 3.7134.8993 10.4931l-1.5596 1.7442-1.11 4.9455-2.8005 2.1943L8 48.1352h2.9086l.4782-1.1252-1.1384-.2757 1.8385-3.162c.9563-.5064 4.3829-1.8679 5.0546-2.3293l4.5536-5.6263 5.1058 1.581.7172-3.1339.2504.5289.3928 4.4617-2.1573 9.531h3.0509v-.9734l-1.1384-.4726 3.7056-8.2201s5.6351-3.5446 5.6237-3.5783c-.0114-.0338 2.7379-8.4395 2.7379-8.4395l3.4152-.287.9962-1.3559h-4.03l4.6789-3.4096.0341-1.8791Z"/>
  <path fill="#fff" d="m32.556 39.4372 3.7055-2.3236-4.0072 9.2328 1.1441.4332v.9227l-2.681.0056 1.8386-8.2707ZM23.2092 41.5187l-4.2349 2.1268-1.5596 2.7231 1.1839.3263-.4611 1.0015h-2.624l2.0548-5.3394c.1936-.1181 2.3395-2.0142 2.3395-2.0142l.1821-1.204 1.9866-2.4587 2.8915.9227-1.7588 3.9159Z"/>
  <path fill="#F47920" d="m39.2554 30.6487-8.4982-3.1564.8481-1.0465 8.0087 2.8413-.3586 1.3616Z"/>
  <path fill="#fff" d="M113.588 30.4464c.013.2385-.046.4756-.17.6806-.124.205-.308.3683-.527.4689-.22.1005-.464.1337-.703.0951-.239-.0386-.46-.1471-.635-.3114-.176-.1644-.297-.3771-.349-.6105-.052-.2334-.031-.4768.059-.6986.089-.2219.245-.4119.445-.5455s.437-.2047.679-.2039c.154-.0084.309.0144.454.0672.146.0528.279.1343.391.2397.113.1053.202.2322.263.3729.061.1408.093.2923.093.4455Zm-2.101 0c.002.1764.057.3482.158.4939.101.1456.243.2585.409.3245.165.066.347.0821.522.0463.174-.0358.335-.1218.46-.2474.126-.1255.211-.285.245-.4582.034-.1732.015-.3525-.054-.5153s-.185-.3019-.333-.3997c-.149-.0978-.323-.15-.502-.15-.12-.0015-.239.0209-.351.066-.111.0451-.212.112-.296.1966-.085.0846-.151.1851-.195.2957-.045.1105-.066.2287-.063.3476Zm.717.5626h-.267v-1.1253c.148-.0259.299-.0372.45-.0337.14-.0124.28.017.404.0844.039.0284.07.0659.091.109.02.0432.03.0907.028.1385-.006.0637-.034.1235-.078.1702-.044.0468-.103.0779-.167.0886.058.0219.108.0593.146.1081.037.0487.06.1068.065.1676.015.098.046.193.091.2813h-.296c-.044-.0868-.075-.1797-.091-.2757 0-.1237-.097-.18-.245-.18h-.131v.467Zm0-.6414h.126c.153 0 .273-.045.273-.1632 0-.1181-.08-.1744-.251-.1744-.049-.0081-.099-.0081-.148 0v.3376Z"/>
  <path fill="#F47920" d="M47.9013 19.8742v5.3731h2.6012v-7.2242l-2.6012 1.8511ZM53.4739 15.9135v9.3341h2.5956V14.0624l-2.5956 1.8511ZM59.1772 11.8511v13.3962h2.6013V10l-2.6013 1.8511ZM50.8618 48.9681c-.3796.1651-.7924.2421-1.2068.225-.2806.0157-.5616-.0262-.8251-.123-.2635-.0968-.5039-.2465-.706-.4396-.1915-.2002-.3405-.4363-.4382-.6943-.0978-.258-.1423-.5327-.131-.8079-.0127-.2989.0363-.5971.144-.8767.1076-.2795.2716-.5345.4821-.7494.214-.2082.4687-.3711.7487-.4785.2799-.1074.5791-.1571.8792-.146.3535-.0086.7058.0428 1.0417.1519v.9059c-.2941-.1672-.6285-.2527-.9677-.2476-.1776-.0075-.3549.0217-.5205.0856-.1656.0639-.3159.1612-.4414.2858-.1249.1347-.2214.2926-.2839.4645-.0625.172-.0899.3545-.0804.5369-.0093.1751.0166.3503.0762.5154.0596.1651.1517.317.271.4467.1198.1219.2645.2171.4245.2792.16.0621.3316.0897.5033.0809.3573.0027.709-.0885 1.0189-.2644l.0114.8496ZM53.997 49.193c-.2726.0124-.5449-.0312-.7996-.128-.2547-.0969-.4864-.2448-.6804-.4346-.1926-.204-.3422-.4439-.4399-.7057-.0978-.2618-.1417-.5402-.1293-.819-.028-.5856.1762-1.1589.5692-1.5979.1969-.205.436-.3658.7011-.4716.2651-.1058.5501-.1541.8358-.1417.2702-.0134.5402.0297.7923.1267.2521.0969.4806.2455.6706.436.3869.4202.5913.9738.5692 1.5416.0265.5836-.1776 1.1546-.5692 1.5922-.1958.2011-.4325.3587-.6945.4625s-.5433.1513-.8253.1395Zm.0398-3.5108c-.1531-.0048-.3051.0263-.4437.0908-.1385.0646-.2595.1607-.3532.2806-.2059.2866-.3082.6334-.2903.9846-.0189.3494.0836.6948.2903.9789.0913.116.209.2091.3435.2716.1345.0626.2821.0929.4307.0885.1484.0058.2962-.0228.4315-.0833.1354-.0606.2546-.1515.3483-.2655.2085-.2811.3111-.6254.2903-.9734.0224-.3587-.0757-.7147-.279-1.0127-.0929-.1227-.2157-.2201-.3571-.2831-.1414-.063-.2966-.0894-.4511-.077h.0398ZM62.2452 49.12h-.9392v-2.5037c0-.2644 0-.5626.0341-.8889-.0512.2531-.0968.4388-.1309.5626l-.9904 2.8132h-.7798L58.4315 46.29c-.0559-.1846-.0997-.3725-.131-.5626 0 .4107.0399.7708.0399 1.0802V49.12h-.9278v-4.1803h1.3945l.8652 2.4756c.0654.1964.1149.3977.148.602.0435-.206.1005-.409.1708-.6077l.8595-2.4699h1.3604l.0342 4.1803ZM68.6827 49.12h-.9391v-2.5037c0-.2644 0-.5626.0398-.8889-.0294.1905-.0732.3785-.1309.5626l-.9904 2.8132h-.7798L64.8748 46.29c0-.0732-.0683-.2701-.1309-.5626 0 .4107.0398.7708.0398 1.0802V49.12h-.8595v-4.1803h1.3946l.8651 2.4756c.0679.1957.1175.3972.148.602.0445-.2052.0996-.4081.1651-.6077l.8652-2.4699h1.3547l-.0342 4.1803ZM70.1172 48.9569v-.9284c.3203.2638.7216.4126 1.1384.422.1054.0018.2105-.0095.313-.0338.08-.0159.1569-.0444.2277-.0844.0533-.0347.0981-.0809.1309-.135.0323-.0504.0481-.1093.0456-.1688.0001-.0783-.0237-.1547-.0683-.2194-.0548-.0679-.1201-.1268-.1936-.1744-.0927-.0594-.1898-.1121-.2903-.1576l-.3472-.1519c-.2837-.103-.5378-.2729-.7399-.4951-.1344-.1817-.2155-.3965-.2346-.6208-.0191-.2243.0247-.4494.1264-.6507.0869-.1556.2097-.2887.3586-.3883.1614-.1045.3408-.1789.5294-.2194.2086-.0502.4227-.0748.6375-.0731.1905-.0018.3808.0114.5692.0394.1611.0233.3194.0629.4724.1181v.8721c-.0751-.0476-.1531-.0908-.2333-.1294-.0835-.035-.1691-.0651-.2562-.09l-.2675-.0563h-.2505c-.0978-.0011-.1954.0102-.2903.0338-.0799.0159-.1568.0444-.2276.0843-.0562.0331-.1032.0795-.1366.1351-.0339.0499-.0518.1087-.0513.1688-.0021.0681.0179.1351.0569.1913.0403.0619.0926.1154.1537.1575.0817.0548.1673.1037.2562.1463l.3301.1463c.1571.0619.3093.1352.4554.2194.1283.073.2452.164.3472.2701.0957.097.1712.2117.222.3375.1153.3378.0949.7064-.0569 1.0297-.0872.1571-.2124.2905-.3643.3882-.1641.1009-.3454.1714-.5351.2082-.2113.0455-.4269.0682-.6432.0675-.2235 0-.4464-.0208-.666-.0619-.1813-.0409-.3557-.1072-.5179-.1969ZM77.3866 48.9681c-.3796.1651-.7924.2421-1.2067.225-.2807.0157-.5616-.0262-.8251-.123-.2635-.0968-.5039-.2465-.7061-.4396-.1914-.2002-.3404-.4363-.4382-.6943-.0977-.258-.1423-.5327-.131-.8079-.0126-.2989.0364-.5971.144-.8767.1077-.2795.2717-.5345.4822-.7494.2139-.2082.4687-.3711.7486-.4785.28-.1074.5792-.1571.8793-.146.3535-.0091.7059.0423 1.0416.1519v.9059c-.2939-.1677-.6283-.2533-.9676-.2476-.1768-.0074-.3532.0218-.5179.0858-.1646.0639-.314.1612-.4384.2856-.2319.2758-.3589.6231-.3589.9817 0 .3587.127.706.3589.9818.1198.1219.2645.2171.4245.2792.1601.0621.3316.0897.5033.0809.3574.0027.709-.0885 1.0189-.2644l-.0114.8496ZM80.5 49.193c-.2726.0124-.5449-.0312-.7996-.128-.2547-.0969-.4864-.2448-.6804-.4346-.1926-.204-.3422-.4439-.4399-.7057-.0978-.2618-.1417-.5402-.1293-.819-.028-.5856.1762-1.1589.5692-1.5979.1969-.205.436-.3658.7011-.4716.2651-.1058.5502-.1541.8358-.1417.2702-.0134.5402.0297.7923.1267.2521.0969.4807.2455.6706.436.1929.2072.3425.4501.4402.7146.0977.2646.1415.5456.129.827.0265.5836-.1776 1.1546-.5692 1.5922-.1964.2002-.4332.3572-.6951.461-.2618.1037-.5428.1518-.8247.141Zm.0398-3.5108c-.1523-.0053-.3037.0256-.4414.0903-.1377.0646-.2577.161-.3498.2811-.2104.2847-.315.6325-.296.9846-.02.3504.0847.6968.296.9789.0898.1163.2064.2096.3401.2722.1336.0627.2805.0928.4284.0879.1492.0058.2979-.0228.4341-.0833.1363-.0605.2566-.1514.3514-.2655.2039-.2831.3043-.6264.2846-.9734.0224-.3587-.0757-.7147-.2789-1.0127-.0892-.1169-.2056-.2108-.3394-.2735-.1339-.0627-.2811-.0924-.4291-.0866ZM84.9052 47.6797V49.12h-.9505v-4.1803h1.4913c1.0644 0 1.5994.4444 1.5994 1.3334.0061.1932-.0322.3852-.112.5616-.0799.1764-.1992.3326-.349.4568-.3459.2735-.7815.4116-1.2238.3882h-.4554Zm0-2.0142v1.2996h.3985c.5066 0 .7627-.2194.7627-.6582 0-.4389-.2561-.6414-.7627-.6414h-.3985ZM90.859 49.12h-2.533v-4.1803h2.4362v.7651H89.288v.934h1.3832v.7596H89.288v.9565h1.5824l-.0114.7651Z"/>
  <path fill="#D85227" d="M156.036 21.5094v5.2131h-1.108l-5.213 3.7567h4.044v5.2696h-5.227c.047-.3299.075-.674.075-1.0275 0-2.3143-.943-6.1982-7.259-6.1982h-1.456c.693-1.5366 2.239-2.6113 4.03-2.6113 1.353 0 2.545.6033 3.365 1.5507 1.122-2.6866 3.427-4.77 6.269-5.5713.806-.2357 1.631-.3676 2.48-.3818Z"/>
  <path fill="#F37201" d="M172 38.0773c0 3.9263-3.186 7.122-7.122 7.122h-8.843v-2.616h2.409v-6.8392h13.151c.014.0471.028.0943.047.1367.24.6882.358 1.4282.358 2.1965Z"/>
  <path fill="#F99D28" d="M156.035 42.5833v2.616h-4.803l-4.859-5.6891.056-.0472c1.179-.9898 1.881-2.2342 2.098-3.7142h5.227v6.8393h2.277l.004-.0048Z"/>
  <path fill="#FAC799" d="M158.439 35.7394v-9.0216h-2.408v-5.2131c.07-.0047.141-.0047.212-.0047 5.298 0 9.615 4.2704 9.724 9.5448 2.625.4053 4.784 2.2389 5.628 4.6993h-13.151l-.005-.0047Z"/>
  <path fill="#fff" d="M158.439 26.7178v15.8656h-4.68V30.4745h-4.044l5.213-3.7567h3.511ZM149.531 45.1993h-4.492l-6.321-7.9186h2.008v-.0141c1.89 0 2.838-.806 2.838-2.4275 0-1.6214-.948-2.3709-2.838-2.3709h-3.172v12.7264H134V29.8051h7.344c3.978 0 5.967 1.6356 5.967 4.902 0 1.5461-.57 2.7951-1.711 3.752-.354.2969-.754.542-1.179.7494l5.115 5.9861-.005.0047Z"/>
  <path fill="#565758" d="M122.128 28.1829h1.20156V47.34H122.128z"/>
</svg>
