<svg width="1279" height="720" viewBox="0 0 1279 720" fill="none" xmlns="http://www.w3.org/2000/svg">
<path d="M1291 -52.138L1262.45 -88L1107.7 -22.215L1042.54 -66.3001L937.991 -43.4581L822.854 7.70807L793.149 73.0363L848.184 137.451L890.325 149.786L1001.55 35.5754L903.22 195.47L827.46 171.029L810.42 144.76L683.309 300.086L287.699 403.332H253.619C-112.976 247.549 97.7239 37.8596 99.7964 36.2606C97.2634 37.6311 -200.94 187.018 136.18 462.264L73.0847 533.075L28.1814 733.856L-85.113 822.94L-209 1091.33H-91.3304L-71.9874 1045.65L-118.042 1034.46L-43.6638 906.085C-4.97788 885.527 133.647 830.25 160.819 811.519L345.037 583.099L551.593 647.285L580.607 520.055L590.739 541.526L606.628 722.664L519.354 1109.61H642.781V1070.09L596.726 1050.9L746.634 717.181C746.634 717.181 974.605 573.277 974.144 571.906C973.683 570.536 1084.91 229.276 1084.91 229.276L1223.07 217.626L1263.37 162.577H1100.33L1289.62 24.1544L1291 -52.138Z" fill="#231F20"/>
<path d="M784.415 738.203L934.322 643.865L772.21 1018.7L818.495 1036.29V1073.75L710.036 1073.98L784.415 738.203Z" fill="#231F20"/>
<path d="M406.289 822.708L234.966 909.051L171.871 1019.61L219.768 1032.85L201.116 1073.51H94.9599L178.089 856.743C185.918 851.946 272.731 774.968 272.731 774.968L280.1 726.086L360.465 626.267L477.444 663.728L406.289 822.708Z" fill="#231F20"/>
<path d="M1055.44 381.406L711.645 253.262L745.955 210.776L1069.95 326.128L1055.44 381.406Z" fill="#F47920"/>
</svg>
