<svg width="160" height="114" viewBox="0 0 160 114" fill="none" xmlns="http://www.w3.org/2000/svg">
<path d="M18.8774 37.9775C27.3314 47.3708 37.9353 54.9288 43.2999 58.6427C49.4056 62.8697 62.3501 70.1008 68.6618 72.7326C78.0564 76.65 83.2227 77.3545 94.025 71.9534C103.418 67.2568 114.219 59.5821 119.385 56.2944C124.552 53.0068 138.642 43.6135 141.929 38.4472" stroke="#333333" stroke-width="0.5" stroke-linecap="round"/>
<path d="M68.1935 4.16161C60.6788 8.38856 29.2114 24.3571 22.6361 28.5841C20.2863 30.0947 17.0067 34.2201 17.0001 37.9774C16.9985 38.9167 16.9986 41.7347 17.9379 44.5527C18.8772 46.4313 19.7052 47.1262 20.7574 48.31C24.5147 52.5369 36.993 61.5267 41.4226 64.7482C46.5889 68.5055 59.7395 76.9594 71.0114 80.7167C82.2834 84.4741 89.3283 82.1257 95.4339 78.8381C101.54 75.5504 139.581 53.0066 144.279 43.1437C145.309 40.9816 145.01 38.9167 144.749 36.5684C144.279 32.3414 141.461 29.5234 138.643 27.1751C134.416 23.4178 113.281 12.6156 106.706 9.79757C100.332 7.06594 91.6766 3.69192 87.9193 2.75262C84.0263 1.7794 77.9284 -1.31426 68.1935 4.16161Z" stroke="#333333" stroke-linecap="round"/>
<path d="M51.8144 29.2112C55.102 26.8629 67.3146 18.5933 74.3596 16.245C77.6474 15.149 80.9349 13.6888 85.6317 15.7753C91.7373 18.4878 110.053 27.3326 112.871 29.6809C115.689 32.0292 115.219 33.9078 112.401 36.2561C110.147 38.1348 96.7456 46.4322 90.3269 50.346C86.5696 52.6944 80.464 54.1033 75.2977 51.2854C70.1314 48.4674 51.8144 38.1348 49.9357 36.2561C48.0571 34.3775 48.5267 31.5595 51.8144 29.2112Z" stroke="#333333" stroke-width="0.5" stroke-linecap="round"/>
<path d="M60.22 49.7421L55.7315 47.1238C55.3677 46.9116 55.3031 46.4126 55.6009 46.1148C55.8072 45.9085 56.1267 45.8671 56.3788 46.0141L60.8673 48.6324C61.2311 48.8447 61.2956 49.3437 60.9978 49.6415C60.7915 49.8478 60.472 49.8891 60.22 49.7421Z" stroke="#333333" stroke-width="0.5" stroke-linecap="round"/>
<path d="M53.6443 45.8906L49.1558 43.2723C48.792 43.06 48.7274 42.561 49.0252 42.2632C49.2316 42.0569 49.551 42.0156 49.8031 42.1626L54.2916 44.7809C54.6554 44.9931 54.7199 45.4921 54.4221 45.7899C54.2158 45.9963 53.8963 46.0376 53.6443 45.8906Z" stroke="#333333" stroke-width="0.5" stroke-linecap="round"/>
<path d="M66.7952 53.5937L62.3066 50.9754C61.9429 50.7632 61.8783 50.2642 62.1761 49.9663C62.3824 49.76 62.7019 49.7187 62.954 49.8657L67.4425 52.484C67.8063 52.6962 67.8708 53.1952 67.573 53.493C67.3667 53.6994 67.0472 53.7407 66.7952 53.5937Z" stroke="#333333" stroke-width="0.5" stroke-linecap="round"/>
<path d="M79.0088 109L77.7646 105.821H73.7588L72.5283 109H71.3525L75.3037 98.9648H76.2812L80.2119 109H79.0088ZM77.4023 104.775L76.2402 101.679C76.0898 101.287 75.9349 100.806 75.7754 100.236C75.6751 100.674 75.5316 101.155 75.3447 101.679L74.1689 104.775H77.4023ZM87.9229 101.918C87.9229 102.93 87.5765 103.709 86.8838 104.256C86.1956 104.798 85.209 105.069 83.9238 105.069H82.748V109H81.5859V99.0059H84.1768C86.6742 99.0059 87.9229 99.9766 87.9229 101.918ZM82.748 104.071H83.7939C84.8239 104.071 85.569 103.905 86.0293 103.572C86.4896 103.24 86.7197 102.706 86.7197 101.973C86.7197 101.312 86.5033 100.82 86.0703 100.496C85.6374 100.173 84.9629 100.011 84.0469 100.011H82.748V104.071Z" fill="#333333"/>
</svg>
