<svg xmlns="http://www.w3.org/2000/svg" width="390" height="252" viewBox="0 0 390 252" fill="none">
  <path fill="#FFF" d="M0 0h390v252H0z"/>
  <path stroke="#808284" stroke-linejoin="round" stroke-width=".5" d="M119.13 154.096c-9.067 3.72-26.272 7.672-30.69 6.975l-1.627-.233c.852 1.008 3.742 3.201 9.3 3.953 8.602 1.162 17.204.393 22.32 0 3.022-.233 68.82-10.695 108.81-13.718 39.99-3.022 97.186-6.51 107.182-6.51 9.999 0 18.084-1.52 20.229-2.325 1.86-.697 4.338-2.17 5.346-2.79 0 0-.231-2.325-.696-3.022-.465-.698-1.164.232-2.559.232-1.395 0-5.115 0-22.32-3.255s-70.448-5.347-107.183-3.022c-36.734 2.325-99.044 19.995-108.112 23.715Z"/>
  <path stroke="#808284" stroke-linecap="round" stroke-width=".5" d="M31.942 75.044c16.585 26.195 50.546 79.887 53.708 85.095 3.952 6.51 16.74 6.278 20.925 6.278 4.185 0 105.038-4.95 131.13-7.208 24.18-2.092 99.279-10.695 110.904-13.95 6.045-1.692 9.765-4.185 10.695-4.882"/>
  <path fill="#F7F7F7" fill-rule="nonzero" d="M119.13 154.096c-9.067 3.72-26.272 7.672-30.69 6.975l-1.627-.233c.852 1.008 3.742 3.201 9.3 3.953 8.602 1.162 17.204.393 22.32 0 3.022-.233 68.82-10.695 108.81-13.718 39.99-3.022 97.186-6.51 107.182-6.51 9.999 0 18.084-1.52 20.229-2.325 1.86-.697 4.338-2.17 5.346-2.79 0 0-.231-2.325-.696-3.022-.465-.698-1.164.232-2.559.232-1.395 0-5.115 0-22.32-3.255s-70.448-5.347-107.183-3.022c-36.734 2.325-99.044 19.995-108.112 23.715Z"/>
  <path stroke="#333" d="M84.255 189.434c-1.674-2.976-36.813-63.394-54.173-93.232V76.207c-.542-3.023 1.349-10.137 13.253-14.415 14.88-5.348 73.47-12.555 104.16-13.485 27.667-.839 64.403.232 77.19.93 12.787.697 24.877 4.417 32.085 10.695 7.207 6.277 99.975 73.702 101.604 75.097 1.302 1.116 1.626 3.875 1.626 5.115l-1.161 24.413c.231.697-.297 2.896-4.884 4.65-15.81 6.045-93.465 15.577-120.202 18.367-30.923 3.227-111.136 7.905-133.223 7.905-6.98 0-14.183-2.325-16.275-6.045Z"/>
  <path stroke="#333" d="M95.414 195.246c1.007 1.86 3.209 5.859 3.953 6.975.93 1.395 4.185 1.86 8.835 1.627 4.65-.232 105.322-5.58 136.477-9.532 31.155-3.953 87.421-13.718 90.676-14.88 3.255-1.162 5.115-3.255 5.346-4.185.186-.744.543-2.015.699-2.558"/>
  <path fill="#333" fill-rule="nonzero" d="m206.084 161.069-1.627-2.093 1.627-.093 1.86 2.186v4.65h-1.86z"/>
  <path fill="#808284" fill-rule="nonzero" d="m206.084 161.069-1.627-2.093 1.627-.093 1.86 2.186v4.65h-1.86zM219.338 159.908l-1.86-1.86h1.86l1.86 1.86v4.65h-1.86zM232.358 158.976l-1.86-1.86h1.86l1.86 1.86v4.65h-1.86zM244.913 157.582l-1.86-1.86h1.86l1.86 1.86v4.65h-1.86zM257.468 156.187l-1.86-1.86h1.86l1.86 1.86v4.65h-1.86zM270.023 154.793l-1.86-1.86h1.86l1.86 1.86v4.65h-1.86z"/>
  <path fill="#C4C4C4" fill-rule="nonzero" d="M238.455 121.288c-2.072-1.572-1.241-2.486 2.492-2.742 3.624-.25 6.447.394 8.47 1.929l3.982 3.02-3.015.207-4-3.033c-1.117-.848-2.514-1.213-4.207-1.097-1.692.116-1.94.58-.864 1.395l4.059 3.079-3.01.206-3.907-2.964ZM223.77 120.024c.947-.282 2.129-.462 3.464-.528 1.73-.161 3.811-.025 5.76.376 1.872.422 3.408 1.061 4.247 1.767 1.078.755 1.332 1.543.7 2.172-.68.624-2.161 1.032-4.104 1.131-1.105.09-2.309.101-3.558.036l-1.497-1.135c1.208.149 2.404.185 3.462.104 1.163-.062 2.038-.315 2.414-.696.354-.392.172-.876-.501-1.337-.531-.448-1.498-.857-2.682-1.132-1.183-.255-2.462-.346-3.525-.25-1.135.072-2.094.263-2.779.555l-1.402-1.063ZM200.375 123.898c-2.072-1.572-1.242-2.486 2.492-2.742 3.624-.249 6.447.394 8.47 1.93l3.982 3.02-3.015.206-3.999-3.033c-1.118-.848-2.515-1.213-4.208-1.097-1.693.116-1.94.58-.864 1.396l4.058 3.078-3.008.207-3.908-2.965ZM195.919 121.953l1.538 1.167c-1.487-.271-3.034-.37-4.377-.28-.336.022-.651.058-.94.109-.22.038-.41.093-.56.16-.117.053-.186.12-.202.196-.01.07.039.146.138.22.13.095.332.183.575.25.284.076.588.136.9.18.391.056.786.1 1.178.133.434.04.905.08 1.4.115 1.08.066 2.185.228 3.214.47.844.215 1.533.512 1.941.838.34.244.514.496.502.73-.018.216-.19.408-.5.563-.342.165-.783.299-1.304.394-.574.103-1.2.178-1.868.223-.614.045-1.252.071-1.908.079-.546.006-1.112-.01-1.688-.05l-1.437-1.09c.314.046.63.083.945.11.324.028.646.047.964.058.314.012.622.016.924.012.278-.004.55-.015.815-.032.315-.02.61-.056.88-.104.221-.037.413-.09.567-.155.125-.053.201-.121.222-.198.022-.071-.022-.15-.125-.226a1.508 1.508 0 0 0-.49-.225 6.104 6.104 0 0 0-.762-.162 16.9 16.9 0 0 0-1.026-.127c-.39-.04-.822-.077-1.296-.114a40.795 40.795 0 0 1-1.792-.167 17.36 17.36 0 0 1-1.53-.257 8.328 8.328 0 0 1-1.261-.377c-.4-.166-.73-.35-.97-.54-.36-.254-.55-.518-.548-.765.016-.216.193-.409.516-.56.348-.165.8-.294 1.336-.382.599-.1 1.246-.174 1.931-.22.7-.049 1.431-.072 2.188-.068a19.4 19.4 0 0 1 1.91.092ZM218.413 120.188l3.028-.208 6.897 5.232-3.002.206zM220.225 122.543l-7.652-1.953-3.795.26 9.429 2.339-1.368 2.813 3.584-.246.809-2.433zM253.53 120.001a2.348 2.348 0 0 0-.648.335c-.53.374-.45.876.217 1.362 1.465 1.112 3.879 1.552 7.242 1.32l6.21-.425-6.898-5.232-3.008.206 5.705 4.328-2.684.185c-1.6.11-2.751-.102-3.452-.633-.701-.532-.263-.862 1.314-.99l1.699-.116-8.893-2.326-3.796.26 6.992 1.726Z"/>
  <path fill="#C4C4C4" d="M189.84 126.895c-.393.133-.43.37-.094.599.192.146.526.276.923.358.396.083.82.11 1.173.078.576-.04.908-.215.84-.444-.07-.229-.527-.465-1.153-.596-.627-.13-1.296-.128-1.69.005Zm.735.086c.577-.041 1.297.113 1.61.345.158.113.194.23.102.324-.092.095-.304.158-.589.176-.578.04-1.296-.116-1.606-.349-.309-.232-.093-.454.483-.496Zm.427.136.311-.021.701.532a5.337 5.337 0 0 1-.502.051 2.358 2.358 0 0 1-.522-.007.672.672 0 0 1-.293-.108c-.065-.063-.015-.12.124-.141a.974.974 0 0 1-.417-.114 1.688 1.688 0 0 0-.28-.126l.343-.023c.106.037.2.079.277.123.078.058.225.077.397.066l.152-.011-.29-.22Zm.254.314.146-.01.21.16c-.052.007-.11.01-.172.01-.198.015-.326-.006-.4-.062-.073-.055.038-.086.216-.098Z"/>
</svg>
