<svg width="16" height="16" viewBox="0 0 16 16" fill="none" xmlns="http://www.w3.org/2000/svg">
<g clip-path="url(#clip0_103_2213)">
<path d="M8.00098 11.002C9.65783 11.002 11.001 9.65881 11.001 8.00195C11.001 6.3451 9.65783 5.00195 8.00098 5.00195C6.34412 5.00195 5.00098 6.3451 5.00098 8.00195C5.00098 9.65881 6.34412 11.002 8.00098 11.002Z" stroke="currentColor" stroke-linecap="round" stroke-linejoin="round"/>
<path d="M12.3379 5.04034C12.4858 5.25747 12.6172 5.4854 12.7309 5.72222L14.3525 6.62243C14.5501 7.5296 14.5507 8.46858 14.3545 9.37603L12.732 10.2767C12.6179 10.5134 12.4862 10.7411 12.3379 10.958L12.3692 12.8125C11.6823 13.4371 10.8694 13.9072 9.98547 14.191L8.39416 13.2362C8.13218 13.2557 7.8691 13.2555 7.60715 13.2356L6.01672 14.1899C5.13233 13.9073 4.31881 13.4384 3.63104 12.8148L3.66227 10.9593C3.51439 10.7421 3.38303 10.5142 3.26931 10.2774L1.64767 9.37718C1.45015 8.47001 1.44947 7.53103 1.64568 6.62357L3.26822 5.72286C3.38232 5.48623 3.51404 5.2585 3.66226 5.04161L3.63105 3.18712C4.31792 2.56248 5.13076 2.0924 6.01474 1.80859L7.60605 2.7634C7.86803 2.7439 8.13111 2.74411 8.39306 2.76402L9.98349 1.80974C10.8679 2.09227 11.6814 2.56117 12.3692 3.18482L12.3379 5.04034Z" stroke="currentColor" stroke-linecap="round" stroke-linejoin="round"/>
</g>
<defs>
<clipPath id="clip0_103_2213">
<rect width="16" height="16" fill="white"/>
</clipPath>
</defs>
</svg>
