<svg width="16" height="16" viewBox="0 0 16 16" fill="none" xmlns="http://www.w3.org/2000/svg">
<path fill-rule="evenodd" clip-rule="evenodd" d="M4.95722 9.19857L10.6102 3.54562C10.9185 3.35979 11.6287 3.14374 12.2667 3.56905L12.2668 3.56909C12.3798 3.64441 12.6008 3.85661 12.7492 4.16572C12.8797 4.4376 12.9472 4.76816 12.8487 5.14458L7.09576 11.236C6.91961 10.8852 6.68112 10.5113 6.37529 10.1726C6.01132 9.76942 5.53982 9.4043 4.95722 9.19857ZM3.58685 9.15473L9.94183 2.79974C9.96512 2.77646 9.99064 2.75553 10.018 2.73727C10.4829 2.42738 11.6878 1.98128 12.8214 2.73696L12.8214 2.737C13.0832 2.91147 13.4243 3.26135 13.6507 3.73298C13.8836 4.21828 14.0036 4.85295 13.768 5.55982C13.7449 5.62889 13.7071 5.69211 13.6571 5.74504L7.28589 12.4911C7.21665 12.5644 7.12831 12.6137 7.03327 12.6353L2.93138 13.754C2.75609 13.8018 2.56868 13.7508 2.44184 13.6207C2.315 13.4906 2.2687 13.302 2.3209 13.1279L3.44524 9.38015C3.47189 9.29132 3.52169 9.21425 3.58685 9.15473ZM4.28683 10.0549L3.6338 12.2317L3.86495 12.4629L6.26178 11.8092C6.11891 11.499 5.91003 11.15 5.63307 10.8433C5.27994 10.4522 4.8358 10.1489 4.28683 10.0549Z" fill="currentColor"/>
</svg>
