<svg width="16" height="16" viewBox="0 0 16 16" fill="none" xmlns="http://www.w3.org/2000/svg">
<g clip-path="url(#clip0_103_4074)">
<path d="M8 3.49805C3 3.49805 1 7.99854 1 7.99854C1 7.99854 3 12.498 8 12.498C13 12.498 15 7.99854 15 7.99854C15 7.99854 13 3.49805 8 3.49805Z" stroke="currentColor" stroke-linecap="round" stroke-linejoin="round"/>
<path d="M8 10.5C9.38071 10.5 10.5 9.38071 10.5 8C10.5 6.61929 9.38071 5.5 8 5.5C6.61929 5.5 5.5 6.61929 5.5 8C5.5 9.38071 6.61929 10.5 8 10.5Z" fill="currentColor"/>
<path d="M8 10.5C9.38071 10.5 10.5 9.38071 10.5 8C10.5 6.61929 9.38071 5.5 8 5.5C6.61929 5.5 5.5 6.61929 5.5 8C5.5 9.38071 6.61929 10.5 8 10.5Z" stroke="currentColor" stroke-linecap="round" stroke-linejoin="round"/>
</g>
<defs>
<clipPath id="clip0_103_4074">
<rect width="16" height="16" fill="white"/>
</clipPath>
</defs>
</svg>
