<svg width="17" height="16" viewBox="0 0 17 16" fill="none" xmlns="http://www.w3.org/2000/svg">
<g id="16px/Globe" clip-path="url(#clip0_40795_32732)">
<path id="Vector" d="M8.40838 14C11.8915 14 14.7152 11.3137 14.7152 8C14.7152 4.68629 11.8915 2 8.40838 2C4.92522 2 2.10156 4.68629 2.10156 8C2.10156 11.3137 4.92522 14 8.40838 14Z" stroke="currentColor" stroke-miterlimit="10"/>
<path id="Vector_2" d="M2.46094 6H14.3562" stroke="currentColor" stroke-linecap="round" stroke-linejoin="round"/>
<path id="Vector_3" d="M2.46289 10H14.3581" stroke="currentColor" stroke-linecap="round" stroke-linejoin="round"/>
<path id="Vector_4" d="M8.40909 13.839C9.86041 13.839 11.0369 11.2248 11.0369 8.00007C11.0369 4.77531 9.86041 2.16113 8.40909 2.16113C6.95777 2.16113 5.78125 4.77531 5.78125 8.00007C5.78125 11.2248 6.95777 13.839 8.40909 13.839Z" stroke="currentColor" stroke-miterlimit="10"/>
</g>
<defs>
<clipPath id="clip0_40795_32732">
<rect width="16.8182" height="16" fill="white"/>
</clipPath>
</defs>
</svg>
