<svg width="16" height="16" viewBox="0 0 16 16" fill="none" xmlns="http://www.w3.org/2000/svg">
<g clip-path="url(#clip0_104_25494)">
<path d="M11.0107 6.23242H14.0107V3.23242" stroke="#333333" stroke-linecap="round" stroke-linejoin="round"/>
<path d="M4.11035 4.11091C4.62107 3.60019 5.22739 3.19506 5.89468 2.91866C6.56197 2.64226 7.27717 2.5 7.99944 2.5C8.72171 2.5 9.43691 2.64226 10.1042 2.91866C10.7715 3.19506 11.3778 3.60019 11.8885 4.11091L14.0098 6.23223" stroke="#333333" stroke-linecap="round" stroke-linejoin="round"/>
<path d="M4.98877 9.76758H1.98877V12.7676" stroke="#333333" stroke-linecap="round" stroke-linejoin="round"/>
<path d="M11.8888 11.8889C11.378 12.3996 10.7717 12.8048 10.1044 13.0812C9.43713 13.3576 8.72193 13.4998 7.99966 13.4998C7.27739 13.4998 6.5622 13.3576 5.89491 13.0812C5.22761 12.8048 4.6213 12.3996 4.11058 11.8889L1.98926 9.76758" stroke="#333333" stroke-linecap="round" stroke-linejoin="round"/>
</g>
<defs>
<clipPath id="clip0_104_25494">
<rect width="16" height="16" fill="white"/>
</clipPath>
</defs>
</svg>
