<svg width="16" height="16" viewBox="0 0 16 16" fill="none" xmlns="http://www.w3.org/2000/svg">
<path d="M13.7662 9.88696L9.45449 2.37627C9.26783 2.02962 8.98785 1.82741 8.61454 1.76964L4.9188 1.01857C4.56416 0.960796 4.21885 1.03783 3.88287 1.24967C3.54689 1.44225 3.31358 1.71186 3.18292 2.05851L2.063 5.69831C1.951 6.06421 1.98833 6.43012 2.17499 6.79602L6.48669 14.3356C6.65468 14.6245 6.90666 14.8267 7.24264 14.9422C7.29863 14.9422 7.35463 14.9519 7.41063 14.9711C7.48529 14.9904 7.53195 15 7.55062 15C7.75594 15 7.97992 14.9422 8.22257 14.8267L13.2902 11.7357C13.5702 11.5817 13.7662 11.3121 13.8782 10.9269C13.9902 10.5803 13.9528 10.2336 13.7662 9.88696ZM5.33877 3.73397C4.90947 3.94581 4.59215 3.85915 4.38684 3.47399C4.12552 3.08882 4.20951 2.74218 4.63882 2.43405C4.76948 2.33775 4.93746 2.32813 5.14278 2.40516C5.3481 2.46293 5.49743 2.57848 5.59075 2.75181C5.79607 3.09845 5.71208 3.42584 5.33877 3.73397Z" fill="currentColor"/>
</svg>
