<svg width="16" height="16" viewBox="0 0 16 16" fill="none" xmlns="http://www.w3.org/2000/svg">
<path d="M7.76341 15C7.60837 15 7.50177 14.9807 7.44363 14.9422C7.13353 14.8845 6.87189 14.6823 6.6587 14.3357L2.1817 6.79686C1.98789 6.43099 1.94912 6.06512 2.06541 5.69925L3.22827 2.05983C3.36394 1.69396 3.59651 1.41475 3.92598 1.22219C4.25546 1.02962 4.6237 0.962228 5.0307 1.02L8.80999 1.77099C9.1976 1.82876 9.48832 2.03095 9.68213 2.37756L14.1591 9.88748C14.3529 10.1956 14.4014 10.5229 14.3045 10.8695C14.227 11.2162 14.0332 11.4857 13.7231 11.6783L8.46113 14.7689C8.2867 14.923 8.05413 15 7.76341 15ZM4.73998 1.5688C4.27484 1.5688 3.98413 1.79987 3.86784 2.26202L2.61777 5.87256C2.57901 6.00735 2.59839 6.21917 2.67591 6.50801L7.15291 14.0179C7.32734 14.4031 7.65682 14.4897 8.14134 14.2779L13.4033 11.1873C13.7909 11.014 13.8781 10.6866 13.6649 10.2052L9.24606 2.69529C9.12977 2.50272 8.96503 2.37756 8.75184 2.31979L4.91441 1.5688H4.73998ZM5.08884 4.11062C4.73998 4.11062 4.44927 3.94694 4.2167 3.61958C4.08103 3.40777 4.04227 3.13818 4.10041 2.81082C4.15855 2.56049 4.32329 2.34867 4.59463 2.17537C4.78844 2.05983 5.04039 2.04058 5.35048 2.1176C5.62182 2.19463 5.82532 2.3583 5.96098 2.60863C6.11603 2.82045 6.15479 3.06115 6.07727 3.33074C5.99975 3.60033 5.83501 3.81215 5.58306 3.9662C5.29234 4.06248 5.1276 4.11062 5.08884 4.11062ZM5.08884 2.69529C5.01132 2.69529 4.93379 2.71454 4.85627 2.75306C4.7206 2.88785 4.65277 2.96487 4.65277 2.98413C4.65277 3.15744 4.68184 3.26334 4.73998 3.30186C4.87565 3.49442 5.07915 3.53293 5.35048 3.41739C5.56367 3.2826 5.60244 3.08041 5.46677 2.81082C5.38925 2.7338 5.28265 2.69529 5.14698 2.69529H5.08884Z" fill="currentColor"/>
</svg>
