<svg width="394" height="509" viewBox="0 0 394 509" fill="none" xmlns="http://www.w3.org/2000/svg">
<path d="M197 97.6667C198.473 97.6667 199.667 96.4728 199.667 95C199.667 93.5272 198.473 92.3333 197 92.3333C195.527 92.3333 194.333 93.5272 194.333 95C194.333 96.4728 195.527 97.6667 197 97.6667ZM197 56.6667C198.473 56.6667 199.667 55.4728 199.667 54C199.667 52.5272 198.473 51.3333 197 51.3333C195.527 51.3333 194.333 52.5272 194.333 54C194.333 55.4728 195.527 56.6667 197 56.6667ZM197.5 95L197.5 54L196.5 54L196.5 95L197.5 95Z" fill="#5496EA"/>
<path d="M197 187.667C198.473 187.667 199.667 186.473 199.667 185C199.667 183.527 198.473 182.333 197 182.333C195.527 182.333 194.333 183.527 194.333 185C194.333 186.473 195.527 187.667 197 187.667ZM197 146.667C198.473 146.667 199.667 145.473 199.667 144C199.667 142.527 198.473 141.333 197 141.333C195.527 141.333 194.333 142.527 194.333 144C194.333 145.473 195.527 146.667 197 146.667ZM197.5 185L197.5 144L196.5 144L196.5 185L197.5 185Z" fill="#5496EA"/>
<path d="M198 276.667C199.473 276.667 200.667 275.473 200.667 274C200.667 272.527 199.473 271.333 198 271.333C196.527 271.333 195.333 272.527 195.333 274C195.333 275.473 196.527 276.667 198 276.667ZM198 236.667C199.473 236.667 200.667 235.473 200.667 234C200.667 232.527 199.473 231.333 198 231.333C196.527 231.333 195.333 232.527 195.333 234C195.333 235.473 196.527 236.667 198 236.667ZM198.5 274L198.5 234L197.5 234L197.5 274L198.5 274Z" fill="#5496EA"/>
<path d="M189.926 34.4217H188.576C173.853 34.4217 170 29.8809 170 24.5145C170 19.1481 174.266 14.3321 181.421 14.3321C182.43 9.92896 184.035 2.28649 194.218 1.12259C203.024 0.115985 205.959 5.57159 206.601 7.86492C207.932 7.49798 211.335 7.31452 213.206 8.96571C215.683 11.1511 215.775 13.2313 215.683 14.3321C218.802 14.4239 225.453 16.5819 225.453 24.5145C225.453 34.4217 215.683 34.4217 208.253 34.4217H204.87" stroke="#333333" stroke-width="1.5" stroke-linecap="round"/>
<path d="M196.969 24.2461V39.7855" stroke="#333333" stroke-width="1.5" stroke-linecap="round"/>
<ellipse cx="196.969" cy="45.1472" rx="3.85279" ry="3.85279" stroke="#333333" stroke-width="1.5"/>
<path d="M200.685 45.5576H211.142" stroke="#333333" stroke-width="1.5"/>
<path d="M182.659 45.5576H193.117" stroke="#333333" stroke-width="1.5"/>
<rect x="211.28" y="41.2944" width="7.70557" height="7.70557" stroke="#333333" stroke-width="1.5" stroke-linejoin="round"/>
<rect x="174.953" y="41.2944" width="7.70557" height="7.70557" stroke="#333333" stroke-width="1.5" stroke-linejoin="round"/>
<path d="M66.9268 23.0059C67.7471 23.0059 68.4238 23.1084 68.957 23.3135C69.4948 23.514 69.8958 23.8216 70.1602 24.2363C70.4245 24.651 70.5566 25.1797 70.5566 25.8223C70.5566 26.3509 70.4609 26.793 70.2695 27.1484C70.0781 27.4993 69.8275 27.7842 69.5176 28.0029C69.2077 28.2217 68.8773 28.3903 68.5264 28.5088L71.2676 33H69.9141L67.4668 28.8301H65.3887V33H64.2266V23.0059H66.9268ZM66.8584 24.0107H65.3887V27.8457H66.9746C67.7904 27.8457 68.3896 27.6794 68.7725 27.3467C69.1598 27.014 69.3535 26.5241 69.3535 25.877C69.3535 25.1979 69.1484 24.7171 68.7383 24.4346C68.3327 24.152 67.7061 24.0107 66.8584 24.0107ZM80.4277 23.0059V29.4727C80.4277 30.179 80.2842 30.8079 79.9971 31.3594C79.7145 31.9108 79.2861 32.346 78.7119 32.665C78.1377 32.9795 77.4176 33.1367 76.5518 33.1367C75.3167 33.1367 74.3757 32.8018 73.7285 32.1318C73.0859 31.4619 72.7646 30.5664 72.7646 29.4453V23.0059H73.9336V29.4795C73.9336 30.3271 74.1569 30.9811 74.6035 31.4414C75.0547 31.9017 75.7269 32.1318 76.6201 32.1318C77.2308 32.1318 77.7298 32.0225 78.1172 31.8037C78.5091 31.5804 78.7985 31.2705 78.9854 30.874C79.1768 30.473 79.2725 30.0104 79.2725 29.4863V23.0059H80.4277ZM87.3525 23.8877C86.8011 23.8877 86.3044 23.9834 85.8623 24.1748C85.4248 24.3617 85.0511 24.6351 84.7412 24.9951C84.4359 25.3506 84.2012 25.7812 84.0371 26.2871C83.873 26.793 83.791 27.3626 83.791 27.9961C83.791 28.8346 83.9209 29.5638 84.1807 30.1836C84.445 30.7988 84.8369 31.2751 85.3564 31.6123C85.8805 31.9495 86.5345 32.1182 87.3184 32.1182C87.765 32.1182 88.1842 32.0817 88.5762 32.0088C88.9727 31.9313 89.3577 31.8356 89.7314 31.7217V32.7334C89.3669 32.8701 88.984 32.9704 88.583 33.0342C88.182 33.1025 87.7057 33.1367 87.1543 33.1367C86.138 33.1367 85.2881 32.9271 84.6045 32.5078C83.9255 32.084 83.415 31.487 83.0732 30.7168C82.736 29.9466 82.5674 29.0374 82.5674 27.9893C82.5674 27.2327 82.6722 26.5423 82.8818 25.918C83.096 25.2891 83.4059 24.7467 83.8115 24.291C84.2217 23.8353 84.723 23.4844 85.3154 23.2383C85.9124 22.9876 86.596 22.8623 87.3662 22.8623C87.8721 22.8623 88.3597 22.9124 88.8291 23.0127C89.2985 23.113 89.7223 23.2565 90.1006 23.4434L89.6357 24.4277C89.3167 24.2819 88.9658 24.1566 88.583 24.0518C88.2048 23.9424 87.7946 23.8877 87.3525 23.8877ZM99.1035 33H97.7295L94.127 28.1396L93.0605 29.0967V33H91.8984V23.0059H93.0605V27.9893C93.3203 27.693 93.5869 27.3991 93.8604 27.1074C94.1338 26.8112 94.4049 26.5127 94.6738 26.2119L97.5928 23.0059H98.9531L94.9746 27.3398L99.1035 33ZM108.031 23.0059V29.4727C108.031 30.179 107.888 30.8079 107.601 31.3594C107.318 31.9108 106.89 32.346 106.315 32.665C105.741 32.9795 105.021 33.1367 104.155 33.1367C102.92 33.1367 101.979 32.8018 101.332 32.1318C100.689 31.4619 100.368 30.5664 100.368 29.4453V23.0059H101.537V29.4795C101.537 30.3271 101.76 30.9811 102.207 31.4414C102.658 31.9017 103.33 32.1318 104.224 32.1318C104.834 32.1318 105.333 32.0225 105.721 31.8037C106.113 31.5804 106.402 31.2705 106.589 30.874C106.78 30.473 106.876 30.0104 106.876 29.4863V23.0059H108.031ZM116.323 30.3408C116.323 30.9333 116.175 31.4391 115.879 31.8584C115.587 32.2731 115.177 32.5898 114.648 32.8086C114.12 33.0273 113.498 33.1367 112.782 33.1367C112.404 33.1367 112.046 33.1185 111.709 33.082C111.372 33.0456 111.062 32.9932 110.779 32.9248C110.497 32.8564 110.248 32.7721 110.034 32.6719V31.5576C110.376 31.6989 110.793 31.8311 111.285 31.9541C111.777 32.0726 112.292 32.1318 112.83 32.1318C113.331 32.1318 113.755 32.0658 114.102 31.9336C114.448 31.7969 114.71 31.6032 114.888 31.3525C115.07 31.0973 115.161 30.792 115.161 30.4365C115.161 30.0947 115.086 29.8099 114.936 29.582C114.785 29.3496 114.535 29.14 114.184 28.9531C113.837 28.7617 113.363 28.5589 112.762 28.3447C112.338 28.1943 111.964 28.0303 111.641 27.8525C111.317 27.6702 111.046 27.4652 110.827 27.2373C110.608 27.0094 110.442 26.7451 110.328 26.4443C110.219 26.1436 110.164 25.7995 110.164 25.4121C110.164 24.8789 110.299 24.4232 110.567 24.0449C110.841 23.6621 111.217 23.3704 111.695 23.1699C112.178 22.9648 112.732 22.8623 113.356 22.8623C113.89 22.8623 114.382 22.9124 114.833 23.0127C115.289 23.113 115.706 23.2474 116.084 23.416L115.722 24.4141C115.362 24.2637 114.979 24.1383 114.573 24.0381C114.172 23.9378 113.757 23.8877 113.329 23.8877C112.901 23.8877 112.538 23.9515 112.242 24.0791C111.951 24.2021 111.727 24.3776 111.572 24.6055C111.417 24.8333 111.34 25.1045 111.34 25.4189C111.34 25.7699 111.413 26.0615 111.559 26.2939C111.709 26.5264 111.946 26.7337 112.27 26.916C112.598 27.0938 113.031 27.2806 113.568 27.4766C114.156 27.6908 114.655 27.9186 115.065 28.1602C115.476 28.3971 115.788 28.6888 116.002 29.0352C116.216 29.377 116.323 29.8122 116.323 30.3408ZM92.1172 51H86.5527V41.0059H92.1172V42.0312H87.7148V45.2646H91.8643V46.2764H87.7148V49.9746H92.1172V51ZM96.8271 51.1367C95.8792 51.1367 95.1273 50.8132 94.5713 50.166C94.0199 49.5189 93.7441 48.5573 93.7441 47.2812C93.7441 45.9915 94.0267 45.0186 94.5918 44.3623C95.1569 43.7015 95.9089 43.3711 96.8477 43.3711C97.2441 43.3711 97.5905 43.4235 97.8867 43.5283C98.1829 43.6331 98.4382 43.7744 98.6523 43.9521C98.8665 44.1253 99.0465 44.3236 99.1924 44.5469H99.2744C99.2562 44.4056 99.238 44.2119 99.2197 43.9658C99.2015 43.7197 99.1924 43.5192 99.1924 43.3643V40.3633H100.327V51H99.4111L99.2402 49.9336H99.1924C99.0511 50.1569 98.8711 50.3597 98.6523 50.542C98.4382 50.7243 98.1807 50.8701 97.8799 50.9795C97.5837 51.0843 97.2327 51.1367 96.8271 51.1367ZM97.0049 50.1934C97.807 50.1934 98.3743 49.9655 98.707 49.5098C99.0397 49.054 99.2061 48.3773 99.2061 47.4795V47.2744C99.2061 46.3219 99.0465 45.5905 98.7275 45.0801C98.4131 44.5697 97.8389 44.3145 97.0049 44.3145C96.3076 44.3145 95.7858 44.5833 95.4395 45.1211C95.0931 45.6543 94.9199 46.3835 94.9199 47.3086C94.9199 48.2292 95.0908 48.9401 95.4326 49.4414C95.779 49.9427 96.3031 50.1934 97.0049 50.1934ZM104.825 54.3633C103.841 54.3633 103.082 54.1787 102.549 53.8096C102.016 53.445 101.749 52.9323 101.749 52.2715C101.749 51.8021 101.897 51.401 102.193 51.0684C102.494 50.7357 102.909 50.5146 103.438 50.4053C103.242 50.3141 103.073 50.1774 102.932 49.9951C102.795 49.8128 102.727 49.6032 102.727 49.3662C102.727 49.0928 102.802 48.8535 102.952 48.6484C103.107 48.4388 103.342 48.2383 103.656 48.0469C103.264 47.8874 102.945 47.6185 102.699 47.2402C102.458 46.8574 102.337 46.4131 102.337 45.9072C102.337 45.3695 102.449 44.9115 102.672 44.5332C102.895 44.1504 103.219 43.8587 103.643 43.6582C104.066 43.4577 104.579 43.3574 105.181 43.3574C105.313 43.3574 105.445 43.3643 105.577 43.3779C105.714 43.387 105.844 43.403 105.967 43.4258C106.09 43.444 106.197 43.4668 106.288 43.4941H108.858V44.2256L107.478 44.3965C107.614 44.5742 107.728 44.7884 107.819 45.0391C107.91 45.2897 107.956 45.5677 107.956 45.873C107.956 46.6204 107.703 47.2152 107.197 47.6572C106.691 48.0947 105.996 48.3135 105.112 48.3135C104.903 48.3135 104.688 48.2952 104.47 48.2588C104.246 48.3818 104.076 48.5186 103.957 48.6689C103.843 48.8193 103.786 48.9925 103.786 49.1885C103.786 49.3343 103.829 49.4505 103.916 49.5371C104.007 49.6237 104.137 49.6875 104.306 49.7285C104.474 49.765 104.677 49.7832 104.914 49.7832H106.233C107.049 49.7832 107.674 49.9541 108.106 50.2959C108.544 50.6377 108.763 51.1367 108.763 51.793C108.763 52.6224 108.425 53.2581 107.751 53.7002C107.076 54.1423 106.101 54.3633 104.825 54.3633ZM104.859 53.4746C105.479 53.4746 105.992 53.4108 106.397 53.2832C106.808 53.1602 107.113 52.9801 107.313 52.7432C107.519 52.5107 107.621 52.2327 107.621 51.9092C107.621 51.6084 107.553 51.3805 107.416 51.2256C107.279 51.0752 107.079 50.9749 106.814 50.9248C106.55 50.8701 106.227 50.8428 105.844 50.8428H104.545C104.208 50.8428 103.914 50.8952 103.663 51C103.412 51.1048 103.219 51.2598 103.082 51.4648C102.95 51.6699 102.884 51.9251 102.884 52.2305C102.884 52.6361 103.055 52.9437 103.396 53.1533C103.738 53.3675 104.226 53.4746 104.859 53.4746ZM105.153 47.4863C105.696 47.4863 106.104 47.3496 106.377 47.0762C106.65 46.8027 106.787 46.404 106.787 45.8799C106.787 45.3193 106.648 44.9001 106.37 44.6221C106.092 44.3395 105.682 44.1982 105.14 44.1982C104.62 44.1982 104.219 44.3441 103.937 44.6357C103.659 44.9229 103.52 45.3444 103.52 45.9004C103.52 46.4108 103.661 46.8027 103.943 47.0762C104.226 47.3496 104.629 47.4863 105.153 47.4863ZM113.22 43.3711C113.858 43.3711 114.405 43.5124 114.86 43.7949C115.316 44.0775 115.665 44.474 115.906 44.9844C116.148 45.4902 116.269 46.0827 116.269 46.7617V47.4658H111.094C111.107 48.3454 111.326 49.0153 111.75 49.4756C112.174 49.9359 112.771 50.166 113.541 50.166C114.015 50.166 114.434 50.1227 114.799 50.0361C115.163 49.9495 115.542 49.8219 115.934 49.6533V50.6514C115.555 50.82 115.179 50.943 114.806 51.0205C114.437 51.098 113.999 51.1367 113.493 51.1367C112.773 51.1367 112.144 50.9909 111.606 50.6992C111.073 50.403 110.659 49.9701 110.362 49.4004C110.066 48.8307 109.918 48.1335 109.918 47.3086C109.918 46.502 110.052 45.8047 110.321 45.2168C110.595 44.6243 110.978 44.1686 111.47 43.8496C111.966 43.5306 112.55 43.3711 113.22 43.3711ZM113.206 44.3008C112.6 44.3008 112.117 44.499 111.757 44.8955C111.397 45.292 111.183 45.8457 111.114 46.5566H115.079C115.075 46.11 115.004 45.7181 114.867 45.3809C114.735 45.0391 114.532 44.7747 114.259 44.5879C113.985 44.3965 113.634 44.3008 113.206 44.3008Z" fill="#7F7F7F"/>
<path d="M56.9756 115.907C56.9756 117.033 56.7705 117.974 56.3604 118.73C55.9502 119.482 55.3555 120.05 54.5762 120.433C53.8014 120.811 52.8604 121 51.7529 121H49.0391V111.006H52.0537C53.07 111.006 53.945 111.193 54.6787 111.566C55.4124 111.936 55.9775 112.485 56.374 113.214C56.7751 113.938 56.9756 114.836 56.9756 115.907ZM55.752 115.948C55.752 115.05 55.6016 114.31 55.3008 113.727C55.0046 113.143 54.5671 112.71 53.9883 112.428C53.4141 112.141 52.71 111.997 51.876 111.997H50.2012V120.002H51.6162C52.9925 120.002 54.0247 119.662 54.7129 118.983C55.4056 118.304 55.752 117.293 55.752 115.948ZM60.1611 113.508V121H59.0264V113.508H60.1611ZM59.6074 110.705C59.7943 110.705 59.9538 110.767 60.0859 110.89C60.2227 111.008 60.291 111.195 60.291 111.45C60.291 111.701 60.2227 111.888 60.0859 112.011C59.9538 112.134 59.7943 112.195 59.6074 112.195C59.4115 112.195 59.2474 112.134 59.1152 112.011C58.9876 111.888 58.9238 111.701 58.9238 111.45C58.9238 111.195 58.9876 111.008 59.1152 110.89C59.2474 110.767 59.4115 110.705 59.6074 110.705ZM67.4141 118.949C67.4141 119.428 67.2933 119.831 67.0518 120.159C66.8148 120.483 66.473 120.727 66.0264 120.891C65.5843 121.055 65.0557 121.137 64.4404 121.137C63.9163 121.137 63.4629 121.096 63.0801 121.014C62.6973 120.932 62.3623 120.815 62.0752 120.665V119.619C62.3805 119.77 62.7451 119.906 63.1689 120.029C63.5928 120.152 64.0257 120.214 64.4678 120.214C65.1149 120.214 65.5843 120.109 65.876 119.899C66.1676 119.69 66.3135 119.405 66.3135 119.045C66.3135 118.84 66.2542 118.66 66.1357 118.505C66.0218 118.345 65.8281 118.193 65.5547 118.047C65.2812 117.896 64.903 117.732 64.4199 117.555C63.9414 117.372 63.5267 117.192 63.1758 117.015C62.8294 116.832 62.5605 116.611 62.3691 116.352C62.1823 116.092 62.0889 115.755 62.0889 115.34C62.0889 114.706 62.3441 114.221 62.8545 113.884C63.3695 113.542 64.0439 113.371 64.8779 113.371C65.3291 113.371 65.7507 113.417 66.1426 113.508C66.5391 113.594 66.9082 113.713 67.25 113.863L66.8672 114.772C66.5573 114.64 66.2269 114.529 65.876 114.438C65.5251 114.346 65.1673 114.301 64.8027 114.301C64.2786 114.301 63.8753 114.387 63.5928 114.561C63.3148 114.734 63.1758 114.971 63.1758 115.271C63.1758 115.504 63.2396 115.695 63.3672 115.846C63.4993 115.996 63.709 116.137 63.9961 116.27C64.2832 116.402 64.6615 116.557 65.1309 116.734C65.6003 116.908 66.0059 117.088 66.3477 117.274C66.6895 117.457 66.9515 117.68 67.1338 117.944C67.3206 118.204 67.4141 118.539 67.4141 118.949ZM71.6592 120.207C71.846 120.207 72.0374 120.191 72.2334 120.159C72.4294 120.127 72.5889 120.089 72.7119 120.043V120.925C72.5798 120.984 72.3952 121.034 72.1582 121.075C71.9258 121.116 71.6979 121.137 71.4746 121.137C71.0781 121.137 70.7181 121.068 70.3945 120.932C70.071 120.79 69.8112 120.553 69.6152 120.221C69.4238 119.888 69.3281 119.428 69.3281 118.84V114.396H68.2617V113.843L69.335 113.398L69.7861 111.771H70.4697V113.508H72.6641V114.396H70.4697V118.806C70.4697 119.275 70.5768 119.626 70.791 119.858C71.0098 120.091 71.2992 120.207 71.6592 120.207ZM77.6338 113.371C77.7842 113.371 77.9414 113.38 78.1055 113.398C78.2695 113.412 78.4154 113.433 78.543 113.46L78.3994 114.513C78.2764 114.481 78.1396 114.456 77.9893 114.438C77.8389 114.419 77.6976 114.41 77.5654 114.41C77.2646 114.41 76.9798 114.472 76.7109 114.595C76.4466 114.713 76.2142 114.886 76.0137 115.114C75.8132 115.338 75.6559 115.609 75.542 115.928C75.4281 116.242 75.3711 116.593 75.3711 116.98V121H74.2295V113.508H75.1729L75.2959 114.889H75.3438C75.4987 114.611 75.6855 114.358 75.9043 114.13C76.123 113.897 76.376 113.713 76.6631 113.576C76.9548 113.439 77.2783 113.371 77.6338 113.371ZM81.0928 113.508V121H79.958V113.508H81.0928ZM80.5391 110.705C80.7259 110.705 80.8854 110.767 81.0176 110.89C81.1543 111.008 81.2227 111.195 81.2227 111.45C81.2227 111.701 81.1543 111.888 81.0176 112.011C80.8854 112.134 80.7259 112.195 80.5391 112.195C80.3431 112.195 80.179 112.134 80.0469 112.011C79.9193 111.888 79.8555 111.701 79.8555 111.45C79.8555 111.195 79.9193 111.008 80.0469 110.89C80.179 110.767 80.3431 110.705 80.5391 110.705ZM84.6338 110.363V113.022C84.6338 113.328 84.6247 113.624 84.6064 113.911C84.5928 114.198 84.5814 114.422 84.5723 114.581H84.6338C84.8389 114.244 85.1351 113.959 85.5225 113.727C85.9098 113.494 86.4043 113.378 87.0059 113.378C87.9447 113.378 88.6921 113.704 89.248 114.355C89.8086 115.003 90.0889 115.966 90.0889 117.247C90.0889 118.09 89.9613 118.801 89.7061 119.38C89.4508 119.959 89.0908 120.396 88.626 120.692C88.1611 120.989 87.612 121.137 86.9785 121.137C86.3861 121.137 85.8984 121.027 85.5156 120.809C85.1374 120.585 84.8457 120.314 84.6406 119.995H84.5518L84.3193 121H83.499V110.363H84.6338ZM86.8213 114.328C86.279 114.328 85.8483 114.435 85.5293 114.649C85.2103 114.859 84.9801 115.178 84.8389 115.606C84.7021 116.03 84.6338 116.568 84.6338 117.22V117.281C84.6338 118.225 84.791 118.947 85.1055 119.448C85.4199 119.945 85.9919 120.193 86.8213 120.193C87.5186 120.193 88.0404 119.938 88.3867 119.428C88.7376 118.917 88.9131 118.188 88.9131 117.24C88.9131 116.274 88.7399 115.547 88.3936 115.06C88.0518 114.572 87.5277 114.328 86.8213 114.328ZM98.2578 113.508V121H97.3281L97.1641 119.947H97.1025C96.9476 120.207 96.7471 120.426 96.501 120.604C96.2549 120.781 95.9769 120.913 95.667 121C95.3617 121.091 95.0358 121.137 94.6895 121.137C94.097 121.137 93.6003 121.041 93.1992 120.85C92.7982 120.658 92.4951 120.362 92.29 119.961C92.0895 119.56 91.9893 119.045 91.9893 118.416V113.508H93.1377V118.334C93.1377 118.958 93.279 119.425 93.5615 119.735C93.8441 120.041 94.2747 120.193 94.8535 120.193C95.4095 120.193 95.8516 120.089 96.1797 119.879C96.5124 119.669 96.7516 119.362 96.8975 118.956C97.0433 118.546 97.1162 118.045 97.1162 117.452V113.508H98.2578ZM103.077 120.207C103.264 120.207 103.455 120.191 103.651 120.159C103.847 120.127 104.007 120.089 104.13 120.043V120.925C103.998 120.984 103.813 121.034 103.576 121.075C103.344 121.116 103.116 121.137 102.893 121.137C102.496 121.137 102.136 121.068 101.812 120.932C101.489 120.79 101.229 120.553 101.033 120.221C100.842 119.888 100.746 119.428 100.746 118.84V114.396H99.6797V113.843L100.753 113.398L101.204 111.771H101.888V113.508H104.082V114.396H101.888V118.806C101.888 119.275 101.995 119.626 102.209 119.858C102.428 120.091 102.717 120.207 103.077 120.207ZM106.782 113.508V121H105.647V113.508H106.782ZM106.229 110.705C106.415 110.705 106.575 110.767 106.707 110.89C106.844 111.008 106.912 111.195 106.912 111.45C106.912 111.701 106.844 111.888 106.707 112.011C106.575 112.134 106.415 112.195 106.229 112.195C106.033 112.195 105.868 112.134 105.736 112.011C105.609 111.888 105.545 111.701 105.545 111.45C105.545 111.195 105.609 111.008 105.736 110.89C105.868 110.767 106.033 110.705 106.229 110.705ZM115.648 117.24C115.648 117.855 115.569 118.405 115.409 118.888C115.25 119.371 115.02 119.779 114.719 120.111C114.418 120.444 114.053 120.699 113.625 120.877C113.201 121.05 112.72 121.137 112.183 121.137C111.681 121.137 111.221 121.05 110.802 120.877C110.387 120.699 110.027 120.444 109.722 120.111C109.421 119.779 109.186 119.371 109.018 118.888C108.854 118.405 108.771 117.855 108.771 117.24C108.771 116.42 108.91 115.723 109.188 115.148C109.466 114.57 109.863 114.13 110.378 113.829C110.897 113.524 111.515 113.371 112.23 113.371C112.914 113.371 113.511 113.524 114.021 113.829C114.536 114.134 114.935 114.576 115.218 115.155C115.505 115.729 115.648 116.424 115.648 117.24ZM109.947 117.24C109.947 117.842 110.027 118.364 110.187 118.806C110.346 119.248 110.592 119.59 110.925 119.831C111.257 120.073 111.686 120.193 112.21 120.193C112.729 120.193 113.156 120.073 113.488 119.831C113.826 119.59 114.074 119.248 114.233 118.806C114.393 118.364 114.473 117.842 114.473 117.24C114.473 116.643 114.393 116.128 114.233 115.695C114.074 115.258 113.828 114.921 113.495 114.684C113.162 114.447 112.732 114.328 112.203 114.328C111.424 114.328 110.852 114.586 110.487 115.101C110.127 115.616 109.947 116.329 109.947 117.24ZM121.158 113.371C122.047 113.371 122.719 113.59 123.175 114.027C123.631 114.46 123.858 115.158 123.858 116.119V121H122.737V116.194C122.737 115.57 122.594 115.103 122.307 114.793C122.024 114.483 121.589 114.328 121.001 114.328C120.172 114.328 119.588 114.563 119.251 115.032C118.914 115.502 118.745 116.183 118.745 117.076V121H117.61V113.508H118.526L118.697 114.588H118.759C118.918 114.324 119.121 114.103 119.367 113.925C119.613 113.743 119.889 113.606 120.194 113.515C120.5 113.419 120.821 113.371 121.158 113.371ZM89.6377 136.341C89.6377 136.933 89.4896 137.439 89.1934 137.858C88.9017 138.273 88.4915 138.59 87.9629 138.809C87.4342 139.027 86.8122 139.137 86.0967 139.137C85.7184 139.137 85.3607 139.118 85.0234 139.082C84.6862 139.046 84.3763 138.993 84.0938 138.925C83.8112 138.856 83.5628 138.772 83.3486 138.672V137.558C83.6904 137.699 84.1074 137.831 84.5996 137.954C85.0918 138.073 85.6068 138.132 86.1445 138.132C86.6458 138.132 87.0697 138.066 87.416 137.934C87.7624 137.797 88.0244 137.603 88.2021 137.353C88.3844 137.097 88.4756 136.792 88.4756 136.437C88.4756 136.095 88.4004 135.81 88.25 135.582C88.0996 135.35 87.849 135.14 87.498 134.953C87.1517 134.762 86.6777 134.559 86.0762 134.345C85.6523 134.194 85.2786 134.03 84.9551 133.853C84.6315 133.67 84.3604 133.465 84.1416 133.237C83.9229 133.009 83.7565 132.745 83.6426 132.444C83.5332 132.144 83.4785 131.799 83.4785 131.412C83.4785 130.879 83.613 130.423 83.8818 130.045C84.1553 129.662 84.5312 129.37 85.0098 129.17C85.4928 128.965 86.0465 128.862 86.6709 128.862C87.2041 128.862 87.6963 128.912 88.1475 129.013C88.6032 129.113 89.0202 129.247 89.3984 129.416L89.0361 130.414C88.6761 130.264 88.2933 130.138 87.8877 130.038C87.4867 129.938 87.0719 129.888 86.6436 129.888C86.2152 129.888 85.8529 129.951 85.5566 130.079C85.265 130.202 85.0417 130.378 84.8867 130.605C84.7318 130.833 84.6543 131.104 84.6543 131.419C84.6543 131.77 84.7272 132.062 84.873 132.294C85.0234 132.526 85.2604 132.734 85.584 132.916C85.9121 133.094 86.3451 133.281 86.8828 133.477C87.4707 133.691 87.9697 133.919 88.3799 134.16C88.79 134.397 89.1022 134.689 89.3164 135.035C89.5306 135.377 89.6377 135.812 89.6377 136.341ZM97.6084 138.986L96.2754 134.625C96.2161 134.438 96.1592 134.256 96.1045 134.078C96.0544 133.896 96.0065 133.723 95.9609 133.559C95.9199 133.39 95.8812 133.235 95.8447 133.094C95.8128 132.948 95.7855 132.823 95.7627 132.718H95.7148C95.6966 132.823 95.6715 132.948 95.6396 133.094C95.6077 133.235 95.569 133.39 95.5234 133.559C95.4824 133.727 95.4368 133.905 95.3867 134.092C95.3366 134.274 95.2796 134.459 95.2158 134.646L93.8213 138.986H92.543L90.4785 131.494H91.6543L92.7344 135.63C92.8073 135.903 92.8757 136.174 92.9395 136.443C93.0078 136.708 93.0648 136.958 93.1104 137.195C93.1605 137.428 93.1969 137.631 93.2197 137.804H93.2744C93.3018 137.69 93.3314 137.553 93.3633 137.394C93.3997 137.234 93.4385 137.065 93.4795 136.888C93.5251 136.705 93.5729 136.525 93.623 136.348C93.6732 136.165 93.7233 135.994 93.7734 135.835L95.1543 131.494H96.3779L97.7109 135.828C97.7793 136.047 97.8454 136.275 97.9092 136.512C97.9775 136.749 98.0391 136.979 98.0938 137.202C98.1484 137.421 98.1872 137.617 98.21 137.79H98.2646C98.2829 137.635 98.3171 137.444 98.3672 137.216C98.4173 136.988 98.4743 136.737 98.5381 136.464C98.6064 136.19 98.6771 135.912 98.75 135.63L99.8438 131.494H100.999L98.9277 138.986H97.6084ZM103.501 131.508V139H102.366V131.508H103.501ZM102.947 128.705C103.134 128.705 103.294 128.767 103.426 128.89C103.562 129.008 103.631 129.195 103.631 129.45C103.631 129.701 103.562 129.888 103.426 130.011C103.294 130.134 103.134 130.195 102.947 130.195C102.751 130.195 102.587 130.134 102.455 130.011C102.327 129.888 102.264 129.701 102.264 129.45C102.264 129.195 102.327 129.008 102.455 128.89C102.587 128.767 102.751 128.705 102.947 128.705ZM108.327 138.207C108.514 138.207 108.705 138.191 108.901 138.159C109.097 138.127 109.257 138.089 109.38 138.043V138.925C109.248 138.984 109.063 139.034 108.826 139.075C108.594 139.116 108.366 139.137 108.143 139.137C107.746 139.137 107.386 139.068 107.062 138.932C106.739 138.79 106.479 138.553 106.283 138.221C106.092 137.888 105.996 137.428 105.996 136.84V132.396H104.93V131.843L106.003 131.398L106.454 129.771H107.138V131.508H109.332V132.396H107.138V136.806C107.138 137.275 107.245 137.626 107.459 137.858C107.678 138.091 107.967 138.207 108.327 138.207ZM113.898 139.137C113.224 139.137 112.629 138.998 112.114 138.72C111.599 138.442 111.198 138.018 110.911 137.448C110.624 136.879 110.48 136.161 110.48 135.295C110.48 134.388 110.631 133.647 110.932 133.073C111.237 132.494 111.656 132.066 112.189 131.788C112.723 131.51 113.329 131.371 114.008 131.371C114.382 131.371 114.742 131.41 115.088 131.487C115.439 131.56 115.726 131.654 115.949 131.768L115.607 132.718C115.38 132.627 115.115 132.545 114.814 132.472C114.518 132.399 114.24 132.362 113.98 132.362C113.461 132.362 113.028 132.474 112.682 132.697C112.34 132.921 112.082 133.249 111.909 133.682C111.741 134.115 111.656 134.648 111.656 135.281C111.656 135.887 111.738 136.405 111.902 136.833C112.071 137.261 112.319 137.59 112.647 137.817C112.98 138.041 113.395 138.152 113.892 138.152C114.288 138.152 114.646 138.111 114.965 138.029C115.284 137.943 115.573 137.842 115.833 137.729V138.74C115.582 138.868 115.302 138.966 114.992 139.034C114.687 139.103 114.322 139.137 113.898 139.137ZM118.745 128.363V131.542C118.745 131.724 118.741 131.909 118.731 132.096C118.722 132.278 118.706 132.447 118.684 132.602H118.759C118.914 132.337 119.11 132.116 119.347 131.938C119.588 131.756 119.862 131.619 120.167 131.528C120.472 131.433 120.796 131.385 121.138 131.385C121.739 131.385 122.241 131.48 122.642 131.672C123.047 131.863 123.35 132.16 123.551 132.561C123.756 132.962 123.858 133.481 123.858 134.119V139H122.737V134.194C122.737 133.57 122.594 133.103 122.307 132.793C122.024 132.483 121.589 132.328 121.001 132.328C120.445 132.328 120.001 132.435 119.668 132.649C119.34 132.859 119.103 133.169 118.957 133.579C118.816 133.989 118.745 134.491 118.745 135.083V139H117.61V128.363H118.745Z" fill="#7F7F7F"/>
<path d="M89.1455 214L87.915 210.828H83.9092L82.6855 214H81.5098L85.4199 203.965H86.4658L90.3486 214H89.1455ZM87.5664 209.796L86.3975 206.645C86.3701 206.562 86.3245 206.428 86.2607 206.241C86.2015 206.054 86.14 205.861 86.0762 205.66C86.0124 205.46 85.96 205.298 85.9189 205.175C85.8734 205.362 85.8232 205.549 85.7686 205.735C85.7184 205.918 85.6683 206.089 85.6182 206.248C85.568 206.403 85.5247 206.535 85.4883 206.645L84.2988 209.796H87.5664ZM94.5664 214.137C93.8919 214.137 93.2972 213.998 92.7822 213.72C92.2673 213.442 91.8662 213.018 91.5791 212.448C91.292 211.879 91.1484 211.161 91.1484 210.295C91.1484 209.388 91.2988 208.647 91.5996 208.073C91.9049 207.494 92.3242 207.066 92.8574 206.788C93.3906 206.51 93.9967 206.371 94.6758 206.371C95.0495 206.371 95.4095 206.41 95.7559 206.487C96.1068 206.56 96.3939 206.654 96.6172 206.768L96.2754 207.718C96.0475 207.627 95.7832 207.545 95.4824 207.472C95.1862 207.399 94.9082 207.362 94.6484 207.362C94.1289 207.362 93.696 207.474 93.3496 207.697C93.0078 207.921 92.7503 208.249 92.5771 208.682C92.4085 209.115 92.3242 209.648 92.3242 210.281C92.3242 210.887 92.4062 211.405 92.5703 211.833C92.7389 212.261 92.9873 212.59 93.3154 212.817C93.6481 213.041 94.0628 213.152 94.5596 213.152C94.9561 213.152 95.3138 213.111 95.6328 213.029C95.9518 212.943 96.2412 212.842 96.501 212.729V213.74C96.2503 213.868 95.9701 213.966 95.6602 214.034C95.3548 214.103 94.9902 214.137 94.5664 214.137ZM101.279 214.137C100.605 214.137 100.01 213.998 99.4951 213.72C98.9801 213.442 98.5791 213.018 98.292 212.448C98.0049 211.879 97.8613 211.161 97.8613 210.295C97.8613 209.388 98.0117 208.647 98.3125 208.073C98.6178 207.494 99.0371 207.066 99.5703 206.788C100.104 206.51 100.71 206.371 101.389 206.371C101.762 206.371 102.122 206.41 102.469 206.487C102.82 206.56 103.107 206.654 103.33 206.768L102.988 207.718C102.76 207.627 102.496 207.545 102.195 207.472C101.899 207.399 101.621 207.362 101.361 207.362C100.842 207.362 100.409 207.474 100.062 207.697C99.7207 207.921 99.4632 208.249 99.29 208.682C99.1214 209.115 99.0371 209.648 99.0371 210.281C99.0371 210.887 99.1191 211.405 99.2832 211.833C99.4518 212.261 99.7002 212.59 100.028 212.817C100.361 213.041 100.776 213.152 101.272 213.152C101.669 213.152 102.027 213.111 102.346 213.029C102.665 212.943 102.954 212.842 103.214 212.729V213.74C102.963 213.868 102.683 213.966 102.373 214.034C102.068 214.103 101.703 214.137 101.279 214.137ZM107.876 206.371C108.514 206.371 109.061 206.512 109.517 206.795C109.972 207.077 110.321 207.474 110.562 207.984C110.804 208.49 110.925 209.083 110.925 209.762V210.466H105.75C105.764 211.345 105.982 212.015 106.406 212.476C106.83 212.936 107.427 213.166 108.197 213.166C108.671 213.166 109.09 213.123 109.455 213.036C109.82 212.95 110.198 212.822 110.59 212.653V213.651C110.212 213.82 109.836 213.943 109.462 214.021C109.093 214.098 108.655 214.137 108.149 214.137C107.429 214.137 106.8 213.991 106.263 213.699C105.729 213.403 105.315 212.97 105.019 212.4C104.722 211.831 104.574 211.133 104.574 210.309C104.574 209.502 104.709 208.805 104.978 208.217C105.251 207.624 105.634 207.169 106.126 206.85C106.623 206.531 107.206 206.371 107.876 206.371ZM107.862 207.301C107.256 207.301 106.773 207.499 106.413 207.896C106.053 208.292 105.839 208.846 105.771 209.557H109.735C109.731 209.11 109.66 208.718 109.523 208.381C109.391 208.039 109.188 207.775 108.915 207.588C108.642 207.396 108.291 207.301 107.862 207.301ZM117.699 211.949C117.699 212.428 117.578 212.831 117.337 213.159C117.1 213.483 116.758 213.727 116.312 213.891C115.869 214.055 115.341 214.137 114.726 214.137C114.201 214.137 113.748 214.096 113.365 214.014C112.982 213.932 112.647 213.815 112.36 213.665V212.619C112.666 212.77 113.03 212.906 113.454 213.029C113.878 213.152 114.311 213.214 114.753 213.214C115.4 213.214 115.869 213.109 116.161 212.899C116.453 212.69 116.599 212.405 116.599 212.045C116.599 211.84 116.539 211.66 116.421 211.505C116.307 211.345 116.113 211.193 115.84 211.047C115.566 210.896 115.188 210.732 114.705 210.555C114.227 210.372 113.812 210.192 113.461 210.015C113.115 209.832 112.846 209.611 112.654 209.352C112.467 209.092 112.374 208.755 112.374 208.34C112.374 207.706 112.629 207.221 113.14 206.884C113.655 206.542 114.329 206.371 115.163 206.371C115.614 206.371 116.036 206.417 116.428 206.508C116.824 206.594 117.193 206.713 117.535 206.863L117.152 207.772C116.842 207.64 116.512 207.529 116.161 207.438C115.81 207.346 115.452 207.301 115.088 207.301C114.564 207.301 114.16 207.387 113.878 207.561C113.6 207.734 113.461 207.971 113.461 208.271C113.461 208.504 113.525 208.695 113.652 208.846C113.785 208.996 113.994 209.137 114.281 209.27C114.568 209.402 114.947 209.557 115.416 209.734C115.885 209.908 116.291 210.088 116.633 210.274C116.975 210.457 117.237 210.68 117.419 210.944C117.606 211.204 117.699 211.539 117.699 211.949ZM124.371 211.949C124.371 212.428 124.25 212.831 124.009 213.159C123.772 213.483 123.43 213.727 122.983 213.891C122.541 214.055 122.013 214.137 121.397 214.137C120.873 214.137 120.42 214.096 120.037 214.014C119.654 213.932 119.319 213.815 119.032 213.665V212.619C119.338 212.77 119.702 212.906 120.126 213.029C120.55 213.152 120.983 213.214 121.425 213.214C122.072 213.214 122.541 213.109 122.833 212.899C123.125 212.69 123.271 212.405 123.271 212.045C123.271 211.84 123.211 211.66 123.093 211.505C122.979 211.345 122.785 211.193 122.512 211.047C122.238 210.896 121.86 210.732 121.377 210.555C120.898 210.372 120.484 210.192 120.133 210.015C119.786 209.832 119.518 209.611 119.326 209.352C119.139 209.092 119.046 208.755 119.046 208.34C119.046 207.706 119.301 207.221 119.812 206.884C120.326 206.542 121.001 206.371 121.835 206.371C122.286 206.371 122.708 206.417 123.1 206.508C123.496 206.594 123.865 206.713 124.207 206.863L123.824 207.772C123.514 207.64 123.184 207.529 122.833 207.438C122.482 207.346 122.124 207.301 121.76 207.301C121.236 207.301 120.832 207.387 120.55 207.561C120.272 207.734 120.133 207.971 120.133 208.271C120.133 208.504 120.197 208.695 120.324 208.846C120.456 208.996 120.666 209.137 120.953 209.27C121.24 209.402 121.618 209.557 122.088 209.734C122.557 209.908 122.963 210.088 123.305 210.274C123.646 210.457 123.909 210.68 124.091 210.944C124.278 211.204 124.371 211.539 124.371 211.949ZM89.6377 229.341C89.6377 229.933 89.4896 230.439 89.1934 230.858C88.9017 231.273 88.4915 231.59 87.9629 231.809C87.4342 232.027 86.8122 232.137 86.0967 232.137C85.7184 232.137 85.3607 232.118 85.0234 232.082C84.6862 232.046 84.3763 231.993 84.0938 231.925C83.8112 231.856 83.5628 231.772 83.3486 231.672V230.558C83.6904 230.699 84.1074 230.831 84.5996 230.954C85.0918 231.073 85.6068 231.132 86.1445 231.132C86.6458 231.132 87.0697 231.066 87.416 230.934C87.7624 230.797 88.0244 230.603 88.2021 230.353C88.3844 230.097 88.4756 229.792 88.4756 229.437C88.4756 229.095 88.4004 228.81 88.25 228.582C88.0996 228.35 87.849 228.14 87.498 227.953C87.1517 227.762 86.6777 227.559 86.0762 227.345C85.6523 227.194 85.2786 227.03 84.9551 226.853C84.6315 226.67 84.3604 226.465 84.1416 226.237C83.9229 226.009 83.7565 225.745 83.6426 225.444C83.5332 225.144 83.4785 224.799 83.4785 224.412C83.4785 223.879 83.613 223.423 83.8818 223.045C84.1553 222.662 84.5312 222.37 85.0098 222.17C85.4928 221.965 86.0465 221.862 86.6709 221.862C87.2041 221.862 87.6963 221.912 88.1475 222.013C88.6032 222.113 89.0202 222.247 89.3984 222.416L89.0361 223.414C88.6761 223.264 88.2933 223.138 87.8877 223.038C87.4867 222.938 87.0719 222.888 86.6436 222.888C86.2152 222.888 85.8529 222.951 85.5566 223.079C85.265 223.202 85.0417 223.378 84.8867 223.605C84.7318 223.833 84.6543 224.104 84.6543 224.419C84.6543 224.77 84.7272 225.062 84.873 225.294C85.0234 225.526 85.2604 225.734 85.584 225.916C85.9121 226.094 86.3451 226.281 86.8828 226.477C87.4707 226.691 87.9697 226.919 88.3799 227.16C88.79 227.397 89.1022 227.689 89.3164 228.035C89.5306 228.377 89.6377 228.812 89.6377 229.341ZM97.6084 231.986L96.2754 227.625C96.2161 227.438 96.1592 227.256 96.1045 227.078C96.0544 226.896 96.0065 226.723 95.9609 226.559C95.9199 226.39 95.8812 226.235 95.8447 226.094C95.8128 225.948 95.7855 225.823 95.7627 225.718H95.7148C95.6966 225.823 95.6715 225.948 95.6396 226.094C95.6077 226.235 95.569 226.39 95.5234 226.559C95.4824 226.727 95.4368 226.905 95.3867 227.092C95.3366 227.274 95.2796 227.459 95.2158 227.646L93.8213 231.986H92.543L90.4785 224.494H91.6543L92.7344 228.63C92.8073 228.903 92.8757 229.174 92.9395 229.443C93.0078 229.708 93.0648 229.958 93.1104 230.195C93.1605 230.428 93.1969 230.631 93.2197 230.804H93.2744C93.3018 230.69 93.3314 230.553 93.3633 230.394C93.3997 230.234 93.4385 230.065 93.4795 229.888C93.5251 229.705 93.5729 229.525 93.623 229.348C93.6732 229.165 93.7233 228.994 93.7734 228.835L95.1543 224.494H96.3779L97.7109 228.828C97.7793 229.047 97.8454 229.275 97.9092 229.512C97.9775 229.749 98.0391 229.979 98.0938 230.202C98.1484 230.421 98.1872 230.617 98.21 230.79H98.2646C98.2829 230.635 98.3171 230.444 98.3672 230.216C98.4173 229.988 98.4743 229.737 98.5381 229.464C98.6064 229.19 98.6771 228.912 98.75 228.63L99.8438 224.494H100.999L98.9277 231.986H97.6084ZM103.501 224.508V232H102.366V224.508H103.501ZM102.947 221.705C103.134 221.705 103.294 221.767 103.426 221.89C103.562 222.008 103.631 222.195 103.631 222.45C103.631 222.701 103.562 222.888 103.426 223.011C103.294 223.134 103.134 223.195 102.947 223.195C102.751 223.195 102.587 223.134 102.455 223.011C102.327 222.888 102.264 222.701 102.264 222.45C102.264 222.195 102.327 222.008 102.455 221.89C102.587 221.767 102.751 221.705 102.947 221.705ZM108.327 231.207C108.514 231.207 108.705 231.191 108.901 231.159C109.097 231.127 109.257 231.089 109.38 231.043V231.925C109.248 231.984 109.063 232.034 108.826 232.075C108.594 232.116 108.366 232.137 108.143 232.137C107.746 232.137 107.386 232.068 107.062 231.932C106.739 231.79 106.479 231.553 106.283 231.221C106.092 230.888 105.996 230.428 105.996 229.84V225.396H104.93V224.843L106.003 224.398L106.454 222.771H107.138V224.508H109.332V225.396H107.138V229.806C107.138 230.275 107.245 230.626 107.459 230.858C107.678 231.091 107.967 231.207 108.327 231.207ZM113.898 232.137C113.224 232.137 112.629 231.998 112.114 231.72C111.599 231.442 111.198 231.018 110.911 230.448C110.624 229.879 110.48 229.161 110.48 228.295C110.48 227.388 110.631 226.647 110.932 226.073C111.237 225.494 111.656 225.066 112.189 224.788C112.723 224.51 113.329 224.371 114.008 224.371C114.382 224.371 114.742 224.41 115.088 224.487C115.439 224.56 115.726 224.654 115.949 224.768L115.607 225.718C115.38 225.627 115.115 225.545 114.814 225.472C114.518 225.399 114.24 225.362 113.98 225.362C113.461 225.362 113.028 225.474 112.682 225.697C112.34 225.921 112.082 226.249 111.909 226.682C111.741 227.115 111.656 227.648 111.656 228.281C111.656 228.887 111.738 229.405 111.902 229.833C112.071 230.261 112.319 230.59 112.647 230.817C112.98 231.041 113.395 231.152 113.892 231.152C114.288 231.152 114.646 231.111 114.965 231.029C115.284 230.943 115.573 230.842 115.833 230.729V231.74C115.582 231.868 115.302 231.966 114.992 232.034C114.687 232.103 114.322 232.137 113.898 232.137ZM118.745 221.363V224.542C118.745 224.724 118.741 224.909 118.731 225.096C118.722 225.278 118.706 225.447 118.684 225.602H118.759C118.914 225.337 119.11 225.116 119.347 224.938C119.588 224.756 119.862 224.619 120.167 224.528C120.472 224.433 120.796 224.385 121.138 224.385C121.739 224.385 122.241 224.48 122.642 224.672C123.047 224.863 123.35 225.16 123.551 225.561C123.756 225.962 123.858 226.481 123.858 227.119V232H122.737V227.194C122.737 226.57 122.594 226.103 122.307 225.793C122.024 225.483 121.589 225.328 121.001 225.328C120.445 225.328 120.001 225.435 119.668 225.649C119.34 225.859 119.103 226.169 118.957 226.579C118.816 226.989 118.745 227.491 118.745 228.083V232H117.61V221.363H118.745Z" fill="#7F7F7F"/>
<path d="M193.967 127.097V124.624L190.274 125.087V127.64L191.006 127.55V128.093L191.528 128.038V128.415L192.608 128.282V127.829L193.131 127.773V127.202L193.967 127.097Z" stroke="#ACAEB0" stroke-width="0.4" stroke-linecap="round" stroke-linejoin="round"/>
<path d="M189.578 127.654V125.181L185.886 125.644V128.197L186.617 128.107V128.65L187.14 128.594V128.972L188.219 128.838V128.385L188.742 128.33V127.758L189.578 127.654Z" stroke="#ACAEB0" stroke-width="0.4" stroke-linecap="round" stroke-linejoin="round"/>
<path d="M198.355 126.609V124.136L194.663 124.599V127.152L195.395 127.062V127.605L195.917 127.549V127.927L196.997 127.793V127.34L197.519 127.285V126.713L198.355 126.609Z" stroke="#ACAEB0" stroke-width="0.4" stroke-linecap="round" stroke-linejoin="round"/>
<path d="M185.189 128.211V125.738L181.496 126.201V128.754L182.228 128.664V129.207L182.75 129.151V129.529L183.83 129.395V128.942L184.353 128.887V128.315L185.189 128.211Z" stroke="#ACAEB0" stroke-width="0.4" stroke-linecap="round" stroke-linejoin="round"/>
<path d="M181.496 123.258V125.738L185.189 125.295V122.718L184.457 122.812V122.268L183.935 122.324V121.976L182.855 122.11V122.533L182.332 122.589V123.16L181.496 123.258Z" stroke="#ACAEB0" stroke-width="0.4" stroke-linecap="round" stroke-linejoin="round"/>
<path d="M185.885 122.71V125.19L189.578 124.748V122.17L188.846 122.264V121.721L188.324 121.777V121.428L187.244 121.563V121.986L186.722 122.041V122.613L185.885 122.71Z" stroke="#ACAEB0" stroke-width="0.4" stroke-linecap="round" stroke-linejoin="round"/>
<path d="M194.594 121.526V124.006L198.286 123.564V120.986L197.554 121.08V120.537L197.032 120.593V120.244L195.952 120.379V120.802L195.43 120.857V121.429L194.594 121.526Z" stroke="#ACAEB0" stroke-width="0.4" stroke-linecap="round" stroke-linejoin="round"/>
<path d="M180.8 130.371V121.767L198.948 119.409V127.933L180.8 130.371Z" stroke="#ACAEB0" stroke-width="0.4" stroke-linecap="round" stroke-linejoin="round"/>
<path d="M190.275 122.153V124.633L193.967 124.191V121.613L193.235 121.707V121.164L192.713 121.22V120.871L191.633 121.006V121.429L191.111 121.484V122.056L190.275 122.153Z" stroke="#ACAEB0" stroke-width="0.4" stroke-linecap="round" stroke-linejoin="round"/>
<path d="M212.951 124.658V122.185L209.259 122.648V125.201L209.99 125.111V125.654L210.513 125.599V125.976L211.592 125.843V125.39L212.115 125.334V124.763L212.951 124.658Z" stroke="#ACAEB0" stroke-width="0.4" stroke-linecap="round" stroke-linejoin="round"/>
<path d="M208.562 125.215V122.742L204.869 123.205V125.758L205.601 125.668V126.211L206.123 126.155V126.533L207.203 126.399V125.946L207.726 125.891V125.319L208.562 125.215Z" stroke="#ACAEB0" stroke-width="0.4" stroke-linecap="round" stroke-linejoin="round"/>
<path d="M217.34 124.17V121.697L213.648 122.16V124.713L214.379 124.623V125.166L214.902 125.11V125.488L215.982 125.354V124.901L216.504 124.846V124.274L217.34 124.17Z" stroke="#ACAEB0" stroke-width="0.4" stroke-linecap="round" stroke-linejoin="round"/>
<path d="M214.902 125.111L214.382 124.867" stroke="#ACAEB0" stroke-width="0.4" stroke-linecap="round" stroke-linejoin="round"/>
<path d="M204.173 125.772V123.299L200.48 123.762V126.315L201.212 126.225V126.768L201.734 126.713V127.09L202.814 126.956V126.504L203.337 126.448V125.877L204.173 125.772Z" stroke="#ACAEB0" stroke-width="0.4" stroke-linecap="round" stroke-linejoin="round"/>
<path d="M200.48 120.819V123.299L204.173 122.856V120.279L203.441 120.373V119.829L202.919 119.885V119.537L201.839 119.671V120.094L201.316 120.15V120.721L200.48 120.819Z" stroke="#ACAEB0" stroke-width="0.4" stroke-linecap="round" stroke-linejoin="round"/>
<path d="M204.869 120.272V122.752L208.562 122.309V119.732L207.83 119.826V119.283L207.308 119.338V118.99L206.228 119.124V119.547L205.705 119.603V120.174L204.869 120.272Z" stroke="#ACAEB0" stroke-width="0.4" stroke-linecap="round" stroke-linejoin="round"/>
<path d="M213.578 119.087V121.567L217.27 121.125V118.547L216.539 118.641V118.098L216.016 118.154V117.805L214.936 117.94V118.363L214.414 118.418V118.99L213.578 119.087Z" stroke="#ACAEB0" stroke-width="0.4" stroke-linecap="round" stroke-linejoin="round"/>
<path d="M199.784 127.932V119.328L217.932 116.97V125.494L199.784 127.932Z" stroke="#ACAEB0" stroke-width="0.4" stroke-linecap="round" stroke-linejoin="round"/>
<path d="M209.259 119.714V122.194L212.951 121.752V119.174L212.22 119.268V118.725L211.697 118.781V118.432L210.618 118.567V118.99L210.095 119.045V119.617L209.259 119.714Z" stroke="#ACAEB0" stroke-width="0.4" stroke-linecap="round" stroke-linejoin="round"/>
<path d="M179.163 132.112C178.884 132.147 178.612 132.133 178.501 132.077L164.465 124.602C163.563 124.122 163 123.183 163 122.162V112.503C163 112.304 163.15 112.137 163.348 112.118V112.118" stroke="#333333" stroke-linecap="round" stroke-linejoin="round"/>
<path d="M228.87 113.932V113.932C229.204 113.893 229.497 114.154 229.497 114.491V123.893C229.497 124.789 228.833 125.547 227.944 125.664L180.415 131.952C179.217 132.111 178.153 131.178 178.153 129.969V121.045C178.153 120.767 178.257 120.523 178.431 120.453" stroke="#333333" stroke-linecap="round" stroke-linejoin="round"/>
<path d="M175.784 125.041V129.43L175.505 129.281V122.948C175.679 123.564 175.784 124.26 175.784 125.041Z" fill="#C4C4C4"/>
<path d="M168.26 118.837V125.404L167.981 125.255V118.663L168.26 118.837Z" fill="#C4C4C4"/>
<path d="M168.608 116.901V125.591L168.887 125.74V117.048C168.795 116.999 168.702 116.95 168.608 116.901Z" fill="#C4C4C4"/>
<path d="M169.235 117.231V125.926L169.514 126.075V117.378C169.422 117.33 169.329 117.281 169.235 117.231Z" fill="#C4C4C4"/>
<path d="M169.862 117.562V126.262L170.141 126.411V117.709C170.049 117.661 169.957 117.612 169.862 117.562Z" fill="#C4C4C4"/>
<path d="M170.489 126.597L170.768 126.746V118.04C170.677 117.992 170.584 117.943 170.489 117.893V126.597Z" fill="#C4C4C4"/>
<path d="M171.116 126.933L171.395 127.082V118.373C171.306 118.326 171.213 118.276 171.116 118.225V126.933Z" fill="#C4C4C4"/>
<path d="M171.743 127.268L172.022 127.417V118.709C171.937 118.664 171.844 118.613 171.743 118.559V127.268Z" fill="#C4C4C4"/>
<path d="M172.37 118.9C172.43 118.934 172.477 118.96 172.51 118.98C172.55 119.004 172.597 119.033 172.649 119.067V127.753L172.37 127.604V118.9Z" fill="#C4C4C4"/>
<path d="M173.276 119.527C173.178 119.446 173.085 119.373 172.997 119.308V127.939L173.276 128.088V119.527Z" fill="#C4C4C4"/>
<path d="M173.903 120.116C173.809 120.016 173.716 119.923 173.624 119.836V128.275L173.903 128.424V120.116Z" fill="#C4C4C4"/>
<path d="M174.53 120.886C174.439 120.755 174.345 120.632 174.251 120.515V128.61L174.53 128.759V120.886Z" fill="#C4C4C4"/>
<path d="M175.157 121.988C175.07 121.795 174.976 121.612 174.878 121.438V128.945L175.157 129.095V121.988Z" fill="#C4C4C4"/>
<path d="M164.498 116.497V123.392L164.219 123.243V116.323L164.498 116.497Z" fill="#C4C4C4"/>
<path d="M165.125 116.887V123.727L164.846 123.578V116.713L165.125 116.887Z" fill="#C4C4C4"/>
<path d="M165.752 117.277V124.063L165.473 123.914V117.103L165.752 117.277Z" fill="#C4C4C4"/>
<path d="M166.379 117.667V124.398L166.1 124.249V117.493L166.379 117.667Z" fill="#C4C4C4"/>
<path d="M167.006 118.057V124.734L166.727 124.584V117.883L167.006 118.057Z" fill="#C4C4C4"/>
<path d="M167.633 118.447V125.069L167.354 124.92V118.273L167.633 118.447Z" fill="#C4C4C4"/>
<path d="M177.107 121.164V121.069C177.107 120.928 177.033 120.798 176.911 120.726C176.752 120.632 176.55 120.747 176.55 120.932V121.03C176.55 121.164 176.616 121.289 176.726 121.365C176.887 121.476 177.107 121.36 177.107 121.164Z" stroke="#333333" stroke-width="0.5"/>
<path d="M177.107 129.834V129.763C177.107 129.601 177.02 129.452 176.878 129.373C176.7 129.274 176.48 129.403 176.48 129.607V129.682C176.48 129.835 176.558 129.978 176.687 130.062C176.868 130.18 177.107 130.05 177.107 129.834Z" stroke="#333333" stroke-width="0.5"/>
<path d="M163.871 114.572V114.466C163.871 114.363 163.818 114.267 163.732 114.212C163.611 114.135 163.453 114.221 163.453 114.365V114.473C163.453 114.57 163.499 114.662 163.576 114.72C163.698 114.81 163.871 114.724 163.871 114.572Z" stroke="#333333" stroke-width="0.5"/>
<path d="M163.871 121.697V121.627C163.871 121.521 163.815 121.423 163.724 121.369C163.604 121.298 163.453 121.384 163.453 121.523V121.597C163.453 121.697 163.502 121.791 163.585 121.848C163.706 121.931 163.871 121.845 163.871 121.697Z" stroke="#333333" stroke-width="0.5"/>
<path d="M223.157 117.833V120.313L226.849 119.871V117.293L226.118 117.387V116.844L225.595 116.9V116.551L224.515 116.686V117.109L223.993 117.165V117.736L223.157 117.833Z" stroke="#ACAEB0" stroke-width="0.4" stroke-linecap="round" stroke-linejoin="round"/>
<path d="M226.85 122.857V120.384L223.158 120.847V123.4L223.889 123.31V123.853L224.412 123.797V124.175L225.491 124.041V123.588L226.014 123.533V122.961L226.85 122.857Z" stroke="#ACAEB0" stroke-width="0.4" stroke-linecap="round" stroke-linejoin="round"/>
<path d="M227.477 124.282V115.82L222.583 116.43V124.912L227.477 124.282Z" stroke="#ACAEB0" stroke-width="0.4"/>
<path d="M193.967 138.844V136.371L190.274 136.834V139.387L191.006 139.297V139.84L191.528 139.784V140.162L192.608 140.028V139.575L193.131 139.52V138.948L193.967 138.844Z" stroke="#ACAEB0" stroke-width="0.4" stroke-linecap="round" stroke-linejoin="round"/>
<path d="M189.578 139.402V136.929L185.886 137.392V139.945L186.617 139.855V140.398L187.14 140.342V140.72L188.219 140.586V140.133L188.742 140.078V139.506L189.578 139.402Z" stroke="#ACAEB0" stroke-width="0.4" stroke-linecap="round" stroke-linejoin="round"/>
<path d="M198.355 138.357V135.884L194.663 136.347V138.9L195.395 138.81V139.353L195.917 139.297V139.675L196.997 139.541V139.088L197.519 139.033V138.461L198.355 138.357Z" stroke="#ACAEB0" stroke-width="0.4" stroke-linecap="round" stroke-linejoin="round"/>
<path d="M185.189 139.959V137.486L181.496 137.949V140.502L182.228 140.412V140.955L182.75 140.9V141.277L183.83 141.143V140.691L184.353 140.635V140.064L185.189 139.959Z" stroke="#ACAEB0" stroke-width="0.4" stroke-linecap="round" stroke-linejoin="round"/>
<path d="M181.496 135.006V137.486L185.189 137.043V134.466L184.457 134.56V134.016L183.935 134.072V133.724L182.855 133.858V134.281L182.332 134.337V134.908L181.496 135.006Z" stroke="#ACAEB0" stroke-width="0.4" stroke-linecap="round" stroke-linejoin="round"/>
<path d="M185.885 134.459V136.939L189.578 136.496V133.919L188.846 134.013V133.47L188.324 133.525V133.177L187.244 133.311V133.734L186.722 133.79V134.361L185.885 134.459Z" stroke="#ACAEB0" stroke-width="0.4" stroke-linecap="round" stroke-linejoin="round"/>
<path d="M194.594 133.274V135.754L198.286 135.312V132.734L197.555 132.828V132.285L197.032 132.341V131.992L195.952 132.127V132.55L195.43 132.605V133.177L194.594 133.274Z" stroke="#ACAEB0" stroke-width="0.4" stroke-linecap="round" stroke-linejoin="round"/>
<path d="M180.8 142.119V133.515L198.948 131.157V139.681L180.8 142.119Z" stroke="#ACAEB0" stroke-width="0.4" stroke-linecap="round" stroke-linejoin="round"/>
<path d="M190.275 133.901V136.381L193.967 135.939V133.361L193.235 133.455V132.912L192.713 132.968V132.619L191.633 132.754V133.177L191.111 133.232V133.804L190.275 133.901Z" stroke="#ACAEB0" stroke-width="0.4" stroke-linecap="round" stroke-linejoin="round"/>
<path d="M212.951 136.406V133.933L209.259 134.396V136.949L209.991 136.859V137.402L210.513 137.346V137.724L211.593 137.59V137.137L212.115 137.082V136.51L212.951 136.406Z" stroke="#ACAEB0" stroke-width="0.4" stroke-linecap="round" stroke-linejoin="round"/>
<path d="M208.562 136.963V134.49L204.87 134.953V137.506L205.602 137.416V137.959L206.124 137.903V138.281L207.204 138.147V137.694L207.726 137.639V137.067L208.562 136.963Z" stroke="#ACAEB0" stroke-width="0.4" stroke-linecap="round" stroke-linejoin="round"/>
<path d="M217.341 135.918V133.445L213.648 133.908V136.461L214.38 136.371V136.914L214.902 136.859V137.236L215.982 137.102V136.65L216.505 136.594V136.023L217.341 135.918Z" stroke="#ACAEB0" stroke-width="0.4" stroke-linecap="round" stroke-linejoin="round"/>
<path d="M204.174 137.52V135.047L200.481 135.51V138.063L201.213 137.973V138.516L201.735 138.461V138.838L202.815 138.704V138.252L203.338 138.196V137.625L204.174 137.52Z" stroke="#ACAEB0" stroke-width="0.4" stroke-linecap="round" stroke-linejoin="round"/>
<path d="M200.481 132.567V135.047L204.173 134.604V132.027L203.442 132.121V131.577L202.919 131.633V131.285L201.839 131.419V131.842L201.317 131.898V132.469L200.481 132.567Z" stroke="#ACAEB0" stroke-width="0.4" stroke-linecap="round" stroke-linejoin="round"/>
<path d="M204.87 132.02V134.5L208.562 134.058V131.48L207.831 131.574V131.031L207.308 131.087V130.738L206.229 130.873V131.296L205.706 131.352V131.923L204.87 132.02Z" stroke="#ACAEB0" stroke-width="0.4" stroke-linecap="round" stroke-linejoin="round"/>
<path d="M213.579 130.836V133.316L217.271 132.873V130.296L216.539 130.39V129.846L216.017 129.902V129.554L214.937 129.688V130.111L214.415 130.167V130.738L213.579 130.836Z" stroke="#ACAEB0" stroke-width="0.4" stroke-linecap="round" stroke-linejoin="round"/>
<path d="M199.785 139.68V131.076L217.933 128.718V137.242L199.785 139.68Z" stroke="#ACAEB0" stroke-width="0.4" stroke-linecap="round" stroke-linejoin="round"/>
<path d="M209.259 131.462V133.942L212.951 133.5V130.922L212.22 131.016V130.473L211.697 130.529V130.18L210.618 130.315V130.738L210.095 130.793V131.365L209.259 131.462Z" stroke="#ACAEB0" stroke-width="0.4" stroke-linecap="round" stroke-linejoin="round"/>
<path d="M179.163 143.861C178.884 143.896 178.612 143.882 178.501 143.826L164.465 136.351C163.563 135.87 163 134.932 163 133.91V124.251C163 124.052 163.15 123.886 163.348 123.866V123.866" stroke="#333333" stroke-linecap="round" stroke-linejoin="round"/>
<path d="M228.87 125.681V125.681C229.204 125.642 229.497 125.903 229.497 126.239V135.641C229.497 136.538 228.833 137.295 227.944 137.413L180.415 143.701C179.217 143.859 178.153 142.927 178.153 141.718V132.794C178.153 132.515 178.257 132.271 178.431 132.202" stroke="#333333" stroke-linecap="round" stroke-linejoin="round"/>
<path d="M175.784 136.79V141.179L175.505 141.03V134.697C175.679 135.314 175.784 136.009 175.784 136.79Z" fill="#C4C4C4"/>
<path d="M168.26 130.586V137.154L167.981 137.004V130.412L168.26 130.586Z" fill="#C4C4C4"/>
<path d="M168.608 128.65V137.34L168.887 137.489V128.797C168.795 128.748 168.702 128.699 168.608 128.65Z" fill="#C4C4C4"/>
<path d="M169.235 128.98V137.675L169.514 137.824V129.127C169.422 129.079 169.329 129.03 169.235 128.98Z" fill="#C4C4C4"/>
<path d="M169.862 129.311V138.011L170.141 138.16V129.458C170.049 129.41 169.957 129.361 169.862 129.311Z" fill="#C4C4C4"/>
<path d="M170.489 138.346L170.768 138.495V129.789C170.677 129.741 170.584 129.692 170.489 129.642V138.346Z" fill="#C4C4C4"/>
<path d="M171.116 138.682L171.395 138.831V130.122C171.306 130.075 171.213 130.025 171.116 129.974V138.682Z" fill="#C4C4C4"/>
<path d="M171.743 139.017L172.022 139.166V130.458C171.937 130.413 171.844 130.362 171.743 130.308V139.017Z" fill="#C4C4C4"/>
<path d="M172.37 130.649C172.43 130.683 172.477 130.709 172.51 130.729C172.55 130.753 172.597 130.782 172.649 130.816V139.502L172.37 139.353V130.649Z" fill="#C4C4C4"/>
<path d="M173.276 131.276C173.178 131.195 173.085 131.122 172.997 131.057V139.688L173.276 139.837V131.276Z" fill="#C4C4C4"/>
<path d="M173.903 131.865C173.809 131.765 173.716 131.672 173.624 131.585V140.024L173.903 140.173V131.865Z" fill="#C4C4C4"/>
<path d="M174.53 132.635C174.439 132.504 174.345 132.381 174.251 132.264V140.359L174.53 140.508V132.635Z" fill="#C4C4C4"/>
<path d="M175.157 133.737C175.07 133.544 174.976 133.361 174.878 133.187V140.694L175.157 140.844V133.737Z" fill="#C4C4C4"/>
<path d="M164.498 128.246V135.141L164.219 134.992V128.072L164.498 128.246Z" fill="#C4C4C4"/>
<path d="M165.125 128.636V135.476L164.846 135.327V128.462L165.125 128.636Z" fill="#C4C4C4"/>
<path d="M165.752 129.026V135.812L165.473 135.663V128.852L165.752 129.026Z" fill="#C4C4C4"/>
<path d="M166.379 129.416V136.147L166.1 135.998V129.242L166.379 129.416Z" fill="#C4C4C4"/>
<path d="M167.006 129.806V136.483L166.727 136.334V129.632L167.006 129.806Z" fill="#C4C4C4"/>
<path d="M167.633 130.196V136.818L167.354 136.669V130.022L167.633 130.196Z" fill="#C4C4C4"/>
<path d="M177.107 132.913V132.818C177.107 132.677 177.033 132.546 176.911 132.474C176.752 132.38 176.55 132.495 176.55 132.681V132.779C176.55 132.912 176.616 133.037 176.726 133.113C176.887 133.224 177.107 133.109 177.107 132.913Z" stroke="#333333" stroke-width="0.5"/>
<path d="M177.107 141.582V141.511C177.107 141.35 177.02 141.201 176.878 141.122C176.7 141.022 176.48 141.151 176.48 141.356V141.43C176.48 141.584 176.558 141.727 176.687 141.811C176.868 141.928 177.107 141.799 177.107 141.582Z" stroke="#333333" stroke-width="0.5"/>
<path d="M163.871 126.321V126.215C163.871 126.112 163.818 126.016 163.732 125.96C163.611 125.883 163.453 125.97 163.453 126.113V126.222C163.453 126.319 163.499 126.41 163.576 126.468C163.698 126.559 163.871 126.472 163.871 126.321Z" stroke="#333333" stroke-width="0.5"/>
<path d="M163.871 133.447V133.376C163.871 133.27 163.815 133.172 163.724 133.118C163.604 133.047 163.453 133.133 163.453 133.272V133.346C163.453 133.446 163.502 133.54 163.585 133.597C163.706 133.68 163.871 133.594 163.871 133.447Z" stroke="#333333" stroke-width="0.5"/>
<path d="M223.157 129.583V132.063L226.849 131.62V129.043L226.118 129.137V128.594L225.595 128.649V128.301L224.515 128.435V128.858L223.993 128.914V129.485L223.157 129.583Z" stroke="#ACAEB0" stroke-width="0.4" stroke-linecap="round" stroke-linejoin="round"/>
<path d="M226.85 134.605V132.132L223.158 132.595V135.148L223.889 135.058V135.601L224.412 135.546V135.923L225.491 135.789V135.337L226.014 135.281V134.71L226.85 134.605Z" stroke="#ACAEB0" stroke-width="0.4" stroke-linecap="round" stroke-linejoin="round"/>
<path d="M227.477 136.03V127.569L222.583 128.178V136.66L227.477 136.03Z" stroke="#ACAEB0" stroke-width="0.4"/>
<path d="M193.967 115.367V112.894L190.274 113.277V115.89L191.006 115.82V116.363L191.528 116.308V116.656L192.608 116.552V116.099L193.131 116.043V115.472L193.967 115.367Z" stroke="#ACAEB0" stroke-width="0.4" stroke-linecap="round" stroke-linejoin="round"/>
<path d="M189.577 115.89V113.417L185.885 113.8V116.412L186.617 116.343V116.886L187.139 116.83V117.179L188.219 117.074V116.621L188.741 116.565V115.994L189.577 115.89Z" stroke="#ACAEB0" stroke-width="0.4" stroke-linecap="round" stroke-linejoin="round"/>
<path d="M187.139 116.83L186.62 116.586" stroke="#ACAEB0" stroke-width="0.4" stroke-linecap="round" stroke-linejoin="round"/>
<path d="M198.356 114.879V112.406L194.663 112.789V115.402L195.395 115.332V115.876L195.917 115.82V116.168L196.997 116.064V115.611L197.52 115.555V114.984L198.356 114.879Z" stroke="#ACAEB0" stroke-width="0.4" stroke-linecap="round" stroke-linejoin="round"/>
<path d="M185.189 116.447V113.974L181.497 114.357V116.969L182.228 116.9V117.443L182.751 117.387V117.736L183.83 117.631V117.178L184.353 117.123V116.551L185.189 116.447Z" stroke="#ACAEB0" stroke-width="0.4" stroke-linecap="round" stroke-linejoin="round"/>
<path d="M182.75 117.388L182.231 117.144" stroke="#ACAEB0" stroke-width="0.4" stroke-linecap="round" stroke-linejoin="round"/>
<path d="M181.496 111.493V113.974L185.189 113.59V110.978L184.457 111.048V110.504L183.935 110.56V110.212L182.855 110.316V110.769L182.332 110.825V111.396L181.496 111.493Z" stroke="#ACAEB0" stroke-width="0.4" stroke-linecap="round" stroke-linejoin="round"/>
<path d="M185.885 110.936V113.417L189.577 113.033V110.421L188.846 110.49V109.947L188.323 110.003V109.654L187.244 109.759V110.212L186.721 110.268V110.839L185.885 110.936Z" stroke="#ACAEB0" stroke-width="0.4" stroke-linecap="round" stroke-linejoin="round"/>
<path d="M194.594 109.926V112.441L198.286 112.058V109.445L197.554 109.515V108.971L197.032 109.027V108.679L195.952 108.783V109.236L195.43 109.292V109.863L194.594 109.926Z" stroke="#ACAEB0" stroke-width="0.4" stroke-linecap="round" stroke-linejoin="round"/>
<path d="M180.8 118.607V110.003L198.948 107.878V116.168L180.8 118.607Z" stroke="#ACAEB0" stroke-width="0.4" stroke-linecap="round" stroke-linejoin="round"/>
<path d="M190.275 110.414V112.929L193.967 112.546V109.933L193.235 110.003V109.459L192.713 109.515V109.167L191.633 109.271V109.724L191.111 109.78V110.351L190.275 110.414Z" stroke="#ACAEB0" stroke-width="0.4" stroke-linecap="round" stroke-linejoin="round"/>
<path d="M212.951 113.034V110.561L209.259 110.944V113.557L209.99 113.487V114.03L210.513 113.975V114.323L211.592 114.219V113.766L212.115 113.71V113.139L212.951 113.034Z" stroke="#ACAEB0" stroke-width="0.4" stroke-linecap="round" stroke-linejoin="round"/>
<path d="M210.512 113.974L209.993 113.73" stroke="#ACAEB0" stroke-width="0.4" stroke-linecap="round" stroke-linejoin="round"/>
<path d="M208.561 113.557V111.083L204.869 111.467V114.079L205.6 114.01V114.553L206.123 114.497V114.846L207.203 114.741V114.288L207.725 114.232V113.661L208.561 113.557Z" stroke="#ACAEB0" stroke-width="0.4" stroke-linecap="round" stroke-linejoin="round"/>
<path d="M206.123 114.497L205.604 114.253" stroke="#ACAEB0" stroke-width="0.4" stroke-linecap="round" stroke-linejoin="round"/>
<path d="M217.305 112.546V110.073L213.613 110.456V113.069L214.344 112.999V113.543L214.867 113.487V113.835L215.946 113.731V113.278L216.469 113.222V112.651L217.305 112.546Z" stroke="#ACAEB0" stroke-width="0.4" stroke-linecap="round" stroke-linejoin="round"/>
<path d="M204.173 114.113V111.64L200.48 112.023V114.636L201.212 114.566V115.11L201.734 115.054V115.402L202.814 115.298V114.845L203.337 114.789V114.218L204.173 114.113Z" stroke="#ACAEB0" stroke-width="0.4" stroke-linecap="round" stroke-linejoin="round"/>
<path d="M201.735 115.053L201.215 114.81" stroke="#ACAEB0" stroke-width="0.4" stroke-linecap="round" stroke-linejoin="round"/>
<path d="M200.48 109.16V111.64L204.173 111.257V108.644L203.441 108.714V108.171L202.919 108.226V107.878L201.839 107.983V108.435L201.316 108.491V109.062L200.48 109.16Z" stroke="#ACAEB0" stroke-width="0.4" stroke-linecap="round" stroke-linejoin="round"/>
<path d="M204.869 108.603V111.083L208.562 110.7V108.088L207.83 108.157V107.614L207.308 107.67V107.321L206.228 107.426V107.879L205.705 107.935V108.506L204.869 108.603Z" stroke="#ACAEB0" stroke-width="0.4" stroke-linecap="round" stroke-linejoin="round"/>
<path d="M213.578 107.593V110.108L217.27 109.725V107.113L216.539 107.182V106.639L216.016 106.695V106.346L214.936 106.451V106.904L214.414 106.959V107.531L213.578 107.593Z" stroke="#ACAEB0" stroke-width="0.4" stroke-linecap="round" stroke-linejoin="round"/>
<path d="M199.784 116.134V107.809L217.932 105.684V113.696L199.784 116.134Z" stroke="#ACAEB0" stroke-width="0.4" stroke-linecap="round" stroke-linejoin="round"/>
<path d="M209.259 108.081V110.596L212.951 110.213V107.6L212.219 107.67V107.126L211.697 107.182V106.834L210.617 106.938V107.391L210.095 107.447V108.018L209.259 108.081Z" stroke="#ACAEB0" stroke-width="0.4" stroke-linecap="round" stroke-linejoin="round"/>
<path d="M228.94 102.34L218.251 99.0647C211.649 97.0418 204.71 96.3541 197.839 97.0417L164.801 100.348C163.779 100.45 163 101.311 163 102.338V110.396C163 111.505 163.611 112.523 164.59 113.044L178.501 120.453C178.612 120.509 178.884 120.523 179.163 120.488" stroke="#333333" stroke-linecap="round" stroke-linejoin="round"/>
<path d="M178.153 118.345V109.973C178.153 108.958 178.913 108.104 179.922 107.987L227.267 102.494C228.455 102.356 229.497 103.285 229.497 104.481V111.206C229.497 112.71 228.382 113.982 226.891 114.18L180.415 120.328C179.217 120.487 178.153 119.554 178.153 118.345Z" stroke="#333333" stroke-linecap="round" stroke-linejoin="round"/>
<path d="M178.222 108.331L163.302 100.836" stroke="#333333" stroke-linecap="round" stroke-linejoin="round"/>
<path d="M175.784 113.416V117.805L175.505 117.656V111.324C175.679 111.94 175.784 112.636 175.784 113.416Z" fill="#C4C4C4"/>
<path d="M168.26 107.212V113.78L167.981 113.631V107.039L168.26 107.212Z" fill="#C4C4C4"/>
<path d="M168.608 105.277V113.966L168.887 114.115V105.423C168.795 105.375 168.702 105.326 168.608 105.277Z" fill="#C4C4C4"/>
<path d="M169.235 105.607V114.302L169.514 114.451V105.754C169.422 105.705 169.329 105.656 169.235 105.607Z" fill="#C4C4C4"/>
<path d="M169.862 105.937V114.637L170.141 114.786V106.084C170.049 106.036 169.957 105.987 169.862 105.937Z" fill="#C4C4C4"/>
<path d="M170.489 114.973L170.768 115.122V106.416C170.677 106.368 170.584 106.319 170.489 106.268V114.973Z" fill="#C4C4C4"/>
<path d="M171.116 115.308L171.395 115.457V106.749C171.306 106.701 171.213 106.652 171.116 106.601V115.308Z" fill="#C4C4C4"/>
<path d="M171.743 115.644L172.022 115.793V107.085C171.937 107.039 171.844 106.989 171.743 106.935V115.644Z" fill="#C4C4C4"/>
<path d="M172.37 107.276C172.43 107.309 172.477 107.336 172.51 107.355C172.55 107.38 172.597 107.408 172.649 107.442V116.128L172.37 115.979V107.276Z" fill="#C4C4C4"/>
<path d="M173.276 107.902C173.178 107.821 173.085 107.748 172.997 107.683V116.315L173.276 116.464V107.902Z" fill="#C4C4C4"/>
<path d="M173.903 108.491C173.809 108.391 173.716 108.298 173.624 108.211V116.65L173.903 116.799V108.491Z" fill="#C4C4C4"/>
<path d="M174.53 109.261C174.439 109.131 174.345 109.007 174.251 108.891V116.985L174.53 117.135V109.261Z" fill="#C4C4C4"/>
<path d="M175.157 110.364C175.07 110.17 174.976 109.987 174.878 109.814V117.321L175.157 117.47V110.364Z" fill="#C4C4C4"/>
<path d="M164.498 104.872V111.767L164.219 111.618V104.699L164.498 104.872Z" fill="#C4C4C4"/>
<path d="M165.125 105.262V112.103L164.846 111.954V105.089L165.125 105.262Z" fill="#C4C4C4"/>
<path d="M165.752 105.652V112.438L165.473 112.289V105.479L165.752 105.652Z" fill="#C4C4C4"/>
<path d="M166.379 106.042V112.774L166.1 112.625V105.869L166.379 106.042Z" fill="#C4C4C4"/>
<path d="M167.006 106.432V113.109L166.727 112.96V106.259L167.006 106.432Z" fill="#C4C4C4"/>
<path d="M167.633 106.822V113.445L167.354 113.295V106.649L167.633 106.822Z" fill="#C4C4C4"/>
<path d="M177.107 109.54V109.445C177.107 109.304 177.033 109.174 176.911 109.102C176.752 109.008 176.55 109.123 176.55 109.308V109.406C176.55 109.54 176.616 109.665 176.726 109.741C176.887 109.852 177.107 109.736 177.107 109.54Z" stroke="#333333" stroke-width="0.5"/>
<path d="M177.107 118.21V118.139C177.107 117.977 177.02 117.828 176.878 117.749C176.7 117.65 176.48 117.779 176.48 117.983V118.058C176.48 118.211 176.558 118.354 176.687 118.438C176.868 118.556 177.107 118.426 177.107 118.21Z" stroke="#333333" stroke-width="0.5"/>
<path d="M163.871 102.948V102.842C163.871 102.739 163.818 102.643 163.732 102.588C163.611 102.511 163.453 102.597 163.453 102.74V102.849C163.453 102.946 163.499 103.038 163.576 103.096C163.698 103.186 163.871 103.1 163.871 102.948Z" stroke="#333333" stroke-width="0.5"/>
<path d="M163.871 110.073V110.003C163.871 109.897 163.815 109.799 163.724 109.745C163.604 109.674 163.453 109.76 163.453 109.899V109.973C163.453 110.073 163.502 110.167 163.585 110.224C163.706 110.307 163.871 110.221 163.871 110.073Z" stroke="#333333" stroke-width="0.5"/>
<path d="M223.157 106.234V108.749L226.849 108.365V105.753L226.118 105.823V105.279L225.595 105.335V104.987L224.515 105.091V105.544L223.993 105.6V106.171L223.157 106.234Z" stroke="#ACAEB0" stroke-width="0.4" stroke-linecap="round" stroke-linejoin="round"/>
<path d="M226.85 111.362V108.889L223.158 109.272V111.884L223.889 111.815V112.358L224.412 112.302V112.651L225.491 112.546V112.093L226.014 112.038V111.466L226.85 111.362Z" stroke="#ACAEB0" stroke-width="0.4" stroke-linecap="round" stroke-linejoin="round"/>
<path d="M227.477 112.476V104.5L222.583 105.109V113.106L227.477 112.476Z" stroke="#ACAEB0" stroke-width="0.4"/>
<path d="M193.967 217.097V214.624L190.274 215.087V217.64L191.006 217.55V218.093L191.528 218.038V218.415L192.608 218.282V217.829L193.131 217.773V217.202L193.967 217.097Z" stroke="#ACAEB0" stroke-width="0.4" stroke-linecap="round" stroke-linejoin="round"/>
<path d="M189.578 217.654V215.181L185.886 215.644V218.197L186.617 218.107V218.65L187.14 218.594V218.972L188.219 218.838V218.385L188.742 218.33V217.758L189.578 217.654Z" stroke="#ACAEB0" stroke-width="0.4" stroke-linecap="round" stroke-linejoin="round"/>
<path d="M198.355 216.609V214.136L194.663 214.599V217.152L195.395 217.062V217.605L195.917 217.549V217.927L196.997 217.793V217.34L197.519 217.285V216.713L198.355 216.609Z" stroke="#ACAEB0" stroke-width="0.4" stroke-linecap="round" stroke-linejoin="round"/>
<path d="M185.189 218.211V215.738L181.496 216.201V218.754L182.228 218.664V219.207L182.75 219.151V219.529L183.83 219.395V218.942L184.353 218.887V218.315L185.189 218.211Z" stroke="#ACAEB0" stroke-width="0.4" stroke-linecap="round" stroke-linejoin="round"/>
<path d="M181.496 213.258V215.738L185.189 215.295V212.718L184.457 212.812V212.268L183.935 212.324V211.976L182.855 212.11V212.533L182.332 212.589V213.16L181.496 213.258Z" stroke="#ACAEB0" stroke-width="0.4" stroke-linecap="round" stroke-linejoin="round"/>
<path d="M185.885 212.71V215.19L189.578 214.748V212.17L188.846 212.264V211.721L188.324 211.777V211.428L187.244 211.563V211.986L186.722 212.041V212.613L185.885 212.71Z" stroke="#ACAEB0" stroke-width="0.4" stroke-linecap="round" stroke-linejoin="round"/>
<path d="M194.594 211.526V214.006L198.286 213.564V210.986L197.554 211.08V210.537L197.032 210.593V210.244L195.952 210.379V210.802L195.43 210.857V211.429L194.594 211.526Z" stroke="#ACAEB0" stroke-width="0.4" stroke-linecap="round" stroke-linejoin="round"/>
<path d="M180.8 220.371V211.767L198.948 209.409V217.933L180.8 220.371Z" stroke="#ACAEB0" stroke-width="0.4" stroke-linecap="round" stroke-linejoin="round"/>
<path d="M190.275 212.153V214.633L193.967 214.191V211.613L193.235 211.707V211.164L192.713 211.22V210.871L191.633 211.006V211.429L191.111 211.484V212.056L190.275 212.153Z" stroke="#ACAEB0" stroke-width="0.4" stroke-linecap="round" stroke-linejoin="round"/>
<path d="M212.951 214.658V212.185L209.259 212.648V215.201L209.99 215.111V215.654L210.513 215.599V215.976L211.592 215.843V215.39L212.115 215.334V214.763L212.951 214.658Z" stroke="#ACAEB0" stroke-width="0.4" stroke-linecap="round" stroke-linejoin="round"/>
<path d="M208.562 215.215V212.742L204.869 213.205V215.758L205.601 215.668V216.211L206.123 216.155V216.533L207.203 216.399V215.946L207.726 215.891V215.319L208.562 215.215Z" stroke="#ACAEB0" stroke-width="0.4" stroke-linecap="round" stroke-linejoin="round"/>
<path d="M217.34 214.17V211.697L213.648 212.16V214.713L214.379 214.623V215.166L214.902 215.11V215.488L215.982 215.354V214.901L216.504 214.846V214.274L217.34 214.17Z" stroke="#ACAEB0" stroke-width="0.4" stroke-linecap="round" stroke-linejoin="round"/>
<path d="M214.902 215.111L214.382 214.867" stroke="#ACAEB0" stroke-width="0.4" stroke-linecap="round" stroke-linejoin="round"/>
<path d="M204.173 215.772V213.299L200.48 213.762V216.315L201.212 216.225V216.768L201.734 216.713V217.09L202.814 216.956V216.504L203.337 216.448V215.877L204.173 215.772Z" stroke="#ACAEB0" stroke-width="0.4" stroke-linecap="round" stroke-linejoin="round"/>
<path d="M200.48 210.819V213.299L204.173 212.856V210.279L203.441 210.373V209.829L202.919 209.885V209.537L201.839 209.671V210.094L201.316 210.15V210.721L200.48 210.819Z" stroke="#ACAEB0" stroke-width="0.4" stroke-linecap="round" stroke-linejoin="round"/>
<path d="M204.869 210.272V212.752L208.562 212.309V209.732L207.83 209.826V209.283L207.308 209.338V208.99L206.228 209.124V209.547L205.705 209.603V210.174L204.869 210.272Z" stroke="#ACAEB0" stroke-width="0.4" stroke-linecap="round" stroke-linejoin="round"/>
<path d="M213.578 209.087V211.567L217.27 211.125V208.547L216.539 208.641V208.098L216.016 208.154V207.805L214.936 207.94V208.363L214.414 208.418V208.99L213.578 209.087Z" stroke="#ACAEB0" stroke-width="0.4" stroke-linecap="round" stroke-linejoin="round"/>
<path d="M199.784 217.932V209.328L217.932 206.97V215.494L199.784 217.932Z" stroke="#ACAEB0" stroke-width="0.4" stroke-linecap="round" stroke-linejoin="round"/>
<path d="M209.259 209.714V212.194L212.951 211.752V209.174L212.22 209.268V208.725L211.697 208.781V208.432L210.618 208.567V208.99L210.095 209.045V209.617L209.259 209.714Z" stroke="#ACAEB0" stroke-width="0.4" stroke-linecap="round" stroke-linejoin="round"/>
<path d="M179.163 222.112C178.884 222.147 178.612 222.133 178.501 222.077L164.465 214.602C163.563 214.122 163 213.183 163 212.162V202.503C163 202.304 163.15 202.137 163.348 202.118V202.118" stroke="#333333" stroke-linecap="round" stroke-linejoin="round"/>
<path d="M228.87 203.932V203.932C229.204 203.893 229.497 204.154 229.497 204.491V213.893C229.497 214.789 228.833 215.547 227.944 215.664L180.415 221.952C179.217 222.111 178.153 221.178 178.153 219.969V211.045C178.153 210.767 178.257 210.523 178.431 210.453" stroke="#333333" stroke-linecap="round" stroke-linejoin="round"/>
<path d="M175.784 215.041V219.43L175.505 219.281V212.948C175.679 213.564 175.784 214.26 175.784 215.041Z" fill="#C4C4C4"/>
<path d="M168.26 208.837V215.404L167.981 215.255V208.663L168.26 208.837Z" fill="#C4C4C4"/>
<path d="M168.608 206.901V215.591L168.887 215.74V207.048C168.795 206.999 168.702 206.95 168.608 206.901Z" fill="#C4C4C4"/>
<path d="M169.235 207.231V215.926L169.514 216.075V207.378C169.422 207.33 169.329 207.281 169.235 207.231Z" fill="#C4C4C4"/>
<path d="M169.862 207.562V216.262L170.141 216.411V207.709C170.049 207.661 169.957 207.612 169.862 207.562Z" fill="#C4C4C4"/>
<path d="M170.489 216.597L170.768 216.746V208.04C170.677 207.992 170.584 207.943 170.489 207.893V216.597Z" fill="#C4C4C4"/>
<path d="M171.116 216.933L171.395 217.082V208.373C171.306 208.326 171.213 208.276 171.116 208.225V216.933Z" fill="#C4C4C4"/>
<path d="M171.743 217.268L172.022 217.417V208.709C171.937 208.664 171.844 208.613 171.743 208.559V217.268Z" fill="#C4C4C4"/>
<path d="M172.37 208.9C172.43 208.934 172.477 208.96 172.51 208.98C172.55 209.004 172.597 209.033 172.649 209.067V217.753L172.37 217.604V208.9Z" fill="#C4C4C4"/>
<path d="M173.276 209.527C173.178 209.446 173.085 209.373 172.997 209.308V217.939L173.276 218.088V209.527Z" fill="#C4C4C4"/>
<path d="M173.903 210.116C173.809 210.016 173.716 209.923 173.624 209.836V218.275L173.903 218.424V210.116Z" fill="#C4C4C4"/>
<path d="M174.53 210.886C174.439 210.755 174.345 210.632 174.251 210.515V218.61L174.53 218.759V210.886Z" fill="#C4C4C4"/>
<path d="M175.157 211.988C175.07 211.795 174.976 211.612 174.878 211.438V218.945L175.157 219.095V211.988Z" fill="#C4C4C4"/>
<path d="M164.498 206.497V213.392L164.219 213.243V206.323L164.498 206.497Z" fill="#C4C4C4"/>
<path d="M165.125 206.887V213.727L164.846 213.578V206.713L165.125 206.887Z" fill="#C4C4C4"/>
<path d="M165.752 207.277V214.063L165.473 213.914V207.103L165.752 207.277Z" fill="#C4C4C4"/>
<path d="M166.379 207.667V214.398L166.1 214.249V207.493L166.379 207.667Z" fill="#C4C4C4"/>
<path d="M167.006 208.057V214.734L166.727 214.584V207.883L167.006 208.057Z" fill="#C4C4C4"/>
<path d="M167.633 208.447V215.069L167.354 214.92V208.273L167.633 208.447Z" fill="#C4C4C4"/>
<path d="M177.107 211.164V211.069C177.107 210.928 177.033 210.798 176.911 210.726C176.752 210.632 176.55 210.747 176.55 210.932V211.03C176.55 211.164 176.616 211.289 176.726 211.365C176.887 211.476 177.107 211.36 177.107 211.164Z" stroke="#333333" stroke-width="0.5"/>
<path d="M177.107 219.834V219.763C177.107 219.601 177.02 219.452 176.878 219.373C176.7 219.274 176.48 219.403 176.48 219.607V219.682C176.48 219.835 176.558 219.978 176.687 220.062C176.868 220.18 177.107 220.05 177.107 219.834Z" stroke="#333333" stroke-width="0.5"/>
<path d="M163.871 204.572V204.466C163.871 204.363 163.818 204.267 163.732 204.212C163.611 204.135 163.453 204.221 163.453 204.365V204.473C163.453 204.57 163.499 204.662 163.576 204.72C163.698 204.81 163.871 204.724 163.871 204.572Z" stroke="#333333" stroke-width="0.5"/>
<path d="M163.871 211.697V211.627C163.871 211.521 163.815 211.423 163.724 211.369C163.604 211.298 163.453 211.384 163.453 211.523V211.597C163.453 211.697 163.502 211.791 163.585 211.848C163.706 211.931 163.871 211.845 163.871 211.697Z" stroke="#333333" stroke-width="0.5"/>
<path d="M223.157 207.833V210.313L226.849 209.871V207.293L226.118 207.387V206.844L225.595 206.9V206.551L224.515 206.686V207.109L223.993 207.165V207.736L223.157 207.833Z" stroke="#ACAEB0" stroke-width="0.4" stroke-linecap="round" stroke-linejoin="round"/>
<path d="M226.85 212.857V210.384L223.158 210.847V213.4L223.889 213.31V213.853L224.412 213.797V214.175L225.491 214.041V213.588L226.014 213.533V212.961L226.85 212.857Z" stroke="#ACAEB0" stroke-width="0.4" stroke-linecap="round" stroke-linejoin="round"/>
<path d="M227.477 214.282V205.82L222.583 206.43V214.912L227.477 214.282Z" stroke="#ACAEB0" stroke-width="0.4"/>
<path d="M193.967 228.844V226.371L190.274 226.834V229.387L191.006 229.297V229.84L191.528 229.784V230.162L192.608 230.028V229.575L193.131 229.52V228.948L193.967 228.844Z" stroke="#ACAEB0" stroke-width="0.4" stroke-linecap="round" stroke-linejoin="round"/>
<path d="M189.578 229.402V226.929L185.886 227.392V229.945L186.617 229.855V230.398L187.14 230.342V230.72L188.219 230.586V230.133L188.742 230.078V229.506L189.578 229.402Z" stroke="#ACAEB0" stroke-width="0.4" stroke-linecap="round" stroke-linejoin="round"/>
<path d="M198.355 228.357V225.884L194.663 226.347V228.9L195.395 228.81V229.353L195.917 229.297V229.675L196.997 229.541V229.088L197.519 229.033V228.461L198.355 228.357Z" stroke="#ACAEB0" stroke-width="0.4" stroke-linecap="round" stroke-linejoin="round"/>
<path d="M185.189 229.959V227.486L181.496 227.949V230.502L182.228 230.412V230.955L182.75 230.9V231.277L183.83 231.143V230.691L184.353 230.635V230.064L185.189 229.959Z" stroke="#ACAEB0" stroke-width="0.4" stroke-linecap="round" stroke-linejoin="round"/>
<path d="M181.496 225.006V227.486L185.189 227.043V224.466L184.457 224.56V224.016L183.935 224.072V223.724L182.855 223.858V224.281L182.332 224.337V224.908L181.496 225.006Z" stroke="#ACAEB0" stroke-width="0.4" stroke-linecap="round" stroke-linejoin="round"/>
<path d="M185.885 224.459V226.939L189.578 226.496V223.919L188.846 224.013V223.47L188.324 223.525V223.177L187.244 223.311V223.734L186.722 223.79V224.361L185.885 224.459Z" stroke="#ACAEB0" stroke-width="0.4" stroke-linecap="round" stroke-linejoin="round"/>
<path d="M194.594 223.274V225.754L198.286 225.312V222.734L197.555 222.828V222.285L197.032 222.341V221.992L195.952 222.127V222.55L195.43 222.605V223.177L194.594 223.274Z" stroke="#ACAEB0" stroke-width="0.4" stroke-linecap="round" stroke-linejoin="round"/>
<path d="M180.8 232.119V223.515L198.948 221.157V229.681L180.8 232.119Z" stroke="#ACAEB0" stroke-width="0.4" stroke-linecap="round" stroke-linejoin="round"/>
<path d="M190.275 223.901V226.381L193.967 225.939V223.361L193.235 223.455V222.912L192.713 222.968V222.619L191.633 222.754V223.177L191.111 223.232V223.804L190.275 223.901Z" stroke="#ACAEB0" stroke-width="0.4" stroke-linecap="round" stroke-linejoin="round"/>
<path d="M212.951 226.406V223.933L209.259 224.396V226.949L209.991 226.859V227.402L210.513 227.346V227.724L211.593 227.59V227.137L212.115 227.082V226.51L212.951 226.406Z" stroke="#ACAEB0" stroke-width="0.4" stroke-linecap="round" stroke-linejoin="round"/>
<path d="M208.562 226.963V224.49L204.87 224.953V227.506L205.602 227.416V227.959L206.124 227.903V228.281L207.204 228.147V227.694L207.726 227.639V227.067L208.562 226.963Z" stroke="#ACAEB0" stroke-width="0.4" stroke-linecap="round" stroke-linejoin="round"/>
<path d="M217.341 225.918V223.445L213.648 223.908V226.461L214.38 226.371V226.914L214.902 226.859V227.236L215.982 227.102V226.65L216.505 226.594V226.023L217.341 225.918Z" stroke="#ACAEB0" stroke-width="0.4" stroke-linecap="round" stroke-linejoin="round"/>
<path d="M204.174 227.52V225.047L200.481 225.51V228.063L201.213 227.973V228.516L201.735 228.461V228.838L202.815 228.704V228.252L203.338 228.196V227.625L204.174 227.52Z" stroke="#ACAEB0" stroke-width="0.4" stroke-linecap="round" stroke-linejoin="round"/>
<path d="M200.481 222.567V225.047L204.173 224.604V222.027L203.442 222.121V221.577L202.919 221.633V221.285L201.839 221.419V221.842L201.317 221.898V222.469L200.481 222.567Z" stroke="#ACAEB0" stroke-width="0.4" stroke-linecap="round" stroke-linejoin="round"/>
<path d="M204.87 222.02V224.5L208.562 224.058V221.48L207.831 221.574V221.031L207.308 221.087V220.738L206.229 220.873V221.296L205.706 221.352V221.923L204.87 222.02Z" stroke="#ACAEB0" stroke-width="0.4" stroke-linecap="round" stroke-linejoin="round"/>
<path d="M213.579 220.836V223.316L217.271 222.873V220.296L216.539 220.39V219.846L216.017 219.902V219.554L214.937 219.688V220.111L214.415 220.167V220.738L213.579 220.836Z" stroke="#ACAEB0" stroke-width="0.4" stroke-linecap="round" stroke-linejoin="round"/>
<path d="M199.785 229.68V221.076L217.933 218.718V227.242L199.785 229.68Z" stroke="#ACAEB0" stroke-width="0.4" stroke-linecap="round" stroke-linejoin="round"/>
<path d="M209.259 221.462V223.942L212.951 223.5V220.922L212.22 221.016V220.473L211.697 220.529V220.18L210.618 220.315V220.738L210.095 220.793V221.365L209.259 221.462Z" stroke="#ACAEB0" stroke-width="0.4" stroke-linecap="round" stroke-linejoin="round"/>
<path d="M179.163 233.861C178.884 233.896 178.612 233.882 178.501 233.826L164.465 226.351C163.563 225.87 163 224.932 163 223.91V214.251C163 214.052 163.15 213.886 163.348 213.866V213.866" stroke="#333333" stroke-linecap="round" stroke-linejoin="round"/>
<path d="M228.87 215.681V215.681C229.204 215.642 229.497 215.903 229.497 216.239V225.641C229.497 226.538 228.833 227.295 227.944 227.413L180.415 233.701C179.217 233.859 178.153 232.927 178.153 231.718V222.794C178.153 222.515 178.257 222.271 178.431 222.202" stroke="#333333" stroke-linecap="round" stroke-linejoin="round"/>
<path d="M175.784 226.79V231.179L175.505 231.03V224.697C175.679 225.314 175.784 226.009 175.784 226.79Z" fill="#C4C4C4"/>
<path d="M168.26 220.586V227.154L167.981 227.004V220.412L168.26 220.586Z" fill="#C4C4C4"/>
<path d="M168.608 218.65V227.34L168.887 227.489V218.797C168.795 218.748 168.702 218.699 168.608 218.65Z" fill="#C4C4C4"/>
<path d="M169.235 218.98V227.675L169.514 227.824V219.127C169.422 219.079 169.329 219.03 169.235 218.98Z" fill="#C4C4C4"/>
<path d="M169.862 219.311V228.011L170.141 228.16V219.458C170.049 219.41 169.957 219.361 169.862 219.311Z" fill="#C4C4C4"/>
<path d="M170.489 228.346L170.768 228.495V219.789C170.677 219.741 170.584 219.692 170.489 219.642V228.346Z" fill="#C4C4C4"/>
<path d="M171.116 228.682L171.395 228.831V220.122C171.306 220.075 171.213 220.025 171.116 219.974V228.682Z" fill="#C4C4C4"/>
<path d="M171.743 229.017L172.022 229.166V220.458C171.937 220.413 171.844 220.362 171.743 220.308V229.017Z" fill="#C4C4C4"/>
<path d="M172.37 220.649C172.43 220.683 172.477 220.709 172.51 220.729C172.55 220.753 172.597 220.782 172.649 220.816V229.502L172.37 229.353V220.649Z" fill="#C4C4C4"/>
<path d="M173.276 221.276C173.178 221.195 173.085 221.122 172.997 221.057V229.688L173.276 229.837V221.276Z" fill="#C4C4C4"/>
<path d="M173.903 221.865C173.809 221.765 173.716 221.672 173.624 221.585V230.024L173.903 230.173V221.865Z" fill="#C4C4C4"/>
<path d="M174.53 222.635C174.439 222.504 174.345 222.381 174.251 222.264V230.359L174.53 230.508V222.635Z" fill="#C4C4C4"/>
<path d="M175.157 223.737C175.07 223.544 174.976 223.361 174.878 223.187V230.694L175.157 230.844V223.737Z" fill="#C4C4C4"/>
<path d="M164.498 218.246V225.141L164.219 224.992V218.072L164.498 218.246Z" fill="#C4C4C4"/>
<path d="M165.125 218.636V225.476L164.846 225.327V218.462L165.125 218.636Z" fill="#C4C4C4"/>
<path d="M165.752 219.026V225.812L165.473 225.663V218.852L165.752 219.026Z" fill="#C4C4C4"/>
<path d="M166.379 219.416V226.147L166.1 225.998V219.242L166.379 219.416Z" fill="#C4C4C4"/>
<path d="M167.006 219.806V226.483L166.727 226.334V219.632L167.006 219.806Z" fill="#C4C4C4"/>
<path d="M167.633 220.196V226.818L167.354 226.669V220.022L167.633 220.196Z" fill="#C4C4C4"/>
<path d="M177.107 222.913V222.818C177.107 222.677 177.033 222.546 176.911 222.474C176.752 222.38 176.55 222.495 176.55 222.681V222.779C176.55 222.912 176.616 223.037 176.726 223.113C176.887 223.224 177.107 223.109 177.107 222.913Z" stroke="#333333" stroke-width="0.5"/>
<path d="M177.107 231.582V231.511C177.107 231.35 177.02 231.201 176.878 231.122C176.7 231.022 176.48 231.151 176.48 231.356V231.43C176.48 231.584 176.558 231.727 176.687 231.811C176.868 231.928 177.107 231.799 177.107 231.582Z" stroke="#333333" stroke-width="0.5"/>
<path d="M163.871 216.321V216.215C163.871 216.112 163.818 216.016 163.732 215.96C163.611 215.883 163.453 215.97 163.453 216.113V216.222C163.453 216.319 163.499 216.41 163.576 216.468C163.698 216.559 163.871 216.472 163.871 216.321Z" stroke="#333333" stroke-width="0.5"/>
<path d="M163.871 223.447V223.376C163.871 223.27 163.815 223.172 163.724 223.118C163.604 223.047 163.453 223.133 163.453 223.272V223.346C163.453 223.446 163.502 223.54 163.585 223.597C163.706 223.68 163.871 223.594 163.871 223.447Z" stroke="#333333" stroke-width="0.5"/>
<path d="M223.157 219.583V222.063L226.849 221.62V219.043L226.118 219.137V218.594L225.595 218.649V218.301L224.515 218.435V218.858L223.993 218.914V219.485L223.157 219.583Z" stroke="#ACAEB0" stroke-width="0.4" stroke-linecap="round" stroke-linejoin="round"/>
<path d="M226.85 224.605V222.132L223.158 222.595V225.148L223.889 225.058V225.601L224.412 225.546V225.923L225.491 225.789V225.337L226.014 225.281V224.71L226.85 224.605Z" stroke="#ACAEB0" stroke-width="0.4" stroke-linecap="round" stroke-linejoin="round"/>
<path d="M227.477 226.03V217.569L222.583 218.178V226.66L227.477 226.03Z" stroke="#ACAEB0" stroke-width="0.4"/>
<path d="M193.967 205.367V202.894L190.274 203.277V205.89L191.006 205.82V206.363L191.528 206.308V206.656L192.608 206.552V206.099L193.131 206.043V205.472L193.967 205.367Z" stroke="#ACAEB0" stroke-width="0.4" stroke-linecap="round" stroke-linejoin="round"/>
<path d="M189.577 205.89V203.417L185.885 203.8V206.412L186.617 206.343V206.886L187.139 206.83V207.179L188.219 207.074V206.621L188.741 206.565V205.994L189.577 205.89Z" stroke="#ACAEB0" stroke-width="0.4" stroke-linecap="round" stroke-linejoin="round"/>
<path d="M187.139 206.83L186.62 206.586" stroke="#ACAEB0" stroke-width="0.4" stroke-linecap="round" stroke-linejoin="round"/>
<path d="M198.356 204.879V202.406L194.663 202.789V205.402L195.395 205.332V205.876L195.917 205.82V206.168L196.997 206.064V205.611L197.52 205.555V204.984L198.356 204.879Z" stroke="#ACAEB0" stroke-width="0.4" stroke-linecap="round" stroke-linejoin="round"/>
<path d="M185.189 206.447V203.974L181.497 204.357V206.969L182.228 206.9V207.443L182.751 207.387V207.736L183.83 207.631V207.178L184.353 207.123V206.551L185.189 206.447Z" stroke="#ACAEB0" stroke-width="0.4" stroke-linecap="round" stroke-linejoin="round"/>
<path d="M182.75 207.388L182.231 207.144" stroke="#ACAEB0" stroke-width="0.4" stroke-linecap="round" stroke-linejoin="round"/>
<path d="M181.496 201.493V203.974L185.189 203.59V200.978L184.457 201.048V200.504L183.935 200.56V200.212L182.855 200.316V200.769L182.332 200.825V201.396L181.496 201.493Z" stroke="#ACAEB0" stroke-width="0.4" stroke-linecap="round" stroke-linejoin="round"/>
<path d="M185.885 200.936V203.417L189.577 203.033V200.421L188.846 200.49V199.947L188.323 200.003V199.654L187.244 199.759V200.212L186.721 200.268V200.839L185.885 200.936Z" stroke="#ACAEB0" stroke-width="0.4" stroke-linecap="round" stroke-linejoin="round"/>
<path d="M194.594 199.926V202.441L198.286 202.058V199.445L197.554 199.515V198.971L197.032 199.027V198.679L195.952 198.783V199.236L195.43 199.292V199.863L194.594 199.926Z" stroke="#ACAEB0" stroke-width="0.4" stroke-linecap="round" stroke-linejoin="round"/>
<path d="M180.8 208.607V200.003L198.948 197.878V206.168L180.8 208.607Z" stroke="#ACAEB0" stroke-width="0.4" stroke-linecap="round" stroke-linejoin="round"/>
<path d="M190.275 200.414V202.929L193.967 202.546V199.933L193.235 200.003V199.459L192.713 199.515V199.167L191.633 199.271V199.724L191.111 199.78V200.351L190.275 200.414Z" stroke="#ACAEB0" stroke-width="0.4" stroke-linecap="round" stroke-linejoin="round"/>
<path d="M212.951 203.034V200.561L209.259 200.944V203.557L209.99 203.487V204.03L210.513 203.975V204.323L211.592 204.219V203.766L212.115 203.71V203.139L212.951 203.034Z" stroke="#ACAEB0" stroke-width="0.4" stroke-linecap="round" stroke-linejoin="round"/>
<path d="M210.512 203.974L209.993 203.73" stroke="#ACAEB0" stroke-width="0.4" stroke-linecap="round" stroke-linejoin="round"/>
<path d="M208.561 203.557V201.083L204.869 201.467V204.079L205.6 204.01V204.553L206.123 204.497V204.846L207.203 204.741V204.288L207.725 204.232V203.661L208.561 203.557Z" stroke="#ACAEB0" stroke-width="0.4" stroke-linecap="round" stroke-linejoin="round"/>
<path d="M206.123 204.497L205.604 204.253" stroke="#ACAEB0" stroke-width="0.4" stroke-linecap="round" stroke-linejoin="round"/>
<path d="M217.305 202.546V200.073L213.613 200.456V203.069L214.344 202.999V203.543L214.867 203.487V203.835L215.946 203.731V203.278L216.469 203.222V202.651L217.305 202.546Z" stroke="#ACAEB0" stroke-width="0.4" stroke-linecap="round" stroke-linejoin="round"/>
<path d="M204.173 204.113V201.64L200.48 202.023V204.636L201.212 204.566V205.11L201.734 205.054V205.402L202.814 205.298V204.845L203.337 204.789V204.218L204.173 204.113Z" stroke="#ACAEB0" stroke-width="0.4" stroke-linecap="round" stroke-linejoin="round"/>
<path d="M201.735 205.053L201.215 204.81" stroke="#ACAEB0" stroke-width="0.4" stroke-linecap="round" stroke-linejoin="round"/>
<path d="M200.48 199.16V201.64L204.173 201.257V198.644L203.441 198.714V198.171L202.919 198.226V197.878L201.839 197.983V198.435L201.316 198.491V199.062L200.48 199.16Z" stroke="#ACAEB0" stroke-width="0.4" stroke-linecap="round" stroke-linejoin="round"/>
<path d="M204.869 198.603V201.083L208.562 200.7V198.088L207.83 198.157V197.614L207.308 197.67V197.321L206.228 197.426V197.879L205.705 197.935V198.506L204.869 198.603Z" stroke="#ACAEB0" stroke-width="0.4" stroke-linecap="round" stroke-linejoin="round"/>
<path d="M213.578 197.593V200.108L217.27 199.725V197.113L216.539 197.182V196.639L216.016 196.695V196.346L214.936 196.451V196.904L214.414 196.959V197.531L213.578 197.593Z" stroke="#ACAEB0" stroke-width="0.4" stroke-linecap="round" stroke-linejoin="round"/>
<path d="M199.784 206.134V197.809L217.932 195.684V203.696L199.784 206.134Z" stroke="#ACAEB0" stroke-width="0.4" stroke-linecap="round" stroke-linejoin="round"/>
<path d="M209.259 198.081V200.596L212.951 200.213V197.6L212.219 197.67V197.126L211.697 197.182V196.834L210.617 196.938V197.391L210.095 197.447V198.018L209.259 198.081Z" stroke="#ACAEB0" stroke-width="0.4" stroke-linecap="round" stroke-linejoin="round"/>
<path d="M228.94 192.34L218.251 189.065C211.649 187.042 204.71 186.354 197.839 187.042L164.801 190.348C163.779 190.45 163 191.311 163 192.338V200.396C163 201.505 163.611 202.523 164.59 203.044L178.501 210.453C178.612 210.509 178.884 210.523 179.163 210.488" stroke="#333333" stroke-linecap="round" stroke-linejoin="round"/>
<path d="M178.153 208.345V199.973C178.153 198.958 178.913 198.104 179.922 197.987L227.267 192.494C228.455 192.356 229.497 193.285 229.497 194.481V201.206C229.497 202.71 228.382 203.982 226.891 204.18L180.415 210.328C179.217 210.487 178.153 209.554 178.153 208.345Z" stroke="#333333" stroke-linecap="round" stroke-linejoin="round"/>
<path d="M178.222 198.331L163.302 190.836" stroke="#333333" stroke-linecap="round" stroke-linejoin="round"/>
<path d="M175.784 203.416V207.805L175.505 207.656V201.324C175.679 201.94 175.784 202.636 175.784 203.416Z" fill="#C4C4C4"/>
<path d="M168.26 197.212V203.78L167.981 203.631V197.039L168.26 197.212Z" fill="#C4C4C4"/>
<path d="M168.608 195.277V203.966L168.887 204.115V195.423C168.795 195.375 168.702 195.326 168.608 195.277Z" fill="#C4C4C4"/>
<path d="M169.235 195.607V204.302L169.514 204.451V195.754C169.422 195.705 169.329 195.656 169.235 195.607Z" fill="#C4C4C4"/>
<path d="M169.862 195.937V204.637L170.141 204.786V196.084C170.049 196.036 169.957 195.987 169.862 195.937Z" fill="#C4C4C4"/>
<path d="M170.489 204.973L170.768 205.122V196.416C170.677 196.368 170.584 196.319 170.489 196.268V204.973Z" fill="#C4C4C4"/>
<path d="M171.116 205.308L171.395 205.457V196.749C171.306 196.701 171.213 196.652 171.116 196.601V205.308Z" fill="#C4C4C4"/>
<path d="M171.743 205.644L172.022 205.793V197.085C171.937 197.039 171.844 196.989 171.743 196.935V205.644Z" fill="#C4C4C4"/>
<path d="M172.37 197.276C172.43 197.309 172.477 197.336 172.51 197.355C172.55 197.38 172.597 197.408 172.649 197.442V206.128L172.37 205.979V197.276Z" fill="#C4C4C4"/>
<path d="M173.276 197.902C173.178 197.821 173.085 197.748 172.997 197.683V206.315L173.276 206.464V197.902Z" fill="#C4C4C4"/>
<path d="M173.903 198.491C173.809 198.391 173.716 198.298 173.624 198.211V206.65L173.903 206.799V198.491Z" fill="#C4C4C4"/>
<path d="M174.53 199.261C174.439 199.131 174.345 199.007 174.251 198.891V206.985L174.53 207.135V199.261Z" fill="#C4C4C4"/>
<path d="M175.157 200.364C175.07 200.17 174.976 199.987 174.878 199.814V207.321L175.157 207.47V200.364Z" fill="#C4C4C4"/>
<path d="M164.498 194.872V201.767L164.219 201.618V194.699L164.498 194.872Z" fill="#C4C4C4"/>
<path d="M165.125 195.262V202.103L164.846 201.954V195.089L165.125 195.262Z" fill="#C4C4C4"/>
<path d="M165.752 195.652V202.438L165.473 202.289V195.479L165.752 195.652Z" fill="#C4C4C4"/>
<path d="M166.379 196.042V202.774L166.1 202.625V195.869L166.379 196.042Z" fill="#C4C4C4"/>
<path d="M167.006 196.432V203.109L166.727 202.96V196.259L167.006 196.432Z" fill="#C4C4C4"/>
<path d="M167.633 196.822V203.445L167.354 203.295V196.649L167.633 196.822Z" fill="#C4C4C4"/>
<path d="M177.107 199.54V199.445C177.107 199.304 177.033 199.174 176.911 199.102C176.752 199.008 176.55 199.123 176.55 199.308V199.406C176.55 199.54 176.616 199.665 176.726 199.741C176.887 199.852 177.107 199.736 177.107 199.54Z" stroke="#333333" stroke-width="0.5"/>
<path d="M177.107 208.21V208.139C177.107 207.977 177.02 207.828 176.878 207.749C176.7 207.65 176.48 207.779 176.48 207.983V208.058C176.48 208.211 176.558 208.354 176.687 208.438C176.868 208.556 177.107 208.426 177.107 208.21Z" stroke="#333333" stroke-width="0.5"/>
<path d="M163.871 192.948V192.842C163.871 192.739 163.818 192.643 163.732 192.588C163.611 192.511 163.453 192.597 163.453 192.74V192.849C163.453 192.946 163.499 193.038 163.576 193.096C163.698 193.186 163.871 193.1 163.871 192.948Z" stroke="#333333" stroke-width="0.5"/>
<path d="M163.871 200.073V200.003C163.871 199.897 163.815 199.799 163.724 199.745C163.604 199.674 163.453 199.76 163.453 199.899V199.973C163.453 200.073 163.502 200.167 163.585 200.224C163.706 200.307 163.871 200.221 163.871 200.073Z" stroke="#333333" stroke-width="0.5"/>
<path d="M223.157 196.234V198.749L226.849 198.365V195.753L226.118 195.823V195.279L225.595 195.335V194.987L224.515 195.091V195.544L223.993 195.6V196.171L223.157 196.234Z" stroke="#ACAEB0" stroke-width="0.4" stroke-linecap="round" stroke-linejoin="round"/>
<path d="M226.85 201.362V198.889L223.158 199.272V201.884L223.889 201.815V202.358L224.412 202.302V202.651L225.491 202.546V202.093L226.014 202.038V201.466L226.85 201.362Z" stroke="#ACAEB0" stroke-width="0.4" stroke-linecap="round" stroke-linejoin="round"/>
<path d="M227.477 202.476V194.5L222.583 195.109V203.106L227.477 202.476Z" stroke="#ACAEB0" stroke-width="0.4"/>
<rect x="171.787" y="278.016" width="51.8676" height="37.0647" rx="1.5" stroke="#333333"/>
<rect x="174.459" y="280.688" width="46.5235" height="31.7205" rx="1" fill="#EBEDEE"/>
<path d="M166.5 315.524C166.5 315.248 166.724 315.024 167 315.024H228.441C228.717 315.024 228.941 315.248 228.941 315.524V318.573C228.941 319.954 227.822 321.073 226.441 321.073H169C167.619 321.073 166.5 319.954 166.5 318.573V315.524Z" stroke="#333333"/>
<path d="M190.672 315.228V317.047C190.672 317.599 191.119 318.047 191.672 318.047H203.77C204.322 318.047 204.77 317.599 204.77 317.047V315.228" stroke="#333333"/>
<rect x="208.794" y="268.5" width="26.4911" height="32.8352" rx="1.5" fill="white" stroke="#333333"/>
<path d="M219.925 271.172H224.154" stroke="#333333" stroke-linecap="round"/>
<path d="M208.823 296.548H235.256" stroke="#333333" stroke-linecap="round"/>
<circle cx="222.04" cy="298.663" r="1.05735" fill="#333333"/>
<path d="M244 306.227V284.755C244 283.677 243.126 282.803 242.048 282.803H230.336C229.258 282.803 228.384 283.677 228.384 284.755V306.227C228.384 307.305 229.258 308.179 230.336 308.179H242.048C243.126 308.179 244 307.305 244 306.227Z" fill="white" stroke="#333333" stroke-linecap="round" stroke-linejoin="round"/>
<path d="M236.192 304.927C237 304.927 237.656 304.271 237.656 303.463C237.656 302.654 237 301.999 236.192 301.999C235.383 301.999 234.728 302.654 234.728 303.463C234.728 304.271 235.383 304.927 236.192 304.927Z" fill="#333333"/>
</svg>
