<svg width="196" height="322" viewBox="0 0 196 322" fill="none" xmlns="http://www.w3.org/2000/svg">
<path d="M148 97.6667C149.473 97.6667 150.667 96.4728 150.667 95C150.667 93.5272 149.473 92.3333 148 92.3333C146.527 92.3333 145.333 93.5272 145.333 95C145.333 96.4728 146.527 97.6667 148 97.6667ZM148 56.6667C149.473 56.6667 150.667 55.4728 150.667 54C150.667 52.5272 149.473 51.3333 148 51.3333C146.527 51.3333 145.333 52.5272 145.333 54C145.333 55.4728 146.527 56.6667 148 56.6667ZM148.5 95L148.5 54L147.5 54L147.5 95L148.5 95Z" fill="#5496EA"/>
<path d="M148 187.667C149.473 187.667 150.667 186.473 150.667 185C150.667 183.527 149.473 182.333 148 182.333C146.527 182.333 145.333 183.527 145.333 185C145.333 186.473 146.527 187.667 148 187.667ZM148 146.667C149.473 146.667 150.667 145.473 150.667 144C150.667 142.527 149.473 141.333 148 141.333C146.527 141.333 145.333 142.527 145.333 144C145.333 145.473 146.527 146.667 148 146.667ZM148.5 185L148.5 144L147.5 144L147.5 185L148.5 185Z" fill="#5496EA"/>
<path d="M149 276.667C150.473 276.667 151.667 275.473 151.667 274C151.667 272.527 150.473 271.333 149 271.333C147.527 271.333 146.333 272.527 146.333 274C146.333 275.473 147.527 276.667 149 276.667ZM149 236.667C150.473 236.667 151.667 235.473 151.667 234C151.667 232.527 150.473 231.333 149 231.333C147.527 231.333 146.333 232.527 146.333 234C146.333 235.473 147.527 236.667 149 236.667ZM149.5 274L149.5 234L148.5 234L148.5 274L149.5 274Z" fill="#5496EA"/>
<path d="M140.926 34.4217H139.576C124.853 34.4217 121 29.8809 121 24.5145C121 19.1481 125.266 14.3321 132.421 14.3321C133.43 9.92896 135.035 2.28649 145.218 1.12259C154.024 0.115985 156.959 5.57159 157.601 7.86492C158.932 7.49798 162.335 7.31452 164.206 8.96571C166.683 11.1511 166.775 13.2313 166.683 14.3321C169.802 14.4239 176.453 16.5819 176.453 24.5145C176.453 34.4217 166.683 34.4217 159.253 34.4217H155.87" stroke="#333333" stroke-width="1.5" stroke-linecap="round"/>
<path d="M147.969 24.2461V39.7855" stroke="#333333" stroke-width="1.5" stroke-linecap="round"/>
<ellipse cx="147.969" cy="45.1472" rx="3.85279" ry="3.85279" stroke="#333333" stroke-width="1.5"/>
<path d="M151.685 45.5576H162.142" stroke="#333333" stroke-width="1.5"/>
<path d="M133.659 45.5576H144.117" stroke="#333333" stroke-width="1.5"/>
<rect x="162.28" y="41.2944" width="7.70557" height="7.70557" stroke="#333333" stroke-width="1.5" stroke-linejoin="round"/>
<rect x="125.953" y="41.2944" width="7.70557" height="7.70557" stroke="#333333" stroke-width="1.5" stroke-linejoin="round"/>
<path d="M17.9268 23.0059C18.7471 23.0059 19.4238 23.1084 19.957 23.3135C20.4948 23.514 20.8958 23.8216 21.1602 24.2363C21.4245 24.651 21.5566 25.1797 21.5566 25.8223C21.5566 26.3509 21.4609 26.793 21.2695 27.1484C21.0781 27.4993 20.8275 27.7842 20.5176 28.0029C20.2077 28.2217 19.8773 28.3903 19.5264 28.5088L22.2676 33H20.9141L18.4668 28.8301H16.3887V33H15.2266V23.0059H17.9268ZM17.8584 24.0107H16.3887V27.8457H17.9746C18.7904 27.8457 19.3896 27.6794 19.7725 27.3467C20.1598 27.014 20.3535 26.5241 20.3535 25.877C20.3535 25.1979 20.1484 24.7171 19.7383 24.4346C19.3327 24.152 18.7061 24.0107 17.8584 24.0107ZM31.4277 23.0059V29.4727C31.4277 30.179 31.2842 30.8079 30.9971 31.3594C30.7145 31.9108 30.2861 32.346 29.7119 32.665C29.1377 32.9795 28.4176 33.1367 27.5518 33.1367C26.3167 33.1367 25.3757 32.8018 24.7285 32.1318C24.0859 31.4619 23.7646 30.5664 23.7646 29.4453V23.0059H24.9336V29.4795C24.9336 30.3271 25.1569 30.9811 25.6035 31.4414C26.0547 31.9017 26.7269 32.1318 27.6201 32.1318C28.2308 32.1318 28.7298 32.0225 29.1172 31.8037C29.5091 31.5804 29.7985 31.2705 29.9854 30.874C30.1768 30.473 30.2725 30.0104 30.2725 29.4863V23.0059H31.4277ZM38.3525 23.8877C37.8011 23.8877 37.3044 23.9834 36.8623 24.1748C36.4248 24.3617 36.0511 24.6351 35.7412 24.9951C35.4359 25.3506 35.2012 25.7812 35.0371 26.2871C34.873 26.793 34.791 27.3626 34.791 27.9961C34.791 28.8346 34.9209 29.5638 35.1807 30.1836C35.445 30.7988 35.8369 31.2751 36.3564 31.6123C36.8805 31.9495 37.5345 32.1182 38.3184 32.1182C38.765 32.1182 39.1842 32.0817 39.5762 32.0088C39.9727 31.9313 40.3577 31.8356 40.7314 31.7217V32.7334C40.3669 32.8701 39.984 32.9704 39.583 33.0342C39.182 33.1025 38.7057 33.1367 38.1543 33.1367C37.138 33.1367 36.2881 32.9271 35.6045 32.5078C34.9255 32.084 34.415 31.487 34.0732 30.7168C33.736 29.9466 33.5674 29.0374 33.5674 27.9893C33.5674 27.2327 33.6722 26.5423 33.8818 25.918C34.096 25.2891 34.4059 24.7467 34.8115 24.291C35.2217 23.8353 35.723 23.4844 36.3154 23.2383C36.9124 22.9876 37.596 22.8623 38.3662 22.8623C38.8721 22.8623 39.3597 22.9124 39.8291 23.0127C40.2985 23.113 40.7223 23.2565 41.1006 23.4434L40.6357 24.4277C40.3167 24.2819 39.9658 24.1566 39.583 24.0518C39.2048 23.9424 38.7946 23.8877 38.3525 23.8877ZM50.1035 33H48.7295L45.127 28.1396L44.0605 29.0967V33H42.8984V23.0059H44.0605V27.9893C44.3203 27.693 44.5869 27.3991 44.8604 27.1074C45.1338 26.8112 45.4049 26.5127 45.6738 26.2119L48.5928 23.0059H49.9531L45.9746 27.3398L50.1035 33ZM59.0312 23.0059V29.4727C59.0312 30.179 58.8877 30.8079 58.6006 31.3594C58.318 31.9108 57.8896 32.346 57.3154 32.665C56.7412 32.9795 56.0212 33.1367 55.1553 33.1367C53.9202 33.1367 52.9792 32.8018 52.332 32.1318C51.6895 31.4619 51.3682 30.5664 51.3682 29.4453V23.0059H52.5371V29.4795C52.5371 30.3271 52.7604 30.9811 53.207 31.4414C53.6582 31.9017 54.3304 32.1318 55.2236 32.1318C55.8343 32.1318 56.3333 32.0225 56.7207 31.8037C57.1126 31.5804 57.402 31.2705 57.5889 30.874C57.7803 30.473 57.876 30.0104 57.876 29.4863V23.0059H59.0312ZM67.3232 30.3408C67.3232 30.9333 67.1751 31.4391 66.8789 31.8584C66.5872 32.2731 66.1771 32.5898 65.6484 32.8086C65.1198 33.0273 64.4977 33.1367 63.7822 33.1367C63.404 33.1367 63.0462 33.1185 62.709 33.082C62.3717 33.0456 62.0618 32.9932 61.7793 32.9248C61.4967 32.8564 61.2484 32.7721 61.0342 32.6719V31.5576C61.376 31.6989 61.793 31.8311 62.2852 31.9541C62.7773 32.0726 63.2923 32.1318 63.8301 32.1318C64.3314 32.1318 64.7552 32.0658 65.1016 31.9336C65.4479 31.7969 65.71 31.6032 65.8877 31.3525C66.07 31.0973 66.1611 30.792 66.1611 30.4365C66.1611 30.0947 66.0859 29.8099 65.9355 29.582C65.7852 29.3496 65.5345 29.14 65.1836 28.9531C64.8372 28.7617 64.3633 28.5589 63.7617 28.3447C63.3379 28.1943 62.9642 28.0303 62.6406 27.8525C62.3171 27.6702 62.0459 27.4652 61.8271 27.2373C61.6084 27.0094 61.4421 26.7451 61.3281 26.4443C61.2188 26.1436 61.1641 25.7995 61.1641 25.4121C61.1641 24.8789 61.2985 24.4232 61.5674 24.0449C61.8408 23.6621 62.2168 23.3704 62.6953 23.1699C63.1784 22.9648 63.7321 22.8623 64.3564 22.8623C64.8896 22.8623 65.3818 22.9124 65.833 23.0127C66.2887 23.113 66.7057 23.2474 67.084 23.416L66.7217 24.4141C66.3617 24.2637 65.9788 24.1383 65.5732 24.0381C65.1722 23.9378 64.7575 23.8877 64.3291 23.8877C63.9007 23.8877 63.5384 23.9515 63.2422 24.0791C62.9505 24.2021 62.7272 24.3776 62.5723 24.6055C62.4173 24.8333 62.3398 25.1045 62.3398 25.4189C62.3398 25.7699 62.4128 26.0615 62.5586 26.2939C62.709 26.5264 62.946 26.7337 63.2695 26.916C63.5977 27.0938 64.0306 27.2806 64.5684 27.4766C65.1562 27.6908 65.6553 27.9186 66.0654 28.1602C66.4756 28.3971 66.7878 28.6888 67.002 29.0352C67.2161 29.377 67.3232 29.8122 67.3232 30.3408ZM43.1172 51H37.5527V41.0059H43.1172V42.0312H38.7148V45.2646H42.8643V46.2764H38.7148V49.9746H43.1172V51ZM47.8271 51.1367C46.8792 51.1367 46.1273 50.8132 45.5713 50.166C45.0199 49.5189 44.7441 48.5573 44.7441 47.2812C44.7441 45.9915 45.0267 45.0186 45.5918 44.3623C46.1569 43.7015 46.9089 43.3711 47.8477 43.3711C48.2441 43.3711 48.5905 43.4235 48.8867 43.5283C49.1829 43.6331 49.4382 43.7744 49.6523 43.9521C49.8665 44.1253 50.0465 44.3236 50.1924 44.5469H50.2744C50.2562 44.4056 50.238 44.2119 50.2197 43.9658C50.2015 43.7197 50.1924 43.5192 50.1924 43.3643V40.3633H51.3271V51H50.4111L50.2402 49.9336H50.1924C50.0511 50.1569 49.8711 50.3597 49.6523 50.542C49.4382 50.7243 49.1807 50.8701 48.8799 50.9795C48.5837 51.0843 48.2327 51.1367 47.8271 51.1367ZM48.0049 50.1934C48.807 50.1934 49.3743 49.9655 49.707 49.5098C50.0397 49.054 50.2061 48.3773 50.2061 47.4795V47.2744C50.2061 46.3219 50.0465 45.5905 49.7275 45.0801C49.4131 44.5697 48.8389 44.3145 48.0049 44.3145C47.3076 44.3145 46.7858 44.5833 46.4395 45.1211C46.0931 45.6543 45.9199 46.3835 45.9199 47.3086C45.9199 48.2292 46.0908 48.9401 46.4326 49.4414C46.779 49.9427 47.3031 50.1934 48.0049 50.1934ZM55.8252 54.3633C54.8408 54.3633 54.082 54.1787 53.5488 53.8096C53.0156 53.445 52.749 52.9323 52.749 52.2715C52.749 51.8021 52.8971 51.401 53.1934 51.0684C53.4941 50.7357 53.9089 50.5146 54.4375 50.4053C54.2415 50.3141 54.0729 50.1774 53.9316 49.9951C53.7949 49.8128 53.7266 49.6032 53.7266 49.3662C53.7266 49.0928 53.8018 48.8535 53.9521 48.6484C54.1071 48.4388 54.3418 48.2383 54.6562 48.0469C54.2643 47.8874 53.9453 47.6185 53.6992 47.2402C53.4577 46.8574 53.3369 46.4131 53.3369 45.9072C53.3369 45.3695 53.4486 44.9115 53.6719 44.5332C53.8952 44.1504 54.2188 43.8587 54.6426 43.6582C55.0664 43.4577 55.5791 43.3574 56.1807 43.3574C56.3128 43.3574 56.445 43.3643 56.5771 43.3779C56.7139 43.387 56.8438 43.403 56.9668 43.4258C57.0898 43.444 57.1969 43.4668 57.2881 43.4941H59.8584V44.2256L58.4775 44.3965C58.6143 44.5742 58.7282 44.7884 58.8193 45.0391C58.9105 45.2897 58.9561 45.5677 58.9561 45.873C58.9561 46.6204 58.7031 47.2152 58.1973 47.6572C57.6914 48.0947 56.9964 48.3135 56.1123 48.3135C55.9027 48.3135 55.6885 48.2952 55.4697 48.2588C55.2464 48.3818 55.0755 48.5186 54.957 48.6689C54.8431 48.8193 54.7861 48.9925 54.7861 49.1885C54.7861 49.3343 54.8294 49.4505 54.916 49.5371C55.0072 49.6237 55.137 49.6875 55.3057 49.7285C55.4743 49.765 55.6771 49.7832 55.9141 49.7832H57.2334C58.0492 49.7832 58.6735 49.9541 59.1064 50.2959C59.5439 50.6377 59.7627 51.1367 59.7627 51.793C59.7627 52.6224 59.4255 53.2581 58.751 53.7002C58.0765 54.1423 57.1012 54.3633 55.8252 54.3633ZM55.8594 53.4746C56.4792 53.4746 56.9919 53.4108 57.3975 53.2832C57.8076 53.1602 58.113 52.9801 58.3135 52.7432C58.5186 52.5107 58.6211 52.2327 58.6211 51.9092C58.6211 51.6084 58.5527 51.3805 58.416 51.2256C58.2793 51.0752 58.0788 50.9749 57.8145 50.9248C57.5501 50.8701 57.2266 50.8428 56.8438 50.8428H55.5449C55.2077 50.8428 54.9137 50.8952 54.6631 51C54.4124 51.1048 54.2188 51.2598 54.082 51.4648C53.9499 51.6699 53.8838 51.9251 53.8838 52.2305C53.8838 52.6361 54.0547 52.9437 54.3965 53.1533C54.7383 53.3675 55.2259 53.4746 55.8594 53.4746ZM56.1533 47.4863C56.6956 47.4863 57.1035 47.3496 57.377 47.0762C57.6504 46.8027 57.7871 46.404 57.7871 45.8799C57.7871 45.3193 57.6481 44.9001 57.3701 44.6221C57.0921 44.3395 56.682 44.1982 56.1396 44.1982C55.6201 44.1982 55.2191 44.3441 54.9365 44.6357C54.6585 44.9229 54.5195 45.3444 54.5195 45.9004C54.5195 46.4108 54.6608 46.8027 54.9434 47.0762C55.2259 47.3496 55.6292 47.4863 56.1533 47.4863ZM64.2197 43.3711C64.8577 43.3711 65.4046 43.5124 65.8604 43.7949C66.3161 44.0775 66.6647 44.474 66.9062 44.9844C67.1478 45.4902 67.2686 46.0827 67.2686 46.7617V47.4658H62.0938C62.1074 48.3454 62.3262 49.0153 62.75 49.4756C63.1738 49.9359 63.7708 50.166 64.541 50.166C65.015 50.166 65.4342 50.1227 65.7988 50.0361C66.1634 49.9495 66.5417 49.8219 66.9336 49.6533V50.6514C66.5553 50.82 66.1794 50.943 65.8057 51.0205C65.4365 51.098 64.999 51.1367 64.4932 51.1367C63.7731 51.1367 63.1442 50.9909 62.6064 50.6992C62.0732 50.403 61.6585 49.9701 61.3623 49.4004C61.0661 48.8307 60.918 48.1335 60.918 47.3086C60.918 46.502 61.0524 45.8047 61.3213 45.2168C61.5947 44.6243 61.9775 44.1686 62.4697 43.8496C62.9665 43.5306 63.5498 43.3711 64.2197 43.3711ZM64.2061 44.3008C63.5999 44.3008 63.1169 44.499 62.7568 44.8955C62.3968 45.292 62.1826 45.8457 62.1143 46.5566H66.0791C66.0745 46.11 66.0039 45.7181 65.8672 45.3809C65.735 45.0391 65.5322 44.7747 65.2588 44.5879C64.9854 44.3965 64.6344 44.3008 64.2061 44.3008Z" fill="#7F7F7F"/>
<path d="M7.97559 115.907C7.97559 117.033 7.77051 117.974 7.36035 118.73C6.9502 119.482 6.35547 120.05 5.57617 120.433C4.80143 120.811 3.86035 121 2.75293 121H0.0390625V111.006H3.05371C4.06999 111.006 4.94499 111.193 5.67871 111.566C6.41243 111.936 6.97754 112.485 7.37402 113.214C7.77507 113.938 7.97559 114.836 7.97559 115.907ZM6.75195 115.948C6.75195 115.05 6.60156 114.31 6.30078 113.727C6.00456 113.143 5.56706 112.71 4.98828 112.428C4.41406 112.141 3.70996 111.997 2.87598 111.997H1.20117V120.002H2.61621C3.99251 120.002 5.02474 119.662 5.71289 118.983C6.4056 118.304 6.75195 117.293 6.75195 115.948ZM11.1611 113.508V121H10.0264V113.508H11.1611ZM10.6074 110.705C10.7943 110.705 10.9538 110.767 11.0859 110.89C11.2227 111.008 11.291 111.195 11.291 111.45C11.291 111.701 11.2227 111.888 11.0859 112.011C10.9538 112.134 10.7943 112.195 10.6074 112.195C10.4115 112.195 10.2474 112.134 10.1152 112.011C9.98763 111.888 9.92383 111.701 9.92383 111.45C9.92383 111.195 9.98763 111.008 10.1152 110.89C10.2474 110.767 10.4115 110.705 10.6074 110.705ZM18.4141 118.949C18.4141 119.428 18.2933 119.831 18.0518 120.159C17.8148 120.483 17.473 120.727 17.0264 120.891C16.5843 121.055 16.0557 121.137 15.4404 121.137C14.9163 121.137 14.4629 121.096 14.0801 121.014C13.6973 120.932 13.3623 120.815 13.0752 120.665V119.619C13.3805 119.77 13.7451 119.906 14.1689 120.029C14.5928 120.152 15.0257 120.214 15.4678 120.214C16.1149 120.214 16.5843 120.109 16.876 119.899C17.1676 119.69 17.3135 119.405 17.3135 119.045C17.3135 118.84 17.2542 118.66 17.1357 118.505C17.0218 118.345 16.8281 118.193 16.5547 118.047C16.2812 117.896 15.903 117.732 15.4199 117.555C14.9414 117.372 14.5267 117.192 14.1758 117.015C13.8294 116.832 13.5605 116.611 13.3691 116.352C13.1823 116.092 13.0889 115.755 13.0889 115.34C13.0889 114.706 13.3441 114.221 13.8545 113.884C14.3695 113.542 15.0439 113.371 15.8779 113.371C16.3291 113.371 16.7507 113.417 17.1426 113.508C17.5391 113.594 17.9082 113.713 18.25 113.863L17.8672 114.772C17.5573 114.64 17.2269 114.529 16.876 114.438C16.5251 114.346 16.1673 114.301 15.8027 114.301C15.2786 114.301 14.8753 114.387 14.5928 114.561C14.3148 114.734 14.1758 114.971 14.1758 115.271C14.1758 115.504 14.2396 115.695 14.3672 115.846C14.4993 115.996 14.709 116.137 14.9961 116.27C15.2832 116.402 15.6615 116.557 16.1309 116.734C16.6003 116.908 17.0059 117.088 17.3477 117.274C17.6895 117.457 17.9515 117.68 18.1338 117.944C18.3206 118.204 18.4141 118.539 18.4141 118.949ZM22.6592 120.207C22.846 120.207 23.0374 120.191 23.2334 120.159C23.4294 120.127 23.5889 120.089 23.7119 120.043V120.925C23.5798 120.984 23.3952 121.034 23.1582 121.075C22.9258 121.116 22.6979 121.137 22.4746 121.137C22.0781 121.137 21.7181 121.068 21.3945 120.932C21.071 120.79 20.8112 120.553 20.6152 120.221C20.4238 119.888 20.3281 119.428 20.3281 118.84V114.396H19.2617V113.843L20.335 113.398L20.7861 111.771H21.4697V113.508H23.6641V114.396H21.4697V118.806C21.4697 119.275 21.5768 119.626 21.791 119.858C22.0098 120.091 22.2992 120.207 22.6592 120.207ZM28.6338 113.371C28.7842 113.371 28.9414 113.38 29.1055 113.398C29.2695 113.412 29.4154 113.433 29.543 113.46L29.3994 114.513C29.2764 114.481 29.1396 114.456 28.9893 114.438C28.8389 114.419 28.6976 114.41 28.5654 114.41C28.2646 114.41 27.9798 114.472 27.7109 114.595C27.4466 114.713 27.2142 114.886 27.0137 115.114C26.8132 115.338 26.6559 115.609 26.542 115.928C26.4281 116.242 26.3711 116.593 26.3711 116.98V121H25.2295V113.508H26.1729L26.2959 114.889H26.3438C26.4987 114.611 26.6855 114.358 26.9043 114.13C27.123 113.897 27.376 113.713 27.6631 113.576C27.9548 113.439 28.2783 113.371 28.6338 113.371ZM32.0928 113.508V121H30.958V113.508H32.0928ZM31.5391 110.705C31.7259 110.705 31.8854 110.767 32.0176 110.89C32.1543 111.008 32.2227 111.195 32.2227 111.45C32.2227 111.701 32.1543 111.888 32.0176 112.011C31.8854 112.134 31.7259 112.195 31.5391 112.195C31.3431 112.195 31.179 112.134 31.0469 112.011C30.9193 111.888 30.8555 111.701 30.8555 111.45C30.8555 111.195 30.9193 111.008 31.0469 110.89C31.179 110.767 31.3431 110.705 31.5391 110.705ZM35.6338 110.363V113.022C35.6338 113.328 35.6247 113.624 35.6064 113.911C35.5928 114.198 35.5814 114.422 35.5723 114.581H35.6338C35.8389 114.244 36.1351 113.959 36.5225 113.727C36.9098 113.494 37.4043 113.378 38.0059 113.378C38.9447 113.378 39.6921 113.704 40.248 114.355C40.8086 115.003 41.0889 115.966 41.0889 117.247C41.0889 118.09 40.9613 118.801 40.7061 119.38C40.4508 119.959 40.0908 120.396 39.626 120.692C39.1611 120.989 38.612 121.137 37.9785 121.137C37.3861 121.137 36.8984 121.027 36.5156 120.809C36.1374 120.585 35.8457 120.314 35.6406 119.995H35.5518L35.3193 121H34.499V110.363H35.6338ZM37.8213 114.328C37.279 114.328 36.8483 114.435 36.5293 114.649C36.2103 114.859 35.9801 115.178 35.8389 115.606C35.7021 116.03 35.6338 116.568 35.6338 117.22V117.281C35.6338 118.225 35.791 118.947 36.1055 119.448C36.4199 119.945 36.9919 120.193 37.8213 120.193C38.5186 120.193 39.0404 119.938 39.3867 119.428C39.7376 118.917 39.9131 118.188 39.9131 117.24C39.9131 116.274 39.7399 115.547 39.3936 115.06C39.0518 114.572 38.5277 114.328 37.8213 114.328ZM49.2578 113.508V121H48.3281L48.1641 119.947H48.1025C47.9476 120.207 47.7471 120.426 47.501 120.604C47.2549 120.781 46.9769 120.913 46.667 121C46.3617 121.091 46.0358 121.137 45.6895 121.137C45.097 121.137 44.6003 121.041 44.1992 120.85C43.7982 120.658 43.4951 120.362 43.29 119.961C43.0895 119.56 42.9893 119.045 42.9893 118.416V113.508H44.1377V118.334C44.1377 118.958 44.279 119.425 44.5615 119.735C44.8441 120.041 45.2747 120.193 45.8535 120.193C46.4095 120.193 46.8516 120.089 47.1797 119.879C47.5124 119.669 47.7516 119.362 47.8975 118.956C48.0433 118.546 48.1162 118.045 48.1162 117.452V113.508H49.2578ZM54.0771 120.207C54.264 120.207 54.4554 120.191 54.6514 120.159C54.8473 120.127 55.0068 120.089 55.1299 120.043V120.925C54.9977 120.984 54.8132 121.034 54.5762 121.075C54.3438 121.116 54.1159 121.137 53.8926 121.137C53.4961 121.137 53.1361 121.068 52.8125 120.932C52.4889 120.79 52.2292 120.553 52.0332 120.221C51.8418 119.888 51.7461 119.428 51.7461 118.84V114.396H50.6797V113.843L51.7529 113.398L52.2041 111.771H52.8877V113.508H55.082V114.396H52.8877V118.806C52.8877 119.275 52.9948 119.626 53.209 119.858C53.4277 120.091 53.7171 120.207 54.0771 120.207ZM57.7822 113.508V121H56.6475V113.508H57.7822ZM57.2285 110.705C57.4154 110.705 57.5749 110.767 57.707 110.89C57.8438 111.008 57.9121 111.195 57.9121 111.45C57.9121 111.701 57.8438 111.888 57.707 112.011C57.5749 112.134 57.4154 112.195 57.2285 112.195C57.0326 112.195 56.8685 112.134 56.7363 112.011C56.6087 111.888 56.5449 111.701 56.5449 111.45C56.5449 111.195 56.6087 111.008 56.7363 110.89C56.8685 110.767 57.0326 110.705 57.2285 110.705ZM66.6484 117.24C66.6484 117.855 66.5687 118.405 66.4092 118.888C66.2497 119.371 66.0195 119.779 65.7188 120.111C65.418 120.444 65.0534 120.699 64.625 120.877C64.2012 121.05 63.7204 121.137 63.1826 121.137C62.6813 121.137 62.221 121.05 61.8018 120.877C61.387 120.699 61.027 120.444 60.7217 120.111C60.4209 119.779 60.1862 119.371 60.0176 118.888C59.8535 118.405 59.7715 117.855 59.7715 117.24C59.7715 116.42 59.9105 115.723 60.1885 115.148C60.4665 114.57 60.863 114.13 61.3779 113.829C61.8975 113.524 62.515 113.371 63.2305 113.371C63.9141 113.371 64.5111 113.524 65.0215 113.829C65.5365 114.134 65.9352 114.576 66.2178 115.155C66.5049 115.729 66.6484 116.424 66.6484 117.24ZM60.9473 117.24C60.9473 117.842 61.027 118.364 61.1865 118.806C61.346 119.248 61.5921 119.59 61.9248 119.831C62.2575 120.073 62.6859 120.193 63.21 120.193C63.7295 120.193 64.1556 120.073 64.4883 119.831C64.8255 119.59 65.0739 119.248 65.2334 118.806C65.3929 118.364 65.4727 117.842 65.4727 117.24C65.4727 116.643 65.3929 116.128 65.2334 115.695C65.0739 115.258 64.8278 114.921 64.4951 114.684C64.1624 114.447 63.7318 114.328 63.2031 114.328C62.4238 114.328 61.8519 114.586 61.4873 115.101C61.1273 115.616 60.9473 116.329 60.9473 117.24ZM72.1582 113.371C73.0469 113.371 73.7191 113.59 74.1748 114.027C74.6305 114.46 74.8584 115.158 74.8584 116.119V121H73.7373V116.194C73.7373 115.57 73.5938 115.103 73.3066 114.793C73.0241 114.483 72.5889 114.328 72.001 114.328C71.1715 114.328 70.5882 114.563 70.251 115.032C69.9137 115.502 69.7451 116.183 69.7451 117.076V121H68.6104V113.508H69.5264L69.6973 114.588H69.7588C69.9183 114.324 70.1211 114.103 70.3672 113.925C70.6133 113.743 70.889 113.606 71.1943 113.515C71.4997 113.419 71.821 113.371 72.1582 113.371ZM40.6377 136.341C40.6377 136.933 40.4896 137.439 40.1934 137.858C39.9017 138.273 39.4915 138.59 38.9629 138.809C38.4342 139.027 37.8122 139.137 37.0967 139.137C36.7184 139.137 36.3607 139.118 36.0234 139.082C35.6862 139.046 35.3763 138.993 35.0938 138.925C34.8112 138.856 34.5628 138.772 34.3486 138.672V137.558C34.6904 137.699 35.1074 137.831 35.5996 137.954C36.0918 138.073 36.6068 138.132 37.1445 138.132C37.6458 138.132 38.0697 138.066 38.416 137.934C38.7624 137.797 39.0244 137.603 39.2021 137.353C39.3844 137.097 39.4756 136.792 39.4756 136.437C39.4756 136.095 39.4004 135.81 39.25 135.582C39.0996 135.35 38.849 135.14 38.498 134.953C38.1517 134.762 37.6777 134.559 37.0762 134.345C36.6523 134.194 36.2786 134.03 35.9551 133.853C35.6315 133.67 35.3604 133.465 35.1416 133.237C34.9229 133.009 34.7565 132.745 34.6426 132.444C34.5332 132.144 34.4785 131.799 34.4785 131.412C34.4785 130.879 34.613 130.423 34.8818 130.045C35.1553 129.662 35.5312 129.37 36.0098 129.17C36.4928 128.965 37.0465 128.862 37.6709 128.862C38.2041 128.862 38.6963 128.912 39.1475 129.013C39.6032 129.113 40.0202 129.247 40.3984 129.416L40.0361 130.414C39.6761 130.264 39.2933 130.138 38.8877 130.038C38.4867 129.938 38.0719 129.888 37.6436 129.888C37.2152 129.888 36.8529 129.951 36.5566 130.079C36.265 130.202 36.0417 130.378 35.8867 130.605C35.7318 130.833 35.6543 131.104 35.6543 131.419C35.6543 131.77 35.7272 132.062 35.873 132.294C36.0234 132.526 36.2604 132.734 36.584 132.916C36.9121 133.094 37.3451 133.281 37.8828 133.477C38.4707 133.691 38.9697 133.919 39.3799 134.16C39.79 134.397 40.1022 134.689 40.3164 135.035C40.5306 135.377 40.6377 135.812 40.6377 136.341ZM48.6084 138.986L47.2754 134.625C47.2161 134.438 47.1592 134.256 47.1045 134.078C47.0544 133.896 47.0065 133.723 46.9609 133.559C46.9199 133.39 46.8812 133.235 46.8447 133.094C46.8128 132.948 46.7855 132.823 46.7627 132.718H46.7148C46.6966 132.823 46.6715 132.948 46.6396 133.094C46.6077 133.235 46.569 133.39 46.5234 133.559C46.4824 133.727 46.4368 133.905 46.3867 134.092C46.3366 134.274 46.2796 134.459 46.2158 134.646L44.8213 138.986H43.543L41.4785 131.494H42.6543L43.7344 135.63C43.8073 135.903 43.8757 136.174 43.9395 136.443C44.0078 136.708 44.0648 136.958 44.1104 137.195C44.1605 137.428 44.1969 137.631 44.2197 137.804H44.2744C44.3018 137.69 44.3314 137.553 44.3633 137.394C44.3997 137.234 44.4385 137.065 44.4795 136.888C44.5251 136.705 44.5729 136.525 44.623 136.348C44.6732 136.165 44.7233 135.994 44.7734 135.835L46.1543 131.494H47.3779L48.7109 135.828C48.7793 136.047 48.8454 136.275 48.9092 136.512C48.9775 136.749 49.0391 136.979 49.0938 137.202C49.1484 137.421 49.1872 137.617 49.21 137.79H49.2646C49.2829 137.635 49.3171 137.444 49.3672 137.216C49.4173 136.988 49.4743 136.737 49.5381 136.464C49.6064 136.19 49.6771 135.912 49.75 135.63L50.8438 131.494H51.999L49.9277 138.986H48.6084ZM54.501 131.508V139H53.3662V131.508H54.501ZM53.9473 128.705C54.1341 128.705 54.2936 128.767 54.4258 128.89C54.5625 129.008 54.6309 129.195 54.6309 129.45C54.6309 129.701 54.5625 129.888 54.4258 130.011C54.2936 130.134 54.1341 130.195 53.9473 130.195C53.7513 130.195 53.5872 130.134 53.4551 130.011C53.3275 129.888 53.2637 129.701 53.2637 129.45C53.2637 129.195 53.3275 129.008 53.4551 128.89C53.5872 128.767 53.7513 128.705 53.9473 128.705ZM59.3271 138.207C59.514 138.207 59.7054 138.191 59.9014 138.159C60.0973 138.127 60.2568 138.089 60.3799 138.043V138.925C60.2477 138.984 60.0632 139.034 59.8262 139.075C59.5938 139.116 59.3659 139.137 59.1426 139.137C58.7461 139.137 58.3861 139.068 58.0625 138.932C57.7389 138.79 57.4792 138.553 57.2832 138.221C57.0918 137.888 56.9961 137.428 56.9961 136.84V132.396H55.9297V131.843L57.0029 131.398L57.4541 129.771H58.1377V131.508H60.332V132.396H58.1377V136.806C58.1377 137.275 58.2448 137.626 58.459 137.858C58.6777 138.091 58.9671 138.207 59.3271 138.207ZM64.8984 139.137C64.224 139.137 63.6292 138.998 63.1143 138.72C62.5993 138.442 62.1982 138.018 61.9111 137.448C61.624 136.879 61.4805 136.161 61.4805 135.295C61.4805 134.388 61.6309 133.647 61.9316 133.073C62.237 132.494 62.6562 132.066 63.1895 131.788C63.7227 131.51 64.3288 131.371 65.0078 131.371C65.3815 131.371 65.7415 131.41 66.0879 131.487C66.4388 131.56 66.7259 131.654 66.9492 131.768L66.6074 132.718C66.3796 132.627 66.1152 132.545 65.8145 132.472C65.5182 132.399 65.2402 132.362 64.9805 132.362C64.4609 132.362 64.028 132.474 63.6816 132.697C63.3398 132.921 63.0824 133.249 62.9092 133.682C62.7406 134.115 62.6562 134.648 62.6562 135.281C62.6562 135.887 62.7383 136.405 62.9023 136.833C63.071 137.261 63.3193 137.59 63.6475 137.817C63.9801 138.041 64.3949 138.152 64.8916 138.152C65.2881 138.152 65.6458 138.111 65.9648 138.029C66.2839 137.943 66.5732 137.842 66.833 137.729V138.74C66.5824 138.868 66.3021 138.966 65.9922 139.034C65.6868 139.103 65.3223 139.137 64.8984 139.137ZM69.7451 128.363V131.542C69.7451 131.724 69.7406 131.909 69.7314 132.096C69.7223 132.278 69.7064 132.447 69.6836 132.602H69.7588C69.9137 132.337 70.1097 132.116 70.3467 131.938C70.5882 131.756 70.8617 131.619 71.167 131.528C71.4723 131.433 71.7959 131.385 72.1377 131.385C72.7393 131.385 73.2406 131.48 73.6416 131.672C74.0472 131.863 74.3503 132.16 74.5508 132.561C74.7559 132.962 74.8584 133.481 74.8584 134.119V139H73.7373V134.194C73.7373 133.57 73.5938 133.103 73.3066 132.793C73.0241 132.483 72.5889 132.328 72.001 132.328C71.445 132.328 71.0007 132.435 70.668 132.649C70.3398 132.859 70.1029 133.169 69.957 133.579C69.8158 133.989 69.7451 134.491 69.7451 135.083V139H68.6104V128.363H69.7451Z" fill="#7F7F7F"/>
<path d="M40.1455 214L38.915 210.828H34.9092L33.6855 214H32.5098L36.4199 203.965H37.4658L41.3486 214H40.1455ZM38.5664 209.796L37.3975 206.645C37.3701 206.562 37.3245 206.428 37.2607 206.241C37.2015 206.054 37.14 205.861 37.0762 205.66C37.0124 205.46 36.96 205.298 36.9189 205.175C36.8734 205.362 36.8232 205.549 36.7686 205.735C36.7184 205.918 36.6683 206.089 36.6182 206.248C36.568 206.403 36.5247 206.535 36.4883 206.645L35.2988 209.796H38.5664ZM45.5664 214.137C44.8919 214.137 44.2972 213.998 43.7822 213.72C43.2673 213.442 42.8662 213.018 42.5791 212.448C42.292 211.879 42.1484 211.161 42.1484 210.295C42.1484 209.388 42.2988 208.647 42.5996 208.073C42.9049 207.494 43.3242 207.066 43.8574 206.788C44.3906 206.51 44.9967 206.371 45.6758 206.371C46.0495 206.371 46.4095 206.41 46.7559 206.487C47.1068 206.56 47.3939 206.654 47.6172 206.768L47.2754 207.718C47.0475 207.627 46.7832 207.545 46.4824 207.472C46.1862 207.399 45.9082 207.362 45.6484 207.362C45.1289 207.362 44.696 207.474 44.3496 207.697C44.0078 207.921 43.7503 208.249 43.5771 208.682C43.4085 209.115 43.3242 209.648 43.3242 210.281C43.3242 210.887 43.4062 211.405 43.5703 211.833C43.7389 212.261 43.9873 212.59 44.3154 212.817C44.6481 213.041 45.0628 213.152 45.5596 213.152C45.9561 213.152 46.3138 213.111 46.6328 213.029C46.9518 212.943 47.2412 212.842 47.501 212.729V213.74C47.2503 213.868 46.9701 213.966 46.6602 214.034C46.3548 214.103 45.9902 214.137 45.5664 214.137ZM52.2793 214.137C51.6048 214.137 51.0101 213.998 50.4951 213.72C49.9801 213.442 49.5791 213.018 49.292 212.448C49.0049 211.879 48.8613 211.161 48.8613 210.295C48.8613 209.388 49.0117 208.647 49.3125 208.073C49.6178 207.494 50.0371 207.066 50.5703 206.788C51.1035 206.51 51.7096 206.371 52.3887 206.371C52.7624 206.371 53.1224 206.41 53.4688 206.487C53.8197 206.56 54.1068 206.654 54.3301 206.768L53.9883 207.718C53.7604 207.627 53.4961 207.545 53.1953 207.472C52.8991 207.399 52.6211 207.362 52.3613 207.362C51.8418 207.362 51.4089 207.474 51.0625 207.697C50.7207 207.921 50.4632 208.249 50.29 208.682C50.1214 209.115 50.0371 209.648 50.0371 210.281C50.0371 210.887 50.1191 211.405 50.2832 211.833C50.4518 212.261 50.7002 212.59 51.0283 212.817C51.361 213.041 51.7757 213.152 52.2725 213.152C52.6689 213.152 53.0267 213.111 53.3457 213.029C53.6647 212.943 53.9541 212.842 54.2139 212.729V213.74C53.9632 213.868 53.6829 213.966 53.373 214.034C53.0677 214.103 52.7031 214.137 52.2793 214.137ZM58.876 206.371C59.514 206.371 60.0609 206.512 60.5166 206.795C60.9723 207.077 61.321 207.474 61.5625 207.984C61.804 208.49 61.9248 209.083 61.9248 209.762V210.466H56.75C56.7637 211.345 56.9824 212.015 57.4062 212.476C57.8301 212.936 58.4271 213.166 59.1973 213.166C59.6712 213.166 60.0905 213.123 60.4551 213.036C60.8197 212.95 61.1979 212.822 61.5898 212.653V213.651C61.2116 213.82 60.8356 213.943 60.4619 214.021C60.0928 214.098 59.6553 214.137 59.1494 214.137C58.4294 214.137 57.8005 213.991 57.2627 213.699C56.7295 213.403 56.3148 212.97 56.0186 212.4C55.7223 211.831 55.5742 211.133 55.5742 210.309C55.5742 209.502 55.7087 208.805 55.9775 208.217C56.251 207.624 56.6338 207.169 57.126 206.85C57.6227 206.531 58.2061 206.371 58.876 206.371ZM58.8623 207.301C58.2562 207.301 57.7731 207.499 57.4131 207.896C57.0531 208.292 56.8389 208.846 56.7705 209.557H60.7354C60.7308 209.11 60.6602 208.718 60.5234 208.381C60.3913 208.039 60.1885 207.775 59.915 207.588C59.6416 207.396 59.2907 207.301 58.8623 207.301ZM68.6992 211.949C68.6992 212.428 68.5785 212.831 68.3369 213.159C68.0999 213.483 67.7581 213.727 67.3115 213.891C66.8695 214.055 66.3408 214.137 65.7256 214.137C65.2015 214.137 64.748 214.096 64.3652 214.014C63.9824 213.932 63.6475 213.815 63.3604 213.665V212.619C63.6657 212.77 64.0303 212.906 64.4541 213.029C64.8779 213.152 65.3109 213.214 65.7529 213.214C66.4001 213.214 66.8695 213.109 67.1611 212.899C67.4528 212.69 67.5986 212.405 67.5986 212.045C67.5986 211.84 67.5394 211.66 67.4209 211.505C67.307 211.345 67.1133 211.193 66.8398 211.047C66.5664 210.896 66.1882 210.732 65.7051 210.555C65.2266 210.372 64.8118 210.192 64.4609 210.015C64.1146 209.832 63.8457 209.611 63.6543 209.352C63.4674 209.092 63.374 208.755 63.374 208.34C63.374 207.706 63.6292 207.221 64.1396 206.884C64.6546 206.542 65.3291 206.371 66.1631 206.371C66.6143 206.371 67.0358 206.417 67.4277 206.508C67.8242 206.594 68.1934 206.713 68.5352 206.863L68.1523 207.772C67.8424 207.64 67.512 207.529 67.1611 207.438C66.8102 207.346 66.4525 207.301 66.0879 207.301C65.5638 207.301 65.1605 207.387 64.8779 207.561C64.5999 207.734 64.4609 207.971 64.4609 208.271C64.4609 208.504 64.5247 208.695 64.6523 208.846C64.7845 208.996 64.9941 209.137 65.2812 209.27C65.5684 209.402 65.9466 209.557 66.416 209.734C66.8854 209.908 67.291 210.088 67.6328 210.274C67.9746 210.457 68.2367 210.68 68.4189 210.944C68.6058 211.204 68.6992 211.539 68.6992 211.949ZM75.3711 211.949C75.3711 212.428 75.2503 212.831 75.0088 213.159C74.7718 213.483 74.43 213.727 73.9834 213.891C73.5413 214.055 73.0127 214.137 72.3975 214.137C71.8734 214.137 71.4199 214.096 71.0371 214.014C70.6543 213.932 70.3193 213.815 70.0322 213.665V212.619C70.3376 212.77 70.7021 212.906 71.126 213.029C71.5498 213.152 71.9827 213.214 72.4248 213.214C73.0719 213.214 73.5413 213.109 73.833 212.899C74.1247 212.69 74.2705 212.405 74.2705 212.045C74.2705 211.84 74.2113 211.66 74.0928 211.505C73.9788 211.345 73.7852 211.193 73.5117 211.047C73.2383 210.896 72.86 210.732 72.377 210.555C71.8984 210.372 71.4837 210.192 71.1328 210.015C70.7865 209.832 70.5176 209.611 70.3262 209.352C70.1393 209.092 70.0459 208.755 70.0459 208.34C70.0459 207.706 70.3011 207.221 70.8115 206.884C71.3265 206.542 72.001 206.371 72.835 206.371C73.2861 206.371 73.7077 206.417 74.0996 206.508C74.4961 206.594 74.8652 206.713 75.207 206.863L74.8242 207.772C74.5143 207.64 74.1839 207.529 73.833 207.438C73.4821 207.346 73.1243 207.301 72.7598 207.301C72.2357 207.301 71.8324 207.387 71.5498 207.561C71.2718 207.734 71.1328 207.971 71.1328 208.271C71.1328 208.504 71.1966 208.695 71.3242 208.846C71.4564 208.996 71.666 209.137 71.9531 209.27C72.2402 209.402 72.6185 209.557 73.0879 209.734C73.5573 209.908 73.9629 210.088 74.3047 210.274C74.6465 210.457 74.9085 210.68 75.0908 210.944C75.2777 211.204 75.3711 211.539 75.3711 211.949ZM40.6377 229.341C40.6377 229.933 40.4896 230.439 40.1934 230.858C39.9017 231.273 39.4915 231.59 38.9629 231.809C38.4342 232.027 37.8122 232.137 37.0967 232.137C36.7184 232.137 36.3607 232.118 36.0234 232.082C35.6862 232.046 35.3763 231.993 35.0938 231.925C34.8112 231.856 34.5628 231.772 34.3486 231.672V230.558C34.6904 230.699 35.1074 230.831 35.5996 230.954C36.0918 231.073 36.6068 231.132 37.1445 231.132C37.6458 231.132 38.0697 231.066 38.416 230.934C38.7624 230.797 39.0244 230.603 39.2021 230.353C39.3844 230.097 39.4756 229.792 39.4756 229.437C39.4756 229.095 39.4004 228.81 39.25 228.582C39.0996 228.35 38.849 228.14 38.498 227.953C38.1517 227.762 37.6777 227.559 37.0762 227.345C36.6523 227.194 36.2786 227.03 35.9551 226.853C35.6315 226.67 35.3604 226.465 35.1416 226.237C34.9229 226.009 34.7565 225.745 34.6426 225.444C34.5332 225.144 34.4785 224.799 34.4785 224.412C34.4785 223.879 34.613 223.423 34.8818 223.045C35.1553 222.662 35.5312 222.37 36.0098 222.17C36.4928 221.965 37.0465 221.862 37.6709 221.862C38.2041 221.862 38.6963 221.912 39.1475 222.013C39.6032 222.113 40.0202 222.247 40.3984 222.416L40.0361 223.414C39.6761 223.264 39.2933 223.138 38.8877 223.038C38.4867 222.938 38.0719 222.888 37.6436 222.888C37.2152 222.888 36.8529 222.951 36.5566 223.079C36.265 223.202 36.0417 223.378 35.8867 223.605C35.7318 223.833 35.6543 224.104 35.6543 224.419C35.6543 224.77 35.7272 225.062 35.873 225.294C36.0234 225.526 36.2604 225.734 36.584 225.916C36.9121 226.094 37.3451 226.281 37.8828 226.477C38.4707 226.691 38.9697 226.919 39.3799 227.16C39.79 227.397 40.1022 227.689 40.3164 228.035C40.5306 228.377 40.6377 228.812 40.6377 229.341ZM48.6084 231.986L47.2754 227.625C47.2161 227.438 47.1592 227.256 47.1045 227.078C47.0544 226.896 47.0065 226.723 46.9609 226.559C46.9199 226.39 46.8812 226.235 46.8447 226.094C46.8128 225.948 46.7855 225.823 46.7627 225.718H46.7148C46.6966 225.823 46.6715 225.948 46.6396 226.094C46.6077 226.235 46.569 226.39 46.5234 226.559C46.4824 226.727 46.4368 226.905 46.3867 227.092C46.3366 227.274 46.2796 227.459 46.2158 227.646L44.8213 231.986H43.543L41.4785 224.494H42.6543L43.7344 228.63C43.8073 228.903 43.8757 229.174 43.9395 229.443C44.0078 229.708 44.0648 229.958 44.1104 230.195C44.1605 230.428 44.1969 230.631 44.2197 230.804H44.2744C44.3018 230.69 44.3314 230.553 44.3633 230.394C44.3997 230.234 44.4385 230.065 44.4795 229.888C44.5251 229.705 44.5729 229.525 44.623 229.348C44.6732 229.165 44.7233 228.994 44.7734 228.835L46.1543 224.494H47.3779L48.7109 228.828C48.7793 229.047 48.8454 229.275 48.9092 229.512C48.9775 229.749 49.0391 229.979 49.0938 230.202C49.1484 230.421 49.1872 230.617 49.21 230.79H49.2646C49.2829 230.635 49.3171 230.444 49.3672 230.216C49.4173 229.988 49.4743 229.737 49.5381 229.464C49.6064 229.19 49.6771 228.912 49.75 228.63L50.8438 224.494H51.999L49.9277 231.986H48.6084ZM54.501 224.508V232H53.3662V224.508H54.501ZM53.9473 221.705C54.1341 221.705 54.2936 221.767 54.4258 221.89C54.5625 222.008 54.6309 222.195 54.6309 222.45C54.6309 222.701 54.5625 222.888 54.4258 223.011C54.2936 223.134 54.1341 223.195 53.9473 223.195C53.7513 223.195 53.5872 223.134 53.4551 223.011C53.3275 222.888 53.2637 222.701 53.2637 222.45C53.2637 222.195 53.3275 222.008 53.4551 221.89C53.5872 221.767 53.7513 221.705 53.9473 221.705ZM59.3271 231.207C59.514 231.207 59.7054 231.191 59.9014 231.159C60.0973 231.127 60.2568 231.089 60.3799 231.043V231.925C60.2477 231.984 60.0632 232.034 59.8262 232.075C59.5938 232.116 59.3659 232.137 59.1426 232.137C58.7461 232.137 58.3861 232.068 58.0625 231.932C57.7389 231.79 57.4792 231.553 57.2832 231.221C57.0918 230.888 56.9961 230.428 56.9961 229.84V225.396H55.9297V224.843L57.0029 224.398L57.4541 222.771H58.1377V224.508H60.332V225.396H58.1377V229.806C58.1377 230.275 58.2448 230.626 58.459 230.858C58.6777 231.091 58.9671 231.207 59.3271 231.207ZM64.8984 232.137C64.224 232.137 63.6292 231.998 63.1143 231.72C62.5993 231.442 62.1982 231.018 61.9111 230.448C61.624 229.879 61.4805 229.161 61.4805 228.295C61.4805 227.388 61.6309 226.647 61.9316 226.073C62.237 225.494 62.6562 225.066 63.1895 224.788C63.7227 224.51 64.3288 224.371 65.0078 224.371C65.3815 224.371 65.7415 224.41 66.0879 224.487C66.4388 224.56 66.7259 224.654 66.9492 224.768L66.6074 225.718C66.3796 225.627 66.1152 225.545 65.8145 225.472C65.5182 225.399 65.2402 225.362 64.9805 225.362C64.4609 225.362 64.028 225.474 63.6816 225.697C63.3398 225.921 63.0824 226.249 62.9092 226.682C62.7406 227.115 62.6562 227.648 62.6562 228.281C62.6562 228.887 62.7383 229.405 62.9023 229.833C63.071 230.261 63.3193 230.59 63.6475 230.817C63.9801 231.041 64.3949 231.152 64.8916 231.152C65.2881 231.152 65.6458 231.111 65.9648 231.029C66.2839 230.943 66.5732 230.842 66.833 230.729V231.74C66.5824 231.868 66.3021 231.966 65.9922 232.034C65.6868 232.103 65.3223 232.137 64.8984 232.137ZM69.7451 221.363V224.542C69.7451 224.724 69.7406 224.909 69.7314 225.096C69.7223 225.278 69.7064 225.447 69.6836 225.602H69.7588C69.9137 225.337 70.1097 225.116 70.3467 224.938C70.5882 224.756 70.8617 224.619 71.167 224.528C71.4723 224.433 71.7959 224.385 72.1377 224.385C72.7393 224.385 73.2406 224.48 73.6416 224.672C74.0472 224.863 74.3503 225.16 74.5508 225.561C74.7559 225.962 74.8584 226.481 74.8584 227.119V232H73.7373V227.194C73.7373 226.57 73.5938 226.103 73.3066 225.793C73.0241 225.483 72.5889 225.328 72.001 225.328C71.445 225.328 71.0007 225.435 70.668 225.649C70.3398 225.859 70.1029 226.169 69.957 226.579C69.8158 226.989 69.7451 227.491 69.7451 228.083V232H68.6104V221.363H69.7451Z" fill="#7F7F7F"/>
<path d="M144.967 127.097V124.624L141.274 125.087V127.64L142.006 127.55V128.093L142.528 128.038V128.415L143.608 128.282V127.829L144.131 127.773V127.202L144.967 127.097Z" stroke="#ACAEB0" stroke-width="0.4" stroke-linecap="round" stroke-linejoin="round"/>
<path d="M140.578 127.654V125.181L136.886 125.644V128.197L137.617 128.107V128.65L138.14 128.594V128.972L139.219 128.838V128.385L139.742 128.33V127.758L140.578 127.654Z" stroke="#ACAEB0" stroke-width="0.4" stroke-linecap="round" stroke-linejoin="round"/>
<path d="M149.355 126.609V124.136L145.663 124.599V127.152L146.395 127.062V127.605L146.917 127.549V127.927L147.997 127.793V127.34L148.519 127.285V126.713L149.355 126.609Z" stroke="#ACAEB0" stroke-width="0.4" stroke-linecap="round" stroke-linejoin="round"/>
<path d="M136.189 128.211V125.738L132.496 126.201V128.754L133.228 128.664V129.207L133.75 129.151V129.529L134.83 129.395V128.942L135.353 128.887V128.315L136.189 128.211Z" stroke="#ACAEB0" stroke-width="0.4" stroke-linecap="round" stroke-linejoin="round"/>
<path d="M132.496 123.258V125.738L136.189 125.295V122.718L135.457 122.812V122.268L134.935 122.324V121.976L133.855 122.11V122.533L133.332 122.589V123.16L132.496 123.258Z" stroke="#ACAEB0" stroke-width="0.4" stroke-linecap="round" stroke-linejoin="round"/>
<path d="M136.885 122.71V125.19L140.578 124.748V122.17L139.846 122.264V121.721L139.324 121.777V121.428L138.244 121.563V121.986L137.722 122.041V122.613L136.885 122.71Z" stroke="#ACAEB0" stroke-width="0.4" stroke-linecap="round" stroke-linejoin="round"/>
<path d="M145.594 121.526V124.006L149.286 123.564V120.986L148.554 121.08V120.537L148.032 120.593V120.244L146.952 120.379V120.802L146.43 120.857V121.429L145.594 121.526Z" stroke="#ACAEB0" stroke-width="0.4" stroke-linecap="round" stroke-linejoin="round"/>
<path d="M131.8 130.371V121.767L149.948 119.409V127.933L131.8 130.371Z" stroke="#ACAEB0" stroke-width="0.4" stroke-linecap="round" stroke-linejoin="round"/>
<path d="M141.275 122.153V124.633L144.967 124.191V121.613L144.235 121.707V121.164L143.713 121.22V120.871L142.633 121.006V121.429L142.111 121.484V122.056L141.275 122.153Z" stroke="#ACAEB0" stroke-width="0.4" stroke-linecap="round" stroke-linejoin="round"/>
<path d="M163.951 124.658V122.185L160.259 122.648V125.201L160.99 125.111V125.654L161.513 125.599V125.976L162.592 125.843V125.39L163.115 125.334V124.763L163.951 124.658Z" stroke="#ACAEB0" stroke-width="0.4" stroke-linecap="round" stroke-linejoin="round"/>
<path d="M159.562 125.215V122.742L155.869 123.205V125.758L156.601 125.668V126.211L157.123 126.155V126.533L158.203 126.399V125.946L158.726 125.891V125.319L159.562 125.215Z" stroke="#ACAEB0" stroke-width="0.4" stroke-linecap="round" stroke-linejoin="round"/>
<path d="M168.34 124.17V121.697L164.648 122.16V124.713L165.379 124.623V125.166L165.902 125.11V125.488L166.982 125.354V124.901L167.504 124.846V124.274L168.34 124.17Z" stroke="#ACAEB0" stroke-width="0.4" stroke-linecap="round" stroke-linejoin="round"/>
<path d="M165.902 125.111L165.382 124.867" stroke="#ACAEB0" stroke-width="0.4" stroke-linecap="round" stroke-linejoin="round"/>
<path d="M155.173 125.772V123.299L151.48 123.762V126.315L152.212 126.225V126.768L152.734 126.713V127.09L153.814 126.956V126.504L154.337 126.448V125.877L155.173 125.772Z" stroke="#ACAEB0" stroke-width="0.4" stroke-linecap="round" stroke-linejoin="round"/>
<path d="M151.48 120.819V123.299L155.173 122.856V120.279L154.441 120.373V119.829L153.919 119.885V119.537L152.839 119.671V120.094L152.316 120.15V120.721L151.48 120.819Z" stroke="#ACAEB0" stroke-width="0.4" stroke-linecap="round" stroke-linejoin="round"/>
<path d="M155.869 120.272V122.752L159.562 122.309V119.732L158.83 119.826V119.283L158.308 119.338V118.99L157.228 119.124V119.547L156.705 119.603V120.174L155.869 120.272Z" stroke="#ACAEB0" stroke-width="0.4" stroke-linecap="round" stroke-linejoin="round"/>
<path d="M164.578 119.087V121.567L168.27 121.125V118.547L167.539 118.641V118.098L167.016 118.154V117.805L165.936 117.94V118.363L165.414 118.418V118.99L164.578 119.087Z" stroke="#ACAEB0" stroke-width="0.4" stroke-linecap="round" stroke-linejoin="round"/>
<path d="M150.784 127.932V119.328L168.932 116.97V125.494L150.784 127.932Z" stroke="#ACAEB0" stroke-width="0.4" stroke-linecap="round" stroke-linejoin="round"/>
<path d="M160.259 119.714V122.194L163.951 121.752V119.174L163.22 119.268V118.725L162.697 118.781V118.432L161.618 118.567V118.99L161.095 119.045V119.617L160.259 119.714Z" stroke="#ACAEB0" stroke-width="0.4" stroke-linecap="round" stroke-linejoin="round"/>
<path d="M130.163 132.112C129.884 132.147 129.612 132.133 129.501 132.077L115.465 124.602C114.563 124.122 114 123.183 114 122.162V112.503C114 112.304 114.15 112.137 114.348 112.118V112.118" stroke="#333333" stroke-linecap="round" stroke-linejoin="round"/>
<path d="M179.87 113.932V113.932C180.204 113.893 180.497 114.154 180.497 114.491V123.893C180.497 124.789 179.833 125.547 178.944 125.664L131.415 131.952C130.217 132.111 129.153 131.178 129.153 129.969V121.045C129.153 120.767 129.257 120.523 129.431 120.453" stroke="#333333" stroke-linecap="round" stroke-linejoin="round"/>
<path d="M126.784 125.041V129.43L126.505 129.281V122.948C126.679 123.564 126.784 124.26 126.784 125.041Z" fill="#C4C4C4"/>
<path d="M119.26 118.837V125.404L118.981 125.255V118.663L119.26 118.837Z" fill="#C4C4C4"/>
<path d="M119.608 116.901V125.591L119.887 125.74V117.048C119.795 116.999 119.702 116.95 119.608 116.901Z" fill="#C4C4C4"/>
<path d="M120.235 117.231V125.926L120.514 126.075V117.378C120.422 117.33 120.329 117.281 120.235 117.231Z" fill="#C4C4C4"/>
<path d="M120.862 117.562V126.262L121.141 126.411V117.709C121.049 117.661 120.957 117.612 120.862 117.562Z" fill="#C4C4C4"/>
<path d="M121.489 126.597L121.768 126.746V118.04C121.677 117.992 121.584 117.943 121.489 117.893V126.597Z" fill="#C4C4C4"/>
<path d="M122.116 126.933L122.395 127.082V118.373C122.306 118.326 122.213 118.276 122.116 118.225V126.933Z" fill="#C4C4C4"/>
<path d="M122.743 127.268L123.022 127.417V118.709C122.937 118.664 122.844 118.613 122.743 118.559V127.268Z" fill="#C4C4C4"/>
<path d="M123.37 118.9C123.43 118.934 123.477 118.96 123.51 118.98C123.55 119.004 123.597 119.033 123.649 119.067V127.753L123.37 127.604V118.9Z" fill="#C4C4C4"/>
<path d="M124.276 119.527C124.178 119.446 124.085 119.373 123.997 119.308V127.939L124.276 128.088V119.527Z" fill="#C4C4C4"/>
<path d="M124.903 120.116C124.809 120.016 124.716 119.923 124.624 119.836V128.275L124.903 128.424V120.116Z" fill="#C4C4C4"/>
<path d="M125.53 120.886C125.439 120.755 125.345 120.632 125.251 120.515V128.61L125.53 128.759V120.886Z" fill="#C4C4C4"/>
<path d="M126.157 121.988C126.07 121.795 125.976 121.612 125.878 121.438V128.945L126.157 129.095V121.988Z" fill="#C4C4C4"/>
<path d="M115.498 116.497V123.392L115.219 123.243V116.323L115.498 116.497Z" fill="#C4C4C4"/>
<path d="M116.125 116.887V123.727L115.846 123.578V116.713L116.125 116.887Z" fill="#C4C4C4"/>
<path d="M116.752 117.277V124.063L116.473 123.914V117.103L116.752 117.277Z" fill="#C4C4C4"/>
<path d="M117.379 117.667V124.398L117.1 124.249V117.493L117.379 117.667Z" fill="#C4C4C4"/>
<path d="M118.006 118.057V124.734L117.727 124.584V117.883L118.006 118.057Z" fill="#C4C4C4"/>
<path d="M118.633 118.447V125.069L118.354 124.92V118.273L118.633 118.447Z" fill="#C4C4C4"/>
<path d="M128.107 121.164V121.069C128.107 120.928 128.033 120.798 127.911 120.726C127.752 120.632 127.55 120.747 127.55 120.932V121.03C127.55 121.164 127.616 121.289 127.726 121.365C127.887 121.476 128.107 121.36 128.107 121.164Z" stroke="#333333" stroke-width="0.5"/>
<path d="M128.107 129.834V129.763C128.107 129.601 128.02 129.452 127.878 129.373C127.7 129.274 127.48 129.403 127.48 129.607V129.682C127.48 129.835 127.558 129.978 127.687 130.062C127.868 130.18 128.107 130.05 128.107 129.834Z" stroke="#333333" stroke-width="0.5"/>
<path d="M114.871 114.572V114.466C114.871 114.363 114.818 114.267 114.732 114.212C114.611 114.135 114.453 114.221 114.453 114.365V114.473C114.453 114.57 114.499 114.662 114.576 114.72C114.698 114.81 114.871 114.724 114.871 114.572Z" stroke="#333333" stroke-width="0.5"/>
<path d="M114.871 121.697V121.627C114.871 121.521 114.815 121.423 114.724 121.369C114.604 121.298 114.453 121.384 114.453 121.523V121.597C114.453 121.697 114.502 121.791 114.585 121.848C114.706 121.931 114.871 121.845 114.871 121.697Z" stroke="#333333" stroke-width="0.5"/>
<path d="M174.157 117.833V120.313L177.849 119.871V117.293L177.118 117.387V116.844L176.595 116.9V116.551L175.515 116.686V117.109L174.993 117.165V117.736L174.157 117.833Z" stroke="#ACAEB0" stroke-width="0.4" stroke-linecap="round" stroke-linejoin="round"/>
<path d="M177.85 122.857V120.384L174.158 120.847V123.4L174.889 123.31V123.853L175.412 123.797V124.175L176.491 124.041V123.588L177.014 123.533V122.961L177.85 122.857Z" stroke="#ACAEB0" stroke-width="0.4" stroke-linecap="round" stroke-linejoin="round"/>
<path d="M178.477 124.282V115.82L173.583 116.43V124.912L178.477 124.282Z" stroke="#ACAEB0" stroke-width="0.4"/>
<path d="M144.967 138.844V136.371L141.274 136.834V139.387L142.006 139.297V139.84L142.528 139.784V140.162L143.608 140.028V139.575L144.131 139.52V138.948L144.967 138.844Z" stroke="#ACAEB0" stroke-width="0.4" stroke-linecap="round" stroke-linejoin="round"/>
<path d="M140.578 139.402V136.929L136.886 137.392V139.945L137.617 139.855V140.398L138.14 140.342V140.72L139.219 140.586V140.133L139.742 140.078V139.506L140.578 139.402Z" stroke="#ACAEB0" stroke-width="0.4" stroke-linecap="round" stroke-linejoin="round"/>
<path d="M149.355 138.357V135.884L145.663 136.347V138.9L146.395 138.81V139.353L146.917 139.297V139.675L147.997 139.541V139.088L148.519 139.033V138.461L149.355 138.357Z" stroke="#ACAEB0" stroke-width="0.4" stroke-linecap="round" stroke-linejoin="round"/>
<path d="M136.189 139.959V137.486L132.496 137.949V140.502L133.228 140.412V140.955L133.75 140.9V141.277L134.83 141.143V140.691L135.353 140.635V140.064L136.189 139.959Z" stroke="#ACAEB0" stroke-width="0.4" stroke-linecap="round" stroke-linejoin="round"/>
<path d="M132.496 135.006V137.486L136.189 137.043V134.466L135.457 134.56V134.016L134.935 134.072V133.724L133.855 133.858V134.281L133.332 134.337V134.908L132.496 135.006Z" stroke="#ACAEB0" stroke-width="0.4" stroke-linecap="round" stroke-linejoin="round"/>
<path d="M136.885 134.459V136.939L140.578 136.496V133.919L139.846 134.013V133.47L139.324 133.525V133.177L138.244 133.311V133.734L137.722 133.79V134.361L136.885 134.459Z" stroke="#ACAEB0" stroke-width="0.4" stroke-linecap="round" stroke-linejoin="round"/>
<path d="M145.594 133.274V135.754L149.286 135.312V132.734L148.555 132.828V132.285L148.032 132.341V131.992L146.952 132.127V132.55L146.43 132.605V133.177L145.594 133.274Z" stroke="#ACAEB0" stroke-width="0.4" stroke-linecap="round" stroke-linejoin="round"/>
<path d="M131.8 142.119V133.515L149.948 131.157V139.681L131.8 142.119Z" stroke="#ACAEB0" stroke-width="0.4" stroke-linecap="round" stroke-linejoin="round"/>
<path d="M141.275 133.901V136.381L144.967 135.939V133.361L144.235 133.455V132.912L143.713 132.968V132.619L142.633 132.754V133.177L142.111 133.232V133.804L141.275 133.901Z" stroke="#ACAEB0" stroke-width="0.4" stroke-linecap="round" stroke-linejoin="round"/>
<path d="M163.951 136.406V133.933L160.259 134.396V136.949L160.991 136.859V137.402L161.513 137.346V137.724L162.593 137.59V137.137L163.115 137.082V136.51L163.951 136.406Z" stroke="#ACAEB0" stroke-width="0.4" stroke-linecap="round" stroke-linejoin="round"/>
<path d="M159.562 136.963V134.49L155.87 134.953V137.506L156.602 137.416V137.959L157.124 137.903V138.281L158.204 138.147V137.694L158.726 137.639V137.067L159.562 136.963Z" stroke="#ACAEB0" stroke-width="0.4" stroke-linecap="round" stroke-linejoin="round"/>
<path d="M168.341 135.918V133.445L164.648 133.908V136.461L165.38 136.371V136.914L165.902 136.859V137.236L166.982 137.102V136.65L167.505 136.594V136.023L168.341 135.918Z" stroke="#ACAEB0" stroke-width="0.4" stroke-linecap="round" stroke-linejoin="round"/>
<path d="M155.174 137.52V135.047L151.481 135.51V138.063L152.213 137.973V138.516L152.735 138.461V138.838L153.815 138.704V138.252L154.338 138.196V137.625L155.174 137.52Z" stroke="#ACAEB0" stroke-width="0.4" stroke-linecap="round" stroke-linejoin="round"/>
<path d="M151.481 132.567V135.047L155.173 134.604V132.027L154.442 132.121V131.577L153.919 131.633V131.285L152.839 131.419V131.842L152.317 131.898V132.469L151.481 132.567Z" stroke="#ACAEB0" stroke-width="0.4" stroke-linecap="round" stroke-linejoin="round"/>
<path d="M155.87 132.02V134.5L159.562 134.058V131.48L158.831 131.574V131.031L158.308 131.087V130.738L157.229 130.873V131.296L156.706 131.352V131.923L155.87 132.02Z" stroke="#ACAEB0" stroke-width="0.4" stroke-linecap="round" stroke-linejoin="round"/>
<path d="M164.579 130.836V133.316L168.271 132.873V130.296L167.539 130.39V129.846L167.017 129.902V129.554L165.937 129.688V130.111L165.415 130.167V130.738L164.579 130.836Z" stroke="#ACAEB0" stroke-width="0.4" stroke-linecap="round" stroke-linejoin="round"/>
<path d="M150.785 139.68V131.076L168.933 128.718V137.242L150.785 139.68Z" stroke="#ACAEB0" stroke-width="0.4" stroke-linecap="round" stroke-linejoin="round"/>
<path d="M160.259 131.462V133.942L163.951 133.5V130.922L163.22 131.016V130.473L162.697 130.529V130.18L161.618 130.315V130.738L161.095 130.793V131.365L160.259 131.462Z" stroke="#ACAEB0" stroke-width="0.4" stroke-linecap="round" stroke-linejoin="round"/>
<path d="M130.163 143.861C129.884 143.896 129.612 143.882 129.501 143.826L115.465 136.351C114.563 135.87 114 134.932 114 133.91V124.251C114 124.052 114.15 123.886 114.348 123.866V123.866" stroke="#333333" stroke-linecap="round" stroke-linejoin="round"/>
<path d="M179.87 125.681V125.681C180.204 125.642 180.497 125.903 180.497 126.239V135.641C180.497 136.538 179.833 137.295 178.944 137.413L131.415 143.701C130.217 143.859 129.153 142.927 129.153 141.718V132.794C129.153 132.515 129.257 132.271 129.431 132.202" stroke="#333333" stroke-linecap="round" stroke-linejoin="round"/>
<path d="M126.784 136.79V141.179L126.505 141.03V134.697C126.679 135.314 126.784 136.009 126.784 136.79Z" fill="#C4C4C4"/>
<path d="M119.26 130.586V137.154L118.981 137.004V130.412L119.26 130.586Z" fill="#C4C4C4"/>
<path d="M119.608 128.65V137.34L119.887 137.489V128.797C119.795 128.748 119.702 128.699 119.608 128.65Z" fill="#C4C4C4"/>
<path d="M120.235 128.98V137.675L120.514 137.824V129.127C120.422 129.079 120.329 129.03 120.235 128.98Z" fill="#C4C4C4"/>
<path d="M120.862 129.311V138.011L121.141 138.16V129.458C121.049 129.41 120.957 129.361 120.862 129.311Z" fill="#C4C4C4"/>
<path d="M121.489 138.346L121.768 138.495V129.789C121.677 129.741 121.584 129.692 121.489 129.642V138.346Z" fill="#C4C4C4"/>
<path d="M122.116 138.682L122.395 138.831V130.122C122.306 130.075 122.213 130.025 122.116 129.974V138.682Z" fill="#C4C4C4"/>
<path d="M122.743 139.017L123.022 139.166V130.458C122.937 130.413 122.844 130.362 122.743 130.308V139.017Z" fill="#C4C4C4"/>
<path d="M123.37 130.649C123.43 130.683 123.477 130.709 123.51 130.729C123.55 130.753 123.597 130.782 123.649 130.816V139.502L123.37 139.353V130.649Z" fill="#C4C4C4"/>
<path d="M124.276 131.276C124.178 131.195 124.085 131.122 123.997 131.057V139.688L124.276 139.837V131.276Z" fill="#C4C4C4"/>
<path d="M124.903 131.865C124.809 131.765 124.716 131.672 124.624 131.585V140.024L124.903 140.173V131.865Z" fill="#C4C4C4"/>
<path d="M125.53 132.635C125.439 132.504 125.345 132.381 125.251 132.264V140.359L125.53 140.508V132.635Z" fill="#C4C4C4"/>
<path d="M126.157 133.737C126.07 133.544 125.976 133.361 125.878 133.187V140.694L126.157 140.844V133.737Z" fill="#C4C4C4"/>
<path d="M115.498 128.246V135.141L115.219 134.992V128.072L115.498 128.246Z" fill="#C4C4C4"/>
<path d="M116.125 128.636V135.476L115.846 135.327V128.462L116.125 128.636Z" fill="#C4C4C4"/>
<path d="M116.752 129.026V135.812L116.473 135.663V128.852L116.752 129.026Z" fill="#C4C4C4"/>
<path d="M117.379 129.416V136.147L117.1 135.998V129.242L117.379 129.416Z" fill="#C4C4C4"/>
<path d="M118.006 129.806V136.483L117.727 136.334V129.632L118.006 129.806Z" fill="#C4C4C4"/>
<path d="M118.633 130.196V136.818L118.354 136.669V130.022L118.633 130.196Z" fill="#C4C4C4"/>
<path d="M128.107 132.913V132.818C128.107 132.677 128.033 132.546 127.911 132.474C127.752 132.38 127.55 132.495 127.55 132.681V132.779C127.55 132.912 127.616 133.037 127.726 133.113C127.887 133.224 128.107 133.109 128.107 132.913Z" stroke="#333333" stroke-width="0.5"/>
<path d="M128.107 141.582V141.511C128.107 141.35 128.02 141.201 127.878 141.122C127.7 141.022 127.48 141.151 127.48 141.356V141.43C127.48 141.584 127.558 141.727 127.687 141.811C127.868 141.928 128.107 141.799 128.107 141.582Z" stroke="#333333" stroke-width="0.5"/>
<path d="M114.871 126.321V126.215C114.871 126.112 114.818 126.016 114.732 125.96C114.611 125.883 114.453 125.97 114.453 126.113V126.222C114.453 126.319 114.499 126.41 114.576 126.468C114.698 126.559 114.871 126.472 114.871 126.321Z" stroke="#333333" stroke-width="0.5"/>
<path d="M114.871 133.447V133.376C114.871 133.27 114.815 133.172 114.724 133.118C114.604 133.047 114.453 133.133 114.453 133.272V133.346C114.453 133.446 114.502 133.54 114.585 133.597C114.706 133.68 114.871 133.594 114.871 133.447Z" stroke="#333333" stroke-width="0.5"/>
<path d="M174.157 129.583V132.063L177.849 131.62V129.043L177.118 129.137V128.594L176.595 128.649V128.301L175.515 128.435V128.858L174.993 128.914V129.485L174.157 129.583Z" stroke="#ACAEB0" stroke-width="0.4" stroke-linecap="round" stroke-linejoin="round"/>
<path d="M177.85 134.605V132.132L174.158 132.595V135.148L174.889 135.058V135.601L175.412 135.546V135.923L176.491 135.789V135.337L177.014 135.281V134.71L177.85 134.605Z" stroke="#ACAEB0" stroke-width="0.4" stroke-linecap="round" stroke-linejoin="round"/>
<path d="M178.477 136.03V127.569L173.583 128.178V136.66L178.477 136.03Z" stroke="#ACAEB0" stroke-width="0.4"/>
<path d="M144.967 115.367V112.894L141.274 113.277V115.89L142.006 115.82V116.363L142.528 116.308V116.656L143.608 116.552V116.099L144.131 116.043V115.472L144.967 115.367Z" stroke="#ACAEB0" stroke-width="0.4" stroke-linecap="round" stroke-linejoin="round"/>
<path d="M140.577 115.89V113.417L136.885 113.8V116.412L137.617 116.343V116.886L138.139 116.83V117.179L139.219 117.074V116.621L139.741 116.565V115.994L140.577 115.89Z" stroke="#ACAEB0" stroke-width="0.4" stroke-linecap="round" stroke-linejoin="round"/>
<path d="M138.139 116.83L137.62 116.586" stroke="#ACAEB0" stroke-width="0.4" stroke-linecap="round" stroke-linejoin="round"/>
<path d="M149.356 114.879V112.406L145.663 112.789V115.402L146.395 115.332V115.876L146.917 115.82V116.168L147.997 116.064V115.611L148.52 115.555V114.984L149.356 114.879Z" stroke="#ACAEB0" stroke-width="0.4" stroke-linecap="round" stroke-linejoin="round"/>
<path d="M136.189 116.447V113.974L132.497 114.357V116.969L133.228 116.9V117.443L133.751 117.387V117.736L134.83 117.631V117.178L135.353 117.123V116.551L136.189 116.447Z" stroke="#ACAEB0" stroke-width="0.4" stroke-linecap="round" stroke-linejoin="round"/>
<path d="M133.75 117.388L133.231 117.144" stroke="#ACAEB0" stroke-width="0.4" stroke-linecap="round" stroke-linejoin="round"/>
<path d="M132.496 111.493V113.974L136.189 113.59V110.978L135.457 111.048V110.504L134.935 110.56V110.212L133.855 110.316V110.769L133.332 110.825V111.396L132.496 111.493Z" stroke="#ACAEB0" stroke-width="0.4" stroke-linecap="round" stroke-linejoin="round"/>
<path d="M136.885 110.936V113.417L140.577 113.033V110.421L139.846 110.49V109.947L139.323 110.003V109.654L138.244 109.759V110.212L137.721 110.268V110.839L136.885 110.936Z" stroke="#ACAEB0" stroke-width="0.4" stroke-linecap="round" stroke-linejoin="round"/>
<path d="M145.594 109.926V112.441L149.286 112.058V109.445L148.554 109.515V108.971L148.032 109.027V108.679L146.952 108.783V109.236L146.43 109.292V109.863L145.594 109.926Z" stroke="#ACAEB0" stroke-width="0.4" stroke-linecap="round" stroke-linejoin="round"/>
<path d="M131.8 118.607V110.003L149.948 107.878V116.168L131.8 118.607Z" stroke="#ACAEB0" stroke-width="0.4" stroke-linecap="round" stroke-linejoin="round"/>
<path d="M141.275 110.414V112.929L144.967 112.546V109.933L144.235 110.003V109.459L143.713 109.515V109.167L142.633 109.271V109.724L142.111 109.78V110.351L141.275 110.414Z" stroke="#ACAEB0" stroke-width="0.4" stroke-linecap="round" stroke-linejoin="round"/>
<path d="M163.951 113.034V110.561L160.259 110.944V113.557L160.99 113.487V114.03L161.513 113.975V114.323L162.592 114.219V113.766L163.115 113.71V113.139L163.951 113.034Z" stroke="#ACAEB0" stroke-width="0.4" stroke-linecap="round" stroke-linejoin="round"/>
<path d="M161.512 113.974L160.993 113.73" stroke="#ACAEB0" stroke-width="0.4" stroke-linecap="round" stroke-linejoin="round"/>
<path d="M159.561 113.557V111.083L155.869 111.467V114.079L156.6 114.01V114.553L157.123 114.497V114.846L158.203 114.741V114.288L158.725 114.232V113.661L159.561 113.557Z" stroke="#ACAEB0" stroke-width="0.4" stroke-linecap="round" stroke-linejoin="round"/>
<path d="M157.123 114.497L156.604 114.253" stroke="#ACAEB0" stroke-width="0.4" stroke-linecap="round" stroke-linejoin="round"/>
<path d="M168.305 112.546V110.073L164.613 110.456V113.069L165.344 112.999V113.543L165.867 113.487V113.835L166.946 113.731V113.278L167.469 113.222V112.651L168.305 112.546Z" stroke="#ACAEB0" stroke-width="0.4" stroke-linecap="round" stroke-linejoin="round"/>
<path d="M155.173 114.113V111.64L151.48 112.023V114.636L152.212 114.566V115.11L152.734 115.054V115.402L153.814 115.298V114.845L154.337 114.789V114.218L155.173 114.113Z" stroke="#ACAEB0" stroke-width="0.4" stroke-linecap="round" stroke-linejoin="round"/>
<path d="M152.735 115.053L152.215 114.81" stroke="#ACAEB0" stroke-width="0.4" stroke-linecap="round" stroke-linejoin="round"/>
<path d="M151.48 109.16V111.64L155.173 111.257V108.644L154.441 108.714V108.171L153.919 108.226V107.878L152.839 107.983V108.435L152.316 108.491V109.062L151.48 109.16Z" stroke="#ACAEB0" stroke-width="0.4" stroke-linecap="round" stroke-linejoin="round"/>
<path d="M155.869 108.603V111.083L159.562 110.7V108.088L158.83 108.157V107.614L158.308 107.67V107.321L157.228 107.426V107.879L156.705 107.935V108.506L155.869 108.603Z" stroke="#ACAEB0" stroke-width="0.4" stroke-linecap="round" stroke-linejoin="round"/>
<path d="M164.578 107.593V110.108L168.27 109.725V107.113L167.539 107.182V106.639L167.016 106.695V106.346L165.936 106.451V106.904L165.414 106.959V107.531L164.578 107.593Z" stroke="#ACAEB0" stroke-width="0.4" stroke-linecap="round" stroke-linejoin="round"/>
<path d="M150.784 116.134V107.809L168.932 105.684V113.696L150.784 116.134Z" stroke="#ACAEB0" stroke-width="0.4" stroke-linecap="round" stroke-linejoin="round"/>
<path d="M160.259 108.081V110.596L163.951 110.213V107.6L163.219 107.67V107.126L162.697 107.182V106.834L161.617 106.938V107.391L161.095 107.447V108.018L160.259 108.081Z" stroke="#ACAEB0" stroke-width="0.4" stroke-linecap="round" stroke-linejoin="round"/>
<path d="M179.94 102.34L169.251 99.0647C162.649 97.0418 155.71 96.3541 148.839 97.0417L115.801 100.348C114.779 100.45 114 101.311 114 102.338V110.396C114 111.505 114.611 112.523 115.59 113.044L129.501 120.453C129.612 120.509 129.884 120.523 130.163 120.488" stroke="#333333" stroke-linecap="round" stroke-linejoin="round"/>
<path d="M129.153 118.345V109.973C129.153 108.958 129.913 108.104 130.922 107.987L178.267 102.494C179.455 102.356 180.497 103.285 180.497 104.481V111.206C180.497 112.71 179.382 113.982 177.891 114.18L131.415 120.328C130.217 120.487 129.153 119.554 129.153 118.345Z" stroke="#333333" stroke-linecap="round" stroke-linejoin="round"/>
<path d="M129.222 108.331L114.302 100.836" stroke="#333333" stroke-linecap="round" stroke-linejoin="round"/>
<path d="M126.784 113.416V117.805L126.505 117.656V111.324C126.679 111.94 126.784 112.636 126.784 113.416Z" fill="#C4C4C4"/>
<path d="M119.26 107.212V113.78L118.981 113.631V107.039L119.26 107.212Z" fill="#C4C4C4"/>
<path d="M119.608 105.277V113.966L119.887 114.115V105.423C119.795 105.375 119.702 105.326 119.608 105.277Z" fill="#C4C4C4"/>
<path d="M120.235 105.607V114.302L120.514 114.451V105.754C120.422 105.705 120.329 105.656 120.235 105.607Z" fill="#C4C4C4"/>
<path d="M120.862 105.937V114.637L121.141 114.786V106.084C121.049 106.036 120.957 105.987 120.862 105.937Z" fill="#C4C4C4"/>
<path d="M121.489 114.973L121.768 115.122V106.416C121.677 106.368 121.584 106.319 121.489 106.268V114.973Z" fill="#C4C4C4"/>
<path d="M122.116 115.308L122.395 115.457V106.749C122.306 106.701 122.213 106.652 122.116 106.601V115.308Z" fill="#C4C4C4"/>
<path d="M122.743 115.644L123.022 115.793V107.085C122.937 107.039 122.844 106.989 122.743 106.935V115.644Z" fill="#C4C4C4"/>
<path d="M123.37 107.276C123.43 107.309 123.477 107.336 123.51 107.355C123.55 107.38 123.597 107.408 123.649 107.442V116.128L123.37 115.979V107.276Z" fill="#C4C4C4"/>
<path d="M124.276 107.902C124.178 107.821 124.085 107.748 123.997 107.683V116.315L124.276 116.464V107.902Z" fill="#C4C4C4"/>
<path d="M124.903 108.491C124.809 108.391 124.716 108.298 124.624 108.211V116.65L124.903 116.799V108.491Z" fill="#C4C4C4"/>
<path d="M125.53 109.261C125.439 109.131 125.345 109.007 125.251 108.891V116.985L125.53 117.135V109.261Z" fill="#C4C4C4"/>
<path d="M126.157 110.364C126.07 110.17 125.976 109.987 125.878 109.814V117.321L126.157 117.47V110.364Z" fill="#C4C4C4"/>
<path d="M115.498 104.872V111.767L115.219 111.618V104.699L115.498 104.872Z" fill="#C4C4C4"/>
<path d="M116.125 105.262V112.103L115.846 111.954V105.089L116.125 105.262Z" fill="#C4C4C4"/>
<path d="M116.752 105.652V112.438L116.473 112.289V105.479L116.752 105.652Z" fill="#C4C4C4"/>
<path d="M117.379 106.042V112.774L117.1 112.625V105.869L117.379 106.042Z" fill="#C4C4C4"/>
<path d="M118.006 106.432V113.109L117.727 112.96V106.259L118.006 106.432Z" fill="#C4C4C4"/>
<path d="M118.633 106.822V113.445L118.354 113.295V106.649L118.633 106.822Z" fill="#C4C4C4"/>
<path d="M128.107 109.54V109.445C128.107 109.304 128.033 109.174 127.911 109.102C127.752 109.008 127.55 109.123 127.55 109.308V109.406C127.55 109.54 127.616 109.665 127.726 109.741C127.887 109.852 128.107 109.736 128.107 109.54Z" stroke="#333333" stroke-width="0.5"/>
<path d="M128.107 118.21V118.139C128.107 117.977 128.02 117.828 127.878 117.749C127.7 117.65 127.48 117.779 127.48 117.983V118.058C127.48 118.211 127.558 118.354 127.687 118.438C127.868 118.556 128.107 118.426 128.107 118.21Z" stroke="#333333" stroke-width="0.5"/>
<path d="M114.871 102.948V102.842C114.871 102.739 114.818 102.643 114.732 102.588C114.611 102.511 114.453 102.597 114.453 102.74V102.849C114.453 102.946 114.499 103.038 114.576 103.096C114.698 103.186 114.871 103.1 114.871 102.948Z" stroke="#333333" stroke-width="0.5"/>
<path d="M114.871 110.073V110.003C114.871 109.897 114.815 109.799 114.724 109.745C114.604 109.674 114.453 109.76 114.453 109.899V109.973C114.453 110.073 114.502 110.167 114.585 110.224C114.706 110.307 114.871 110.221 114.871 110.073Z" stroke="#333333" stroke-width="0.5"/>
<path d="M174.157 106.234V108.749L177.849 108.365V105.753L177.118 105.823V105.279L176.595 105.335V104.987L175.515 105.091V105.544L174.993 105.6V106.171L174.157 106.234Z" stroke="#ACAEB0" stroke-width="0.4" stroke-linecap="round" stroke-linejoin="round"/>
<path d="M177.85 111.362V108.889L174.158 109.272V111.884L174.889 111.815V112.358L175.412 112.302V112.651L176.491 112.546V112.093L177.014 112.038V111.466L177.85 111.362Z" stroke="#ACAEB0" stroke-width="0.4" stroke-linecap="round" stroke-linejoin="round"/>
<path d="M178.477 112.476V104.5L173.583 105.109V113.106L178.477 112.476Z" stroke="#ACAEB0" stroke-width="0.4"/>
<path d="M144.967 217.097V214.624L141.274 215.087V217.64L142.006 217.55V218.093L142.528 218.038V218.415L143.608 218.282V217.829L144.131 217.773V217.202L144.967 217.097Z" stroke="#ACAEB0" stroke-width="0.4" stroke-linecap="round" stroke-linejoin="round"/>
<path d="M140.578 217.654V215.181L136.886 215.644V218.197L137.617 218.107V218.65L138.14 218.594V218.972L139.219 218.838V218.385L139.742 218.33V217.758L140.578 217.654Z" stroke="#ACAEB0" stroke-width="0.4" stroke-linecap="round" stroke-linejoin="round"/>
<path d="M149.355 216.609V214.136L145.663 214.599V217.152L146.395 217.062V217.605L146.917 217.549V217.927L147.997 217.793V217.34L148.519 217.285V216.713L149.355 216.609Z" stroke="#ACAEB0" stroke-width="0.4" stroke-linecap="round" stroke-linejoin="round"/>
<path d="M136.189 218.211V215.738L132.496 216.201V218.754L133.228 218.664V219.207L133.75 219.151V219.529L134.83 219.395V218.942L135.353 218.887V218.315L136.189 218.211Z" stroke="#ACAEB0" stroke-width="0.4" stroke-linecap="round" stroke-linejoin="round"/>
<path d="M132.496 213.258V215.738L136.189 215.295V212.718L135.457 212.812V212.268L134.935 212.324V211.976L133.855 212.11V212.533L133.332 212.589V213.16L132.496 213.258Z" stroke="#ACAEB0" stroke-width="0.4" stroke-linecap="round" stroke-linejoin="round"/>
<path d="M136.885 212.71V215.19L140.578 214.748V212.17L139.846 212.264V211.721L139.324 211.777V211.428L138.244 211.563V211.986L137.722 212.041V212.613L136.885 212.71Z" stroke="#ACAEB0" stroke-width="0.4" stroke-linecap="round" stroke-linejoin="round"/>
<path d="M145.594 211.526V214.006L149.286 213.564V210.986L148.554 211.08V210.537L148.032 210.593V210.244L146.952 210.379V210.802L146.43 210.857V211.429L145.594 211.526Z" stroke="#ACAEB0" stroke-width="0.4" stroke-linecap="round" stroke-linejoin="round"/>
<path d="M131.8 220.371V211.767L149.948 209.409V217.933L131.8 220.371Z" stroke="#ACAEB0" stroke-width="0.4" stroke-linecap="round" stroke-linejoin="round"/>
<path d="M141.275 212.153V214.633L144.967 214.191V211.613L144.235 211.707V211.164L143.713 211.22V210.871L142.633 211.006V211.429L142.111 211.484V212.056L141.275 212.153Z" stroke="#ACAEB0" stroke-width="0.4" stroke-linecap="round" stroke-linejoin="round"/>
<path d="M163.951 214.658V212.185L160.259 212.648V215.201L160.99 215.111V215.654L161.513 215.599V215.976L162.592 215.843V215.39L163.115 215.334V214.763L163.951 214.658Z" stroke="#ACAEB0" stroke-width="0.4" stroke-linecap="round" stroke-linejoin="round"/>
<path d="M159.562 215.215V212.742L155.869 213.205V215.758L156.601 215.668V216.211L157.123 216.155V216.533L158.203 216.399V215.946L158.726 215.891V215.319L159.562 215.215Z" stroke="#ACAEB0" stroke-width="0.4" stroke-linecap="round" stroke-linejoin="round"/>
<path d="M168.34 214.17V211.697L164.648 212.16V214.713L165.379 214.623V215.166L165.902 215.11V215.488L166.982 215.354V214.901L167.504 214.846V214.274L168.34 214.17Z" stroke="#ACAEB0" stroke-width="0.4" stroke-linecap="round" stroke-linejoin="round"/>
<path d="M165.902 215.111L165.382 214.867" stroke="#ACAEB0" stroke-width="0.4" stroke-linecap="round" stroke-linejoin="round"/>
<path d="M155.173 215.772V213.299L151.48 213.762V216.315L152.212 216.225V216.768L152.734 216.713V217.09L153.814 216.956V216.504L154.337 216.448V215.877L155.173 215.772Z" stroke="#ACAEB0" stroke-width="0.4" stroke-linecap="round" stroke-linejoin="round"/>
<path d="M151.48 210.819V213.299L155.173 212.856V210.279L154.441 210.373V209.829L153.919 209.885V209.537L152.839 209.671V210.094L152.316 210.15V210.721L151.48 210.819Z" stroke="#ACAEB0" stroke-width="0.4" stroke-linecap="round" stroke-linejoin="round"/>
<path d="M155.869 210.272V212.752L159.562 212.309V209.732L158.83 209.826V209.283L158.308 209.338V208.99L157.228 209.124V209.547L156.705 209.603V210.174L155.869 210.272Z" stroke="#ACAEB0" stroke-width="0.4" stroke-linecap="round" stroke-linejoin="round"/>
<path d="M164.578 209.087V211.567L168.27 211.125V208.547L167.539 208.641V208.098L167.016 208.154V207.805L165.936 207.94V208.363L165.414 208.418V208.99L164.578 209.087Z" stroke="#ACAEB0" stroke-width="0.4" stroke-linecap="round" stroke-linejoin="round"/>
<path d="M150.784 217.932V209.328L168.932 206.97V215.494L150.784 217.932Z" stroke="#ACAEB0" stroke-width="0.4" stroke-linecap="round" stroke-linejoin="round"/>
<path d="M160.259 209.714V212.194L163.951 211.752V209.174L163.22 209.268V208.725L162.697 208.781V208.432L161.618 208.567V208.99L161.095 209.045V209.617L160.259 209.714Z" stroke="#ACAEB0" stroke-width="0.4" stroke-linecap="round" stroke-linejoin="round"/>
<path d="M130.163 222.112C129.884 222.147 129.612 222.133 129.501 222.077L115.465 214.602C114.563 214.122 114 213.183 114 212.162V202.503C114 202.304 114.15 202.137 114.348 202.118V202.118" stroke="#333333" stroke-linecap="round" stroke-linejoin="round"/>
<path d="M179.87 203.932V203.932C180.204 203.893 180.497 204.154 180.497 204.491V213.893C180.497 214.789 179.833 215.547 178.944 215.664L131.415 221.952C130.217 222.111 129.153 221.178 129.153 219.969V211.045C129.153 210.767 129.257 210.523 129.431 210.453" stroke="#333333" stroke-linecap="round" stroke-linejoin="round"/>
<path d="M126.784 215.041V219.43L126.505 219.281V212.948C126.679 213.564 126.784 214.26 126.784 215.041Z" fill="#C4C4C4"/>
<path d="M119.26 208.837V215.404L118.981 215.255V208.663L119.26 208.837Z" fill="#C4C4C4"/>
<path d="M119.608 206.901V215.591L119.887 215.74V207.048C119.795 206.999 119.702 206.95 119.608 206.901Z" fill="#C4C4C4"/>
<path d="M120.235 207.231V215.926L120.514 216.075V207.378C120.422 207.33 120.329 207.281 120.235 207.231Z" fill="#C4C4C4"/>
<path d="M120.862 207.562V216.262L121.141 216.411V207.709C121.049 207.661 120.957 207.612 120.862 207.562Z" fill="#C4C4C4"/>
<path d="M121.489 216.597L121.768 216.746V208.04C121.677 207.992 121.584 207.943 121.489 207.893V216.597Z" fill="#C4C4C4"/>
<path d="M122.116 216.933L122.395 217.082V208.373C122.306 208.326 122.213 208.276 122.116 208.225V216.933Z" fill="#C4C4C4"/>
<path d="M122.743 217.268L123.022 217.417V208.709C122.937 208.664 122.844 208.613 122.743 208.559V217.268Z" fill="#C4C4C4"/>
<path d="M123.37 208.9C123.43 208.934 123.477 208.96 123.51 208.98C123.55 209.004 123.597 209.033 123.649 209.067V217.753L123.37 217.604V208.9Z" fill="#C4C4C4"/>
<path d="M124.276 209.527C124.178 209.446 124.085 209.373 123.997 209.308V217.939L124.276 218.088V209.527Z" fill="#C4C4C4"/>
<path d="M124.903 210.116C124.809 210.016 124.716 209.923 124.624 209.836V218.275L124.903 218.424V210.116Z" fill="#C4C4C4"/>
<path d="M125.53 210.886C125.439 210.755 125.345 210.632 125.251 210.515V218.61L125.53 218.759V210.886Z" fill="#C4C4C4"/>
<path d="M126.157 211.988C126.07 211.795 125.976 211.612 125.878 211.438V218.945L126.157 219.095V211.988Z" fill="#C4C4C4"/>
<path d="M115.498 206.497V213.392L115.219 213.243V206.323L115.498 206.497Z" fill="#C4C4C4"/>
<path d="M116.125 206.887V213.727L115.846 213.578V206.713L116.125 206.887Z" fill="#C4C4C4"/>
<path d="M116.752 207.277V214.063L116.473 213.914V207.103L116.752 207.277Z" fill="#C4C4C4"/>
<path d="M117.379 207.667V214.398L117.1 214.249V207.493L117.379 207.667Z" fill="#C4C4C4"/>
<path d="M118.006 208.057V214.734L117.727 214.584V207.883L118.006 208.057Z" fill="#C4C4C4"/>
<path d="M118.633 208.447V215.069L118.354 214.92V208.273L118.633 208.447Z" fill="#C4C4C4"/>
<path d="M128.107 211.164V211.069C128.107 210.928 128.033 210.798 127.911 210.726C127.752 210.632 127.55 210.747 127.55 210.932V211.03C127.55 211.164 127.616 211.289 127.726 211.365C127.887 211.476 128.107 211.36 128.107 211.164Z" stroke="#333333" stroke-width="0.5"/>
<path d="M128.107 219.834V219.763C128.107 219.601 128.02 219.452 127.878 219.373C127.7 219.274 127.48 219.403 127.48 219.607V219.682C127.48 219.835 127.558 219.978 127.687 220.062C127.868 220.18 128.107 220.05 128.107 219.834Z" stroke="#333333" stroke-width="0.5"/>
<path d="M114.871 204.572V204.466C114.871 204.363 114.818 204.267 114.732 204.212C114.611 204.135 114.453 204.221 114.453 204.365V204.473C114.453 204.57 114.499 204.662 114.576 204.72C114.698 204.81 114.871 204.724 114.871 204.572Z" stroke="#333333" stroke-width="0.5"/>
<path d="M114.871 211.697V211.627C114.871 211.521 114.815 211.423 114.724 211.369C114.604 211.298 114.453 211.384 114.453 211.523V211.597C114.453 211.697 114.502 211.791 114.585 211.848C114.706 211.931 114.871 211.845 114.871 211.697Z" stroke="#333333" stroke-width="0.5"/>
<path d="M174.157 207.833V210.313L177.849 209.871V207.293L177.118 207.387V206.844L176.595 206.9V206.551L175.515 206.686V207.109L174.993 207.165V207.736L174.157 207.833Z" stroke="#ACAEB0" stroke-width="0.4" stroke-linecap="round" stroke-linejoin="round"/>
<path d="M177.85 212.857V210.384L174.158 210.847V213.4L174.889 213.31V213.853L175.412 213.797V214.175L176.491 214.041V213.588L177.014 213.533V212.961L177.85 212.857Z" stroke="#ACAEB0" stroke-width="0.4" stroke-linecap="round" stroke-linejoin="round"/>
<path d="M178.477 214.282V205.82L173.583 206.43V214.912L178.477 214.282Z" stroke="#ACAEB0" stroke-width="0.4"/>
<path d="M144.967 228.844V226.371L141.274 226.834V229.387L142.006 229.297V229.84L142.528 229.784V230.162L143.608 230.028V229.575L144.131 229.52V228.948L144.967 228.844Z" stroke="#ACAEB0" stroke-width="0.4" stroke-linecap="round" stroke-linejoin="round"/>
<path d="M140.578 229.402V226.929L136.886 227.392V229.945L137.617 229.855V230.398L138.14 230.342V230.72L139.219 230.586V230.133L139.742 230.078V229.506L140.578 229.402Z" stroke="#ACAEB0" stroke-width="0.4" stroke-linecap="round" stroke-linejoin="round"/>
<path d="M149.355 228.357V225.884L145.663 226.347V228.9L146.395 228.81V229.353L146.917 229.297V229.675L147.997 229.541V229.088L148.519 229.033V228.461L149.355 228.357Z" stroke="#ACAEB0" stroke-width="0.4" stroke-linecap="round" stroke-linejoin="round"/>
<path d="M136.189 229.959V227.486L132.496 227.949V230.502L133.228 230.412V230.955L133.75 230.9V231.277L134.83 231.143V230.691L135.353 230.635V230.064L136.189 229.959Z" stroke="#ACAEB0" stroke-width="0.4" stroke-linecap="round" stroke-linejoin="round"/>
<path d="M132.496 225.006V227.486L136.189 227.043V224.466L135.457 224.56V224.016L134.935 224.072V223.724L133.855 223.858V224.281L133.332 224.337V224.908L132.496 225.006Z" stroke="#ACAEB0" stroke-width="0.4" stroke-linecap="round" stroke-linejoin="round"/>
<path d="M136.885 224.459V226.939L140.578 226.496V223.919L139.846 224.013V223.47L139.324 223.525V223.177L138.244 223.311V223.734L137.722 223.79V224.361L136.885 224.459Z" stroke="#ACAEB0" stroke-width="0.4" stroke-linecap="round" stroke-linejoin="round"/>
<path d="M145.594 223.274V225.754L149.286 225.312V222.734L148.555 222.828V222.285L148.032 222.341V221.992L146.952 222.127V222.55L146.43 222.605V223.177L145.594 223.274Z" stroke="#ACAEB0" stroke-width="0.4" stroke-linecap="round" stroke-linejoin="round"/>
<path d="M131.8 232.119V223.515L149.948 221.157V229.681L131.8 232.119Z" stroke="#ACAEB0" stroke-width="0.4" stroke-linecap="round" stroke-linejoin="round"/>
<path d="M141.275 223.901V226.381L144.967 225.939V223.361L144.235 223.455V222.912L143.713 222.968V222.619L142.633 222.754V223.177L142.111 223.232V223.804L141.275 223.901Z" stroke="#ACAEB0" stroke-width="0.4" stroke-linecap="round" stroke-linejoin="round"/>
<path d="M163.951 226.406V223.933L160.259 224.396V226.949L160.991 226.859V227.402L161.513 227.346V227.724L162.593 227.59V227.137L163.115 227.082V226.51L163.951 226.406Z" stroke="#ACAEB0" stroke-width="0.4" stroke-linecap="round" stroke-linejoin="round"/>
<path d="M159.562 226.963V224.49L155.87 224.953V227.506L156.602 227.416V227.959L157.124 227.903V228.281L158.204 228.147V227.694L158.726 227.639V227.067L159.562 226.963Z" stroke="#ACAEB0" stroke-width="0.4" stroke-linecap="round" stroke-linejoin="round"/>
<path d="M168.341 225.918V223.445L164.648 223.908V226.461L165.38 226.371V226.914L165.902 226.859V227.236L166.982 227.102V226.65L167.505 226.594V226.023L168.341 225.918Z" stroke="#ACAEB0" stroke-width="0.4" stroke-linecap="round" stroke-linejoin="round"/>
<path d="M155.174 227.52V225.047L151.481 225.51V228.063L152.213 227.973V228.516L152.735 228.461V228.838L153.815 228.704V228.252L154.338 228.196V227.625L155.174 227.52Z" stroke="#ACAEB0" stroke-width="0.4" stroke-linecap="round" stroke-linejoin="round"/>
<path d="M151.481 222.567V225.047L155.173 224.604V222.027L154.442 222.121V221.577L153.919 221.633V221.285L152.839 221.419V221.842L152.317 221.898V222.469L151.481 222.567Z" stroke="#ACAEB0" stroke-width="0.4" stroke-linecap="round" stroke-linejoin="round"/>
<path d="M155.87 222.02V224.5L159.562 224.058V221.48L158.831 221.574V221.031L158.308 221.087V220.738L157.229 220.873V221.296L156.706 221.352V221.923L155.87 222.02Z" stroke="#ACAEB0" stroke-width="0.4" stroke-linecap="round" stroke-linejoin="round"/>
<path d="M164.579 220.836V223.316L168.271 222.873V220.296L167.539 220.39V219.846L167.017 219.902V219.554L165.937 219.688V220.111L165.415 220.167V220.738L164.579 220.836Z" stroke="#ACAEB0" stroke-width="0.4" stroke-linecap="round" stroke-linejoin="round"/>
<path d="M150.785 229.68V221.076L168.933 218.718V227.242L150.785 229.68Z" stroke="#ACAEB0" stroke-width="0.4" stroke-linecap="round" stroke-linejoin="round"/>
<path d="M160.259 221.462V223.942L163.951 223.5V220.922L163.22 221.016V220.473L162.697 220.529V220.18L161.618 220.315V220.738L161.095 220.793V221.365L160.259 221.462Z" stroke="#ACAEB0" stroke-width="0.4" stroke-linecap="round" stroke-linejoin="round"/>
<path d="M130.163 233.861C129.884 233.896 129.612 233.882 129.501 233.826L115.465 226.351C114.563 225.87 114 224.932 114 223.91V214.251C114 214.052 114.15 213.886 114.348 213.866V213.866" stroke="#333333" stroke-linecap="round" stroke-linejoin="round"/>
<path d="M179.87 215.681V215.681C180.204 215.642 180.497 215.903 180.497 216.239V225.641C180.497 226.538 179.833 227.295 178.944 227.413L131.415 233.701C130.217 233.859 129.153 232.927 129.153 231.718V222.794C129.153 222.515 129.257 222.271 129.431 222.202" stroke="#333333" stroke-linecap="round" stroke-linejoin="round"/>
<path d="M126.784 226.79V231.179L126.505 231.03V224.697C126.679 225.314 126.784 226.009 126.784 226.79Z" fill="#C4C4C4"/>
<path d="M119.26 220.586V227.154L118.981 227.004V220.412L119.26 220.586Z" fill="#C4C4C4"/>
<path d="M119.608 218.65V227.34L119.887 227.489V218.797C119.795 218.748 119.702 218.699 119.608 218.65Z" fill="#C4C4C4"/>
<path d="M120.235 218.98V227.675L120.514 227.824V219.127C120.422 219.079 120.329 219.03 120.235 218.98Z" fill="#C4C4C4"/>
<path d="M120.862 219.311V228.011L121.141 228.16V219.458C121.049 219.41 120.957 219.361 120.862 219.311Z" fill="#C4C4C4"/>
<path d="M121.489 228.346L121.768 228.495V219.789C121.677 219.741 121.584 219.692 121.489 219.642V228.346Z" fill="#C4C4C4"/>
<path d="M122.116 228.682L122.395 228.831V220.122C122.306 220.075 122.213 220.025 122.116 219.974V228.682Z" fill="#C4C4C4"/>
<path d="M122.743 229.017L123.022 229.166V220.458C122.937 220.413 122.844 220.362 122.743 220.308V229.017Z" fill="#C4C4C4"/>
<path d="M123.37 220.649C123.43 220.683 123.477 220.709 123.51 220.729C123.55 220.753 123.597 220.782 123.649 220.816V229.502L123.37 229.353V220.649Z" fill="#C4C4C4"/>
<path d="M124.276 221.276C124.178 221.195 124.085 221.122 123.997 221.057V229.688L124.276 229.837V221.276Z" fill="#C4C4C4"/>
<path d="M124.903 221.865C124.809 221.765 124.716 221.672 124.624 221.585V230.024L124.903 230.173V221.865Z" fill="#C4C4C4"/>
<path d="M125.53 222.635C125.439 222.504 125.345 222.381 125.251 222.264V230.359L125.53 230.508V222.635Z" fill="#C4C4C4"/>
<path d="M126.157 223.737C126.07 223.544 125.976 223.361 125.878 223.187V230.694L126.157 230.844V223.737Z" fill="#C4C4C4"/>
<path d="M115.498 218.246V225.141L115.219 224.992V218.072L115.498 218.246Z" fill="#C4C4C4"/>
<path d="M116.125 218.636V225.476L115.846 225.327V218.462L116.125 218.636Z" fill="#C4C4C4"/>
<path d="M116.752 219.026V225.812L116.473 225.663V218.852L116.752 219.026Z" fill="#C4C4C4"/>
<path d="M117.379 219.416V226.147L117.1 225.998V219.242L117.379 219.416Z" fill="#C4C4C4"/>
<path d="M118.006 219.806V226.483L117.727 226.334V219.632L118.006 219.806Z" fill="#C4C4C4"/>
<path d="M118.633 220.196V226.818L118.354 226.669V220.022L118.633 220.196Z" fill="#C4C4C4"/>
<path d="M128.107 222.913V222.818C128.107 222.677 128.033 222.546 127.911 222.474C127.752 222.38 127.55 222.495 127.55 222.681V222.779C127.55 222.912 127.616 223.037 127.726 223.113C127.887 223.224 128.107 223.109 128.107 222.913Z" stroke="#333333" stroke-width="0.5"/>
<path d="M128.107 231.582V231.511C128.107 231.35 128.02 231.201 127.878 231.122C127.7 231.022 127.48 231.151 127.48 231.356V231.43C127.48 231.584 127.558 231.727 127.687 231.811C127.868 231.928 128.107 231.799 128.107 231.582Z" stroke="#333333" stroke-width="0.5"/>
<path d="M114.871 216.321V216.215C114.871 216.112 114.818 216.016 114.732 215.96C114.611 215.883 114.453 215.97 114.453 216.113V216.222C114.453 216.319 114.499 216.41 114.576 216.468C114.698 216.559 114.871 216.472 114.871 216.321Z" stroke="#333333" stroke-width="0.5"/>
<path d="M114.871 223.447V223.376C114.871 223.27 114.815 223.172 114.724 223.118C114.604 223.047 114.453 223.133 114.453 223.272V223.346C114.453 223.446 114.502 223.54 114.585 223.597C114.706 223.68 114.871 223.594 114.871 223.447Z" stroke="#333333" stroke-width="0.5"/>
<path d="M174.157 219.583V222.063L177.849 221.62V219.043L177.118 219.137V218.594L176.595 218.649V218.301L175.515 218.435V218.858L174.993 218.914V219.485L174.157 219.583Z" stroke="#ACAEB0" stroke-width="0.4" stroke-linecap="round" stroke-linejoin="round"/>
<path d="M177.85 224.605V222.132L174.158 222.595V225.148L174.889 225.058V225.601L175.412 225.546V225.923L176.491 225.789V225.337L177.014 225.281V224.71L177.85 224.605Z" stroke="#ACAEB0" stroke-width="0.4" stroke-linecap="round" stroke-linejoin="round"/>
<path d="M178.477 226.03V217.569L173.583 218.178V226.66L178.477 226.03Z" stroke="#ACAEB0" stroke-width="0.4"/>
<path d="M144.967 205.367V202.894L141.274 203.277V205.89L142.006 205.82V206.363L142.528 206.308V206.656L143.608 206.552V206.099L144.131 206.043V205.472L144.967 205.367Z" stroke="#ACAEB0" stroke-width="0.4" stroke-linecap="round" stroke-linejoin="round"/>
<path d="M140.577 205.89V203.417L136.885 203.8V206.412L137.617 206.343V206.886L138.139 206.83V207.179L139.219 207.074V206.621L139.741 206.565V205.994L140.577 205.89Z" stroke="#ACAEB0" stroke-width="0.4" stroke-linecap="round" stroke-linejoin="round"/>
<path d="M138.139 206.83L137.62 206.586" stroke="#ACAEB0" stroke-width="0.4" stroke-linecap="round" stroke-linejoin="round"/>
<path d="M149.356 204.879V202.406L145.663 202.789V205.402L146.395 205.332V205.876L146.917 205.82V206.168L147.997 206.064V205.611L148.52 205.555V204.984L149.356 204.879Z" stroke="#ACAEB0" stroke-width="0.4" stroke-linecap="round" stroke-linejoin="round"/>
<path d="M136.189 206.447V203.974L132.497 204.357V206.969L133.228 206.9V207.443L133.751 207.387V207.736L134.83 207.631V207.178L135.353 207.123V206.551L136.189 206.447Z" stroke="#ACAEB0" stroke-width="0.4" stroke-linecap="round" stroke-linejoin="round"/>
<path d="M133.75 207.388L133.231 207.144" stroke="#ACAEB0" stroke-width="0.4" stroke-linecap="round" stroke-linejoin="round"/>
<path d="M132.496 201.493V203.974L136.189 203.59V200.978L135.457 201.048V200.504L134.935 200.56V200.212L133.855 200.316V200.769L133.332 200.825V201.396L132.496 201.493Z" stroke="#ACAEB0" stroke-width="0.4" stroke-linecap="round" stroke-linejoin="round"/>
<path d="M136.885 200.936V203.417L140.577 203.033V200.421L139.846 200.49V199.947L139.323 200.003V199.654L138.244 199.759V200.212L137.721 200.268V200.839L136.885 200.936Z" stroke="#ACAEB0" stroke-width="0.4" stroke-linecap="round" stroke-linejoin="round"/>
<path d="M145.594 199.926V202.441L149.286 202.058V199.445L148.554 199.515V198.971L148.032 199.027V198.679L146.952 198.783V199.236L146.43 199.292V199.863L145.594 199.926Z" stroke="#ACAEB0" stroke-width="0.4" stroke-linecap="round" stroke-linejoin="round"/>
<path d="M131.8 208.607V200.003L149.948 197.878V206.168L131.8 208.607Z" stroke="#ACAEB0" stroke-width="0.4" stroke-linecap="round" stroke-linejoin="round"/>
<path d="M141.275 200.414V202.929L144.967 202.546V199.933L144.235 200.003V199.459L143.713 199.515V199.167L142.633 199.271V199.724L142.111 199.78V200.351L141.275 200.414Z" stroke="#ACAEB0" stroke-width="0.4" stroke-linecap="round" stroke-linejoin="round"/>
<path d="M163.951 203.034V200.561L160.259 200.944V203.557L160.99 203.487V204.03L161.513 203.975V204.323L162.592 204.219V203.766L163.115 203.71V203.139L163.951 203.034Z" stroke="#ACAEB0" stroke-width="0.4" stroke-linecap="round" stroke-linejoin="round"/>
<path d="M161.512 203.974L160.993 203.73" stroke="#ACAEB0" stroke-width="0.4" stroke-linecap="round" stroke-linejoin="round"/>
<path d="M159.561 203.557V201.083L155.869 201.467V204.079L156.6 204.01V204.553L157.123 204.497V204.846L158.203 204.741V204.288L158.725 204.232V203.661L159.561 203.557Z" stroke="#ACAEB0" stroke-width="0.4" stroke-linecap="round" stroke-linejoin="round"/>
<path d="M157.123 204.497L156.604 204.253" stroke="#ACAEB0" stroke-width="0.4" stroke-linecap="round" stroke-linejoin="round"/>
<path d="M168.305 202.546V200.073L164.613 200.456V203.069L165.344 202.999V203.543L165.867 203.487V203.835L166.946 203.731V203.278L167.469 203.222V202.651L168.305 202.546Z" stroke="#ACAEB0" stroke-width="0.4" stroke-linecap="round" stroke-linejoin="round"/>
<path d="M155.173 204.113V201.64L151.48 202.023V204.636L152.212 204.566V205.11L152.734 205.054V205.402L153.814 205.298V204.845L154.337 204.789V204.218L155.173 204.113Z" stroke="#ACAEB0" stroke-width="0.4" stroke-linecap="round" stroke-linejoin="round"/>
<path d="M152.735 205.053L152.215 204.81" stroke="#ACAEB0" stroke-width="0.4" stroke-linecap="round" stroke-linejoin="round"/>
<path d="M151.48 199.16V201.64L155.173 201.257V198.644L154.441 198.714V198.171L153.919 198.226V197.878L152.839 197.983V198.435L152.316 198.491V199.062L151.48 199.16Z" stroke="#ACAEB0" stroke-width="0.4" stroke-linecap="round" stroke-linejoin="round"/>
<path d="M155.869 198.603V201.083L159.562 200.7V198.088L158.83 198.157V197.614L158.308 197.67V197.321L157.228 197.426V197.879L156.705 197.935V198.506L155.869 198.603Z" stroke="#ACAEB0" stroke-width="0.4" stroke-linecap="round" stroke-linejoin="round"/>
<path d="M164.578 197.593V200.108L168.27 199.725V197.113L167.539 197.182V196.639L167.016 196.695V196.346L165.936 196.451V196.904L165.414 196.959V197.531L164.578 197.593Z" stroke="#ACAEB0" stroke-width="0.4" stroke-linecap="round" stroke-linejoin="round"/>
<path d="M150.784 206.134V197.809L168.932 195.684V203.696L150.784 206.134Z" stroke="#ACAEB0" stroke-width="0.4" stroke-linecap="round" stroke-linejoin="round"/>
<path d="M160.259 198.081V200.596L163.951 200.213V197.6L163.219 197.67V197.126L162.697 197.182V196.834L161.617 196.938V197.391L161.095 197.447V198.018L160.259 198.081Z" stroke="#ACAEB0" stroke-width="0.4" stroke-linecap="round" stroke-linejoin="round"/>
<path d="M179.94 192.34L169.251 189.065C162.649 187.042 155.71 186.354 148.839 187.042L115.801 190.348C114.779 190.45 114 191.311 114 192.338V200.396C114 201.505 114.611 202.523 115.59 203.044L129.501 210.453C129.612 210.509 129.884 210.523 130.163 210.488" stroke="#333333" stroke-linecap="round" stroke-linejoin="round"/>
<path d="M129.153 208.345V199.973C129.153 198.958 129.913 198.104 130.922 197.987L178.267 192.494C179.455 192.356 180.497 193.285 180.497 194.481V201.206C180.497 202.71 179.382 203.982 177.891 204.18L131.415 210.328C130.217 210.487 129.153 209.554 129.153 208.345Z" stroke="#333333" stroke-linecap="round" stroke-linejoin="round"/>
<path d="M129.222 198.331L114.302 190.836" stroke="#333333" stroke-linecap="round" stroke-linejoin="round"/>
<path d="M126.784 203.416V207.805L126.505 207.656V201.324C126.679 201.94 126.784 202.636 126.784 203.416Z" fill="#C4C4C4"/>
<path d="M119.26 197.212V203.78L118.981 203.631V197.039L119.26 197.212Z" fill="#C4C4C4"/>
<path d="M119.608 195.277V203.966L119.887 204.115V195.423C119.795 195.375 119.702 195.326 119.608 195.277Z" fill="#C4C4C4"/>
<path d="M120.235 195.607V204.302L120.514 204.451V195.754C120.422 195.705 120.329 195.656 120.235 195.607Z" fill="#C4C4C4"/>
<path d="M120.862 195.937V204.637L121.141 204.786V196.084C121.049 196.036 120.957 195.987 120.862 195.937Z" fill="#C4C4C4"/>
<path d="M121.489 204.973L121.768 205.122V196.416C121.677 196.368 121.584 196.319 121.489 196.268V204.973Z" fill="#C4C4C4"/>
<path d="M122.116 205.308L122.395 205.457V196.749C122.306 196.701 122.213 196.652 122.116 196.601V205.308Z" fill="#C4C4C4"/>
<path d="M122.743 205.644L123.022 205.793V197.085C122.937 197.039 122.844 196.989 122.743 196.935V205.644Z" fill="#C4C4C4"/>
<path d="M123.37 197.276C123.43 197.309 123.477 197.336 123.51 197.355C123.55 197.38 123.597 197.408 123.649 197.442V206.128L123.37 205.979V197.276Z" fill="#C4C4C4"/>
<path d="M124.276 197.902C124.178 197.821 124.085 197.748 123.997 197.683V206.315L124.276 206.464V197.902Z" fill="#C4C4C4"/>
<path d="M124.903 198.491C124.809 198.391 124.716 198.298 124.624 198.211V206.65L124.903 206.799V198.491Z" fill="#C4C4C4"/>
<path d="M125.53 199.261C125.439 199.131 125.345 199.007 125.251 198.891V206.985L125.53 207.135V199.261Z" fill="#C4C4C4"/>
<path d="M126.157 200.364C126.07 200.17 125.976 199.987 125.878 199.814V207.321L126.157 207.47V200.364Z" fill="#C4C4C4"/>
<path d="M115.498 194.872V201.767L115.219 201.618V194.699L115.498 194.872Z" fill="#C4C4C4"/>
<path d="M116.125 195.262V202.103L115.846 201.954V195.089L116.125 195.262Z" fill="#C4C4C4"/>
<path d="M116.752 195.652V202.438L116.473 202.289V195.479L116.752 195.652Z" fill="#C4C4C4"/>
<path d="M117.379 196.042V202.774L117.1 202.625V195.869L117.379 196.042Z" fill="#C4C4C4"/>
<path d="M118.006 196.432V203.109L117.727 202.96V196.259L118.006 196.432Z" fill="#C4C4C4"/>
<path d="M118.633 196.822V203.445L118.354 203.295V196.649L118.633 196.822Z" fill="#C4C4C4"/>
<path d="M128.107 199.54V199.445C128.107 199.304 128.033 199.174 127.911 199.102C127.752 199.008 127.55 199.123 127.55 199.308V199.406C127.55 199.54 127.616 199.665 127.726 199.741C127.887 199.852 128.107 199.736 128.107 199.54Z" stroke="#333333" stroke-width="0.5"/>
<path d="M128.107 208.21V208.139C128.107 207.977 128.02 207.828 127.878 207.749C127.7 207.65 127.48 207.779 127.48 207.983V208.058C127.48 208.211 127.558 208.354 127.687 208.438C127.868 208.556 128.107 208.426 128.107 208.21Z" stroke="#333333" stroke-width="0.5"/>
<path d="M114.871 192.948V192.842C114.871 192.739 114.818 192.643 114.732 192.588C114.611 192.511 114.453 192.597 114.453 192.74V192.849C114.453 192.946 114.499 193.038 114.576 193.096C114.698 193.186 114.871 193.1 114.871 192.948Z" stroke="#333333" stroke-width="0.5"/>
<path d="M114.871 200.073V200.003C114.871 199.897 114.815 199.799 114.724 199.745C114.604 199.674 114.453 199.76 114.453 199.899V199.973C114.453 200.073 114.502 200.167 114.585 200.224C114.706 200.307 114.871 200.221 114.871 200.073Z" stroke="#333333" stroke-width="0.5"/>
<path d="M174.157 196.234V198.749L177.849 198.365V195.753L177.118 195.823V195.279L176.595 195.335V194.987L175.515 195.091V195.544L174.993 195.6V196.171L174.157 196.234Z" stroke="#ACAEB0" stroke-width="0.4" stroke-linecap="round" stroke-linejoin="round"/>
<path d="M177.85 201.362V198.889L174.158 199.272V201.884L174.889 201.815V202.358L175.412 202.302V202.651L176.491 202.546V202.093L177.014 202.038V201.466L177.85 201.362Z" stroke="#ACAEB0" stroke-width="0.4" stroke-linecap="round" stroke-linejoin="round"/>
<path d="M178.477 202.476V194.5L173.583 195.109V203.106L178.477 202.476Z" stroke="#ACAEB0" stroke-width="0.4"/>
<rect x="122.787" y="278.016" width="51.8676" height="37.0647" rx="1.5" stroke="#333333"/>
<rect x="125.459" y="280.688" width="46.5235" height="31.7205" rx="1" fill="#EBEDEE"/>
<path d="M117.5 315.524C117.5 315.248 117.724 315.024 118 315.024H179.441C179.717 315.024 179.941 315.248 179.941 315.524V318.573C179.941 319.954 178.822 321.073 177.441 321.073H120C118.619 321.073 117.5 319.954 117.5 318.573V315.524Z" stroke="#333333"/>
<path d="M141.672 315.228V317.047C141.672 317.599 142.119 318.047 142.672 318.047H154.77C155.322 318.047 155.77 317.599 155.77 317.047V315.228" stroke="#333333"/>
<rect x="159.794" y="268.5" width="26.4911" height="32.8352" rx="1.5" fill="white" stroke="#333333"/>
<path d="M170.925 271.172H175.154" stroke="#333333" stroke-linecap="round"/>
<path d="M159.823 296.548H186.256" stroke="#333333" stroke-linecap="round"/>
<circle cx="173.04" cy="298.663" r="1.05735" fill="#333333"/>
<path d="M195 306.227V284.755C195 283.677 194.126 282.803 193.048 282.803H181.336C180.258 282.803 179.384 283.677 179.384 284.755V306.227C179.384 307.305 180.258 308.179 181.336 308.179H193.048C194.126 308.179 195 307.305 195 306.227Z" fill="white" stroke="#333333" stroke-linecap="round" stroke-linejoin="round"/>
<path d="M187.192 304.927C188 304.927 188.656 304.271 188.656 303.463C188.656 302.654 188 301.999 187.192 301.999C186.383 301.999 185.728 302.654 185.728 303.463C185.728 304.271 186.383 304.927 187.192 304.927Z" fill="#333333"/>
</svg>
