<svg width="394" height="509" viewBox="0 0 394 509" fill="none" xmlns="http://www.w3.org/2000/svg">
<path d="M197 106.667C198.473 106.667 199.667 105.473 199.667 104C199.667 102.527 198.473 101.333 197 101.333C195.527 101.333 194.333 102.527 194.333 104C194.333 105.473 195.527 106.667 197 106.667ZM197 65.6667C198.473 65.6667 199.667 64.4728 199.667 63C199.667 61.5272 198.473 60.3333 197 60.3333C195.527 60.3333 194.333 61.5272 194.333 63C194.333 64.4728 195.527 65.6667 197 65.6667ZM197.5 104L197.5 63L196.5 63L196.5 104L197.5 104Z" fill="#5496EA"/>
<path d="M198 188.667C199.473 188.667 200.667 187.473 200.667 186C200.667 184.527 199.473 183.333 198 183.333C196.527 183.333 195.333 184.527 195.333 186C195.333 187.473 196.527 188.667 198 188.667ZM198 148.667C199.473 148.667 200.667 147.473 200.667 146C200.667 144.527 199.473 143.333 198 143.333C196.527 143.333 195.333 144.527 195.333 146C195.333 147.473 196.527 148.667 198 148.667ZM198.5 186L198.5 146L197.5 146L197.5 186L198.5 186Z" fill="#5496EA"/>
<path d="M189.926 34.4217H188.576C173.853 34.4217 170 29.8809 170 24.5145C170 19.1481 174.266 14.3321 181.421 14.3321C182.43 9.92896 184.035 2.28649 194.218 1.12259C203.024 0.115985 205.959 5.57159 206.601 7.86492C207.932 7.49798 211.335 7.31452 213.206 8.96571C215.683 11.1511 215.775 13.2313 215.683 14.3321C218.802 14.4239 225.453 16.5819 225.453 24.5145C225.453 34.4217 215.683 34.4217 208.253 34.4217H204.87" stroke="#333333" stroke-width="1.5" stroke-linecap="round"/>
<path d="M196.97 24.2461V39.7855" stroke="#333333" stroke-width="1.5" stroke-linecap="round"/>
<ellipse cx="196.969" cy="45.1472" rx="3.85279" ry="3.85279" stroke="#333333" stroke-width="1.5"/>
<path d="M200.685 45.5576H211.142" stroke="#333333" stroke-width="1.5"/>
<path d="M182.659 45.5576H193.117" stroke="#333333" stroke-width="1.5"/>
<rect x="211.28" y="41.2944" width="7.70557" height="7.70557" stroke="#333333" stroke-width="1.5" stroke-linejoin="round"/>
<rect x="174.953" y="41.2944" width="7.70557" height="7.70557" stroke="#333333" stroke-width="1.5" stroke-linejoin="round"/>
<path d="M66.9268 23.0059C67.7471 23.0059 68.4238 23.1084 68.957 23.3135C69.4948 23.514 69.8958 23.8216 70.1602 24.2363C70.4245 24.651 70.5566 25.1797 70.5566 25.8223C70.5566 26.3509 70.4609 26.793 70.2695 27.1484C70.0781 27.4993 69.8275 27.7842 69.5176 28.0029C69.2077 28.2217 68.8773 28.3903 68.5264 28.5088L71.2676 33H69.9141L67.4668 28.8301H65.3887V33H64.2266V23.0059H66.9268ZM66.8584 24.0107H65.3887V27.8457H66.9746C67.7904 27.8457 68.3896 27.6794 68.7725 27.3467C69.1598 27.014 69.3535 26.5241 69.3535 25.877C69.3535 25.1979 69.1484 24.7171 68.7383 24.4346C68.3327 24.152 67.7061 24.0107 66.8584 24.0107ZM80.4277 23.0059V29.4727C80.4277 30.179 80.2842 30.8079 79.9971 31.3594C79.7145 31.9108 79.2861 32.346 78.7119 32.665C78.1377 32.9795 77.4176 33.1367 76.5518 33.1367C75.3167 33.1367 74.3757 32.8018 73.7285 32.1318C73.0859 31.4619 72.7646 30.5664 72.7646 29.4453V23.0059H73.9336V29.4795C73.9336 30.3271 74.1569 30.9811 74.6035 31.4414C75.0547 31.9017 75.7269 32.1318 76.6201 32.1318C77.2308 32.1318 77.7298 32.0225 78.1172 31.8037C78.5091 31.5804 78.7985 31.2705 78.9854 30.874C79.1768 30.473 79.2725 30.0104 79.2725 29.4863V23.0059H80.4277ZM87.3525 23.8877C86.8011 23.8877 86.3044 23.9834 85.8623 24.1748C85.4248 24.3617 85.0511 24.6351 84.7412 24.9951C84.4359 25.3506 84.2012 25.7812 84.0371 26.2871C83.873 26.793 83.791 27.3626 83.791 27.9961C83.791 28.8346 83.9209 29.5638 84.1807 30.1836C84.445 30.7988 84.8369 31.2751 85.3564 31.6123C85.8805 31.9495 86.5345 32.1182 87.3184 32.1182C87.765 32.1182 88.1842 32.0817 88.5762 32.0088C88.9727 31.9313 89.3577 31.8356 89.7314 31.7217V32.7334C89.3669 32.8701 88.984 32.9704 88.583 33.0342C88.182 33.1025 87.7057 33.1367 87.1543 33.1367C86.138 33.1367 85.2881 32.9271 84.6045 32.5078C83.9255 32.084 83.415 31.487 83.0732 30.7168C82.736 29.9466 82.5674 29.0374 82.5674 27.9893C82.5674 27.2327 82.6722 26.5423 82.8818 25.918C83.096 25.2891 83.4059 24.7467 83.8115 24.291C84.2217 23.8353 84.723 23.4844 85.3154 23.2383C85.9124 22.9876 86.596 22.8623 87.3662 22.8623C87.8721 22.8623 88.3597 22.9124 88.8291 23.0127C89.2985 23.113 89.7223 23.2565 90.1006 23.4434L89.6357 24.4277C89.3167 24.2819 88.9658 24.1566 88.583 24.0518C88.2048 23.9424 87.7946 23.8877 87.3525 23.8877ZM99.1035 33H97.7295L94.127 28.1396L93.0605 29.0967V33H91.8984V23.0059H93.0605V27.9893C93.3203 27.693 93.5869 27.3991 93.8604 27.1074C94.1338 26.8112 94.4049 26.5127 94.6738 26.2119L97.5928 23.0059H98.9531L94.9746 27.3398L99.1035 33ZM108.031 23.0059V29.4727C108.031 30.179 107.888 30.8079 107.601 31.3594C107.318 31.9108 106.89 32.346 106.315 32.665C105.741 32.9795 105.021 33.1367 104.155 33.1367C102.92 33.1367 101.979 32.8018 101.332 32.1318C100.689 31.4619 100.368 30.5664 100.368 29.4453V23.0059H101.537V29.4795C101.537 30.3271 101.76 30.9811 102.207 31.4414C102.658 31.9017 103.33 32.1318 104.224 32.1318C104.834 32.1318 105.333 32.0225 105.721 31.8037C106.113 31.5804 106.402 31.2705 106.589 30.874C106.78 30.473 106.876 30.0104 106.876 29.4863V23.0059H108.031ZM116.323 30.3408C116.323 30.9333 116.175 31.4391 115.879 31.8584C115.587 32.2731 115.177 32.5898 114.648 32.8086C114.12 33.0273 113.498 33.1367 112.782 33.1367C112.404 33.1367 112.046 33.1185 111.709 33.082C111.372 33.0456 111.062 32.9932 110.779 32.9248C110.497 32.8564 110.248 32.7721 110.034 32.6719V31.5576C110.376 31.6989 110.793 31.8311 111.285 31.9541C111.777 32.0726 112.292 32.1318 112.83 32.1318C113.331 32.1318 113.755 32.0658 114.102 31.9336C114.448 31.7969 114.71 31.6032 114.888 31.3525C115.07 31.0973 115.161 30.792 115.161 30.4365C115.161 30.0947 115.086 29.8099 114.936 29.582C114.785 29.3496 114.535 29.14 114.184 28.9531C113.837 28.7617 113.363 28.5589 112.762 28.3447C112.338 28.1943 111.964 28.0303 111.641 27.8525C111.317 27.6702 111.046 27.4652 110.827 27.2373C110.608 27.0094 110.442 26.7451 110.328 26.4443C110.219 26.1436 110.164 25.7995 110.164 25.4121C110.164 24.8789 110.299 24.4232 110.567 24.0449C110.841 23.6621 111.217 23.3704 111.695 23.1699C112.178 22.9648 112.732 22.8623 113.356 22.8623C113.89 22.8623 114.382 22.9124 114.833 23.0127C115.289 23.113 115.706 23.2474 116.084 23.416L115.722 24.4141C115.362 24.2637 114.979 24.1383 114.573 24.0381C114.172 23.9378 113.757 23.8877 113.329 23.8877C112.901 23.8877 112.538 23.9515 112.242 24.0791C111.951 24.2021 111.727 24.3776 111.572 24.6055C111.417 24.8333 111.34 25.1045 111.34 25.4189C111.34 25.7699 111.413 26.0615 111.559 26.2939C111.709 26.5264 111.946 26.7337 112.27 26.916C112.598 27.0938 113.031 27.2806 113.568 27.4766C114.156 27.6908 114.655 27.9186 115.065 28.1602C115.476 28.3971 115.788 28.6888 116.002 29.0352C116.216 29.377 116.323 29.8122 116.323 30.3408ZM92.1172 51H86.5527V41.0059H92.1172V42.0312H87.7148V45.2646H91.8643V46.2764H87.7148V49.9746H92.1172V51ZM96.8271 51.1367C95.8792 51.1367 95.1273 50.8132 94.5713 50.166C94.0199 49.5189 93.7441 48.5573 93.7441 47.2812C93.7441 45.9915 94.0267 45.0186 94.5918 44.3623C95.1569 43.7015 95.9089 43.3711 96.8477 43.3711C97.2441 43.3711 97.5905 43.4235 97.8867 43.5283C98.1829 43.6331 98.4382 43.7744 98.6523 43.9521C98.8665 44.1253 99.0465 44.3236 99.1924 44.5469H99.2744C99.2562 44.4056 99.238 44.2119 99.2197 43.9658C99.2015 43.7197 99.1924 43.5192 99.1924 43.3643V40.3633H100.327V51H99.4111L99.2402 49.9336H99.1924C99.0511 50.1569 98.8711 50.3597 98.6523 50.542C98.4382 50.7243 98.1807 50.8701 97.8799 50.9795C97.5837 51.0843 97.2327 51.1367 96.8271 51.1367ZM97.0049 50.1934C97.807 50.1934 98.3743 49.9655 98.707 49.5098C99.0397 49.054 99.2061 48.3773 99.2061 47.4795V47.2744C99.2061 46.3219 99.0465 45.5905 98.7275 45.0801C98.4131 44.5697 97.8389 44.3145 97.0049 44.3145C96.3076 44.3145 95.7858 44.5833 95.4395 45.1211C95.0931 45.6543 94.9199 46.3835 94.9199 47.3086C94.9199 48.2292 95.0908 48.9401 95.4326 49.4414C95.779 49.9427 96.3031 50.1934 97.0049 50.1934ZM104.825 54.3633C103.841 54.3633 103.082 54.1787 102.549 53.8096C102.016 53.445 101.749 52.9323 101.749 52.2715C101.749 51.8021 101.897 51.401 102.193 51.0684C102.494 50.7357 102.909 50.5146 103.438 50.4053C103.242 50.3141 103.073 50.1774 102.932 49.9951C102.795 49.8128 102.727 49.6032 102.727 49.3662C102.727 49.0928 102.802 48.8535 102.952 48.6484C103.107 48.4388 103.342 48.2383 103.656 48.0469C103.264 47.8874 102.945 47.6185 102.699 47.2402C102.458 46.8574 102.337 46.4131 102.337 45.9072C102.337 45.3695 102.449 44.9115 102.672 44.5332C102.895 44.1504 103.219 43.8587 103.643 43.6582C104.066 43.4577 104.579 43.3574 105.181 43.3574C105.313 43.3574 105.445 43.3643 105.577 43.3779C105.714 43.387 105.844 43.403 105.967 43.4258C106.09 43.444 106.197 43.4668 106.288 43.4941H108.858V44.2256L107.478 44.3965C107.614 44.5742 107.728 44.7884 107.819 45.0391C107.91 45.2897 107.956 45.5677 107.956 45.873C107.956 46.6204 107.703 47.2152 107.197 47.6572C106.691 48.0947 105.996 48.3135 105.112 48.3135C104.903 48.3135 104.688 48.2952 104.47 48.2588C104.246 48.3818 104.076 48.5186 103.957 48.6689C103.843 48.8193 103.786 48.9925 103.786 49.1885C103.786 49.3343 103.829 49.4505 103.916 49.5371C104.007 49.6237 104.137 49.6875 104.306 49.7285C104.474 49.765 104.677 49.7832 104.914 49.7832H106.233C107.049 49.7832 107.674 49.9541 108.106 50.2959C108.544 50.6377 108.763 51.1367 108.763 51.793C108.763 52.6224 108.425 53.2581 107.751 53.7002C107.076 54.1423 106.101 54.3633 104.825 54.3633ZM104.859 53.4746C105.479 53.4746 105.992 53.4108 106.397 53.2832C106.808 53.1602 107.113 52.9801 107.313 52.7432C107.519 52.5107 107.621 52.2327 107.621 51.9092C107.621 51.6084 107.553 51.3805 107.416 51.2256C107.279 51.0752 107.079 50.9749 106.814 50.9248C106.55 50.8701 106.227 50.8428 105.844 50.8428H104.545C104.208 50.8428 103.914 50.8952 103.663 51C103.412 51.1048 103.219 51.2598 103.082 51.4648C102.95 51.6699 102.884 51.9251 102.884 52.2305C102.884 52.6361 103.055 52.9437 103.396 53.1533C103.738 53.3675 104.226 53.4746 104.859 53.4746ZM105.153 47.4863C105.696 47.4863 106.104 47.3496 106.377 47.0762C106.65 46.8027 106.787 46.404 106.787 45.8799C106.787 45.3193 106.648 44.9001 106.37 44.6221C106.092 44.3395 105.682 44.1982 105.14 44.1982C104.62 44.1982 104.219 44.3441 103.937 44.6357C103.659 44.9229 103.52 45.3444 103.52 45.9004C103.52 46.4108 103.661 46.8027 103.943 47.0762C104.226 47.3496 104.629 47.4863 105.153 47.4863ZM113.22 43.3711C113.858 43.3711 114.405 43.5124 114.86 43.7949C115.316 44.0775 115.665 44.474 115.906 44.9844C116.148 45.4902 116.269 46.0827 116.269 46.7617V47.4658H111.094C111.107 48.3454 111.326 49.0153 111.75 49.4756C112.174 49.9359 112.771 50.166 113.541 50.166C114.015 50.166 114.434 50.1227 114.799 50.0361C115.163 49.9495 115.542 49.8219 115.934 49.6533V50.6514C115.555 50.82 115.179 50.943 114.806 51.0205C114.437 51.098 113.999 51.1367 113.493 51.1367C112.773 51.1367 112.144 50.9909 111.606 50.6992C111.073 50.403 110.659 49.9701 110.362 49.4004C110.066 48.8307 109.918 48.1335 109.918 47.3086C109.918 46.502 110.052 45.8047 110.321 45.2168C110.595 44.6243 110.978 44.1686 111.47 43.8496C111.966 43.5306 112.55 43.3711 113.22 43.3711ZM113.206 44.3008C112.6 44.3008 112.117 44.499 111.757 44.8955C111.397 45.292 111.183 45.8457 111.114 46.5566H115.079C115.075 46.11 115.004 45.7181 114.867 45.3809C114.735 45.0391 114.532 44.7747 114.259 44.5879C113.985 44.3965 113.634 44.3008 113.206 44.3008Z" fill="#7F7F7F"/>
<path d="M51.5479 129L50.3174 125.828H46.3115L45.0879 129H43.9121L47.8223 118.965H48.8682L52.751 129H51.5479ZM49.9688 124.796L48.7998 121.645C48.7725 121.562 48.7269 121.428 48.6631 121.241C48.6038 121.054 48.5423 120.861 48.4785 120.66C48.4147 120.46 48.3623 120.298 48.3213 120.175C48.2757 120.362 48.2256 120.549 48.1709 120.735C48.1208 120.918 48.0706 121.089 48.0205 121.248C47.9704 121.403 47.9271 121.535 47.8906 121.645L46.7012 124.796H49.9688ZM56.9688 129.137C56.2943 129.137 55.6995 128.998 55.1846 128.72C54.6696 128.442 54.2686 128.018 53.9814 127.448C53.6943 126.879 53.5508 126.161 53.5508 125.295C53.5508 124.388 53.7012 123.647 54.002 123.073C54.3073 122.494 54.7266 122.066 55.2598 121.788C55.793 121.51 56.3991 121.371 57.0781 121.371C57.4518 121.371 57.8118 121.41 58.1582 121.487C58.5091 121.56 58.7962 121.654 59.0195 121.768L58.6777 122.718C58.4499 122.627 58.1855 122.545 57.8848 122.472C57.5885 122.399 57.3105 122.362 57.0508 122.362C56.5312 122.362 56.0983 122.474 55.752 122.697C55.4102 122.921 55.1527 123.249 54.9795 123.682C54.8109 124.115 54.7266 124.648 54.7266 125.281C54.7266 125.887 54.8086 126.405 54.9727 126.833C55.1413 127.261 55.3896 127.59 55.7178 127.817C56.0505 128.041 56.4652 128.152 56.9619 128.152C57.3584 128.152 57.7161 128.111 58.0352 128.029C58.3542 127.943 58.6436 127.842 58.9033 127.729V128.74C58.6527 128.868 58.3724 128.966 58.0625 129.034C57.7572 129.103 57.3926 129.137 56.9688 129.137ZM63.6816 129.137C63.0072 129.137 62.4124 128.998 61.8975 128.72C61.3825 128.442 60.9814 128.018 60.6943 127.448C60.4072 126.879 60.2637 126.161 60.2637 125.295C60.2637 124.388 60.4141 123.647 60.7148 123.073C61.0202 122.494 61.4395 122.066 61.9727 121.788C62.5059 121.51 63.112 121.371 63.791 121.371C64.1647 121.371 64.5247 121.41 64.8711 121.487C65.222 121.56 65.5091 121.654 65.7324 121.768L65.3906 122.718C65.1628 122.627 64.8984 122.545 64.5977 122.472C64.3014 122.399 64.0234 122.362 63.7637 122.362C63.2441 122.362 62.8112 122.474 62.4648 122.697C62.123 122.921 61.8656 123.249 61.6924 123.682C61.5238 124.115 61.4395 124.648 61.4395 125.281C61.4395 125.887 61.5215 126.405 61.6855 126.833C61.8542 127.261 62.1025 127.59 62.4307 127.817C62.7633 128.041 63.1781 128.152 63.6748 128.152C64.0713 128.152 64.429 128.111 64.748 128.029C65.0671 127.943 65.3564 127.842 65.6162 127.729V128.74C65.3656 128.868 65.0853 128.966 64.7754 129.034C64.4701 129.103 64.1055 129.137 63.6816 129.137ZM70.2783 121.371C70.9163 121.371 71.4632 121.512 71.9189 121.795C72.3747 122.077 72.7233 122.474 72.9648 122.984C73.2064 123.49 73.3271 124.083 73.3271 124.762V125.466H68.1523C68.166 126.345 68.3848 127.015 68.8086 127.476C69.2324 127.936 69.8294 128.166 70.5996 128.166C71.0736 128.166 71.4928 128.123 71.8574 128.036C72.222 127.95 72.6003 127.822 72.9922 127.653V128.651C72.6139 128.82 72.238 128.943 71.8643 129.021C71.4951 129.098 71.0576 129.137 70.5518 129.137C69.8317 129.137 69.2028 128.991 68.665 128.699C68.1318 128.403 67.7171 127.97 67.4209 127.4C67.1247 126.831 66.9766 126.133 66.9766 125.309C66.9766 124.502 67.111 123.805 67.3799 123.217C67.6533 122.624 68.0361 122.169 68.5283 121.85C69.0251 121.531 69.6084 121.371 70.2783 121.371ZM70.2646 122.301C69.6585 122.301 69.1755 122.499 68.8154 122.896C68.4554 123.292 68.2412 123.846 68.1729 124.557H72.1377C72.1331 124.11 72.0625 123.718 71.9258 123.381C71.7936 123.039 71.5908 122.775 71.3174 122.588C71.0439 122.396 70.693 122.301 70.2646 122.301ZM80.1016 126.949C80.1016 127.428 79.9808 127.831 79.7393 128.159C79.5023 128.483 79.1605 128.727 78.7139 128.891C78.2718 129.055 77.7432 129.137 77.1279 129.137C76.6038 129.137 76.1504 129.096 75.7676 129.014C75.3848 128.932 75.0498 128.815 74.7627 128.665V127.619C75.068 127.77 75.4326 127.906 75.8564 128.029C76.2803 128.152 76.7132 128.214 77.1553 128.214C77.8024 128.214 78.2718 128.109 78.5635 127.899C78.8551 127.69 79.001 127.405 79.001 127.045C79.001 126.84 78.9417 126.66 78.8232 126.505C78.7093 126.345 78.5156 126.193 78.2422 126.047C77.9688 125.896 77.5905 125.732 77.1074 125.555C76.6289 125.372 76.2142 125.192 75.8633 125.015C75.5169 124.832 75.248 124.611 75.0566 124.352C74.8698 124.092 74.7764 123.755 74.7764 123.34C74.7764 122.706 75.0316 122.221 75.542 121.884C76.057 121.542 76.7314 121.371 77.5654 121.371C78.0166 121.371 78.4382 121.417 78.8301 121.508C79.2266 121.594 79.5957 121.713 79.9375 121.863L79.5547 122.772C79.2448 122.64 78.9144 122.529 78.5635 122.438C78.2126 122.346 77.8548 122.301 77.4902 122.301C76.9661 122.301 76.5628 122.387 76.2803 122.561C76.0023 122.734 75.8633 122.971 75.8633 123.271C75.8633 123.504 75.9271 123.695 76.0547 123.846C76.1868 123.996 76.3965 124.137 76.6836 124.27C76.9707 124.402 77.349 124.557 77.8184 124.734C78.2878 124.908 78.6934 125.088 79.0352 125.274C79.377 125.457 79.639 125.68 79.8213 125.944C80.0081 126.204 80.1016 126.539 80.1016 126.949ZM86.7734 126.949C86.7734 127.428 86.6527 127.831 86.4111 128.159C86.1742 128.483 85.8324 128.727 85.3857 128.891C84.9437 129.055 84.415 129.137 83.7998 129.137C83.2757 129.137 82.8223 129.096 82.4395 129.014C82.0566 128.932 81.7217 128.815 81.4346 128.665V127.619C81.7399 127.77 82.1045 127.906 82.5283 128.029C82.9521 128.152 83.3851 128.214 83.8271 128.214C84.4743 128.214 84.9437 128.109 85.2354 127.899C85.527 127.69 85.6729 127.405 85.6729 127.045C85.6729 126.84 85.6136 126.66 85.4951 126.505C85.3812 126.345 85.1875 126.193 84.9141 126.047C84.6406 125.896 84.2624 125.732 83.7793 125.555C83.3008 125.372 82.8861 125.192 82.5352 125.015C82.1888 124.832 81.9199 124.611 81.7285 124.352C81.5417 124.092 81.4482 123.755 81.4482 123.34C81.4482 122.706 81.7035 122.221 82.2139 121.884C82.7288 121.542 83.4033 121.371 84.2373 121.371C84.6885 121.371 85.11 121.417 85.502 121.508C85.8984 121.594 86.2676 121.713 86.6094 121.863L86.2266 122.772C85.9167 122.64 85.5863 122.529 85.2354 122.438C84.8844 122.346 84.5267 122.301 84.1621 122.301C83.638 122.301 83.2347 122.387 82.9521 122.561C82.6742 122.734 82.5352 122.971 82.5352 123.271C82.5352 123.504 82.599 123.695 82.7266 123.846C82.8587 123.996 83.0684 124.137 83.3555 124.27C83.6426 124.402 84.0208 124.557 84.4902 124.734C84.9596 124.908 85.3652 125.088 85.707 125.274C86.0488 125.457 86.3109 125.68 86.4932 125.944C86.68 126.204 86.7734 126.539 86.7734 126.949ZM95.0176 119.006C96.3073 119.006 97.2484 119.259 97.8408 119.765C98.4378 120.266 98.7363 120.986 98.7363 121.925C98.7363 122.349 98.6657 122.752 98.5244 123.135C98.3877 123.513 98.1644 123.848 97.8545 124.14C97.5446 124.427 97.1367 124.655 96.6309 124.823C96.1296 124.987 95.5143 125.069 94.7852 125.069H93.5684V129H92.4062V119.006H95.0176ZM94.9082 119.997H93.5684V124.071H94.6553C95.2933 124.071 95.8242 124.003 96.248 123.866C96.6764 123.729 96.9977 123.508 97.2119 123.203C97.4261 122.893 97.5332 122.483 97.5332 121.973C97.5332 121.307 97.3213 120.813 96.8975 120.489C96.4736 120.161 95.8105 119.997 94.9082 119.997ZM107.117 125.24C107.117 125.855 107.037 126.405 106.878 126.888C106.718 127.371 106.488 127.779 106.188 128.111C105.887 128.444 105.522 128.699 105.094 128.877C104.67 129.05 104.189 129.137 103.651 129.137C103.15 129.137 102.69 129.05 102.271 128.877C101.856 128.699 101.496 128.444 101.19 128.111C100.89 127.779 100.655 127.371 100.486 126.888C100.322 126.405 100.24 125.855 100.24 125.24C100.24 124.42 100.379 123.723 100.657 123.148C100.935 122.57 101.332 122.13 101.847 121.829C102.366 121.524 102.984 121.371 103.699 121.371C104.383 121.371 104.98 121.524 105.49 121.829C106.005 122.134 106.404 122.576 106.687 123.155C106.974 123.729 107.117 124.424 107.117 125.24ZM101.416 125.24C101.416 125.842 101.496 126.364 101.655 126.806C101.815 127.248 102.061 127.59 102.394 127.831C102.726 128.073 103.155 128.193 103.679 128.193C104.198 128.193 104.624 128.073 104.957 127.831C105.294 127.59 105.543 127.248 105.702 126.806C105.862 126.364 105.941 125.842 105.941 125.24C105.941 124.643 105.862 124.128 105.702 123.695C105.543 123.258 105.297 122.921 104.964 122.684C104.631 122.447 104.201 122.328 103.672 122.328C102.893 122.328 102.321 122.586 101.956 123.101C101.596 123.616 101.416 124.329 101.416 125.24ZM110.214 121.508V129H109.079V121.508H110.214ZM109.66 118.705C109.847 118.705 110.007 118.767 110.139 118.89C110.275 119.008 110.344 119.195 110.344 119.45C110.344 119.701 110.275 119.888 110.139 120.011C110.007 120.134 109.847 120.195 109.66 120.195C109.464 120.195 109.3 120.134 109.168 120.011C109.04 119.888 108.977 119.701 108.977 119.45C108.977 119.195 109.04 119.008 109.168 118.89C109.3 118.767 109.464 118.705 109.66 118.705ZM116.168 121.371C117.057 121.371 117.729 121.59 118.185 122.027C118.64 122.46 118.868 123.158 118.868 124.119V129H117.747V124.194C117.747 123.57 117.604 123.103 117.316 122.793C117.034 122.483 116.599 122.328 116.011 122.328C115.181 122.328 114.598 122.563 114.261 123.032C113.924 123.502 113.755 124.183 113.755 125.076V129H112.62V121.508H113.536L113.707 122.588H113.769C113.928 122.324 114.131 122.103 114.377 121.925C114.623 121.743 114.899 121.606 115.204 121.515C115.509 121.419 115.831 121.371 116.168 121.371ZM123.626 128.207C123.813 128.207 124.004 128.191 124.2 128.159C124.396 128.127 124.556 128.089 124.679 128.043V128.925C124.547 128.984 124.362 129.034 124.125 129.075C123.893 129.116 123.665 129.137 123.441 129.137C123.045 129.137 122.685 129.068 122.361 128.932C122.038 128.79 121.778 128.553 121.582 128.221C121.391 127.888 121.295 127.428 121.295 126.84V122.396H120.229V121.843L121.302 121.398L121.753 119.771H122.437V121.508H124.631V122.396H122.437V126.806C122.437 127.275 122.544 127.626 122.758 127.858C122.977 128.091 123.266 128.207 123.626 128.207Z" fill="#7F7F7F"/>
<path d="M183.009 132.818C180.974 133.653 177.111 134.54 176.119 134.383L175.754 134.331C175.945 134.557 176.594 135.05 177.842 135.219C179.773 135.48 181.704 135.307 182.853 135.219C183.531 135.166 198.302 132.818 207.28 132.139C216.257 131.461 229.097 130.678 231.341 130.678C233.586 130.678 235.401 130.336 235.882 130.156C236.3 129.999 236.857 129.669 237.083 129.529C237.083 129.529 237.031 129.007 236.926 128.851C236.822 128.694 236.665 128.903 236.352 128.903C236.039 128.903 235.204 128.903 231.341 128.172C227.479 127.442 215.526 126.972 207.28 127.494C199.033 128.016 185.045 131.982 183.009 132.818Z" stroke="#808284" stroke-width="0.5" stroke-linejoin="round"/>
<path d="M163.436 115.071C167.159 120.952 174.783 133.005 175.493 134.175C176.38 135.636 179.251 135.584 180.191 135.584C181.13 135.584 203.771 134.473 209.628 133.966C215.057 133.496 231.916 131.565 234.525 130.834C235.882 130.454 236.717 129.895 236.926 129.738" stroke="#808284" stroke-linecap="round"/>
<path d="M183.009 132.818C180.973 133.653 177.111 134.54 176.119 134.383L175.754 134.331C175.945 134.557 176.594 135.05 177.842 135.219C179.773 135.48 181.704 135.307 182.852 135.219C183.531 135.166 198.302 132.818 207.28 132.139C216.257 131.461 229.097 130.678 231.341 130.678C233.586 130.678 235.401 130.336 235.882 130.156C236.3 129.999 236.857 129.669 237.083 129.529C237.083 129.529 237.031 129.007 236.926 128.851C236.822 128.694 236.665 128.903 236.352 128.903C236.039 128.903 235.204 128.903 231.341 128.172C227.479 127.442 215.526 126.972 207.28 127.494C199.033 128.016 185.045 131.982 183.009 132.818Z" fill="#F7F7F7"/>
<path d="M175.18 140.751C174.804 140.083 166.916 126.519 163.018 119.821V115.332C162.897 114.654 163.321 113.057 165.994 112.096C169.334 110.896 182.487 109.278 189.377 109.069C195.588 108.881 203.835 109.121 206.705 109.278C209.576 109.434 212.29 110.269 213.908 111.679C215.526 113.088 236.352 128.224 236.717 128.538C237.01 128.788 237.083 129.407 237.083 129.686L236.822 135.166C236.874 135.323 236.755 135.816 235.726 136.21C232.176 137.567 214.743 139.707 208.741 140.334C201.799 141.058 183.792 142.108 178.833 142.108C177.267 142.108 175.65 141.586 175.18 140.751Z" stroke="#333333"/>
<path d="M177.685 142.056C177.911 142.474 178.405 143.371 178.572 143.622C178.781 143.935 179.512 144.039 180.556 143.987C181.6 143.935 204.2 142.735 211.194 141.847C218.188 140.96 230.819 138.768 231.55 138.507C232.281 138.246 232.698 137.776 232.751 137.567C232.792 137.4 232.872 137.115 232.907 136.993" stroke="#333333"/>
<path d="M202.53 134.383L202.165 133.913L202.53 133.892L202.947 134.383V135.427H202.53V134.383Z" fill="#333333"/>
<path d="M202.53 134.383L202.165 133.913L202.53 133.892L202.947 134.383V135.427H202.53V134.383Z" fill="#808284"/>
<path d="M205.505 134.122L205.087 133.705H205.505L205.923 134.122V135.166H205.505V134.122Z" fill="#808284"/>
<path d="M208.428 133.914L208.01 133.497H208.428L208.845 133.914V134.958H208.428V133.914Z" fill="#808284"/>
<path d="M211.246 133.601L210.829 133.183H211.246L211.664 133.601V134.645H211.246V133.601Z" fill="#808284"/>
<path d="M214.065 133.287L213.647 132.87H214.065L214.482 133.287V134.331H214.065V133.287Z" fill="#808284"/>
<path d="M216.883 132.974L216.466 132.557H216.883L217.301 132.974V134.018H216.883V132.974Z" fill="#808284"/>
<path d="M209.797 125.452C209.332 125.099 209.518 124.894 210.356 124.837C211.17 124.781 211.804 124.925 212.258 125.27L213.152 125.948L212.475 125.994L211.577 125.313C211.326 125.123 211.013 125.041 210.633 125.067C210.253 125.093 210.197 125.197 210.439 125.38L211.35 126.071L210.674 126.118L209.797 125.452Z" fill="#C4C4C4"/>
<path d="M206.5 125.169C206.713 125.105 206.978 125.065 207.278 125.05C207.666 125.014 208.133 125.044 208.571 125.134C208.991 125.229 209.336 125.373 209.524 125.531C209.766 125.701 209.823 125.878 209.681 126.019C209.529 126.159 209.196 126.25 208.76 126.273C208.512 126.293 208.242 126.295 207.961 126.281L207.625 126.026C207.896 126.059 208.165 126.067 208.402 126.049C208.664 126.035 208.86 125.979 208.944 125.893C209.024 125.805 208.983 125.696 208.832 125.593C208.713 125.492 208.496 125.401 208.23 125.339C207.964 125.281 207.677 125.261 207.438 125.282C207.184 125.299 206.968 125.342 206.815 125.407L206.5 125.169Z" fill="#C4C4C4"/>
<path d="M201.248 126.039C200.783 125.686 200.969 125.481 201.808 125.423C202.621 125.367 203.255 125.512 203.709 125.856L204.603 126.534L203.926 126.581L203.028 125.9C202.777 125.709 202.464 125.627 202.084 125.653C201.704 125.679 201.648 125.783 201.89 125.967L202.801 126.658L202.125 126.704L201.248 126.039Z" fill="#C4C4C4"/>
<path d="M200.248 125.602L200.593 125.864C200.259 125.803 199.912 125.781 199.611 125.801C199.535 125.806 199.465 125.814 199.4 125.825C199.35 125.834 199.308 125.846 199.274 125.861C199.248 125.873 199.232 125.888 199.229 125.905C199.227 125.921 199.237 125.938 199.26 125.955C199.289 125.976 199.334 125.996 199.389 126.011C199.452 126.028 199.521 126.041 199.591 126.051C199.679 126.064 199.767 126.074 199.855 126.081C199.953 126.09 200.058 126.099 200.169 126.107C200.412 126.122 200.66 126.158 200.891 126.212C201.08 126.261 201.235 126.327 201.327 126.4C201.403 126.455 201.442 126.512 201.439 126.565C201.435 126.613 201.397 126.656 201.327 126.691C201.25 126.728 201.151 126.758 201.034 126.779C200.906 126.802 200.765 126.819 200.615 126.829C200.477 126.839 200.334 126.845 200.187 126.847C200.064 126.848 199.937 126.845 199.808 126.836L199.485 126.591C199.556 126.601 199.627 126.61 199.697 126.616C199.77 126.622 199.842 126.626 199.914 126.629C199.984 126.632 200.053 126.632 200.121 126.632C200.184 126.631 200.245 126.628 200.304 126.624C200.375 126.62 200.441 126.612 200.502 126.601C200.551 126.593 200.594 126.581 200.629 126.566C200.657 126.554 200.674 126.539 200.679 126.522C200.684 126.506 200.674 126.488 200.651 126.471C200.626 126.452 200.588 126.434 200.541 126.421C200.487 126.405 200.429 126.393 200.37 126.384C200.293 126.372 200.216 126.363 200.139 126.356C200.052 126.347 199.955 126.338 199.848 126.33C199.715 126.321 199.581 126.308 199.446 126.293C199.33 126.278 199.214 126.259 199.103 126.235C198.999 126.212 198.903 126.183 198.82 126.15C198.73 126.113 198.656 126.072 198.602 126.029C198.521 125.972 198.478 125.913 198.479 125.857C198.482 125.809 198.522 125.765 198.595 125.731C198.673 125.695 198.774 125.666 198.895 125.646C199.029 125.623 199.174 125.607 199.328 125.597C199.485 125.585 199.649 125.58 199.819 125.581C199.958 125.581 200.102 125.588 200.248 125.602Z" fill="#C4C4C4"/>
<path d="M205.298 125.206L205.977 125.159L207.526 126.333L206.852 126.38L205.298 125.206Z" fill="#C4C4C4"/>
<path d="M205.704 125.734L203.987 125.296L203.135 125.354L205.251 125.879L204.944 126.511L205.749 126.455L205.93 125.909L205.704 125.734Z" fill="#C4C4C4"/>
<path d="M213.181 125.163C213.121 125.184 213.072 125.21 213.036 125.238C212.917 125.322 212.935 125.435 213.085 125.544C213.413 125.793 213.955 125.892 214.71 125.84L216.104 125.745L214.556 124.57L213.881 124.616L215.161 125.588L214.559 125.629C214.199 125.654 213.941 125.607 213.784 125.487C213.626 125.368 213.725 125.294 214.079 125.265L214.46 125.239L212.464 124.717L211.612 124.775L213.181 125.163Z" fill="#C4C4C4"/>
<path fill-rule="evenodd" clip-rule="evenodd" d="M198.883 126.711C198.795 126.741 198.787 126.794 198.862 126.845C198.905 126.878 198.98 126.907 199.069 126.926C199.158 126.944 199.254 126.951 199.333 126.943C199.462 126.935 199.537 126.895 199.521 126.844C199.506 126.792 199.403 126.739 199.262 126.71C199.122 126.681 198.971 126.681 198.883 126.711ZM199.048 126.73C199.178 126.721 199.339 126.755 199.41 126.807C199.445 126.833 199.453 126.859 199.433 126.88C199.412 126.901 199.364 126.916 199.3 126.92C199.17 126.929 199.009 126.894 198.94 126.841C198.87 126.789 198.919 126.739 199.048 126.73ZM199.144 126.761L199.214 126.757L199.371 126.876C199.336 126.881 199.298 126.885 199.259 126.888C199.224 126.891 199.183 126.891 199.141 126.886C199.113 126.881 199.088 126.872 199.076 126.862C199.061 126.848 199.072 126.835 199.103 126.83C199.066 126.827 199.03 126.817 199.01 126.804C198.992 126.794 198.971 126.785 198.947 126.776L199.024 126.771C199.048 126.779 199.069 126.789 199.086 126.798C199.104 126.812 199.137 126.816 199.175 126.813L199.209 126.811L199.144 126.761ZM199.201 126.831L199.234 126.829L199.281 126.865C199.269 126.867 199.256 126.867 199.242 126.867C199.198 126.87 199.169 126.866 199.153 126.853C199.136 126.841 199.161 126.834 199.201 126.831Z" fill="#C4C4C4"/>
<rect x="171.787" y="189.016" width="51.8676" height="37.0647" rx="1.5" stroke="#333333"/>
<rect x="174.459" y="191.688" width="46.5235" height="31.7205" rx="1" fill="#EBEDEE"/>
<path d="M166.5 226.524C166.5 226.248 166.724 226.024 167 226.024H228.441C228.717 226.024 228.941 226.248 228.941 226.524V229.573C228.941 230.954 227.822 232.073 226.441 232.073H169C167.619 232.073 166.5 230.954 166.5 229.573V226.524Z" stroke="#333333"/>
<path d="M190.672 226.228V228.047C190.672 228.599 191.119 229.047 191.672 229.047H203.77C204.322 229.047 204.77 228.599 204.77 228.047V226.228" stroke="#333333"/>
<rect x="208.794" y="179.5" width="26.4911" height="32.8352" rx="1.5" fill="white" stroke="#333333"/>
<path d="M219.925 182.172H224.154" stroke="#333333" stroke-linecap="round"/>
<path d="M208.823 207.548H235.257" stroke="#333333" stroke-linecap="round"/>
<circle cx="222.04" cy="209.663" r="1.05735" fill="#333333"/>
<path d="M244 217.227V195.755C244 194.677 243.126 193.803 242.048 193.803H230.336C229.258 193.803 228.384 194.677 228.384 195.755V217.227C228.384 218.305 229.258 219.179 230.336 219.179H242.048C243.126 219.179 244 218.305 244 217.227Z" fill="white" stroke="#333333" stroke-linecap="round" stroke-linejoin="round"/>
<path d="M236.192 215.927C237 215.927 237.656 215.271 237.656 214.463C237.656 213.654 237 212.999 236.192 212.999C235.383 212.999 234.728 213.654 234.728 214.463C234.728 215.271 235.383 215.927 236.192 215.927Z" fill="#333333"/>
</svg>
