<svg width="181" height="233" viewBox="0 0 181 233" fill="none" xmlns="http://www.w3.org/2000/svg">
<path d="M133 106.667C134.473 106.667 135.667 105.473 135.667 104C135.667 102.527 134.473 101.333 133 101.333C131.527 101.333 130.333 102.527 130.333 104C130.333 105.473 131.527 106.667 133 106.667ZM133 65.6667C134.473 65.6667 135.667 64.4728 135.667 63C135.667 61.5272 134.473 60.3333 133 60.3333C131.527 60.3333 130.333 61.5272 130.333 63C130.333 64.4728 131.527 65.6667 133 65.6667ZM133.5 104L133.5 63L132.5 63L132.5 104L133.5 104Z" fill="#5496EA"/>
<path d="M134 188.667C135.473 188.667 136.667 187.473 136.667 186C136.667 184.527 135.473 183.333 134 183.333C132.527 183.333 131.333 184.527 131.333 186C131.333 187.473 132.527 188.667 134 188.667ZM134 148.667C135.473 148.667 136.667 147.473 136.667 146C136.667 144.527 135.473 143.333 134 143.333C132.527 143.333 131.333 144.527 131.333 146C131.333 147.473 132.527 148.667 134 148.667ZM134.5 186L134.5 146L133.5 146L133.5 186L134.5 186Z" fill="#5496EA"/>
<path d="M125.926 34.4217H124.576C109.853 34.4217 106 29.8809 106 24.5145C106 19.1481 110.266 14.3321 117.421 14.3321C118.43 9.92896 120.035 2.28649 130.218 1.12259C139.024 0.115985 141.959 5.57159 142.601 7.86492C143.932 7.49798 147.335 7.31452 149.206 8.96571C151.683 11.1511 151.775 13.2313 151.683 14.3321C154.802 14.4239 161.453 16.5819 161.453 24.5145C161.453 34.4217 151.683 34.4217 144.253 34.4217H140.87" stroke="#333333" stroke-width="1.5" stroke-linecap="round"/>
<path d="M132.97 24.2461V39.7855" stroke="#333333" stroke-width="1.5" stroke-linecap="round"/>
<ellipse cx="132.969" cy="45.1472" rx="3.85279" ry="3.85279" stroke="#333333" stroke-width="1.5"/>
<path d="M136.685 45.5576H147.142" stroke="#333333" stroke-width="1.5"/>
<path d="M118.659 45.5576H129.117" stroke="#333333" stroke-width="1.5"/>
<rect x="147.28" y="41.2944" width="7.70557" height="7.70557" stroke="#333333" stroke-width="1.5" stroke-linejoin="round"/>
<rect x="110.953" y="41.2944" width="7.70557" height="7.70557" stroke="#333333" stroke-width="1.5" stroke-linejoin="round"/>
<path d="M2.92676 23.0059C3.74707 23.0059 4.42383 23.1084 4.95703 23.3135C5.49479 23.514 5.89583 23.8216 6.16016 24.2363C6.42448 24.651 6.55664 25.1797 6.55664 25.8223C6.55664 26.3509 6.46094 26.793 6.26953 27.1484C6.07812 27.4993 5.82747 27.7842 5.51758 28.0029C5.20768 28.2217 4.87728 28.3903 4.52637 28.5088L7.26758 33H5.91406L3.4668 28.8301H1.38867V33H0.226562V23.0059H2.92676ZM2.8584 24.0107H1.38867V27.8457H2.97461C3.79036 27.8457 4.38965 27.6794 4.77246 27.3467C5.15983 27.014 5.35352 26.5241 5.35352 25.877C5.35352 25.1979 5.14844 24.7171 4.73828 24.4346C4.33268 24.152 3.70605 24.0107 2.8584 24.0107ZM16.4277 23.0059V29.4727C16.4277 30.179 16.2842 30.8079 15.9971 31.3594C15.7145 31.9108 15.2861 32.346 14.7119 32.665C14.1377 32.9795 13.4176 33.1367 12.5518 33.1367C11.3167 33.1367 10.3757 32.8018 9.72852 32.1318C9.08594 31.4619 8.76465 30.5664 8.76465 29.4453V23.0059H9.93359V29.4795C9.93359 30.3271 10.1569 30.9811 10.6035 31.4414C11.0547 31.9017 11.7269 32.1318 12.6201 32.1318C13.2308 32.1318 13.7298 32.0225 14.1172 31.8037C14.5091 31.5804 14.7985 31.2705 14.9854 30.874C15.1768 30.473 15.2725 30.0104 15.2725 29.4863V23.0059H16.4277ZM23.3525 23.8877C22.8011 23.8877 22.3044 23.9834 21.8623 24.1748C21.4248 24.3617 21.0511 24.6351 20.7412 24.9951C20.4359 25.3506 20.2012 25.7812 20.0371 26.2871C19.873 26.793 19.791 27.3626 19.791 27.9961C19.791 28.8346 19.9209 29.5638 20.1807 30.1836C20.445 30.7988 20.8369 31.2751 21.3564 31.6123C21.8805 31.9495 22.5345 32.1182 23.3184 32.1182C23.765 32.1182 24.1842 32.0817 24.5762 32.0088C24.9727 31.9313 25.3577 31.8356 25.7314 31.7217V32.7334C25.3669 32.8701 24.984 32.9704 24.583 33.0342C24.182 33.1025 23.7057 33.1367 23.1543 33.1367C22.138 33.1367 21.2881 32.9271 20.6045 32.5078C19.9255 32.084 19.415 31.487 19.0732 30.7168C18.736 29.9466 18.5674 29.0374 18.5674 27.9893C18.5674 27.2327 18.6722 26.5423 18.8818 25.918C19.096 25.2891 19.4059 24.7467 19.8115 24.291C20.2217 23.8353 20.723 23.4844 21.3154 23.2383C21.9124 22.9876 22.596 22.8623 23.3662 22.8623C23.8721 22.8623 24.3597 22.9124 24.8291 23.0127C25.2985 23.113 25.7223 23.2565 26.1006 23.4434L25.6357 24.4277C25.3167 24.2819 24.9658 24.1566 24.583 24.0518C24.2048 23.9424 23.7946 23.8877 23.3525 23.8877ZM35.1035 33H33.7295L30.127 28.1396L29.0605 29.0967V33H27.8984V23.0059H29.0605V27.9893C29.3203 27.693 29.5869 27.3991 29.8604 27.1074C30.1338 26.8112 30.4049 26.5127 30.6738 26.2119L33.5928 23.0059H34.9531L30.9746 27.3398L35.1035 33ZM44.0312 23.0059V29.4727C44.0312 30.179 43.8877 30.8079 43.6006 31.3594C43.318 31.9108 42.8896 32.346 42.3154 32.665C41.7412 32.9795 41.0212 33.1367 40.1553 33.1367C38.9202 33.1367 37.9792 32.8018 37.332 32.1318C36.6895 31.4619 36.3682 30.5664 36.3682 29.4453V23.0059H37.5371V29.4795C37.5371 30.3271 37.7604 30.9811 38.207 31.4414C38.6582 31.9017 39.3304 32.1318 40.2236 32.1318C40.8343 32.1318 41.3333 32.0225 41.7207 31.8037C42.1126 31.5804 42.402 31.2705 42.5889 30.874C42.7803 30.473 42.876 30.0104 42.876 29.4863V23.0059H44.0312ZM52.3232 30.3408C52.3232 30.9333 52.1751 31.4391 51.8789 31.8584C51.5872 32.2731 51.1771 32.5898 50.6484 32.8086C50.1198 33.0273 49.4977 33.1367 48.7822 33.1367C48.404 33.1367 48.0462 33.1185 47.709 33.082C47.3717 33.0456 47.0618 32.9932 46.7793 32.9248C46.4967 32.8564 46.2484 32.7721 46.0342 32.6719V31.5576C46.376 31.6989 46.793 31.8311 47.2852 31.9541C47.7773 32.0726 48.2923 32.1318 48.8301 32.1318C49.3314 32.1318 49.7552 32.0658 50.1016 31.9336C50.4479 31.7969 50.71 31.6032 50.8877 31.3525C51.07 31.0973 51.1611 30.792 51.1611 30.4365C51.1611 30.0947 51.0859 29.8099 50.9355 29.582C50.7852 29.3496 50.5345 29.14 50.1836 28.9531C49.8372 28.7617 49.3633 28.5589 48.7617 28.3447C48.3379 28.1943 47.9642 28.0303 47.6406 27.8525C47.3171 27.6702 47.0459 27.4652 46.8271 27.2373C46.6084 27.0094 46.4421 26.7451 46.3281 26.4443C46.2188 26.1436 46.1641 25.7995 46.1641 25.4121C46.1641 24.8789 46.2985 24.4232 46.5674 24.0449C46.8408 23.6621 47.2168 23.3704 47.6953 23.1699C48.1784 22.9648 48.7321 22.8623 49.3564 22.8623C49.8896 22.8623 50.3818 22.9124 50.833 23.0127C51.2887 23.113 51.7057 23.2474 52.084 23.416L51.7217 24.4141C51.3617 24.2637 50.9788 24.1383 50.5732 24.0381C50.1722 23.9378 49.7575 23.8877 49.3291 23.8877C48.9007 23.8877 48.5384 23.9515 48.2422 24.0791C47.9505 24.2021 47.7272 24.3776 47.5723 24.6055C47.4173 24.8333 47.3398 25.1045 47.3398 25.4189C47.3398 25.7699 47.4128 26.0615 47.5586 26.2939C47.709 26.5264 47.946 26.7337 48.2695 26.916C48.5977 27.0938 49.0306 27.2806 49.5684 27.4766C50.1562 27.6908 50.6553 27.9186 51.0654 28.1602C51.4756 28.3971 51.7878 28.6888 52.002 29.0352C52.2161 29.377 52.3232 29.8122 52.3232 30.3408ZM28.1172 51H22.5527V41.0059H28.1172V42.0312H23.7148V45.2646H27.8643V46.2764H23.7148V49.9746H28.1172V51ZM32.8271 51.1367C31.8792 51.1367 31.1273 50.8132 30.5713 50.166C30.0199 49.5189 29.7441 48.5573 29.7441 47.2812C29.7441 45.9915 30.0267 45.0186 30.5918 44.3623C31.1569 43.7015 31.9089 43.3711 32.8477 43.3711C33.2441 43.3711 33.5905 43.4235 33.8867 43.5283C34.1829 43.6331 34.4382 43.7744 34.6523 43.9521C34.8665 44.1253 35.0465 44.3236 35.1924 44.5469H35.2744C35.2562 44.4056 35.238 44.2119 35.2197 43.9658C35.2015 43.7197 35.1924 43.5192 35.1924 43.3643V40.3633H36.3271V51H35.4111L35.2402 49.9336H35.1924C35.0511 50.1569 34.8711 50.3597 34.6523 50.542C34.4382 50.7243 34.1807 50.8701 33.8799 50.9795C33.5837 51.0843 33.2327 51.1367 32.8271 51.1367ZM33.0049 50.1934C33.807 50.1934 34.3743 49.9655 34.707 49.5098C35.0397 49.054 35.2061 48.3773 35.2061 47.4795V47.2744C35.2061 46.3219 35.0465 45.5905 34.7275 45.0801C34.4131 44.5697 33.8389 44.3145 33.0049 44.3145C32.3076 44.3145 31.7858 44.5833 31.4395 45.1211C31.0931 45.6543 30.9199 46.3835 30.9199 47.3086C30.9199 48.2292 31.0908 48.9401 31.4326 49.4414C31.779 49.9427 32.3031 50.1934 33.0049 50.1934ZM40.8252 54.3633C39.8408 54.3633 39.082 54.1787 38.5488 53.8096C38.0156 53.445 37.749 52.9323 37.749 52.2715C37.749 51.8021 37.8971 51.401 38.1934 51.0684C38.4941 50.7357 38.9089 50.5146 39.4375 50.4053C39.2415 50.3141 39.0729 50.1774 38.9316 49.9951C38.7949 49.8128 38.7266 49.6032 38.7266 49.3662C38.7266 49.0928 38.8018 48.8535 38.9521 48.6484C39.1071 48.4388 39.3418 48.2383 39.6562 48.0469C39.2643 47.8874 38.9453 47.6185 38.6992 47.2402C38.4577 46.8574 38.3369 46.4131 38.3369 45.9072C38.3369 45.3695 38.4486 44.9115 38.6719 44.5332C38.8952 44.1504 39.2188 43.8587 39.6426 43.6582C40.0664 43.4577 40.5791 43.3574 41.1807 43.3574C41.3128 43.3574 41.445 43.3643 41.5771 43.3779C41.7139 43.387 41.8438 43.403 41.9668 43.4258C42.0898 43.444 42.1969 43.4668 42.2881 43.4941H44.8584V44.2256L43.4775 44.3965C43.6143 44.5742 43.7282 44.7884 43.8193 45.0391C43.9105 45.2897 43.9561 45.5677 43.9561 45.873C43.9561 46.6204 43.7031 47.2152 43.1973 47.6572C42.6914 48.0947 41.9964 48.3135 41.1123 48.3135C40.9027 48.3135 40.6885 48.2952 40.4697 48.2588C40.2464 48.3818 40.0755 48.5186 39.957 48.6689C39.8431 48.8193 39.7861 48.9925 39.7861 49.1885C39.7861 49.3343 39.8294 49.4505 39.916 49.5371C40.0072 49.6237 40.137 49.6875 40.3057 49.7285C40.4743 49.765 40.6771 49.7832 40.9141 49.7832H42.2334C43.0492 49.7832 43.6735 49.9541 44.1064 50.2959C44.5439 50.6377 44.7627 51.1367 44.7627 51.793C44.7627 52.6224 44.4255 53.2581 43.751 53.7002C43.0765 54.1423 42.1012 54.3633 40.8252 54.3633ZM40.8594 53.4746C41.4792 53.4746 41.9919 53.4108 42.3975 53.2832C42.8076 53.1602 43.113 52.9801 43.3135 52.7432C43.5186 52.5107 43.6211 52.2327 43.6211 51.9092C43.6211 51.6084 43.5527 51.3805 43.416 51.2256C43.2793 51.0752 43.0788 50.9749 42.8145 50.9248C42.5501 50.8701 42.2266 50.8428 41.8438 50.8428H40.5449C40.2077 50.8428 39.9137 50.8952 39.6631 51C39.4124 51.1048 39.2188 51.2598 39.082 51.4648C38.9499 51.6699 38.8838 51.9251 38.8838 52.2305C38.8838 52.6361 39.0547 52.9437 39.3965 53.1533C39.7383 53.3675 40.2259 53.4746 40.8594 53.4746ZM41.1533 47.4863C41.6956 47.4863 42.1035 47.3496 42.377 47.0762C42.6504 46.8027 42.7871 46.404 42.7871 45.8799C42.7871 45.3193 42.6481 44.9001 42.3701 44.6221C42.0921 44.3395 41.682 44.1982 41.1396 44.1982C40.6201 44.1982 40.2191 44.3441 39.9365 44.6357C39.6585 44.9229 39.5195 45.3444 39.5195 45.9004C39.5195 46.4108 39.6608 46.8027 39.9434 47.0762C40.2259 47.3496 40.6292 47.4863 41.1533 47.4863ZM49.2197 43.3711C49.8577 43.3711 50.4046 43.5124 50.8604 43.7949C51.3161 44.0775 51.6647 44.474 51.9062 44.9844C52.1478 45.4902 52.2686 46.0827 52.2686 46.7617V47.4658H47.0938C47.1074 48.3454 47.3262 49.0153 47.75 49.4756C48.1738 49.9359 48.7708 50.166 49.541 50.166C50.015 50.166 50.4342 50.1227 50.7988 50.0361C51.1634 49.9495 51.5417 49.8219 51.9336 49.6533V50.6514C51.5553 50.82 51.1794 50.943 50.8057 51.0205C50.4365 51.098 49.999 51.1367 49.4932 51.1367C48.7731 51.1367 48.1442 50.9909 47.6064 50.6992C47.0732 50.403 46.6585 49.9701 46.3623 49.4004C46.0661 48.8307 45.918 48.1335 45.918 47.3086C45.918 46.502 46.0524 45.8047 46.3213 45.2168C46.5947 44.6243 46.9775 44.1686 47.4697 43.8496C47.9665 43.5306 48.5498 43.3711 49.2197 43.3711ZM49.2061 44.3008C48.5999 44.3008 48.1169 44.499 47.7568 44.8955C47.3968 45.292 47.1826 45.8457 47.1143 46.5566H51.0791C51.0745 46.11 51.0039 45.7181 50.8672 45.3809C50.735 45.0391 50.5322 44.7747 50.2588 44.5879C49.9854 44.3965 49.6344 44.3008 49.2061 44.3008Z" fill="#7F7F7F"/>
<path d="M50.9951 129L49.7646 125.828H45.7588L44.5352 129H43.3594L47.2695 118.965H48.3154L52.1982 129H50.9951ZM49.416 124.796L48.2471 121.645C48.2197 121.562 48.1742 121.428 48.1104 121.241C48.0511 121.054 47.9896 120.861 47.9258 120.66C47.862 120.46 47.8096 120.298 47.7686 120.175C47.723 120.362 47.6729 120.549 47.6182 120.735C47.568 120.918 47.5179 121.089 47.4678 121.248C47.4176 121.403 47.3743 121.535 47.3379 121.645L46.1484 124.796H49.416ZM56.1973 119.006C57.487 119.006 58.4281 119.259 59.0205 119.765C59.6175 120.266 59.916 120.986 59.916 121.925C59.916 122.349 59.8454 122.752 59.7041 123.135C59.5674 123.513 59.3441 123.848 59.0342 124.14C58.7243 124.427 58.3164 124.655 57.8105 124.823C57.3092 124.987 56.694 125.069 55.9648 125.069H54.748V129H53.5859V119.006H56.1973ZM56.0879 119.997H54.748V124.071H55.835C56.473 124.071 57.0039 124.003 57.4277 123.866C57.8561 123.729 58.1774 123.508 58.3916 123.203C58.6058 122.893 58.7129 122.483 58.7129 121.973C58.7129 121.307 58.501 120.813 58.0771 120.489C57.6533 120.161 56.9902 119.997 56.0879 119.997Z" fill="#7F7F7F"/>
<path d="M119.009 132.818C116.974 133.653 113.111 134.54 112.119 134.383L111.754 134.331C111.945 134.557 112.594 135.05 113.842 135.219C115.773 135.48 117.704 135.307 118.853 135.219C119.531 135.166 134.302 132.818 143.28 132.139C152.257 131.461 165.097 130.678 167.341 130.678C169.586 130.678 171.401 130.336 171.882 130.156C172.3 129.999 172.857 129.669 173.083 129.529C173.083 129.529 173.031 129.007 172.926 128.851C172.822 128.694 172.665 128.903 172.352 128.903C172.039 128.903 171.204 128.903 167.341 128.172C163.479 127.442 151.526 126.972 143.28 127.494C135.033 128.016 121.045 131.982 119.009 132.818Z" stroke="#808284" stroke-width="0.5" stroke-linejoin="round"/>
<path d="M99.436 115.071C103.159 120.952 110.783 133.005 111.493 134.175C112.38 135.636 115.251 135.584 116.191 135.584C117.13 135.584 139.771 134.473 145.628 133.966C151.057 133.496 167.916 131.565 170.525 130.834C171.882 130.454 172.717 129.895 172.926 129.738" stroke="#808284" stroke-linecap="round"/>
<path d="M119.009 132.818C116.973 133.653 113.111 134.54 112.119 134.383L111.754 134.331C111.945 134.557 112.594 135.05 113.842 135.219C115.773 135.48 117.704 135.307 118.852 135.219C119.531 135.166 134.302 132.818 143.28 132.139C152.257 131.461 165.097 130.678 167.341 130.678C169.586 130.678 171.401 130.336 171.882 130.156C172.3 129.999 172.857 129.669 173.083 129.529C173.083 129.529 173.031 129.007 172.926 128.851C172.822 128.694 172.665 128.903 172.352 128.903C172.039 128.903 171.204 128.903 167.341 128.172C163.479 127.442 151.526 126.972 143.28 127.494C135.033 128.016 121.045 131.982 119.009 132.818Z" fill="#F7F7F7"/>
<path d="M111.18 140.751C110.804 140.083 102.916 126.519 99.0185 119.821V115.332C98.8967 114.654 99.3212 113.057 101.994 112.096C105.334 110.896 118.487 109.278 125.377 109.069C131.588 108.881 139.835 109.121 142.705 109.278C145.576 109.434 148.29 110.269 149.908 111.679C151.526 113.088 172.352 128.224 172.717 128.538C173.01 128.788 173.083 129.407 173.083 129.686L172.822 135.166C172.874 135.323 172.755 135.816 171.726 136.21C168.176 137.567 150.743 139.707 144.741 140.334C137.799 141.058 119.792 142.108 114.833 142.108C113.267 142.108 111.65 141.586 111.18 140.751Z" stroke="#333333"/>
<path d="M113.685 142.056C113.911 142.474 114.405 143.371 114.572 143.622C114.781 143.935 115.512 144.039 116.556 143.987C117.6 143.935 140.2 142.735 147.194 141.847C154.188 140.96 166.819 138.768 167.55 138.507C168.281 138.246 168.698 137.776 168.751 137.567C168.792 137.4 168.872 137.115 168.907 136.993" stroke="#333333"/>
<path d="M138.53 134.383L138.165 133.913L138.53 133.892L138.947 134.383V135.427H138.53V134.383Z" fill="#333333"/>
<path d="M138.53 134.383L138.165 133.913L138.53 133.892L138.947 134.383V135.427H138.53V134.383Z" fill="#808284"/>
<path d="M141.505 134.122L141.087 133.705H141.505L141.923 134.122V135.166H141.505V134.122Z" fill="#808284"/>
<path d="M144.428 133.914L144.01 133.497H144.428L144.845 133.914V134.958H144.428V133.914Z" fill="#808284"/>
<path d="M147.246 133.601L146.829 133.183H147.246L147.664 133.601V134.645H147.246V133.601Z" fill="#808284"/>
<path d="M150.065 133.287L149.647 132.87H150.065L150.482 133.287V134.331H150.065V133.287Z" fill="#808284"/>
<path d="M152.883 132.974L152.466 132.557H152.883L153.301 132.974V134.018H152.883V132.974Z" fill="#808284"/>
<path d="M145.797 125.452C145.332 125.099 145.518 124.894 146.356 124.837C147.17 124.781 147.804 124.925 148.258 125.27L149.152 125.948L148.475 125.994L147.577 125.313C147.326 125.123 147.013 125.041 146.633 125.067C146.253 125.093 146.197 125.197 146.439 125.38L147.35 126.071L146.674 126.118L145.797 125.452Z" fill="#C4C4C4"/>
<path d="M142.5 125.169C142.713 125.105 142.978 125.065 143.278 125.05C143.666 125.014 144.133 125.044 144.571 125.134C144.991 125.229 145.336 125.373 145.524 125.531C145.766 125.701 145.823 125.878 145.682 126.019C145.529 126.159 145.196 126.25 144.76 126.273C144.512 126.293 144.242 126.295 143.961 126.281L143.625 126.026C143.897 126.059 144.165 126.067 144.403 126.049C144.664 126.035 144.86 125.979 144.944 125.893C145.024 125.805 144.983 125.696 144.832 125.593C144.713 125.492 144.496 125.401 144.23 125.339C143.964 125.281 143.677 125.261 143.439 125.282C143.184 125.299 142.968 125.342 142.815 125.407L142.5 125.169Z" fill="#C4C4C4"/>
<path d="M137.248 126.039C136.783 125.686 136.97 125.481 137.808 125.423C138.621 125.367 139.255 125.512 139.709 125.856L140.603 126.534L139.926 126.581L139.028 125.9C138.777 125.709 138.464 125.627 138.084 125.653C137.704 125.679 137.648 125.783 137.89 125.967L138.801 126.658L138.126 126.704L137.248 126.039Z" fill="#C4C4C4"/>
<path d="M136.248 125.602L136.593 125.864C136.259 125.803 135.912 125.781 135.611 125.801C135.535 125.806 135.465 125.814 135.4 125.825C135.35 125.834 135.308 125.846 135.274 125.861C135.248 125.873 135.232 125.888 135.229 125.905C135.227 125.921 135.237 125.938 135.26 125.955C135.289 125.976 135.334 125.996 135.389 126.011C135.453 126.028 135.521 126.041 135.591 126.051C135.679 126.064 135.767 126.074 135.855 126.081C135.953 126.09 136.058 126.099 136.169 126.107C136.412 126.122 136.66 126.158 136.891 126.212C137.08 126.261 137.235 126.327 137.327 126.4C137.403 126.455 137.442 126.512 137.439 126.565C137.435 126.613 137.397 126.656 137.327 126.691C137.251 126.728 137.151 126.758 137.034 126.779C136.906 126.802 136.765 126.819 136.615 126.829C136.477 126.839 136.334 126.845 136.187 126.847C136.064 126.848 135.937 126.845 135.808 126.836L135.485 126.591C135.556 126.601 135.627 126.61 135.697 126.616C135.77 126.622 135.842 126.626 135.914 126.629C135.984 126.632 136.053 126.632 136.121 126.632C136.184 126.631 136.245 126.628 136.304 126.624C136.375 126.62 136.441 126.612 136.502 126.601C136.551 126.593 136.594 126.581 136.629 126.566C136.657 126.554 136.674 126.539 136.679 126.522C136.684 126.506 136.674 126.488 136.651 126.471C136.626 126.452 136.588 126.434 136.541 126.421C136.487 126.405 136.429 126.393 136.37 126.384C136.293 126.372 136.216 126.363 136.14 126.356C136.052 126.347 135.955 126.338 135.848 126.33C135.715 126.321 135.581 126.308 135.446 126.293C135.33 126.278 135.214 126.259 135.103 126.235C134.999 126.212 134.903 126.183 134.82 126.15C134.73 126.113 134.656 126.072 134.602 126.029C134.521 125.972 134.478 125.913 134.479 125.857C134.482 125.809 134.522 125.765 134.595 125.731C134.673 125.695 134.774 125.666 134.895 125.646C135.029 125.623 135.174 125.607 135.328 125.597C135.485 125.585 135.649 125.58 135.819 125.581C135.958 125.581 136.102 125.588 136.248 125.602Z" fill="#C4C4C4"/>
<path d="M141.298 125.206L141.977 125.159L143.526 126.333L142.852 126.38L141.298 125.206Z" fill="#C4C4C4"/>
<path d="M141.704 125.734L139.987 125.296L139.135 125.354L141.251 125.879L140.944 126.511L141.749 126.455L141.93 125.909L141.704 125.734Z" fill="#C4C4C4"/>
<path d="M149.181 125.163C149.121 125.184 149.073 125.21 149.036 125.238C148.917 125.322 148.935 125.435 149.085 125.544C149.413 125.793 149.955 125.892 150.71 125.84L152.104 125.745L150.556 124.57L149.881 124.616L151.161 125.588L150.559 125.629C150.2 125.654 149.941 125.607 149.784 125.487C149.627 125.368 149.725 125.294 150.079 125.265L150.46 125.239L148.464 124.717L147.612 124.775L149.181 125.163Z" fill="#C4C4C4"/>
<path fill-rule="evenodd" clip-rule="evenodd" d="M134.883 126.711C134.795 126.741 134.787 126.794 134.862 126.845C134.905 126.878 134.98 126.907 135.069 126.926C135.158 126.944 135.254 126.951 135.333 126.943C135.462 126.935 135.537 126.895 135.521 126.844C135.506 126.792 135.403 126.739 135.262 126.71C135.122 126.681 134.971 126.681 134.883 126.711ZM135.048 126.73C135.178 126.721 135.339 126.755 135.41 126.807C135.445 126.833 135.453 126.859 135.433 126.88C135.412 126.901 135.364 126.916 135.3 126.92C135.171 126.929 135.009 126.894 134.94 126.841C134.87 126.789 134.919 126.739 135.048 126.73ZM135.144 126.761L135.214 126.757L135.371 126.876C135.336 126.881 135.299 126.885 135.259 126.888C135.224 126.891 135.183 126.891 135.142 126.886C135.113 126.881 135.088 126.872 135.076 126.862C135.061 126.848 135.072 126.835 135.103 126.83C135.066 126.827 135.03 126.817 135.01 126.804C134.992 126.794 134.971 126.785 134.947 126.776L135.024 126.771C135.048 126.779 135.069 126.789 135.086 126.798C135.104 126.812 135.137 126.816 135.175 126.813L135.209 126.811L135.144 126.761ZM135.201 126.831L135.234 126.829L135.281 126.865C135.269 126.867 135.256 126.867 135.243 126.867C135.198 126.87 135.169 126.866 135.153 126.853C135.136 126.841 135.161 126.834 135.201 126.831Z" fill="#C4C4C4"/>
<rect x="107.787" y="189.016" width="51.8676" height="37.0647" rx="1.5" stroke="#333333"/>
<rect x="110.459" y="191.688" width="46.5235" height="31.7205" rx="1" fill="#EBEDEE"/>
<path d="M102.5 226.524C102.5 226.248 102.724 226.024 103 226.024H164.441C164.717 226.024 164.941 226.248 164.941 226.524V229.573C164.941 230.954 163.822 232.073 162.441 232.073H105C103.619 232.073 102.5 230.954 102.5 229.573V226.524Z" stroke="#333333"/>
<path d="M126.672 226.228V228.047C126.672 228.599 127.119 229.047 127.672 229.047H139.77C140.322 229.047 140.77 228.599 140.77 228.047V226.228" stroke="#333333"/>
<rect x="144.794" y="179.5" width="26.4911" height="32.8352" rx="1.5" fill="white" stroke="#333333"/>
<path d="M155.925 182.172H160.154" stroke="#333333" stroke-linecap="round"/>
<path d="M144.823 207.548H171.257" stroke="#333333" stroke-linecap="round"/>
<circle cx="158.04" cy="209.663" r="1.05735" fill="#333333"/>
<path d="M180 217.227V195.755C180 194.677 179.126 193.803 178.048 193.803H166.336C165.258 193.803 164.384 194.677 164.384 195.755V217.227C164.384 218.305 165.258 219.179 166.336 219.179H178.048C179.126 219.179 180 218.305 180 217.227Z" fill="white" stroke="#333333" stroke-linecap="round" stroke-linejoin="round"/>
<path d="M172.192 215.927C173 215.927 173.656 215.271 173.656 214.463C173.656 213.654 173 212.999 172.192 212.999C171.383 212.999 170.728 213.654 170.728 214.463C170.728 215.271 171.383 215.927 172.192 215.927Z" fill="#333333"/>
</svg>
