<svg width="394" height="334" viewBox="0 0 394 334" fill="none" xmlns="http://www.w3.org/2000/svg">
<path fill-rule="evenodd" clip-rule="evenodd" d="M167.824 167.038C164.333 167.038 161.168 165.59 158.859 163.252L156.294 165.885C159.26 168.899 163.333 170.765 167.824 170.765C172.437 170.765 176.603 168.792 179.588 165.633L177.023 163C174.697 165.484 171.437 167.038 167.824 167.038Z" fill="#EC7100"/>
<path fill-rule="evenodd" clip-rule="evenodd" d="M168.176 174.946C162.351 174.946 157.069 172.63 153.226 168.889L150.647 171.422C155.15 175.811 161.345 178.529 168.176 178.529C175.131 178.529 181.42 175.708 185.941 171.179L183.362 168.647C179.501 172.528 174.125 174.946 168.176 174.946Z" fill="#EC7100"/>
<path fill-rule="evenodd" clip-rule="evenodd" d="M168.177 183.517C160.131 183.517 152.835 180.349 147.534 175.232L145 177.694C150.949 183.442 159.143 187 168.177 187C177.332 187 185.62 183.345 191.588 177.462L189.054 175C183.735 180.252 176.343 183.517 168.177 183.517Z" fill="#EC7100"/>
<path d="M189.926 34.4217H188.576C173.853 34.4217 170 29.8809 170 24.5145C170 19.1481 174.266 14.3321 181.421 14.3321C182.43 9.92896 184.035 2.28649 194.218 1.12259C203.024 0.115985 205.959 5.57159 206.601 7.86492C207.932 7.49798 211.335 7.31452 213.206 8.96571C215.683 11.1511 215.775 13.2313 215.683 14.3321C218.802 14.4239 225.453 16.5819 225.453 24.5145C225.453 34.4217 215.683 34.4217 208.253 34.4217H204.87" stroke="#333333" stroke-width="1.5" stroke-linecap="round"/>
<path d="M196.97 24.2461V39.7855" stroke="#333333" stroke-width="1.5" stroke-linecap="round"/>
<ellipse cx="196.969" cy="45.1472" rx="3.85279" ry="3.85279" stroke="#333333" stroke-width="1.5"/>
<path d="M200.685 45.5576H211.142" stroke="#333333" stroke-width="1.5"/>
<path d="M182.659 45.5576H193.117" stroke="#333333" stroke-width="1.5"/>
<rect x="211.28" y="41.2944" width="7.70557" height="7.70557" stroke="#333333" stroke-width="1.5" stroke-linejoin="round"/>
<rect x="174.953" y="41.2944" width="7.70557" height="7.70557" stroke="#333333" stroke-width="1.5" stroke-linejoin="round"/>
<path d="M48.2715 23.0059C49.0918 23.0059 49.7686 23.1084 50.3018 23.3135C50.8395 23.514 51.2406 23.8216 51.5049 24.2363C51.7692 24.651 51.9014 25.1797 51.9014 25.8223C51.9014 26.3509 51.8057 26.793 51.6143 27.1484C51.4229 27.4993 51.1722 27.7842 50.8623 28.0029C50.5524 28.2217 50.222 28.3903 49.8711 28.5088L52.6123 33H51.2588L48.8115 28.8301H46.7334V33H45.5713V23.0059H48.2715ZM48.2031 24.0107H46.7334V27.8457H48.3193C49.1351 27.8457 49.7344 27.6794 50.1172 27.3467C50.5046 27.014 50.6982 26.5241 50.6982 25.877C50.6982 25.1979 50.4932 24.7171 50.083 24.4346C49.6774 24.152 49.0508 24.0107 48.2031 24.0107ZM61.7725 23.0059V29.4727C61.7725 30.179 61.6289 30.8079 61.3418 31.3594C61.0592 31.9108 60.6309 32.346 60.0566 32.665C59.4824 32.9795 58.7624 33.1367 57.8965 33.1367C56.6615 33.1367 55.7204 32.8018 55.0732 32.1318C54.4307 31.4619 54.1094 30.5664 54.1094 29.4453V23.0059H55.2783V29.4795C55.2783 30.3271 55.5016 30.9811 55.9482 31.4414C56.3994 31.9017 57.0716 32.1318 57.9648 32.1318C58.5755 32.1318 59.0745 32.0225 59.4619 31.8037C59.8538 31.5804 60.1432 31.2705 60.3301 30.874C60.5215 30.473 60.6172 30.0104 60.6172 29.4863V23.0059H61.7725ZM68.6973 23.8877C68.1458 23.8877 67.6491 23.9834 67.207 24.1748C66.7695 24.3617 66.3958 24.6351 66.0859 24.9951C65.7806 25.3506 65.5459 25.7812 65.3818 26.2871C65.2178 26.793 65.1357 27.3626 65.1357 27.9961C65.1357 28.8346 65.2656 29.5638 65.5254 30.1836C65.7897 30.7988 66.1816 31.2751 66.7012 31.6123C67.2253 31.9495 67.8792 32.1182 68.6631 32.1182C69.1097 32.1182 69.529 32.0817 69.9209 32.0088C70.3174 31.9313 70.7025 31.8356 71.0762 31.7217V32.7334C70.7116 32.8701 70.3288 32.9704 69.9277 33.0342C69.5267 33.1025 69.0505 33.1367 68.499 33.1367C67.4827 33.1367 66.6328 32.9271 65.9492 32.5078C65.2702 32.084 64.7598 31.487 64.418 30.7168C64.0807 29.9466 63.9121 29.0374 63.9121 27.9893C63.9121 27.2327 64.0169 26.5423 64.2266 25.918C64.4408 25.2891 64.7507 24.7467 65.1562 24.291C65.5664 23.8353 66.0677 23.4844 66.6602 23.2383C67.2572 22.9876 67.9408 22.8623 68.7109 22.8623C69.2168 22.8623 69.7044 22.9124 70.1738 23.0127C70.6432 23.113 71.0671 23.2565 71.4453 23.4434L70.9805 24.4277C70.6615 24.2819 70.3105 24.1566 69.9277 24.0518C69.5495 23.9424 69.1393 23.8877 68.6973 23.8877ZM80.4482 33H79.0742L75.4717 28.1396L74.4053 29.0967V33H73.2432V23.0059H74.4053V27.9893C74.665 27.693 74.9316 27.3991 75.2051 27.1074C75.4785 26.8112 75.7497 26.5127 76.0186 26.2119L78.9375 23.0059H80.2979L76.3193 27.3398L80.4482 33ZM89.376 23.0059V29.4727C89.376 30.179 89.2324 30.8079 88.9453 31.3594C88.6628 31.9108 88.2344 32.346 87.6602 32.665C87.0859 32.9795 86.3659 33.1367 85.5 33.1367C84.265 33.1367 83.3239 32.8018 82.6768 32.1318C82.0342 31.4619 81.7129 30.5664 81.7129 29.4453V23.0059H82.8818V29.4795C82.8818 30.3271 83.1051 30.9811 83.5518 31.4414C84.0029 31.9017 84.6751 32.1318 85.5684 32.1318C86.179 32.1318 86.6781 32.0225 87.0654 31.8037C87.4574 31.5804 87.7467 31.2705 87.9336 30.874C88.125 30.473 88.2207 30.0104 88.2207 29.4863V23.0059H89.376ZM97.668 30.3408C97.668 30.9333 97.5199 31.4391 97.2236 31.8584C96.932 32.2731 96.5218 32.5898 95.9932 32.8086C95.4645 33.0273 94.8424 33.1367 94.127 33.1367C93.7487 33.1367 93.391 33.1185 93.0537 33.082C92.7165 33.0456 92.4066 32.9932 92.124 32.9248C91.8415 32.8564 91.5931 32.7721 91.3789 32.6719V31.5576C91.7207 31.6989 92.1377 31.8311 92.6299 31.9541C93.1221 32.0726 93.637 32.1318 94.1748 32.1318C94.6761 32.1318 95.0999 32.0658 95.4463 31.9336C95.7926 31.7969 96.0547 31.6032 96.2324 31.3525C96.4147 31.0973 96.5059 30.792 96.5059 30.4365C96.5059 30.0947 96.4307 29.8099 96.2803 29.582C96.1299 29.3496 95.8792 29.14 95.5283 28.9531C95.182 28.7617 94.708 28.5589 94.1064 28.3447C93.6826 28.1943 93.3089 28.0303 92.9854 27.8525C92.6618 27.6702 92.3906 27.4652 92.1719 27.2373C91.9531 27.0094 91.7868 26.7451 91.6729 26.4443C91.5635 26.1436 91.5088 25.7995 91.5088 25.4121C91.5088 24.8789 91.6432 24.4232 91.9121 24.0449C92.1855 23.6621 92.5615 23.3704 93.04 23.1699C93.5231 22.9648 94.0768 22.8623 94.7012 22.8623C95.2344 22.8623 95.7266 22.9124 96.1777 23.0127C96.6335 23.113 97.0505 23.2474 97.4287 23.416L97.0664 24.4141C96.7064 24.2637 96.3236 24.1383 95.918 24.0381C95.5169 23.9378 95.1022 23.8877 94.6738 23.8877C94.2454 23.8877 93.8831 23.9515 93.5869 24.0791C93.2952 24.2021 93.0719 24.3776 92.917 24.6055C92.762 24.8333 92.6846 25.1045 92.6846 25.4189C92.6846 25.7699 92.7575 26.0615 92.9033 26.2939C93.0537 26.5264 93.2907 26.7337 93.6143 26.916C93.9424 27.0938 94.3753 27.2806 94.9131 27.4766C95.501 27.6908 96 27.9186 96.4102 28.1602C96.8203 28.3971 97.1325 28.6888 97.3467 29.0352C97.5609 29.377 97.668 29.8122 97.668 30.3408ZM108.913 33H103.349V23.0059H108.913V24.0312H104.511V27.2646H108.66V28.2764H104.511V31.9746H108.913V33ZM113.623 33.1367C112.675 33.1367 111.923 32.8132 111.367 32.166C110.816 31.5189 110.54 30.5573 110.54 29.2812C110.54 27.9915 110.823 27.0186 111.388 26.3623C111.953 25.7015 112.705 25.3711 113.644 25.3711C114.04 25.3711 114.386 25.4235 114.683 25.5283C114.979 25.6331 115.234 25.7744 115.448 25.9521C115.662 26.1253 115.842 26.3236 115.988 26.5469H116.07C116.052 26.4056 116.034 26.2119 116.016 25.9658C115.997 25.7197 115.988 25.5192 115.988 25.3643V22.3633H117.123V33H116.207L116.036 31.9336H115.988C115.847 32.1569 115.667 32.3597 115.448 32.542C115.234 32.7243 114.977 32.8701 114.676 32.9795C114.38 33.0843 114.029 33.1367 113.623 33.1367ZM113.801 32.1934C114.603 32.1934 115.17 31.9655 115.503 31.5098C115.836 31.054 116.002 30.3773 116.002 29.4795V29.2744C116.002 28.3219 115.842 27.5905 115.523 27.0801C115.209 26.5697 114.635 26.3145 113.801 26.3145C113.104 26.3145 112.582 26.5833 112.235 27.1211C111.889 27.6543 111.716 28.3835 111.716 29.3086C111.716 30.2292 111.887 30.9401 112.229 31.4414C112.575 31.9427 113.099 32.1934 113.801 32.1934ZM121.621 36.3633C120.637 36.3633 119.878 36.1787 119.345 35.8096C118.812 35.445 118.545 34.9323 118.545 34.2715C118.545 33.8021 118.693 33.401 118.989 33.0684C119.29 32.7357 119.705 32.5146 120.233 32.4053C120.037 32.3141 119.869 32.1774 119.728 31.9951C119.591 31.8128 119.522 31.6032 119.522 31.3662C119.522 31.0928 119.598 30.8535 119.748 30.6484C119.903 30.4388 120.138 30.2383 120.452 30.0469C120.06 29.8874 119.741 29.6185 119.495 29.2402C119.254 28.8574 119.133 28.4131 119.133 27.9072C119.133 27.3695 119.244 26.9115 119.468 26.5332C119.691 26.1504 120.015 25.8587 120.438 25.6582C120.862 25.4577 121.375 25.3574 121.977 25.3574C122.109 25.3574 122.241 25.3643 122.373 25.3779C122.51 25.387 122.64 25.403 122.763 25.4258C122.886 25.444 122.993 25.4668 123.084 25.4941H125.654V26.2256L124.273 26.3965C124.41 26.5742 124.524 26.7884 124.615 27.0391C124.706 27.2897 124.752 27.5677 124.752 27.873C124.752 28.6204 124.499 29.2152 123.993 29.6572C123.487 30.0947 122.792 30.3135 121.908 30.3135C121.699 30.3135 121.484 30.2952 121.266 30.2588C121.042 30.3818 120.871 30.5186 120.753 30.6689C120.639 30.8193 120.582 30.9925 120.582 31.1885C120.582 31.3343 120.625 31.4505 120.712 31.5371C120.803 31.6237 120.933 31.6875 121.102 31.7285C121.27 31.765 121.473 31.7832 121.71 31.7832H123.029C123.845 31.7832 124.469 31.9541 124.902 32.2959C125.34 32.6377 125.559 33.1367 125.559 33.793C125.559 34.6224 125.221 35.2581 124.547 35.7002C123.872 36.1423 122.897 36.3633 121.621 36.3633ZM121.655 35.4746C122.275 35.4746 122.788 35.4108 123.193 35.2832C123.604 35.1602 123.909 34.9801 124.109 34.7432C124.314 34.5107 124.417 34.2327 124.417 33.9092C124.417 33.6084 124.349 33.3805 124.212 33.2256C124.075 33.0752 123.875 32.9749 123.61 32.9248C123.346 32.8701 123.022 32.8428 122.64 32.8428H121.341C121.004 32.8428 120.71 32.8952 120.459 33C120.208 33.1048 120.015 33.2598 119.878 33.4648C119.746 33.6699 119.68 33.9251 119.68 34.2305C119.68 34.6361 119.851 34.9437 120.192 35.1533C120.534 35.3675 121.022 35.4746 121.655 35.4746ZM121.949 29.4863C122.492 29.4863 122.899 29.3496 123.173 29.0762C123.446 28.8027 123.583 28.404 123.583 27.8799C123.583 27.3193 123.444 26.9001 123.166 26.6221C122.888 26.3395 122.478 26.1982 121.936 26.1982C121.416 26.1982 121.015 26.3441 120.732 26.6357C120.454 26.9229 120.315 27.3444 120.315 27.9004C120.315 28.4108 120.457 28.8027 120.739 29.0762C121.022 29.3496 121.425 29.4863 121.949 29.4863ZM130.016 25.3711C130.654 25.3711 131.201 25.5124 131.656 25.7949C132.112 26.0775 132.461 26.474 132.702 26.9844C132.944 27.4902 133.064 28.0827 133.064 28.7617V29.4658H127.89C127.903 30.3454 128.122 31.0153 128.546 31.4756C128.97 31.9359 129.567 32.166 130.337 32.166C130.811 32.166 131.23 32.1227 131.595 32.0361C131.959 31.9495 132.338 31.8219 132.729 31.6533V32.6514C132.351 32.82 131.975 32.943 131.602 33.0205C131.232 33.098 130.795 33.1367 130.289 33.1367C129.569 33.1367 128.94 32.9909 128.402 32.6992C127.869 32.403 127.454 31.9701 127.158 31.4004C126.862 30.8307 126.714 30.1335 126.714 29.3086C126.714 28.502 126.848 27.8047 127.117 27.2168C127.391 26.6243 127.773 26.1686 128.266 25.8496C128.762 25.5306 129.346 25.3711 130.016 25.3711ZM130.002 26.3008C129.396 26.3008 128.913 26.499 128.553 26.8955C128.193 27.292 127.979 27.8457 127.91 28.5566H131.875C131.87 28.11 131.8 27.7181 131.663 27.3809C131.531 27.0391 131.328 26.7747 131.055 26.5879C130.781 26.3965 130.43 26.3008 130.002 26.3008Z" fill="#7F7F7F"/>
<path d="M114.995 122L113.765 118.828H109.759L108.535 122H107.359L111.27 111.965H112.315L116.198 122H114.995ZM113.416 117.796L112.247 114.645C112.22 114.562 112.174 114.428 112.11 114.241C112.051 114.054 111.99 113.861 111.926 113.66C111.862 113.46 111.81 113.298 111.769 113.175C111.723 113.362 111.673 113.549 111.618 113.735C111.568 113.918 111.518 114.089 111.468 114.248C111.418 114.403 111.374 114.535 111.338 114.645L110.148 117.796H113.416ZM120.197 112.006C121.487 112.006 122.428 112.259 123.021 112.765C123.618 113.266 123.916 113.986 123.916 114.925C123.916 115.349 123.845 115.752 123.704 116.135C123.567 116.513 123.344 116.848 123.034 117.14C122.724 117.427 122.316 117.655 121.811 117.823C121.309 117.987 120.694 118.069 119.965 118.069H118.748V122H117.586V112.006H120.197ZM120.088 112.997H118.748V117.071H119.835C120.473 117.071 121.004 117.003 121.428 116.866C121.856 116.729 122.177 116.508 122.392 116.203C122.606 115.893 122.713 115.483 122.713 114.973C122.713 114.307 122.501 113.813 122.077 113.489C121.653 113.161 120.99 112.997 120.088 112.997Z" fill="#7F7F7F"/>
<path d="M42.0322 171.907C42.0322 173.033 41.8271 173.974 41.417 174.73C41.0068 175.482 40.4121 176.05 39.6328 176.433C38.8581 176.811 37.917 177 36.8096 177H34.0957V167.006H37.1104C38.1266 167.006 39.0016 167.193 39.7354 167.566C40.4691 167.936 41.0342 168.485 41.4307 169.214C41.8317 169.938 42.0322 170.836 42.0322 171.907ZM40.8086 171.948C40.8086 171.05 40.6582 170.31 40.3574 169.727C40.0612 169.143 39.6237 168.71 39.0449 168.428C38.4707 168.141 37.7666 167.997 36.9326 167.997H35.2578V176.002H36.6729C38.0492 176.002 39.0814 175.662 39.7695 174.983C40.4622 174.304 40.8086 173.293 40.8086 171.948ZM46.8652 167.006C48.1549 167.006 49.096 167.259 49.6885 167.765C50.2855 168.266 50.584 168.986 50.584 169.925C50.584 170.349 50.5133 170.752 50.3721 171.135C50.2354 171.513 50.012 171.848 49.7021 172.14C49.3923 172.427 48.9844 172.655 48.4785 172.823C47.9772 172.987 47.362 173.069 46.6328 173.069H45.416V177H44.2539V167.006H46.8652ZM46.7559 167.997H45.416V172.071H46.5029C47.141 172.071 47.6719 172.003 48.0957 171.866C48.5241 171.729 48.8454 171.508 49.0596 171.203C49.2738 170.893 49.3809 170.483 49.3809 169.973C49.3809 169.307 49.1689 168.813 48.7451 168.489C48.3213 168.161 47.6582 167.997 46.7559 167.997ZM58.3154 174.341C58.3154 174.933 58.1673 175.439 57.8711 175.858C57.5794 176.273 57.1693 176.59 56.6406 176.809C56.112 177.027 55.4899 177.137 54.7744 177.137C54.3962 177.137 54.0384 177.118 53.7012 177.082C53.3639 177.046 53.054 176.993 52.7715 176.925C52.4889 176.856 52.2406 176.772 52.0264 176.672V175.558C52.3682 175.699 52.7852 175.831 53.2773 175.954C53.7695 176.073 54.2845 176.132 54.8223 176.132C55.3236 176.132 55.7474 176.066 56.0938 175.934C56.4401 175.797 56.7021 175.603 56.8799 175.353C57.0622 175.097 57.1533 174.792 57.1533 174.437C57.1533 174.095 57.0781 173.81 56.9277 173.582C56.7773 173.35 56.5267 173.14 56.1758 172.953C55.8294 172.762 55.3555 172.559 54.7539 172.345C54.3301 172.194 53.9564 172.03 53.6328 171.853C53.3092 171.67 53.0381 171.465 52.8193 171.237C52.6006 171.009 52.4342 170.745 52.3203 170.444C52.2109 170.144 52.1562 169.799 52.1562 169.412C52.1562 168.879 52.2907 168.423 52.5596 168.045C52.833 167.662 53.209 167.37 53.6875 167.17C54.1706 166.965 54.7243 166.862 55.3486 166.862C55.8818 166.862 56.374 166.912 56.8252 167.013C57.2809 167.113 57.6979 167.247 58.0762 167.416L57.7139 168.414C57.3538 168.264 56.971 168.138 56.5654 168.038C56.1644 167.938 55.7497 167.888 55.3213 167.888C54.8929 167.888 54.5306 167.951 54.2344 168.079C53.9427 168.202 53.7194 168.378 53.5645 168.605C53.4095 168.833 53.332 169.104 53.332 169.419C53.332 169.77 53.4049 170.062 53.5508 170.294C53.7012 170.526 53.9382 170.734 54.2617 170.916C54.5898 171.094 55.0228 171.281 55.5605 171.477C56.1484 171.691 56.6475 171.919 57.0576 172.16C57.4678 172.397 57.7799 172.689 57.9941 173.035C58.2083 173.377 58.3154 173.812 58.3154 174.341ZM67.5645 177H66.1904L62.5879 172.14L61.5215 173.097V177H60.3594V167.006H61.5215V171.989C61.7812 171.693 62.0479 171.399 62.3213 171.107C62.5947 170.811 62.8659 170.513 63.1348 170.212L66.0537 167.006H67.4141L63.4355 171.34L67.5645 177ZM75.9453 169.371C76.834 169.371 77.5062 169.59 77.9619 170.027C78.4176 170.46 78.6455 171.158 78.6455 172.119V177H77.5244V172.194C77.5244 171.57 77.3809 171.103 77.0938 170.793C76.8112 170.483 76.376 170.328 75.7881 170.328C74.9587 170.328 74.3753 170.563 74.0381 171.032C73.7008 171.502 73.5322 172.183 73.5322 173.076V177H72.3975V169.508H73.3135L73.4844 170.588H73.5459C73.7054 170.324 73.9082 170.103 74.1543 169.925C74.4004 169.743 74.6761 169.606 74.9814 169.515C75.2868 169.419 75.6081 169.371 75.9453 169.371ZM83.8682 169.371C84.5062 169.371 85.0531 169.512 85.5088 169.795C85.9645 170.077 86.3132 170.474 86.5547 170.984C86.7962 171.49 86.917 172.083 86.917 172.762V173.466H81.7422C81.7559 174.345 81.9746 175.015 82.3984 175.476C82.8223 175.936 83.4193 176.166 84.1895 176.166C84.6634 176.166 85.0827 176.123 85.4473 176.036C85.8118 175.95 86.1901 175.822 86.582 175.653V176.651C86.2038 176.82 85.8278 176.943 85.4541 177.021C85.085 177.098 84.6475 177.137 84.1416 177.137C83.4215 177.137 82.7926 176.991 82.2549 176.699C81.7217 176.403 81.307 175.97 81.0107 175.4C80.7145 174.831 80.5664 174.133 80.5664 173.309C80.5664 172.502 80.7008 171.805 80.9697 171.217C81.2432 170.624 81.626 170.169 82.1182 169.85C82.6149 169.531 83.1982 169.371 83.8682 169.371ZM83.8545 170.301C83.2484 170.301 82.7653 170.499 82.4053 170.896C82.0452 171.292 81.8311 171.846 81.7627 172.557H85.7275C85.723 172.11 85.6523 171.718 85.5156 171.381C85.3835 171.039 85.1807 170.775 84.9072 170.588C84.6338 170.396 84.2829 170.301 83.8545 170.301ZM91.2646 176.207C91.4515 176.207 91.6429 176.191 91.8389 176.159C92.0348 176.127 92.1943 176.089 92.3174 176.043V176.925C92.1852 176.984 92.0007 177.034 91.7637 177.075C91.5312 177.116 91.3034 177.137 91.0801 177.137C90.6836 177.137 90.3236 177.068 90 176.932C89.6764 176.79 89.4167 176.553 89.2207 176.221C89.0293 175.888 88.9336 175.428 88.9336 174.84V170.396H87.8672V169.843L88.9404 169.398L89.3916 167.771H90.0752V169.508H92.2695V170.396H90.0752V174.806C90.0752 175.275 90.1823 175.626 90.3965 175.858C90.6152 176.091 90.9046 176.207 91.2646 176.207ZM99.9326 176.986L98.5996 172.625C98.5404 172.438 98.4834 172.256 98.4287 172.078C98.3786 171.896 98.3307 171.723 98.2852 171.559C98.2441 171.39 98.2054 171.235 98.1689 171.094C98.137 170.948 98.1097 170.823 98.0869 170.718H98.0391C98.0208 170.823 97.9958 170.948 97.9639 171.094C97.932 171.235 97.8932 171.39 97.8477 171.559C97.8066 171.727 97.7611 171.905 97.7109 172.092C97.6608 172.274 97.6038 172.459 97.54 172.646L96.1455 176.986H94.8672L92.8027 169.494H93.9785L95.0586 173.63C95.1315 173.903 95.1999 174.174 95.2637 174.443C95.332 174.708 95.389 174.958 95.4346 175.195C95.4847 175.428 95.5212 175.631 95.5439 175.804H95.5986C95.626 175.69 95.6556 175.553 95.6875 175.394C95.724 175.234 95.7627 175.065 95.8037 174.888C95.8493 174.705 95.8971 174.525 95.9473 174.348C95.9974 174.165 96.0475 173.994 96.0977 173.835L97.4785 169.494H98.7021L100.035 173.828C100.104 174.047 100.17 174.275 100.233 174.512C100.302 174.749 100.363 174.979 100.418 175.202C100.473 175.421 100.511 175.617 100.534 175.79H100.589C100.607 175.635 100.641 175.444 100.691 175.216C100.742 174.988 100.799 174.737 100.862 174.464C100.931 174.19 101.001 173.912 101.074 173.63L102.168 169.494H103.323L101.252 176.986H99.9326ZM111.15 173.24C111.15 173.855 111.071 174.405 110.911 174.888C110.752 175.371 110.521 175.779 110.221 176.111C109.92 176.444 109.555 176.699 109.127 176.877C108.703 177.05 108.222 177.137 107.685 177.137C107.183 177.137 106.723 177.05 106.304 176.877C105.889 176.699 105.529 176.444 105.224 176.111C104.923 175.779 104.688 175.371 104.52 174.888C104.355 174.405 104.273 173.855 104.273 173.24C104.273 172.42 104.412 171.723 104.69 171.148C104.968 170.57 105.365 170.13 105.88 169.829C106.399 169.524 107.017 169.371 107.732 169.371C108.416 169.371 109.013 169.524 109.523 169.829C110.038 170.134 110.437 170.576 110.72 171.155C111.007 171.729 111.15 172.424 111.15 173.24ZM105.449 173.24C105.449 173.842 105.529 174.364 105.688 174.806C105.848 175.248 106.094 175.59 106.427 175.831C106.759 176.073 107.188 176.193 107.712 176.193C108.231 176.193 108.658 176.073 108.99 175.831C109.327 175.59 109.576 175.248 109.735 174.806C109.895 174.364 109.975 173.842 109.975 173.24C109.975 172.643 109.895 172.128 109.735 171.695C109.576 171.258 109.33 170.921 108.997 170.684C108.664 170.447 108.234 170.328 107.705 170.328C106.926 170.328 106.354 170.586 105.989 171.101C105.629 171.616 105.449 172.329 105.449 173.24ZM116.517 169.371C116.667 169.371 116.824 169.38 116.988 169.398C117.152 169.412 117.298 169.433 117.426 169.46L117.282 170.513C117.159 170.481 117.022 170.456 116.872 170.438C116.722 170.419 116.58 170.41 116.448 170.41C116.147 170.41 115.863 170.472 115.594 170.595C115.329 170.713 115.097 170.886 114.896 171.114C114.696 171.338 114.539 171.609 114.425 171.928C114.311 172.242 114.254 172.593 114.254 172.98V177H113.112V169.508H114.056L114.179 170.889H114.227C114.382 170.611 114.568 170.358 114.787 170.13C115.006 169.897 115.259 169.713 115.546 169.576C115.838 169.439 116.161 169.371 116.517 169.371ZM119.969 166.363V171.887C119.969 172.069 119.962 172.292 119.948 172.557C119.935 172.816 119.923 173.047 119.914 173.247H119.962C120.058 173.129 120.197 172.953 120.379 172.721C120.566 172.488 120.723 172.301 120.851 172.16L123.339 169.508H124.672L121.657 172.707L124.891 177H123.523L120.878 173.452L119.969 174.286V177H118.841V166.363H119.969ZM0.859375 191.165C0.859375 190.395 0.932292 189.645 1.07812 188.916C1.22852 188.187 1.45638 187.492 1.76172 186.831C2.06706 186.17 2.45215 185.562 2.91699 185.006H4.00391C3.3431 185.872 2.84635 186.833 2.51367 187.891C2.18099 188.948 2.01465 190.035 2.01465 191.151C2.01465 191.881 2.08757 192.601 2.2334 193.312C2.38379 194.018 2.60482 194.699 2.89648 195.355C3.19271 196.012 3.55729 196.632 3.99023 197.215H2.91699C2.45215 196.668 2.06706 196.071 1.76172 195.424C1.45638 194.781 1.22852 194.1 1.07812 193.38C0.932292 192.66 0.859375 191.922 0.859375 191.165ZM13.7314 189.907C13.7314 191.033 13.5264 191.974 13.1162 192.73C12.7061 193.482 12.1113 194.05 11.332 194.433C10.5573 194.811 9.61621 195 8.50879 195H5.79492V185.006H8.80957C9.82585 185.006 10.7008 185.193 11.4346 185.566C12.1683 185.936 12.7334 186.485 13.1299 187.214C13.5309 187.938 13.7314 188.836 13.7314 189.907ZM12.5078 189.948C12.5078 189.05 12.3574 188.31 12.0566 187.727C11.7604 187.143 11.3229 186.71 10.7441 186.428C10.1699 186.141 9.46582 185.997 8.63184 185.997H6.95703V194.002H8.37207C9.74837 194.002 10.7806 193.662 11.4688 192.983C12.1615 192.304 12.5078 191.293 12.5078 189.948ZM18.5645 185.006C19.8542 185.006 20.7952 185.259 21.3877 185.765C21.9847 186.266 22.2832 186.986 22.2832 187.925C22.2832 188.349 22.2126 188.752 22.0713 189.135C21.9346 189.513 21.7113 189.848 21.4014 190.14C21.0915 190.427 20.6836 190.655 20.1777 190.823C19.6764 190.987 19.0612 191.069 18.332 191.069H17.1152V195H15.9531V185.006H18.5645ZM18.4551 185.997H17.1152V190.071H18.2021C18.8402 190.071 19.3711 190.003 19.7949 189.866C20.2233 189.729 20.5446 189.508 20.7588 189.203C20.973 188.893 21.0801 188.483 21.0801 187.973C21.0801 187.307 20.8682 186.813 20.4443 186.489C20.0205 186.161 19.3574 185.997 18.4551 185.997ZM30.0146 192.341C30.0146 192.933 29.8665 193.439 29.5703 193.858C29.2786 194.273 28.8685 194.59 28.3398 194.809C27.8112 195.027 27.1891 195.137 26.4736 195.137C26.0954 195.137 25.7376 195.118 25.4004 195.082C25.0632 195.046 24.7533 194.993 24.4707 194.925C24.1882 194.856 23.9398 194.772 23.7256 194.672V193.558C24.0674 193.699 24.4844 193.831 24.9766 193.954C25.4688 194.073 25.9837 194.132 26.5215 194.132C27.0228 194.132 27.4466 194.066 27.793 193.934C28.1393 193.797 28.4014 193.603 28.5791 193.353C28.7614 193.097 28.8525 192.792 28.8525 192.437C28.8525 192.095 28.7773 191.81 28.627 191.582C28.4766 191.35 28.2259 191.14 27.875 190.953C27.5286 190.762 27.0547 190.559 26.4531 190.345C26.0293 190.194 25.6556 190.03 25.332 189.853C25.0085 189.67 24.7373 189.465 24.5186 189.237C24.2998 189.009 24.1335 188.745 24.0195 188.444C23.9102 188.144 23.8555 187.799 23.8555 187.412C23.8555 186.879 23.9899 186.423 24.2588 186.045C24.5322 185.662 24.9082 185.37 25.3867 185.17C25.8698 184.965 26.4235 184.862 27.0479 184.862C27.5811 184.862 28.0732 184.912 28.5244 185.013C28.9801 185.113 29.3971 185.247 29.7754 185.416L29.4131 186.414C29.0531 186.264 28.6702 186.138 28.2646 186.038C27.8636 185.938 27.4489 185.888 27.0205 185.888C26.5921 185.888 26.2298 185.951 25.9336 186.079C25.6419 186.202 25.4186 186.378 25.2637 186.605C25.1087 186.833 25.0312 187.104 25.0312 187.419C25.0312 187.77 25.1042 188.062 25.25 188.294C25.4004 188.526 25.6374 188.734 25.9609 188.916C26.2891 189.094 26.722 189.281 27.2598 189.477C27.8477 189.691 28.3467 189.919 28.7568 190.16C29.167 190.397 29.4792 190.689 29.6934 191.035C29.9076 191.377 30.0146 191.812 30.0146 192.341ZM39.2637 195H37.8896L34.2871 190.14L33.2207 191.097V195H32.0586V185.006H33.2207V189.989C33.4805 189.693 33.7471 189.399 34.0205 189.107C34.2939 188.811 34.5651 188.513 34.834 188.212L37.7529 185.006H39.1133L35.1348 189.34L39.2637 195ZM47.6172 187.371C48.5514 187.371 49.2965 187.692 49.8525 188.335C50.4085 188.978 50.6865 189.944 50.6865 191.233C50.6865 192.086 50.5589 192.801 50.3037 193.38C50.0485 193.959 49.6885 194.396 49.2236 194.692C48.7633 194.989 48.2188 195.137 47.5898 195.137C47.1934 195.137 46.8447 195.084 46.5439 194.979C46.2432 194.875 45.9857 194.733 45.7715 194.556C45.5573 194.378 45.3796 194.184 45.2383 193.975H45.1562C45.1699 194.152 45.1859 194.367 45.2041 194.617C45.2269 194.868 45.2383 195.087 45.2383 195.273V198.35H44.0967V187.508H45.0332L45.1836 188.615H45.2383C45.3841 188.387 45.5618 188.18 45.7715 187.993C45.9811 187.802 46.2363 187.651 46.5371 187.542C46.8424 187.428 47.2025 187.371 47.6172 187.371ZM47.4189 188.328C46.8994 188.328 46.4801 188.428 46.1611 188.629C45.8467 188.829 45.6165 189.13 45.4707 189.531C45.3249 189.928 45.2474 190.427 45.2383 191.028V191.247C45.2383 191.881 45.3066 192.416 45.4434 192.854C45.5846 193.291 45.8148 193.624 46.1338 193.852C46.4574 194.079 46.8903 194.193 47.4326 194.193C47.8975 194.193 48.2848 194.068 48.5947 193.817C48.9046 193.567 49.1348 193.218 49.2852 192.771C49.4401 192.32 49.5176 191.803 49.5176 191.22C49.5176 190.336 49.3444 189.634 48.998 189.114C48.6562 188.59 48.1299 188.328 47.4189 188.328ZM59.1289 191.24C59.1289 191.855 59.0492 192.405 58.8896 192.888C58.7301 193.371 58.5 193.779 58.1992 194.111C57.8984 194.444 57.5339 194.699 57.1055 194.877C56.6816 195.05 56.2008 195.137 55.6631 195.137C55.1618 195.137 54.7015 195.05 54.2822 194.877C53.8675 194.699 53.5075 194.444 53.2021 194.111C52.9014 193.779 52.6667 193.371 52.498 192.888C52.334 192.405 52.252 191.855 52.252 191.24C52.252 190.42 52.391 189.723 52.6689 189.148C52.9469 188.57 53.3434 188.13 53.8584 187.829C54.3779 187.524 54.9954 187.371 55.7109 187.371C56.3945 187.371 56.9915 187.524 57.502 187.829C58.0169 188.134 58.4157 188.576 58.6982 189.155C58.9854 189.729 59.1289 190.424 59.1289 191.24ZM53.4277 191.24C53.4277 191.842 53.5075 192.364 53.667 192.806C53.8265 193.248 54.0726 193.59 54.4053 193.831C54.738 194.073 55.1663 194.193 55.6904 194.193C56.21 194.193 56.6361 194.073 56.9688 193.831C57.306 193.59 57.5544 193.248 57.7139 192.806C57.8734 192.364 57.9531 191.842 57.9531 191.24C57.9531 190.643 57.8734 190.128 57.7139 189.695C57.5544 189.258 57.3083 188.921 56.9756 188.684C56.6429 188.447 56.2122 188.328 55.6836 188.328C54.9043 188.328 54.3324 188.586 53.9678 189.101C53.6077 189.616 53.4277 190.329 53.4277 191.24ZM67.5508 191.24C67.5508 191.855 67.471 192.405 67.3115 192.888C67.152 193.371 66.9219 193.779 66.6211 194.111C66.3203 194.444 65.9557 194.699 65.5273 194.877C65.1035 195.05 64.6227 195.137 64.085 195.137C63.5837 195.137 63.1234 195.05 62.7041 194.877C62.2894 194.699 61.9294 194.444 61.624 194.111C61.3232 193.779 61.0885 193.371 60.9199 192.888C60.7559 192.405 60.6738 191.855 60.6738 191.24C60.6738 190.42 60.8128 189.723 61.0908 189.148C61.3688 188.57 61.7653 188.13 62.2803 187.829C62.7998 187.524 63.4173 187.371 64.1328 187.371C64.8164 187.371 65.4134 187.524 65.9238 187.829C66.4388 188.134 66.8376 188.576 67.1201 189.155C67.4072 189.729 67.5508 190.424 67.5508 191.24ZM61.8496 191.24C61.8496 191.842 61.9294 192.364 62.0889 192.806C62.2484 193.248 62.4945 193.59 62.8271 193.831C63.1598 194.073 63.5882 194.193 64.1123 194.193C64.6318 194.193 65.0579 194.073 65.3906 193.831C65.7279 193.59 65.9762 193.248 66.1357 192.806C66.2952 192.364 66.375 191.842 66.375 191.24C66.375 190.643 66.2952 190.128 66.1357 189.695C65.9762 189.258 65.7301 188.921 65.3975 188.684C65.0648 188.447 64.6341 188.328 64.1055 188.328C63.3262 188.328 62.7542 188.586 62.3896 189.101C62.0296 189.616 61.8496 190.329 61.8496 191.24ZM70.6543 195H69.5127V184.363H70.6543V195ZM81.5371 192.949C81.5371 193.428 81.4163 193.831 81.1748 194.159C80.9378 194.483 80.596 194.727 80.1494 194.891C79.7074 195.055 79.1787 195.137 78.5635 195.137C78.0394 195.137 77.5859 195.096 77.2031 195.014C76.8203 194.932 76.4854 194.815 76.1982 194.665V193.619C76.5036 193.77 76.8682 193.906 77.292 194.029C77.7158 194.152 78.1488 194.214 78.5908 194.214C79.238 194.214 79.7074 194.109 79.999 193.899C80.2907 193.69 80.4365 193.405 80.4365 193.045C80.4365 192.84 80.3773 192.66 80.2588 192.505C80.1449 192.345 79.9512 192.193 79.6777 192.047C79.4043 191.896 79.026 191.732 78.543 191.555C78.0645 191.372 77.6497 191.192 77.2988 191.015C76.9525 190.832 76.6836 190.611 76.4922 190.352C76.3053 190.092 76.2119 189.755 76.2119 189.34C76.2119 188.706 76.4671 188.221 76.9775 187.884C77.4925 187.542 78.167 187.371 79.001 187.371C79.4521 187.371 79.8737 187.417 80.2656 187.508C80.6621 187.594 81.0312 187.713 81.373 187.863L80.9902 188.772C80.6803 188.64 80.3499 188.529 79.999 188.438C79.6481 188.346 79.2904 188.301 78.9258 188.301C78.4017 188.301 77.9984 188.387 77.7158 188.561C77.4378 188.734 77.2988 188.971 77.2988 189.271C77.2988 189.504 77.3626 189.695 77.4902 189.846C77.6224 189.996 77.832 190.137 78.1191 190.27C78.4062 190.402 78.7845 190.557 79.2539 190.734C79.7233 190.908 80.1289 191.088 80.4707 191.274C80.8125 191.457 81.0745 191.68 81.2568 191.944C81.4437 192.204 81.5371 192.539 81.5371 192.949ZM86.2471 187.371C86.8851 187.371 87.432 187.512 87.8877 187.795C88.3434 188.077 88.6921 188.474 88.9336 188.984C89.1751 189.49 89.2959 190.083 89.2959 190.762V191.466H84.1211C84.1348 192.345 84.3535 193.015 84.7773 193.476C85.2012 193.936 85.7982 194.166 86.5684 194.166C87.0423 194.166 87.4616 194.123 87.8262 194.036C88.1908 193.95 88.569 193.822 88.9609 193.653V194.651C88.5827 194.82 88.2067 194.943 87.833 195.021C87.4639 195.098 87.0264 195.137 86.5205 195.137C85.8005 195.137 85.1715 194.991 84.6338 194.699C84.1006 194.403 83.6859 193.97 83.3896 193.4C83.0934 192.831 82.9453 192.133 82.9453 191.309C82.9453 190.502 83.0798 189.805 83.3486 189.217C83.6221 188.624 84.0049 188.169 84.4971 187.85C84.9938 187.531 85.5771 187.371 86.2471 187.371ZM86.2334 188.301C85.6273 188.301 85.1442 188.499 84.7842 188.896C84.4242 189.292 84.21 189.846 84.1416 190.557H88.1064C88.1019 190.11 88.0312 189.718 87.8945 189.381C87.7624 189.039 87.5596 188.775 87.2861 188.588C87.0127 188.396 86.6618 188.301 86.2334 188.301ZM94.6279 187.371C94.7783 187.371 94.9355 187.38 95.0996 187.398C95.2637 187.412 95.4095 187.433 95.5371 187.46L95.3936 188.513C95.2705 188.481 95.1338 188.456 94.9834 188.438C94.833 188.419 94.6917 188.41 94.5596 188.41C94.2588 188.41 93.974 188.472 93.7051 188.595C93.4408 188.713 93.2083 188.886 93.0078 189.114C92.8073 189.338 92.6501 189.609 92.5361 189.928C92.4222 190.242 92.3652 190.593 92.3652 190.98V195H91.2236V187.508H92.167L92.29 188.889H92.3379C92.4928 188.611 92.6797 188.358 92.8984 188.13C93.1172 187.897 93.3701 187.713 93.6572 187.576C93.9489 187.439 94.2725 187.371 94.6279 187.371ZM98.5996 195L95.7559 187.508H96.9727L98.6201 192.04C98.734 192.35 98.8503 192.692 98.9688 193.065C99.0872 193.439 99.1693 193.74 99.2148 193.968H99.2627C99.3174 193.74 99.4085 193.439 99.5361 193.065C99.6637 192.687 99.7799 192.345 99.8848 192.04L101.532 187.508H102.749L99.8984 195H98.5996ZM105.087 187.508V195H103.952V187.508H105.087ZM104.533 184.705C104.72 184.705 104.88 184.767 105.012 184.89C105.148 185.008 105.217 185.195 105.217 185.45C105.217 185.701 105.148 185.888 105.012 186.011C104.88 186.134 104.72 186.195 104.533 186.195C104.337 186.195 104.173 186.134 104.041 186.011C103.913 185.888 103.85 185.701 103.85 185.45C103.85 185.195 103.913 185.008 104.041 184.89C104.173 184.767 104.337 184.705 104.533 184.705ZM110.494 195.137C109.82 195.137 109.225 194.998 108.71 194.72C108.195 194.442 107.794 194.018 107.507 193.448C107.22 192.879 107.076 192.161 107.076 191.295C107.076 190.388 107.227 189.647 107.527 189.073C107.833 188.494 108.252 188.066 108.785 187.788C109.318 187.51 109.924 187.371 110.604 187.371C110.977 187.371 111.337 187.41 111.684 187.487C112.035 187.56 112.322 187.654 112.545 187.768L112.203 188.718C111.975 188.627 111.711 188.545 111.41 188.472C111.114 188.399 110.836 188.362 110.576 188.362C110.057 188.362 109.624 188.474 109.277 188.697C108.936 188.921 108.678 189.249 108.505 189.682C108.336 190.115 108.252 190.648 108.252 191.281C108.252 191.887 108.334 192.405 108.498 192.833C108.667 193.261 108.915 193.59 109.243 193.817C109.576 194.041 109.991 194.152 110.487 194.152C110.884 194.152 111.242 194.111 111.561 194.029C111.88 193.943 112.169 193.842 112.429 193.729V194.74C112.178 194.868 111.898 194.966 111.588 195.034C111.283 195.103 110.918 195.137 110.494 195.137ZM117.091 187.371C117.729 187.371 118.276 187.512 118.731 187.795C119.187 188.077 119.536 188.474 119.777 188.984C120.019 189.49 120.14 190.083 120.14 190.762V191.466H114.965C114.979 192.345 115.197 193.015 115.621 193.476C116.045 193.936 116.642 194.166 117.412 194.166C117.886 194.166 118.305 194.123 118.67 194.036C119.035 193.95 119.413 193.822 119.805 193.653V194.651C119.426 194.82 119.05 194.943 118.677 195.021C118.308 195.098 117.87 195.137 117.364 195.137C116.644 195.137 116.015 194.991 115.478 194.699C114.944 194.403 114.53 193.97 114.233 193.4C113.937 192.831 113.789 192.133 113.789 191.309C113.789 190.502 113.924 189.805 114.192 189.217C114.466 188.624 114.849 188.169 115.341 187.85C115.838 187.531 116.421 187.371 117.091 187.371ZM117.077 188.301C116.471 188.301 115.988 188.499 115.628 188.896C115.268 189.292 115.054 189.846 114.985 190.557H118.95C118.946 190.11 118.875 189.718 118.738 189.381C118.606 189.039 118.403 188.775 118.13 188.588C117.856 188.396 117.506 188.301 117.077 188.301ZM124.439 191.151C124.439 191.912 124.364 192.655 124.214 193.38C124.068 194.1 123.842 194.784 123.537 195.431C123.236 196.078 122.851 196.673 122.382 197.215H121.309C121.746 196.636 122.111 196.016 122.402 195.355C122.699 194.695 122.92 194.011 123.065 193.305C123.216 192.594 123.291 191.874 123.291 191.145C123.291 190.402 123.216 189.67 123.065 188.95C122.915 188.23 122.692 187.537 122.396 186.872C122.104 186.207 121.737 185.585 121.295 185.006H122.382C122.851 185.566 123.236 186.177 123.537 186.838C123.842 187.494 124.068 188.187 124.214 188.916C124.364 189.641 124.439 190.386 124.439 191.151Z" fill="#7F7F7F"/>
<path d="M184.009 123.818C181.973 124.653 178.111 125.54 177.119 125.383L176.754 125.331C176.945 125.557 177.594 126.05 178.842 126.219C180.773 126.48 182.704 126.307 183.852 126.219C184.531 126.166 199.302 123.818 208.28 123.139C217.257 122.461 230.097 121.678 232.341 121.678C234.586 121.678 236.401 121.336 236.882 121.156C237.3 120.999 237.857 120.669 238.083 120.529C238.083 120.529 238.031 120.007 237.926 119.851C237.822 119.694 237.665 119.903 237.352 119.903C237.039 119.903 236.204 119.903 232.341 119.172C228.479 118.442 216.526 117.972 208.28 118.494C200.033 119.016 186.045 122.982 184.009 123.818Z" stroke="#808284" stroke-width="0.5" stroke-linejoin="round"/>
<path d="M164.436 106.071C168.159 111.952 175.783 124.005 176.493 125.175C177.38 126.636 180.251 126.584 181.191 126.584C182.13 126.584 204.771 125.473 210.628 124.966C216.057 124.496 232.916 122.565 235.525 121.834C236.882 121.454 237.717 120.895 237.926 120.738" stroke="#808284" stroke-linecap="round"/>
<path d="M184.009 123.818C181.973 124.653 178.111 125.54 177.119 125.383L176.754 125.331C176.945 125.557 177.594 126.05 178.842 126.219C180.773 126.48 182.704 126.307 183.852 126.219C184.531 126.166 199.302 123.818 208.28 123.139C217.257 122.461 230.097 121.678 232.341 121.678C234.586 121.678 236.401 121.336 236.882 121.156C237.3 120.999 237.857 120.669 238.083 120.529C238.083 120.529 238.031 120.007 237.926 119.851C237.822 119.694 237.665 119.903 237.352 119.903C237.039 119.903 236.204 119.903 232.341 119.172C228.479 118.442 216.526 117.972 208.28 118.494C200.033 119.016 186.045 122.982 184.009 123.818Z" fill="#F7F7F7"/>
<path d="M176.18 131.751C175.804 131.083 167.916 117.519 164.018 110.821V106.332C163.897 105.654 164.321 104.057 166.994 103.096C170.334 101.896 183.487 100.278 190.377 100.069C196.588 99.8807 204.835 100.121 207.705 100.278C210.576 100.434 213.29 101.269 214.908 102.679C216.526 104.088 237.352 119.224 237.717 119.538C238.01 119.788 238.083 120.407 238.083 120.686L237.822 126.166C237.874 126.323 237.755 126.816 236.726 127.21C233.176 128.567 215.743 130.707 209.741 131.334C202.799 132.058 184.792 133.108 179.833 133.108C178.267 133.108 176.65 132.586 176.18 131.751Z" stroke="#333333"/>
<path d="M178.685 133.056C178.911 133.474 179.405 134.371 179.572 134.622C179.781 134.935 180.512 135.039 181.556 134.987C182.6 134.935 205.2 133.735 212.194 132.847C219.188 131.96 231.819 129.768 232.55 129.507C233.281 129.246 233.698 128.776 233.751 128.567C233.792 128.4 233.872 128.115 233.907 127.993" stroke="#333333"/>
<path d="M203.53 125.383L203.165 124.913L203.53 124.892L203.947 125.383V126.427H203.53V125.383Z" fill="#333333"/>
<path d="M203.53 125.383L203.165 124.913L203.53 124.892L203.947 125.383V126.427H203.53V125.383Z" fill="#808284"/>
<path d="M206.505 125.122L206.087 124.705H206.505L206.923 125.122V126.166H206.505V125.122Z" fill="#808284"/>
<path d="M209.428 124.914L209.01 124.497H209.428L209.845 124.914V125.958H209.428V124.914Z" fill="#808284"/>
<path d="M212.246 124.601L211.829 124.183H212.246L212.664 124.601V125.645H212.246V124.601Z" fill="#808284"/>
<path d="M215.065 124.287L214.647 123.87H215.065L215.482 124.287V125.331H215.065V124.287Z" fill="#808284"/>
<path d="M217.883 123.974L217.466 123.557H217.883L218.301 123.974V125.018H217.883V123.974Z" fill="#808284"/>
<path d="M210.797 116.452C210.332 116.099 210.518 115.894 211.356 115.837C212.17 115.781 212.804 115.925 213.258 116.27L214.152 116.948L213.475 116.994L212.577 116.313C212.326 116.123 212.013 116.041 211.633 116.067C211.253 116.093 211.197 116.197 211.439 116.38L212.35 117.071L211.674 117.118L210.797 116.452Z" fill="#C4C4C4"/>
<path d="M207.5 116.169C207.713 116.105 207.978 116.065 208.278 116.05C208.666 116.014 209.133 116.044 209.571 116.134C209.991 116.229 210.336 116.373 210.524 116.531C210.766 116.701 210.823 116.878 210.681 117.019C210.529 117.159 210.196 117.25 209.76 117.273C209.512 117.293 209.242 117.295 208.961 117.281L208.625 117.026C208.896 117.059 209.165 117.067 209.402 117.049C209.664 117.035 209.86 116.979 209.944 116.893C210.024 116.805 209.983 116.696 209.832 116.593C209.713 116.492 209.496 116.401 209.23 116.339C208.964 116.281 208.677 116.261 208.438 116.282C208.184 116.299 207.968 116.342 207.815 116.407L207.5 116.169Z" fill="#C4C4C4"/>
<path d="M202.248 117.039C201.783 116.686 201.969 116.481 202.808 116.423C203.621 116.367 204.255 116.512 204.709 116.856L205.603 117.534L204.926 117.581L204.028 116.9C203.777 116.709 203.464 116.627 203.084 116.653C202.704 116.679 202.648 116.783 202.89 116.967L203.801 117.658L203.125 117.704L202.248 117.039Z" fill="#C4C4C4"/>
<path d="M201.248 116.602L201.593 116.864C201.259 116.803 200.912 116.781 200.611 116.801C200.535 116.806 200.465 116.814 200.4 116.825C200.35 116.834 200.308 116.846 200.274 116.861C200.248 116.873 200.232 116.888 200.229 116.905C200.227 116.921 200.237 116.938 200.26 116.955C200.289 116.976 200.334 116.996 200.389 117.011C200.452 117.028 200.521 117.041 200.591 117.051C200.679 117.064 200.767 117.074 200.855 117.081C200.953 117.09 201.058 117.099 201.169 117.107C201.412 117.122 201.66 117.158 201.891 117.212C202.08 117.261 202.235 117.327 202.327 117.4C202.403 117.455 202.442 117.512 202.439 117.565C202.435 117.613 202.397 117.656 202.327 117.691C202.25 117.728 202.151 117.758 202.034 117.779C201.906 117.802 201.765 117.819 201.615 117.829C201.477 117.839 201.334 117.845 201.187 117.847C201.064 117.848 200.937 117.845 200.808 117.836L200.485 117.591C200.556 117.601 200.627 117.61 200.697 117.616C200.77 117.622 200.842 117.626 200.914 117.629C200.984 117.632 201.053 117.632 201.121 117.632C201.184 117.631 201.245 117.628 201.304 117.624C201.375 117.62 201.441 117.612 201.502 117.601C201.551 117.593 201.594 117.581 201.629 117.566C201.657 117.554 201.674 117.539 201.679 117.522C201.684 117.506 201.674 117.488 201.651 117.471C201.626 117.452 201.588 117.434 201.541 117.421C201.487 117.405 201.429 117.393 201.37 117.384C201.293 117.372 201.216 117.363 201.139 117.356C201.052 117.347 200.955 117.338 200.848 117.33C200.715 117.321 200.581 117.308 200.446 117.293C200.33 117.278 200.214 117.259 200.103 117.235C199.999 117.212 199.903 117.183 199.82 117.15C199.73 117.113 199.656 117.072 199.602 117.029C199.521 116.972 199.478 116.913 199.479 116.857C199.482 116.809 199.522 116.765 199.595 116.731C199.673 116.695 199.774 116.666 199.895 116.646C200.029 116.623 200.174 116.607 200.328 116.597C200.485 116.585 200.649 116.58 200.819 116.581C200.958 116.581 201.102 116.588 201.248 116.602Z" fill="#C4C4C4"/>
<path d="M206.298 116.206L206.977 116.159L208.526 117.333L207.852 117.38L206.298 116.206Z" fill="#C4C4C4"/>
<path d="M206.704 116.734L204.987 116.296L204.135 116.354L206.251 116.879L205.944 117.511L206.749 117.455L206.931 116.909L206.704 116.734Z" fill="#C4C4C4"/>
<path d="M214.181 116.163C214.121 116.184 214.072 116.21 214.036 116.238C213.917 116.322 213.935 116.435 214.085 116.544C214.413 116.793 214.955 116.892 215.71 116.84L217.104 116.745L215.556 115.57L214.881 115.616L216.161 116.588L215.559 116.629C215.199 116.654 214.941 116.607 214.784 116.487C214.626 116.368 214.725 116.294 215.079 116.265L215.46 116.239L213.464 115.717L212.612 115.775L214.181 116.163Z" fill="#C4C4C4"/>
<path fill-rule="evenodd" clip-rule="evenodd" d="M199.883 117.711C199.795 117.741 199.787 117.794 199.862 117.845C199.905 117.878 199.98 117.907 200.069 117.926C200.158 117.944 200.254 117.951 200.333 117.943C200.462 117.935 200.537 117.895 200.521 117.844C200.506 117.792 200.403 117.739 200.262 117.71C200.122 117.681 199.971 117.681 199.883 117.711ZM200.048 117.73C200.178 117.721 200.339 117.755 200.41 117.807C200.445 117.833 200.453 117.859 200.433 117.88C200.412 117.901 200.364 117.916 200.3 117.92C200.17 117.929 200.009 117.894 199.94 117.841C199.87 117.789 199.919 117.739 200.048 117.73ZM200.144 117.761L200.214 117.757L200.371 117.876C200.336 117.881 200.298 117.885 200.259 117.888C200.224 117.891 200.183 117.891 200.141 117.886C200.113 117.881 200.088 117.872 200.076 117.862C200.061 117.848 200.072 117.835 200.103 117.83C200.066 117.827 200.03 117.817 200.01 117.804C199.992 117.794 199.971 117.785 199.947 117.776L200.024 117.771C200.048 117.779 200.069 117.789 200.086 117.798C200.104 117.812 200.137 117.816 200.175 117.813L200.209 117.811L200.144 117.761ZM200.201 117.831L200.234 117.829L200.281 117.865C200.269 117.867 200.256 117.867 200.242 117.867C200.198 117.87 200.169 117.866 200.153 117.853C200.136 117.841 200.161 117.834 200.201 117.831Z" fill="#C4C4C4"/>
<path d="M174.969 187.836C174.997 186.543 176.081 185.509 177.409 185.509C178.736 185.509 179.82 186.543 179.848 187.836V191.123H182.371V187.836C182.371 185.165 180.149 183 177.408 183C174.667 183 172.445 185.165 172.445 187.836V191.123H174.973L174.969 187.836ZM183.301 192.303H171.519C170.682 192.303 170.002 192.963 170 193.779V201.525C170.003 202.339 170.68 202.998 171.515 203H183.301C184.136 202.998 184.812 202.339 184.815 201.525V193.779C184.812 192.965 184.136 192.306 183.301 192.303ZM178.67 198.293C178.67 198.903 178.105 199.395 177.409 199.395C176.713 199.395 176.145 198.898 176.145 198.293V196.195C176.145 195.585 176.71 195.093 177.408 195.093C178.106 195.093 178.669 195.586 178.669 196.195L178.67 198.293Z" fill="#333333"/>
<path d="M240.333 261C240.333 262.473 241.527 263.667 243 263.667C244.473 263.667 245.667 262.473 245.667 261C245.667 259.527 244.473 258.333 243 258.333C241.527 258.333 240.333 259.527 240.333 261ZM325.333 261C325.333 262.473 326.527 263.667 328 263.667C329.473 263.667 330.667 262.473 330.667 261C330.667 259.527 329.473 258.333 328 258.333C326.527 258.333 325.333 259.527 325.333 261ZM243 261.5L328 261.5L328 260.5L243 260.5L243 261.5Z" fill="#5496EA"/>
<path d="M326.109 302.006C327.399 302.006 328.34 302.259 328.933 302.765C329.53 303.266 329.828 303.986 329.828 304.925C329.828 305.349 329.757 305.752 329.616 306.135C329.479 306.513 329.256 306.848 328.946 307.14C328.636 307.427 328.229 307.655 327.723 307.823C327.221 307.987 326.606 308.069 325.877 308.069H324.66V312H323.498V302.006H326.109ZM326 302.997H324.66V307.071H325.747C326.385 307.071 326.916 307.003 327.34 306.866C327.768 306.729 328.09 306.508 328.304 306.203C328.518 305.893 328.625 305.483 328.625 304.973C328.625 304.307 328.413 303.813 327.989 303.489C327.565 303.161 326.902 302.997 326 302.997ZM335.153 304.371C335.304 304.371 335.461 304.38 335.625 304.398C335.789 304.412 335.935 304.433 336.062 304.46L335.919 305.513C335.796 305.481 335.659 305.456 335.509 305.438C335.358 305.419 335.217 305.41 335.085 305.41C334.784 305.41 334.499 305.472 334.23 305.595C333.966 305.713 333.734 305.886 333.533 306.114C333.333 306.338 333.175 306.609 333.062 306.928C332.948 307.242 332.891 307.593 332.891 307.98V312H331.749V304.508H332.692L332.815 305.889H332.863C333.018 305.611 333.205 305.358 333.424 305.13C333.643 304.897 333.896 304.713 334.183 304.576C334.474 304.439 334.798 304.371 335.153 304.371ZM343.938 308.24C343.938 308.855 343.858 309.405 343.698 309.888C343.539 310.371 343.309 310.779 343.008 311.111C342.707 311.444 342.342 311.699 341.914 311.877C341.49 312.05 341.009 312.137 340.472 312.137C339.97 312.137 339.51 312.05 339.091 311.877C338.676 311.699 338.316 311.444 338.011 311.111C337.71 310.779 337.475 310.371 337.307 309.888C337.143 309.405 337.061 308.855 337.061 308.24C337.061 307.42 337.2 306.723 337.478 306.148C337.756 305.57 338.152 305.13 338.667 304.829C339.187 304.524 339.804 304.371 340.52 304.371C341.203 304.371 341.8 304.524 342.311 304.829C342.826 305.134 343.224 305.576 343.507 306.155C343.794 306.729 343.938 307.424 343.938 308.24ZM338.236 308.24C338.236 308.842 338.316 309.364 338.476 309.806C338.635 310.248 338.881 310.59 339.214 310.831C339.547 311.073 339.975 311.193 340.499 311.193C341.019 311.193 341.445 311.073 341.777 310.831C342.115 310.59 342.363 310.248 342.522 309.806C342.682 309.364 342.762 308.842 342.762 308.24C342.762 307.643 342.682 307.128 342.522 306.695C342.363 306.258 342.117 305.921 341.784 305.684C341.451 305.447 341.021 305.328 340.492 305.328C339.713 305.328 339.141 305.586 338.776 306.101C338.416 306.616 338.236 307.329 338.236 308.24ZM349.42 304.371C350.354 304.371 351.099 304.692 351.655 305.335C352.211 305.978 352.489 306.944 352.489 308.233C352.489 309.086 352.362 309.801 352.106 310.38C351.851 310.959 351.491 311.396 351.026 311.692C350.566 311.989 350.021 312.137 349.393 312.137C348.996 312.137 348.647 312.084 348.347 311.979C348.046 311.875 347.788 311.733 347.574 311.556C347.36 311.378 347.182 311.184 347.041 310.975H346.959C346.973 311.152 346.989 311.367 347.007 311.617C347.03 311.868 347.041 312.087 347.041 312.273V315.35H345.899V304.508H346.836L346.986 305.615H347.041C347.187 305.387 347.365 305.18 347.574 304.993C347.784 304.802 348.039 304.651 348.34 304.542C348.645 304.428 349.005 304.371 349.42 304.371ZM349.222 305.328C348.702 305.328 348.283 305.428 347.964 305.629C347.649 305.829 347.419 306.13 347.273 306.531C347.128 306.928 347.05 307.427 347.041 308.028V308.247C347.041 308.881 347.109 309.416 347.246 309.854C347.387 310.291 347.618 310.624 347.937 310.852C348.26 311.079 348.693 311.193 349.235 311.193C349.7 311.193 350.088 311.068 350.397 310.817C350.707 310.567 350.938 310.218 351.088 309.771C351.243 309.32 351.32 308.803 351.32 308.22C351.32 307.336 351.147 306.634 350.801 306.114C350.459 305.59 349.933 305.328 349.222 305.328ZM357.356 304.371C357.994 304.371 358.541 304.512 358.997 304.795C359.453 305.077 359.801 305.474 360.043 305.984C360.285 306.49 360.405 307.083 360.405 307.762V308.466H355.23C355.244 309.345 355.463 310.015 355.887 310.476C356.311 310.936 356.908 311.166 357.678 311.166C358.152 311.166 358.571 311.123 358.936 311.036C359.3 310.95 359.678 310.822 360.07 310.653V311.651C359.692 311.82 359.316 311.943 358.942 312.021C358.573 312.098 358.136 312.137 357.63 312.137C356.91 312.137 356.281 311.991 355.743 311.699C355.21 311.403 354.795 310.97 354.499 310.4C354.203 309.831 354.055 309.133 354.055 308.309C354.055 307.502 354.189 306.805 354.458 306.217C354.731 305.624 355.114 305.169 355.606 304.85C356.103 304.531 356.687 304.371 357.356 304.371ZM357.343 305.301C356.737 305.301 356.254 305.499 355.894 305.896C355.534 306.292 355.319 306.846 355.251 307.557H359.216C359.211 307.11 359.141 306.718 359.004 306.381C358.872 306.039 358.669 305.775 358.396 305.588C358.122 305.396 357.771 305.301 357.343 305.301ZM365.737 304.371C365.888 304.371 366.045 304.38 366.209 304.398C366.373 304.412 366.519 304.433 366.646 304.46L366.503 305.513C366.38 305.481 366.243 305.456 366.093 305.438C365.942 305.419 365.801 305.41 365.669 305.41C365.368 305.41 365.083 305.472 364.814 305.595C364.55 305.713 364.318 305.886 364.117 306.114C363.917 306.338 363.759 306.609 363.646 306.928C363.532 307.242 363.475 307.593 363.475 307.98V312H362.333V304.508H363.276L363.399 305.889H363.447C363.602 305.611 363.789 305.358 364.008 305.13C364.227 304.897 364.479 304.713 364.767 304.576C365.058 304.439 365.382 304.371 365.737 304.371ZM370.481 311.207C370.668 311.207 370.86 311.191 371.056 311.159C371.252 311.127 371.411 311.089 371.534 311.043V311.925C371.402 311.984 371.217 312.034 370.98 312.075C370.748 312.116 370.52 312.137 370.297 312.137C369.9 312.137 369.54 312.068 369.217 311.932C368.893 311.79 368.633 311.553 368.438 311.221C368.246 310.888 368.15 310.428 368.15 309.84V305.396H367.084V304.843L368.157 304.398L368.608 302.771H369.292V304.508H371.486V305.396H369.292V309.806C369.292 310.275 369.399 310.626 369.613 310.858C369.832 311.091 370.121 311.207 370.481 311.207ZM371.869 304.508H373.086L374.74 308.855C374.836 309.111 374.925 309.357 375.007 309.594C375.089 309.826 375.162 310.049 375.226 310.264C375.289 310.478 375.34 310.685 375.376 310.886H375.424C375.488 310.658 375.579 310.359 375.697 309.99C375.816 309.617 375.943 309.236 376.08 308.849L377.646 304.508H378.869L375.608 313.101C375.435 313.561 375.232 313.962 375 314.304C374.772 314.646 374.494 314.908 374.166 315.09C373.838 315.277 373.441 315.37 372.977 315.37C372.762 315.37 372.573 315.356 372.409 315.329C372.245 315.306 372.104 315.279 371.985 315.247V314.338C372.086 314.361 372.206 314.381 372.348 314.399C372.493 314.418 372.644 314.427 372.799 314.427C373.081 314.427 373.325 314.372 373.53 314.263C373.74 314.158 373.92 314.003 374.07 313.798C374.221 313.593 374.351 313.349 374.46 313.066L374.87 312.014L371.869 304.508ZM316.348 322.371C317.173 322.371 317.795 322.588 318.214 323.021C318.633 323.449 318.843 324.139 318.843 325.092V330H317.722V325.146C317.722 324.54 317.59 324.087 317.325 323.786C317.065 323.481 316.678 323.328 316.163 323.328C315.438 323.328 314.912 323.538 314.584 323.957C314.256 324.376 314.092 324.994 314.092 325.81V330H312.964V325.146C312.964 324.741 312.905 324.404 312.786 324.135C312.672 323.866 312.499 323.665 312.267 323.533C312.039 323.396 311.749 323.328 311.398 323.328C310.902 323.328 310.503 323.431 310.202 323.636C309.901 323.841 309.683 324.146 309.546 324.552C309.414 324.953 309.348 325.447 309.348 326.035V330H308.213V322.508H309.129L309.3 323.567H309.361C309.512 323.308 309.701 323.089 309.929 322.911C310.157 322.733 310.412 322.599 310.694 322.508C310.977 322.417 311.278 322.371 311.597 322.371C312.166 322.371 312.643 322.478 313.025 322.692C313.413 322.902 313.693 323.223 313.866 323.656H313.928C314.174 323.223 314.511 322.902 314.939 322.692C315.368 322.478 315.837 322.371 316.348 322.371ZM323.977 322.385C324.87 322.385 325.533 322.585 325.966 322.986C326.399 323.387 326.615 324.028 326.615 324.907V330H325.788L325.569 328.893H325.515C325.305 329.166 325.086 329.396 324.858 329.583C324.631 329.765 324.366 329.904 324.065 330C323.769 330.091 323.405 330.137 322.972 330.137C322.516 330.137 322.11 330.057 321.755 329.897C321.404 329.738 321.126 329.496 320.921 329.173C320.72 328.849 320.62 328.439 320.62 327.942C320.62 327.195 320.916 326.621 321.509 326.22C322.101 325.819 323.004 325.6 324.216 325.563L325.508 325.509V325.051C325.508 324.404 325.369 323.95 325.091 323.69C324.813 323.431 324.421 323.301 323.915 323.301C323.523 323.301 323.149 323.358 322.794 323.472C322.438 323.586 322.101 323.72 321.782 323.875L321.434 323.014C321.771 322.84 322.158 322.692 322.596 322.569C323.033 322.446 323.493 322.385 323.977 322.385ZM325.494 326.309L324.353 326.356C323.418 326.393 322.76 326.546 322.377 326.814C321.994 327.083 321.803 327.464 321.803 327.956C321.803 328.384 321.933 328.701 322.192 328.906C322.452 329.111 322.796 329.214 323.225 329.214C323.89 329.214 324.435 329.029 324.858 328.66C325.282 328.291 325.494 327.737 325.494 326.999V326.309ZM332.501 322.371C333.39 322.371 334.062 322.59 334.518 323.027C334.973 323.46 335.201 324.158 335.201 325.119V330H334.08V325.194C334.08 324.57 333.937 324.103 333.649 323.793C333.367 323.483 332.932 323.328 332.344 323.328C331.514 323.328 330.931 323.563 330.594 324.032C330.257 324.502 330.088 325.183 330.088 326.076V330H328.953V322.508H329.869L330.04 323.588H330.102C330.261 323.324 330.464 323.103 330.71 322.925C330.956 322.743 331.232 322.606 331.537 322.515C331.842 322.419 332.164 322.371 332.501 322.371ZM340.342 322.385C341.235 322.385 341.898 322.585 342.331 322.986C342.764 323.387 342.98 324.028 342.98 324.907V330H342.153L341.935 328.893H341.88C341.67 329.166 341.451 329.396 341.224 329.583C340.996 329.765 340.731 329.904 340.431 330C340.134 330.091 339.77 330.137 339.337 330.137C338.881 330.137 338.476 330.057 338.12 329.897C337.769 329.738 337.491 329.496 337.286 329.173C337.086 328.849 336.985 328.439 336.985 327.942C336.985 327.195 337.282 326.621 337.874 326.22C338.466 325.819 339.369 325.6 340.581 325.563L341.873 325.509V325.051C341.873 324.404 341.734 323.95 341.456 323.69C341.178 323.431 340.786 323.301 340.28 323.301C339.888 323.301 339.515 323.358 339.159 323.472C338.804 323.586 338.466 323.72 338.147 323.875L337.799 323.014C338.136 322.84 338.523 322.692 338.961 322.569C339.398 322.446 339.859 322.385 340.342 322.385ZM341.859 326.309L340.718 326.356C339.784 326.393 339.125 326.546 338.742 326.814C338.359 327.083 338.168 327.464 338.168 327.956C338.168 328.384 338.298 328.701 338.558 328.906C338.817 329.111 339.161 329.214 339.59 329.214C340.255 329.214 340.8 329.029 341.224 328.66C341.647 328.291 341.859 327.737 341.859 326.999V326.309ZM347.41 333.363C346.426 333.363 345.667 333.179 345.134 332.81C344.601 332.445 344.334 331.932 344.334 331.271C344.334 330.802 344.482 330.401 344.778 330.068C345.079 329.736 345.494 329.515 346.022 329.405C345.826 329.314 345.658 329.177 345.517 328.995C345.38 328.813 345.312 328.603 345.312 328.366C345.312 328.093 345.387 327.854 345.537 327.648C345.692 327.439 345.927 327.238 346.241 327.047C345.849 326.887 345.53 326.618 345.284 326.24C345.043 325.857 344.922 325.413 344.922 324.907C344.922 324.369 345.034 323.911 345.257 323.533C345.48 323.15 345.804 322.859 346.228 322.658C346.651 322.458 347.164 322.357 347.766 322.357C347.898 322.357 348.03 322.364 348.162 322.378C348.299 322.387 348.429 322.403 348.552 322.426C348.675 322.444 348.782 322.467 348.873 322.494H351.443V323.226L350.062 323.396C350.199 323.574 350.313 323.788 350.404 324.039C350.495 324.29 350.541 324.568 350.541 324.873C350.541 325.62 350.288 326.215 349.782 326.657C349.276 327.095 348.581 327.313 347.697 327.313C347.488 327.313 347.273 327.295 347.055 327.259C346.831 327.382 346.66 327.519 346.542 327.669C346.428 327.819 346.371 327.993 346.371 328.188C346.371 328.334 346.414 328.451 346.501 328.537C346.592 328.624 346.722 328.688 346.891 328.729C347.059 328.765 347.262 328.783 347.499 328.783H348.818C349.634 328.783 350.258 328.954 350.691 329.296C351.129 329.638 351.348 330.137 351.348 330.793C351.348 331.622 351.01 332.258 350.336 332.7C349.661 333.142 348.686 333.363 347.41 333.363ZM347.444 332.475C348.064 332.475 348.577 332.411 348.982 332.283C349.393 332.16 349.698 331.98 349.898 331.743C350.104 331.511 350.206 331.233 350.206 330.909C350.206 330.608 350.138 330.381 350.001 330.226C349.864 330.075 349.664 329.975 349.399 329.925C349.135 329.87 348.812 329.843 348.429 329.843H347.13C346.793 329.843 346.499 329.895 346.248 330C345.997 330.105 345.804 330.26 345.667 330.465C345.535 330.67 345.469 330.925 345.469 331.23C345.469 331.636 345.64 331.944 345.981 332.153C346.323 332.368 346.811 332.475 347.444 332.475ZM347.738 326.486C348.281 326.486 348.688 326.35 348.962 326.076C349.235 325.803 349.372 325.404 349.372 324.88C349.372 324.319 349.233 323.9 348.955 323.622C348.677 323.34 348.267 323.198 347.725 323.198C347.205 323.198 346.804 323.344 346.521 323.636C346.243 323.923 346.104 324.344 346.104 324.9C346.104 325.411 346.246 325.803 346.528 326.076C346.811 326.35 347.214 326.486 347.738 326.486ZM355.805 322.371C356.443 322.371 356.99 322.512 357.445 322.795C357.901 323.077 358.25 323.474 358.491 323.984C358.733 324.49 358.854 325.083 358.854 325.762V326.466H353.679C353.692 327.345 353.911 328.015 354.335 328.476C354.759 328.936 355.356 329.166 356.126 329.166C356.6 329.166 357.019 329.123 357.384 329.036C357.748 328.95 358.127 328.822 358.519 328.653V329.651C358.14 329.82 357.764 329.943 357.391 330.021C357.021 330.098 356.584 330.137 356.078 330.137C355.358 330.137 354.729 329.991 354.191 329.699C353.658 329.403 353.243 328.97 352.947 328.4C352.651 327.831 352.503 327.133 352.503 326.309C352.503 325.502 352.637 324.805 352.906 324.217C353.18 323.624 353.562 323.169 354.055 322.85C354.551 322.531 355.135 322.371 355.805 322.371ZM355.791 323.301C355.185 323.301 354.702 323.499 354.342 323.896C353.982 324.292 353.768 324.846 353.699 325.557H357.664C357.66 325.11 357.589 324.718 357.452 324.381C357.32 324.039 357.117 323.775 356.844 323.588C356.57 323.396 356.219 323.301 355.791 323.301ZM368.916 322.371C369.741 322.371 370.363 322.588 370.782 323.021C371.201 323.449 371.411 324.139 371.411 325.092V330H370.29V325.146C370.29 324.54 370.158 324.087 369.894 323.786C369.634 323.481 369.246 323.328 368.731 323.328C368.007 323.328 367.48 323.538 367.152 323.957C366.824 324.376 366.66 324.994 366.66 325.81V330H365.532V325.146C365.532 324.741 365.473 324.404 365.354 324.135C365.241 323.866 365.067 323.665 364.835 323.533C364.607 323.396 364.318 323.328 363.967 323.328C363.47 323.328 363.071 323.431 362.771 323.636C362.47 323.841 362.251 324.146 362.114 324.552C361.982 324.953 361.916 325.447 361.916 326.035V330H360.781V322.508H361.697L361.868 323.567H361.93C362.08 323.308 362.269 323.089 362.497 322.911C362.725 322.733 362.98 322.599 363.263 322.508C363.545 322.417 363.846 322.371 364.165 322.371C364.735 322.371 365.211 322.478 365.594 322.692C365.981 322.902 366.261 323.223 366.435 323.656H366.496C366.742 323.223 367.079 322.902 367.508 322.692C367.936 322.478 368.406 322.371 368.916 322.371ZM376.627 322.371C377.265 322.371 377.812 322.512 378.268 322.795C378.723 323.077 379.072 323.474 379.313 323.984C379.555 324.49 379.676 325.083 379.676 325.762V326.466H374.501C374.515 327.345 374.733 328.015 375.157 328.476C375.581 328.936 376.178 329.166 376.948 329.166C377.422 329.166 377.841 329.123 378.206 329.036C378.571 328.95 378.949 328.822 379.341 328.653V329.651C378.963 329.82 378.587 329.943 378.213 330.021C377.844 330.098 377.406 330.137 376.9 330.137C376.18 330.137 375.551 329.991 375.014 329.699C374.48 329.403 374.066 328.97 373.77 328.4C373.473 327.831 373.325 327.133 373.325 326.309C373.325 325.502 373.46 324.805 373.729 324.217C374.002 323.624 374.385 323.169 374.877 322.85C375.374 322.531 375.957 322.371 376.627 322.371ZM376.613 323.301C376.007 323.301 375.524 323.499 375.164 323.896C374.804 324.292 374.59 324.846 374.521 325.557H378.486C378.482 325.11 378.411 324.718 378.274 324.381C378.142 324.039 377.939 323.775 377.666 323.588C377.393 323.396 377.042 323.301 376.613 323.301ZM385.151 322.371C386.04 322.371 386.712 322.59 387.168 323.027C387.624 323.46 387.852 324.158 387.852 325.119V330H386.73V325.194C386.73 324.57 386.587 324.103 386.3 323.793C386.017 323.483 385.582 323.328 384.994 323.328C384.165 323.328 383.581 323.563 383.244 324.032C382.907 324.502 382.738 325.183 382.738 326.076V330H381.604V322.508H382.52L382.69 323.588H382.752C382.911 323.324 383.114 323.103 383.36 322.925C383.606 322.743 383.882 322.606 384.188 322.515C384.493 322.419 384.814 322.371 385.151 322.371ZM392.609 329.207C392.796 329.207 392.988 329.191 393.184 329.159C393.38 329.127 393.539 329.089 393.662 329.043V329.925C393.53 329.984 393.345 330.034 393.108 330.075C392.876 330.116 392.648 330.137 392.425 330.137C392.028 330.137 391.668 330.068 391.345 329.932C391.021 329.79 390.761 329.553 390.565 329.221C390.374 328.888 390.278 328.428 390.278 327.84V323.396H389.212V322.843L390.285 322.398L390.736 320.771H391.42V322.508H393.614V323.396H391.42V327.806C391.42 328.275 391.527 328.626 391.741 328.858C391.96 329.091 392.249 329.207 392.609 329.207Z" fill="#7F7F7F"/>
<path d="M136.632 312V302.006H137.794V312H136.632ZM143.919 304.371C144.808 304.371 145.48 304.59 145.936 305.027C146.391 305.46 146.619 306.158 146.619 307.119V312H145.498V307.194C145.498 306.57 145.354 306.103 145.067 305.793C144.785 305.483 144.35 305.328 143.762 305.328C142.932 305.328 142.349 305.563 142.012 306.032C141.674 306.502 141.506 307.183 141.506 308.076V312H140.371V304.508H141.287L141.458 305.588H141.52C141.679 305.324 141.882 305.103 142.128 304.925C142.374 304.743 142.65 304.606 142.955 304.515C143.26 304.419 143.582 304.371 143.919 304.371ZM151.623 312.137C150.675 312.137 149.923 311.813 149.367 311.166C148.816 310.519 148.54 309.557 148.54 308.281C148.54 306.992 148.823 306.019 149.388 305.362C149.953 304.701 150.705 304.371 151.644 304.371C152.04 304.371 152.386 304.424 152.683 304.528C152.979 304.633 153.234 304.774 153.448 304.952C153.662 305.125 153.842 305.324 153.988 305.547H154.07C154.052 305.406 154.034 305.212 154.016 304.966C153.997 304.72 153.988 304.519 153.988 304.364V301.363H155.123V312H154.207L154.036 310.934H153.988C153.847 311.157 153.667 311.36 153.448 311.542C153.234 311.724 152.977 311.87 152.676 311.979C152.38 312.084 152.029 312.137 151.623 312.137ZM151.801 311.193C152.603 311.193 153.17 310.965 153.503 310.51C153.836 310.054 154.002 309.377 154.002 308.479V308.274C154.002 307.322 153.842 306.59 153.523 306.08C153.209 305.57 152.635 305.314 151.801 305.314C151.104 305.314 150.582 305.583 150.235 306.121C149.889 306.654 149.716 307.383 149.716 308.309C149.716 309.229 149.887 309.94 150.229 310.441C150.575 310.943 151.099 311.193 151.801 311.193ZM158.664 304.508V312H157.529V304.508H158.664ZM158.11 301.705C158.297 301.705 158.457 301.767 158.589 301.89C158.726 302.008 158.794 302.195 158.794 302.45C158.794 302.701 158.726 302.888 158.589 303.011C158.457 303.134 158.297 303.195 158.11 303.195C157.914 303.195 157.75 303.134 157.618 303.011C157.491 302.888 157.427 302.701 157.427 302.45C157.427 302.195 157.491 302.008 157.618 301.89C157.75 301.767 157.914 301.705 158.11 301.705ZM162.718 312L159.874 304.508H161.091L162.738 309.04C162.852 309.35 162.968 309.692 163.087 310.065C163.205 310.439 163.287 310.74 163.333 310.968H163.381C163.436 310.74 163.527 310.439 163.654 310.065C163.782 309.687 163.898 309.345 164.003 309.04L165.65 304.508H166.867L164.017 312H162.718ZM169.205 304.508V312H168.07V304.508H169.205ZM168.651 301.705C168.838 301.705 168.998 301.767 169.13 301.89C169.267 302.008 169.335 302.195 169.335 302.45C169.335 302.701 169.267 302.888 169.13 303.011C168.998 303.134 168.838 303.195 168.651 303.195C168.455 303.195 168.291 303.134 168.159 303.011C168.032 302.888 167.968 302.701 167.968 302.45C167.968 302.195 168.032 302.008 168.159 301.89C168.291 301.767 168.455 301.705 168.651 301.705ZM174.277 312.137C173.329 312.137 172.577 311.813 172.021 311.166C171.47 310.519 171.194 309.557 171.194 308.281C171.194 306.992 171.477 306.019 172.042 305.362C172.607 304.701 173.359 304.371 174.298 304.371C174.694 304.371 175.041 304.424 175.337 304.528C175.633 304.633 175.888 304.774 176.103 304.952C176.317 305.125 176.497 305.324 176.643 305.547H176.725C176.706 305.406 176.688 305.212 176.67 304.966C176.652 304.72 176.643 304.519 176.643 304.364V301.363H177.777V312H176.861L176.69 310.934H176.643C176.501 311.157 176.321 311.36 176.103 311.542C175.888 311.724 175.631 311.87 175.33 311.979C175.034 312.084 174.683 312.137 174.277 312.137ZM174.455 311.193C175.257 311.193 175.825 310.965 176.157 310.51C176.49 310.054 176.656 309.377 176.656 308.479V308.274C176.656 307.322 176.497 306.59 176.178 306.08C175.863 305.57 175.289 305.314 174.455 305.314C173.758 305.314 173.236 305.583 172.89 306.121C172.543 306.654 172.37 307.383 172.37 308.309C172.37 309.229 172.541 309.94 172.883 310.441C173.229 310.943 173.753 311.193 174.455 311.193ZM186.37 304.508V312H185.44L185.276 310.947H185.215C185.06 311.207 184.859 311.426 184.613 311.604C184.367 311.781 184.089 311.913 183.779 312C183.474 312.091 183.148 312.137 182.802 312.137C182.209 312.137 181.713 312.041 181.312 311.85C180.91 311.658 180.607 311.362 180.402 310.961C180.202 310.56 180.102 310.045 180.102 309.416V304.508H181.25V309.334C181.25 309.958 181.391 310.425 181.674 310.735C181.956 311.041 182.387 311.193 182.966 311.193C183.522 311.193 183.964 311.089 184.292 310.879C184.625 310.669 184.864 310.362 185.01 309.956C185.156 309.546 185.229 309.045 185.229 308.452V304.508H186.37ZM191.572 304.385C192.465 304.385 193.129 304.585 193.562 304.986C193.994 305.387 194.211 306.028 194.211 306.907V312H193.384L193.165 310.893H193.11C192.901 311.166 192.682 311.396 192.454 311.583C192.226 311.765 191.962 311.904 191.661 312C191.365 312.091 191 312.137 190.567 312.137C190.112 312.137 189.706 312.057 189.351 311.897C189 311.738 188.722 311.496 188.517 311.173C188.316 310.849 188.216 310.439 188.216 309.942C188.216 309.195 188.512 308.621 189.104 308.22C189.697 307.819 190.599 307.6 191.812 307.563L193.104 307.509V307.051C193.104 306.404 192.965 305.95 192.687 305.69C192.409 305.431 192.017 305.301 191.511 305.301C191.119 305.301 190.745 305.358 190.39 305.472C190.034 305.586 189.697 305.72 189.378 305.875L189.029 305.014C189.367 304.84 189.754 304.692 190.191 304.569C190.629 304.446 191.089 304.385 191.572 304.385ZM193.09 308.309L191.948 308.356C191.014 308.393 190.355 308.546 189.973 308.814C189.59 309.083 189.398 309.464 189.398 309.956C189.398 310.384 189.528 310.701 189.788 310.906C190.048 311.111 190.392 311.214 190.82 311.214C191.486 311.214 192.03 311.029 192.454 310.66C192.878 310.291 193.09 309.737 193.09 308.999V308.309ZM197.69 312H196.549V301.363H197.69V312ZM208.573 309.949C208.573 310.428 208.452 310.831 208.211 311.159C207.974 311.483 207.632 311.727 207.186 311.891C206.743 312.055 206.215 312.137 205.6 312.137C205.076 312.137 204.622 312.096 204.239 312.014C203.856 311.932 203.521 311.815 203.234 311.665V310.619C203.54 310.77 203.904 310.906 204.328 311.029C204.752 311.152 205.185 311.214 205.627 311.214C206.274 311.214 206.743 311.109 207.035 310.899C207.327 310.69 207.473 310.405 207.473 310.045C207.473 309.84 207.413 309.66 207.295 309.505C207.181 309.345 206.987 309.193 206.714 309.047C206.44 308.896 206.062 308.732 205.579 308.555C205.101 308.372 204.686 308.192 204.335 308.015C203.989 307.832 203.72 307.611 203.528 307.352C203.341 307.092 203.248 306.755 203.248 306.34C203.248 305.706 203.503 305.221 204.014 304.884C204.529 304.542 205.203 304.371 206.037 304.371C206.488 304.371 206.91 304.417 207.302 304.508C207.698 304.594 208.067 304.713 208.409 304.863L208.026 305.772C207.716 305.64 207.386 305.529 207.035 305.438C206.684 305.346 206.326 305.301 205.962 305.301C205.438 305.301 205.035 305.387 204.752 305.561C204.474 305.734 204.335 305.971 204.335 306.271C204.335 306.504 204.399 306.695 204.526 306.846C204.659 306.996 204.868 307.137 205.155 307.27C205.442 307.402 205.821 307.557 206.29 307.734C206.759 307.908 207.165 308.088 207.507 308.274C207.849 308.457 208.111 308.68 208.293 308.944C208.48 309.204 208.573 309.539 208.573 309.949ZM213.283 304.371C213.921 304.371 214.468 304.512 214.924 304.795C215.38 305.077 215.728 305.474 215.97 305.984C216.211 306.49 216.332 307.083 216.332 307.762V308.466H211.157C211.171 309.345 211.39 310.015 211.813 310.476C212.237 310.936 212.834 311.166 213.604 311.166C214.078 311.166 214.498 311.123 214.862 311.036C215.227 310.95 215.605 310.822 215.997 310.653V311.651C215.619 311.82 215.243 311.943 214.869 312.021C214.5 312.098 214.062 312.137 213.557 312.137C212.837 312.137 212.208 311.991 211.67 311.699C211.137 311.403 210.722 310.97 210.426 310.4C210.13 309.831 209.981 309.133 209.981 308.309C209.981 307.502 210.116 306.805 210.385 306.217C210.658 305.624 211.041 305.169 211.533 304.85C212.03 304.531 212.613 304.371 213.283 304.371ZM213.27 305.301C212.663 305.301 212.18 305.499 211.82 305.896C211.46 306.292 211.246 306.846 211.178 307.557H215.143C215.138 307.11 215.067 306.718 214.931 306.381C214.799 306.039 214.596 305.775 214.322 305.588C214.049 305.396 213.698 305.301 213.27 305.301ZM220.352 315.363C219.367 315.363 218.608 315.179 218.075 314.81C217.542 314.445 217.275 313.932 217.275 313.271C217.275 312.802 217.424 312.401 217.72 312.068C218.021 311.736 218.435 311.515 218.964 311.405C218.768 311.314 218.599 311.177 218.458 310.995C218.321 310.813 218.253 310.603 218.253 310.366C218.253 310.093 218.328 309.854 218.479 309.648C218.633 309.439 218.868 309.238 219.183 309.047C218.791 308.887 218.472 308.618 218.226 308.24C217.984 307.857 217.863 307.413 217.863 306.907C217.863 306.369 217.975 305.911 218.198 305.533C218.422 305.15 218.745 304.859 219.169 304.658C219.593 304.458 220.105 304.357 220.707 304.357C220.839 304.357 220.971 304.364 221.104 304.378C221.24 304.387 221.37 304.403 221.493 304.426C221.616 304.444 221.723 304.467 221.814 304.494H224.385V305.226L223.004 305.396C223.141 305.574 223.255 305.788 223.346 306.039C223.437 306.29 223.482 306.568 223.482 306.873C223.482 307.62 223.229 308.215 222.724 308.657C222.218 309.095 221.523 309.313 220.639 309.313C220.429 309.313 220.215 309.295 219.996 309.259C219.773 309.382 219.602 309.519 219.483 309.669C219.369 309.819 219.312 309.993 219.312 310.188C219.312 310.334 219.356 310.451 219.442 310.537C219.534 310.624 219.663 310.688 219.832 310.729C220.001 310.765 220.203 310.783 220.44 310.783H221.76C222.576 310.783 223.2 310.954 223.633 311.296C224.07 311.638 224.289 312.137 224.289 312.793C224.289 313.622 223.952 314.258 223.277 314.7C222.603 315.142 221.628 315.363 220.352 315.363ZM220.386 314.475C221.006 314.475 221.518 314.411 221.924 314.283C222.334 314.16 222.639 313.98 222.84 313.743C223.045 313.511 223.147 313.233 223.147 312.909C223.147 312.608 223.079 312.381 222.942 312.226C222.806 312.075 222.605 311.975 222.341 311.925C222.076 311.87 221.753 311.843 221.37 311.843H220.071C219.734 311.843 219.44 311.895 219.189 312C218.939 312.105 218.745 312.26 218.608 312.465C218.476 312.67 218.41 312.925 218.41 313.23C218.41 313.636 218.581 313.944 218.923 314.153C219.265 314.368 219.752 314.475 220.386 314.475ZM220.68 308.486C221.222 308.486 221.63 308.35 221.903 308.076C222.177 307.803 222.313 307.404 222.313 306.88C222.313 306.319 222.174 305.9 221.896 305.622C221.618 305.34 221.208 305.198 220.666 305.198C220.146 305.198 219.745 305.344 219.463 305.636C219.185 305.923 219.046 306.344 219.046 306.9C219.046 307.411 219.187 307.803 219.47 308.076C219.752 308.35 220.156 308.486 220.68 308.486ZM233.996 304.371C234.821 304.371 235.443 304.588 235.862 305.021C236.282 305.449 236.491 306.139 236.491 307.092V312H235.37V307.146C235.37 306.54 235.238 306.087 234.974 305.786C234.714 305.481 234.326 305.328 233.812 305.328C233.087 305.328 232.561 305.538 232.232 305.957C231.904 306.376 231.74 306.994 231.74 307.81V312H230.612V307.146C230.612 306.741 230.553 306.404 230.435 306.135C230.321 305.866 230.147 305.665 229.915 305.533C229.687 305.396 229.398 305.328 229.047 305.328C228.55 305.328 228.151 305.431 227.851 305.636C227.55 305.841 227.331 306.146 227.194 306.552C227.062 306.953 226.996 307.447 226.996 308.035V312H225.861V304.508H226.777L226.948 305.567H227.01C227.16 305.308 227.349 305.089 227.577 304.911C227.805 304.733 228.06 304.599 228.343 304.508C228.625 304.417 228.926 304.371 229.245 304.371C229.815 304.371 230.291 304.478 230.674 304.692C231.061 304.902 231.341 305.223 231.515 305.656H231.576C231.822 305.223 232.16 304.902 232.588 304.692C233.016 304.478 233.486 304.371 233.996 304.371ZM241.707 304.371C242.345 304.371 242.892 304.512 243.348 304.795C243.803 305.077 244.152 305.474 244.394 305.984C244.635 306.49 244.756 307.083 244.756 307.762V308.466H239.581C239.595 309.345 239.813 310.015 240.237 310.476C240.661 310.936 241.258 311.166 242.028 311.166C242.502 311.166 242.922 311.123 243.286 311.036C243.651 310.95 244.029 310.822 244.421 310.653V311.651C244.043 311.82 243.667 311.943 243.293 312.021C242.924 312.098 242.486 312.137 241.98 312.137C241.26 312.137 240.632 311.991 240.094 311.699C239.561 311.403 239.146 310.97 238.85 310.4C238.553 309.831 238.405 309.133 238.405 308.309C238.405 307.502 238.54 306.805 238.809 306.217C239.082 305.624 239.465 305.169 239.957 304.85C240.454 304.531 241.037 304.371 241.707 304.371ZM241.693 305.301C241.087 305.301 240.604 305.499 240.244 305.896C239.884 306.292 239.67 306.846 239.602 307.557H243.566C243.562 307.11 243.491 306.718 243.354 306.381C243.222 306.039 243.02 305.775 242.746 305.588C242.473 305.396 242.122 305.301 241.693 305.301ZM250.231 304.371C251.12 304.371 251.792 304.59 252.248 305.027C252.704 305.46 252.932 306.158 252.932 307.119V312H251.811V307.194C251.811 306.57 251.667 306.103 251.38 305.793C251.097 305.483 250.662 305.328 250.074 305.328C249.245 305.328 248.661 305.563 248.324 306.032C247.987 306.502 247.818 307.183 247.818 308.076V312H246.684V304.508H247.6L247.771 305.588H247.832C247.992 305.324 248.194 305.103 248.44 304.925C248.687 304.743 248.962 304.606 249.268 304.515C249.573 304.419 249.894 304.371 250.231 304.371ZM257.689 311.207C257.876 311.207 258.068 311.191 258.264 311.159C258.46 311.127 258.619 311.089 258.742 311.043V311.925C258.61 311.984 258.425 312.034 258.188 312.075C257.956 312.116 257.728 312.137 257.505 312.137C257.108 312.137 256.748 312.068 256.425 311.932C256.101 311.79 255.841 311.553 255.646 311.221C255.454 310.888 255.358 310.428 255.358 309.84V305.396H254.292V304.843L255.365 304.398L255.816 302.771H256.5V304.508H258.694V305.396H256.5V309.806C256.5 310.275 256.607 310.626 256.821 310.858C257.04 311.091 257.329 311.207 257.689 311.207ZM265.106 309.949C265.106 310.428 264.986 310.831 264.744 311.159C264.507 311.483 264.165 311.727 263.719 311.891C263.277 312.055 262.748 312.137 262.133 312.137C261.609 312.137 261.155 312.096 260.772 312.014C260.39 311.932 260.055 311.815 259.768 311.665V310.619C260.073 310.77 260.438 310.906 260.861 311.029C261.285 311.152 261.718 311.214 262.16 311.214C262.807 311.214 263.277 311.109 263.568 310.899C263.86 310.69 264.006 310.405 264.006 310.045C264.006 309.84 263.947 309.66 263.828 309.505C263.714 309.345 263.521 309.193 263.247 309.047C262.974 308.896 262.595 308.732 262.112 308.555C261.634 308.372 261.219 308.192 260.868 308.015C260.522 307.832 260.253 307.611 260.062 307.352C259.875 307.092 259.781 306.755 259.781 306.34C259.781 305.706 260.036 305.221 260.547 304.884C261.062 304.542 261.736 304.371 262.57 304.371C263.021 304.371 263.443 304.417 263.835 304.508C264.231 304.594 264.601 304.713 264.942 304.863L264.56 305.772C264.25 305.64 263.919 305.529 263.568 305.438C263.217 305.346 262.86 305.301 262.495 305.301C261.971 305.301 261.568 305.387 261.285 305.561C261.007 305.734 260.868 305.971 260.868 306.271C260.868 306.504 260.932 306.695 261.06 306.846C261.192 306.996 261.401 307.137 261.688 307.27C261.976 307.402 262.354 307.557 262.823 307.734C263.293 307.908 263.698 308.088 264.04 308.274C264.382 308.457 264.644 308.68 264.826 308.944C265.013 309.204 265.106 309.539 265.106 309.949ZM117.908 323.396H116.042V330H114.907V323.396H113.581V322.85L114.907 322.474V321.975C114.907 321.346 115.001 320.835 115.188 320.443C115.374 320.047 115.646 319.755 116.001 319.568C116.356 319.382 116.789 319.288 117.3 319.288C117.587 319.288 117.849 319.313 118.086 319.363C118.327 319.413 118.539 319.47 118.722 319.534L118.428 320.43C118.273 320.38 118.097 320.334 117.901 320.293C117.71 320.247 117.514 320.225 117.313 320.225C116.881 320.225 116.559 320.366 116.35 320.648C116.145 320.926 116.042 321.364 116.042 321.961V322.508H117.908V323.396ZM125.749 326.24C125.749 326.855 125.669 327.405 125.51 327.888C125.35 328.371 125.12 328.779 124.819 329.111C124.519 329.444 124.154 329.699 123.726 329.877C123.302 330.05 122.821 330.137 122.283 330.137C121.782 330.137 121.322 330.05 120.902 329.877C120.488 329.699 120.128 329.444 119.822 329.111C119.521 328.779 119.287 328.371 119.118 327.888C118.954 327.405 118.872 326.855 118.872 326.24C118.872 325.42 119.011 324.723 119.289 324.148C119.567 323.57 119.964 323.13 120.479 322.829C120.998 322.524 121.616 322.371 122.331 322.371C123.015 322.371 123.612 322.524 124.122 322.829C124.637 323.134 125.036 323.576 125.318 324.155C125.605 324.729 125.749 325.424 125.749 326.24ZM120.048 326.24C120.048 326.842 120.128 327.364 120.287 327.806C120.447 328.248 120.693 328.59 121.025 328.831C121.358 329.073 121.786 329.193 122.311 329.193C122.83 329.193 123.256 329.073 123.589 328.831C123.926 328.59 124.174 328.248 124.334 327.806C124.493 327.364 124.573 326.842 124.573 326.24C124.573 325.643 124.493 325.128 124.334 324.695C124.174 324.258 123.928 323.921 123.596 323.684C123.263 323.447 122.832 323.328 122.304 323.328C121.524 323.328 120.952 323.586 120.588 324.101C120.228 324.616 120.048 325.329 120.048 326.24ZM131.115 322.371C131.266 322.371 131.423 322.38 131.587 322.398C131.751 322.412 131.897 322.433 132.024 322.46L131.881 323.513C131.758 323.481 131.621 323.456 131.471 323.438C131.32 323.419 131.179 323.41 131.047 323.41C130.746 323.41 130.461 323.472 130.192 323.595C129.928 323.713 129.696 323.886 129.495 324.114C129.295 324.338 129.137 324.609 129.023 324.928C128.91 325.242 128.853 325.593 128.853 325.98V330H127.711V322.508H128.654L128.777 323.889H128.825C128.98 323.611 129.167 323.358 129.386 323.13C129.604 322.897 129.857 322.713 130.145 322.576C130.436 322.439 130.76 322.371 131.115 322.371ZM143.536 326.24C143.536 326.855 143.456 327.405 143.297 327.888C143.137 328.371 142.907 328.779 142.606 329.111C142.306 329.444 141.941 329.699 141.513 329.877C141.089 330.05 140.608 330.137 140.07 330.137C139.569 330.137 139.109 330.05 138.689 329.877C138.275 329.699 137.915 329.444 137.609 329.111C137.309 328.779 137.074 328.371 136.905 327.888C136.741 327.405 136.659 326.855 136.659 326.24C136.659 325.42 136.798 324.723 137.076 324.148C137.354 323.57 137.751 323.13 138.266 322.829C138.785 322.524 139.403 322.371 140.118 322.371C140.802 322.371 141.399 322.524 141.909 322.829C142.424 323.134 142.823 323.576 143.105 324.155C143.393 324.729 143.536 325.424 143.536 326.24ZM137.835 326.24C137.835 326.842 137.915 327.364 138.074 327.806C138.234 328.248 138.48 328.59 138.812 328.831C139.145 329.073 139.574 329.193 140.098 329.193C140.617 329.193 141.043 329.073 141.376 328.831C141.713 328.59 141.962 328.248 142.121 327.806C142.281 327.364 142.36 326.842 142.36 326.24C142.36 325.643 142.281 325.128 142.121 324.695C141.962 324.258 141.715 323.921 141.383 323.684C141.05 323.447 140.619 323.328 140.091 323.328C139.312 323.328 138.74 323.586 138.375 324.101C138.015 324.616 137.835 325.329 137.835 326.24ZM149.046 322.371C149.935 322.371 150.607 322.59 151.062 323.027C151.518 323.46 151.746 324.158 151.746 325.119V330H150.625V325.194C150.625 324.57 150.481 324.103 150.194 323.793C149.912 323.483 149.477 323.328 148.889 323.328C148.059 323.328 147.476 323.563 147.139 324.032C146.801 324.502 146.633 325.183 146.633 326.076V330H145.498V322.508H146.414L146.585 323.588H146.646C146.806 323.324 147.009 323.103 147.255 322.925C147.501 322.743 147.777 322.606 148.082 322.515C148.387 322.419 148.709 322.371 149.046 322.371ZM156.969 322.371C157.607 322.371 158.154 322.512 158.609 322.795C159.065 323.077 159.414 323.474 159.655 323.984C159.897 324.49 160.018 325.083 160.018 325.762V326.466H154.843C154.856 327.345 155.075 328.015 155.499 328.476C155.923 328.936 156.52 329.166 157.29 329.166C157.764 329.166 158.183 329.123 158.548 329.036C158.912 328.95 159.291 328.822 159.683 328.653V329.651C159.304 329.82 158.928 329.943 158.555 330.021C158.186 330.098 157.748 330.137 157.242 330.137C156.522 330.137 155.893 329.991 155.355 329.699C154.822 329.403 154.408 328.97 154.111 328.4C153.815 327.831 153.667 327.133 153.667 326.309C153.667 325.502 153.801 324.805 154.07 324.217C154.344 323.624 154.727 323.169 155.219 322.85C155.715 322.531 156.299 322.371 156.969 322.371ZM156.955 323.301C156.349 323.301 155.866 323.499 155.506 323.896C155.146 324.292 154.932 324.846 154.863 325.557H158.828C158.824 325.11 158.753 324.718 158.616 324.381C158.484 324.039 158.281 323.775 158.008 323.588C157.734 323.396 157.383 323.301 156.955 323.301ZM172.042 326.24C172.042 326.855 171.962 327.405 171.803 327.888C171.643 328.371 171.413 328.779 171.112 329.111C170.812 329.444 170.447 329.699 170.019 329.877C169.595 330.05 169.114 330.137 168.576 330.137C168.075 330.137 167.615 330.05 167.195 329.877C166.781 329.699 166.421 329.444 166.115 329.111C165.814 328.779 165.58 328.371 165.411 327.888C165.247 327.405 165.165 326.855 165.165 326.24C165.165 325.42 165.304 324.723 165.582 324.148C165.86 323.57 166.257 323.13 166.771 322.829C167.291 322.524 167.909 322.371 168.624 322.371C169.308 322.371 169.905 322.524 170.415 322.829C170.93 323.134 171.329 323.576 171.611 324.155C171.898 324.729 172.042 325.424 172.042 326.24ZM166.341 326.24C166.341 326.842 166.421 327.364 166.58 327.806C166.74 328.248 166.986 328.59 167.318 328.831C167.651 329.073 168.079 329.193 168.604 329.193C169.123 329.193 169.549 329.073 169.882 328.831C170.219 328.59 170.467 328.248 170.627 327.806C170.786 327.364 170.866 326.842 170.866 326.24C170.866 325.643 170.786 325.128 170.627 324.695C170.467 324.258 170.221 323.921 169.889 323.684C169.556 323.447 169.125 323.328 168.597 323.328C167.817 323.328 167.245 323.586 166.881 324.101C166.521 324.616 166.341 325.329 166.341 326.24ZM177.408 322.371C177.559 322.371 177.716 322.38 177.88 322.398C178.044 322.412 178.19 322.433 178.317 322.46L178.174 323.513C178.051 323.481 177.914 323.456 177.764 323.438C177.613 323.419 177.472 323.41 177.34 323.41C177.039 323.41 176.754 323.472 176.485 323.595C176.221 323.713 175.989 323.886 175.788 324.114C175.588 324.338 175.43 324.609 175.316 324.928C175.202 325.242 175.146 325.593 175.146 325.98V330H174.004V322.508H174.947L175.07 323.889H175.118C175.273 323.611 175.46 323.358 175.679 323.13C175.897 322.897 176.15 322.713 176.438 322.576C176.729 322.439 177.053 322.371 177.408 322.371ZM191.504 322.371C192.329 322.371 192.951 322.588 193.37 323.021C193.789 323.449 193.999 324.139 193.999 325.092V330H192.878V325.146C192.878 324.54 192.746 324.087 192.481 323.786C192.222 323.481 191.834 323.328 191.319 323.328C190.595 323.328 190.068 323.538 189.74 323.957C189.412 324.376 189.248 324.994 189.248 325.81V330H188.12V325.146C188.12 324.741 188.061 324.404 187.942 324.135C187.828 323.866 187.655 323.665 187.423 323.533C187.195 323.396 186.906 323.328 186.555 323.328C186.058 323.328 185.659 323.431 185.358 323.636C185.058 323.841 184.839 324.146 184.702 324.552C184.57 324.953 184.504 325.447 184.504 326.035V330H183.369V322.508H184.285L184.456 323.567H184.518C184.668 323.308 184.857 323.089 185.085 322.911C185.313 322.733 185.568 322.599 185.851 322.508C186.133 322.417 186.434 322.371 186.753 322.371C187.323 322.371 187.799 322.478 188.182 322.692C188.569 322.902 188.849 323.223 189.022 323.656H189.084C189.33 323.223 189.667 322.902 190.096 322.692C190.524 322.478 190.993 322.371 191.504 322.371ZM202.517 322.508V330H201.587L201.423 328.947H201.361C201.206 329.207 201.006 329.426 200.76 329.604C200.514 329.781 200.236 329.913 199.926 330C199.62 330.091 199.295 330.137 198.948 330.137C198.356 330.137 197.859 330.041 197.458 329.85C197.057 329.658 196.754 329.362 196.549 328.961C196.348 328.56 196.248 328.045 196.248 327.416V322.508H197.396V327.334C197.396 327.958 197.538 328.425 197.82 328.735C198.103 329.041 198.534 329.193 199.112 329.193C199.668 329.193 200.11 329.089 200.438 328.879C200.771 328.669 201.01 328.362 201.156 327.956C201.302 327.546 201.375 327.045 201.375 326.452V322.508H202.517ZM206.058 330H204.916V319.363H206.058V330ZM210.877 329.207C211.064 329.207 211.255 329.191 211.451 329.159C211.647 329.127 211.807 329.089 211.93 329.043V329.925C211.798 329.984 211.613 330.034 211.376 330.075C211.144 330.116 210.916 330.137 210.692 330.137C210.296 330.137 209.936 330.068 209.612 329.932C209.289 329.79 209.029 329.553 208.833 329.221C208.642 328.888 208.546 328.428 208.546 327.84V323.396H207.479V322.843L208.553 322.398L209.004 320.771H209.688V322.508H211.882V323.396H209.688V327.806C209.688 328.275 209.795 328.626 210.009 328.858C210.228 329.091 210.517 329.207 210.877 329.207ZM214.582 322.508V330H213.447V322.508H214.582ZM214.028 319.705C214.215 319.705 214.375 319.767 214.507 319.89C214.644 320.008 214.712 320.195 214.712 320.45C214.712 320.701 214.644 320.888 214.507 321.011C214.375 321.134 214.215 321.195 214.028 321.195C213.832 321.195 213.668 321.134 213.536 321.011C213.409 320.888 213.345 320.701 213.345 320.45C213.345 320.195 213.409 320.008 213.536 319.89C213.668 319.767 213.832 319.705 214.028 319.705ZM220.509 322.371C221.443 322.371 222.188 322.692 222.744 323.335C223.3 323.978 223.578 324.944 223.578 326.233C223.578 327.086 223.451 327.801 223.195 328.38C222.94 328.959 222.58 329.396 222.115 329.692C221.655 329.989 221.11 330.137 220.481 330.137C220.085 330.137 219.736 330.084 219.436 329.979C219.135 329.875 218.877 329.733 218.663 329.556C218.449 329.378 218.271 329.184 218.13 328.975H218.048C218.062 329.152 218.077 329.367 218.096 329.617C218.118 329.868 218.13 330.087 218.13 330.273V333.35H216.988V322.508H217.925L218.075 323.615H218.13C218.276 323.387 218.453 323.18 218.663 322.993C218.873 322.802 219.128 322.651 219.429 322.542C219.734 322.428 220.094 322.371 220.509 322.371ZM220.311 323.328C219.791 323.328 219.372 323.428 219.053 323.629C218.738 323.829 218.508 324.13 218.362 324.531C218.216 324.928 218.139 325.427 218.13 326.028V326.247C218.13 326.881 218.198 327.416 218.335 327.854C218.476 328.291 218.706 328.624 219.025 328.852C219.349 329.079 219.782 329.193 220.324 329.193C220.789 329.193 221.176 329.068 221.486 328.817C221.796 328.567 222.026 328.218 222.177 327.771C222.332 327.32 222.409 326.803 222.409 326.22C222.409 325.336 222.236 324.634 221.89 324.114C221.548 323.59 221.021 323.328 220.311 323.328ZM226.702 330H225.561V319.363H226.702V330ZM231.986 322.371C232.624 322.371 233.171 322.512 233.627 322.795C234.083 323.077 234.431 323.474 234.673 323.984C234.914 324.49 235.035 325.083 235.035 325.762V326.466H229.86C229.874 327.345 230.093 328.015 230.517 328.476C230.94 328.936 231.537 329.166 232.308 329.166C232.782 329.166 233.201 329.123 233.565 329.036C233.93 328.95 234.308 328.822 234.7 328.653V329.651C234.322 329.82 233.946 329.943 233.572 330.021C233.203 330.098 232.766 330.137 232.26 330.137C231.54 330.137 230.911 329.991 230.373 329.699C229.84 329.403 229.425 328.97 229.129 328.4C228.833 327.831 228.685 327.133 228.685 326.309C228.685 325.502 228.819 324.805 229.088 324.217C229.361 323.624 229.744 323.169 230.236 322.85C230.733 322.531 231.316 322.371 231.986 322.371ZM231.973 323.301C231.367 323.301 230.883 323.499 230.523 323.896C230.163 324.292 229.949 324.846 229.881 325.557H233.846C233.841 325.11 233.771 324.718 233.634 324.381C233.502 324.039 233.299 323.775 233.025 323.588C232.752 323.396 232.401 323.301 231.973 323.301ZM243.266 330.137C242.318 330.137 241.566 329.813 241.01 329.166C240.458 328.519 240.183 327.557 240.183 326.281C240.183 324.992 240.465 324.019 241.03 323.362C241.595 322.701 242.347 322.371 243.286 322.371C243.683 322.371 244.029 322.424 244.325 322.528C244.621 322.633 244.877 322.774 245.091 322.952C245.305 323.125 245.485 323.324 245.631 323.547H245.713C245.695 323.406 245.676 323.212 245.658 322.966C245.64 322.72 245.631 322.519 245.631 322.364V319.363H246.766V330H245.85L245.679 328.934H245.631C245.49 329.157 245.31 329.36 245.091 329.542C244.877 329.724 244.619 329.87 244.318 329.979C244.022 330.084 243.671 330.137 243.266 330.137ZM243.443 329.193C244.245 329.193 244.813 328.965 245.146 328.51C245.478 328.054 245.645 327.377 245.645 326.479V326.274C245.645 325.322 245.485 324.59 245.166 324.08C244.852 323.57 244.277 323.314 243.443 323.314C242.746 323.314 242.224 323.583 241.878 324.121C241.532 324.654 241.358 325.383 241.358 326.309C241.358 327.229 241.529 327.94 241.871 328.441C242.217 328.943 242.742 329.193 243.443 329.193ZM252.057 322.371C252.695 322.371 253.242 322.512 253.697 322.795C254.153 323.077 254.502 323.474 254.743 323.984C254.985 324.49 255.105 325.083 255.105 325.762V326.466H249.931C249.944 327.345 250.163 328.015 250.587 328.476C251.011 328.936 251.608 329.166 252.378 329.166C252.852 329.166 253.271 329.123 253.636 329.036C254 328.95 254.379 328.822 254.771 328.653V329.651C254.392 329.82 254.016 329.943 253.643 330.021C253.273 330.098 252.836 330.137 252.33 330.137C251.61 330.137 250.981 329.991 250.443 329.699C249.91 329.403 249.495 328.97 249.199 328.4C248.903 327.831 248.755 327.133 248.755 326.309C248.755 325.502 248.889 324.805 249.158 324.217C249.432 323.624 249.814 323.169 250.307 322.85C250.803 322.531 251.387 322.371 252.057 322.371ZM252.043 323.301C251.437 323.301 250.954 323.499 250.594 323.896C250.234 324.292 250.02 324.846 249.951 325.557H253.916C253.911 325.11 253.841 324.718 253.704 324.381C253.572 324.039 253.369 323.775 253.096 323.588C252.822 323.396 252.471 323.301 252.043 323.301ZM258.681 330L255.837 322.508H257.054L258.701 327.04C258.815 327.35 258.931 327.692 259.05 328.065C259.168 328.439 259.25 328.74 259.296 328.968H259.344C259.398 328.74 259.49 328.439 259.617 328.065C259.745 327.687 259.861 327.345 259.966 327.04L261.613 322.508H262.83L259.979 330H258.681ZM265.168 322.508V330H264.033V322.508H265.168ZM264.614 319.705C264.801 319.705 264.961 319.767 265.093 319.89C265.229 320.008 265.298 320.195 265.298 320.45C265.298 320.701 265.229 320.888 265.093 321.011C264.961 321.134 264.801 321.195 264.614 321.195C264.418 321.195 264.254 321.134 264.122 321.011C263.994 320.888 263.931 320.701 263.931 320.45C263.931 320.195 263.994 320.008 264.122 319.89C264.254 319.767 264.418 319.705 264.614 319.705ZM270.575 330.137C269.901 330.137 269.306 329.998 268.791 329.72C268.276 329.442 267.875 329.018 267.588 328.448C267.301 327.879 267.157 327.161 267.157 326.295C267.157 325.388 267.308 324.647 267.608 324.073C267.914 323.494 268.333 323.066 268.866 322.788C269.399 322.51 270.006 322.371 270.685 322.371C271.058 322.371 271.418 322.41 271.765 322.487C272.116 322.56 272.403 322.654 272.626 322.768L272.284 323.718C272.056 323.627 271.792 323.545 271.491 323.472C271.195 323.399 270.917 323.362 270.657 323.362C270.138 323.362 269.705 323.474 269.358 323.697C269.017 323.921 268.759 324.249 268.586 324.682C268.417 325.115 268.333 325.648 268.333 326.281C268.333 326.887 268.415 327.405 268.579 327.833C268.748 328.261 268.996 328.59 269.324 328.817C269.657 329.041 270.072 329.152 270.568 329.152C270.965 329.152 271.323 329.111 271.642 329.029C271.961 328.943 272.25 328.842 272.51 328.729V329.74C272.259 329.868 271.979 329.966 271.669 330.034C271.364 330.103 270.999 330.137 270.575 330.137ZM277.172 322.371C277.81 322.371 278.357 322.512 278.812 322.795C279.268 323.077 279.617 323.474 279.858 323.984C280.1 324.49 280.221 325.083 280.221 325.762V326.466H275.046C275.06 327.345 275.278 328.015 275.702 328.476C276.126 328.936 276.723 329.166 277.493 329.166C277.967 329.166 278.386 329.123 278.751 329.036C279.116 328.95 279.494 328.822 279.886 328.653V329.651C279.507 329.82 279.132 329.943 278.758 330.021C278.389 330.098 277.951 330.137 277.445 330.137C276.725 330.137 276.096 329.991 275.559 329.699C275.025 329.403 274.611 328.97 274.314 328.4C274.018 327.831 273.87 327.133 273.87 326.309C273.87 325.502 274.005 324.805 274.273 324.217C274.547 323.624 274.93 323.169 275.422 322.85C275.919 322.531 276.502 322.371 277.172 322.371ZM277.158 323.301C276.552 323.301 276.069 323.499 275.709 323.896C275.349 324.292 275.135 324.846 275.066 325.557H279.031C279.027 325.11 278.956 324.718 278.819 324.381C278.687 324.039 278.484 323.775 278.211 323.588C277.938 323.396 277.587 323.301 277.158 323.301ZM286.995 327.949C286.995 328.428 286.874 328.831 286.633 329.159C286.396 329.483 286.054 329.727 285.607 329.891C285.165 330.055 284.637 330.137 284.021 330.137C283.497 330.137 283.044 330.096 282.661 330.014C282.278 329.932 281.943 329.815 281.656 329.665V328.619C281.962 328.77 282.326 328.906 282.75 329.029C283.174 329.152 283.607 329.214 284.049 329.214C284.696 329.214 285.165 329.109 285.457 328.899C285.749 328.69 285.895 328.405 285.895 328.045C285.895 327.84 285.835 327.66 285.717 327.505C285.603 327.345 285.409 327.193 285.136 327.047C284.862 326.896 284.484 326.732 284.001 326.555C283.522 326.372 283.108 326.192 282.757 326.015C282.41 325.832 282.142 325.611 281.95 325.352C281.763 325.092 281.67 324.755 281.67 324.34C281.67 323.706 281.925 323.221 282.436 322.884C282.951 322.542 283.625 322.371 284.459 322.371C284.91 322.371 285.332 322.417 285.724 322.508C286.12 322.594 286.489 322.713 286.831 322.863L286.448 323.772C286.138 323.64 285.808 323.529 285.457 323.438C285.106 323.346 284.748 323.301 284.384 323.301C283.86 323.301 283.456 323.387 283.174 323.561C282.896 323.734 282.757 323.971 282.757 324.271C282.757 324.504 282.821 324.695 282.948 324.846C283.08 324.996 283.29 325.137 283.577 325.27C283.864 325.402 284.243 325.557 284.712 325.734C285.181 325.908 285.587 326.088 285.929 326.274C286.271 326.457 286.533 326.68 286.715 326.944C286.902 327.204 286.995 327.539 286.995 327.949Z" fill="#7F7F7F"/>
<path d="M197.833 136.5C197.833 137.973 199.027 139.167 200.5 139.167C201.973 139.167 203.167 137.973 203.167 136.5C203.167 135.027 201.973 133.833 200.5 133.833C199.027 133.833 197.833 135.027 197.833 136.5ZM216.833 229.5C216.833 230.973 218.027 232.167 219.5 232.167C220.973 232.167 222.167 230.973 222.167 229.5C222.167 228.027 220.973 226.833 219.5 226.833C218.027 226.833 216.833 228.027 216.833 229.5ZM200.022 136.646C207.534 161.186 219 187.595 219 229.5H220C220 187.405 208.466 160.814 200.978 136.354L200.022 136.646Z" fill="#5496EA"/>
<circle cx="350" cy="261" r="19.25" fill="white" stroke="#333333" stroke-width="1.5"/>
<path d="M339.398 255.646L350.334 249.619L361.27 255.646H339.398ZM361.317 255.671C361.317 255.671 361.316 255.671 361.316 255.671L361.317 255.671Z" fill="#EBEDEE" stroke="#ACAEB0" stroke-width="1.5"/>
<path d="M343.159 257.906V266.969" stroke="#ACAEB0" stroke-width="1.5" stroke-linecap="round"/>
<path d="M347.69 257.906V266.969" stroke="#ACAEB0" stroke-width="1.5" stroke-linecap="round"/>
<path d="M352.222 257.906V266.969" stroke="#ACAEB0" stroke-width="1.5" stroke-linecap="round"/>
<path d="M356.753 257.906V266.969" stroke="#ACAEB0" stroke-width="1.5" stroke-linecap="round"/>
<path d="M339.069 269.222H361.41" stroke="#ACAEB0" stroke-width="1.5" stroke-linecap="round"/>
<path d="M340.893 266.969H359.774" stroke="#ACAEB0" stroke-width="1.5" stroke-linecap="round"/>
<rect x="168.787" y="241.016" width="51.8676" height="37.0647" rx="1.5" stroke="#333333"/>
<rect x="171.459" y="243.688" width="46.5235" height="31.7205" rx="1" fill="#EBEDEE"/>
<path d="M163.5 278.524C163.5 278.248 163.724 278.024 164 278.024H225.441C225.717 278.024 225.941 278.248 225.941 278.524V281.573C225.941 282.954 224.822 284.073 223.441 284.073H166C164.619 284.073 163.5 282.954 163.5 281.573V278.524Z" stroke="#333333"/>
<path d="M187.672 278.228V280.047C187.672 280.599 188.119 281.047 188.672 281.047H200.77C201.322 281.047 201.77 280.599 201.77 280.047V278.228" stroke="#333333"/>
<rect x="205.794" y="231.5" width="26.4911" height="32.8352" rx="1.5" fill="white" stroke="#333333"/>
<path d="M216.925 234.172H221.154" stroke="#333333" stroke-linecap="round"/>
<path d="M205.823 259.548H232.257" stroke="#333333" stroke-linecap="round"/>
<circle cx="219.04" cy="261.663" r="1.05735" fill="#333333"/>
<path d="M241 269.227V247.755C241 246.677 240.126 245.803 239.048 245.803H227.336C226.258 245.803 225.384 246.677 225.384 247.755V269.227C225.384 270.305 226.258 271.179 227.336 271.179H239.048C240.126 271.179 241 270.305 241 269.227Z" fill="white" stroke="#333333" stroke-linecap="round" stroke-linejoin="round"/>
<path d="M233.192 267.927C234 267.927 234.656 267.271 234.656 266.463C234.656 265.654 234 264.999 233.192 264.999C232.383 264.999 231.728 265.654 231.728 266.463C231.728 267.271 232.383 267.927 233.192 267.927Z" fill="#333333"/>
<path d="M197 99.6667C198.473 99.6667 199.667 98.4728 199.667 97C199.667 95.5272 198.473 94.3333 197 94.3333C195.527 94.3333 194.333 95.5272 194.333 97C194.333 98.4728 195.527 99.6667 197 99.6667ZM197 56.6667C198.473 56.6667 199.667 55.4728 199.667 54C199.667 52.5272 198.473 51.3333 197 51.3333C195.527 51.3333 194.333 52.5272 194.333 54C194.333 55.4728 195.527 56.6667 197 56.6667ZM197.5 97L197.5 54L196.5 54L196.5 97L197.5 97Z" fill="#5496EA"/>
</svg>
