<svg width="620" height="105" viewBox="0 0 620 105" fill="none" xmlns="http://www.w3.org/2000/svg">
<path d="M496.333 63C496.333 64.4728 497.527 65.6667 499 65.6667C500.473 65.6667 501.667 64.4728 501.667 63C501.667 61.5272 500.473 60.3333 499 60.3333C497.527 60.3333 496.333 61.5272 496.333 63ZM563.333 63C563.333 64.4728 564.527 65.6667 566 65.6667C567.473 65.6667 568.667 64.4728 568.667 63C568.667 61.5273 567.473 60.3334 566 60.3334C564.527 60.3334 563.333 61.5273 563.333 63ZM499 63.5L566 63.5L566 62.5L499 62.5L499 63.5Z" fill="#5496EA"/>
<path d="M347.333 63C347.333 64.4728 348.527 65.6667 350 65.6667C351.473 65.6667 352.667 64.4728 352.667 63C352.667 61.5272 351.473 60.3333 350 60.3333C348.527 60.3333 347.333 61.5272 347.333 63ZM424.333 63C424.333 64.4728 425.527 65.6667 427 65.6667C428.473 65.6667 429.667 64.4728 429.667 63C429.667 61.5272 428.473 60.3333 427 60.3333C425.527 60.3333 424.333 61.5272 424.333 63ZM350 63.5L427 63.5L427 62.5L350 62.5L350 63.5Z" fill="#5496EA"/>
<path d="M210.333 63C210.333 64.4728 211.527 65.6667 213 65.6667C214.473 65.6667 215.667 64.4728 215.667 63C215.667 61.5272 214.473 60.3333 213 60.3333C211.527 60.3333 210.333 61.5272 210.333 63ZM275.833 63C275.833 64.4728 277.027 65.6667 278.5 65.6667C279.973 65.6667 281.167 64.4728 281.167 63C281.167 61.5272 279.973 60.3333 278.5 60.3333C277.027 60.3333 275.833 61.5272 275.833 63ZM213 63.5L278.5 63.5L278.5 62.5L213 62.5V63.5Z" fill="#5496EA"/>
<path d="M75.3333 76.5C75.3333 77.9728 76.5272 79.1667 78 79.1667C79.4728 79.1667 80.6667 77.9728 80.6667 76.5C80.6667 75.0272 79.4728 73.8333 78 73.8333C76.5272 73.8333 75.3333 75.0272 75.3333 76.5ZM137.833 67C137.833 68.4728 139.027 69.6667 140.5 69.6667C141.973 69.6667 143.167 68.4728 143.167 67C143.167 65.5272 141.973 64.3333 140.5 64.3333C139.027 64.3333 137.833 65.5272 137.833 67ZM77.9309 76.9952C88.7277 78.5017 101.024 78.5014 112.319 76.9327C123.602 75.3657 133.943 72.2255 140.788 67.4089L140.212 66.5911C133.557 71.2745 123.398 74.3843 112.181 75.9423C100.976 77.4986 88.7723 77.4983 78.0691 76.0048L77.9309 76.9952Z" fill="#5496EA"/>
<path fill-rule="evenodd" clip-rule="evenodd" d="M112.794 26.7748C112.794 23.1389 114.302 19.8418 116.737 17.4368L113.994 14.7646C110.855 17.8538 108.912 22.097 108.912 26.7748C108.912 31.5799 110.967 35.92 114.257 39.0294L117 36.3572C114.412 33.9345 112.794 30.538 112.794 26.7748Z" fill="#EC7100"/>
<path fill-rule="evenodd" clip-rule="evenodd" d="M104.556 27.1413C104.556 21.073 106.968 15.5711 110.865 11.5682L108.227 8.88184C103.655 13.5728 100.823 20.025 100.823 27.1413C100.823 34.3855 103.762 40.9366 108.48 45.6465L111.118 42.9602C107.075 38.9383 104.556 33.3376 104.556 27.1413Z" fill="#EC7100"/>
<path fill-rule="evenodd" clip-rule="evenodd" d="M95.6284 27.1427C95.6284 18.7618 98.9279 11.1617 104.258 5.64004L101.694 3C95.7059 9.19662 92 17.7319 92 27.1427C92 36.6792 95.8074 45.3129 101.936 51.5294L104.5 48.8894C99.0295 43.349 95.6284 35.6493 95.6284 27.1427Z" fill="#EC7100"/>
<path d="M586.265 69.6365H585.028C571.532 69.6365 568 65.4741 568 60.555C568 55.6358 571.91 51.2211 578.469 51.2211C579.394 47.1849 580.866 40.1793 590.199 39.1124C598.272 38.1897 600.963 43.1906 601.551 45.2928C602.771 44.9565 605.89 44.7883 607.606 46.3019C609.876 48.3052 609.96 50.2121 609.876 51.2211C612.735 51.3052 618.832 53.2834 618.832 60.555C618.832 69.6365 609.876 69.6365 603.065 69.6365H599.964" stroke="#333333" stroke-width="1.5" stroke-linecap="round"/>
<path d="M592.722 60.3091V74.5536" stroke="#333333" stroke-width="1.5" stroke-linecap="round"/>
<ellipse cx="592.722" cy="79.4682" rx="3.53172" ry="3.53172" stroke="#333333" stroke-width="1.5"/>
<path d="M596.127 79.8447H605.714" stroke="#333333" stroke-width="1.5"/>
<path d="M579.604 79.8447H589.19" stroke="#333333" stroke-width="1.5"/>
<rect x="605.84" y="75.9365" width="7.06344" height="7.06344" stroke="#333333" stroke-width="1.5" stroke-linejoin="round"/>
<rect x="572.541" y="75.9365" width="7.06344" height="7.06344" stroke="#333333" stroke-width="1.5" stroke-linejoin="round"/>
<path d="M149.495 78.043C149.11 77.3576 141.017 63.443 137.019 56.5713V51.9663C136.894 51.2703 137.33 49.6318 140.071 48.6465C143.498 47.415 156.991 45.7551 164.059 45.5409C170.431 45.3478 178.892 45.5945 181.837 45.7551C184.782 45.9157 187.566 46.7725 189.226 48.2182C190.886 49.6639 212.25 65.1921 212.625 65.5134C212.925 65.7704 213 66.4058 213 66.6914L212.732 72.3137C212.786 72.4743 212.664 72.9807 211.608 73.3846C207.967 74.7767 190.083 76.9721 183.925 77.6147C176.803 78.3578 158.33 79.4352 153.243 79.4352C151.636 79.4352 149.977 78.8997 149.495 78.043Z" fill="white" stroke="#333333"/>
<path d="M157.527 69.904C155.439 70.7607 151.476 71.671 150.459 71.5104L150.084 71.4568C150.28 71.6888 150.946 72.1941 152.226 72.3671C154.207 72.6348 156.188 72.4577 157.366 72.3671C158.062 72.3135 173.216 69.904 182.425 69.2079C191.635 68.5118 204.807 67.7086 207.11 67.7086C209.412 67.7086 211.275 67.3583 211.768 67.1732C212.197 67.0125 212.768 66.6734 213 66.5306C213 66.5306 212.946 65.9952 212.839 65.8345C212.732 65.6739 212.572 65.8881 212.25 65.8881C211.929 65.8881 211.072 65.8881 207.11 65.1384C203.148 64.3888 190.886 63.9069 182.425 64.4424C173.965 64.9778 159.615 69.0473 157.527 69.904Z" stroke="#808284" stroke-width="0.5" stroke-linejoin="round"/>
<path d="M137.447 51.6987C141.267 57.7315 149.088 70.097 149.816 71.2964C150.727 72.7957 153.672 72.7421 154.635 72.7421C155.599 72.7421 178.826 71.6022 184.835 71.0822C190.404 70.6003 207.699 68.6191 210.376 67.8695C211.768 67.4797 212.625 66.9057 212.839 66.745" stroke="#808284" stroke-linecap="round"/>
<path d="M157.527 69.904C155.439 70.7607 151.476 71.671 150.459 71.5104L150.084 71.4568C150.28 71.6889 150.946 72.1941 152.226 72.3671C154.207 72.6348 156.188 72.4577 157.366 72.3671C158.062 72.3135 173.216 69.904 182.425 69.2079C191.635 68.5118 204.807 67.7086 207.11 67.7086C209.412 67.7086 211.275 67.3583 211.768 67.1732C212.197 67.0125 212.768 66.6734 213 66.5306C213 66.5306 212.946 65.9952 212.839 65.8345C212.732 65.6739 212.572 65.8881 212.25 65.8881C211.929 65.8881 211.072 65.8881 207.11 65.1384C203.148 64.3888 190.886 63.9069 182.425 64.4424C173.965 64.9778 159.615 69.0473 157.527 69.904Z" fill="#F7F7F7"/>
<path d="M152.065 79.3819C152.297 79.8103 152.804 80.7312 152.975 80.9883C153.19 81.3095 153.939 81.4166 155.01 81.3631C156.081 81.3095 179.266 80.078 186.441 79.1677C193.616 78.2574 206.574 76.0085 207.324 75.7408C208.074 75.4731 208.502 74.9912 208.556 74.777C208.599 74.6056 208.681 74.3129 208.716 74.188" stroke="#333333"/>
<path d="M177.553 71.5097L177.178 71.0278L177.553 71.0063L177.981 71.5097V72.5806H177.553V71.5097Z" fill="#333333"/>
<path d="M177.553 71.5097L177.178 71.0278L177.553 71.0063L177.981 71.5097V72.5806H177.553V71.5097Z" fill="#808284"/>
<path d="M180.605 71.2423L180.177 70.814H180.605L181.033 71.2423V72.3132H180.605V71.2423Z" fill="#808284"/>
<path d="M183.603 71.0289L183.175 70.6006H183.603L184.032 71.0289V72.0999H183.603V71.0289Z" fill="#808284"/>
<path d="M186.495 70.7077L186.067 70.2793H186.495L186.923 70.7077V71.7786H186.495V70.7077Z" fill="#808284"/>
<path d="M189.387 70.3859L188.958 69.9575H189.387L189.815 70.3859V71.4568H189.387V70.3859Z" fill="#808284"/>
<path d="M192.278 70.0651L191.85 69.6367H192.278L192.706 70.0651V71.136H192.278V70.0651Z" fill="#808284"/>
<path d="M185.008 62.3482C184.531 61.9861 184.722 61.7756 185.582 61.7166C186.417 61.6593 187.067 61.8074 187.533 62.1609L188.45 62.8564L187.755 62.9041L186.834 62.2055C186.577 62.0102 186.255 61.9261 185.865 61.9528C185.475 61.9796 185.419 62.0863 185.666 62.2743L186.601 62.9833L185.908 63.0308L185.008 62.3482Z" fill="#C4C4C4"/>
<path d="M181.626 62.0573C181.844 61.9925 182.116 61.9511 182.424 61.9358C182.822 61.8986 183.301 61.9299 183.75 62.0224C184.182 62.1197 184.535 62.2669 184.728 62.4293C184.977 62.6033 185.035 62.7847 184.89 62.9297C184.733 63.0732 184.392 63.1672 183.944 63.1902C183.69 63.2106 183.413 63.2133 183.125 63.1983L182.78 62.9369C183.058 62.9712 183.334 62.9795 183.578 62.961C183.845 62.9465 184.047 62.8884 184.133 62.8006C184.215 62.7103 184.173 62.5989 184.018 62.4927C183.896 62.3894 183.673 62.2954 183.4 62.232C183.128 62.1732 182.834 62.1523 182.589 62.1742C182.327 62.1909 182.106 62.2351 181.949 62.3022L181.626 62.0573Z" fill="#C4C4C4"/>
<path d="M176.238 62.9497C175.761 62.5877 175.952 62.3771 176.812 62.3181C177.647 62.2609 178.297 62.409 178.763 62.7625L179.68 63.458L178.985 63.5057L178.064 62.8071C177.807 62.6117 177.485 62.5277 177.095 62.5544C176.705 62.5812 176.649 62.6879 176.896 62.8759L177.831 63.5849L177.138 63.6324L176.238 62.9497Z" fill="#C4C4C4"/>
<path d="M175.212 62.5017L175.566 62.7705C175.224 62.708 174.867 62.6853 174.558 62.7062C174.481 62.711 174.408 62.7194 174.342 62.731C174.291 62.74 174.247 62.7525 174.213 62.7679C174.186 62.7802 174.17 62.7957 174.166 62.8132C174.164 62.8293 174.175 62.8468 174.198 62.8638C174.228 62.8858 174.274 62.9059 174.33 62.9214C174.396 62.9389 174.466 62.9528 174.537 62.9626C174.628 62.9757 174.719 62.986 174.809 62.9934C174.909 63.0026 175.017 63.0118 175.131 63.02C175.38 63.0352 175.635 63.0723 175.872 63.1281C176.066 63.1776 176.225 63.2461 176.319 63.3211C176.397 63.3773 176.437 63.4354 176.434 63.4895C176.43 63.5389 176.39 63.5833 176.319 63.6189C176.24 63.657 176.139 63.6877 176.019 63.7096C175.887 63.7335 175.742 63.7507 175.588 63.7611C175.447 63.7714 175.3 63.7774 175.149 63.7793C175.023 63.7806 174.893 63.7768 174.76 63.7679L174.429 63.5168C174.502 63.5273 174.574 63.5358 174.647 63.542C174.722 63.5484 174.796 63.5529 174.869 63.5555C174.941 63.5582 175.012 63.5591 175.082 63.5582C175.146 63.5572 175.209 63.5547 175.269 63.5507C175.342 63.546 175.41 63.538 175.472 63.5268C175.523 63.5182 175.567 63.5062 175.603 63.4911C175.632 63.4789 175.649 63.4632 175.654 63.4455C175.659 63.4292 175.649 63.411 175.625 63.3934C175.6 63.3739 175.561 63.3559 175.512 63.3417C175.457 63.3262 175.398 63.3135 175.337 63.3044C175.258 63.2922 175.179 63.2825 175.101 63.2752C175.01 63.266 174.911 63.2575 174.802 63.2489C174.665 63.2392 174.527 63.2264 174.389 63.2105C174.27 63.1958 174.151 63.1758 174.037 63.1512C173.931 63.1278 173.832 63.0983 173.747 63.0643C173.654 63.0261 173.578 62.9839 173.523 62.9401C173.44 62.8815 173.397 62.8207 173.397 62.7638C173.4 62.7141 173.441 62.6697 173.516 62.6348C173.596 62.597 173.7 62.5672 173.823 62.5469C173.961 62.5238 174.11 62.5069 174.268 62.4964C174.429 62.485 174.598 62.4797 174.772 62.4805C174.914 62.4801 175.062 62.4873 175.212 62.5017Z" fill="#C4C4C4"/>
<path d="M180.392 62.0954L181.09 62.0475L182.678 63.2524L181.987 63.2999L180.392 62.0954Z" fill="#C4C4C4"/>
<path d="M180.81 62.6374L179.048 62.1875L178.174 62.2474L180.345 62.7861L180.03 63.434L180.855 63.3774L181.042 62.8171L180.81 62.6374Z" fill="#C4C4C4"/>
<path d="M188.48 62.0512C188.419 62.0731 188.368 62.099 188.331 62.1282C188.209 62.2143 188.227 62.3299 188.381 62.4419C188.718 62.6978 189.274 62.7992 190.049 62.7461L191.479 62.6479L189.89 61.443L189.197 61.4905L190.511 62.4873L189.893 62.5297C189.525 62.555 189.26 62.5064 189.098 62.384C188.937 62.2615 189.038 62.1856 189.401 62.1563L189.792 62.1294L187.744 61.5936L186.87 61.6536L188.48 62.0512Z" fill="#C4C4C4"/>
<path fill-rule="evenodd" clip-rule="evenodd" d="M173.812 63.6397C173.721 63.6703 173.713 63.725 173.79 63.7776C173.835 63.8113 173.911 63.8411 174.003 63.8601C174.094 63.8791 174.192 63.8856 174.273 63.878C174.406 63.8691 174.482 63.8286 174.466 63.7758C174.45 63.723 174.345 63.6687 174.201 63.6387C174.057 63.6087 173.902 63.6091 173.812 63.6397ZM173.981 63.6589C174.114 63.6493 174.28 63.6848 174.352 63.7383C174.388 63.7643 174.397 63.7913 174.376 63.813C174.354 63.8347 174.305 63.8493 174.24 63.8535C174.107 63.8626 173.941 63.8267 173.87 63.7731C173.799 63.7196 173.849 63.6685 173.981 63.6589ZM174.08 63.6913L174.151 63.6864L174.313 63.8088C174.277 63.8144 174.238 63.8184 174.197 63.8208C174.161 63.8247 174.12 63.8241 174.077 63.819C174.048 63.8142 174.022 63.8049 174.009 63.7942C173.994 63.7798 174.006 63.7664 174.038 63.7616C174 63.7589 173.963 63.7488 173.942 63.7355C173.924 63.7251 173.902 63.7153 173.877 63.7065L173.956 63.7011C173.981 63.7097 174.002 63.7193 174.02 63.7294C174.038 63.7429 174.072 63.7472 174.112 63.7445L174.147 63.7421L174.08 63.6913ZM174.138 63.7628L174.172 63.7605L174.22 63.7973C174.208 63.7991 174.195 63.8 174.18 63.8C174.135 63.8031 174.105 63.7985 174.088 63.7856C174.072 63.7728 174.097 63.7657 174.138 63.7628Z" fill="#C4C4C4"/>
<path d="M149.495 78.043C149.11 77.3576 141.017 63.443 137.019 56.5713V51.9663C136.894 51.2703 137.33 49.6318 140.071 48.6465C143.498 47.415 156.991 45.7551 164.059 45.5409C170.431 45.3478 178.892 45.5945 181.837 45.7551C184.782 45.9157 187.566 46.7725 189.226 48.2182C190.886 49.6639 212.25 65.1921 212.625 65.5134C212.925 65.7704 213 66.4058 213 66.6914L212.732 72.3137C212.786 72.4743 212.664 72.9807 211.608 73.3846C207.967 74.7767 190.083 76.9721 183.925 77.6147C176.803 78.3578 158.33 79.4352 153.243 79.4352C151.636 79.4352 149.977 78.8997 149.495 78.043Z" stroke="#333333"/>
<path d="M460.967 69.4732V67L457.274 67.4632V70.0161L458.006 69.926V70.4694L458.528 70.4137V70.7911L459.608 70.6575V70.2047L460.131 70.149V69.5777L460.967 69.4732Z" stroke="#ACAEB0" stroke-width="0.4" stroke-linecap="round" stroke-linejoin="round"/>
<path d="M456.578 70.0298V67.5566L452.886 68.0198V70.5728L453.617 70.4827V71.0261L454.14 70.9703V71.3478L455.219 71.2142V70.7613L455.742 70.7056V70.1343L456.578 70.0298Z" stroke="#ACAEB0" stroke-width="0.4" stroke-linecap="round" stroke-linejoin="round"/>
<path d="M465.355 68.9849V66.5117L461.663 66.9749V69.5279L462.395 69.4377V69.9811L462.917 69.9254V70.3029L463.997 70.1692V69.7164L464.519 69.6607V69.0894L465.355 68.9849Z" stroke="#ACAEB0" stroke-width="0.4" stroke-linecap="round" stroke-linejoin="round"/>
<path d="M452.189 70.5869V68.1138L448.496 68.5769V71.1299L449.228 71.0398V71.5832L449.75 71.5275V71.9049L450.83 71.7713V71.3185L451.353 71.2627V70.6915L452.189 70.5869Z" stroke="#ACAEB0" stroke-width="0.4" stroke-linecap="round" stroke-linejoin="round"/>
<path d="M448.496 65.6336V68.1138L452.189 67.6713V65.0936L451.457 65.1878V64.6444L450.935 64.7001V64.3517L449.855 64.4861V64.9091L449.332 64.9648V65.5361L448.496 65.6336Z" stroke="#ACAEB0" stroke-width="0.4" stroke-linecap="round" stroke-linejoin="round"/>
<path d="M452.885 65.0863V67.5664L456.578 67.1239V64.5462L455.846 64.6404V64.097L455.324 64.1527V63.8044L454.244 63.9387V64.3617L453.722 64.4175V64.9887L452.885 65.0863Z" stroke="#ACAEB0" stroke-width="0.4" stroke-linecap="round" stroke-linejoin="round"/>
<path d="M461.594 63.9022V66.3823L465.286 65.9398V63.3621L464.554 63.4563V62.9129L464.032 62.9686V62.6203L462.952 62.7546V63.1776L462.43 63.2334V63.8046L461.594 63.9022Z" stroke="#ACAEB0" stroke-width="0.4" stroke-linecap="round" stroke-linejoin="round"/>
<path d="M447.8 72.7469V64.143L465.948 61.7847V70.3085L447.8 72.7469Z" stroke="#ACAEB0" stroke-width="0.4" stroke-linecap="round" stroke-linejoin="round"/>
<path d="M457.275 64.5291V67.0093L460.967 66.5668V63.9891L460.235 64.0833V63.5399L459.713 63.5956V63.2473L458.633 63.3816V63.8046L458.111 63.8603V64.4316L457.275 64.5291Z" stroke="#ACAEB0" stroke-width="0.4" stroke-linecap="round" stroke-linejoin="round"/>
<path d="M479.951 67.0342V64.561L476.259 65.0242V67.5772L476.99 67.4871V68.0305L477.513 67.9747V68.3522L478.592 68.2186V67.7657L479.115 67.71V67.1387L479.951 67.0342Z" stroke="#ACAEB0" stroke-width="0.4" stroke-linecap="round" stroke-linejoin="round"/>
<path d="M475.562 67.5909V65.1177L471.869 65.5809V68.1338L472.601 68.0437V68.5871L473.123 68.5314V68.9088L474.203 68.7752V68.3224L474.726 68.2666V67.6954L475.562 67.5909Z" stroke="#ACAEB0" stroke-width="0.4" stroke-linecap="round" stroke-linejoin="round"/>
<path d="M484.34 66.5459V64.0728L480.648 64.5359V67.0889L481.379 66.9988V67.5422L481.902 67.4864V67.8639L482.982 67.7303V67.2774L483.504 67.2217V66.6504L484.34 66.5459Z" stroke="#ACAEB0" stroke-width="0.4" stroke-linecap="round" stroke-linejoin="round"/>
<path d="M481.902 67.487L481.382 67.2432" stroke="#ACAEB0" stroke-width="0.4" stroke-linecap="round" stroke-linejoin="round"/>
<path d="M471.173 68.148V65.6748L467.48 66.138V68.691L468.212 68.6008V69.1442L468.734 69.0885V69.466L469.814 69.3323V68.8795L470.337 68.8238V68.2525L471.173 68.148Z" stroke="#ACAEB0" stroke-width="0.4" stroke-linecap="round" stroke-linejoin="round"/>
<path d="M467.48 63.1947V65.6748L471.173 65.2323V62.6546L470.441 62.7488V62.2054L469.919 62.2611V61.9128L468.839 62.0471V62.4701L468.316 62.5259V63.0971L467.48 63.1947Z" stroke="#ACAEB0" stroke-width="0.4" stroke-linecap="round" stroke-linejoin="round"/>
<path d="M471.869 62.6478V65.1279L475.562 64.6854V62.1078L474.83 62.2019V61.6585L474.308 61.7142V61.3659L473.228 61.5002V61.9232L472.705 61.979V62.5502L471.869 62.6478Z" stroke="#ACAEB0" stroke-width="0.4" stroke-linecap="round" stroke-linejoin="round"/>
<path d="M480.578 61.4632V63.9434L484.27 63.5009V60.9232L483.539 61.0173V60.4739L483.016 60.5297V60.1813L481.936 60.3157V60.7387L481.414 60.7944V61.3657L480.578 61.4632Z" stroke="#ACAEB0" stroke-width="0.4" stroke-linecap="round" stroke-linejoin="round"/>
<path d="M466.784 70.3079V61.704L484.932 59.3457V67.8696L466.784 70.3079Z" stroke="#ACAEB0" stroke-width="0.4" stroke-linecap="round" stroke-linejoin="round"/>
<path d="M476.259 62.0902V64.5703L479.951 64.1278V61.5501L479.22 61.6443V61.1009L478.697 61.1566V60.8083L477.618 60.9426V61.3656L477.095 61.4214V61.9926L476.259 62.0902Z" stroke="#ACAEB0" stroke-width="0.4" stroke-linecap="round" stroke-linejoin="round"/>
<path d="M446.163 74.4881C445.884 74.523 445.612 74.509 445.501 74.4533L431.465 66.9782C430.563 66.4978 430 65.5593 430 64.5375V54.8786C430 54.6798 430.15 54.5134 430.348 54.4937V54.4937" stroke="#333333" stroke-linecap="round" stroke-linejoin="round"/>
<path d="M495.87 56.3081V56.3081C496.204 56.2694 496.497 56.5304 496.497 56.8666V66.2685C496.497 67.165 495.833 67.9228 494.944 68.0404L447.415 74.3282C446.217 74.4867 445.153 73.5542 445.153 72.3454V63.4214C445.153 63.1427 445.257 62.8989 445.431 62.8292" stroke="#333333" stroke-linecap="round" stroke-linejoin="round"/>
<path d="M442.784 67.4169V71.8059L442.505 71.6569V65.3241C442.679 65.9405 442.784 66.6361 442.784 67.4169Z" fill="#C4C4C4"/>
<path d="M435.26 61.2127V67.7805L434.981 67.6314V61.0394L435.26 61.2127Z" fill="#C4C4C4"/>
<path d="M435.608 59.2772V67.9668L435.887 68.1159V59.4239C435.795 59.3752 435.702 59.3263 435.608 59.2772Z" fill="#C4C4C4"/>
<path d="M436.235 59.6073V68.3023L436.514 68.4514V59.7542C436.422 59.7057 436.329 59.6567 436.235 59.6073Z" fill="#C4C4C4"/>
<path d="M436.862 59.9378V68.6378L437.141 68.7868V60.0849C437.049 60.0366 436.957 59.9875 436.862 59.9378Z" fill="#C4C4C4"/>
<path d="M437.489 68.9732L437.768 69.1223V60.4163C437.677 60.3684 437.584 60.3192 437.489 60.2689V68.9732Z" fill="#C4C4C4"/>
<path d="M438.116 69.3087L438.395 69.4578V60.7492C438.306 60.7018 438.213 60.6523 438.116 60.601V69.3087Z" fill="#C4C4C4"/>
<path d="M438.743 69.6441L439.022 69.7932V61.0853C438.937 61.0396 438.844 60.9894 438.743 60.9353V69.6441Z" fill="#C4C4C4"/>
<path d="M439.37 61.276C439.43 61.3096 439.477 61.3364 439.51 61.3559C439.55 61.3801 439.597 61.4089 439.649 61.4425V70.1287L439.37 69.9796V61.276Z" fill="#C4C4C4"/>
<path d="M440.276 61.9028C440.178 61.8218 440.085 61.7489 439.997 61.6839V70.315L440.276 70.4641V61.9028Z" fill="#C4C4C4"/>
<path d="M440.903 62.4916C440.809 62.3919 440.716 62.2987 440.624 62.2118V70.6505L440.903 70.7996V62.4916Z" fill="#C4C4C4"/>
<path d="M441.53 63.2618C441.439 63.1313 441.345 63.0079 441.251 62.8912V70.9859L441.53 71.135V63.2618Z" fill="#C4C4C4"/>
<path d="M442.157 64.3644C442.07 64.171 441.976 63.9876 441.878 63.814V71.3214L442.157 71.4705V64.3644Z" fill="#C4C4C4"/>
<path d="M431.498 58.8726V65.7678L431.219 65.6187V58.6992L431.498 58.8726Z" fill="#C4C4C4"/>
<path d="M432.125 59.2626V66.1032L431.846 65.9541V59.0892L432.125 59.2626Z" fill="#C4C4C4"/>
<path d="M432.752 59.6526V66.4387L432.473 66.2896V59.4793L432.752 59.6526Z" fill="#C4C4C4"/>
<path d="M433.379 60.0426V66.7741L433.1 66.625V59.8693L433.379 60.0426Z" fill="#C4C4C4"/>
<path d="M434.006 60.4327V67.1096L433.727 66.9605V60.2593L434.006 60.4327Z" fill="#C4C4C4"/>
<path d="M434.633 60.8227V67.445L434.354 67.2959V60.6493L434.633 60.8227Z" fill="#C4C4C4"/>
<path d="M444.107 63.54V63.4454C444.107 63.3042 444.033 63.1736 443.911 63.1018C443.752 63.0076 443.55 63.1227 443.55 63.308V63.4063C443.55 63.5398 443.616 63.6648 443.726 63.7406C443.887 63.8518 444.107 63.7362 444.107 63.54Z" stroke="#333333" stroke-width="0.5"/>
<path d="M444.107 72.2099V72.1389C444.107 71.9771 444.02 71.828 443.878 71.7492C443.7 71.6497 443.48 71.7788 443.48 71.983V72.0578C443.48 72.2113 443.558 72.3545 443.687 72.4382C443.868 72.5559 444.107 72.426 444.107 72.2099Z" stroke="#333333" stroke-width="0.5"/>
<path d="M430.871 56.948V56.8422C430.871 56.7392 430.818 56.6433 430.732 56.5879C430.611 56.5108 430.453 56.5974 430.453 56.7405V56.8495C430.453 56.9464 430.499 57.0377 430.576 57.0957C430.698 57.1863 430.871 57.0996 430.871 56.948Z" stroke="#333333" stroke-width="0.5"/>
<path d="M430.871 64.0735V64.0025C430.871 63.8966 430.815 63.7986 430.724 63.7448C430.604 63.6742 430.453 63.7604 430.453 63.8994V63.9732C430.453 64.0733 430.502 64.1671 430.585 64.2239C430.706 64.3073 430.871 64.2206 430.871 64.0735Z" stroke="#333333" stroke-width="0.5"/>
<path d="M490.157 60.2093V62.6895L493.849 62.247V59.6693L493.118 59.7634V59.22L492.595 59.2758V58.9274L491.515 59.0617V59.4848L490.993 59.5405V60.1118L490.157 60.2093Z" stroke="#ACAEB0" stroke-width="0.4" stroke-linecap="round" stroke-linejoin="round"/>
<path d="M493.85 65.2329V62.7598L490.158 63.2229V65.7759L490.889 65.6858V66.2292L491.412 66.1735V66.5509L492.491 66.4173V65.9644L493.014 65.9087V65.3374L493.85 65.2329Z" stroke="#ACAEB0" stroke-width="0.4" stroke-linecap="round" stroke-linejoin="round"/>
<path d="M494.477 66.6578V58.1963L489.583 58.8059V67.2878L494.477 66.6578Z" stroke="#ACAEB0" stroke-width="0.4"/>
<path d="M460.967 81.2198V78.7466L457.274 79.2098V81.7627L458.006 81.6726V82.216L458.528 82.1603V82.5377L459.608 82.4041V81.9513L460.131 81.8955V81.3243L460.967 81.2198Z" stroke="#ACAEB0" stroke-width="0.4" stroke-linecap="round" stroke-linejoin="round"/>
<path d="M456.578 81.7779V79.3047L452.886 79.7679V82.3208L453.617 82.2307V82.7741L454.14 82.7184V83.0958L455.219 82.9622V82.5094L455.742 82.4536V81.8824L456.578 81.7779Z" stroke="#ACAEB0" stroke-width="0.4" stroke-linecap="round" stroke-linejoin="round"/>
<path d="M465.355 80.7329V78.2598L461.663 78.7229V81.2759L462.395 81.1858V81.7292L462.917 81.6735V82.0509L463.997 81.9173V81.4644L464.519 81.4087V80.8374L465.355 80.7329Z" stroke="#ACAEB0" stroke-width="0.4" stroke-linecap="round" stroke-linejoin="round"/>
<path d="M452.189 82.335V79.8618L448.496 80.325V82.878L449.228 82.7878V83.3312L449.75 83.2755V83.653L450.83 83.5193V83.0665L451.353 83.0108V82.4395L452.189 82.335Z" stroke="#ACAEB0" stroke-width="0.4" stroke-linecap="round" stroke-linejoin="round"/>
<path d="M448.496 77.3817V79.8618L452.189 79.4193V76.8416L451.457 76.9358V76.3924L450.935 76.4481V76.0998L449.855 76.2341V76.6571L449.332 76.7129V77.2841L448.496 77.3817Z" stroke="#ACAEB0" stroke-width="0.4" stroke-linecap="round" stroke-linejoin="round"/>
<path d="M452.885 76.8348V79.3149L456.578 78.8724V76.2948L455.846 76.3889V75.8455L455.324 75.9013V75.5529L454.244 75.6872V76.1103L453.722 76.166V76.7373L452.885 76.8348Z" stroke="#ACAEB0" stroke-width="0.4" stroke-linecap="round" stroke-linejoin="round"/>
<path d="M461.594 75.6502V78.1304L465.286 77.6879V75.1102L464.555 75.2044V74.661L464.032 74.7167V74.3684L462.952 74.5027V74.9257L462.43 74.9814V75.5527L461.594 75.6502Z" stroke="#ACAEB0" stroke-width="0.4" stroke-linecap="round" stroke-linejoin="round"/>
<path d="M447.8 84.4949V75.8911L465.948 73.5327V82.0566L447.8 84.4949Z" stroke="#ACAEB0" stroke-width="0.4" stroke-linecap="round" stroke-linejoin="round"/>
<path d="M457.275 76.2772V78.7573L460.967 78.3148V75.7371L460.235 75.8313V75.2879L459.713 75.3436V74.9953L458.633 75.1296V75.5526L458.111 75.6084V76.1796L457.275 76.2772Z" stroke="#ACAEB0" stroke-width="0.4" stroke-linecap="round" stroke-linejoin="round"/>
<path d="M479.951 78.7818V76.3086L476.259 76.7718V79.3247L476.991 79.2346V79.778L477.513 79.7223V80.0997L478.593 79.9661V79.5133L479.115 79.4575V78.8863L479.951 78.7818Z" stroke="#ACAEB0" stroke-width="0.4" stroke-linecap="round" stroke-linejoin="round"/>
<path d="M475.562 79.3389V76.8657L471.87 77.3289V79.8819L472.602 79.7917V80.3351L473.124 80.2794V80.6569L474.204 80.5232V80.0704L474.726 80.0147V79.4434L475.562 79.3389Z" stroke="#ACAEB0" stroke-width="0.4" stroke-linecap="round" stroke-linejoin="round"/>
<path d="M484.341 78.294V75.8208L480.648 76.284V78.8369L481.38 78.7468V79.2902L481.902 79.2345V79.6119L482.982 79.4783V79.0255L483.505 78.9698V78.3985L484.341 78.294Z" stroke="#ACAEB0" stroke-width="0.4" stroke-linecap="round" stroke-linejoin="round"/>
<path d="M471.174 79.896V77.4229L467.481 77.886V80.439L468.213 80.3489V80.8923L468.735 80.8365V81.214L469.815 81.0804V80.6275L470.338 80.5718V80.0005L471.174 79.896Z" stroke="#ACAEB0" stroke-width="0.4" stroke-linecap="round" stroke-linejoin="round"/>
<path d="M467.481 74.9427V77.4229L471.173 76.9804V74.4027L470.442 74.4968V73.9534L469.919 74.0092V73.6608L468.839 73.7951V74.2182L468.317 74.2739V74.8452L467.481 74.9427Z" stroke="#ACAEB0" stroke-width="0.4" stroke-linecap="round" stroke-linejoin="round"/>
<path d="M471.87 74.3963V76.8765L475.562 76.434V73.8563L474.831 73.9504V73.407L474.308 73.4628V73.1144L473.229 73.2488V73.6718L472.706 73.7275V74.2988L471.87 74.3963Z" stroke="#ACAEB0" stroke-width="0.4" stroke-linecap="round" stroke-linejoin="round"/>
<path d="M480.579 73.2117V75.6919L484.271 75.2494V72.6717L483.539 72.7659V72.2225L483.017 72.2782V71.9299L481.937 72.0642V72.4872L481.415 72.5429V73.1142L480.579 73.2117Z" stroke="#ACAEB0" stroke-width="0.4" stroke-linecap="round" stroke-linejoin="round"/>
<path d="M466.785 82.056V73.4521L484.933 71.0938V79.6176L466.785 82.056Z" stroke="#ACAEB0" stroke-width="0.4" stroke-linecap="round" stroke-linejoin="round"/>
<path d="M476.259 73.8382V76.3184L479.951 75.8759V73.2982L479.22 73.3923V72.8489L478.697 72.9047V72.5563L477.618 72.6907V73.1137L477.095 73.1694V73.7407L476.259 73.8382Z" stroke="#ACAEB0" stroke-width="0.4" stroke-linecap="round" stroke-linejoin="round"/>
<path d="M446.163 86.2367C445.884 86.2715 445.612 86.2576 445.501 86.2018L431.465 78.7267C430.563 78.2464 430 77.3079 430 76.2861V66.6271C430 66.4284 430.15 66.262 430.348 66.2422V66.2422" stroke="#333333" stroke-linecap="round" stroke-linejoin="round"/>
<path d="M495.87 68.0566V68.0566C496.204 68.0179 496.497 68.2789 496.497 68.6151V78.017C496.497 78.9135 495.833 79.6713 494.944 79.7889L447.415 86.0767C446.217 86.2352 445.153 85.3027 445.153 84.094V75.17C445.153 74.8913 445.257 74.6474 445.431 74.5778" stroke="#333333" stroke-linecap="round" stroke-linejoin="round"/>
<path d="M442.784 79.1659V83.555L442.505 83.4059V77.0731C442.679 77.6895 442.784 78.3851 442.784 79.1659Z" fill="#C4C4C4"/>
<path d="M435.26 72.9617V79.5295L434.981 79.3804V72.7884L435.26 72.9617Z" fill="#C4C4C4"/>
<path d="M435.608 71.0262V79.7159L435.887 79.865V71.1729C435.795 71.1243 435.702 71.0753 435.608 71.0262Z" fill="#C4C4C4"/>
<path d="M436.235 71.3564V80.0513L436.514 80.2004V71.5032C436.422 71.4547 436.329 71.4057 436.235 71.3564Z" fill="#C4C4C4"/>
<path d="M436.862 71.6868V80.3868L437.141 80.5359V71.8339C437.049 71.7856 436.957 71.7366 436.862 71.6868Z" fill="#C4C4C4"/>
<path d="M437.489 80.7222L437.768 80.8713V72.1654C437.677 72.1174 437.584 72.0682 437.489 72.0179V80.7222Z" fill="#C4C4C4"/>
<path d="M438.116 81.0577L438.395 81.2068V72.4982C438.306 72.4508 438.213 72.4013 438.116 72.35V81.0577Z" fill="#C4C4C4"/>
<path d="M438.743 81.3931L439.022 81.5422V72.8343C438.937 72.7886 438.844 72.7384 438.743 72.6843V81.3931Z" fill="#C4C4C4"/>
<path d="M439.37 73.0251C439.43 73.0586 439.477 73.0854 439.51 73.1049C439.55 73.1292 439.597 73.158 439.649 73.1915V81.8777L439.37 81.7286V73.0251Z" fill="#C4C4C4"/>
<path d="M440.276 73.6518C440.178 73.5708 440.085 73.4979 439.997 73.4329V82.0641L440.276 82.2131V73.6518Z" fill="#C4C4C4"/>
<path d="M440.903 74.2407C440.809 74.1409 440.716 74.0477 440.624 73.9609V82.3995L440.903 82.5486V74.2407Z" fill="#C4C4C4"/>
<path d="M441.53 75.0108C441.439 74.8803 441.345 74.7569 441.251 74.6403V82.735L441.53 82.8841V75.0108Z" fill="#C4C4C4"/>
<path d="M442.157 76.1135C442.07 75.92 441.976 75.7366 441.878 75.5631V83.0704L442.157 83.2195V76.1135Z" fill="#C4C4C4"/>
<path d="M431.498 70.6216V77.5168L431.219 77.3677V70.4482L431.498 70.6216Z" fill="#C4C4C4"/>
<path d="M432.125 71.0116V77.8522L431.846 77.7031V70.8383L432.125 71.0116Z" fill="#C4C4C4"/>
<path d="M432.752 71.4016V78.1877L432.473 78.0386V71.2283L432.752 71.4016Z" fill="#C4C4C4"/>
<path d="M433.379 71.7917V78.5231L433.1 78.374V71.6183L433.379 71.7917Z" fill="#C4C4C4"/>
<path d="M434.006 72.1817V78.8586L433.727 78.7095V72.0083L434.006 72.1817Z" fill="#C4C4C4"/>
<path d="M434.633 72.5717V79.194L434.354 79.0449V72.3984L434.633 72.5717Z" fill="#C4C4C4"/>
<path d="M444.107 75.2885V75.194C444.107 75.0528 444.033 74.9221 443.911 74.8503C443.752 74.7561 443.55 74.8712 443.55 75.0565V75.1548C443.55 75.2884 443.616 75.4134 443.726 75.4891C443.887 75.6004 444.107 75.4847 444.107 75.2885Z" stroke="#333333" stroke-width="0.5"/>
<path d="M444.107 83.9585V83.8875C444.107 83.7257 444.02 83.5765 443.878 83.4977C443.7 83.3983 443.48 83.5273 443.48 83.7316V83.8063C443.48 83.9599 443.558 84.103 443.687 84.1867C443.868 84.3045 444.107 84.1745 444.107 83.9585Z" stroke="#333333" stroke-width="0.5"/>
<path d="M430.871 68.6965V68.5908C430.871 68.4878 430.818 68.3919 430.732 68.3364C430.611 68.2593 430.453 68.3459 430.453 68.489V68.598C430.453 68.695 430.499 68.7862 430.576 68.8442C430.698 68.9349 430.871 68.8481 430.871 68.6965Z" stroke="#333333" stroke-width="0.5"/>
<path d="M430.871 75.8225V75.7516C430.871 75.6457 430.815 75.5476 430.724 75.4938C430.604 75.4232 430.453 75.5095 430.453 75.6485V75.7222C430.453 75.8224 430.502 75.9161 430.585 75.9729C430.706 76.0563 430.871 75.9696 430.871 75.8225Z" stroke="#333333" stroke-width="0.5"/>
<path d="M490.157 71.9588V74.439L493.849 73.9965V71.4188L493.118 71.5129V70.9695L492.595 71.0253V70.6769L491.515 70.8113V71.2343L490.993 71.29V71.8613L490.157 71.9588Z" stroke="#ACAEB0" stroke-width="0.4" stroke-linecap="round" stroke-linejoin="round"/>
<path d="M493.85 76.981V74.5078L490.158 74.971V77.524L490.889 77.4338V77.9772L491.412 77.9215V78.299L492.491 78.1653V77.7125L493.014 77.6568V77.0855L493.85 76.981Z" stroke="#ACAEB0" stroke-width="0.4" stroke-linecap="round" stroke-linejoin="round"/>
<path d="M494.477 78.4063V69.9448L489.583 70.5544V79.0364L494.477 78.4063Z" stroke="#ACAEB0" stroke-width="0.4"/>
<path d="M460.967 57.7432V55.27L457.274 55.6532V58.2657L458.006 58.196V58.7394L458.528 58.6837V59.032L459.608 58.9275V58.4747L460.131 58.419V57.8477L460.967 57.7432Z" stroke="#ACAEB0" stroke-width="0.4" stroke-linecap="round" stroke-linejoin="round"/>
<path d="M456.577 58.2657V55.7925L452.885 56.1756V58.7882L453.617 58.7185V59.2619L454.139 59.2062V59.5545L455.219 59.45V58.9972L455.741 58.9414V58.3702L456.577 58.2657Z" stroke="#ACAEB0" stroke-width="0.4" stroke-linecap="round" stroke-linejoin="round"/>
<path d="M454.139 59.2057L453.62 58.9619" stroke="#ACAEB0" stroke-width="0.4" stroke-linecap="round" stroke-linejoin="round"/>
<path d="M465.356 57.2554V54.7822L461.663 55.1654V57.7779L462.395 57.7082V58.2516L462.917 58.1959V58.5442L463.997 58.4397V57.9869L464.52 57.9312V57.3599L465.356 57.2554Z" stroke="#ACAEB0" stroke-width="0.4" stroke-linecap="round" stroke-linejoin="round"/>
<path d="M452.189 58.8228V56.3496L448.497 56.7328V59.3453L449.228 59.2756V59.819L449.751 59.7633V60.1116L450.83 60.0071V59.5543L451.353 59.4986V58.9273L452.189 58.8228Z" stroke="#ACAEB0" stroke-width="0.4" stroke-linecap="round" stroke-linejoin="round"/>
<path d="M449.75 59.7639L449.231 59.52" stroke="#ACAEB0" stroke-width="0.4" stroke-linecap="round" stroke-linejoin="round"/>
<path d="M448.496 53.8695V56.3496L452.189 55.9664V53.3539L451.457 53.4236V52.8802L450.935 52.9359V52.5876L449.855 52.6921V53.1449L449.332 53.2007V53.7719L448.496 53.8695Z" stroke="#ACAEB0" stroke-width="0.4" stroke-linecap="round" stroke-linejoin="round"/>
<path d="M452.885 53.3123V55.7925L456.577 55.4093V52.7968L455.846 52.8665V52.3231L455.323 52.3788V52.0305L454.244 52.135V52.5878L453.721 52.6435V53.2148L452.885 53.3123Z" stroke="#ACAEB0" stroke-width="0.4" stroke-linecap="round" stroke-linejoin="round"/>
<path d="M461.594 52.3019V54.8169L465.286 54.4337V51.8212L464.554 51.8909V51.3475L464.032 51.4032V51.0549L462.952 51.1594V51.6122L462.43 51.6679V52.2392L461.594 52.3019Z" stroke="#ACAEB0" stroke-width="0.4" stroke-linecap="round" stroke-linejoin="round"/>
<path d="M447.8 60.9826V52.3788L465.948 50.2539V58.5443L447.8 60.9826Z" stroke="#ACAEB0" stroke-width="0.4" stroke-linecap="round" stroke-linejoin="round"/>
<path d="M457.275 52.7897V55.3047L460.967 54.9215V52.309L460.235 52.3787V51.8353L459.713 51.891V51.5427L458.633 51.6472V52.1L458.111 52.1557V52.727L457.275 52.7897Z" stroke="#ACAEB0" stroke-width="0.4" stroke-linecap="round" stroke-linejoin="round"/>
<path d="M479.951 55.4102V52.937L476.259 53.3202V55.9327L476.99 55.863V56.4064L477.513 56.3507V56.699L478.592 56.5945V56.1417L479.115 56.086V55.5147L479.951 55.4102Z" stroke="#ACAEB0" stroke-width="0.4" stroke-linecap="round" stroke-linejoin="round"/>
<path d="M477.512 56.3503L476.993 56.1064" stroke="#ACAEB0" stroke-width="0.4" stroke-linecap="round" stroke-linejoin="round"/>
<path d="M475.561 55.9327V53.4595L471.869 53.8426V56.4552L472.6 56.3855V56.9289L473.123 56.8732V57.2215L474.203 57.117V56.6642L474.725 56.6084V56.0372L475.561 55.9327Z" stroke="#ACAEB0" stroke-width="0.4" stroke-linecap="round" stroke-linejoin="round"/>
<path d="M473.123 56.8727L472.604 56.6289" stroke="#ACAEB0" stroke-width="0.4" stroke-linecap="round" stroke-linejoin="round"/>
<path d="M484.305 54.9224V52.4492L480.613 52.8324V55.4449L481.344 55.3752V55.9186L481.867 55.8629V56.2112L482.946 56.1067V55.6539L483.469 55.5982V55.0269L484.305 54.9224Z" stroke="#ACAEB0" stroke-width="0.4" stroke-linecap="round" stroke-linejoin="round"/>
<path d="M471.173 56.4893V54.0161L467.48 54.3993V57.0118L468.212 56.9421V57.4855L468.734 57.4298V57.7781L469.814 57.6736V57.2208L470.337 57.1651V56.5938L471.173 56.4893Z" stroke="#ACAEB0" stroke-width="0.4" stroke-linecap="round" stroke-linejoin="round"/>
<path d="M468.735 57.4294L468.215 57.1855" stroke="#ACAEB0" stroke-width="0.4" stroke-linecap="round" stroke-linejoin="round"/>
<path d="M467.48 51.536V54.0161L471.173 53.6329V51.0204L470.441 51.0901V50.5467L469.919 50.6024V50.2541L468.839 50.3586V50.8114L468.316 50.8672V51.4384L467.48 51.536Z" stroke="#ACAEB0" stroke-width="0.4" stroke-linecap="round" stroke-linejoin="round"/>
<path d="M471.869 50.9793V53.4595L475.562 53.0763V50.4638L474.83 50.5335V49.9901L474.308 50.0458V49.6975L473.228 49.802V50.2548L472.705 50.3105V50.8818L471.869 50.9793Z" stroke="#ACAEB0" stroke-width="0.4" stroke-linecap="round" stroke-linejoin="round"/>
<path d="M480.578 49.9694V52.4844L484.27 52.1012V49.4887L483.539 49.5584V49.015L483.016 49.0707V48.7224L481.936 48.8269V49.2797L481.414 49.3354V49.9067L480.578 49.9694Z" stroke="#ACAEB0" stroke-width="0.4" stroke-linecap="round" stroke-linejoin="round"/>
<path d="M466.784 58.5101V50.1849L484.932 48.0601V56.0718L466.784 58.5101Z" stroke="#ACAEB0" stroke-width="0.4" stroke-linecap="round" stroke-linejoin="round"/>
<path d="M476.259 50.4567V52.9717L479.951 52.5885V49.976L479.219 50.0457V49.5023L478.697 49.558V49.2097L477.617 49.3142V49.767L477.095 49.8227V50.394L476.259 50.4567Z" stroke="#ACAEB0" stroke-width="0.4" stroke-linecap="round" stroke-linejoin="round"/>
<path d="M495.94 44.7157L485.251 41.4407C478.649 39.4178 471.71 38.7301 464.839 39.4177L431.801 42.7241C430.779 42.8264 430 43.6867 430 44.7142V52.7724C430 53.8809 430.611 54.8991 431.59 55.4203L445.501 62.8291C445.612 62.8848 445.884 62.8988 446.163 62.8639" stroke="#333333" stroke-linecap="round" stroke-linejoin="round"/>
<path d="M445.153 60.7214V52.3493C445.153 51.3338 445.913 50.4796 446.922 50.3626L494.267 44.8701C495.455 44.7323 496.497 45.6609 496.497 46.8568V53.5816C496.497 55.0864 495.382 56.3584 493.891 56.5557L447.415 62.7041C446.217 62.8627 445.153 61.9302 445.153 60.7214Z" stroke="#333333" stroke-linecap="round" stroke-linejoin="round"/>
<path d="M445.222 50.7067L430.302 43.2119" stroke="#333333" stroke-linecap="round" stroke-linejoin="round"/>
<path d="M442.784 55.7924V60.1814L442.505 60.0323V53.6995C442.679 54.3159 442.784 55.0116 442.784 55.7924Z" fill="#C4C4C4"/>
<path d="M435.26 49.5882V56.156L434.981 56.0069V49.4149L435.26 49.5882Z" fill="#C4C4C4"/>
<path d="M435.608 47.6526V56.3423L435.887 56.4914V47.7994C435.795 47.7507 435.702 47.7018 435.608 47.6526Z" fill="#C4C4C4"/>
<path d="M436.235 47.9828V56.6778L436.514 56.8269V48.1296C436.422 48.0812 436.329 48.0322 436.235 47.9828Z" fill="#C4C4C4"/>
<path d="M436.862 48.3133V57.0132L437.141 57.1623V48.4604C437.049 48.4121 436.957 48.363 436.862 48.3133Z" fill="#C4C4C4"/>
<path d="M437.489 57.3487L437.768 57.4978V48.7918C437.677 48.7438 437.584 48.6947 437.489 48.6444V57.3487Z" fill="#C4C4C4"/>
<path d="M438.116 57.6841L438.395 57.8332V49.1247C438.306 49.0773 438.213 49.0278 438.116 48.9765V57.6841Z" fill="#C4C4C4"/>
<path d="M438.743 58.0196L439.022 58.1687V49.4608C438.937 49.415 438.844 49.3649 438.743 49.3108V58.0196Z" fill="#C4C4C4"/>
<path d="M439.37 49.6515C439.43 49.685 439.477 49.7119 439.51 49.7314C439.55 49.7556 439.597 49.7844 439.649 49.818V58.5042L439.37 58.3551V49.6515Z" fill="#C4C4C4"/>
<path d="M440.276 50.2783C440.178 50.1973 440.085 50.1244 439.997 50.0594V58.6905L440.276 58.8396V50.2783Z" fill="#C4C4C4"/>
<path d="M440.903 50.8671C440.809 50.7674 440.716 50.6742 440.624 50.5873V59.026L440.903 59.1751V50.8671Z" fill="#C4C4C4"/>
<path d="M441.53 51.6373C441.439 51.5068 441.345 51.3833 441.251 51.2667V59.3614L441.53 59.5105V51.6373Z" fill="#C4C4C4"/>
<path d="M442.157 52.7399C442.07 52.5464 441.976 52.3631 441.878 52.1895V59.6969L442.157 59.846V52.7399Z" fill="#C4C4C4"/>
<path d="M431.498 47.2481V54.1432L431.219 53.9941V47.0747L431.498 47.2481Z" fill="#C4C4C4"/>
<path d="M432.125 47.6381V54.4787L431.846 54.3296V47.4647L432.125 47.6381Z" fill="#C4C4C4"/>
<path d="M432.752 48.0281V54.8141L432.473 54.6651V47.8548L432.752 48.0281Z" fill="#C4C4C4"/>
<path d="M433.379 48.4181V55.1496L433.1 55.0005V48.2448L433.379 48.4181Z" fill="#C4C4C4"/>
<path d="M434.006 48.8082V55.4851L433.727 55.336V48.6348L434.006 48.8082Z" fill="#C4C4C4"/>
<path d="M434.633 49.1982V55.8205L434.354 55.6714V49.0248L434.633 49.1982Z" fill="#C4C4C4"/>
<path d="M444.107 51.916V51.8214C444.107 51.6802 444.033 51.5495 443.911 51.4778C443.752 51.3836 443.55 51.4986 443.55 51.684V51.7823C443.55 51.9158 443.616 52.0408 443.726 52.1166C443.887 52.2278 444.107 52.1121 444.107 51.916Z" stroke="#333333" stroke-width="0.5"/>
<path d="M444.107 60.5859V60.5149C444.107 60.3531 444.02 60.204 443.878 60.1252C443.7 60.0257 443.48 60.1547 443.48 60.359V60.4338C443.48 60.5873 443.558 60.7304 443.687 60.8141C443.868 60.9319 444.107 60.8019 444.107 60.5859Z" stroke="#333333" stroke-width="0.5"/>
<path d="M430.871 45.3239V45.2182C430.871 45.1152 430.818 45.0193 430.732 44.9638C430.611 44.8868 430.453 44.9733 430.453 45.1165V45.2254C430.453 45.3224 430.499 45.4137 430.576 45.4717C430.698 45.5623 430.871 45.4756 430.871 45.3239Z" stroke="#333333" stroke-width="0.5"/>
<path d="M430.871 52.4494V52.3785C430.871 52.2726 430.815 52.1746 430.724 52.1208C430.604 52.0501 430.453 52.1364 430.453 52.2754V52.3491C430.453 52.4493 430.502 52.5431 430.585 52.5999C430.706 52.6833 430.871 52.5966 430.871 52.4494Z" stroke="#333333" stroke-width="0.5"/>
<path d="M490.157 48.6095V51.1245L493.849 50.7413V48.1288L493.118 48.1985V47.6551L492.595 47.7108V47.3625L491.515 47.467V47.9198L490.993 47.9756V48.5468L490.157 48.6095Z" stroke="#ACAEB0" stroke-width="0.4" stroke-linecap="round" stroke-linejoin="round"/>
<path d="M493.85 53.7378V51.2646L490.158 51.6478V54.2603L490.889 54.1907V54.7341L491.412 54.6783V55.0267L492.491 54.9222V54.4693L493.014 54.4136V53.8423L493.85 53.7378Z" stroke="#ACAEB0" stroke-width="0.4" stroke-linecap="round" stroke-linejoin="round"/>
<path d="M494.477 54.8524V46.8755L489.583 47.4851V55.4824L494.477 54.8524Z" stroke="#ACAEB0" stroke-width="0.4"/>
<path d="M311.967 70.4732V68L308.274 68.4632V71.0161L309.006 70.926V71.4694L309.528 71.4137V71.7911L310.608 71.6575V71.2047L311.131 71.149V70.5777L311.967 70.4732Z" stroke="#ACAEB0" stroke-width="0.4" stroke-linecap="round" stroke-linejoin="round"/>
<path d="M307.578 71.0298V68.5566L303.886 69.0198V71.5728L304.617 71.4827V72.0261L305.14 71.9703V72.3478L306.219 72.2142V71.7613L306.742 71.7056V71.1343L307.578 71.0298Z" stroke="#ACAEB0" stroke-width="0.4" stroke-linecap="round" stroke-linejoin="round"/>
<path d="M316.355 69.9849V67.5117L312.663 67.9749V70.5279L313.395 70.4377V70.9811L313.917 70.9254V71.3029L314.997 71.1692V70.7164L315.519 70.6607V70.0894L316.355 69.9849Z" stroke="#ACAEB0" stroke-width="0.4" stroke-linecap="round" stroke-linejoin="round"/>
<path d="M303.189 71.5869V69.1138L299.496 69.5769V72.1299L300.228 72.0398V72.5832L300.75 72.5275V72.9049L301.83 72.7713V72.3185L302.353 72.2627V71.6915L303.189 71.5869Z" stroke="#ACAEB0" stroke-width="0.4" stroke-linecap="round" stroke-linejoin="round"/>
<path d="M299.496 66.6336V69.1138L303.189 68.6713V66.0936L302.457 66.1878V65.6444L301.935 65.7001V65.3517L300.855 65.4861V65.9091L300.332 65.9648V66.5361L299.496 66.6336Z" stroke="#ACAEB0" stroke-width="0.4" stroke-linecap="round" stroke-linejoin="round"/>
<path d="M303.885 66.0863V68.5664L307.578 68.1239V65.5462L306.846 65.6404V65.097L306.324 65.1527V64.8044L305.244 64.9387V65.3617L304.722 65.4175V65.9887L303.885 66.0863Z" stroke="#ACAEB0" stroke-width="0.4" stroke-linecap="round" stroke-linejoin="round"/>
<path d="M312.594 64.9022V67.3823L316.286 66.9398V64.3621L315.554 64.4563V63.9129L315.032 63.9686V63.6203L313.952 63.7546V64.1776L313.43 64.2334V64.8046L312.594 64.9022Z" stroke="#ACAEB0" stroke-width="0.4" stroke-linecap="round" stroke-linejoin="round"/>
<path d="M298.8 73.7469V65.143L316.948 62.7847V71.3085L298.8 73.7469Z" stroke="#ACAEB0" stroke-width="0.4" stroke-linecap="round" stroke-linejoin="round"/>
<path d="M308.275 65.5291V68.0093L311.967 67.5668V64.9891L311.235 65.0833V64.5399L310.713 64.5956V64.2473L309.633 64.3816V64.8046L309.111 64.8603V65.4316L308.275 65.5291Z" stroke="#ACAEB0" stroke-width="0.4" stroke-linecap="round" stroke-linejoin="round"/>
<path d="M330.951 68.0342V65.561L327.259 66.0242V68.5772L327.99 68.4871V69.0305L328.513 68.9747V69.3522L329.592 69.2186V68.7657L330.115 68.71V68.1387L330.951 68.0342Z" stroke="#ACAEB0" stroke-width="0.4" stroke-linecap="round" stroke-linejoin="round"/>
<path d="M326.562 68.5909V66.1177L322.869 66.5809V69.1338L323.601 69.0437V69.5871L324.123 69.5314V69.9088L325.203 69.7752V69.3224L325.726 69.2666V68.6954L326.562 68.5909Z" stroke="#ACAEB0" stroke-width="0.4" stroke-linecap="round" stroke-linejoin="round"/>
<path d="M335.34 67.5459V65.0728L331.648 65.5359V68.0889L332.379 67.9988V68.5422L332.902 68.4864V68.8639L333.982 68.7303V68.2774L334.504 68.2217V67.6504L335.34 67.5459Z" stroke="#ACAEB0" stroke-width="0.4" stroke-linecap="round" stroke-linejoin="round"/>
<path d="M332.902 68.487L332.382 68.2432" stroke="#ACAEB0" stroke-width="0.4" stroke-linecap="round" stroke-linejoin="round"/>
<path d="M322.173 69.148V66.6748L318.48 67.138V69.691L319.212 69.6008V70.1442L319.734 70.0885V70.466L320.814 70.3323V69.8795L321.337 69.8238V69.2525L322.173 69.148Z" stroke="#ACAEB0" stroke-width="0.4" stroke-linecap="round" stroke-linejoin="round"/>
<path d="M318.48 64.1947V66.6748L322.173 66.2323V63.6546L321.441 63.7488V63.2054L320.919 63.2611V62.9128L319.839 63.0471V63.4701L319.316 63.5259V64.0971L318.48 64.1947Z" stroke="#ACAEB0" stroke-width="0.4" stroke-linecap="round" stroke-linejoin="round"/>
<path d="M322.869 63.6478V66.1279L326.562 65.6854V63.1078L325.83 63.2019V62.6585L325.308 62.7142V62.3659L324.228 62.5002V62.9232L323.705 62.979V63.5502L322.869 63.6478Z" stroke="#ACAEB0" stroke-width="0.4" stroke-linecap="round" stroke-linejoin="round"/>
<path d="M331.578 62.4632V64.9434L335.27 64.5009V61.9232L334.539 62.0173V61.4739L334.016 61.5297V61.1813L332.936 61.3157V61.7387L332.414 61.7944V62.3657L331.578 62.4632Z" stroke="#ACAEB0" stroke-width="0.4" stroke-linecap="round" stroke-linejoin="round"/>
<path d="M317.784 71.3079V62.704L335.932 60.3457V68.8696L317.784 71.3079Z" stroke="#ACAEB0" stroke-width="0.4" stroke-linecap="round" stroke-linejoin="round"/>
<path d="M327.259 63.0902V65.5703L330.951 65.1278V62.5501L330.22 62.6443V62.1009L329.697 62.1566V61.8083L328.618 61.9426V62.3656L328.095 62.4214V62.9926L327.259 63.0902Z" stroke="#ACAEB0" stroke-width="0.4" stroke-linecap="round" stroke-linejoin="round"/>
<path d="M297.163 75.4881C296.884 75.523 296.612 75.509 296.501 75.4533L282.465 67.9782C281.563 67.4978 281 66.5593 281 65.5375V55.8786C281 55.6798 281.15 55.5134 281.348 55.4937V55.4937" stroke="#333333" stroke-linecap="round" stroke-linejoin="round"/>
<path d="M346.87 57.3081V57.3081C347.204 57.2694 347.497 57.5304 347.497 57.8666V67.2685C347.497 68.165 346.833 68.9228 345.944 69.0404L298.415 75.3282C297.217 75.4867 296.153 74.5542 296.153 73.3454V64.4214C296.153 64.1427 296.257 63.8989 296.431 63.8292" stroke="#333333" stroke-linecap="round" stroke-linejoin="round"/>
<path d="M293.784 68.4169V72.8059L293.505 72.6569V66.3241C293.679 66.9405 293.784 67.6361 293.784 68.4169Z" fill="#C4C4C4"/>
<path d="M286.26 62.2127V68.7805L285.981 68.6314V62.0394L286.26 62.2127Z" fill="#C4C4C4"/>
<path d="M286.608 60.2772V68.9668L286.887 69.1159V60.4239C286.795 60.3752 286.702 60.3263 286.608 60.2772Z" fill="#C4C4C4"/>
<path d="M287.235 60.6073V69.3023L287.514 69.4514V60.7542C287.422 60.7057 287.329 60.6567 287.235 60.6073Z" fill="#C4C4C4"/>
<path d="M287.862 60.9378V69.6378L288.141 69.7868V61.0849C288.049 61.0366 287.957 60.9875 287.862 60.9378Z" fill="#C4C4C4"/>
<path d="M288.489 69.9732L288.768 70.1223V61.4163C288.677 61.3684 288.584 61.3192 288.489 61.2689V69.9732Z" fill="#C4C4C4"/>
<path d="M289.116 70.3087L289.395 70.4578V61.7492C289.306 61.7018 289.213 61.6523 289.116 61.601V70.3087Z" fill="#C4C4C4"/>
<path d="M289.743 70.6441L290.022 70.7932V62.0853C289.937 62.0396 289.844 61.9894 289.743 61.9353V70.6441Z" fill="#C4C4C4"/>
<path d="M290.37 62.276C290.43 62.3096 290.477 62.3364 290.51 62.3559C290.55 62.3801 290.597 62.4089 290.649 62.4425V71.1287L290.37 70.9796V62.276Z" fill="#C4C4C4"/>
<path d="M291.276 62.9028C291.178 62.8218 291.085 62.7489 290.997 62.6839V71.315L291.276 71.4641V62.9028Z" fill="#C4C4C4"/>
<path d="M291.903 63.4916C291.809 63.3919 291.716 63.2987 291.624 63.2118V71.6505L291.903 71.7996V63.4916Z" fill="#C4C4C4"/>
<path d="M292.53 64.2618C292.439 64.1313 292.345 64.0079 292.251 63.8912V71.9859L292.53 72.135V64.2618Z" fill="#C4C4C4"/>
<path d="M293.157 65.3644C293.07 65.171 292.976 64.9876 292.878 64.814V72.3214L293.157 72.4705V65.3644Z" fill="#C4C4C4"/>
<path d="M282.498 59.8726V66.7678L282.219 66.6187V59.6992L282.498 59.8726Z" fill="#C4C4C4"/>
<path d="M283.125 60.2626V67.1032L282.846 66.9541V60.0892L283.125 60.2626Z" fill="#C4C4C4"/>
<path d="M283.752 60.6526V67.4387L283.473 67.2896V60.4793L283.752 60.6526Z" fill="#C4C4C4"/>
<path d="M284.379 61.0426V67.7741L284.1 67.625V60.8693L284.379 61.0426Z" fill="#C4C4C4"/>
<path d="M285.006 61.4327V68.1096L284.727 67.9605V61.2593L285.006 61.4327Z" fill="#C4C4C4"/>
<path d="M285.633 61.8227V68.445L285.354 68.2959V61.6493L285.633 61.8227Z" fill="#C4C4C4"/>
<path d="M295.107 64.54V64.4454C295.107 64.3042 295.033 64.1736 294.911 64.1018C294.752 64.0076 294.55 64.1227 294.55 64.308V64.4063C294.55 64.5398 294.616 64.6648 294.726 64.7406C294.887 64.8518 295.107 64.7362 295.107 64.54Z" stroke="#333333" stroke-width="0.5"/>
<path d="M295.107 73.2099V73.1389C295.107 72.9771 295.02 72.828 294.878 72.7492C294.7 72.6497 294.48 72.7788 294.48 72.983V73.0578C294.48 73.2113 294.558 73.3545 294.687 73.4382C294.868 73.5559 295.107 73.426 295.107 73.2099Z" stroke="#333333" stroke-width="0.5"/>
<path d="M281.871 57.948V57.8422C281.871 57.7392 281.818 57.6433 281.732 57.5879C281.611 57.5108 281.453 57.5974 281.453 57.7405V57.8495C281.453 57.9464 281.499 58.0377 281.576 58.0957C281.698 58.1863 281.871 58.0996 281.871 57.948Z" stroke="#333333" stroke-width="0.5"/>
<path d="M281.871 65.0735V65.0025C281.871 64.8966 281.815 64.7986 281.724 64.7448C281.604 64.6742 281.453 64.7604 281.453 64.8994V64.9732C281.453 65.0733 281.502 65.1671 281.585 65.2239C281.706 65.3073 281.871 65.2206 281.871 65.0735Z" stroke="#333333" stroke-width="0.5"/>
<path d="M341.157 61.2093V63.6895L344.849 63.247V60.6693L344.118 60.7634V60.22L343.595 60.2758V59.9274L342.515 60.0617V60.4848L341.993 60.5405V61.1118L341.157 61.2093Z" stroke="#ACAEB0" stroke-width="0.4" stroke-linecap="round" stroke-linejoin="round"/>
<path d="M344.85 66.2329V63.7598L341.158 64.2229V66.7759L341.889 66.6858V67.2292L342.412 67.1735V67.5509L343.491 67.4173V66.9644L344.014 66.9087V66.3374L344.85 66.2329Z" stroke="#ACAEB0" stroke-width="0.4" stroke-linecap="round" stroke-linejoin="round"/>
<path d="M345.477 67.6578V59.1963L340.583 59.8059V68.2878L345.477 67.6578Z" stroke="#ACAEB0" stroke-width="0.4"/>
<path d="M311.967 82.2198V79.7466L308.274 80.2098V82.7627L309.006 82.6726V83.216L309.528 83.1603V83.5377L310.608 83.4041V82.9513L311.131 82.8955V82.3243L311.967 82.2198Z" stroke="#ACAEB0" stroke-width="0.4" stroke-linecap="round" stroke-linejoin="round"/>
<path d="M307.578 82.7779V80.3047L303.886 80.7679V83.3208L304.617 83.2307V83.7741L305.14 83.7184V84.0958L306.219 83.9622V83.5094L306.742 83.4536V82.8824L307.578 82.7779Z" stroke="#ACAEB0" stroke-width="0.4" stroke-linecap="round" stroke-linejoin="round"/>
<path d="M316.355 81.7329V79.2598L312.663 79.7229V82.2759L313.395 82.1858V82.7292L313.917 82.6735V83.0509L314.997 82.9173V82.4644L315.519 82.4087V81.8374L316.355 81.7329Z" stroke="#ACAEB0" stroke-width="0.4" stroke-linecap="round" stroke-linejoin="round"/>
<path d="M303.189 83.335V80.8618L299.496 81.325V83.878L300.228 83.7878V84.3312L300.75 84.2755V84.653L301.83 84.5193V84.0665L302.353 84.0108V83.4395L303.189 83.335Z" stroke="#ACAEB0" stroke-width="0.4" stroke-linecap="round" stroke-linejoin="round"/>
<path d="M299.496 78.3817V80.8618L303.189 80.4193V77.8416L302.457 77.9358V77.3924L301.935 77.4481V77.0998L300.855 77.2341V77.6571L300.332 77.7129V78.2841L299.496 78.3817Z" stroke="#ACAEB0" stroke-width="0.4" stroke-linecap="round" stroke-linejoin="round"/>
<path d="M303.885 77.8348V80.3149L307.578 79.8724V77.2948L306.846 77.3889V76.8455L306.324 76.9013V76.5529L305.244 76.6872V77.1103L304.722 77.166V77.7373L303.885 77.8348Z" stroke="#ACAEB0" stroke-width="0.4" stroke-linecap="round" stroke-linejoin="round"/>
<path d="M312.594 76.6502V79.1304L316.286 78.6879V76.1102L315.555 76.2044V75.661L315.032 75.7167V75.3684L313.952 75.5027V75.9257L313.43 75.9814V76.5527L312.594 76.6502Z" stroke="#ACAEB0" stroke-width="0.4" stroke-linecap="round" stroke-linejoin="round"/>
<path d="M298.8 85.4949V76.8911L316.948 74.5327V83.0566L298.8 85.4949Z" stroke="#ACAEB0" stroke-width="0.4" stroke-linecap="round" stroke-linejoin="round"/>
<path d="M308.275 77.2772V79.7573L311.967 79.3148V76.7371L311.235 76.8313V76.2879L310.713 76.3436V75.9953L309.633 76.1296V76.5526L309.111 76.6084V77.1796L308.275 77.2772Z" stroke="#ACAEB0" stroke-width="0.4" stroke-linecap="round" stroke-linejoin="round"/>
<path d="M330.951 79.7818V77.3086L327.259 77.7718V80.3247L327.991 80.2346V80.778L328.513 80.7223V81.0997L329.593 80.9661V80.5133L330.115 80.4575V79.8863L330.951 79.7818Z" stroke="#ACAEB0" stroke-width="0.4" stroke-linecap="round" stroke-linejoin="round"/>
<path d="M326.562 80.3389V77.8657L322.87 78.3289V80.8819L323.602 80.7917V81.3351L324.124 81.2794V81.6569L325.204 81.5232V81.0704L325.726 81.0147V80.4434L326.562 80.3389Z" stroke="#ACAEB0" stroke-width="0.4" stroke-linecap="round" stroke-linejoin="round"/>
<path d="M335.341 79.294V76.8208L331.648 77.284V79.8369L332.38 79.7468V80.2902L332.902 80.2345V80.6119L333.982 80.4783V80.0255L334.505 79.9698V79.3985L335.341 79.294Z" stroke="#ACAEB0" stroke-width="0.4" stroke-linecap="round" stroke-linejoin="round"/>
<path d="M322.174 80.896V78.4229L318.481 78.886V81.439L319.213 81.3489V81.8923L319.735 81.8365V82.214L320.815 82.0804V81.6275L321.338 81.5718V81.0005L322.174 80.896Z" stroke="#ACAEB0" stroke-width="0.4" stroke-linecap="round" stroke-linejoin="round"/>
<path d="M318.481 75.9427V78.4229L322.173 77.9804V75.4027L321.442 75.4968V74.9534L320.919 75.0092V74.6608L319.839 74.7951V75.2182L319.317 75.2739V75.8452L318.481 75.9427Z" stroke="#ACAEB0" stroke-width="0.4" stroke-linecap="round" stroke-linejoin="round"/>
<path d="M322.87 75.3963V77.8765L326.562 77.434V74.8563L325.831 74.9504V74.407L325.308 74.4628V74.1144L324.229 74.2488V74.6718L323.706 74.7275V75.2988L322.87 75.3963Z" stroke="#ACAEB0" stroke-width="0.4" stroke-linecap="round" stroke-linejoin="round"/>
<path d="M331.579 74.2117V76.6919L335.271 76.2494V73.6717L334.539 73.7659V73.2225L334.017 73.2782V72.9299L332.937 73.0642V73.4872L332.415 73.5429V74.1142L331.579 74.2117Z" stroke="#ACAEB0" stroke-width="0.4" stroke-linecap="round" stroke-linejoin="round"/>
<path d="M317.785 83.056V74.4521L335.933 72.0938V80.6176L317.785 83.056Z" stroke="#ACAEB0" stroke-width="0.4" stroke-linecap="round" stroke-linejoin="round"/>
<path d="M327.259 74.8382V77.3184L330.951 76.8759V74.2982L330.22 74.3923V73.8489L329.697 73.9047V73.5563L328.618 73.6907V74.1137L328.095 74.1694V74.7407L327.259 74.8382Z" stroke="#ACAEB0" stroke-width="0.4" stroke-linecap="round" stroke-linejoin="round"/>
<path d="M297.163 87.2367C296.884 87.2715 296.612 87.2576 296.501 87.2018L282.465 79.7267C281.563 79.2464 281 78.3079 281 77.2861V67.6271C281 67.4284 281.15 67.262 281.348 67.2422V67.2422" stroke="#333333" stroke-linecap="round" stroke-linejoin="round"/>
<path d="M346.87 69.0566V69.0566C347.204 69.0179 347.497 69.2789 347.497 69.6151V79.017C347.497 79.9135 346.833 80.6713 345.944 80.7889L298.415 87.0767C297.217 87.2352 296.153 86.3027 296.153 85.094V76.17C296.153 75.8913 296.257 75.6474 296.431 75.5778" stroke="#333333" stroke-linecap="round" stroke-linejoin="round"/>
<path d="M293.784 80.1659V84.555L293.505 84.4059V78.0731C293.679 78.6895 293.784 79.3851 293.784 80.1659Z" fill="#C4C4C4"/>
<path d="M286.26 73.9617V80.5295L285.981 80.3804V73.7884L286.26 73.9617Z" fill="#C4C4C4"/>
<path d="M286.608 72.0262V80.7159L286.887 80.865V72.1729C286.795 72.1243 286.702 72.0753 286.608 72.0262Z" fill="#C4C4C4"/>
<path d="M287.235 72.3564V81.0513L287.514 81.2004V72.5032C287.422 72.4547 287.329 72.4057 287.235 72.3564Z" fill="#C4C4C4"/>
<path d="M287.862 72.6868V81.3868L288.141 81.5359V72.8339C288.049 72.7856 287.957 72.7366 287.862 72.6868Z" fill="#C4C4C4"/>
<path d="M288.489 81.7222L288.768 81.8713V73.1654C288.677 73.1174 288.584 73.0682 288.489 73.0179V81.7222Z" fill="#C4C4C4"/>
<path d="M289.116 82.0577L289.395 82.2068V73.4982C289.306 73.4508 289.213 73.4013 289.116 73.35V82.0577Z" fill="#C4C4C4"/>
<path d="M289.743 82.3931L290.022 82.5422V73.8343C289.937 73.7886 289.844 73.7384 289.743 73.6843V82.3931Z" fill="#C4C4C4"/>
<path d="M290.37 74.0251C290.43 74.0586 290.477 74.0854 290.51 74.1049C290.55 74.1292 290.597 74.158 290.649 74.1915V82.8777L290.37 82.7286V74.0251Z" fill="#C4C4C4"/>
<path d="M291.276 74.6518C291.178 74.5708 291.085 74.4979 290.997 74.4329V83.0641L291.276 83.2131V74.6518Z" fill="#C4C4C4"/>
<path d="M291.903 75.2407C291.809 75.1409 291.716 75.0477 291.624 74.9609V83.3995L291.903 83.5486V75.2407Z" fill="#C4C4C4"/>
<path d="M292.53 76.0108C292.439 75.8803 292.345 75.7569 292.251 75.6403V83.735L292.53 83.8841V76.0108Z" fill="#C4C4C4"/>
<path d="M293.157 77.1135C293.07 76.92 292.976 76.7366 292.878 76.5631V84.0704L293.157 84.2195V77.1135Z" fill="#C4C4C4"/>
<path d="M282.498 71.6216V78.5168L282.219 78.3677V71.4482L282.498 71.6216Z" fill="#C4C4C4"/>
<path d="M283.125 72.0116V78.8522L282.846 78.7031V71.8383L283.125 72.0116Z" fill="#C4C4C4"/>
<path d="M283.752 72.4016V79.1877L283.473 79.0386V72.2283L283.752 72.4016Z" fill="#C4C4C4"/>
<path d="M284.379 72.7917V79.5231L284.1 79.374V72.6183L284.379 72.7917Z" fill="#C4C4C4"/>
<path d="M285.006 73.1817V79.8586L284.727 79.7095V73.0083L285.006 73.1817Z" fill="#C4C4C4"/>
<path d="M285.633 73.5717V80.194L285.354 80.0449V73.3984L285.633 73.5717Z" fill="#C4C4C4"/>
<path d="M295.107 76.2885V76.194C295.107 76.0528 295.033 75.9221 294.911 75.8503C294.752 75.7561 294.55 75.8712 294.55 76.0565V76.1548C294.55 76.2884 294.616 76.4134 294.726 76.4891C294.887 76.6004 295.107 76.4847 295.107 76.2885Z" stroke="#333333" stroke-width="0.5"/>
<path d="M295.107 84.9585V84.8875C295.107 84.7257 295.02 84.5765 294.878 84.4977C294.7 84.3983 294.48 84.5273 294.48 84.7316V84.8063C294.48 84.9599 294.558 85.103 294.687 85.1867C294.868 85.3045 295.107 85.1745 295.107 84.9585Z" stroke="#333333" stroke-width="0.5"/>
<path d="M281.871 69.6965V69.5908C281.871 69.4878 281.818 69.3919 281.732 69.3364C281.611 69.2593 281.453 69.3459 281.453 69.489V69.598C281.453 69.695 281.499 69.7862 281.576 69.8442C281.698 69.9349 281.871 69.8481 281.871 69.6965Z" stroke="#333333" stroke-width="0.5"/>
<path d="M281.871 76.8225V76.7516C281.871 76.6457 281.815 76.5476 281.724 76.4938C281.604 76.4232 281.453 76.5095 281.453 76.6485V76.7222C281.453 76.8224 281.502 76.9161 281.585 76.9729C281.706 77.0563 281.871 76.9696 281.871 76.8225Z" stroke="#333333" stroke-width="0.5"/>
<path d="M341.157 72.9588V75.439L344.849 74.9965V72.4188L344.118 72.5129V71.9695L343.595 72.0253V71.6769L342.515 71.8113V72.2343L341.993 72.29V72.8613L341.157 72.9588Z" stroke="#ACAEB0" stroke-width="0.4" stroke-linecap="round" stroke-linejoin="round"/>
<path d="M344.85 77.981V75.5078L341.158 75.971V78.524L341.889 78.4338V78.9772L342.412 78.9215V79.299L343.491 79.1653V78.7125L344.014 78.6568V78.0855L344.85 77.981Z" stroke="#ACAEB0" stroke-width="0.4" stroke-linecap="round" stroke-linejoin="round"/>
<path d="M345.477 79.4063V70.9448L340.583 71.5544V80.0364L345.477 79.4063Z" stroke="#ACAEB0" stroke-width="0.4"/>
<path d="M311.967 58.7432V56.27L308.274 56.6532V59.2657L309.006 59.196V59.7394L309.528 59.6837V60.032L310.608 59.9275V59.4747L311.131 59.419V58.8477L311.967 58.7432Z" stroke="#ACAEB0" stroke-width="0.4" stroke-linecap="round" stroke-linejoin="round"/>
<path d="M307.577 59.2657V56.7925L303.885 57.1756V59.7882L304.617 59.7185V60.2619L305.139 60.2062V60.5545L306.219 60.45V59.9972L306.741 59.9414V59.3702L307.577 59.2657Z" stroke="#ACAEB0" stroke-width="0.4" stroke-linecap="round" stroke-linejoin="round"/>
<path d="M305.139 60.2057L304.62 59.9619" stroke="#ACAEB0" stroke-width="0.4" stroke-linecap="round" stroke-linejoin="round"/>
<path d="M316.356 58.2554V55.7822L312.663 56.1654V58.7779L313.395 58.7082V59.2516L313.917 59.1959V59.5442L314.997 59.4397V58.9869L315.52 58.9312V58.3599L316.356 58.2554Z" stroke="#ACAEB0" stroke-width="0.4" stroke-linecap="round" stroke-linejoin="round"/>
<path d="M303.189 59.8228V57.3496L299.497 57.7328V60.3453L300.228 60.2756V60.819L300.751 60.7633V61.1116L301.83 61.0071V60.5543L302.353 60.4986V59.9273L303.189 59.8228Z" stroke="#ACAEB0" stroke-width="0.4" stroke-linecap="round" stroke-linejoin="round"/>
<path d="M300.75 60.7639L300.231 60.52" stroke="#ACAEB0" stroke-width="0.4" stroke-linecap="round" stroke-linejoin="round"/>
<path d="M299.496 54.8695V57.3496L303.189 56.9664V54.3539L302.457 54.4236V53.8802L301.935 53.9359V53.5876L300.855 53.6921V54.1449L300.332 54.2007V54.7719L299.496 54.8695Z" stroke="#ACAEB0" stroke-width="0.4" stroke-linecap="round" stroke-linejoin="round"/>
<path d="M303.885 54.3123V56.7925L307.577 56.4093V53.7968L306.846 53.8665V53.3231L306.323 53.3788V53.0305L305.244 53.135V53.5878L304.721 53.6435V54.2148L303.885 54.3123Z" stroke="#ACAEB0" stroke-width="0.4" stroke-linecap="round" stroke-linejoin="round"/>
<path d="M312.594 53.3019V55.8169L316.286 55.4337V52.8212L315.554 52.8909V52.3475L315.032 52.4032V52.0549L313.952 52.1594V52.6122L313.43 52.6679V53.2392L312.594 53.3019Z" stroke="#ACAEB0" stroke-width="0.4" stroke-linecap="round" stroke-linejoin="round"/>
<path d="M298.8 61.9826V53.3788L316.948 51.2539V59.5443L298.8 61.9826Z" stroke="#ACAEB0" stroke-width="0.4" stroke-linecap="round" stroke-linejoin="round"/>
<path d="M308.275 53.7897V56.3047L311.967 55.9215V53.309L311.235 53.3787V52.8353L310.713 52.891V52.5427L309.633 52.6472V53.1L309.111 53.1557V53.727L308.275 53.7897Z" stroke="#ACAEB0" stroke-width="0.4" stroke-linecap="round" stroke-linejoin="round"/>
<path d="M330.951 56.4102V53.937L327.259 54.3202V56.9327L327.99 56.863V57.4064L328.513 57.3507V57.699L329.592 57.5945V57.1417L330.115 57.086V56.5147L330.951 56.4102Z" stroke="#ACAEB0" stroke-width="0.4" stroke-linecap="round" stroke-linejoin="round"/>
<path d="M328.512 57.3503L327.993 57.1064" stroke="#ACAEB0" stroke-width="0.4" stroke-linecap="round" stroke-linejoin="round"/>
<path d="M326.561 56.9327V54.4595L322.869 54.8426V57.4552L323.6 57.3855V57.9289L324.123 57.8732V58.2215L325.203 58.117V57.6642L325.725 57.6084V57.0372L326.561 56.9327Z" stroke="#ACAEB0" stroke-width="0.4" stroke-linecap="round" stroke-linejoin="round"/>
<path d="M324.123 57.8727L323.604 57.6289" stroke="#ACAEB0" stroke-width="0.4" stroke-linecap="round" stroke-linejoin="round"/>
<path d="M335.305 55.9224V53.4492L331.613 53.8324V56.4449L332.344 56.3752V56.9186L332.867 56.8629V57.2112L333.946 57.1067V56.6539L334.469 56.5982V56.0269L335.305 55.9224Z" stroke="#ACAEB0" stroke-width="0.4" stroke-linecap="round" stroke-linejoin="round"/>
<path d="M322.173 57.4893V55.0161L318.48 55.3993V58.0118L319.212 57.9421V58.4855L319.734 58.4298V58.7781L320.814 58.6736V58.2208L321.337 58.1651V57.5938L322.173 57.4893Z" stroke="#ACAEB0" stroke-width="0.4" stroke-linecap="round" stroke-linejoin="round"/>
<path d="M319.735 58.4294L319.215 58.1855" stroke="#ACAEB0" stroke-width="0.4" stroke-linecap="round" stroke-linejoin="round"/>
<path d="M318.48 52.536V55.0161L322.173 54.6329V52.0204L321.441 52.0901V51.5467L320.919 51.6024V51.2541L319.839 51.3586V51.8114L319.316 51.8672V52.4384L318.48 52.536Z" stroke="#ACAEB0" stroke-width="0.4" stroke-linecap="round" stroke-linejoin="round"/>
<path d="M322.869 51.9793V54.4595L326.562 54.0763V51.4638L325.83 51.5335V50.9901L325.308 51.0458V50.6975L324.228 50.802V51.2548L323.705 51.3105V51.8818L322.869 51.9793Z" stroke="#ACAEB0" stroke-width="0.4" stroke-linecap="round" stroke-linejoin="round"/>
<path d="M331.578 50.9694V53.4844L335.27 53.1012V50.4887L334.539 50.5584V50.015L334.016 50.0707V49.7224L332.936 49.8269V50.2797L332.414 50.3354V50.9067L331.578 50.9694Z" stroke="#ACAEB0" stroke-width="0.4" stroke-linecap="round" stroke-linejoin="round"/>
<path d="M317.784 59.5101V51.1849L335.932 49.0601V57.0718L317.784 59.5101Z" stroke="#ACAEB0" stroke-width="0.4" stroke-linecap="round" stroke-linejoin="round"/>
<path d="M327.259 51.4567V53.9717L330.951 53.5885V50.976L330.219 51.0457V50.5023L329.697 50.558V50.2097L328.617 50.3142V50.767L328.095 50.8227V51.394L327.259 51.4567Z" stroke="#ACAEB0" stroke-width="0.4" stroke-linecap="round" stroke-linejoin="round"/>
<path d="M346.94 45.7157L336.251 42.4407C329.649 40.4178 322.71 39.7301 315.839 40.4177L282.801 43.7241C281.779 43.8264 281 44.6867 281 45.7142V53.7724C281 54.8809 281.611 55.8991 282.59 56.4203L296.501 63.8291C296.612 63.8848 296.884 63.8988 297.163 63.8639" stroke="#333333" stroke-linecap="round" stroke-linejoin="round"/>
<path d="M296.153 61.7214V53.3493C296.153 52.3338 296.913 51.4796 297.922 51.3626L345.267 45.8701C346.455 45.7323 347.497 46.6609 347.497 47.8568V54.5816C347.497 56.0864 346.382 57.3584 344.891 57.5557L298.415 63.7041C297.217 63.8627 296.153 62.9302 296.153 61.7214Z" stroke="#333333" stroke-linecap="round" stroke-linejoin="round"/>
<path d="M296.222 51.7067L281.302 44.2119" stroke="#333333" stroke-linecap="round" stroke-linejoin="round"/>
<path d="M293.784 56.7924V61.1814L293.505 61.0323V54.6995C293.679 55.3159 293.784 56.0116 293.784 56.7924Z" fill="#C4C4C4"/>
<path d="M286.26 50.5882V57.156L285.981 57.0069V50.4149L286.26 50.5882Z" fill="#C4C4C4"/>
<path d="M286.608 48.6526V57.3423L286.887 57.4914V48.7994C286.795 48.7507 286.702 48.7018 286.608 48.6526Z" fill="#C4C4C4"/>
<path d="M287.235 48.9828V57.6778L287.514 57.8269V49.1296C287.422 49.0812 287.329 49.0322 287.235 48.9828Z" fill="#C4C4C4"/>
<path d="M287.862 49.3133V58.0132L288.141 58.1623V49.4604C288.049 49.4121 287.957 49.363 287.862 49.3133Z" fill="#C4C4C4"/>
<path d="M288.489 58.3487L288.768 58.4978V49.7918C288.677 49.7438 288.584 49.6947 288.489 49.6444V58.3487Z" fill="#C4C4C4"/>
<path d="M289.116 58.6841L289.395 58.8332V50.1247C289.306 50.0773 289.213 50.0278 289.116 49.9765V58.6841Z" fill="#C4C4C4"/>
<path d="M289.743 59.0196L290.022 59.1687V50.4608C289.937 50.415 289.844 50.3649 289.743 50.3108V59.0196Z" fill="#C4C4C4"/>
<path d="M290.37 50.6515C290.43 50.685 290.477 50.7119 290.51 50.7314C290.55 50.7556 290.597 50.7844 290.649 50.818V59.5042L290.37 59.3551V50.6515Z" fill="#C4C4C4"/>
<path d="M291.276 51.2783C291.178 51.1973 291.085 51.1244 290.997 51.0594V59.6905L291.276 59.8396V51.2783Z" fill="#C4C4C4"/>
<path d="M291.903 51.8671C291.809 51.7674 291.716 51.6742 291.624 51.5873V60.026L291.903 60.1751V51.8671Z" fill="#C4C4C4"/>
<path d="M292.53 52.6373C292.439 52.5068 292.345 52.3833 292.251 52.2667V60.3614L292.53 60.5105V52.6373Z" fill="#C4C4C4"/>
<path d="M293.157 53.7399C293.07 53.5464 292.976 53.3631 292.878 53.1895V60.6969L293.157 60.846V53.7399Z" fill="#C4C4C4"/>
<path d="M282.498 48.2481V55.1432L282.219 54.9941V48.0747L282.498 48.2481Z" fill="#C4C4C4"/>
<path d="M283.125 48.6381V55.4787L282.846 55.3296V48.4647L283.125 48.6381Z" fill="#C4C4C4"/>
<path d="M283.752 49.0281V55.8141L283.473 55.6651V48.8548L283.752 49.0281Z" fill="#C4C4C4"/>
<path d="M284.379 49.4181V56.1496L284.1 56.0005V49.2448L284.379 49.4181Z" fill="#C4C4C4"/>
<path d="M285.006 49.8082V56.4851L284.727 56.336V49.6348L285.006 49.8082Z" fill="#C4C4C4"/>
<path d="M285.633 50.1982V56.8205L285.354 56.6714V50.0248L285.633 50.1982Z" fill="#C4C4C4"/>
<path d="M295.107 52.916V52.8214C295.107 52.6802 295.033 52.5495 294.911 52.4778C294.752 52.3836 294.55 52.4986 294.55 52.684V52.7823C294.55 52.9158 294.616 53.0408 294.726 53.1166C294.887 53.2278 295.107 53.1121 295.107 52.916Z" stroke="#333333" stroke-width="0.5"/>
<path d="M295.107 61.5859V61.5149C295.107 61.3531 295.02 61.204 294.878 61.1252C294.7 61.0257 294.48 61.1547 294.48 61.359V61.4338C294.48 61.5873 294.558 61.7304 294.687 61.8141C294.868 61.9319 295.107 61.8019 295.107 61.5859Z" stroke="#333333" stroke-width="0.5"/>
<path d="M281.871 46.3239V46.2182C281.871 46.1152 281.818 46.0193 281.732 45.9638C281.611 45.8868 281.453 45.9733 281.453 46.1165V46.2254C281.453 46.3224 281.499 46.4137 281.576 46.4717C281.698 46.5623 281.871 46.4756 281.871 46.3239Z" stroke="#333333" stroke-width="0.5"/>
<path d="M281.871 53.4494V53.3785C281.871 53.2726 281.815 53.1746 281.724 53.1208C281.604 53.0501 281.453 53.1364 281.453 53.2754V53.3491C281.453 53.4493 281.502 53.5431 281.585 53.5999C281.706 53.6833 281.871 53.5966 281.871 53.4494Z" stroke="#333333" stroke-width="0.5"/>
<path d="M341.157 49.6095V52.1245L344.849 51.7413V49.1288L344.118 49.1985V48.6551L343.595 48.7108V48.3625L342.515 48.467V48.9198L341.993 48.9756V49.5468L341.157 49.6095Z" stroke="#ACAEB0" stroke-width="0.4" stroke-linecap="round" stroke-linejoin="round"/>
<path d="M344.85 54.7378V52.2646L341.158 52.6478V55.2603L341.889 55.1907V55.7341L342.412 55.6783V56.0267L343.491 55.9222V55.4693L344.014 55.4136V54.8423L344.85 54.7378Z" stroke="#ACAEB0" stroke-width="0.4" stroke-linecap="round" stroke-linejoin="round"/>
<path d="M345.477 55.8524V47.8755L340.583 48.4851V56.4824L345.477 55.8524Z" stroke="#ACAEB0" stroke-width="0.4"/>
<rect x="5.5" y="51.5" width="49" height="35" rx="1.5" stroke="#333333"/>
<rect x="8" y="54" width="44" height="30" rx="1" fill="#EBEDEE"/>
<path d="M0.5 87.0005C0.5 86.7243 0.723857 86.5005 1 86.5005H59C59.2761 86.5005 59.5 86.7243 59.5 87.0005V89.6672C59.5 91.0479 58.3807 92.1672 57 92.1672H3C1.61929 92.1672 0.5 91.0479 0.5 89.6672V87.0005Z" stroke="#333333"/>
<path d="M23.3333 86.666V88.3327C23.3333 88.885 23.781 89.3327 24.3333 89.3327H35.6666C36.2189 89.3327 36.6666 88.885 36.6666 88.3327V86.666" stroke="#333333"/>
<rect x="40.5" y="42.5" width="25" height="31" rx="1.5" fill="white" stroke="#333333"/>
<path d="M51 45H55" stroke="#333333" stroke-linecap="round"/>
<path d="M40.5 69H65.5" stroke="#333333" stroke-linecap="round"/>
<circle cx="53" cy="71" r="1" fill="#333333"/>
<path d="M73.7693 78.1538V57.8462C73.7693 56.8266 72.9427 56 71.9231 56H60.8462C59.8266 56 59.0001 56.8266 59.0001 57.8462V78.1538C59.0001 79.1734 59.8266 80 60.8462 80H71.9231C72.9427 80 73.7693 79.1734 73.7693 78.1538Z" fill="white" stroke="#333333" stroke-linecap="round" stroke-linejoin="round"/>
<path d="M66.3846 76.9235C67.1493 76.9235 67.7692 76.3036 67.7692 75.5389C67.7692 74.7742 67.1493 74.1543 66.3846 74.1543C65.6199 74.1543 65 74.7742 65 75.5389C65 76.3036 65.6199 76.9235 66.3846 76.9235Z" fill="#333333"/>
<path d="M115.969 4.83638C115.997 3.54299 117.081 2.50883 118.409 2.50883C119.736 2.50883 120.82 3.54299 120.848 4.83638V8.12276H123.371V4.83638C123.371 2.16532 121.149 0 118.408 0C115.667 0 113.445 2.16532 113.445 4.83638V8.12276H115.973L115.969 4.83638ZM124.301 9.3032H112.519C111.682 9.3032 111.002 9.96337 111 10.7793V18.525C111.003 19.3388 111.68 19.9977 112.515 20H124.301C125.136 19.9976 125.812 19.3386 125.815 18.525V10.7793C125.812 9.96546 125.136 9.30614 124.301 9.3032ZM119.67 15.2932C119.67 15.9027 119.105 16.3955 118.409 16.3955C117.713 16.3955 117.145 15.8985 117.145 15.2932V13.1948C117.145 12.5853 117.71 12.0925 118.408 12.0925C119.106 12.0925 119.669 12.5864 119.669 13.1948L119.67 15.2932Z" fill="#333333"/>
<path d="M75.3333 78.8582C75.3333 80.331 76.5272 81.5249 78 81.5249C79.4728 81.5249 80.6667 80.331 80.6667 78.8582C80.6667 77.3855 79.4728 76.1916 78 76.1916C76.5272 76.1916 75.3333 77.3855 75.3333 78.8582ZM275.333 67C275.333 68.4728 276.527 69.6667 278 69.6667C279.473 69.6667 280.667 68.4728 280.667 67C280.667 65.5272 279.473 64.3333 278 64.3333C276.527 64.3333 275.333 65.5272 275.333 67ZM77.7473 79.2897C94.8594 89.3145 128.491 101.852 166.088 104.135C203.692 106.418 245.323 98.4444 278.343 67.3641L277.657 66.6359C244.901 97.4681 203.578 105.409 166.149 103.137C128.712 100.863 95.2318 88.3737 78.2527 78.4268L77.7473 79.2897Z" fill="#5496EA"/>
</svg>