<svg xmlns="http://www.w3.org/2000/svg" width="24" height="24" fill="none"><path fill="#4326C4" fill-rule="evenodd" d="M12.728 0a10.544 10.544 0 0 1 8.376 16.948 2.345 2.345 0 0 1-1.8.959c-1.28 0-1.694-.921-2.083-1.894l-1.924-4.727-1.916 4.727c-.327.806-.68 1.9-2.084 1.9s-1.76-1.09-2.087-1.9L5.984 8.062H8.71l2.593 6.545 1.932-4.771c.306-.755.67-1.9 2.066-1.9s1.763 1.141 2.07 1.9L19.471 15a8.083 8.083 0 0 0-6.743-12.538 9.538 9.538 0 1 0 3.514 18.408l.907 2.289A12 12 0 1 1 12.73 0Z" clip-rule="evenodd"/></svg>